g facial_mouth_geo
v -0.06539394 1.343399 0.06049526
v -0.07896127 1.355604 0.04313309
v -0.08462024 1.365923 0.06252608
v -0.07341438 1.352695 0.07923
v -0.05004038 1.334285 0.07348815
v -0.07852762 1.365593 0.09050319
v -0.086925 1.381571 0.07146337
v -0.05550942 1.340945 0.0911244
v -0.0333986 1.324644 0.08826511
v -0.08106903 1.38311 0.0981098
v -0.09120434 1.400477 0.07776694
v -0.08214577 1.396827 0.09974246
v -0.0622239 1.354775 0.1024096
v -0.07095842 1.382931 0.1089557
v -0.07289305 1.397321 0.1083112
v -0.06773645 1.368382 0.1076955
v -0.04687228 1.351272 0.1119533
v -0.05627968 1.388036 0.1185053
v -0.05916985 1.399516 0.11699
v -0.04083182 1.404103 0.1248052
v -0.04931583 1.364169 0.1170485
v -0.05277424 1.376639 0.1194687
v -0.03778593 1.381931 0.1279886
v -0.0323774 1.371832 0.1282846
v -0.01910317 1.385926 0.1424761
v -0.0206229 1.405689 0.1345897
v -0.03070955 1.359386 0.1250223
v -0.0151106 1.356265 0.1294666
v -0.03097908 1.348753 0.1183226
v -0.03354441 1.339495 0.111231
v 3.389662E-19 1.390698 0.154538
v -3.679925E-18 1.366603 0.1373648
v -1.474106E-17 1.407625 0.1416069
v 0.0206229 1.405689 0.1345897
v -0.01664559 1.369217 0.1336196
v 0.01910317 1.385926 0.1424761
v 0.04083182 1.404103 0.1248052
v -0.01410036 1.345433 0.1240893
v -0.03301808 1.329618 0.1007684
v -0.0142766 1.329302 0.1137334
v -0.0119006 1.321172 0.1093716
v -0.01054239 1.314918 0.1033837
v 1.915067E-17 1.313144 0.1064383
v 5.219913E-18 1.344537 0.127392
v -1.685006E-18 1.319209 0.1119285
v 2.025017E-18 1.353345 0.1324184
v 0.0151106 1.356265 0.1294666
v -6.830403E-18 1.32873 0.1167669
v 0.0119006 1.321172 0.1093716
v 0.01054239 1.314918 0.1033838
v 0.0333986 1.324644 0.08826511
v 0.01410038 1.345433 0.1240893
v 0.01427658 1.329302 0.1137334
v 0.03301808 1.329618 0.1007684
v 0.03354441 1.339495 0.111231
v 0.05550942 1.340945 0.0911244
v 0.05004038 1.334285 0.07348815
v 0.03097908 1.348752 0.1183226
v 0.04687228 1.351272 0.1119533
v 0.07341438 1.352695 0.07923
v 0.06539394 1.343399 0.06049526
v 0.03070955 1.359386 0.1250223
v 0.0622239 1.354775 0.1024096
v 0.08462024 1.365923 0.06252608
v 0.07896127 1.355604 0.04313309
v 0.07852762 1.365593 0.09050319
v 0.086925 1.381571 0.07146337
v 0.06773645 1.368382 0.1076955
v 0.08106903 1.38311 0.0981098
v 0.09120434 1.400477 0.07776694
v 0.08214577 1.396827 0.09974246
v 0.07095842 1.382931 0.1089557
v 0.07289305 1.397321 0.1083112
v 0.04931583 1.364169 0.1170485
v 0.05627969 1.388036 0.1185053
v 0.05916985 1.399516 0.11699
v 0.03237741 1.371832 0.1282846
v 0.05277424 1.376639 0.1194687
v 0.03778593 1.381931 0.1279886
v 0.01664559 1.369217 0.1336196
vt 0.1832275 0.309082
vt 0.1561279 0.3166504
vt 0.1513672 0.3320312
vt 0.1751709 0.3254395
vt 0.2004395 0.3032227
vt 0.1699219 0.3427734
vt 0.1480713 0.3464355
vt 0.1947021 0.3225098
vt 0.2188721 0.2980957
vt 0.1678467 0.3527832
vt 0.144165 0.3664551
vt 0.1657715 0.362793
vt 0.1878662 0.3337402
vt 0.1795654 0.3537598
vt 0.177124 0.3637695
vt 0.1818848 0.3435059
vt 0.2106934 0.3291016
vt 0.1955566 0.3566895
vt 0.192627 0.3662109
vt 0.210083 0.3706055
vt 0.2042236 0.3378906
vt 0.1977539 0.3466797
vt 0.2128906 0.3513184
vt 0.2186279 0.3417969
vt 0.2316895 0.3566895
vt 0.2290039 0.3740234
vt 0.2244873 0.3322754
vt 0.2393799 0.3276367
vt 0.2216797 0.324707
vt 0.2191162 0.317627
vt 0.25 0.3630371
vt 0.25 0.3378906
vt 0.25 0.3769531
vt 0.2709961 0.3740234
vt 0.234375 0.3398438
vt 0.2683105 0.3566895
vt 0.2897949 0.3706055
vt 0.2373047 0.3215332
vt 0.2189941 0.3083496
vt 0.2307129 0.3049316
vt 0.2412109 0.293457
vt 0.2440186 0.2797852
vt 0.25 0.279541
vt 0.25 0.3215332
vt 0.25 0.2927246
vt 0.25 0.3242188
vt 0.2607422 0.3276367
vt 0.25 0.3012695
vt 0.2587891 0.293457
vt 0.2561035 0.2797852
vt 0.2810059 0.2980957
vt 0.2626953 0.3215332
vt 0.2692871 0.3049316
vt 0.2810059 0.3083496
vt 0.2807617 0.317627
vt 0.3054199 0.3225098
vt 0.2995605 0.3032227
vt 0.2783203 0.324707
vt 0.2893066 0.3291016
vt 0.3249512 0.3254395
vt 0.3166504 0.309082
vt 0.2753906 0.3322754
vt 0.3122559 0.3337402
vt 0.3486328 0.3320312
vt 0.34375 0.3166504
vt 0.3300781 0.3427734
vt 0.3518066 0.3464355
vt 0.3181152 0.3435059
vt 0.3320312 0.3527832
vt 0.355957 0.3664551
vt 0.3342285 0.362793
vt 0.3205566 0.3537598
vt 0.3227539 0.3637695
vt 0.2958984 0.3378906
vt 0.3044434 0.3566895
vt 0.307373 0.3662109
vt 0.28125 0.3417969
vt 0.3022461 0.3466797
vt 0.2871094 0.3513184
vt 0.265625 0.3398438
vn -0.6485427 -0.7549338 0.09730072
vn -0.7952018 -0.6015072 0.07643931
vn -0.89288 -0.4352776 0.115321
vn -0.7312043 -0.6585882 0.1777689
vn -0.571641 -0.8128326 0.1119367
vn -0.8461844 -0.4130347 0.3367112
vn -0.9467616 -0.256761 0.1942069
vn -0.5967864 -0.7382155 0.314458
vn -0.5222834 -0.8260272 0.2118939
vn -0.8810771 -0.2346516 0.4106602
vn -0.9369952 -0.2082006 0.2805219
vn -0.8397738 -0.1030543 0.5330663
vn -0.613248 -0.5926297 0.522223
vn -0.6001714 -0.1218766 0.7905317
vn -0.5654828 0.02729367 0.8243084
vn -0.6275285 -0.34364 0.6986557
vn -0.4973386 -0.5526203 0.6687788
vn -0.4868436 -0.01479236 0.8733639
vn -0.4552005 0.1259534 0.8814353
vn -0.4480326 0.2519458 0.857782
vn -0.4710087 -0.3377701 0.8149
vn -0.5003374 -0.2123532 0.8393858
vn -0.5158468 0.03865267 0.8558084
vn -0.430008 -0.3126909 0.846946
vn -0.4897485 0.05578168 0.8700774
vn -0.452994 0.3455833 0.8218081
vn -0.3759744 -0.3889422 0.8410512
vn -0.3008074 -0.4139303 0.859172
vn -0.3676265 -0.4878005 0.7917711
vn -0.4460059 -0.5775796 0.6837254
vn 3.687768E-07 0.1361501 0.9906882
vn 1.04672E-07 -0.4854876 0.8742436
vn 4.321271E-07 0.4514392 0.8923019
vn 0.4529944 0.3455839 0.8218076
vn -0.307229 -0.4177168 0.8550574
vn 0.4897489 0.05578195 0.8700773
vn 0.4480328 0.2519459 0.8577819
vn -0.2942433 -0.4994464 0.814846
vn -0.5074791 -0.7252769 0.4652294
vn -0.3261542 -0.5328134 0.7808541
vn -0.4403247 -0.6300839 0.6396158
vn -0.3878959 -0.8840601 0.2607192
vn -1.834481E-06 -0.9085464 0.417784
vn 1.385432E-06 -0.5209562 0.8535834
vn -3.124866E-06 -0.6122385 0.7906732
vn 4.952809E-07 -0.4315431 0.9020923
vn 0.3008036 -0.4139278 0.8591745
vn 1.328743E-06 -0.5292781 0.8484485
vn 0.4403242 -0.6300814 0.6396188
vn 0.3878968 -0.8840595 0.2607201
vn 0.5222827 -0.826028 0.2118925
vn 0.2942375 -0.4994485 0.8148469
vn 0.3261496 -0.5328171 0.7808536
vn 0.5074796 -0.7252774 0.465228
vn 0.4460052 -0.5775892 0.6837179
vn 0.5967868 -0.7382162 0.3144555
vn 0.5716407 -0.8128328 0.1119365
vn 0.3676255 -0.4878025 0.7917703
vn 0.4973421 -0.5526193 0.6687771
vn 0.7312043 -0.6585885 0.1777677
vn 0.6485426 -0.7549337 0.09730143
vn 0.3759722 -0.3889345 0.8410559
vn 0.6132485 -0.5926301 0.522222
vn 0.8928798 -0.4352775 0.1153217
vn 0.7952018 -0.6015072 0.07644018
vn 0.8461844 -0.413035 0.3367104
vn 0.9467616 -0.256761 0.194207
vn 0.6275288 -0.34364 0.6986554
vn 0.881077 -0.2346517 0.4106604
vn 0.9369953 -0.2082006 0.2805217
vn 0.8397738 -0.1030543 0.5330665
vn 0.6001704 -0.1218767 0.7905325
vn 0.5654814 0.02729377 0.8243093
vn 0.4710087 -0.3377702 0.8149001
vn 0.4868439 -0.01479257 0.8733636
vn 0.4552003 0.1259533 0.8814355
vn 0.4300092 -0.3126916 0.8469452
vn 0.5003369 -0.2123533 0.8393861
vn 0.5158471 0.03865232 0.8558083
vn 0.3072299 -0.4177184 0.8550562
g facial_mouth_geo_0
f 3/3/3 2/2/2 1/1/1
f 1/1/1 4/4/4 3/3/3
f 4/4/4 1/1/1 5/5/5
f 6/6/6 3/3/3 4/4/4
f 6/6/6 7/7/7 3/3/3
f 5/5/5 8/8/8 4/4/4
f 9/9/9 8/8/8 5/5/5
f 7/7/7 6/6/6 10/10/10
f 7/7/7 10/10/10 11/11/11
f 10/10/10 12/12/12 11/11/11
f 13/13/13 6/6/6 4/4/4
f 13/13/13 4/4/4 8/8/8
f 14/14/14 12/12/12 10/10/10
f 14/14/14 15/15/15 12/12/12
f 16/16/16 10/10/10 6/6/6
f 13/13/13 16/16/16 6/6/6
f 16/16/16 14/14/14 10/10/10
f 16/16/16 13/13/13 17/17/17
f 17/17/17 13/13/13 8/8/8
f 14/14/14 18/18/18 15/15/15
f 18/18/18 19/19/19 15/15/15
f 18/18/18 20/20/20 19/19/19
f 14/14/14 16/16/16 21/21/21
f 17/17/17 21/21/21 16/16/16
f 14/14/14 22/22/22 18/18/18
f 21/21/21 22/22/22 14/14/14
f 18/18/18 23/23/23 20/20/20
f 18/18/18 22/22/22 23/23/23
f 24/24/24 22/22/22 21/21/21
f 24/24/24 23/23/23 22/22/22
f 20/20/20 23/23/23 25/25/25
f 24/24/24 25/25/25 23/23/23
f 26/26/26 20/20/20 25/25/25
f 21/21/21 17/17/17 27/27/27
f 24/24/24 21/21/21 27/27/27
f 24/24/24 27/27/27 28/28/28
f 29/29/29 27/27/27 17/17/17
f 28/28/28 27/27/27 29/29/29
f 29/29/29 17/17/17 30/30/30
f 30/30/30 17/17/17 8/8/8
f 25/25/25 31/31/31 26/26/26
f 31/31/31 25/25/25 32/32/32
f 31/31/31 33/33/33 26/26/26
f 33/33/33 31/31/31 34/34/34
f 24/24/24 35/35/35 25/25/25
f 28/28/28 35/35/35 24/24/24
f 35/35/35 32/32/32 25/25/25
f 28/28/28 32/32/32 35/35/35
f 31/31/31 36/36/36 34/34/34
f 36/36/36 31/31/31 32/32/32
f 37/37/37 34/34/34 36/36/36
f 38/38/38 28/28/28 29/29/29
f 38/38/38 29/29/29 30/30/30
f 39/39/39 30/30/30 8/8/8
f 8/8/8 9/9/9 39/39/39
f 40/40/40 38/38/38 30/30/30
f 40/40/40 30/30/30 39/39/39
f 39/39/39 9/9/9 41/41/41
f 41/41/41 40/40/40 39/39/39
f 9/9/9 42/42/42 41/41/41
f 41/41/41 42/42/42 43/43/43
f 38/38/38 44/44/44 28/28/28
f 44/44/44 38/38/38 40/40/40
f 45/45/45 41/41/41 43/43/43
f 45/45/45 40/40/40 41/41/41
f 44/44/44 46/46/46 28/28/28
f 47/47/47 46/46/46 44/44/44
f 28/28/28 46/46/46 32/32/32
f 46/46/46 47/47/47 32/32/32
f 48/48/48 44/44/44 40/40/40
f 45/45/45 48/48/48 40/40/40
f 49/49/49 45/45/45 43/43/43
f 50/50/50 49/49/49 43/43/43
f 50/50/50 51/51/51 49/49/49
f 52/52/52 44/44/44 48/48/48
f 52/52/52 47/47/47 44/44/44
f 53/53/53 48/48/48 45/45/45
f 53/53/53 45/45/45 49/49/49
f 53/53/53 52/52/52 48/48/48
f 49/49/49 51/51/51 54/54/54
f 54/54/54 53/53/53 49/49/49
f 52/52/52 53/53/53 55/55/55
f 54/54/54 55/55/55 53/53/53
f 51/51/51 56/56/56 54/54/54
f 56/56/56 55/55/55 54/54/54
f 56/56/56 51/51/51 57/57/57
f 58/58/58 52/52/52 55/55/55
f 52/52/52 58/58/58 47/47/47
f 59/59/59 58/58/58 55/55/55
f 59/59/59 55/55/55 56/56/56
f 60/60/60 56/56/56 57/57/57
f 57/57/57 61/61/61 60/60/60
f 58/58/58 62/62/62 47/47/47
f 59/59/59 62/62/62 58/58/58
f 63/63/63 59/59/59 56/56/56
f 60/60/60 63/63/63 56/56/56
f 64/64/64 60/60/60 61/61/61
f 61/61/61 65/65/65 64/64/64
f 64/64/64 66/66/66 60/60/60
f 60/60/60 66/66/66 63/63/63
f 64/64/64 67/67/67 66/66/66
f 59/59/59 63/63/63 68/68/68
f 66/66/66 68/68/68 63/63/63
f 69/69/69 66/66/66 67/67/67
f 69/69/69 68/68/68 66/66/66
f 69/69/69 67/67/67 70/70/70
f 71/71/71 69/69/69 70/70/70
f 69/69/69 71/71/71 72/72/72
f 69/69/69 72/72/72 68/68/68
f 71/71/71 73/73/73 72/72/72
f 68/68/68 74/74/74 59/59/59
f 74/74/74 68/68/68 72/72/72
f 59/59/59 74/74/74 62/62/62
f 72/72/72 73/73/73 75/75/75
f 73/73/73 76/76/76 75/75/75
f 37/37/37 75/75/75 76/76/76
f 74/74/74 77/77/77 62/62/62
f 47/47/47 62/62/62 77/77/77
f 72/72/72 78/78/78 74/74/74
f 72/72/72 75/75/75 78/78/78
f 74/74/74 78/78/78 77/77/77
f 37/37/37 79/79/79 75/75/75
f 79/79/79 78/78/78 75/75/75
f 78/78/78 79/79/79 77/77/77
f 79/79/79 37/37/37 36/36/36
f 36/36/36 77/77/77 79/79/79
f 77/77/77 80/80/80 47/47/47
f 36/36/36 80/80/80 77/77/77
f 80/80/80 32/32/32 47/47/47
f 36/36/36 32/32/32 80/80/80
