g head_geo
v -0.03881217 1.358829 -0.0594935
v -5.056466E-18 1.280661 -0.0710479
v 2.58294E-18 1.364316 -0.07971002
v -0.03773362 1.280661 -0.05919086
v -0.05559103 1.34854 -0.01939244
v -0.05069067 1.280661 -0.0308543
v -0.05346809 1.342315 0.00975375
v -0.08177062 1.35868 0.02123694
v -0.0452455 1.280661 -0.00016722
v -0.03052817 1.329883 0.03523367
v -0.08512331 1.373571 -0.01840428
v -0.02511585 1.28066 0.0262343
v -0.09386315 1.386002 0.00035699
v -0.1021632 1.408348 -0.01577126
v -0.09425832 1.385277 0.02334818
v -0.07248205 1.346611 0.03596107
v -1.118833E-17 1.316053 0.05196831
v 2.994225E-17 1.28066 0.0395394
v 0.03052817 1.329883 0.03523367
v 0.02511585 1.28066 0.0262343
v 0.05346809 1.342315 0.00975375
v 0.0452455 1.280661 -0.00016722
v 0.05559103 1.34854 -0.01939244
v 0.08177062 1.35868 0.02123694
v 0.05069067 1.280661 -0.0308543
v 0.03881217 1.358829 -0.0594935
v 0.03773362 1.280661 -0.05919086
v -5.056466E-18 1.280661 -0.0710479
v 2.58294E-18 1.364316 -0.07971002
v 0.08512331 1.373571 -0.01840428
v 0.09386315 1.386002 0.00035699
v 0.1021632 1.408348 -0.01577126
v 0.09425832 1.385277 0.02334818
v 0.07248205 1.346611 0.03596107
v 0.08750297 1.367357 0.03112186
v 0.09465368 1.396602 0.04973207
v 0.1050757 1.436575 0.02350884
v 0.1025134 1.443093 0.05344735
v 0.07896127 1.355604 0.04313309
v 0.08462024 1.365923 0.06252608
v 0.086925 1.381571 0.07146337
v 0.09120434 1.400477 0.07776694
v 0.0951654 1.421829 0.08173732
v 0.09879865 1.448778 0.08329006
v 0.1040778 1.477023 0.08016218
v 0.06539394 1.343399 0.06049526
v 0.05817311 1.337304 0.05265888
v 0.05004038 1.334285 0.07348815
v 0.04422672 1.329313 0.06565695
v 0.0333986 1.324644 0.08826511
v 0.02119871 1.323027 0.05865922
v 6.556295E-18 1.317328 0.07124159
v 0.02973365 1.322366 0.0793074
v 0.01054239 1.314918 0.1033838
v 0.01317923 1.319658 0.07385287
v 0.00537174 1.31345 0.0940205
v 2.199777E-17 1.312202 0.09532022
v 1.915067E-17 1.313144 0.1064383
v -0.01054239 1.314918 0.1033837
v -0.00537174 1.31345 0.0940205
v -0.02119871 1.323027 0.05865922
v -0.02973365 1.322366 0.07930799
v -0.0333986 1.324644 0.08826511
v -0.01317923 1.319658 0.07385287
v -0.04422672 1.329313 0.06565695
v -0.05004038 1.334285 0.07348815
v -0.05817311 1.337304 0.05265888
v -0.06539394 1.343399 0.06049526
v -0.07896127 1.355604 0.04313309
v -0.08750297 1.367357 0.03112186
v -0.09465368 1.396602 0.04973207
v -0.08462024 1.365923 0.06252608
v -0.1050757 1.436575 0.02350884
v -0.086925 1.381571 0.07146337
v -0.09120434 1.400477 0.07776694
v -0.1025134 1.443093 0.05344735
v -0.0951654 1.421829 0.08173732
v -0.09879865 1.448778 0.08329006
v -0.1088617 1.446406 -0.008362429
v -0.1050757 1.436575 0.02350884
v -0.1230928 1.447812 0.00065078
v -0.1294859 1.442831 -0.0109964
v -0.1090664 1.431198 -0.01564993
v -0.1298574 1.432466 -0.01804509
v -0.1021632 1.408348 -0.01577126
v -0.129857 1.437404 -0.00490427
v -0.1246073 1.441842 0.0032063
v -0.1050757 1.436575 0.02350884
v -0.09425832 1.385277 0.02334818
v -0.100529 1.375381 0.00773817
v -0.1231143 1.401634 -0.00623832
v -0.1138622 1.379319 -0.0062039
v -0.1311398 1.429329 -0.01099148
v -0.1263568 1.40578 -0.01726127
v -0.09386315 1.386002 0.00035699
v -0.100529 1.375381 0.00773817
v -0.09425832 1.385277 0.02334818
v 0.1088617 1.446406 -0.008362429
v 0.1230928 1.447812 0.00065078
v 0.1050757 1.436575 0.02350884
v 0.1294859 1.442831 -0.0109964
v 0.1090664 1.431198 -0.01564993
v 0.1298574 1.432466 -0.01804509
v 0.1021632 1.408348 -0.01577126
v 0.129857 1.437404 -0.00490427
v 0.1311398 1.429329 -0.01099148
v 0.1231143 1.401634 -0.00623832
v 0.1263568 1.40578 -0.01726127
v 0.1138622 1.379319 -0.0062039
v 0.09386315 1.386002 0.00035699
v 0.100529 1.375381 0.00773817
v 0.09425832 1.385277 0.02334818
v 0.100529 1.375381 0.00773817
v 0.1246073 1.441842 0.0032063
v 0.1050757 1.436575 0.02350884
v 0.09425832 1.385277 0.02334818
vt 0.04367065 0.3288574
vt 0.005477905 0.206543
vt 0.005477905 0.338623
vt 0.05081177 0.206543
vt 0.08294678 0.2990723
vt 0.08917236 0.206543
vt 0.1281738 0.2753906
vt 0.1264648 0.3186035
vt 0.133667 0.206543
vt 0.1824951 0.2485352
vt 0.08135986 0.333252
vt 0.1894531 0.206543
vt 0.09362793 0.3583984
vt 0.08374023 0.3796387
vt 0.1069336 0.3588867
vt 0.1575928 0.3034668
vt 0.25 0.2365723
vt 0.25 0.206543
vt 0.3173828 0.2485352
vt 0.3105469 0.206543
vt 0.3718262 0.2753906
vt 0.3664551 0.206543
vt 0.4169922 0.2990723
vt 0.3735352 0.3186035
vt 0.4108887 0.206543
vt 0.4562988 0.3288574
vt 0.4492188 0.206543
vt 0.4946289 0.206543
vt 0.4946289 0.338623
vt 0.4187012 0.333252
vt 0.4064941 0.3583984
vt 0.4162598 0.3796387
vt 0.3930664 0.3588867
vt 0.3425293 0.3034668
vt 0.3654785 0.3310547
vt 0.3674316 0.3620605
vt 0.4001465 0.4035645
vt 0.3720703 0.4074707
vt 0.34375 0.3166504
vt 0.3486328 0.3320312
vt 0.3518066 0.3464355
vt 0.355957 0.3664551
vt 0.3579102 0.3886719
vt 0.3571777 0.4125977
vt 0.3623047 0.4387207
vt 0.3166504 0.309082
vt 0.3164062 0.2941895
vt 0.2995605 0.3032227
vt 0.2978516 0.2890625
vt 0.2810059 0.2980957
vt 0.2895508 0.2600098
vt 0.25 0.2548828
vt 0.2800293 0.2839355
vt 0.2561035 0.2797852
vt 0.2648926 0.2624512
vt 0.2548828 0.2709961
vt 0.25 0.2705078
vt 0.25 0.279541
vt 0.2440186 0.2797852
vt 0.2451172 0.2709961
vt 0.2103271 0.2600098
vt 0.2198486 0.2839355
vt 0.2188721 0.2980957
vt 0.2351074 0.2624512
vt 0.2020264 0.2890625
vt 0.2004395 0.3032227
vt 0.1835938 0.2941895
vt 0.1832275 0.309082
vt 0.1561279 0.3166504
vt 0.1345215 0.3310547
vt 0.1326904 0.3620605
vt 0.1513672 0.3320312
vt 0.09991455 0.4035645
vt 0.1480713 0.3464355
vt 0.144165 0.3664551
vt 0.1280518 0.4074707
vt 0.1420898 0.3886719
vt 0.1429443 0.4125977
vt 0.1091309 0.1901855
vt 0.1391602 0.1773682
vt 0.1109009 0.1777344
vt 0.1028442 0.1846924
vt 0.09509277 0.1989746
vt 0.09484863 0.1916504
vt 0.07324219 0.1990967
vt 0.09680176 0.1816406
vt 0.1025391 0.1765137
vt 0.09985352 0.1535645
vt 0.05126953 0.1529541
vt 0.0428772 0.1678467
vt 0.06451416 0.1877441
vt 0.05056763 0.1845703
vt 0.09100342 0.1867676
vt 0.06982422 0.192627
vt 0.03604126 0.1881104
vt 0.03607178 0.1820068
vt 0.02125549 0.1849365
vt 0.3908691 0.1901855
vt 0.3891602 0.1777344
vt 0.3608398 0.1773682
vt 0.3972168 0.1846924
vt 0.4050293 0.1989746
vt 0.4052734 0.1916504
vt 0.4267578 0.1990967
vt 0.4033203 0.1816406
vt 0.4089355 0.1867676
vt 0.4355469 0.1831055
vt 0.4301758 0.192627
vt 0.4528809 0.1800537
vt 0.4638672 0.1881104
vt 0.4638672 0.1820068
vt 0.4787598 0.1849365
vt 0.458252 0.1663818
vt 0.3974609 0.1765137
vt 0.4001465 0.1535645
vt 0.4487305 0.1529541
vn -0.6378735 -0.03785746 -0.7692102
vn 1.151143E-07 -0.0580647 -0.9983128
vn 1.098263E-07 -0.0580647 -0.9983128
vn -0.6704605 -0.03526766 -0.7411066
vn -0.9652593 -0.1597058 -0.2068057
vn -0.9748299 -0.04989708 -0.2172949
vn -0.8964139 -0.379341 0.2292218
vn -0.7433201 -0.651474 -0.1518448
vn -0.9228544 -0.1609454 0.349909
vn -0.7050638 -0.4641119 0.5361766
vn -0.7536013 -0.631778 -0.1814987
vn -0.6765055 -0.2192107 0.7030554
vn -0.6702148 -0.6497267 -0.3587022
vn -0.00733649 -0.2365562 -0.9715901
vn -0.9325931 -0.2935484 0.2099986
vn -0.5325983 -0.836982 -0.1256984
vn -1.896199E-07 -0.5131834 0.8582789
vn -2.288402E-07 -0.2806701 0.9598043
vn 0.7050639 -0.4641119 0.5361763
vn 0.6765055 -0.2192107 0.7030555
vn 0.8964141 -0.3793409 0.2292209
vn 0.9228545 -0.1609454 0.3499087
vn 0.9652593 -0.1597059 -0.2068058
vn 0.7433201 -0.651474 -0.1518449
vn 0.9748297 -0.04989708 -0.2172951
vn 0.6378735 -0.03785747 -0.7692102
vn 0.6704604 -0.03526768 -0.7411066
vn 1.151143E-07 -0.0580647 -0.9983128
vn 1.098263E-07 -0.0580647 -0.9983128
vn 0.7536014 -0.6317782 -0.1814977
vn 0.670215 -0.6497266 -0.3587024
vn 0.00733645 -0.2365564 -0.9715901
vn 0.9325932 -0.2935482 0.2099987
vn 0.5325981 -0.8369818 -0.1257003
vn 0.9176279 -0.397283 0.01119597
vn 0.9724126 -0.2077599 0.1060635
vn 0.9325332 -0.1505558 0.3281993
vn 0.9771472 -0.1791981 0.1143308
vn 0.7952018 -0.6015072 0.07644018
vn 0.8928798 -0.4352775 0.1153217
vn 0.9467616 -0.256761 0.194207
vn 0.9369953 -0.2082006 0.2805217
vn 0.9497948 -0.167036 0.2645537
vn 0.9459591 -0.1816639 0.2686254
vn 0.9718288 -0.1083274 0.209318
vn 0.6485426 -0.7549337 0.09730143
vn 0.4229594 -0.9006686 -0.09950538
vn 0.5716407 -0.8128328 0.1119365
vn 0.3889397 -0.9170148 -0.08837228
vn 0.5222827 -0.826028 0.2118925
vn 0.3047609 -0.9443468 -0.1238136
vn -0 -0.9972435 -0.07419867
vn 0.3501595 -0.9343792 -0.0657554
vn 0.3878968 -0.8840595 0.2607201
vn 0.2445368 -0.9628676 -0.1144018
vn 0.2361074 -0.9640183 -0.1221558
vn -0 -0.9934137 -0.1145823
vn -1.834481E-06 -0.9085464 0.417784
vn -0.3878959 -0.8840601 0.2607192
vn -0.2361075 -0.9640185 -0.122154
vn -0.3047609 -0.9443468 -0.1238137
vn -0.3501598 -0.9343791 -0.06575589
vn -0.5222834 -0.8260272 0.2118939
vn -0.2445385 -0.9628672 -0.1144013
vn -0.3889386 -0.9170153 -0.08837322
vn -0.571641 -0.8128326 0.1119367
vn -0.4229594 -0.9006686 -0.09950496
vn -0.6485427 -0.7549338 0.09730072
vn -0.7952018 -0.6015072 0.07643931
vn -0.9176278 -0.3972831 0.01119586
vn -0.9724126 -0.20776 0.1060634
vn -0.89288 -0.4352776 0.115321
vn -0.9325331 -0.1505558 0.3281995
vn -0.9467616 -0.256761 0.1942069
vn -0.9369952 -0.2082006 0.2805219
vn -0.97736 -0.1807695 0.109954
vn -0.9497947 -0.1670359 0.2645541
vn -0.945959 -0.1816638 0.2686261
vn 0.1538474 0.9342288 -0.321788
vn -0.9325331 -0.1505558 0.3281995
vn -0.1498683 0.9612299 0.2314661
vn -0.4825529 0.6772668 -0.5553849
vn 0.08360384 0.09367496 -0.9920864
vn -0.308457 0.07392602 -0.9483613
vn -0.00733649 -0.2365562 -0.9715901
vn -0.848821 -0.08604433 0.5216314
vn -0.7781111 -0.08036032 0.622965
vn -0.9325331 -0.1505558 0.3281995
vn -0.9325931 -0.2935484 0.2099986
vn -0.6588639 -0.5418556 0.5218149
vn -0.7916605 -0.2174953 0.5709373
vn -0.2793514 -0.7913622 -0.5437911
vn -0.980586 -0.1463435 0.130517
vn -0.3186835 -0.2063753 -0.9251217
vn -0.6702148 -0.6497267 -0.3587022
vn -0.6588639 -0.5418556 0.5218149
vn -0.9325931 -0.2935484 0.2099986
vn -0.1538473 0.9342297 -0.3217855
vn 0.1498695 0.9612296 0.2314671
vn 0.9325332 -0.1505558 0.3281993
vn 0.482553 0.6772674 -0.555384
vn -0.08360375 0.09367508 -0.9920864
vn 0.308457 0.07392596 -0.9483613
vn 0.00733645 -0.2365564 -0.9715901
vn 0.8488211 -0.0860439 0.5216313
vn 0.980586 -0.1463436 0.1305171
vn 0.7916608 -0.2174954 0.5709369
vn 0.3186835 -0.2063754 -0.9251217
vn 0.2793516 -0.7913617 -0.5437916
vn 0.670215 -0.6497266 -0.3587024
vn 0.6588646 -0.5418548 0.5218147
vn 0.9325932 -0.2935482 0.2099987
vn 0.6588646 -0.5418548 0.5218147
vn 0.7781115 -0.08035956 0.6229644
vn 0.9325332 -0.1505558 0.3281993
vn 0.9325932 -0.2935482 0.2099987
g head_geo_0
f 3/3/3 2/2/2 1/1/1
f 2/2/2 4/4/4 1/1/1
f 1/1/1 4/4/4 5/5/5
f 4/4/4 6/6/6 5/5/5
f 5/5/5 6/6/6 7/7/7
f 5/5/5 7/7/7 8/8/8
f 6/6/6 9/9/9 7/7/7
f 7/7/7 9/9/9 10/10/10
f 11/11/11 5/5/5 8/8/8
f 9/9/9 12/12/12 10/10/10
f 13/13/13 11/11/11 8/8/8
f 13/13/13 14/14/14 11/11/11
f 15/15/15 13/13/13 8/8/8
f 7/7/7 10/10/10 16/16/16
f 7/7/7 16/16/16 8/8/8
f 10/10/10 12/12/12 17/17/17
f 12/12/12 18/18/18 17/17/17
f 17/17/17 18/18/18 19/19/19
f 18/18/18 20/20/20 19/19/19
f 19/19/19 20/20/20 21/21/21
f 20/20/20 22/22/22 21/21/21
f 21/21/21 22/22/22 23/23/23
f 21/21/21 23/23/23 24/24/24
f 22/22/22 25/25/25 23/23/23
f 23/23/23 25/25/25 26/26/26
f 25/25/25 27/27/27 26/26/26
f 26/26/26 27/27/27 28/28/28
f 29/29/29 26/26/26 28/28/28
f 23/23/23 30/30/30 24/24/24
f 30/30/30 31/31/31 24/24/24
f 32/32/32 31/31/31 30/30/30
f 31/31/31 33/33/33 24/24/24
f 34/34/34 19/19/19 21/21/21
f 34/34/34 21/21/21 24/24/24
f 33/33/33 35/35/35 24/24/24
f 35/35/35 33/33/33 36/36/36
f 33/33/33 37/37/37 36/36/36
f 37/37/37 38/38/38 36/36/36
f 35/35/35 39/39/39 24/24/24
f 39/39/39 34/34/34 24/24/24
f 40/40/40 39/39/39 35/35/35
f 40/40/40 35/35/35 36/36/36
f 36/36/36 41/41/41 40/40/40
f 42/42/42 41/41/41 36/36/36
f 43/43/43 42/42/42 36/36/36
f 43/43/43 36/36/36 38/38/38
f 44/44/44 43/43/43 38/38/38
f 45/45/45 44/44/44 38/38/38
f 34/34/34 39/39/39 46/46/46
f 47/47/47 34/34/34 46/46/46
f 47/47/47 46/46/46 48/48/48
f 34/34/34 47/47/47 19/19/19
f 49/49/49 47/47/47 48/48/48
f 47/47/47 49/49/49 19/19/19
f 49/49/49 48/48/48 50/50/50
f 49/49/49 51/51/51 19/19/19
f 51/51/51 17/17/17 19/19/19
f 52/52/52 17/17/17 51/51/51
f 53/53/53 49/49/49 50/50/50
f 51/51/51 49/49/49 53/53/53
f 54/54/54 53/53/53 50/50/50
f 55/55/55 51/51/51 53/53/53
f 55/55/55 52/52/52 51/51/51
f 55/55/55 53/53/53 56/56/56
f 54/54/54 56/56/56 53/53/53
f 52/52/52 55/55/55 56/56/56
f 56/56/56 54/54/54 57/57/57
f 57/57/57 52/52/52 56/56/56
f 54/54/54 58/58/58 57/57/57
f 58/58/58 59/59/59 57/57/57
f 59/59/59 60/60/60 57/57/57
f 52/52/52 57/57/57 60/60/60
f 17/17/17 52/52/52 61/61/61
f 17/17/17 61/61/61 10/10/10
f 60/60/60 59/59/59 62/62/62
f 62/62/62 59/59/59 63/63/63
f 64/64/64 52/52/52 60/60/60
f 52/52/52 64/64/64 61/61/61
f 62/62/62 64/64/64 60/60/60
f 61/61/61 64/64/64 62/62/62
f 65/65/65 62/62/62 63/63/63
f 65/65/65 61/61/61 62/62/62
f 61/61/61 65/65/65 10/10/10
f 66/66/66 65/65/65 63/63/63
f 65/65/65 67/67/67 10/10/10
f 67/67/67 65/65/65 66/66/66
f 68/68/68 67/67/67 66/66/66
f 67/67/67 16/16/16 10/10/10
f 16/16/16 67/67/67 68/68/68
f 69/69/69 16/16/16 68/68/68
f 16/16/16 69/69/69 8/8/8
f 69/69/69 70/70/70 8/8/8
f 70/70/70 15/15/15 8/8/8
f 15/15/15 70/70/70 71/71/71
f 69/69/69 72/72/72 70/70/70
f 70/70/70 72/72/72 71/71/71
f 73/73/73 15/15/15 71/71/71
f 74/74/74 71/71/71 72/72/72
f 74/74/74 75/75/75 71/71/71
f 76/76/76 73/73/73 71/71/71
f 75/75/75 77/77/77 71/71/71
f 71/71/71 77/77/77 76/76/76
f 77/77/77 78/78/78 76/76/76
f 81/81/81 80/80/80 79/79/79
f 79/79/79 82/82/82 81/81/81
f 83/83/83 82/82/82 79/79/79
f 84/84/84 82/82/82 83/83/83
f 84/84/84 83/83/83 85/85/85
f 82/82/82 86/86/86 81/81/81
f 82/82/82 84/84/84 86/86/86
f 86/86/86 87/87/87 81/81/81
f 87/87/87 88/88/88 81/81/81
f 88/88/88 87/87/87 89/89/89
f 89/89/89 87/87/87 90/90/90
f 90/90/90 87/87/87 86/86/86
f 86/86/86 91/91/91 90/90/90
f 90/90/90 91/91/91 92/92/92
f 84/84/84 93/93/93 86/86/86
f 93/93/93 91/91/91 86/86/86
f 84/84/84 94/94/94 93/93/93
f 94/94/94 91/91/91 93/93/93
f 94/94/94 84/84/84 85/85/85
f 91/91/91 94/94/94 92/92/92
f 92/92/92 94/94/94 85/85/85
f 92/92/92 85/85/85 95/95/95
f 96/96/96 92/92/92 95/95/95
f 95/95/95 97/97/97 96/96/96
f 100/100/100 99/99/99 98/98/98
f 101/101/101 98/98/98 99/99/99
f 101/101/101 102/102/102 98/98/98
f 101/101/101 103/103/103 102/102/102
f 102/102/102 103/103/103 104/104/104
f 105/105/105 101/101/101 99/99/99
f 106/106/106 103/103/103 101/101/101
f 105/105/105 106/106/106 101/101/101
f 106/106/106 107/107/107 103/103/103
f 106/106/106 105/105/105 107/107/107
f 103/103/103 108/108/108 104/104/104
f 107/107/107 108/108/108 103/103/103
f 108/108/108 109/109/109 104/104/104
f 108/108/108 107/107/107 109/109/109
f 104/104/104 109/109/109 110/110/110
f 109/109/109 111/111/111 110/110/110
f 112/112/112 110/110/110 111/111/111
f 107/107/107 113/113/113 109/109/109
f 113/113/113 107/107/107 105/105/105
f 114/114/114 105/105/105 99/99/99
f 105/105/105 114/114/114 113/113/113
f 115/115/115 114/114/114 99/99/99
f 114/114/114 116/116/116 113/113/113
f 115/115/115 116/116/116 114/114/114
