g facial_mouth_geo
v 0.037786 1.381931 0.127989
v 0.032377 1.371832 0.128285
v 0.019103 1.385926 0.142476
v 0.054527 1.382338 0.118987
v 0.049316 1.364169 0.117048
v 0.070958 1.382931 0.108956
v 0.067736 1.368382 0.107695
v 0.081069 1.38311 0.09811
v 0.07852799 1.365593 0.09050299
v 0.086925 1.381571 0.071463
v 0.08462 1.365923 0.062526
v 0.073414 1.352695 0.07923
v 0.062224 1.354775 0.10241
v 0.046872 1.351272 0.111953
v 0.055509 1.340945 0.091124
v 0.05004 1.334285 0.073488
v 0.033399 1.324644 0.08826499
v 0.03071 1.359386 0.125022
v 0.015111 1.356265 0.129467
v 0.030979 1.348752 0.118323
v 0.033544 1.339495 0.111231
v 0.033018 1.329618 0.100768
v 0.0141 1.345433 0.124089
v 0.015546 1.31963 0.110482
v 0.014188 1.31446 0.103384
v 0.014251 1.333249 0.115247
v -0 1.318125 0.113039
v -0 1.313144 0.106438
v -0 1.332629 0.118319
v -0.015546 1.31963 0.110482
v -0.014188 1.31446 0.103384
v -0.033399 1.324644 0.08826499
v -0.014251 1.333249 0.115247
v -0 1.344538 0.127392
v -0.033018 1.329618 0.100768
v -0.0141 1.345433 0.124089
v -0.055509 1.340945 0.091124
v -0.05004 1.334285 0.073488
v -0.073414 1.352695 0.07923
v -0.033544 1.339495 0.111231
v -0.062224 1.354775 0.10241
v -0.046872 1.351272 0.111953
v -0.07852799 1.365593 0.09050299
v -0.08462 1.365923 0.062526
v -0.086925 1.381571 0.071463
v -0.081069 1.38311 0.09811
v -0.067736 1.368382 0.107695
v -0.070958 1.382931 0.108956
v -0.049316 1.364169 0.117048
v -0.054527 1.382338 0.118987
v -0.030979 1.348753 0.118323
v -0.03071 1.359386 0.125022
v -0.032377 1.371832 0.128285
v -0.037786 1.381931 0.127989
v -0.019103 1.385926 0.142476
v -0.015111 1.356265 0.129467
v -0.016646 1.369217 0.13362
v -0 1.366603 0.137365
v -0 1.390698 0.154538
v -0 1.353345 0.132418
v 0.016646 1.369217 0.13362
vt 0.2856445 0.3508301
vt 0.2788086 0.3417969
vt 0.2683105 0.3566895
vt 0.3007812 0.3510742
vt 0.2937012 0.3347168
vt 0.3151855 0.3522949
vt 0.3103027 0.3398438
vt 0.3259277 0.3525391
vt 0.3251953 0.3352051
vt 0.3479004 0.3466797
vt 0.3481445 0.3303223
vt 0.3259277 0.3190918
vt 0.3061523 0.3256836
vt 0.2919922 0.3225098
vt 0.3059082 0.3063965
vt 0.3095703 0.2905273
vt 0.2849121 0.2849121
vt 0.2753906 0.3317871
vt 0.260498 0.3276367
vt 0.2780762 0.3212891
vt 0.2819824 0.3105469
vt 0.2827148 0.2954102
vt 0.2626953 0.3198242
vt 0.2587891 0.293457
vt 0.2561035 0.2797852
vt 0.2692871 0.3049316
vt 0.25 0.2927246
vt 0.25 0.279541
vt 0.25 0.3012695
vt 0.2412109 0.293457
vt 0.2440186 0.2797852
vt 0.21521 0.2849121
vt 0.2307129 0.3049316
vt 0.25 0.3161621
vt 0.2174072 0.2954102
vt 0.2373047 0.3198242
vt 0.1942139 0.3063965
vt 0.1905518 0.2905273
vt 0.1740723 0.3186035
vt 0.2181396 0.3105469
vt 0.1938477 0.3256836
vt 0.2080078 0.3225098
vt 0.1746826 0.3352051
vt 0.1518555 0.3303223
vt 0.1520996 0.3466797
vt 0.1740723 0.3525391
vt 0.1896973 0.3398438
vt 0.1849365 0.3522949
vt 0.2061768 0.3347168
vt 0.1993408 0.3510742
vt 0.2220459 0.3212891
vt 0.2246094 0.3317871
vt 0.2211914 0.3417969
vt 0.2143555 0.3508301
vt 0.2316895 0.3566895
vt 0.2393799 0.3276367
vt 0.2342529 0.3398438
vt 0.25 0.3378906
vt 0.25 0.3630371
vt 0.25 0.3242188
vt 0.265625 0.3398438
vn 0.5245492 -0.05793802 0.8494064
vn 0.439429 -0.3034371 0.8454751
vn 0.436606 -0.251847 0.863683
vn 0.4943549 -0.106706 0.862686
vn 0.4737292 -0.306647 0.8255593
vn 0.5869126 -0.1196099 0.8007666
vn 0.6275211 -0.343636 0.6986641
vn 0.8770409 -0.223616 0.4252
vn 0.8461872 -0.4130321 0.3367071
vn 0.949232 -0.255469 0.18356
vn 0.8923014 -0.4354907 0.1189369
vn 0.731198 -0.6585951 0.177769
vn 0.6132329 -0.5926349 0.5222349
vn 0.4973491 -0.552624 0.668768
vn 0.5967792 -0.7382162 0.3144701
vn 0.5716501 -0.8128231 0.111959
vn 0.5528408 -0.8101595 0.1949579
vn 0.3759923 -0.3889483 0.8410406
vn 0.3007939 -0.4139529 0.8591658
vn 0.3604921 -0.5000432 0.7874022
vn 0.4333221 -0.6013151 0.6713062
vn 0.5472872 -0.6788483 0.4895322
vn 0.2904731 -0.5185761 0.8041792
vn 0.4377952 -0.5487521 0.7121843
vn 0.3373391 -0.9282373 0.156773
vn 0.3270099 -0.4857337 0.8106338
vn -0 -0.6123744 0.7905679
vn -0 -0.9463198 0.3232319
vn -0 -0.5185098 0.8550718
vn -0.4377955 -0.548752 0.7121842
vn -0.3540199 -0.9111945 0.2106997
vn -0.5447255 -0.8221293 0.1654614
vn -0.327015 -0.4857299 0.810634
vn -0 -0.543474 0.839426
vn -0.5472878 -0.6788497 0.4895298
vn -0.2904811 -0.5185761 0.8041763
vn -0.5967792 -0.7382162 0.3144701
vn -0.57165 -0.812823 0.11196
vn -0.731198 -0.6585951 0.177769
vn -0.4333241 -0.6013071 0.6713122
vn -0.6132329 -0.5926349 0.5222349
vn -0.497346 -0.5526258 0.6687688
vn -0.8461872 -0.4130321 0.3367071
vn -0.8923019 -0.43549 0.118936
vn -0.949232 -0.255469 0.18356
vn -0.87704 -0.2236161 0.4252021
vn -0.6275218 -0.3436359 0.6986637
vn -0.5869119 -0.11961 0.8007669
vn -0.4737292 -0.306647 0.8255593
vn -0.4943549 -0.106706 0.862686
vn -0.3604939 -0.500044 0.7874008
vn -0.3759939 -0.3889569 0.8410358
vn -0.4394298 -0.3034369 0.8454747
vn -0.5245488 -0.05793797 0.8494067
vn -0.436606 -0.251847 0.863683
vn -0.3007982 -0.4139572 0.8591623
vn -0.3072249 -0.4176928 0.8550705
vn -0 -0.4854811 0.8742472
vn -0 -0.06057697 0.9981635
vn -0 -0.4315731 0.902078
vn 0.3072249 -0.417694 0.8550699
g facial_mouth_geo_0
f 3/3/3 2/2/2 1/1/1
f 4/4/4 1/1/1 2/2/2
f 5/5/5 4/4/4 2/2/2
f 6/6/6 4/4/4 5/5/5
f 5/5/5 7/7/7 6/6/6
f 8/8/8 6/6/6 7/7/7
f 8/8/8 7/7/7 9/9/9
f 8/8/8 9/9/9 10/10/10
f 11/11/11 10/10/10 9/9/9
f 11/11/11 9/9/9 12/12/12
f 9/9/9 7/7/7 13/13/13
f 12/12/12 9/9/9 13/13/13
f 7/7/7 5/5/5 14/14/14
f 14/14/14 13/13/13 7/7/7
f 12/12/12 13/13/13 15/15/15
f 13/13/13 14/14/14 15/15/15
f 12/12/12 15/15/15 16/16/16
f 15/15/15 17/17/17 16/16/16
f 5/5/5 2/2/2 18/18/18
f 14/14/14 5/5/5 18/18/18
f 19/19/19 18/18/18 2/2/2
f 14/14/14 18/18/18 20/20/20
f 18/18/18 19/19/19 20/20/20
f 14/14/14 21/21/21 15/15/15
f 14/14/14 20/20/20 21/21/21
f 17/17/17 15/15/15 22/22/22
f 15/15/15 21/21/21 22/22/22
f 21/21/21 20/20/20 23/23/23
f 19/19/19 23/23/23 20/20/20
f 24/24/24 17/17/17 22/22/22
f 25/25/25 17/17/17 24/24/24
f 22/22/22 21/21/21 26/26/26
f 22/22/22 26/26/26 24/24/24
f 26/26/26 21/21/21 23/23/23
f 24/24/24 27/27/27 25/25/25
f 26/26/26 27/27/27 24/24/24
f 27/27/27 28/28/28 25/25/25
f 29/29/29 26/26/26 23/23/23
f 26/26/26 29/29/29 27/27/27
f 28/28/28 27/27/27 30/30/30
f 31/31/31 28/28/28 30/30/30
f 32/32/32 31/31/31 30/30/30
f 27/27/27 33/33/33 30/30/30
f 27/27/27 29/29/29 33/33/33
f 34/34/34 29/29/29 23/23/23
f 34/34/34 23/23/23 19/19/19
f 35/35/35 32/32/32 30/30/30
f 30/30/30 33/33/33 35/35/35
f 36/36/36 33/33/33 29/29/29
f 34/34/34 36/36/36 29/29/29
f 37/37/37 32/32/32 35/35/35
f 32/32/32 37/37/37 38/38/38
f 38/38/38 37/37/37 39/39/39
f 33/33/33 40/40/40 35/35/35
f 40/40/40 33/33/33 36/36/36
f 35/35/35 40/40/40 37/37/37
f 41/41/41 39/39/39 37/37/37
f 40/40/40 42/42/42 37/37/37
f 42/42/42 41/41/41 37/37/37
f 41/41/41 43/43/43 39/39/39
f 43/43/43 44/44/44 39/39/39
f 43/43/43 45/45/45 44/44/44
f 45/45/45 43/43/43 46/46/46
f 41/41/41 47/47/47 43/43/43
f 47/47/47 46/46/46 43/43/43
f 47/47/47 41/41/41 42/42/42
f 47/47/47 48/48/48 46/46/46
f 48/48/48 47/47/47 49/49/49
f 42/42/42 49/49/49 47/47/47
f 49/49/49 50/50/50 48/48/48
f 51/51/51 42/42/42 40/40/40
f 51/51/51 40/40/40 36/36/36
f 51/51/51 52/52/52 42/42/42
f 49/49/49 42/42/42 52/52/52
f 51/51/51 36/36/36 52/52/52
f 53/53/53 50/50/50 49/49/49
f 53/53/53 49/49/49 52/52/52
f 53/53/53 54/54/54 50/50/50
f 53/53/53 55/55/55 54/54/54
f 36/36/36 56/56/56 52/52/52
f 53/53/53 52/52/52 56/56/56
f 56/56/56 36/36/36 34/34/34
f 53/53/53 57/57/57 55/55/55
f 56/56/56 57/57/57 53/53/53
f 57/57/57 58/58/58 55/55/55
f 56/56/56 58/58/58 57/57/57
f 59/59/59 55/55/55 58/58/58
f 3/3/3 59/59/59 58/58/58
f 60/60/60 56/56/56 34/34/34
f 56/56/56 60/60/60 58/58/58
f 60/60/60 34/34/34 19/19/19
f 60/60/60 19/19/19 58/58/58
f 3/3/3 58/58/58 61/61/61
f 61/61/61 58/58/58 19/19/19
f 3/3/3 61/61/61 2/2/2
f 2/2/2 61/61/61 19/19/19
