g head_geo
v 0.029734 1.322366 0.079307
v 0.033399 1.324644 0.08826499
v 0.05004 1.334285 0.073488
v 0.014188 1.31446 0.103384
v 0.005371999 1.31345 0.09402099
v 0.011746 1.319658 0.073853
v -0 1.317328 0.071242
v -0 1.312202 0.09531999
v -0 1.313144 0.106438
v -0.005371999 1.31345 0.09402099
v -0.011746 1.319658 0.073853
v -0.014188 1.31446 0.103384
v -0.029734 1.322366 0.079308
v -0.033399 1.324644 0.08826499
v -0.05004 1.334285 0.073488
vt 0.2836914 0.2756348
vt 0.2849121 0.2849121
vt 0.3095703 0.2905273
vt 0.2561035 0.2797852
vt 0.2548828 0.2709961
vt 0.2648926 0.2624512
vt 0.25 0.2548828
vt 0.25 0.2705078
vt 0.25 0.279541
vt 0.2451172 0.2709961
vt 0.2351074 0.2624512
vt 0.2440186 0.2797852
vt 0.2164307 0.2756348
vt 0.21521 0.2849121
vt 0.1905518 0.2905273
vn 0.3295157 -0.9342934 -0.1360699
vn 0.5528407 -0.8101595 0.1949579
vn 0.5716501 -0.8128231 0.111959
vn 0.3373392 -0.9282373 0.1567731
vn 0.2103031 -0.9668403 -0.1448881
vn 0.269299 -0.9515321 -0.148542
vn -0 -0.9960299 -0.08902
vn -0 -0.9940645 -0.1087931
vn -0 -0.9463198 0.3232319
vn -0.2103051 -0.96684 -0.144887
vn -0.2693008 -0.9515315 -0.1485419
vn -0.3540199 -0.9111945 0.2106996
vn -0.3795027 -0.9213992 -0.0836737
vn -0.5447255 -0.8221293 0.1654613
vn -0.57165 -0.812823 0.11196
g head_geo_0
f 3/3/3 2/2/2 1/1/1
f 4/4/4 1/1/1 2/2/2
f 4/4/4 5/5/5 1/1/1
f 6/6/6 1/1/1 5/5/5
f 6/6/6 5/5/5 7/7/7
f 8/8/8 5/5/5 4/4/4
f 5/5/5 8/8/8 7/7/7
f 9/9/9 8/8/8 4/4/4
f 8/8/8 10/10/10 7/7/7
f 10/10/10 8/8/8 9/9/9
f 10/10/10 11/11/11 7/7/7
f 12/12/12 10/10/10 9/9/9
f 13/13/13 11/11/11 10/10/10
f 10/10/10 12/12/12 13/13/13
f 13/13/13 12/12/12 14/14/14
f 13/13/13 14/14/14 15/15/15
