g facial_mouth_geo
v -0.015865 1.512032 0.177171
v -0.021517 1.524792 0.179319
v -0.011608 1.527816 0.196211
v -0 1.526855 0.206912
v -0.029646 1.522861 0.168431
v -0 1.51134 0.182959
v -0.023708 1.503307 0.177318
v 0.015865 1.512032 0.177171
v 0.011608 1.527816 0.196211
v 0.021517 1.524792 0.179319
v 0.029646 1.522861 0.168431
v 0.023708 1.503307 0.177318
v -0.039441 1.507272 0.167782
v -0.040313 1.526217 0.166643
v -0.049257 1.510095 0.163303
v -0.04498 1.527865 0.166704
v -0 1.500741 0.184123
v -0.04567 1.489548 0.163782
v 0.039441 1.507272 0.167782
v 0.040313 1.526217 0.166643
v 0.049257 1.510095 0.163303
v 0.04498 1.527865 0.166704
v 0.04567 1.489548 0.163782
v -0.054086 1.511712 0.164714
v -0.061257 1.532469 0.169836
v 0.024854 1.489026 0.1828974
v -0.024854 1.489026 0.1828974
v 0.054086 1.511712 0.164714
v 0.061257 1.532469 0.169836
v -0.069758 1.517179 0.167424
v -0.081778 1.531749 0.160408
v -0.089927 1.513304 0.129611
v -0.100901 1.538836 0.131024
v -0.108159 1.544645 0.109179
v -0.09987099 1.524081 0.09831999
v -0.07703 1.492757 0.152464
v -0.088074 1.483497 0.109914
v -0.09955499 1.495493 0.087384
v -0.064228 1.485548 0.156843
v -0.081752 1.468709 0.138392
v -0.083468 1.447516 0.126843
v -0.088693 1.462639 0.096403
v -0.098785 1.473446 0.072649
v -0.081938 1.443513 0.087979
v -0.092432 1.448713 0.063386
v -0.056569 1.484598 0.151961
v -0.070649 1.462011 0.150033
v -0.06943399 1.425943 0.095066
v -0.050308 1.420059 0.06407499
v -0.077139 1.438824 0.103146
v -0.062912 1.428257 0.126927
v -0.055267 1.418648 0.108953
v -0.034852 1.414616 0.120196
v -0.044615 1.419035 0.144952
v -0.032492 1.411129 0.084875
v -0.015059 1.407102 0.08382499
v -0.016559 1.413685 0.120291
v -0 1.403616 0.081669
v -0.06777 1.442074 0.139784
v -0.059438 1.442258 0.138676
v -0.061036 1.464724 0.143456
v -0.051223 1.461567 0.156425
v -0.049224 1.438293 0.154874
v -0.048357 1.476729 0.159701
v -0.026401 1.473483 0.170878
v -0 1.473272 0.175305
v -0.027137 1.457192 0.169904
v -0.026416 1.433187 0.17123
v -0 1.487712 0.1882294
v -0 1.45443 0.174554
v 0.026401 1.473483 0.170878
v 0.027137 1.457192 0.169904
v -0.021834 1.415508 0.163084
v -0 1.430258 0.17524
v 0.026416 1.433187 0.17123
v -0.021048 1.407647 0.150244
v -0 1.403297 0.152491
v -0 1.414356 0.168952
v 0.021834 1.415508 0.163084
v 0.044615 1.419035 0.144952
v 0.049224 1.438293 0.154874
v 0.051223 1.461567 0.156425
v -0 1.411919 0.121835
v 0.016559 1.413685 0.120291
v 0.015059 1.407102 0.08382499
v 0.021048 1.407647 0.150244
v 0.034852 1.414616 0.120196
v 0.062912 1.428257 0.126927
v 0.032492 1.411129 0.084875
v 0.050308 1.420059 0.06407499
v 0.059438 1.442258 0.138676
v 0.055267 1.418648 0.108953
v 0.06943399 1.425943 0.095066
v 0.092432 1.448713 0.063386
v 0.081938 1.443513 0.087979
v 0.098785 1.473446 0.072649
v 0.077139 1.438824 0.103146
v 0.083468 1.447516 0.126843
v 0.088693 1.462639 0.096403
v 0.09955499 1.495493 0.087384
v 0.088074 1.483497 0.109914
v 0.09987099 1.524081 0.09831999
v 0.089927 1.513304 0.129611
v 0.108159 1.544645 0.109179
v 0.100901 1.538836 0.131024
v 0.081778 1.531749 0.160408
v 0.06777 1.442074 0.139784
v 0.081752 1.468709 0.138392
v 0.070649 1.462011 0.150033
v 0.069758 1.517179 0.167424
v 0.07703 1.492757 0.152464
v 0.064228 1.485548 0.156843
v 0.056569 1.484598 0.151961
v 0.061036 1.464724 0.143456
v 0.048357 1.476729 0.159701
vt 0.241333 0.3735352
vt 0.2387695 0.3798828
vt 0.2462158 0.3828125
vt 0.2496338 0.3850098
vt 0.2332764 0.378418
vt 0.2496338 0.373291
vt 0.237793 0.3693848
vt 0.2578125 0.3735352
vt 0.2529297 0.3828125
vt 0.260498 0.3798828
vt 0.2658691 0.378418
vt 0.2614746 0.3693848
vt 0.2294922 0.3706055
vt 0.2287598 0.3798828
vt 0.2244873 0.3710938
vt 0.2271729 0.3806152
vt 0.2496338 0.3688965
vt 0.2269287 0.3615723
vt 0.2697754 0.3706055
vt 0.2705078 0.3798828
vt 0.2746582 0.3710938
vt 0.2719727 0.3806152
vt 0.2722168 0.3615723
vt 0.22229 0.3718262
vt 0.2193604 0.3818359
vt 0.2612305 0.3630371
vt 0.237915 0.3630371
vt 0.2768555 0.3718262
vt 0.2797852 0.3818359
vt 0.21521 0.3742676
vt 0.2087402 0.3798828
vt 0.1950684 0.3666992
vt 0.19104 0.380127
vt 0.1793213 0.3798828
vt 0.1774902 0.3659668
vt 0.2099609 0.361084
vt 0.1922607 0.3481445
vt 0.1783447 0.3491211
vt 0.2164307 0.3588867
vt 0.2049561 0.3491211
vt 0.2049561 0.3356934
vt 0.1920166 0.3349609
vt 0.1777344 0.3339844
vt 0.1959229 0.3234863
vt 0.1832275 0.3195801
vt 0.2200928 0.3574219
vt 0.2130127 0.3486328
vt 0.206665 0.3164062
vt 0.2044678 0.2973633
vt 0.2034912 0.3251953
vt 0.2174072 0.326416
vt 0.2176514 0.3156738
vt 0.2298584 0.3146973
vt 0.229126 0.3273926
vt 0.2232666 0.2983398
vt 0.2362061 0.2944336
vt 0.239502 0.3110352
vt 0.2496338 0.2941895
vt 0.2132568 0.3364258
vt 0.21875 0.3356934
vt 0.2171631 0.3469238
vt 0.2246094 0.3476562
vt 0.2270508 0.3374023
vt 0.2255859 0.3552246
vt 0.2370605 0.3557129
vt 0.2496338 0.3562012
vt 0.2370605 0.348877
vt 0.2386475 0.3388672
vt 0.2496338 0.3632812
vt 0.2496338 0.3483887
vt 0.262207 0.3557129
vt 0.262207 0.348877
vt 0.2406006 0.3303223
vt 0.2496338 0.3383789
vt 0.260498 0.3388672
vt 0.2403564 0.3242188
vt 0.2496338 0.3237305
vt 0.2496338 0.331543
vt 0.2585449 0.3303223
vt 0.2700195 0.3273926
vt 0.2722168 0.3374023
vt 0.2746582 0.3476562
vt 0.2496338 0.310791
vt 0.2597656 0.3110352
vt 0.2629395 0.2944336
vt 0.2587891 0.3242188
vt 0.2692871 0.3146973
vt 0.2817383 0.326416
vt 0.2758789 0.2983398
vt 0.2946777 0.2973633
vt 0.2805176 0.3356934
vt 0.2814941 0.3156738
vt 0.2924805 0.3164062
vt 0.315918 0.3195801
vt 0.3032227 0.3234863
vt 0.3215332 0.3339844
vt 0.2956543 0.3251953
vt 0.2941895 0.3356934
vt 0.3071289 0.3349609
vt 0.3208008 0.3491211
vt 0.3068848 0.3481445
vt 0.3217773 0.3659668
vt 0.3041992 0.3666992
vt 0.3198242 0.3798828
vt 0.3081055 0.380127
vt 0.2905273 0.3798828
vt 0.2858887 0.3364258
vt 0.2941895 0.3491211
vt 0.2861328 0.3486328
vt 0.2839355 0.3742676
vt 0.2893066 0.361084
vt 0.2827148 0.3588867
vt 0.2790527 0.3574219
vt 0.2819824 0.3469238
vt 0.2736816 0.3552246
vn -0.5537573 -0.2421379 0.7966945
vn -0.7882654 -0.230784 0.5704178
vn -0.7138031 -0.2907151 0.6371576
vn 6.087841E-07 -0.4409476 0.8975328
vn -0.5384641 0.04921697 0.8412099
vn 2.412453E-07 -0.3413768 0.9399266
vn -0.3758549 0.1821205 0.9086061
vn 0.5537566 -0.2421374 0.7966951
vn 0.7138039 -0.2907152 0.6371568
vn 0.7882648 -0.2307834 0.5704189
vn 0.5384636 0.04921741 0.8412102
vn 0.3758555 0.1821208 0.9086058
vn -0.4049921 0.0727545 0.9114209
vn -0.1328963 -0.03798511 0.9904018
vn -0.2480908 -0.166789 0.9542705
vn 0.07796136 -0.1715402 0.9820876
vn -0 0.1393785 0.9902391
vn -0.5963922 -0.08764256 0.7978943
vn 0.4049925 0.0727547 0.9114208
vn 0.1328959 -0.03798516 0.9904018
vn 0.2480907 -0.1667891 0.9542705
vn -0.07796117 -0.1715402 0.9820876
vn 0.5963917 -0.08764254 0.7978945
vn 0.08323242 -0.3012639 0.9499012
vn -0.1345509 0.01947499 0.9907153
vn 0.3915406 -0.1575898 0.9065657
vn -0.3915399 -0.1575897 0.9065661
vn -0.08323204 -0.301264 0.9499012
vn 0.1345509 0.01947499 0.9907153
vn -0.4928847 -0.2049662 0.8456084
vn -0.693347 -0.1065586 0.7126818
vn -0.9069444 -0.2462714 0.3417633
vn -0.8958755 -0.2029056 0.3952676
vn -0.9480684 -0.2477336 0.1994852
vn -0.9309831 -0.2641181 0.2520161
vn -0.6991048 -0.1711365 0.6942367
vn -0.9615277 -0.1386708 0.2371389
vn -0.9352508 -0.1798611 0.3048871
vn 0.01261007 -0.3833478 0.9235181
vn -0.8846304 -0.1474138 0.442378
vn -0.8591454 -0.395619 0.3245842
vn -0.9436746 -0.2836907 0.1702869
vn -0.9192477 -0.2971947 0.2581838
vn -0.8767865 -0.4488269 0.1726264
vn -0.7941601 -0.6070961 0.0272734
vn -0.3315701 -0.2642006 0.9056816
vn -0.2711799 -0.3763557 0.8858995
vn -0.6884947 -0.7207667 0.08043937
vn -0.613367 -0.7881939 0.05031076
vn -0.8063518 -0.5832577 0.09801698
vn -0.5770732 -0.7252026 0.37559
vn -0.4316705 -0.9001557 0.05814084
vn -0.2848385 -0.9577429 0.03994494
vn -0.6039531 -0.6674269 0.4356398
vn -0.4570131 -0.8321443 0.3141257
vn -0.2166938 -0.8246506 0.5224892
vn -0.1741247 -0.9842062 0.03191797
vn -0 -0.8705719 0.4920413
vn -0.2146259 -0.5769547 0.7880729
vn -0.4559789 -0.4368455 0.7754025
vn -0.2168344 -0.2861189 0.9333375
vn -0.6695917 -0.07477144 0.7389561
vn -0.7196763 -0.2759879 0.6371003
vn -0.6327652 -0.1170662 0.7654434
vn -0.3490534 -0.2250664 0.9096741
vn 1.751263E-07 -0.2789496 0.9603058
vn -0.3427385 -0.02660115 0.9390541
vn -0.4411226 -0.2836858 0.8514301
vn -0 -0.2144304 0.9767393
vn -0 -0.00298966 0.9999956
vn 0.3490536 -0.2250665 0.9096739
vn 0.3427384 -0.02660116 0.9390543
vn -0.3548836 -0.6871654 0.6339253
vn -0 -0.1945031 0.9809018
vn 0.4411227 -0.283686 0.8514299
vn -0.293366 -0.9425153 0.1600036
vn 1.553449E-07 -0.955807 0.2939948
vn -0 -0.6497336 0.760162
vn 0.3548837 -0.6871662 0.6339244
vn 0.6039538 -0.6674272 0.4356385
vn 0.7196774 -0.2759883 0.6370987
vn 0.669592 -0.07477143 0.7389559
vn -0 -0.9997713 -0.02138604
vn 0.1741247 -0.9842062 0.03191772
vn 0.2166937 -0.8246508 0.5224891
vn 0.2933662 -0.9425157 0.1600017
vn 0.2848385 -0.9577429 0.03994472
vn 0.5770736 -0.7252024 0.3755897
vn 0.4570132 -0.8321443 0.3141254
vn 0.6133671 -0.7881941 0.0503098
vn 0.4559806 -0.4368456 0.7754016
vn 0.4316705 -0.9001557 0.05813966
vn 0.6884948 -0.7207668 0.08043762
vn 0.7941601 -0.6070963 0.02727303
vn 0.8767866 -0.448827 0.1726255
vn 0.9192477 -0.2971947 0.258184
vn 0.8063518 -0.5832577 0.09801698
vn 0.8591455 -0.3956189 0.3245839
vn 0.9436747 -0.2836907 0.1702868
vn 0.9352508 -0.179861 0.3048865
vn 0.9615279 -0.1386709 0.2371381
vn 0.9309832 -0.264118 0.2520157
vn 0.9069444 -0.2462714 0.3417634
vn 0.9480683 -0.2477335 0.1994859
vn 0.8958752 -0.2029055 0.3952684
vn 0.6933469 -0.1065586 0.7126818
vn 0.2146262 -0.5769542 0.7880732
vn 0.8846305 -0.1474138 0.4423776
vn 0.2711805 -0.3763555 0.8858993
vn 0.4928848 -0.2049664 0.8456084
vn 0.6991051 -0.1711367 0.6942365
vn -0.01260954 -0.3833477 0.9235181
vn 0.3315691 -0.2641999 0.9056822
vn 0.2168351 -0.2861185 0.9333374
vn 0.6327642 -0.1170662 0.7654443
g facial_mouth_geo_0
f 3/3/3 2/2/2 1/1/1
f 4/4/4 3/3/3 1/1/1
f 2/2/2 5/5/5 1/1/1
f 6/6/6 4/4/4 1/1/1
f 5/5/5 7/7/7 1/1/1
f 1/1/1 7/7/7 6/6/6
f 4/4/4 6/6/6 8/8/8
f 9/9/9 4/4/4 8/8/8
f 10/10/10 9/9/9 8/8/8
f 11/11/11 10/10/10 8/8/8
f 12/12/12 8/8/8 6/6/6
f 12/12/12 11/11/11 8/8/8
f 13/13/13 7/7/7 5/5/5
f 14/14/14 13/13/13 5/5/5
f 15/15/15 13/13/13 14/14/14
f 14/14/14 16/16/16 15/15/15
f 17/17/17 12/12/12 6/6/6
f 7/7/7 17/17/17 6/6/6
f 7/7/7 13/13/13 18/18/18
f 18/18/18 13/13/13 15/15/15
f 12/12/12 19/19/19 11/11/11
f 19/19/19 20/20/20 11/11/11
f 19/19/19 21/21/21 20/20/20
f 22/22/22 20/20/20 21/21/21
f 19/19/19 12/12/12 23/23/23
f 19/19/19 23/23/23 21/21/21
f 16/16/16 24/24/24 15/15/15
f 16/16/16 25/25/25 24/24/24
f 12/12/12 17/17/17 26/26/26
f 12/12/12 26/26/26 23/23/23
f 17/17/17 7/7/7 27/27/27
f 27/27/27 7/7/7 18/18/18
f 28/28/28 22/22/22 21/21/21
f 29/29/29 22/22/22 28/28/28
f 25/25/25 30/30/30 24/24/24
f 25/25/25 31/31/31 30/30/30
f 31/31/31 32/32/32 30/30/30
f 33/33/33 32/32/32 31/31/31
f 32/32/32 33/33/33 34/34/34
f 35/35/35 32/32/32 34/34/34
f 24/24/24 30/30/30 36/36/36
f 36/36/36 30/30/30 32/32/32
f 37/37/37 32/32/32 35/35/35
f 38/38/38 37/37/37 35/35/35
f 39/39/39 24/24/24 36/36/36
f 24/24/24 39/39/39 15/15/15
f 36/36/36 32/32/32 40/40/40
f 32/32/32 37/37/37 40/40/40
f 36/36/36 40/40/40 39/39/39
f 40/40/40 37/37/37 41/41/41
f 42/42/42 37/37/37 38/38/38
f 42/42/42 41/41/41 37/37/37
f 43/43/43 42/42/42 38/38/38
f 42/42/42 43/43/43 44/44/44
f 42/42/42 44/44/44 41/41/41
f 45/45/45 44/44/44 43/43/43
f 39/39/39 46/46/46 15/15/15
f 46/46/46 18/18/18 15/15/15
f 40/40/40 47/47/47 39/39/39
f 41/41/41 47/47/47 40/40/40
f 39/39/39 47/47/47 46/46/46
f 44/44/44 45/45/45 48/48/48
f 49/49/49 48/48/48 45/45/45
f 44/44/44 50/50/50 41/41/41
f 50/50/50 44/44/44 48/48/48
f 51/51/51 41/41/41 50/50/50
f 51/51/51 50/50/50 48/48/48
f 49/49/49 52/52/52 48/48/48
f 48/48/48 52/52/52 51/51/51
f 53/53/53 52/52/52 49/49/49
f 51/51/51 52/52/52 53/53/53
f 54/54/54 51/51/51 53/53/53
f 55/55/55 53/53/53 49/49/49
f 55/55/55 56/56/56 53/53/53
f 56/56/56 57/57/57 53/53/53
f 53/53/53 57/57/57 54/54/54
f 56/56/56 58/58/58 57/57/57
f 51/51/51 59/59/59 41/41/41
f 59/59/59 47/47/47 41/41/41
f 59/59/59 51/51/51 60/60/60
f 47/47/47 59/59/59 60/60/60
f 60/60/60 51/51/51 54/54/54
f 61/61/61 47/47/47 60/60/60
f 47/47/47 61/61/61 46/46/46
f 61/61/61 60/60/60 62/62/62
f 61/61/61 62/62/62 46/46/46
f 63/63/63 60/60/60 54/54/54
f 60/60/60 63/63/63 62/62/62
f 62/62/62 64/64/64 46/46/46
f 64/64/64 18/18/18 46/46/46
f 64/64/64 65/65/65 18/18/18
f 64/64/64 62/62/62 65/65/65
f 65/65/65 27/27/27 18/18/18
f 27/27/27 65/65/65 66/66/66
f 62/62/62 67/67/67 65/65/65
f 62/62/62 63/63/63 67/67/67
f 66/66/66 65/65/65 67/67/67
f 63/63/63 68/68/68 67/67/67
f 68/68/68 63/63/63 54/54/54
f 69/69/69 27/27/27 66/66/66
f 69/69/69 17/17/17 27/27/27
f 17/17/17 69/69/69 26/26/26
f 26/26/26 69/69/69 66/66/66
f 70/70/70 67/67/67 68/68/68
f 70/70/70 66/66/66 67/67/67
f 71/71/71 26/26/26 66/66/66
f 26/26/26 71/71/71 23/23/23
f 66/66/66 70/70/70 72/72/72
f 71/71/71 66/66/66 72/72/72
f 54/54/54 73/73/73 68/68/68
f 74/74/74 70/70/70 68/68/68
f 74/74/74 68/68/68 73/73/73
f 72/72/72 70/70/70 75/75/75
f 70/70/70 74/74/74 75/75/75
f 76/76/76 73/73/73 54/54/54
f 77/77/77 73/73/73 76/76/76
f 57/57/57 76/76/76 54/54/54
f 77/77/77 76/76/76 57/57/57
f 78/78/78 74/74/74 73/73/73
f 78/78/78 73/73/73 77/77/77
f 74/74/74 78/78/78 79/79/79
f 75/75/75 74/74/74 79/79/79
f 79/79/79 78/78/78 77/77/77
f 79/79/79 80/80/80 75/75/75
f 75/75/75 81/81/81 72/72/72
f 81/81/81 75/75/75 80/80/80
f 72/72/72 82/82/82 71/71/71
f 81/81/81 82/82/82 72/72/72
f 83/83/83 77/77/77 57/57/57
f 83/83/83 57/57/57 58/58/58
f 84/84/84 83/83/83 58/58/58
f 77/77/77 83/83/83 84/84/84
f 58/58/58 85/85/85 84/84/84
f 79/79/79 77/77/77 86/86/86
f 79/79/79 86/86/86 80/80/80
f 86/86/86 77/77/77 84/84/84
f 86/86/86 84/84/84 80/80/80
f 84/84/84 85/85/85 87/87/87
f 84/84/84 87/87/87 80/80/80
f 88/88/88 80/80/80 87/87/87
f 85/85/85 89/89/89 87/87/87
f 87/87/87 89/89/89 90/90/90
f 91/91/91 81/81/81 80/80/80
f 81/81/81 91/91/91 82/82/82
f 88/88/88 91/91/91 80/80/80
f 92/92/92 87/87/87 90/90/90
f 92/92/92 88/88/88 87/87/87
f 92/92/92 90/90/90 93/93/93
f 92/92/92 93/93/93 88/88/88
f 93/93/93 90/90/90 94/94/94
f 94/94/94 95/95/95 93/93/93
f 95/95/95 94/94/94 96/96/96
f 97/97/97 88/88/88 93/93/93
f 95/95/95 97/97/97 93/93/93
f 88/88/88 97/97/97 98/98/98
f 97/97/97 95/95/95 98/98/98
f 96/96/96 99/99/99 95/95/95
f 95/95/95 99/99/99 98/98/98
f 99/99/99 96/96/96 100/100/100
f 101/101/101 99/99/99 100/100/100
f 98/98/98 99/99/99 101/101/101
f 101/101/101 100/100/100 102/102/102
f 103/103/103 101/101/101 102/102/102
f 103/103/103 102/102/102 104/104/104
f 105/105/105 103/103/103 104/104/104
f 103/103/103 105/105/105 106/106/106
f 88/88/88 98/98/98 107/107/107
f 88/88/88 107/107/107 91/91/91
f 101/101/101 108/108/108 98/98/98
f 101/101/101 103/103/103 108/108/108
f 98/98/98 109/109/109 107/107/107
f 107/107/107 109/109/109 91/91/91
f 98/98/98 108/108/108 109/109/109
f 103/103/103 106/106/106 110/110/110
f 106/106/106 29/29/29 110/110/110
f 110/110/110 29/29/29 28/28/28
f 110/110/110 111/111/111 103/103/103
f 103/103/103 111/111/111 108/108/108
f 110/110/110 28/28/28 111/111/111
f 108/108/108 111/111/111 112/112/112
f 28/28/28 112/112/112 111/111/111
f 109/109/109 108/108/108 112/112/112
f 112/112/112 28/28/28 21/21/21
f 113/113/113 112/112/112 21/21/21
f 109/109/109 112/112/112 113/113/113
f 23/23/23 113/113/113 21/21/21
f 109/109/109 114/114/114 91/91/91
f 114/114/114 109/109/109 113/113/113
f 91/91/91 114/114/114 82/82/82
f 82/82/82 114/114/114 113/113/113
f 23/23/23 115/115/115 113/113/113
f 115/115/115 82/82/82 113/113/113
f 71/71/71 115/115/115 23/23/23
f 82/82/82 115/115/115 71/71/71
