g bf_geo
v 0.1437676 1.484632 0.01346026
v 0.153115 1.492899 0.00836686
v 0.1458293 1.494851 0.009665489
v 0.1510533 1.48268 0.01216167
v 0.1569487 1.489927 0.00244675
v 0.154887 1.479708 0.00624152
v 0.1550848 1.487676 -0.00462699
v 0.1530231 1.477457 -0.00083233
v 0.1483946 1.487754 -0.007574659
v 0.1463328 1.477535 -0.003779869
v 0.1404452 1.491324 -0.003326073
v 0.1383834 1.481106 0.0004687168
v 0.1392267 1.494508 0.004886322
v 0.1371649 1.484289 0.008681033
v -0.1441407 1.484632 0.01346026
v -0.1467164 1.494851 0.00966549
v -0.1537978 1.492899 0.00836686
v -0.1513036 1.48268 0.01216167
v -0.1573812 1.489927 0.00244675
v -0.1550021 1.479708 0.00624152
v -0.1553711 1.487676 -0.004626989
v -0.1530724 1.477457 -0.00083233
v -0.148696 1.487754 -0.007574658
v -0.1463881 1.477535 -0.003779869
v -0.1409998 1.491324 -0.003326073
v -0.1385623 1.481106 0.000468717
v -0.140081 1.494508 0.004886323
v -0.137518 1.484289 0.008681033
v 0.1350157 0.7699354 -0.2382045
v 4.215469E-27 0.7699354 -0.2530018
v 6.547555E-24 0.8579705 -0.2488747
v 0.1300913 0.8579705 -0.235022
v 0.2795829 0.7693172 -0.182634
v 0.2682731 0.8551083 -0.1781104
v 0.3531102 0.7684654 -0.08670393
v 0.3441833 0.8546013 -0.07697321
v 0.3641286 0.761178 -0.05532826
v 0.3531102 0.7684654 -0.08670393
v 0.3441833 0.8546013 -0.07697321
v 0.3703223 0.8425326 -0.01694909
v 0.3819191 0.7231347 -0.03715171
v 0.3981121 0.7768854 0.02714766
v 0.3934265 0.6785138 -0.02917431
v 0.4159114 0.7114959 0.04267946
v 0.4111824 0.5884187 -0.0338623
v 0.4406672 0.5897632 0.03757073
v 0.4368163 0.4551911 -0.05037057
v 0.4600309 0.451105 0.01982178
v -0.1350157 0.7699354 -0.2382045
v 6.547555E-24 0.8579705 -0.2488747
v 4.215469E-27 0.7699354 -0.2530018
v -0.1300913 0.8579705 -0.235022
v -0.2795829 0.7693172 -0.182634
v -0.2682731 0.8551083 -0.1781104
v -0.3531102 0.7684654 -0.08670393
v -0.3441833 0.8546013 -0.07697321
v -0.3641286 0.761178 -0.05532826
v -0.3441833 0.8546013 -0.07697321
v -0.3531102 0.7684654 -0.08670393
v -0.3703223 0.8425326 -0.01694909
v -0.3819191 0.7231347 -0.03715171
v -0.3981121 0.7768854 0.02714766
v -0.3934265 0.6785138 -0.02917431
v -0.4159114 0.7114959 0.04267946
v -0.4111824 0.5884187 -0.0338623
v -0.4406672 0.5897632 0.03757073
v -0.4368163 0.4551911 -0.05037057
v -0.4600309 0.451105 0.01982178
v 0.2620221 0.1321257 0.09499091
v 0.2693419 0.1160202 0.1258669
v 0.3019373 0.1001128 0.1214888
v 0.2974978 0.1108609 0.08734053
v 0.3247699 0.1001521 0.08294096
v 0.327998 0.09016725 0.1165316
v 0.2489438 0.1544217 0.04908523
v 0.2584841 0.1419593 0.07555168
v 0.2828051 0.1163477 0.06345532
v 0.2743792 0.1272626 0.03148049
v 0.3034173 0.1108001 0.02243293
v 0.3087763 0.0998494 0.05480822
v -0.2620221 0.1321257 0.09499091
v -0.3019373 0.1001128 0.1214888
v -0.2693419 0.1160202 0.1258669
v -0.2974978 0.1108609 0.08734053
v -0.3247699 0.1001521 0.08294096
v -0.327998 0.09016725 0.1165316
v -0.2489438 0.1544217 0.04908523
v -0.2828051 0.1163477 0.06345532
v -0.2584841 0.1419593 0.07555168
v -0.2743792 0.1272626 0.03148049
v -0.3034173 0.1108001 0.02243293
v -0.3087763 0.0998494 0.05480822
vt 0.4707031 0.5166016
vt 0.484375 0.5063477
vt 0.484375 0.5166016
vt 0.4707031 0.5063477
vt 0.484375 0.4960938
vt 0.4707031 0.4960938
vt 0.484375 0.4858398
vt 0.4707031 0.4858398
vt 0.484375 0.4753418
vt 0.4707031 0.4753418
vt 0.484375 0.4650879
vt 0.4707031 0.4650879
vt 0.484375 0.449707
vt 0.4707031 0.449707
vt 0.4707031 0.5166016
vt 0.484375 0.5166016
vt 0.484375 0.5063477
vt 0.4707031 0.5063477
vt 0.484375 0.4960938
vt 0.4707031 0.4960938
vt 0.484375 0.4858398
vt 0.4707031 0.4858398
vt 0.484375 0.4753418
vt 0.4707031 0.4753418
vt 0.484375 0.4650879
vt 0.4707031 0.4650879
vt 0.484375 0.449707
vt 0.4707031 0.449707
vt 0.5405273 0.4870605
vt 0.5405273 0.4484863
vt 0.519043 0.4484863
vt 0.519043 0.4870605
vt 0.5405273 0.5234375
vt 0.519043 0.5234375
vt 0.5405273 0.5581055
vt 0.519043 0.5581055
vt 0.5126953 0.5629883
vt 0.5126953 0.5756836
vt 0.4904785 0.5756836
vt 0.4904785 0.5629883
vt 0.5126953 0.5439453
vt 0.4904785 0.5439453
vt 0.5126953 0.5224609
vt 0.4904785 0.5224609
vt 0.5126953 0.4851074
vt 0.4904785 0.4851074
vt 0.5126953 0.4438477
vt 0.4904785 0.4438477
vt 0.5405273 0.4870605
vt 0.519043 0.4484863
vt 0.5405273 0.4484863
vt 0.519043 0.4870605
vt 0.5405273 0.5234375
vt 0.519043 0.5234375
vt 0.5405273 0.5581055
vt 0.519043 0.5581055
vt 0.5126953 0.5629883
vt 0.4904785 0.5756836
vt 0.5126953 0.5756836
vt 0.4904785 0.5629883
vt 0.5126953 0.5439453
vt 0.4904785 0.5439453
vt 0.5126953 0.5224609
vt 0.4904785 0.5224609
vt 0.5126953 0.4851074
vt 0.4904785 0.4851074
vt 0.5126953 0.4438477
vt 0.4904785 0.4438477
vt 0.9208984 0.828125
vt 0.9057617 0.8251953
vt 0.9057617 0.8085938
vt 0.9208984 0.8085938
vt 0.9208984 0.793457
vt 0.9057617 0.793457
vt 0.9404297 0.828125
vt 0.9238281 0.8251953
vt 0.9238281 0.8085938
vt 0.9404297 0.8085938
vt 0.9404297 0.793457
vt 0.9238281 0.793457
vt 0.9208984 0.828125
vt 0.9057617 0.8085938
vt 0.9057617 0.8251953
vt 0.9208984 0.8085938
vt 0.9208984 0.793457
vt 0.9057617 0.793457
vt 0.9404297 0.828125
vt 0.9238281 0.8085938
vt 0.9238281 0.8251953
vt 0.9404297 0.8085938
vt 0.9404297 0.793457
vt 0.9238281 0.793457
vn -0.2435357 -0.2940871 -0.9242312
vn -0.589285 -0.1740872 -0.7889467
vn -0.2435357 -0.2940871 -0.9242312
vn -0.5892822 -0.1740884 -0.7889486
vn -0.9726555 0.1231079 -0.1969411
vn -0.972656 0.1231093 -0.1969376
vn -0.7492756 0.358059 0.5571175
vn -0.744684 0.3591485 0.562546
vn 0.1637902 0.3142118 0.9351169
vn 0.1592424 0.3152866 0.9355406
vn 0.8189764 0.04713371 0.5718883
vn 0.8149235 0.05000114 0.5774077
vn 0.9732747 -0.1247825 0.1927842
vn 0.9732747 -0.1247824 0.1927842
vn 0.2465785 -0.2830313 -0.9268724
vn 0.2465785 -0.2830313 -0.9268724
vn 0.6012654 -0.1470279 -0.7854061
vn 0.5915425 -0.1517093 -0.7918723
vn 0.9695711 0.1563198 -0.1884039
vn 0.9695992 0.1564035 -0.1881892
vn 0.7454885 0.3746533 0.5512549
vn 0.7354991 0.3767495 0.5631171
vn -0.1601023 0.309662 0.9372709
vn -0.1661185 0.3080865 0.936743
vn -0.8229396 0.01338231 0.5679712
vn -0.8224298 0.01378513 0.5686996
vn -0.9686524 -0.1695984 0.1815187
vn -0.9686524 -0.1695984 0.1815187
vn -0.252508 -0.06188131 0.965614
vn -0 -0.0444939 0.9990096
vn -0 -0.0444939 0.9990096
vn -0.2439721 -0.06086328 0.9678705
vn -0.5892119 -0.1112094 0.8002886
vn -0.5673627 -0.1077153 0.8163926
vn -0.838762 -0.1356656 0.5273265
vn -0.8343644 -0.1363436 0.5340848
vn -0.9342241 -0.1329888 0.3309673
vn -0.838762 -0.1356656 0.5273265
vn -0.8343644 -0.1363436 0.5340848
vn -0.9331152 -0.1296697 0.3353831
vn -0.9463211 -0.1641245 0.2784593
vn -0.9445513 -0.1596972 0.2869139
vn -0.9289595 -0.2302402 0.289868
vn -0.9315969 -0.2254429 0.2851364
vn -0.9232544 -0.1963973 0.3301961
vn -0.9231226 -0.1976792 0.3297993
vn -0.9264499 -0.1574055 0.3419271
vn -0.9264499 -0.1574055 0.3419272
vn 0.252508 -0.06188135 0.965614
vn -0 -0.0444939 0.9990096
vn -0 -0.0444939 0.9990096
vn 0.2439721 -0.06086332 0.9678705
vn 0.589212 -0.1112097 0.8002884
vn 0.5673627 -0.1077156 0.8163926
vn 0.8387619 -0.1356661 0.5273265
vn 0.8343642 -0.136344 0.5340849
vn 0.9342235 -0.1329906 0.3309683
vn 0.8343642 -0.136344 0.5340849
vn 0.8387619 -0.1356661 0.5273265
vn 0.9331146 -0.1296712 0.335384
vn 0.9463214 -0.1641231 0.278459
vn 0.9445515 -0.1596968 0.2869138
vn 0.9289595 -0.2302392 0.2898691
vn 0.9315971 -0.2254412 0.285137
vn 0.912325 -0.1787545 0.3683884
vn 0.91251 -0.1806398 0.3670078
vn 0.9057839 -0.1295835 0.4034396
vn 0.9057839 -0.1295835 0.4034396
vn -0.497734 -0.8297181 -0.2526437
vn -0.497734 -0.829718 -0.2526437
vn -0.4477302 -0.8606097 -0.2426695
vn -0.4537262 -0.8571163 -0.243894
vn -0.3862635 -0.8933299 -0.2297005
vn -0.3862634 -0.8933299 -0.2297005
vn -0.7386417 -0.6727855 -0.04204862
vn -0.7386416 -0.6727855 -0.0420486
vn -0.6474004 -0.7550674 -0.1036617
vn -0.6555366 -0.7487039 -0.09856082
vn -0.5451154 -0.8224257 -0.1626811
vn -0.5451154 -0.8224257 -0.1626811
vn 0.4977341 -0.829718 -0.2526437
vn 0.4477303 -0.8606097 -0.2426695
vn 0.4977342 -0.829718 -0.2526437
vn 0.4537263 -0.8571162 -0.2438939
vn 0.3862635 -0.8933299 -0.2297004
vn 0.3862635 -0.8933299 -0.2297004
vn 0.7386417 -0.6727855 -0.04204854
vn 0.6474005 -0.7550675 -0.1036616
vn 0.7386417 -0.6727856 -0.04204854
vn 0.6555367 -0.7487038 -0.09856074
vn 0.5451155 -0.8224257 -0.162681
vn 0.5451154 -0.8224257 -0.162681
g bf_geo_0
f 3/3/3 2/2/2 1/1/1
f 2/2/2 4/4/4 1/1/1
f 2/2/2 5/5/5 4/4/4
f 5/5/5 6/6/6 4/4/4
f 5/5/5 7/7/7 6/6/6
f 7/7/7 8/8/8 6/6/6
f 7/7/7 9/9/9 8/8/8
f 9/9/9 10/10/10 8/8/8
f 9/9/9 11/11/11 10/10/10
f 11/11/11 12/12/12 10/10/10
f 11/11/11 13/13/13 12/12/12
f 13/13/13 14/14/14 12/12/12
f 17/17/17 16/16/16 15/15/15
f 18/18/18 17/17/17 15/15/15
f 19/19/19 17/17/17 18/18/18
f 20/20/20 19/19/19 18/18/18
f 21/21/21 19/19/19 20/20/20
f 22/22/22 21/21/21 20/20/20
f 23/23/23 21/21/21 22/22/22
f 24/24/24 23/23/23 22/22/22
f 25/25/25 23/23/23 24/24/24
f 26/26/26 25/25/25 24/24/24
f 27/27/27 25/25/25 26/26/26
f 28/28/28 27/27/27 26/26/26
f 31/31/31 30/30/30 29/29/29
f 32/32/32 31/31/31 29/29/29
f 29/29/29 33/33/33 32/32/32
f 33/33/33 34/34/34 32/32/32
f 33/33/33 35/35/35 34/34/34
f 35/35/35 36/36/36 34/34/34
f 39/39/39 38/38/38 37/37/37
f 40/40/40 39/39/39 37/37/37
f 40/40/40 37/37/37 41/41/41
f 42/42/42 40/40/40 41/41/41
f 42/42/42 41/41/41 43/43/43
f 44/44/44 42/42/42 43/43/43
f 43/43/43 45/45/45 44/44/44
f 45/45/45 46/46/46 44/44/44
f 45/45/45 47/47/47 46/46/46
f 47/47/47 48/48/48 46/46/46
f 51/51/51 50/50/50 49/49/49
f 50/50/50 52/52/52 49/49/49
f 53/53/53 49/49/49 52/52/52
f 54/54/54 53/53/53 52/52/52
f 55/55/55 53/53/53 54/54/54
f 56/56/56 55/55/55 54/54/54
f 59/59/59 58/58/58 57/57/57
f 58/58/58 60/60/60 57/57/57
f 57/57/57 60/60/60 61/61/61
f 60/60/60 62/62/62 61/61/61
f 61/61/61 62/62/62 63/63/63
f 62/62/62 64/64/64 63/63/63
f 65/65/65 63/63/63 64/64/64
f 66/66/66 65/65/65 64/64/64
f 67/67/67 65/65/65 66/66/66
f 68/68/68 67/67/67 66/66/66
f 71/71/71 70/70/70 69/69/69
f 72/72/72 71/71/71 69/69/69
f 72/72/72 73/73/73 71/71/71
f 73/73/73 74/74/74 71/71/71
f 77/77/77 76/76/76 75/75/75
f 78/78/78 77/77/77 75/75/75
f 78/78/78 79/79/79 77/77/77
f 79/79/79 80/80/80 77/77/77
f 83/83/83 82/82/82 81/81/81
f 82/82/82 84/84/84 81/81/81
f 85/85/85 84/84/84 82/82/82
f 86/86/86 85/85/85 82/82/82
f 89/89/89 88/88/88 87/87/87
f 88/88/88 90/90/90 87/87/87
f 91/91/91 90/90/90 88/88/88
f 92/92/92 91/91/91 88/88/88
