g facial_eye_geo
v 0.140421 1.540315 0.06390041
v 0.1418627 1.513148 0.06072701
v 0.1364071 1.510031 0.08098745
v 0.1353062 1.536703 0.08646517
v 0.1292648 1.503923 0.1124546
v 0.1340009 1.558741 0.09332515
v 0.1376861 1.568082 0.07430363
v 0.1314915 1.574906 0.1011048
v 0.1334132 1.587945 0.08613126
v 0.1244356 1.596152 0.1104716
v 0.1234342 1.607267 0.09758718
v 0.1136221 1.618079 0.1150555
v 0.1186861 1.59643 0.1270441
v 0.1029745 1.622291 0.1305673
v 0.1243038 1.570035 0.1253925
v 0.1260892 1.550729 0.1201977
v 0.1282596 1.532349 0.1135749
v 0.1184401 1.528971 0.1341692
v 0.1216825 1.499391 0.134859
v 0.1092575 1.596696 0.1405945
v 0.1115578 1.565853 0.1436706
v 0.09658784 1.597323 0.1489431
v 0.0738769 1.624725 0.1466861
v 0.1117095 1.540487 0.1422185
v 0.1007915 1.56646 0.1526287
v 0.09134996 1.510725 0.1521007
v 0.1058774 1.493472 0.1520892
v 0.07451794 1.492426 0.1711364
v 0.08926446 1.531316 0.1525763
v 0.07830127 1.559509 0.1615631
v 0.07767375 1.576207 0.1627092
v 0.07684184 1.598344 0.1592113
v 0.0565742 1.515488 0.1628884
v 0.05264724 1.492128 0.1772803
v 0.06253438 1.532738 0.1621861
v 0.04254221 1.600853 0.1656207
v 0.04499871 1.625344 0.1548566
v 0.03130242 1.56756 0.1787426
v 0.03097613 1.548912 0.17402
v -0 1.54952 0.1802326
v 0.03089825 1.535885 0.168663
v -0 1.59923 0.1703016
v -0 1.626551 0.1602733
v -0.04499871 1.625344 0.1548566
v -0 1.564587 0.1824145
v -0.04254221 1.600853 0.1656207
v -0.07387692 1.624724 0.1466861
v 0.03033294 1.518511 0.1763508
v 0.01478352 1.543185 0.17207
v -0.03130242 1.56756 0.1787426
v -0.07684184 1.598344 0.1592113
v -0.09658784 1.597323 0.1489431
v -0.1029745 1.622291 0.1305673
v -0.07767375 1.576207 0.1627092
v -0.07830127 1.559509 0.1615631
v -0.03097613 1.548912 0.17402
v -0.1007915 1.56646 0.1526287
v -0 1.546341 0.1738531
v 0.01716908 1.53324 0.18821
v -0.01478352 1.543185 0.17207
v -0.1092575 1.596696 0.1405945
v -0.1115578 1.565853 0.1436706
v -0.1186861 1.59643 0.1270441
v -0.1136221 1.618079 0.1150555
v -0.1243038 1.570035 0.1253925
v -0.1244356 1.596152 0.1104716
v -0.1234342 1.607267 0.09758718
v -0.1334132 1.587945 0.08613126
v -0.1314915 1.574906 0.1011048
v -0.1376861 1.568082 0.07430363
v -0.1340009 1.558741 0.09332515
v -0.140421 1.540315 0.06390041
v -0.1117095 1.540487 0.1422185
v -0.1260892 1.550729 0.1201977
v -0.1353062 1.536703 0.08646517
v -0.1282596 1.532349 0.1135749
v -0.1364071 1.510031 0.08098745
v -0.1418627 1.513148 0.06072701
v -0.1292648 1.503923 0.1124546
v -0.1184401 1.528971 0.1341692
v -0.1216825 1.499391 0.134859
v -0.08926446 1.531316 0.1525763
v -0.09134996 1.510725 0.1521007
v -0.1058774 1.493472 0.1520892
v -0.07451794 1.492426 0.1711364
v -0.06253438 1.532738 0.1621861
v -0.0565742 1.515488 0.1628884
v -0.05264724 1.492128 0.1772803
v -0.03089863 1.535888 0.168663
v -0.03033294 1.518511 0.1763508
v -0.01716908 1.53324 0.18821
v -0 1.536155 0.191106
v 4.967139E-19 1.520419 0.2031861
v -0.01971735 1.517298 0.1991623
v -0.0419302 1.500681 0.1830827
v -0.01893882 1.476896 0.2016069
v -0.02748951 1.476981 0.1804762
v -0.02007578 1.498967 0.2060508
v 1.8928E-19 1.471468 0.2010735
v -4.379901E-20 1.470903 0.1896654
v 0.02754195 1.476981 0.1804762
v 1.37996E-18 1.479929 0.2137213
v 0.01893882 1.476896 0.2016069
v 1.976107E-18 1.498519 0.2139053
v 0.02007578 1.498967 0.2060508
v 0.0419302 1.500681 0.1830827
v 0.01971735 1.517298 0.1991623
vt 0.3662109 0.387207
vt 0.3642578 0.362793
vt 0.3481445 0.3637695
vt 0.3481445 0.3862305
vt 0.3305664 0.3640137
vt 0.3503418 0.4055176
vt 0.3664551 0.4069824
vt 0.3496094 0.4223633
vt 0.3684082 0.4279785
vt 0.3486328 0.4421387
vt 0.3681641 0.4511719
vt 0.3530273 0.4602051
vt 0.3288574 0.4448242
vt 0.3295898 0.467041
vt 0.3305664 0.425293
vt 0.3327637 0.4042969
vt 0.333252 0.385498
vt 0.3220215 0.3901367
vt 0.3186035 0.3652344
vt 0.3198242 0.4462891
vt 0.3203125 0.4267578
vt 0.3125 0.4489746
vt 0.3029785 0.4716797
vt 0.3186035 0.4060059
vt 0.3112793 0.4291992
vt 0.3063965 0.3884277
vt 0.3134766 0.3659668
vt 0.296875 0.3671875
vt 0.3049316 0.4016113
vt 0.295166 0.4272461
vt 0.2973633 0.4384766
vt 0.3005371 0.4533691
vt 0.2888184 0.3930664
vt 0.2866211 0.3649902
vt 0.2888184 0.4047852
vt 0.2770996 0.456543
vt 0.2768555 0.4741211
vt 0.2722168 0.4372559
vt 0.2719727 0.4211426
vt 0.25 0.4228516
vt 0.2729492 0.4086914
vt 0.25 0.4567871
vt 0.25 0.4753418
vt 0.2232666 0.4741211
vt 0.25 0.4387207
vt 0.2229004 0.456543
vt 0.1971436 0.4716797
vt 0.2729492 0.3928223
vt 0.262207 0.4152832
vt 0.2279053 0.4372559
vt 0.199585 0.4533691
vt 0.1876221 0.4489746
vt 0.1706543 0.467041
vt 0.2026367 0.4384766
vt 0.2049561 0.4272461
vt 0.2281494 0.4211426
vt 0.1889648 0.4291992
vt 0.25 0.4152832
vt 0.2595215 0.4033203
vt 0.237915 0.4152832
vt 0.1802979 0.4462891
vt 0.1796875 0.4267578
vt 0.1712646 0.4448242
vt 0.1469727 0.4602051
vt 0.1695557 0.425293
vt 0.1514893 0.4421387
vt 0.131958 0.4511719
vt 0.1317139 0.4279785
vt 0.1503906 0.4223633
vt 0.1335449 0.4069824
vt 0.1496582 0.4055176
vt 0.1339111 0.387207
vt 0.1815186 0.4060059
vt 0.1672363 0.4042969
vt 0.1518555 0.3862305
vt 0.166748 0.385498
vt 0.1518555 0.3637695
vt 0.1357422 0.362793
vt 0.1695557 0.3640137
vt 0.1781006 0.3901367
vt 0.1815186 0.3652344
vt 0.1950684 0.4016113
vt 0.1936035 0.3884277
vt 0.1865234 0.3659668
vt 0.2032471 0.3671875
vt 0.2113037 0.4047852
vt 0.2113037 0.3930664
vt 0.2133789 0.3649902
vt 0.2270508 0.4086914
vt 0.2271729 0.3928223
vt 0.2404785 0.4033203
vt 0.25 0.4074707
vt 0.25 0.3947754
vt 0.2397461 0.390625
vt 0.2224121 0.375
vt 0.2419434 0.3654785
vt 0.2366943 0.3554688
vt 0.2404785 0.3786621
vt 0.25 0.3620605
vt 0.25 0.3552246
vt 0.2634277 0.3554688
vt 0.25 0.3703613
vt 0.2580566 0.3654785
vt 0.25 0.3813477
vt 0.2595215 0.3786621
vt 0.2775879 0.375
vt 0.2602539 0.390625
vn 0.996293 0.07144909 0.04790827
vn 0.9988097 0.01101964 0.04751601
vn 0.9819986 0.01966182 0.1878618
vn 0.9714901 0.004944055 0.2370288
vn 0.9792404 0.01348073 0.202254
vn 0.9691632 0.008212365 0.2462829
vn 0.9760489 0.1211543 0.1806933
vn 0.9548624 0.09314698 0.2820666
vn 0.9683756 0.1783098 0.1745114
vn 0.9554459 0.129375 0.265302
vn 0.9378539 0.2795062 0.2056851
vn 0.8390555 0.4314464 0.3314209
vn 0.9063658 0.130032 0.4019859
vn 0.6267968 0.5627627 0.53891
vn 0.8996953 0.08386997 0.4283856
vn 0.9269409 -0.002677063 0.3751979
vn 0.9474878 0.01946053 0.3191991
vn 0.8048758 0.08303197 0.5876058
vn 0.8925977 0.0731845 0.4448746
vn 0.7663558 0.151504 0.6242959
vn 0.7902993 0.04206701 0.6112753
vn 0.569867 0.228038 0.789462
vn 0.3033736 0.6121587 0.7302234
vn 0.7266213 -0.1346191 0.6737204
vn 0.5723089 0.03204799 0.8194118
vn 0.4747009 0.131972 0.8701969
vn 0.6148747 0.3112207 0.7246177
vn 0.4705839 0.3314788 0.8177241
vn 0.4459118 -0.05375097 0.8934616
vn 0.3710171 -0.1957951 0.9077503
vn 0.3576813 0.08857726 0.9296334
vn 0.3526319 0.2949139 0.8880747
vn 0.4195931 0.3817631 0.8235281
vn 0.3971264 0.4597197 0.7943227
vn 0.275215 -0.109436 0.9551337
vn 0.152036 0.334125 0.9301858
vn 0.1176631 0.6229623 0.773352
vn 0.1981879 0.09053796 0.9759735
vn 0.237487 -0.2987989 0.9242939
vn -0 -0.387811 0.921739
vn 0.3717732 0.06732003 0.9258794
vn -0 0.3293691 0.9442013
vn 0.00614398 0.6379477 0.7700552
vn -0.1035739 0.6177759 0.7795034
vn -0 0.1833559 0.9830466
vn -0.152037 0.334124 0.930186
vn -0.3442492 0.5569663 0.7558314
vn 0.6690559 0.4858559 0.5624129
vn 0.5142528 0.2283229 0.8266878
vn -0.1981869 0.09053797 0.9759738
vn -0.352631 0.294914 0.888075
vn -0.5698659 0.228038 0.7894629
vn -0.6661693 0.4947113 0.5581033
vn -0.3576817 0.0885772 0.9296333
vn -0.3710168 -0.1957939 0.9077506
vn -0.2374899 -0.2988099 0.9242896
vn -0.5723081 0.03204801 0.8194121
vn -0 0.3467081 0.9379731
vn 0.5757479 0.6219869 0.5307039
vn -0.5142629 0.228347 0.8266749
vn -0.7663549 0.151504 0.624297
vn -0.7902988 0.04206699 0.6112759
vn -0.9063653 0.130032 0.4019871
vn -0.8838769 0.3630471 0.2948869
vn -0.9290022 0.03623601 0.3682961
vn -0.9554459 0.129375 0.265302
vn -0.9220673 0.3417166 0.1817185
vn -0.9683755 0.1783097 0.1745121
vn -0.9702135 0.03746198 0.2393369
vn -0.9760489 0.1211543 0.1806934
vn -0.9789387 -0.011303 0.2038409
vn -0.996293 0.07144904 0.0479083
vn -0.7266218 -0.134619 0.6737199
vn -0.9480981 -0.027724 0.316767
vn -0.97149 0.004943838 0.2370289
vn -0.947488 0.01946041 0.3191987
vn -0.9819986 0.01966182 0.1878618
vn -0.9988097 0.0110196 0.04751598
vn -0.9792404 0.01348073 0.202254
vn -0.8048759 0.08303099 0.5876059
vn -0.8925977 0.0731845 0.4448746
vn -0.4459118 -0.05375097 0.8934616
vn -0.4747009 0.131972 0.8701969
vn -0.6148747 0.3112207 0.7246177
vn -0.4705839 0.3314788 0.8177241
vn -0.2752109 -0.109429 0.9551358
vn -0.4196019 0.381754 0.8235279
vn -0.1759279 0.1219372 0.9768217
vn -0.3717441 0.06727602 0.9258943
vn -0.6690522 0.4858351 0.5624351
vn -0.5757482 0.6219872 0.5307032
vn -0 0.7378819 0.6749299
vn -0 0.5132939 0.8582129
vn -0.5657291 0.447464 0.692623
vn -0.7043231 0.333517 0.6266541
vn -0.5732731 -0.3978451 0.7162941
vn -0.4936798 -0.2081931 0.8443553
vn -0.5873182 0.177826 0.7895792
vn -0 -0.9751544 0.2215261
vn -0 -0.546593 0.8373985
vn 0.4936798 -0.208193 0.8443553
vn -0 -0.3203971 0.9472833
vn 0.573272 -0.397843 0.7162961
vn -0 0.2159229 0.9764104
vn 0.5873177 0.1778259 0.7895796
vn 0.7043241 0.333517 0.6266531
vn 0.5657291 0.447464 0.692623
g facial_eye_geo_0
f 3/3/3 2/2/2 1/1/1
f 4/4/4 3/3/3 1/1/1
f 5/5/5 3/3/3 4/4/4
f 6/6/6 4/4/4 1/1/1
f 7/7/7 6/6/6 1/1/1
f 8/8/8 6/6/6 7/7/7
f 8/8/8 7/7/7 9/9/9
f 9/9/9 10/10/10 8/8/8
f 9/9/9 11/11/11 10/10/10
f 10/10/10 11/11/11 12/12/12
f 13/13/13 10/10/10 12/12/12
f 8/8/8 10/10/10 13/13/13
f 14/14/14 13/13/13 12/12/12
f 8/8/8 15/15/15 6/6/6
f 15/15/15 8/8/8 13/13/13
f 4/4/4 6/6/6 16/16/16
f 15/15/15 16/16/16 6/6/6
f 17/17/17 5/5/5 4/4/4
f 17/17/17 4/4/4 16/16/16
f 5/5/5 17/17/17 18/18/18
f 17/17/17 16/16/16 18/18/18
f 19/19/19 5/5/5 18/18/18
f 14/14/14 20/20/20 13/13/13
f 15/15/15 13/13/13 20/20/20
f 15/15/15 21/21/21 16/16/16
f 21/21/21 15/15/15 20/20/20
f 22/22/22 20/20/20 14/14/14
f 22/22/22 14/14/14 23/23/23
f 16/16/16 21/21/21 24/24/24
f 16/16/16 24/24/24 18/18/18
f 21/21/21 20/20/20 25/25/25
f 20/20/20 22/22/22 25/25/25
f 24/24/24 21/21/21 25/25/25
f 19/19/19 18/18/18 26/26/26
f 27/27/27 19/19/19 26/26/26
f 28/28/28 27/27/27 26/26/26
f 29/29/29 18/18/18 24/24/24
f 29/29/29 26/26/26 18/18/18
f 24/24/24 25/25/25 30/30/30
f 30/30/30 29/29/29 24/24/24
f 22/22/22 31/31/31 25/25/25
f 31/31/31 30/30/30 25/25/25
f 32/32/32 22/22/22 23/23/23
f 22/22/22 32/32/32 31/31/31
f 28/28/28 26/26/26 33/33/33
f 33/33/33 34/34/34 28/28/28
f 29/29/29 35/35/35 26/26/26
f 35/35/35 29/29/29 30/30/30
f 35/35/35 33/33/33 26/26/26
f 36/36/36 32/32/32 23/23/23
f 37/37/37 36/36/36 23/23/23
f 31/31/31 32/32/32 38/38/38
f 30/30/30 31/31/31 38/38/38
f 36/36/36 38/38/38 32/32/32
f 39/39/39 35/35/35 30/30/30
f 38/38/38 39/39/39 30/30/30
f 39/39/39 38/38/38 40/40/40
f 41/41/41 33/33/33 35/35/35
f 39/39/39 41/41/41 35/35/35
f 36/36/36 37/37/37 42/42/42
f 37/37/37 43/43/43 42/42/42
f 43/43/43 44/44/44 42/42/42
f 38/38/38 36/36/36 45/45/45
f 36/36/36 42/42/42 45/45/45
f 38/38/38 45/45/45 40/40/40
f 44/44/44 46/46/46 42/42/42
f 42/42/42 46/46/46 45/45/45
f 46/46/46 44/44/44 47/47/47
f 48/48/48 33/33/33 41/41/41
f 34/34/34 33/33/33 48/48/48
f 39/39/39 49/49/49 41/41/41
f 39/39/39 40/40/40 49/49/49
f 48/48/48 41/41/41 49/49/49
f 46/46/46 50/50/50 45/45/45
f 45/45/45 50/50/50 40/40/40
f 51/51/51 46/46/46 47/47/47
f 50/50/50 46/46/46 51/51/51
f 52/52/52 51/51/51 47/47/47
f 53/53/53 52/52/52 47/47/47
f 50/50/50 51/51/51 54/54/54
f 54/54/54 51/51/51 52/52/52
f 50/50/50 54/54/54 55/55/55
f 50/50/50 56/56/56 40/40/40
f 56/56/56 50/50/50 55/55/55
f 54/54/54 52/52/52 57/57/57
f 55/55/55 54/54/54 57/57/57
f 40/40/40 58/58/58 49/49/49
f 48/48/48 49/49/49 59/59/59
f 59/59/59 49/49/49 58/58/58
f 40/40/40 56/56/56 60/60/60
f 58/58/58 40/40/40 60/60/60
f 53/53/53 61/61/61 52/52/52
f 57/57/57 52/52/52 62/62/62
f 52/52/52 61/61/61 62/62/62
f 63/63/63 61/61/61 53/53/53
f 63/63/63 53/53/53 64/64/64
f 63/63/63 65/65/65 61/61/61
f 65/65/65 62/62/62 61/61/61
f 66/66/66 63/63/63 64/64/64
f 63/63/63 66/66/66 65/65/65
f 67/67/67 66/66/66 64/64/64
f 67/67/67 68/68/68 66/66/66
f 66/66/66 68/68/68 69/69/69
f 66/66/66 69/69/69 65/65/65
f 70/70/70 69/69/69 68/68/68
f 71/71/71 69/69/69 70/70/70
f 65/65/65 69/69/69 71/71/71
f 70/70/70 72/72/72 71/71/71
f 57/57/57 62/62/62 73/73/73
f 57/57/57 73/73/73 55/55/55
f 65/65/65 74/74/74 62/62/62
f 74/74/74 65/65/65 71/71/71
f 62/62/62 74/74/74 73/73/73
f 72/72/72 75/75/75 71/71/71
f 76/76/76 74/74/74 71/71/71
f 75/75/75 76/76/76 71/71/71
f 77/77/77 75/75/75 72/72/72
f 75/75/75 77/77/77 76/76/76
f 78/78/78 77/77/77 72/72/72
f 77/77/77 79/79/79 76/76/76
f 74/74/74 76/76/76 80/80/80
f 76/76/76 79/79/79 80/80/80
f 73/73/73 74/74/74 80/80/80
f 79/79/79 81/81/81 80/80/80
f 82/82/82 55/55/55 73/73/73
f 80/80/80 82/82/82 73/73/73
f 80/80/80 81/81/81 83/83/83
f 83/83/83 82/82/82 80/80/80
f 81/81/81 84/84/84 83/83/83
f 85/85/85 83/83/83 84/84/84
f 86/86/86 55/55/55 82/82/82
f 86/86/86 82/82/82 83/83/83
f 56/56/56 55/55/55 86/86/86
f 85/85/85 87/87/87 83/83/83
f 87/87/87 86/86/86 83/83/83
f 88/88/88 87/87/87 85/85/85
f 89/89/89 56/56/56 86/86/86
f 87/87/87 89/89/89 86/86/86
f 60/60/60 56/56/56 89/89/89
f 90/90/90 89/89/89 87/87/87
f 60/60/60 89/89/89 90/90/90
f 87/87/87 88/88/88 90/90/90
f 60/60/60 90/90/90 91/91/91
f 60/60/60 91/91/91 58/58/58
f 91/91/91 92/92/92 58/58/58
f 93/93/93 92/92/92 91/91/91
f 92/92/92 59/59/59 58/58/58
f 92/92/92 93/93/93 59/59/59
f 91/91/91 90/90/90 94/94/94
f 94/94/94 93/93/93 91/91/91
f 95/95/95 90/90/90 88/88/88
f 95/95/95 94/94/94 90/90/90
f 88/88/88 96/96/96 95/95/95
f 97/97/97 96/96/96 88/88/88
f 95/95/95 98/98/98 94/94/94
f 93/93/93 94/94/94 98/98/98
f 98/98/98 95/95/95 96/96/96
f 99/99/99 96/96/96 97/97/97
f 100/100/100 99/99/99 97/97/97
f 99/99/99 100/100/100 101/101/101
f 98/98/98 96/96/96 102/102/102
f 99/99/99 102/102/102 96/96/96
f 103/103/103 99/99/99 101/101/101
f 102/102/102 99/99/99 103/103/103
f 34/34/34 103/103/103 101/101/101
f 104/104/104 98/98/98 102/102/102
f 104/104/104 93/93/93 98/98/98
f 105/105/105 104/104/104 102/102/102
f 103/103/103 105/105/105 102/102/102
f 93/93/93 104/104/104 105/105/105
f 103/103/103 34/34/34 106/106/106
f 106/106/106 105/105/105 103/103/103
f 48/48/48 106/106/106 34/34/34
f 107/107/107 93/93/93 105/105/105
f 105/105/105 106/106/106 107/107/107
f 107/107/107 106/106/106 48/48/48
f 93/93/93 107/107/107 59/59/59
f 48/48/48 59/59/59 107/107/107
