g bf_geo
v -0.1125944 1.353978 -0.1345692
v -0.1242468 1.41706 -0.1125176
v -0.09881375 1.358877 -0.1353248
v -0.1780899 1.415037 -0.1153354
v -0.1371786 1.343712 -0.1311088
v -0.1508381 1.339322 -0.1284514
v -0.08534089 1.311841 -0.141382
v -0.1057322 1.292976 -0.1369408
v -0.1110065 1.265648 -0.1287377
v -0.1209138 1.277187 -0.1277786
v -0.1057322 1.292976 -0.1369408
v -0.08301697 1.262403 -0.1400978
v -0.08058672 1.182882 -0.1282489
v -0.08534089 1.311841 -0.141382
v -0.1090987 1.184775 -0.1179217
v -0.05321861 1.309544 -0.1398017
v -0.07076532 1.325526 -0.1405365
v -1.891749E-11 1.310636 -0.1391049
v -1.309672E-11 1.262953 -0.1390474
v 0.08301697 1.262403 -0.1400978
v 0.08058672 1.182882 -0.1282489
v 0.05321861 1.309544 -0.1398017
v 0.08534089 1.311841 -0.141382
v 0.07076533 1.325526 -0.1405365
v 0.1057322 1.292976 -0.1369408
v 0.1110065 1.265648 -0.1287377
v 0.1209138 1.277187 -0.1277786
v 0.1090987 1.184775 -0.1179217
v 5.09317E-13 1.184431 -0.1288311
v 8.44009E-12 1.141575 -0.1240266
v -0.05917599 1.141768 -0.1252972
v 0.05917582 1.141767 -0.1252974
v -0.08557335 1.131901 -0.1188358
v -0.07585166 1.122619 -0.1208514
v -0.1078948 1.153236 -0.1131338
v -0.1187615 1.166632 -0.1086775
v 0.08557326 1.131901 -0.1188359
v 0.07585038 1.122618 -0.1209168
v 0.1078948 1.153236 -0.1131338
v 0.1187615 1.166632 -0.1086775
v 0.1371786 1.343712 -0.1311088
v 0.1057322 1.292976 -0.1369408
v 0.08534089 1.311841 -0.141382
v 0.1125944 1.353978 -0.1345692
v 0.1780899 1.415037 -0.1153354
v 0.1508381 1.339322 -0.1284514
v 0.1242468 1.41706 -0.1125176
v 0.09881375 1.358877 -0.1353248
v -0.1399105 1.465105 -0.0729119
v -0.194184 1.462949 -0.02258288
v -0.1394628 1.470452 -0.02306684
v -0.1931854 1.450317 -0.06738688
v -0.1780899 1.415037 -0.1153354
v -0.1242468 1.41706 -0.1125176
v -0.1127538 1.357787 0.1142763
v -0.1190474 1.417276 0.07421675
v -0.1780649 1.414922 0.07010246
v -0.1731931 1.355706 0.09240116
v -0.1098114 1.284163 0.1380098
v -0.1703709 1.253037 0.1206282
v -0.1109096 1.253101 0.1403981
v -0.1232889 1.216321 0.1409299
v -0.1179711 1.222922 0.1418944
v -0.1616154 1.216495 0.1292037
v -0.1658562 1.228634 0.1162929
v -0.1701288 1.134015 0.1239085
v -0.1763629 1.134056 0.1200914
v -0.1454999 1.134362 0.1368959
v -0.1385902 1.134444 0.1405482
v -0.1931854 1.450317 0.02222113
v -0.1394628 1.470452 -0.02306684
v -0.194184 1.462949 -0.02258288
v -0.1338174 1.461244 0.01733326
v -0.1780649 1.414922 0.07010246
v -0.1190474 1.417276 0.07421675
v -0.1098114 1.284163 0.1380098
v -0.1109096 1.253101 0.1403981
v -0.08565161 1.252831 0.1438934
v -0.08732937 1.28377 0.1424221
v -0.05107287 1.252959 0.1481272
v -0.0509832 1.283352 0.1464755
v -0.0385662 1.290017 0.1473709
v -0.03916496 1.245027 0.1493981
v -0.03497994 1.285969 0.1475586
v -0.03520688 1.249913 0.1492103
v 1.535806E-11 1.285969 0.1482491
v 1.54577E-11 1.249946 0.1499009
v -0.1454999 1.134362 0.1368959
v -0.1701288 1.134015 0.1239085
v -0.1906378 1.082558 0.09619818
v -0.1814129 1.061107 0.1116166
v -0.2022656 1.021324 0.06210734
v -0.2062229 1.056531 0.05577413
v -0.2148028 1.008429 -0.0009294962
v -0.2075722 1.045289 -0.0006361817
v -0.1783413 1.080632 -0.06921378
v -0.1720379 1.051735 -0.07690031
v -0.1414131 1.117711 -0.09873417
v -0.1237927 1.095669 -0.1051298
v -0.08557335 1.131901 -0.1188358
v -0.1078948 1.153236 -0.1131338
v 0.1399105 1.465105 -0.0729119
v 0.1394628 1.470452 -0.02306684
v 0.194184 1.462949 -0.02258288
v 0.1931854 1.450317 -0.06738688
v 0.1780899 1.415037 -0.1153354
v 0.1242468 1.41706 -0.1125176
v 0.1127538 1.357787 0.1142763
v 0.1780649 1.414922 0.07010246
v 0.1190474 1.417276 0.07421675
v 0.1731931 1.355706 0.09240116
v 0.1098114 1.284163 0.1380098
v 0.1703781 1.253019 0.120625
v 0.1109096 1.253101 0.1403981
v 0.1232889 1.216321 0.1409299
v 0.1179711 1.222922 0.1418944
v 0.1616333 1.216486 0.129195
v 0.1701216 1.134039 0.1239142
v 0.1454999 1.134362 0.1368959
v 0.1385902 1.134444 0.1405482
v 0.1931854 1.450317 0.02222113
v 0.194184 1.462949 -0.02258288
v 0.1394628 1.470452 -0.02306684
v 0.1338174 1.461244 0.01733326
v 0.1780649 1.414922 0.07010246
v 0.1190474 1.417276 0.07421675
v 0.1098114 1.284163 0.1380098
v 0.08565161 1.252831 0.1438934
v 0.1109096 1.253101 0.1403981
v 0.08732937 1.28377 0.1424221
v 0.05107287 1.252959 0.1481272
v 0.0509832 1.283352 0.1464755
v 0.0385662 1.290017 0.1473709
v 0.03916496 1.245027 0.1493981
v 0.03497994 1.285969 0.1475586
v 0.03520688 1.249913 0.1492103
v 1.535806E-11 1.285969 0.1482491
v 1.54577E-11 1.249946 0.1499009
v 0.1454999 1.134362 0.1368959
v 0.1906378 1.082558 0.09619818
v 0.1701216 1.134039 0.1239142
v 0.1814129 1.061107 0.1116166
v 0.2022656 1.021324 0.06210733
v 0.2062229 1.056531 0.05577413
v 0.2148028 1.008429 -0.0009294962
v 0.2075722 1.045289 -0.0006361817
v 0.1783413 1.080632 -0.06921378
v 0.1720379 1.051735 -0.07690031
v 0.1414131 1.117711 -0.09873417
v 0.1237927 1.095669 -0.1051298
v 0.08557326 1.131901 -0.1188359
v 0.1078948 1.153236 -0.1131338
v 0.1456876 1.134256 0.1371232
v 0.173182 1.130594 0.1246093
v 0.1703256 1.133899 0.1241323
v 0.1495679 1.129309 0.1376551
v 0.1850634 1.106758 0.1179511
v 0.1711455 1.092463 0.1276371
v 0.2014056 1.081737 0.1096046
v 0.1919872 1.060206 0.120245
v -0.1456876 1.134256 0.1371232
v -0.1703256 1.133899 0.1241323
v -0.173182 1.130594 0.1246093
v -0.1495679 1.129309 0.1376551
v -0.1850634 1.106758 0.1179511
v -0.1711455 1.092463 0.1276371
v -0.2014056 1.081737 0.1096046
v -0.1919872 1.060206 0.120245
v 0.2664967 0.1750759 -0.01532436
v 0.2638218 0.2052776 -0.01645617
v 0.2490268 0.2069016 0.03303133
v 0.2549283 0.1771714 0.03757314
v 0.279561 0.2046427 -0.0601041
v 0.2638218 0.2052776 -0.01645617
v 0.284665 0.1739491 -0.05693818
v 0.2664967 0.1750759 -0.01532436
v -0.2664967 0.1750759 -0.01532436
v -0.2549283 0.1771714 0.03757314
v -0.2490268 0.2069016 0.03303133
v -0.2638218 0.2052776 -0.01645617
v -0.279561 0.2046427 -0.0601041
v -0.284665 0.1739491 -0.05693818
v -0.2638218 0.2052776 -0.01645617
v -0.2664967 0.1750759 -0.01532436
vt 0.1971436 0.2531738
vt 0.1889648 0.2067871
vt 0.1889648 0.2531738
vt 0.2210693 0.2067871
vt 0.2132568 0.2531738
vt 0.2210693 0.2531738
vt 0.1971436 0.2839355
vt 0.2132568 0.2839355
vt 0.7290039 0.7353516
vt 0.7236328 0.7290039
vt 0.7329102 0.7202148
vt 0.7460938 0.7353516
vt 0.7470703 0.7705078
vt 0.7446289 0.7099609
vt 0.7290039 0.7705078
vt 0.762207 0.7099609
vt 0.7524414 0.7026367
vt 0.7915039 0.7099609
vt 0.7915039 0.7353516
vt 0.8369141 0.7353516
vt 0.8359375 0.7705078
vt 0.8208008 0.7099609
vt 0.8383789 0.7099609
vt 0.8305664 0.7026367
vt 0.8500977 0.7202148
vt 0.8535156 0.7353516
vt 0.859375 0.7290039
vt 0.8540039 0.7705078
vt 0.7915039 0.7705078
vt 0.7915039 0.7885742
vt 0.7587891 0.7885742
vt 0.8237305 0.7885742
vt 0.7441406 0.793457
vt 0.75 0.7973633
vt 0.7304688 0.784668
vt 0.7231445 0.7797852
vt 0.8388672 0.793457
vt 0.8325195 0.7973633
vt 0.8520508 0.784668
vt 0.8598633 0.7797852
vt 0.2132568 0.2531738
vt 0.2132568 0.2839355
vt 0.1971436 0.2839355
vt 0.1971436 0.2531738
vt 0.2210693 0.2067871
vt 0.2210693 0.2531738
vt 0.1889648 0.2067871
vt 0.1889648 0.2531738
vt 0.3574219 0.6972656
vt 0.3234863 0.6484375
vt 0.3234863 0.6972656
vt 0.3605957 0.6484375
vt 0.4050293 0.6484375
vt 0.4050293 0.6972656
vt 0.4606934 0.4833984
vt 0.4606934 0.4465332
vt 0.5019531 0.4465332
vt 0.5019531 0.4833984
vt 0.4606934 0.5292969
vt 0.5019531 0.5454102
vt 0.4606934 0.5454102
vt 0.4677734 0.5581055
vt 0.4606934 0.5546875
vt 0.4951172 0.5581055
vt 0.5019531 0.5546875
vt 0.4897461 0.6044922
vt 0.4951172 0.6044922
vt 0.4726562 0.6044922
vt 0.4677734 0.6044922
vt 0.3605957 0.6484375
vt 0.3234863 0.6972656
vt 0.3234863 0.6484375
vt 0.3574219 0.6972656
vt 0.4050293 0.6484375
vt 0.4050293 0.6972656
vt 0.4765625 0.6547852
vt 0.4765625 0.6708984
vt 0.463623 0.6708984
vt 0.4655762 0.6547852
vt 0.4440918 0.6708984
vt 0.4440918 0.6547852
vt 0.4377441 0.6508789
vt 0.4377441 0.6738281
vt 0.4353027 0.652832
vt 0.4353027 0.6713867
vt 0.4160156 0.652832
vt 0.4160156 0.6713867
vt 0.1971436 0.1832275
vt 0.2172852 0.1832275
vt 0.2172852 0.1480713
vt 0.1971436 0.1486816
vt 0.1971436 0.12146
vt 0.2172852 0.1242065
vt 0.1971436 0.09472656
vt 0.2172852 0.09350586
vt 0.2172852 0.05743408
vt 0.1971436 0.05987549
vt 0.2172852 0.03598022
vt 0.1971436 0.03585815
vt 0.1971436 0.01023865
vt 0.2172852 0.01023865
vt 0.3574219 0.6972656
vt 0.3234863 0.6972656
vt 0.3234863 0.6484375
vt 0.3605957 0.6484375
vt 0.4050293 0.6484375
vt 0.4050293 0.6972656
vt 0.4606934 0.4833984
vt 0.5019531 0.4465332
vt 0.4606934 0.4465332
vt 0.5019531 0.4833984
vt 0.4606934 0.5292969
vt 0.5019531 0.5454102
vt 0.4606934 0.5454102
vt 0.4677734 0.5581055
vt 0.4606934 0.5546875
vt 0.4951172 0.5581055
vt 0.4897461 0.6044922
vt 0.4726562 0.6044922
vt 0.4677734 0.6044922
vt 0.3605957 0.6484375
vt 0.3234863 0.6484375
vt 0.3234863 0.6972656
vt 0.3574219 0.6972656
vt 0.4050293 0.6484375
vt 0.4050293 0.6972656
vt 0.4765625 0.6547852
vt 0.463623 0.6708984
vt 0.4765625 0.6708984
vt 0.4655762 0.6547852
vt 0.4440918 0.6708984
vt 0.4440918 0.6547852
vt 0.4377441 0.6508789
vt 0.4377441 0.6738281
vt 0.4353027 0.652832
vt 0.4353027 0.6713867
vt 0.4160156 0.652832
vt 0.4160156 0.6713867
vt 0.1971436 0.1832275
vt 0.2172852 0.1480713
vt 0.2172852 0.1832275
vt 0.1971436 0.1486816
vt 0.1971436 0.12146
vt 0.2172852 0.1242065
vt 0.1971436 0.09472656
vt 0.2172852 0.09350586
vt 0.2172852 0.05743408
vt 0.1971436 0.05987549
vt 0.2172852 0.03598022
vt 0.1971436 0.03585815
vt 0.1971436 0.01023865
vt 0.2172852 0.01023865
vt 0.4487305 0.6240234
vt 0.4516602 0.6376953
vt 0.4487305 0.6376953
vt 0.4516602 0.6240234
vt 0.4680176 0.6376953
vt 0.4680176 0.6240234
vt 0.4812012 0.6376953
vt 0.4853516 0.6240234
vt 0.4487305 0.6240234
vt 0.4487305 0.6376953
vt 0.4516602 0.6376953
vt 0.4516602 0.6240234
vt 0.4680176 0.6376953
vt 0.4680176 0.6240234
vt 0.4812012 0.6376953
vt 0.4853516 0.6240234
vt 0.9404297 0.9609375
vt 0.9404297 0.9882812
vt 0.9804688 0.9882812
vt 0.9804688 0.9609375
vt 0.4812012 0.6376953
vt 0.4487305 0.6376953
vt 0.4853516 0.6240234
vt 0.4487305 0.6240234
vt 0.9404297 0.9609375
vt 0.9804688 0.9609375
vt 0.9804688 0.9882812
vt 0.9404297 0.9882812
vt 0.4812012 0.6376953
vt 0.4853516 0.6240234
vt 0.4487305 0.6376953
vt 0.4487305 0.6240234
vn 0.1389153 -0.1373848 0.9807283
vn -0.02457188 -0.4716927 0.8814206
vn 0.1581368 -0.2996779 0.9408432
vn 0.0766954 -0.5487352 0.8324708
vn 0.1896703 -0.06658722 0.9795873
vn 0.2179545 -0.0898966 0.9718098
vn 0.1134425 -0.0007983468 0.9935442
vn 0.21202 0.02634691 0.9769101
vn 0.3678402 0.1502953 0.9176628
vn 0.3347194 0.2110744 0.9183738
vn 0.21202 0.02634691 0.9769101
vn 0.08615629 0.1128604 0.9898685
vn 0.1037076 0.1332742 0.9856383
vn 0.1134425 -0.0007983468 0.9935442
vn 0.3661535 0.1409054 0.9198246
vn -0.01729865 0.003703474 0.9998435
vn -0.04975544 -0.008713292 0.9987233
vn -0 0.001519465 0.9999989
vn -0 0.09305097 0.9956613
vn -0.08615622 0.1128604 0.9898685
vn -0.1037074 0.1332736 0.9856383
vn 0.01729859 0.003703475 0.9998435
vn -0.1134423 -0.0007983454 0.9935443
vn 0.04975566 -0.00871335 0.9987233
vn -0.2120197 0.0263469 0.9769102
vn -0.36784 0.1502953 0.9176628
vn -0.3347185 0.2110747 0.9183741
vn -0.3661537 0.1409051 0.9198246
vn 2.066652E-07 0.123638 0.9923274
vn 6.460052E-07 0.09051248 0.9958954
vn 0.0221854 0.09981632 0.9947584
vn -0.0222098 0.0997545 0.9947642
vn 0.3076892 0.08642607 0.9475536
vn 0.2279827 0.02742882 0.9732788
vn 0.3488237 0.09418786 0.9324433
vn 0.5252538 0.1472786 0.8381036
vn -0.3077714 0.08621102 0.9475465
vn -0.2297474 0.02252496 0.9729896
vn -0.3488249 0.09418742 0.932443
vn -0.5252531 0.1472787 0.838104
vn -0.1896704 -0.06658728 0.9795873
vn -0.2120197 0.0263469 0.9769102
vn -0.1134423 -0.0007983454 0.9935443
vn -0.1389151 -0.1373849 0.9807283
vn -0.07669539 -0.5487356 0.8324705
vn -0.2179556 -0.08989704 0.9718096
vn 0.02457184 -0.4716932 0.8814203
vn -0.1581368 -0.2996779 0.9408432
vn 0.1880105 -0.8901864 0.4149942
vn 0.1804713 -0.9830031 -0.03369007
vn 0.1794926 -0.9829375 -0.04020332
vn 0.2366803 -0.9060791 0.3507181
vn 0.0766954 -0.5487352 0.8324708
vn -0.02457188 -0.4716927 0.8814206
vn 0.2874463 -0.3415362 -0.8948339
vn 0.08321333 -0.6985115 -0.7107441
vn 0.1199302 -0.6968243 -0.707144
vn 0.3475217 -0.2785168 -0.8953531
vn 0.3326463 -0.1999341 -0.9216142
vn 0.3693142 -0.2001726 -0.9074899
vn 0.2723755 -0.08979548 -0.9579918
vn 0.3466006 -0.0544917 -0.9364287
vn 0.32149 -0.1217805 -0.9390494
vn 0.3637516 -0.0426393 -0.9305196
vn 0.9708204 0.202439 -0.1285544
vn 0.5125841 0.004827724 -0.8586234
vn 0.5221893 0.0008513573 -0.8528292
vn 0.4471863 -0.008915869 -0.8943964
vn 0.4664658 -0.08306818 -0.8806301
vn 0.1085322 -0.866611 -0.4870382
vn 0.1794926 -0.9829375 -0.04020332
vn 0.1804713 -0.9830031 -0.03369007
vn 0.1084582 -0.8663795 -0.4874663
vn 0.1199302 -0.6968243 -0.707144
vn 0.08321333 -0.6985115 -0.7107441
vn 0.3326463 -0.1999341 -0.9216142
vn 0.2723755 -0.08979548 -0.9579918
vn 0.1338091 -0.05229251 -0.9896264
vn 0.1357925 -0.05281531 -0.9893286
vn 0.1048737 -0.04819684 -0.9933169
vn 0.1052511 -0.04817359 -0.9932782
vn 0.07100421 -0.04863643 -0.9962896
vn 0.07134353 -0.04865258 -0.9962645
vn 0.01739265 -0.04576793 -0.9988006
vn 0.01733306 -0.04576616 -0.9988018
vn -0 -0.04584466 -0.9989486
vn -0 -0.04584466 -0.9989486
vn 0.4471863 -0.008915869 -0.8943964
vn 0.5125841 0.004827724 -0.8586234
vn 0.7957816 0.04126291 -0.6041765
vn 0.815643 0.04343301 -0.576923
vn 0.9468038 0.06339587 -0.3155052
vn 0.946491 0.03368026 -0.3209679
vn 0.9633002 -0.07416233 0.2579781
vn 0.9410467 -0.09669663 0.3241618
vn 0.7677395 -0.02315699 0.6403434
vn 0.818307 -0.0362585 0.5736365
vn 0.4476106 0.03196594 0.8936571
vn 0.4492345 0.03184534 0.8928461
vn 0.3076892 0.08642607 0.9475536
vn 0.3488237 0.09418786 0.9324433
vn -0.1880105 -0.8901867 0.4149937
vn -0.1794926 -0.9829374 -0.04020387
vn -0.1804713 -0.9830031 -0.03369062
vn -0.2366803 -0.9060792 0.3507178
vn -0.07669539 -0.5487356 0.8324705
vn 0.02457184 -0.4716932 0.8814203
vn -0.2874465 -0.3415365 -0.8948336
vn -0.1199303 -0.6968242 -0.707144
vn -0.08321334 -0.6985116 -0.7107441
vn -0.3475404 -0.278498 -0.8953516
vn -0.3326866 -0.1999181 -0.9216031
vn -0.3590254 -0.2038036 -0.9108045
vn -0.2724057 -0.08979803 -0.957983
vn -0.3466025 -0.05451749 -0.9364264
vn -0.321489 -0.1217789 -0.9390499
vn -0.348685 -0.04679462 -0.9360712
vn -0.51187 0.005059675 -0.8590481
vn -0.4472663 -0.008925824 -0.8943563
vn -0.4664682 -0.08306865 -0.8806286
vn -0.1085322 -0.8666108 -0.4870386
vn -0.1804713 -0.9830031 -0.03369062
vn -0.1794926 -0.9829374 -0.04020387
vn -0.1084582 -0.8663793 -0.4874666
vn -0.1199303 -0.6968242 -0.707144
vn -0.08321334 -0.6985116 -0.7107441
vn -0.3326866 -0.1999181 -0.9216031
vn -0.1338091 -0.05229254 -0.9896264
vn -0.2724057 -0.08979803 -0.957983
vn -0.1357926 -0.05281533 -0.9893286
vn -0.1048741 -0.04819686 -0.9933169
vn -0.1052514 -0.0481736 -0.9932781
vn -0.07100522 -0.04863643 -0.9962895
vn -0.07134453 -0.04865259 -0.9962644
vn -0.0173926 -0.04576791 -0.9988006
vn -0.01733301 -0.04576615 -0.9988018
vn -0 -0.04584466 -0.9989486
vn -0 -0.04584466 -0.9989486
vn -0.4472663 -0.008925824 -0.8943563
vn -0.7957642 0.04125081 -0.6042001
vn -0.51187 0.005059675 -0.8590481
vn -0.8156295 0.04342277 -0.5769427
vn -0.9468037 0.06339643 -0.3155052
vn -0.946491 0.03368053 -0.3209679
vn -0.9633002 -0.07416225 0.2579781
vn -0.9410466 -0.09669676 0.3241619
vn -0.7677392 -0.02315725 0.6403438
vn -0.8183069 -0.03625875 0.5736368
vn -0.4476106 0.03196574 0.8936571
vn -0.4492343 0.03184515 0.8928462
vn -0.3077714 0.08621102 0.9475465
vn -0.3488249 0.09418742 0.932443
vn -0.4199046 -0.4398789 -0.7938429
vn -0.5015019 -0.07218853 -0.8621396
vn -0.4199046 -0.439879 -0.793843
vn -0.4925799 -0.1372182 -0.8593813
vn -0.5213058 -0.07808337 -0.8497901
vn -0.5240377 -0.08438981 -0.8475039
vn -0.5395122 -0.1213007 -0.8331943
vn -0.5395122 -0.1213007 -0.8331943
vn 0.4199077 -0.4398821 -0.7938395
vn 0.4199077 -0.4398821 -0.7938396
vn 0.5015013 -0.07218894 -0.8621399
vn 0.49258 -0.1372191 -0.8593811
vn 0.5213048 -0.07808331 -0.8497908
vn 0.5240368 -0.08438973 -0.8475045
vn 0.5395114 -0.1213005 -0.8331949
vn 0.5395114 -0.1213004 -0.8331949
vn -0.9468784 -0.140622 -0.2892174
vn -0.9478095 -0.1518863 -0.2803347
vn -0.9573551 -0.1597858 -0.2407065
vn -0.9573551 -0.1597858 -0.2407065
vn -0.9248217 -0.1879024 -0.3307528
vn -0.9478095 -0.1518863 -0.2803347
vn -0.9220455 -0.1552756 -0.3545723
vn -0.9468784 -0.140622 -0.2892174
vn 0.9468786 -0.1406219 -0.2892173
vn 0.9573551 -0.1597857 -0.2407064
vn 0.9573551 -0.1597857 -0.2407064
vn 0.9478096 -0.1518863 -0.2803346
vn 0.9248217 -0.1879028 -0.3307527
vn 0.9220455 -0.1552759 -0.3545721
vn 0.9478096 -0.1518863 -0.2803346
vn 0.9468786 -0.1406219 -0.2892173
g bf_geo_0
f 3/3/3 2/2/2 1/1/1
f 1/1/1 2/2/2 4/4/4
f 5/5/5 1/1/1 4/4/4
f 6/6/6 5/5/5 4/4/4
f 7/7/7 1/1/1 5/5/5
f 8/8/8 7/7/7 5/5/5
f 11/11/11 10/10/10 9/9/9
f 11/11/11 9/9/9 12/12/12
f 13/13/13 12/12/12 9/9/9
f 11/11/11 12/12/12 14/14/14
f 15/15/15 13/13/13 9/9/9
f 16/16/16 14/14/14 12/12/12
f 16/16/16 17/17/17 14/14/14
f 18/18/18 16/16/16 12/12/12
f 19/19/19 18/18/18 12/12/12
f 19/19/19 12/12/12 13/13/13
f 18/18/18 19/19/19 20/20/20
f 20/20/20 19/19/19 21/21/21
f 22/22/22 18/18/18 20/20/20
f 23/23/23 22/22/22 20/20/20
f 24/24/24 22/22/22 23/23/23
f 20/20/20 25/25/25 23/23/23
f 26/26/26 25/25/25 20/20/20
f 20/20/20 21/21/21 26/26/26
f 27/27/27 25/25/25 26/26/26
f 21/21/21 28/28/28 26/26/26
f 29/29/29 19/19/19 13/13/13
f 19/19/19 29/29/29 21/21/21
f 30/30/30 29/29/29 13/13/13
f 29/29/29 30/30/30 21/21/21
f 31/31/31 30/30/30 13/13/13
f 30/30/30 32/32/32 21/21/21
f 31/31/31 13/13/13 33/33/33
f 31/31/31 33/33/33 34/34/34
f 13/13/13 15/15/15 33/33/33
f 15/15/15 35/35/35 33/33/33
f 36/36/36 35/35/35 15/15/15
f 21/21/21 32/32/32 37/37/37
f 28/28/28 21/21/21 37/37/37
f 37/37/37 32/32/32 38/38/38
f 39/39/39 28/28/28 37/37/37
f 39/39/39 40/40/40 28/28/28
f 43/43/43 42/42/42 41/41/41
f 44/44/44 43/43/43 41/41/41
f 41/41/41 45/45/45 44/44/44
f 41/41/41 46/46/46 45/45/45
f 45/45/45 47/47/47 44/44/44
f 44/44/44 47/47/47 48/48/48
f 51/51/51 50/50/50 49/49/49
f 50/50/50 52/52/52 49/49/49
f 52/52/52 53/53/53 49/49/49
f 53/53/53 54/54/54 49/49/49
f 57/57/57 56/56/56 55/55/55
f 57/57/57 55/55/55 58/58/58
f 58/58/58 55/55/55 59/59/59
f 60/60/60 58/58/58 59/59/59
f 59/59/59 61/61/61 60/60/60
f 61/61/61 62/62/62 60/60/60
f 61/61/61 63/63/63 62/62/62
f 62/62/62 64/64/64 60/60/60
f 64/64/64 65/65/65 60/60/60
f 64/64/64 62/62/62 66/66/66
f 64/64/64 66/66/66 67/67/67
f 62/62/62 68/68/68 66/66/66
f 62/62/62 69/69/69 68/68/68
f 72/72/72 71/71/71 70/70/70
f 71/71/71 73/73/73 70/70/70
f 70/70/70 73/73/73 74/74/74
f 73/73/73 75/75/75 74/74/74
f 78/78/78 77/77/77 76/76/76
f 79/79/79 78/78/78 76/76/76
f 78/78/78 79/79/79 80/80/80
f 79/79/79 81/81/81 80/80/80
f 81/81/81 82/82/82 80/80/80
f 82/82/82 83/83/83 80/80/80
f 82/82/82 84/84/84 83/83/83
f 84/84/84 85/85/85 83/83/83
f 84/84/84 86/86/86 85/85/85
f 86/86/86 87/87/87 85/85/85
f 90/90/90 89/89/89 88/88/88
f 91/91/91 90/90/90 88/88/88
f 91/91/91 92/92/92 90/90/90
f 92/92/92 93/93/93 90/90/90
f 93/93/93 92/92/92 94/94/94
f 93/93/93 94/94/94 95/95/95
f 95/95/95 94/94/94 96/96/96
f 94/94/94 97/97/97 96/96/96
f 98/98/98 96/96/96 97/97/97
f 99/99/99 98/98/98 97/97/97
f 98/98/98 99/99/99 100/100/100
f 101/101/101 98/98/98 100/100/100
f 104/104/104 103/103/103 102/102/102
f 105/105/105 104/104/104 102/102/102
f 106/106/106 105/105/105 102/102/102
f 107/107/107 106/106/106 102/102/102
f 110/110/110 109/109/109 108/108/108
f 108/108/108 109/109/109 111/111/111
f 108/108/108 111/111/111 112/112/112
f 111/111/111 113/113/113 112/112/112
f 114/114/114 112/112/112 113/113/113
f 115/115/115 114/114/114 113/113/113
f 116/116/116 114/114/114 115/115/115
f 117/117/117 115/115/115 113/113/113
f 115/115/115 117/117/117 118/118/118
f 119/119/119 115/115/115 118/118/118
f 120/120/120 115/115/115 119/119/119
f 123/123/123 122/122/122 121/121/121
f 124/124/124 123/123/123 121/121/121
f 124/124/124 121/121/121 125/125/125
f 126/126/126 124/124/124 125/125/125
f 129/129/129 128/128/128 127/127/127
f 128/128/128 130/130/130 127/127/127
f 130/130/130 128/128/128 131/131/131
f 132/132/132 130/130/130 131/131/131
f 133/133/133 132/132/132 131/131/131
f 134/134/134 133/133/133 131/131/131
f 135/135/135 133/133/133 134/134/134
f 136/136/136 135/135/135 134/134/134
f 137/137/137 135/135/135 136/136/136
f 138/138/138 137/137/137 136/136/136
f 141/141/141 140/140/140 139/139/139
f 140/140/140 142/142/142 139/139/139
f 143/143/143 142/142/142 140/140/140
f 144/144/144 143/143/143 140/140/140
f 143/143/143 144/144/144 145/145/145
f 145/145/145 144/144/144 146/146/146
f 145/145/145 146/146/146 147/147/147
f 148/148/148 145/145/145 147/147/147
f 147/147/147 149/149/149 148/148/148
f 149/149/149 150/150/150 148/148/148
f 150/150/150 149/149/149 151/151/151
f 149/149/149 152/152/152 151/151/151
f 155/155/155 154/154/154 153/153/153
f 154/154/154 156/156/156 153/153/153
f 154/154/154 157/157/157 156/156/156
f 157/157/157 158/158/158 156/156/156
f 157/157/157 159/159/159 158/158/158
f 159/159/159 160/160/160 158/158/158
f 163/163/163 162/162/162 161/161/161
f 164/164/164 163/163/163 161/161/161
f 165/165/165 163/163/163 164/164/164
f 166/166/166 165/165/165 164/164/164
f 167/167/167 165/165/165 166/166/166
f 168/168/168 167/167/167 166/166/166
f 171/171/171 170/170/170 169/169/169
f 172/172/172 171/171/171 169/169/169
f 175/175/175 174/174/174 173/173/173
f 176/176/176 174/174/174 175/175/175
f 179/179/179 178/178/178 177/177/177
f 180/180/180 179/179/179 177/177/177
f 183/183/183 182/182/182 181/181/181
f 183/183/183 184/184/184 182/182/182
