g head_geo
v -0.0771997 1.551416 -0.02940779
v -0.04668995 1.551813 -0.06788807
v -0.07729115 1.567649 -0.04681774
v 0.07729115 1.567649 -0.04681774
v 0.04668995 1.551813 -0.06788807
v 0.0771997 1.551416 -0.02940779
v -0.1255097 1.673869 0.05693705
v -0.1174597 1.722636 0.07966334
v -0.1232224 1.681309 0.08938052
v -0.1200577 1.646063 0.08612745
v -0.1140119 1.593075 0.0517835
v -0.127607 1.665057 0.02271738
v -0.1164536 1.609067 0.08637951
v -0.1113667 1.582987 0.08376017
v -0.1075689 1.567392 0.06592904
v -0.1154556 1.59381 0.03980154
v -0.1130023 1.585058 0.03750651
v -0.1053066 1.560364 0.03568127
v -0.1117034 1.578971 0.0191104
v -0.1164012 1.591138 0.01982071
v -0.09598354 1.572213 -0.01288121
v -0.09917939 1.551367 0.02782257
v -0.1275244 1.630934 -0.0228858
v -0.07451721 1.538258 0.004821896
v -0.04356892 1.523007 0.03538667
v -0.0771997 1.551416 -0.02940779
v -0.07729115 1.567649 -0.04681774
v -0.09910097 1.586902 -0.04172305
v -0.1264002 1.625279 -0.03275103
v -0.1304706 1.653042 -0.02234547
v -0.07975484 1.537042 0.05014354
v -0.06527526 1.528671 0.06784436
v -0.04353156 1.519855 0.08614627
v -0 1.512536 0.05931491
v -0.01731067 1.508451 0.1030129
v -0 1.512536 0.05931491
v -0 1.505852 0.1068088
v 0.01731067 1.508451 0.1030129
v 0.04353156 1.519855 0.08614627
v 0.04356892 1.523007 0.03538667
v -0 1.512536 0.05931491
v 0.06527526 1.528671 0.06784436
v 0.07975484 1.537042 0.05014354
v 0.09917939 1.551367 0.02782257
v 0.07451721 1.538258 0.004821896
v 0.09598354 1.572213 -0.01288121
v 0.0771997 1.551416 -0.02940779
v 0.07729115 1.567649 -0.04681774
v 0.09910097 1.586902 -0.04172305
v 0.1117034 1.578971 0.0191104
v 0.1053066 1.560364 0.03568127
v 0.1275244 1.630934 -0.0228858
v 0.1264002 1.625279 -0.03275103
v 0.1304706 1.653042 -0.02234547
v 0.1164012 1.591138 0.01982071
v 0.1154556 1.59381 0.03980154
v 0.1130023 1.585058 0.03750651
v 0.1140119 1.593075 0.0517835
v 0.1075689 1.567392 0.06592904
v 0.127607 1.665057 0.02271738
v 0.1113667 1.582987 0.08376017
v 0.1164536 1.609067 0.08637951
v 0.1200577 1.646063 0.08612745
v 0.1255097 1.673869 0.05693705
v 0.1232224 1.681309 0.08938052
v 0.1174597 1.722636 0.07966334
v -0.1189981 1.751038 0.07132778
v -0.1161117 1.780949 0.06821852
v -0.1056935 1.755032 0.1123022
v -0.09898119 1.787018 0.106326
v -0.07384194 1.794936 0.129802
v -0.07884073 1.755519 0.1391049
v -0.05904094 1.75418 0.1491123
v -0.04719171 1.799443 0.1371125
v -0.02997696 1.750911 0.1584297
v -0 1.798271 0.1426826
v -0 1.747923 0.1606301
v 0.02997696 1.750911 0.1584297
v 0.04719171 1.799443 0.1371125
v 0.05904094 1.75418 0.1491123
v 0.07384194 1.794936 0.129802
v 0.07884073 1.755519 0.1391049
v 0.1056935 1.755032 0.1123022
v 0.09898119 1.787018 0.106326
v 0.1161117 1.780949 0.06821852
v 0.1189981 1.751038 0.07132778
v -0.1299969 1.673156 -0.008456273
v -0.127607 1.665057 0.02271738
v -0.148929 1.678063 -0.003936077
v -0.1573134 1.672198 -0.0177763
v -0.1304706 1.653042 -0.02234547
v -0.1587464 1.659994 -0.02607579
v -0.1275244 1.630934 -0.0228858
v -0.1583479 1.665809 -0.0107218
v -0.1606785 1.6563 -0.01788921
v -0.1527029 1.622594 -0.01233256
v -0.1536516 1.628023 -0.0267048
v -0.1370154 1.596818 -0.002104886
v -0.1164012 1.591138 0.01982071
v -0.1272788 1.588202 0.01498675
v -0.1154556 1.59381 0.03980154
v -0.1340486 1.594589 0.01751642
v -0.1272788 1.588202 0.01498675
v -0.1154556 1.59381 0.03980154
v -0.1513695 1.671034 -0.001096768
v -0.127607 1.665057 0.02271738
v 0.1299969 1.673156 -0.008456273
v 0.148929 1.678063 -0.003936077
v 0.127607 1.665057 0.02271738
v 0.1573134 1.672198 -0.0177763
v 0.1304706 1.653042 -0.02234547
v 0.1587464 1.659994 -0.02607579
v 0.1275244 1.630934 -0.0228858
v 0.1583479 1.665809 -0.0107218
v 0.1606785 1.6563 -0.01788921
v 0.1527029 1.622594 -0.01233256
v 0.1536516 1.628023 -0.0267048
v 0.1370154 1.596818 -0.002104886
v 0.1164012 1.591138 0.01982071
v 0.1272788 1.588202 0.01498675
v 0.1154556 1.59381 0.03980154
v 0.1340486 1.594589 0.01751642
v 0.1272788 1.588202 0.01498675
v 0.1154556 1.59381 0.03980154
v 0.1513695 1.671034 -0.001096768
v 0.127607 1.665057 0.02271738
vt 0.06304932 0.3178711
vt 0.04431152 0.329834
vt 0.0736084 0.3520508
vt 0.4272461 0.3513184
vt 0.4562988 0.3288574
vt 0.4375 0.3171387
vt 0.1290283 0.407959
vt 0.1386719 0.439209
vt 0.1428223 0.418457
vt 0.145874 0.3916016
vt 0.1334229 0.3625488
vt 0.1008911 0.4042969
vt 0.1453857 0.3662109
vt 0.1530762 0.3503418
vt 0.1618652 0.3342285
vt 0.1077271 0.3596191
vt 0.1187134 0.3522949
vt 0.137207 0.3222656
vt 0.1065063 0.3449707
vt 0.09442139 0.3591309
vt 0.08996582 0.3312988
vt 0.135376 0.3137207
vt 0.08459473 0.3803711
vt 0.1190186 0.2861328
vt 0.1645508 0.2653809
vt 0.06304932 0.3178711
vt 0.0736084 0.3520508
vt 0.07958984 0.3581543
vt 0.08129883 0.3835449
vt 0.08288574 0.4042969
vt 0.15625 0.2995605
vt 0.1759033 0.2888184
vt 0.2017822 0.282959
vt 0.25 0.2529297
vt 0.2293701 0.2758789
vt 0.25 0.2529297
vt 0.2502441 0.2749023
vt 0.2709961 0.2756348
vt 0.2988281 0.282959
vt 0.3356934 0.2651367
vt 0.25 0.2529297
vt 0.324707 0.2885742
vt 0.3442383 0.2993164
vt 0.3652344 0.3132324
vt 0.3813477 0.2854004
vt 0.4106445 0.3305664
vt 0.4375 0.3171387
vt 0.4272461 0.3513184
vt 0.4211426 0.3574219
vt 0.3942871 0.3444824
vt 0.3632812 0.3217773
vt 0.4162598 0.3796387
vt 0.4196777 0.3828125
vt 0.4182129 0.4035645
vt 0.4064941 0.3583984
vt 0.3930664 0.3588867
vt 0.3820801 0.3518066
vt 0.3674316 0.3620605
vt 0.3388672 0.3337402
vt 0.4001465 0.4035645
vt 0.3476562 0.3498535
vt 0.3554688 0.3657227
vt 0.3549805 0.3911133
vt 0.3720703 0.4074707
vt 0.3581543 0.4179688
vt 0.3623047 0.4387207
vt 0.1340332 0.4707031
vt 0.130249 0.4943848
vt 0.1611328 0.4772949
vt 0.1605225 0.5
vt 0.1845703 0.5068359
vt 0.1817627 0.4780273
vt 0.2037354 0.4763184
vt 0.2160645 0.5083008
vt 0.229248 0.4731445
vt 0.2504883 0.5063477
vt 0.2504883 0.4707031
vt 0.2719727 0.4731445
vt 0.2854004 0.5083008
vt 0.2976074 0.4760742
vt 0.3168945 0.5068359
vt 0.3195801 0.4777832
vt 0.3400879 0.4768066
vt 0.3408203 0.4997559
vt 0.3710938 0.4936523
vt 0.3671875 0.4702148
vt 0.3901367 0.1901855
vt 0.3601074 0.1773682
vt 0.3884277 0.1777344
vt 0.3964844 0.1846924
vt 0.4040527 0.1988525
vt 0.4042969 0.1915283
vt 0.4260254 0.1990967
vt 0.4023438 0.1816406
vt 0.4082031 0.1867676
vt 0.4348145 0.1829834
vt 0.4294434 0.192627
vt 0.4521484 0.1800537
vt 0.4631348 0.1881104
vt 0.4631348 0.1820068
vt 0.4780273 0.1849365
vt 0.4504395 0.1688232
vt 0.4575195 0.1662598
vt 0.447998 0.1529541
vt 0.3967285 0.1765137
vt 0.3994141 0.1535645
vt 0.3901367 0.1901855
vt 0.3884277 0.1777344
vt 0.3601074 0.1773682
vt 0.3964844 0.1846924
vt 0.4040527 0.1988525
vt 0.4042969 0.1915283
vt 0.4260254 0.1990967
vt 0.4023438 0.1816406
vt 0.4082031 0.1867676
vt 0.4348145 0.1829834
vt 0.4294434 0.192627
vt 0.4521484 0.1800537
vt 0.4631348 0.1881104
vt 0.4631348 0.1820068
vt 0.4780273 0.1849365
vt 0.4504395 0.1688232
vt 0.4575195 0.1662598
vt 0.447998 0.1529541
vt 0.3967285 0.1765137
vt 0.3994141 0.1535645
vn -0.6465598 -0.5596468 -0.5184169
vn -0.6465597 -0.5596467 -0.5184169
vn -0.6465597 -0.5596467 -0.5184169
vn 0.6465597 -0.5596469 -0.5184168
vn 0.6465597 -0.5596468 -0.5184168
vn 0.6465597 -0.5596468 -0.5184168
vn -0.9920493 -0.09843466 0.07841415
vn -0.9732564 0.1123518 0.2003718
vn -0.9516667 0.01792592 0.3066091
vn -0.9488001 -0.08564385 0.3040451
vn -0.9851683 -0.1568064 0.06967866
vn -0.9842547 -0.1451837 0.1008188
vn -0.9578192 -0.08675443 0.2739637
vn -0.9292352 -0.318688 0.186976
vn -0.8934159 -0.4301404 0.1295657
vn -0.9819214 -0.1615815 0.09859888
vn -0.9552461 -0.2932551 0.03881253
vn -0.868593 -0.4942444 -0.03561744
vn -0.8905739 -0.3987359 -0.2188325
vn -0.8659507 -0.4562924 -0.2047603
vn -0.8084769 -0.5404966 -0.2328701
vn -0.6541302 -0.7298533 -0.1985645
vn -0.8694255 -0.4761447 -0.1318546
vn -0.6073911 -0.7812964 -0.1437083
vn -0.3164519 -0.9462485 -0.06687324
vn -0.81052 -0.523809 -0.2620713
vn -0.7473356 -0.574151 -0.334425
vn -0.8163754 -0.5635248 -0.1263761
vn -0.8585074 -0.5071542 -0.07589308
vn -0.9906505 -0.1310954 -0.03775458
vn -0.4600796 -0.8850364 -0.07097474
vn -0.3614519 -0.9315684 -0.03915113
vn -0.3058764 -0.9448677 -0.1168958
vn -0.2016828 -0.9775775 -0.06055062
vn -0.2765417 -0.9518766 -0.1321191
vn -0 -0.9815809 -0.1910471
vn -0 -0.9866235 -0.1630154
vn 0.2765417 -0.9518764 -0.1321205
vn 0.3058764 -0.9448676 -0.1168973
vn 0.3164518 -0.9462485 -0.0668736
vn 0.2016828 -0.9775775 -0.06055062
vn 0.3614518 -0.9315684 -0.03915104
vn 0.4600796 -0.8850364 -0.07097387
vn 0.6541303 -0.7298532 -0.1985648
vn 0.6073911 -0.7812964 -0.1437083
vn 0.8084769 -0.5404966 -0.2328698
vn 0.81052 -0.5238091 -0.2620713
vn 0.7473356 -0.5741511 -0.3344249
vn 0.8163754 -0.563525 -0.126375
vn 0.8905739 -0.398736 -0.2188329
vn 0.8685931 -0.4942443 -0.03561786
vn 0.8694255 -0.4761449 -0.1318538
vn 0.8585073 -0.5071544 -0.07589172
vn 0.9906507 -0.1310953 -0.03775459
vn 0.8659507 -0.4562925 -0.2047603
vn 0.9819213 -0.1615817 0.09859936
vn 0.955246 -0.293255 0.0388134
vn 0.9851683 -0.1568065 0.06967877
vn 0.893416 -0.4301402 0.1295654
vn 0.9842546 -0.1451838 0.1008191
vn 0.929235 -0.3186881 0.1869764
vn 0.9578194 -0.08675446 0.2739628
vn 0.9488004 -0.08564383 0.3040444
vn 0.9920493 -0.09843475 0.0784142
vn 0.9516666 0.01792577 0.3066095
vn 0.9732564 0.1123519 0.2003718
vn -0.9531186 0.09461018 0.2874264
vn -0.9282707 0.1802137 0.3253252
vn -0.8163512 0.1896579 0.5455278
vn -0.7658595 0.2609845 0.5876617
vn -0.5311885 0.2817141 0.7990469
vn -0.5820627 0.2087265 0.7858983
vn -0.3503007 0.2258797 0.9089926
vn -0.2278164 0.3328201 0.9150577
vn -0.1546946 0.2777346 0.9481208
vn -0 0.3632654 0.9316857
vn -0 0.2659023 0.9639999
vn 0.1546947 0.2777345 0.9481208
vn 0.2278156 0.3328196 0.9150581
vn 0.3503005 0.2258794 0.9089929
vn 0.531188 0.2817136 0.7990474
vn 0.5820627 0.2087263 0.7858984
vn 0.8163511 0.1896579 0.545528
vn 0.7658595 0.2609846 0.5876617
vn 0.9282706 0.1802135 0.3253258
vn 0.9531183 0.09461025 0.2874269
vn 0.3031989 0.8871412 -0.3479235
vn -0.673766 0.1305568 0.72732
vn -0.1294384 0.9815871 0.1404726
vn -0.246198 0.7362786 -0.6303019
vn 0.1711345 0.1657547 -0.9712046
vn -0.316266 0.1291597 -0.9398371
vn 0.2217645 -0.2466573 -0.9433879
vn -0.888468 0.03843502 0.4573264
vn -0.9910975 -0.1230993 0.05071803
vn -0.9369597 -0.2389492 0.25497
vn -0.2633756 -0.2603796 -0.9288895
vn 0.07225917 -0.7611706 -0.6445137
vn 0.4690956 -0.7678178 -0.4363546
vn -0.1442167 -0.9857739 -0.08632042
vn -0.7460872 -0.05260007 0.6637675
vn -0.8105692 -0.1429439 0.5679301
vn -0.1442167 -0.9857739 -0.08632042
vn -0.7460872 -0.05260007 0.6637675
vn -0.7591175 0.09632373 0.6437875
vn -0.673766 0.1305568 0.72732
vn -0.3031987 0.887141 -0.3479246
vn 0.129438 0.9815872 0.1404719
vn 0.673766 0.1305568 0.72732
vn 0.2461982 0.7362782 -0.6303023
vn -0.1711345 0.1657546 -0.9712046
vn 0.316266 0.1291597 -0.939837
vn -0.2217645 -0.2466577 -0.9433878
vn 0.8884681 0.03843516 0.4573262
vn 0.9910975 -0.1230995 0.05071967
vn 0.9369597 -0.2389491 0.2549702
vn 0.2633757 -0.2603802 -0.9288893
vn -0.07225865 -0.7611699 -0.6445146
vn -0.4690951 -0.7678174 -0.4363557
vn 0.1442169 -0.985774 -0.08631925
vn 0.7460872 -0.05260006 0.6637675
vn 0.8105691 -0.1429438 0.5679302
vn 0.1442169 -0.985774 -0.08631925
vn 0.7460872 -0.05260006 0.6637675
vn 0.7591173 0.09632347 0.6437878
vn 0.673766 0.1305568 0.72732
g head_geo_0
f 3/3/3 2/2/2 1/1/1
f 6/6/6 5/5/5 4/4/4
f 9/9/9 8/8/8 7/7/7
f 10/10/10 9/9/9 7/7/7
f 11/11/11 10/10/10 7/7/7
f 7/7/7 12/12/12 11/11/11
f 13/13/13 10/10/10 11/11/11
f 14/14/14 13/13/13 11/11/11
f 14/14/14 11/11/11 15/15/15
f 12/12/12 16/16/16 11/11/11
f 17/17/17 15/15/15 11/11/11
f 16/16/16 17/17/17 11/11/11
f 18/18/18 15/15/15 17/17/17
f 17/17/17 16/16/16 19/19/19
f 18/18/18 17/17/17 19/19/19
f 16/16/16 20/20/20 19/19/19
f 20/20/20 21/21/21 19/19/19
f 22/22/22 18/18/18 19/19/19
f 22/22/22 19/19/19 21/21/21
f 20/20/20 23/23/23 21/21/21
f 21/21/21 24/24/24 22/22/22
f 25/25/25 22/22/22 24/24/24
f 21/21/21 26/26/26 24/24/24
f 27/27/27 26/26/26 21/21/21
f 21/21/21 28/28/28 27/27/27
f 21/21/21 23/23/23 28/28/28
f 23/23/23 29/29/29 28/28/28
f 30/30/30 29/29/29 23/23/23
f 31/31/31 22/22/22 25/25/25
f 31/31/31 25/25/25 32/32/32
f 25/25/25 33/33/33 32/32/32
f 25/25/25 34/34/34 33/33/33
f 36/36/36 35/35/35 33/33/33
f 36/36/36 37/37/37 35/35/35
f 38/38/38 37/37/37 36/36/36
f 39/39/39 38/38/38 36/36/36
f 39/39/39 41/41/41 40/40/40
f 39/39/39 40/40/40 42/42/42
f 40/40/40 43/43/43 42/42/42
f 44/44/44 43/43/43 40/40/40
f 44/44/44 40/40/40 45/45/45
f 44/44/44 45/45/45 46/46/46
f 45/45/45 47/47/47 46/46/46
f 47/47/47 48/48/48 46/46/46
f 49/49/49 46/46/46 48/48/48
f 46/46/46 50/50/50 44/44/44
f 51/51/51 44/44/44 50/50/50
f 52/52/52 46/46/46 49/49/49
f 53/53/53 52/52/52 49/49/49
f 53/53/53 54/54/54 52/52/52
f 52/52/52 55/55/55 46/46/46
f 46/46/46 55/55/55 50/50/50
f 55/55/55 56/56/56 50/50/50
f 57/57/57 51/51/51 50/50/50
f 56/56/56 57/57/57 50/50/50
f 57/57/57 56/56/56 58/58/58
f 59/59/59 51/51/51 57/57/57
f 59/59/59 57/57/57 58/58/58
f 56/56/56 60/60/60 58/58/58
f 58/58/58 61/61/61 59/59/59
f 62/62/62 61/61/61 58/58/58
f 63/63/63 62/62/62 58/58/58
f 60/60/60 64/64/64 58/58/58
f 63/63/63 58/58/58 64/64/64
f 65/65/65 63/63/63 64/64/64
f 66/66/66 65/65/65 64/64/64
f 69/69/69 68/68/68 67/67/67
f 70/70/70 68/68/68 69/69/69
f 71/71/71 70/70/70 69/69/69
f 72/72/72 71/71/71 69/69/69
f 71/71/71 72/72/72 73/73/73
f 74/74/74 71/71/71 73/73/73
f 73/73/73 75/75/75 74/74/74
f 76/76/76 74/74/74 75/75/75
f 75/75/75 77/77/77 76/76/76
f 77/77/77 78/78/78 76/76/76
f 79/79/79 76/76/76 78/78/78
f 78/78/78 80/80/80 79/79/79
f 81/81/81 79/79/79 80/80/80
f 82/82/82 81/81/81 80/80/80
f 81/81/81 82/82/82 83/83/83
f 84/84/84 81/81/81 83/83/83
f 85/85/85 84/84/84 83/83/83
f 85/85/85 83/83/83 86/86/86
f 89/89/89 88/88/88 87/87/87
f 87/87/87 90/90/90 89/89/89
f 91/91/91 90/90/90 87/87/87
f 92/92/92 90/90/90 91/91/91
f 92/92/92 91/91/91 93/93/93
f 90/90/90 94/94/94 89/89/89
f 92/92/92 95/95/95 90/90/90
f 95/95/95 94/94/94 90/90/90
f 96/96/96 95/95/95 92/92/92
f 94/94/94 95/95/95 96/96/96
f 97/97/97 92/92/92 93/93/93
f 97/97/97 96/96/96 92/92/92
f 98/98/98 97/97/97 93/93/93
f 96/96/96 97/97/97 98/98/98
f 98/98/98 93/93/93 99/99/99
f 100/100/100 98/98/98 99/99/99
f 99/99/99 101/101/101 100/100/100
f 98/98/98 102/102/102 96/96/96
f 96/96/96 102/102/102 94/94/94
f 103/103/103 102/102/102 98/98/98
f 104/104/104 102/102/102 103/103/103
f 94/94/94 105/105/105 89/89/89
f 94/94/94 102/102/102 105/105/105
f 105/105/105 102/102/102 104/104/104
f 105/105/105 106/106/106 89/89/89
f 104/104/104 106/106/106 105/105/105
f 109/109/109 108/108/108 107/107/107
f 110/110/110 107/107/107 108/108/108
f 110/110/110 111/111/111 107/107/107
f 110/110/110 112/112/112 111/111/111
f 111/111/111 112/112/112 113/113/113
f 114/114/114 110/110/110 108/108/108
f 115/115/115 112/112/112 110/110/110
f 114/114/114 115/115/115 110/110/110
f 115/115/115 116/116/116 112/112/112
f 115/115/115 114/114/114 116/116/116
f 112/112/112 117/117/117 113/113/113
f 116/116/116 117/117/117 112/112/112
f 117/117/117 118/118/118 113/113/113
f 117/117/117 116/116/116 118/118/118
f 113/113/113 118/118/118 119/119/119
f 118/118/118 120/120/120 119/119/119
f 121/121/121 119/119/119 120/120/120
f 122/122/122 118/118/118 116/116/116
f 116/116/116 114/114/114 122/122/122
f 122/122/122 123/123/123 118/118/118
f 122/122/122 124/124/124 123/123/123
f 125/125/125 114/114/114 108/108/108
f 122/122/122 114/114/114 125/125/125
f 122/122/122 125/125/125 124/124/124
f 126/126/126 125/125/125 108/108/108
f 126/126/126 124/124/124 125/125/125
