g thunder_geo
v -0.023 -0.01614967 0.1861496
v -0.023 0.01614953 0.1538504
v 0.023 0.01614953 0.1538504
v 0.023 -0.01614967 0.1861496
v -0.023 0.01614964 0.1861497
v -0.023 -0.01614965 0.1538505
v 0.023 -0.01614965 0.1538505
v 0.023 0.01614964 0.1861497
vt 2.980232E-08 1
vt 1 1
vt 1 0
vt 0 2.980232E-08
vt 2.980232E-08 1
vt 1 1
vt 1 2.980232E-08
vt 2.980232E-08 2.980232E-08
vn -0 0.7071069 0.7071066
vn -0 0.7071069 0.7071066
vn -0 0.7071069 0.7071066
vn -0 0.7071069 0.7071066
vn -0 0.7071068 -0.7071068
vn -0 0.7071068 -0.7071068
vn -0 0.7071068 -0.7071068
vn -0 0.7071068 -0.7071068
g thunder_geo_0
f 3/3/3 2/2/2 1/1/1
f 4/4/4 3/3/3 1/1/1
f 7/7/7 6/6/6 5/5/5
f 8/8/8 7/7/7 5/5/5
