g bf_geo
v 0.1518037 0.5351101 0.7151157
v 0.1788762 0.4640725 0.6843884
v 0.1835895 0.4980781 0.6099247
v 0.156517 0.5691157 0.6406521
v -0.1638542 0.5530177 0.7078087
v -0.1681798 0.5842261 0.6394704
v -0.1930254 0.5190319 0.6112705
v -0.1886998 0.4878236 0.6796091
v -0.1549357 0.5303876 0.7329358
v -0.1469526 0.5643932 0.6587514
v -0.1684221 0.4933555 0.6238779
v -0.1764051 0.45935 0.6980624
v -0.06613288 0.4518096 0.8263476
v -0.04649559 0.4580453 0.829275
v -0.09377457 0.457529 0.8219671
v -0.02410965 0.4751485 0.8319061
v -0.107077 0.4742018 0.8185076
v -0.01289729 0.4940066 0.8324966
v -0.1131254 0.4928518 0.8161526
v -0.1156656 0.5115439 0.814396
v -0.01005564 0.5070927 0.8319162
v -0.01002086 0.5127642 0.8316646
v -0.111073 0.5260214 0.8141608
v -0 0.5145926 0.8311542
v -0 0.5098686 0.8313453
v 0.01002086 0.5127642 0.8316646
v -0.01615307 0.5285786 0.8298911
v 0.01005564 0.5070927 0.8319162
v -0.03223818 0.533905 0.8263603
v -0.09545293 0.5331647 0.8163353
v -0.06265856 0.5363033 0.8209734
v -0 0.5338423 0.8290722
v -0 0.5295748 0.8303463
v 0.03223818 0.533905 0.8263603
v 0.01615307 0.5285786 0.8298911
v 0.1156656 0.5115439 0.814396
v 0.01289729 0.4940066 0.8324966
v 0.1131254 0.4928518 0.8161526
v 0.107077 0.4742018 0.8185076
v 0.02410965 0.4751485 0.8319061
v 0.09377457 0.457529 0.8219671
v 0.04649559 0.4580453 0.829275
v 0.06613288 0.4518096 0.8263476
v 0.111073 0.5260214 0.8141608
v 0.09545293 0.5331647 0.8163353
v 0.06265856 0.5363033 0.8209734
v -0.1156656 0.5115439 0.814396
v -0.111073 0.5260214 0.8141608
v -0.1199908 0.5260214 0.8141608
v -0.1199908 0.5115439 0.814396
v -0.148363 0.5228349 0.7370027
v -0.1471639 0.5164257 0.7412352
v -0.1494681 0.5193918 0.7280452
v -0.1485264 0.5149559 0.731701
v -0.1500784 0.5131827 0.7240705
v 0.1156656 0.5115439 0.814396
v 0.1199908 0.5260214 0.8141608
v 0.111073 0.5260214 0.8141608
v 0.1199908 0.5115439 0.814396
v 0.148363 0.5228349 0.7370027
v 0.1471639 0.5164257 0.7412352
v 0.1494681 0.5193918 0.7280452
v 0.1485264 0.5149559 0.731701
v 0.1500784 0.5131827 0.7240705
v -0.1826342 0.4810992 -0.2949745
v -0.1648789 0.5443375 -0.3462481
v -0.1747375 0.4811232 -0.3509116
v -0.1711559 0.5414953 -0.2915226
v -0.128355 0.5705513 -0.3378662
v -0.1419015 0.5698197 -0.2848283
v 0.1826342 0.4810992 -0.2949745
v 0.1747375 0.4811232 -0.3509116
v 0.200376 0.5221946 -0.3559679
v 0.2044104 0.5219963 -0.3014371
v 0.1951193 0.5579846 -0.3547561
v 0.2002907 0.5574145 -0.3002486
v 0.1740613 0.5691661 -0.2929387
v 0.166978 0.5703843 -0.3490511
v 0.128355 0.5705513 -0.3378662
v 0.1419015 0.5698197 -0.2848283
v 0.0001636253 0.2807266 0.5522822
v 0.0001636253 0.2807266 0.5013816
v 0.0001636253 0.4182228 0.5013816
v 0.0001636253 0.4182228 0.5522822
v -0.03930579 0.2807266 0.5270295
v -0.03930579 0.4182228 0.5270295
v 0.03930579 0.4182228 0.5270295
v 0.03930579 0.2807266 0.5270295
v -0.06025291 0.674069 0.5562574
v -1.284941E-17 0.673604 0.5890952
v -1.072836E-17 0.70653 0.5548772
v -0.06023438 0.6509964 0.5823632
v -0.09632991 0.6036395 0.5735392
v -1.729101E-17 0.6406782 0.6233133
v -0.06021584 0.6279238 0.6130532
v -0.09582128 0.6155958 0.5502667
v -0.09683856 0.5916832 0.5968117
v -0.1044165 0.5522293 0.5357939
v -0.1067692 0.5275591 0.5789827
v -0.1055928 0.5398942 0.5573883
v -0.08467582 0.4874545 0.5213063
v -0.08509365 0.4782544 0.5430281
v -0.08551149 0.4678124 0.5647498
v -0.04109704 0.4459279 0.5119312
v -0.0407738 0.4361812 0.5346719
v -0.04045055 0.4264344 0.5574126
v -5.57259E-18 0.4345322 0.5113435
v -2.24923E-17 0.419922 0.5570343
v -1.425917E-17 0.4272271 0.5341889
v 0.06025291 0.674069 0.5562574
v -1.072836E-17 0.70653 0.5548772
v -1.284941E-17 0.673604 0.5890952
v 0.06023438 0.6509964 0.5823632
v 0.09632991 0.6036395 0.5735392
v -1.729101E-17 0.6406782 0.6233133
v 0.06021584 0.6279238 0.6130532
v 0.09582128 0.6155958 0.5502667
v 0.09683856 0.5916832 0.5968117
v 0.1044165 0.5522293 0.5357939
v 0.1067692 0.5275591 0.5789827
v 0.1055928 0.5398942 0.5573883
v 0.08467582 0.4874545 0.5213063
v 0.08509365 0.4782544 0.5430281
v 0.08551149 0.4678124 0.5647498
v 0.04109704 0.4459279 0.5119312
v 0.0407738 0.4361812 0.5346719
v 0.04045055 0.4264344 0.5574126
v -5.57259E-18 0.4345322 0.5113435
v -2.24923E-17 0.419922 0.5570343
v -1.425917E-17 0.4272271 0.5341889
v -0.1561675 0.6430212 0.6103319
v -0.1298823 0.6074668 0.6405174
v -0.1133204 0.6263772 0.6512349
v -0.1082094 0.5860454 0.6658785
v -0.08609705 0.5767051 0.6925029
v -0.09289544 0.6113365 0.6862177
v -0.107292 0.6447749 0.6705207
v -0.1382112 0.6642347 0.6229014
v -0.1733366 0.6823505 0.591579
v -0.1307882 0.6849353 0.6440395
v -0.1799105 0.7193904 0.585714
v -0.156289 0.7105046 0.6142209
v 0.1561675 0.6430212 0.6103319
v 0.1133204 0.6263772 0.6512349
v 0.1298823 0.6074668 0.6405174
v 0.1082094 0.5860454 0.6658785
v 0.08609705 0.5767051 0.6925029
v 0.09289544 0.6113365 0.6862177
v 0.107292 0.6447749 0.6705207
v 0.1382112 0.6642347 0.6229014
v 0.1733366 0.6823505 0.591579
v 0.1307882 0.6849353 0.6440395
v 0.1799105 0.7193904 0.585714
v 0.156289 0.7105046 0.6142209
vt 0.1544189 0.3081055
vt 0.2106934 0.3081055
vt 0.2106934 0.364502
vt 0.1544189 0.364502
vt 0.1544189 0.3081055
vt 0.1544189 0.364502
vt 0.2106934 0.364502
vt 0.2106934 0.3081055
vt 0.4560547 0.2819824
vt 0.4560547 0.3381348
vt 0.512207 0.3381348
vt 0.512207 0.2819824
vt 0.5239258 0.1099243
vt 0.5366211 0.1134033
vt 0.5063477 0.1142578
vt 0.5512695 0.1237183
vt 0.4978027 0.1252441
vt 0.559082 0.135498
vt 0.4943848 0.1373291
vt 0.4929199 0.149292
vt 0.5610352 0.1437988
vt 0.5610352 0.1474609
vt 0.4960938 0.1584473
vt 0.5668945 0.1481934
vt 0.5668945 0.1451416
vt 0.5732422 0.1474609
vt 0.5576172 0.1575928
vt 0.5732422 0.1437988
vt 0.546875 0.161499
vt 0.5063477 0.1625977
vt 0.5273438 0.1638184
vt 0.5668945 0.1605225
vt 0.5668945 0.1578369
vt 0.5869141 0.161499
vt 0.5766602 0.1575928
vt 0.6411133 0.149292
vt 0.5751953 0.135498
vt 0.6396484 0.1373291
vt 0.6362305 0.1252441
vt 0.5825195 0.1237183
vt 0.6279297 0.1142578
vt 0.5976562 0.1134033
vt 0.6103516 0.1099243
vt 0.6381836 0.1584473
vt 0.6279297 0.1625977
vt 0.6064453 0.1638184
vt 0.527832 0.1739502
vt 0.5249023 0.18396
vt 0.53125 0.1842041
vt 0.5307617 0.1738281
vt 0.6259766 0.1813965
vt 0.6225586 0.1767578
vt 0.6313477 0.1787109
vt 0.6289062 0.1750488
vt 0.6347656 0.1716309
vt 0.527832 0.1739502
vt 0.53125 0.1842041
vt 0.5249023 0.18396
vt 0.5307617 0.1738281
vt 0.6259766 0.1813965
vt 0.6225586 0.1767578
vt 0.6313477 0.1787109
vt 0.6289062 0.1750488
vt 0.6347656 0.1716309
vt 0.2270508 0.4645996
vt 0.1939697 0.5102539
vt 0.1939697 0.4645996
vt 0.2270508 0.5102539
vt 0.1939697 0.5527344
vt 0.2270508 0.5527344
vt 0.2270508 0.4645996
vt 0.1939697 0.4645996
vt 0.1939697 0.4970703
vt 0.2270508 0.4970703
vt 0.1939697 0.515625
vt 0.2270508 0.515625
vt 0.2270508 0.5317383
vt 0.1939697 0.5317383
vt 0.1939697 0.5527344
vt 0.2270508 0.5527344
vt 0.4750977 0.5527344
vt 0.5332031 0.5527344
vt 0.5332031 0.7021484
vt 0.4750977 0.7021484
vt 0.4750977 0.5527344
vt 0.4750977 0.7021484
vt 0.5332031 0.7021484
vt 0.5332031 0.5527344
vt 0.921875 0.1870117
vt 0.987793 0.2241211
vt 0.987793 0.1733398
vt 0.921875 0.2241211
vt 0.8671875 0.2241211
vt 0.987793 0.2749023
vt 0.921875 0.2612305
vt 0.8671875 0.1962891
vt 0.8671875 0.2519531
vt 0.8027344 0.2009277
vt 0.8027344 0.2474365
vt 0.8027344 0.2241211
vt 0.7382812 0.2009277
vt 0.7382812 0.2241211
vt 0.7382812 0.2474365
vt 0.6801758 0.2009277
vt 0.6801758 0.2241211
vt 0.6801758 0.2474365
vt 0.640625 0.2009277
vt 0.640625 0.2474365
vt 0.640625 0.2241211
vt 0.921875 0.1870117
vt 0.987793 0.1733398
vt 0.987793 0.2241211
vt 0.921875 0.2241211
vt 0.8671875 0.2241211
vt 0.987793 0.2749023
vt 0.921875 0.2612305
vt 0.8671875 0.1962891
vt 0.8671875 0.2519531
vt 0.8027344 0.2009277
vt 0.8027344 0.2474365
vt 0.8027344 0.2241211
vt 0.7382812 0.2009277
vt 0.7382812 0.2241211
vt 0.7382812 0.2474365
vt 0.6801758 0.2009277
vt 0.6801758 0.2241211
vt 0.6801758 0.2474365
vt 0.640625 0.2009277
vt 0.640625 0.2474365
vt 0.640625 0.2241211
vt 0.2626953 0.2109375
vt 0.2897949 0.1960449
vt 0.2827148 0.1820068
vt 0.307373 0.1817627
vt 0.3188477 0.1646729
vt 0.2983398 0.1629639
vt 0.276123 0.1678467
vt 0.2553711 0.1951904
vt 0.2365723 0.217041
vt 0.2476807 0.1795654
vt 0.2149658 0.2145996
vt 0.2265625 0.196167
vt 0.2626953 0.2109375
vt 0.2827148 0.1820068
vt 0.2897949 0.1960449
vt 0.307373 0.1817627
vt 0.3188477 0.1646729
vt 0.2983398 0.1629639
vt 0.276123 0.1678467
vt 0.2553711 0.1951904
vt 0.2365723 0.217041
vt 0.2476807 0.1795654
vt 0.2149658 0.2145996
vt 0.2265625 0.196167
vn -0.9421707 -0.2782944 -0.1867262
vn -0.9421707 -0.2782944 -0.1867262
vn -0.9421707 -0.2782944 -0.1867262
vn -0.9421707 -0.2782944 -0.1867262
vn 0.9421707 -0.2782946 -0.1867259
vn 0.9421707 -0.2782946 -0.1867259
vn 0.9421707 -0.2782946 -0.1867259
vn 0.9421707 -0.2782945 -0.1867259
vn 0.9601898 -0.2782944 -0.02424128
vn 0.9601898 -0.2782944 -0.02424128
vn 0.9601898 -0.2782944 -0.02424128
vn 0.9601898 -0.2782944 -0.02424128
vn 0.1529207 -0.01771079 -0.9880797
vn 0.1573228 -0.06576619 -0.985355
vn 0.157335 -0.06590553 -0.9853436
vn 0.1601182 -0.06812383 -0.9847443
vn 0.1598867 -0.06798579 -0.9847915
vn 0.1607046 -0.07185034 -0.9843838
vn 0.160699 -0.07152613 -0.9844083
vn 0.1553577 -0.06409804 -0.9857766
vn 0.156158 -0.06848522 -0.985355
vn 0.1551005 -0.05409985 -0.9864162
vn 0.1570688 -0.05823461 -0.9858692
vn -0 -0.04241026 -0.9991003
vn -0 -0.04241026 -0.9991003
vn -0.1551001 -0.05409982 -0.9864163
vn 0.154227 -0.08925883 -0.9839954
vn -0.1561579 -0.06848522 -0.985355
vn 0.1593403 -0.1088609 -0.9812034
vn 0.1619496 -0.1012723 -0.9815887
vn 0.1558031 -0.1976816 -0.9678054
vn -0 -0.3542758 -0.935141
vn -0 -0.3542759 -0.935141
vn -0.159341 -0.1088609 -0.9812033
vn -0.1542264 -0.08925878 -0.9839955
vn -0.1553572 -0.06409804 -0.9857766
vn -0.1607045 -0.07185034 -0.9843838
vn -0.160699 -0.07152613 -0.9844084
vn -0.1598869 -0.06798573 -0.9847915
vn -0.1601183 -0.06812379 -0.9847443
vn -0.1573349 -0.06590544 -0.9853436
vn -0.1573227 -0.0657661 -0.985355
vn -0.1529207 -0.01771079 -0.9880797
vn -0.1570681 -0.05823459 -0.9858693
vn -0.1619504 -0.1012722 -0.9815885
vn -0.1558037 -0.1976817 -0.9678053
vn 0.1553577 -0.06409804 -0.9857766
vn 0.1570688 -0.05823461 -0.9858692
vn 0.8963493 -0.02124989 -0.4428391
vn 0.8947399 -0.02127732 -0.4460804
vn 0.9455511 -0.008511817 -0.3253623
vn 0.9402096 -0.01670021 -0.3401867
vn 0.9833236 0.07083956 -0.1675004
vn 0.9839499 0.07596226 -0.1614696
vn 0.9775811 0.03665328 -0.2073444
vn -0.1553572 -0.06409804 -0.9857766
vn -0.896349 -0.02125004 -0.4428395
vn -0.1570681 -0.05823459 -0.9858693
vn -0.8947397 -0.02127747 -0.4460808
vn -0.9455509 -0.008511714 -0.3253629
vn -0.9402094 -0.01670029 -0.3401872
vn -0.9833233 0.07084113 -0.1675014
vn -0.9839496 0.07596403 -0.1614707
vn -0.9775809 0.03665345 -0.2073454
vn 0.9768839 -0.1765392 0.1205473
vn 0.8909914 -0.4392205 0.1149767
vn 0.9768839 -0.1765392 0.1205473
vn 0.8862427 -0.4488266 0.1145799
vn 0.6235781 -0.776684 0.08895123
vn 0.6235781 -0.776684 0.08895122
vn -0.8560724 0.5083316 0.09348322
vn -0.8560724 0.5083316 0.09348322
vn -0.9654779 0.2430233 0.09376586
vn -0.9618908 0.2567924 0.09393568
vn -0.8315712 -0.5513093 0.06743519
vn -0.8045033 -0.5903826 0.06498281
vn -0.1784087 -0.98395 0.00357591
vn -0.2075379 -0.9782024 0.006931394
vn -0.01565368 -0.9997664 -0.01490084
vn -0.01565368 -0.9997664 -0.01490084
vn -1 0 0
vn -1 0 0
vn -1 0 0
vn -1 0 0
vn -0 0 1
vn -0 0 1
vn -0 0 1
vn -0 0 1
vn 0.4837901 -0.6574509 -0.5776725
vn -0 -0.744042 -0.6681328
vn -0 -0.732838 -0.6804032
vn 0.5304086 -0.6562694 -0.536635
vn 0.9127027 -0.3527888 -0.2061886
vn -0 -0.7571151 -0.6532815
vn 0.5109944 -0.6770083 -0.5296644
vn 0.9020801 -0.3650061 -0.2302655
vn 0.9155051 -0.351197 -0.1962427
vn 0.9983395 0.03053057 0.04884754
vn 0.9907266 0.1021763 0.08955918
vn 0.9954556 0.06618153 0.06847019
vn 0.8631793 0.4521509 0.2246797
vn 0.8468292 0.4751149 0.2390527
vn 0.8223404 0.5076497 0.2569984
vn 0.5358379 0.7830991 0.3156478
vn 0.5076879 0.7973788 0.3262515
vn 0.4769916 0.8124328 0.3353086
vn -0 0.9371698 0.3488737
vn -3.625031E-07 0.9370423 0.3492158
vn -1.951452E-07 0.937104 0.3490501
vn -0.4837902 -0.6574507 -0.5776725
vn -0 -0.732838 -0.6804032
vn -0 -0.744042 -0.6681328
vn -0.5304087 -0.6562694 -0.536635
vn -0.9127027 -0.3527886 -0.2061887
vn -0 -0.7571151 -0.6532815
vn -0.5109944 -0.6770084 -0.5296643
vn -0.9020801 -0.3650058 -0.2302655
vn -0.9155052 -0.3511968 -0.1962427
vn -0.9983395 0.03053032 0.04884759
vn -0.9907265 0.1021764 0.08955932
vn -0.9954556 0.06618141 0.06847023
vn -0.8631793 0.4521509 0.22468
vn -0.8468291 0.4751148 0.2390528
vn -0.8223404 0.5076497 0.2569983
vn -0.5358379 0.7830991 0.3156479
vn -0.507688 0.7973787 0.3262514
vn -0.476992 0.8124328 0.3353084
vn -0 0.9371698 0.3488737
vn -3.625031E-07 0.9370423 0.3492158
vn -1.951452E-07 0.937104 0.3490501
vn 0.651329 -0.120244 -0.7492076
vn 0.6595176 -0.1436542 -0.7378346
vn 0.7860606 0.02086991 -0.617797
vn 0.7220793 -0.1534225 -0.6745836
vn 0.8167031 -0.0311236 -0.5762182
vn 0.8776833 0.1035592 -0.4679181
vn 0.8626282 0.1917822 -0.4680728
vn 0.7686126 0.04763363 -0.6379387
vn 0.6603182 -0.01778027 -0.7507753
vn 0.8488423 0.2059495 -0.4868792
vn 0.7319827 0.09889995 -0.674107
vn 0.7936876 0.2024755 -0.5736408
vn -0.6513288 -0.1202438 -0.7492077
vn -0.7860602 0.02087011 -0.6177976
vn -0.6595172 -0.1436541 -0.737835
vn -0.7220803 -0.1534223 -0.6745825
vn -0.8167036 -0.03112348 -0.5762175
vn -0.8776833 0.1035592 -0.4679181
vn -0.8626276 0.1917824 -0.4680739
vn -0.7686122 0.04763389 -0.6379392
vn -0.6603187 -0.0177802 -0.750775
vn -0.8488418 0.2059499 -0.4868802
vn -0.7319825 0.09889997 -0.674107
vn -0.793687 0.2024756 -0.5736414
g bf_geo_0
f 3/3/3 2/2/2 1/1/1
f 4/4/4 3/3/3 1/1/1
f 7/7/7 6/6/6 5/5/5
f 8/8/8 7/7/7 5/5/5
f 11/11/11 10/10/10 9/9/9
f 12/12/12 11/11/11 9/9/9
f 15/15/15 14/14/14 13/13/13
f 16/16/16 14/14/14 15/15/15
f 17/17/17 16/16/16 15/15/15
f 18/18/18 16/16/16 17/17/17
f 19/19/19 18/18/18 17/17/17
f 19/19/19 20/20/20 18/18/18
f 20/20/20 21/21/21 18/18/18
f 22/22/22 21/21/21 20/20/20
f 20/20/20 23/23/23 22/22/22
f 21/21/21 22/22/22 24/24/24
f 25/25/25 21/21/21 24/24/24
f 25/25/25 24/24/24 26/26/26
f 23/23/23 27/27/27 22/22/22
f 28/28/28 25/25/25 26/26/26
f 29/29/29 27/27/27 23/23/23
f 30/30/30 29/29/29 23/23/23
f 31/31/31 29/29/29 30/30/30
f 27/27/27 29/29/29 32/32/32
f 33/33/33 27/27/27 32/32/32
f 33/33/33 32/32/32 34/34/34
f 35/35/35 33/33/33 34/34/34
f 28/28/28 26/26/26 36/36/36
f 28/28/28 36/36/36 37/37/37
f 36/36/36 38/38/38 37/37/37
f 37/37/37 38/38/38 39/39/39
f 40/40/40 37/37/37 39/39/39
f 40/40/40 39/39/39 41/41/41
f 42/42/42 40/40/40 41/41/41
f 42/42/42 41/41/41 43/43/43
f 44/44/44 36/36/36 26/26/26
f 35/35/35 44/44/44 26/26/26
f 35/35/35 34/34/34 44/44/44
f 34/34/34 45/45/45 44/44/44
f 34/34/34 46/46/46 45/45/45
f 49/49/49 48/48/48 47/47/47
f 50/50/50 49/49/49 47/47/47
f 51/51/51 49/49/49 50/50/50
f 52/52/52 51/51/51 50/50/50
f 53/53/53 51/51/51 52/52/52
f 54/54/54 53/53/53 52/52/52
f 55/55/55 53/53/53 54/54/54
f 58/58/58 57/57/57 56/56/56
f 57/57/57 59/59/59 56/56/56
f 57/57/57 60/60/60 59/59/59
f 60/60/60 61/61/61 59/59/59
f 60/60/60 62/62/62 61/61/61
f 62/62/62 63/63/63 61/61/61
f 62/62/62 64/64/64 63/63/63
f 67/67/67 66/66/66 65/65/65
f 66/66/66 68/68/68 65/65/65
f 66/66/66 69/69/69 68/68/68
f 69/69/69 70/70/70 68/68/68
f 73/73/73 72/72/72 71/71/71
f 74/74/74 73/73/73 71/71/71
f 75/75/75 73/73/73 74/74/74
f 76/76/76 75/75/75 74/74/74
f 75/75/75 76/76/76 77/77/77
f 78/78/78 75/75/75 77/77/77
f 79/79/79 78/78/78 77/77/77
f 80/80/80 79/79/79 77/77/77
f 83/83/83 82/82/82 81/81/81
f 84/84/84 83/83/83 81/81/81
f 87/87/87 86/86/86 85/85/85
f 88/88/88 87/87/87 85/85/85
f 91/91/91 90/90/90 89/89/89
f 90/90/90 92/92/92 89/89/89
f 89/89/89 92/92/92 93/93/93
f 90/90/90 94/94/94 92/92/92
f 94/94/94 95/95/95 92/92/92
f 92/92/92 95/95/95 93/93/93
f 96/96/96 89/89/89 93/93/93
f 95/95/95 97/97/97 93/93/93
f 98/98/98 96/96/96 93/93/93
f 97/97/97 99/99/99 93/93/93
f 100/100/100 98/98/98 93/93/93
f 99/99/99 100/100/100 93/93/93
f 101/101/101 98/98/98 100/100/100
f 102/102/102 100/100/100 99/99/99
f 102/102/102 101/101/101 100/100/100
f 103/103/103 102/102/102 99/99/99
f 104/104/104 101/101/101 102/102/102
f 105/105/105 102/102/102 103/103/103
f 105/105/105 104/104/104 102/102/102
f 106/106/106 105/105/105 103/103/103
f 107/107/107 104/104/104 105/105/105
f 105/105/105 106/106/106 108/108/108
f 109/109/109 107/107/107 105/105/105
f 109/109/109 105/105/105 108/108/108
f 112/112/112 111/111/111 110/110/110
f 113/113/113 112/112/112 110/110/110
f 113/113/113 110/110/110 114/114/114
f 115/115/115 112/112/112 113/113/113
f 116/116/116 115/115/115 113/113/113
f 116/116/116 113/113/113 114/114/114
f 110/110/110 117/117/117 114/114/114
f 118/118/118 116/116/116 114/114/114
f 117/117/117 119/119/119 114/114/114
f 120/120/120 118/118/118 114/114/114
f 119/119/119 121/121/121 114/114/114
f 121/121/121 120/120/120 114/114/114
f 119/119/119 122/122/122 121/121/121
f 121/121/121 123/123/123 120/120/120
f 122/122/122 123/123/123 121/121/121
f 123/123/123 124/124/124 120/120/120
f 122/122/122 125/125/125 123/123/123
f 123/123/123 126/126/126 124/124/124
f 125/125/125 126/126/126 123/123/123
f 126/126/126 127/127/127 124/124/124
f 125/125/125 128/128/128 126/126/126
f 127/127/127 126/126/126 129/129/129
f 128/128/128 130/130/130 126/126/126
f 126/126/126 130/130/130 129/129/129
f 133/133/133 132/132/132 131/131/131
f 133/133/133 134/134/134 132/132/132
f 133/133/133 135/135/135 134/134/134
f 136/136/136 135/135/135 133/133/133
f 137/137/137 136/136/136 133/133/133
f 138/138/138 133/133/133 131/131/131
f 137/137/137 133/133/133 138/138/138
f 138/138/138 131/131/131 139/139/139
f 140/140/140 137/137/137 138/138/138
f 138/138/138 139/139/139 141/141/141
f 140/140/140 138/138/138 142/142/142
f 138/138/138 141/141/141 142/142/142
f 145/145/145 144/144/144 143/143/143
f 146/146/146 144/144/144 145/145/145
f 147/147/147 144/144/144 146/146/146
f 147/147/147 148/148/148 144/144/144
f 148/148/148 149/149/149 144/144/144
f 144/144/144 150/150/150 143/143/143
f 144/144/144 149/149/149 150/150/150
f 143/143/143 150/150/150 151/151/151
f 149/149/149 152/152/152 150/150/150
f 151/151/151 150/150/150 153/153/153
f 150/150/150 152/152/152 154/154/154
f 153/153/153 150/150/150 154/154/154
