g facial_eye_geo
v 0.08064058 0.3347303 0.78022
v 0.04438104 0.3760139 0.8060744
v 0.05806002 0.3953647 0.7666857
v 0.04469595 0.4128709 0.8210853
v 2.261124E-31 0.3923675 0.8181013
v 0.0858109 0.3547849 0.7483736
v 2.254889E-31 0.4186449 0.8091577
v 0.09247335 0.4027206 0.7447786
v 0.1011482 0.3689112 0.7155945
v 0.0268616 0.4511265 0.8189586
v 2.269565E-31 0.450859 0.813284
v 2.286818E-31 0.4831612 0.8191354
v 0.1319249 0.3932145 0.704294
v 0.1223382 0.3799249 0.6751074
v 0.1572161 0.4249324 0.6603277
v 0.02831172 0.4834665 0.8216553
v 2.284136E-31 0.5492343 0.8054334
v 0.06273863 0.5438814 0.7858929
v 0.07530604 0.4878077 0.8086407
v 0.1005461 0.5387028 0.7515156
v 0.0730619 0.4583704 0.8209856
v 0.1153436 0.5042642 0.7629512
v 0.1277692 0.5313549 0.7395968
v 0.05151067 0.438062 0.8219532
v 0.1092827 0.4707176 0.800932
v 0.1319035 0.5116584 0.7288936
v 0.1380867 0.5154367 0.6657408
v 0.1286246 0.4898176 0.7652684
v 0.1522208 0.4868583 0.7137939
v 0.131186 0.4618765 0.7494791
v 0.155262 0.4843538 0.6687443
v 0.1570801 0.4540948 0.6991705
v 0.1487487 0.4193857 0.7001507
v 0.1223225 0.4338284 0.7403402
v 0.1060687 0.4436766 0.7696297
v 0.0781427 0.4310368 0.7852286
v 0.08642239 0.4202033 0.7496895
v 0.1118533 0.4403322 0.7469502
v 0.114768 0.4560773 0.7603701
v 0.06559991 0.4142029 0.76265
v 0.08435482 0.4321185 0.7623914
v 0.08069044 0.4412528 0.7700612
v 0.05518207 0.4170745 0.7754902
v 0.05898101 0.427432 0.7763104
v 0.04961147 0.4116888 0.78347
v 0.05412433 0.4213957 0.8042747
v 0.06324229 0.4270896 0.7947099
vt 0.2423096 0.3129883
vt 0.2155762 0.3483887
vt 0.2456055 0.3557129
vt 0.2120361 0.3762207
vt 0.1820068 0.361084
vt 0.265625 0.3273926
vt 0.1820068 0.3803711
vt 0.276123 0.3552246
vt 0.2932129 0.3364258
vt 0.1998291 0.4035645
vt 0.1820068 0.4030762
vt 0.1820068 0.4262695
vt 0.3120117 0.3579102
vt 0.3271484 0.3415527
vt 0.3483887 0.378418
vt 0.2004395 0.4267578
vt 0.1818848 0.4729004
vt 0.2340088 0.4716797
vt 0.2321777 0.4311523
vt 0.2705078 0.4697266
vt 0.2279053 0.4101562
vt 0.2739258 0.4433594
vt 0.2924805 0.4602051
vt 0.2161865 0.3945312
vt 0.2612305 0.4191895
vt 0.3007812 0.4460449
vt 0.3459473 0.4470215
vt 0.277832 0.4299316
vt 0.3144531 0.4248047
vt 0.2866211 0.4086914
vt 0.3452148 0.4221191
vt 0.3239746 0.4020996
vt 0.3205566 0.3779297
vt 0.2905273 0.3857422
vt 0.2609863 0.4001465
vt 0.2437744 0.3894043
vt 0.2683105 0.3708496
vt 0.2797852 0.3894043
vt 0.2756348 0.4008789
vt 0.2524414 0.3669434
vt 0.262207 0.3796387
vt 0.2570801 0.3850098
vt 0.2424316 0.3703613
vt 0.2441406 0.376709
vt 0.2359619 0.3691406
vt 0.2255859 0.3806152
vt 0.2344971 0.3842773
vn 0.8082995 0.3978846 0.4339814
vn 0.8182293 0.1401172 0.5575554
vn 0.8061907 0.2307423 0.544807
vn 0.2683388 -0.1784735 0.9466475
vn -0.05249276 -0.03083349 0.9981452
vn 0.819601 0.2679567 0.5064123
vn -0.2374989 0.02852941 0.9709688
vn 0.6051205 -0.2279439 0.7628044
vn 0.763383 -0.3977829 0.5089352
vn -0.107735 -0.014865 0.9940685
vn -0.204463 -0.1043947 0.9732916
vn 0.1184878 0.2185853 0.9685976
vn 0.7291158 -0.5638435 0.3879054
vn 0.7453873 -0.664141 0.05757318
vn 0.9590651 -0.2773864 0.05701699
vn 0.1357044 0.2403924 0.961143
vn 0.1912665 0.3118886 0.9306678
vn 0.3720987 0.373616 0.8496786
vn 0.3316888 0.3827755 0.8622444
vn 0.6420591 0.3835905 0.6637909
vn 0.385001 -0.2242091 0.8952678
vn 0.598903 0.4790148 0.6417633
vn 0.7925254 0.2390128 0.5610494
vn 0.2907928 -0.2433777 0.9253145
vn 0.7154502 -0.2198063 0.6631864
vn 0.865777 0.3851821 0.3194765
vn 0.8677636 0.4914619 0.07383469
vn 0.8716967 -0.02101274 0.4895951
vn 0.9352234 0.1754427 0.3075337
vn 0.8425486 -0.253237 0.4753765
vn 0.9649908 0.2615367 0.01977898
vn 0.9602316 -0.08144742 0.2670613
vn 0.8600037 -0.3529528 0.3685347
vn 0.5802289 -0.4057702 0.7061762
vn 0.6978217 -0.593938 0.4003532
vn 0.543831 -0.7238958 0.4245265
vn 0.467189 -0.2404872 0.8508234
vn 0.4298598 -0.4192638 0.7996489
vn 0.4348091 -0.7634497 0.4775831
vn 0.6127193 -0.1934343 0.7662625
vn 0.5066999 -0.5320468 0.6783668
vn 0.4178923 -0.9029803 0.09996369
vn 0.8262866 -0.3322034 0.4548532
vn 0.6966349 -0.6613182 0.2781328
vn 0.9712676 -0.05614242 0.231273
vn 0.8278098 -0.4979795 0.2583549
vn 0.5069801 -0.8178124 0.2723127
g facial_eye_geo_0
f 3/3/3 2/2/2 1/1/1
f 4/4/4 2/2/2 3/3/3
f 2/2/2 4/4/4 5/5/5
f 6/6/6 3/3/3 1/1/1
f 7/7/7 5/5/5 4/4/4
f 8/8/8 3/3/3 6/6/6
f 9/9/9 8/8/8 6/6/6
f 7/7/7 4/4/4 10/10/10
f 11/11/11 7/7/7 10/10/10
f 11/11/11 10/10/10 12/12/12
f 13/13/13 8/8/8 9/9/9
f 13/13/13 9/9/9 14/14/14
f 13/13/13 14/14/14 15/15/15
f 10/10/10 16/16/16 12/12/12
f 12/12/12 16/16/16 17/17/17
f 16/16/16 18/18/18 17/17/17
f 16/16/16 19/19/19 18/18/18
f 20/20/20 18/18/18 19/19/19
f 10/10/10 21/21/21 16/16/16
f 21/21/21 19/19/19 16/16/16
f 19/19/19 22/22/22 20/20/20
f 23/23/23 20/20/20 22/22/22
f 21/21/21 10/10/10 24/24/24
f 4/4/4 24/24/24 10/10/10
f 25/25/25 19/19/19 21/21/21
f 25/25/25 22/22/22 19/19/19
f 26/26/26 23/23/23 22/22/22
f 26/26/26 27/27/27 23/23/23
f 28/28/28 26/26/26 22/22/22
f 25/25/25 28/28/28 22/22/22
f 26/26/26 29/29/29 27/27/27
f 28/28/28 29/29/29 26/26/26
f 29/29/29 28/28/28 30/30/30
f 31/31/31 27/27/27 29/29/29
f 32/32/32 31/31/31 29/29/29
f 32/32/32 29/29/29 30/30/30
f 31/31/31 32/32/32 15/15/15
f 15/15/15 32/32/32 33/33/33
f 32/32/32 30/30/30 33/33/33
f 13/13/13 15/15/15 33/33/33
f 34/34/34 13/13/13 33/33/33
f 33/33/33 30/30/30 34/34/34
f 13/13/13 34/34/34 8/8/8
f 28/28/28 25/25/25 35/35/35
f 30/30/30 28/28/28 35/35/35
f 35/35/35 25/25/25 36/36/36
f 25/25/25 21/21/21 36/36/36
f 24/24/24 36/36/36 21/21/21
f 8/8/8 34/34/34 37/37/37
f 34/34/34 30/30/30 38/38/38
f 34/34/34 38/38/38 37/37/37
f 39/39/39 30/30/30 35/35/35
f 30/30/30 39/39/39 38/38/38
f 8/8/8 37/37/37 40/40/40
f 3/3/3 8/8/8 40/40/40
f 41/41/41 37/37/37 38/38/38
f 41/41/41 38/38/38 39/39/39
f 41/41/41 40/40/40 37/37/37
f 42/42/42 39/39/39 35/35/35
f 42/42/42 35/35/35 36/36/36
f 41/41/41 39/39/39 42/42/42
f 40/40/40 43/43/43 3/3/3
f 41/41/41 43/43/43 40/40/40
f 41/41/41 42/42/42 44/44/44
f 42/42/42 36/36/36 44/44/44
f 41/41/41 44/44/44 43/43/43
f 43/43/43 45/45/45 3/3/3
f 45/45/45 43/43/43 44/44/44
f 4/4/4 3/3/3 45/45/45
f 4/4/4 45/45/45 46/46/46
f 46/46/46 45/45/45 44/44/44
f 4/4/4 46/46/46 24/24/24
f 36/36/36 47/47/47 44/44/44
f 36/36/36 24/24/24 47/47/47
f 46/46/46 47/47/47 24/24/24
f 46/46/46 44/44/44 47/47/47
