g facial_mouth_geo
v -0.08691407 1.384755 0.08408701
v -0.07954302 1.37947 0.1047844
v -0.07720317 1.362251 0.09587537
v -0.08397958 1.368598 0.07402977
v -0.08173003 1.35142 0.06496692
v -0.0602629 1.363026 0.1183972
v -0.06397521 1.377242 0.1232333
v -0.04231375 1.363466 0.1267238
v -0.04540299 1.378423 0.1304611
v -0.02666675 1.379408 0.1415603
v -0.05734851 1.346838 0.120345
v -0.07496998 1.341171 0.08437008
v -0.05540416 1.320826 0.1116016
v -0.07228478 1.320323 0.07903751
v -0.07960174 1.330646 0.05758698
v -0.07532277 1.31391 0.04701823
v -0.06276386 1.302405 0.06938882
v -0.06064566 1.311715 0.0988941
v -0.04433061 1.299304 0.1157806
v -0.05421479 1.294798 0.08822387
v -0.0407518 1.284407 0.1002328
v -0.0253247 1.270302 0.1110561
v -0.04269839 1.312176 0.1204326
v -0.02588891 1.337465 0.1347727
v -0.02620041 1.368141 0.1411933
v -0.01132769 1.376369 0.1650985
v -0.01099985 1.383228 0.1649335
v -1.312653E-17 1.382338 0.1726192
v -0.01388202 1.362796 0.1448577
v 1.068325E-17 1.338804 0.1433476
v -0.02321286 1.319941 0.128999
v -0.02055892 1.302562 0.1297575
v -4.812135E-18 1.360654 0.1459699
v -1.599755E-17 1.373911 0.1677905
v 0.01132769 1.376369 0.1650985
v 0.01099985 1.383228 0.1649335
v 0.02666675 1.379408 0.1415603
v 0.01388202 1.362796 0.1448577
v 0.02620041 1.368141 0.1411933
v 0.04231375 1.363466 0.1267238
v 0.04540299 1.378423 0.1304611
v 0.06397521 1.377242 0.1232333
v 0.02588891 1.337465 0.1347727
v 0.0602629 1.363026 0.1183972
v 0.07954302 1.37947 0.1047844
v 0.07720317 1.362251 0.09587537
v 0.08691407 1.384755 0.08408701
v 0.08397958 1.368598 0.07402977
v 0.08173003 1.35142 0.06496692
v 0.05734851 1.346838 0.120345
v 0.02321286 1.319941 0.128999
v 0.04269839 1.312176 0.1204326
v 0.05540416 1.320826 0.1116016
v 0.04433061 1.299304 0.1157806
v 0.07496998 1.341171 0.08437008
v 6.96837E-18 1.322373 0.1358168
v 0.02055892 1.302562 0.1297575
v 0.07228478 1.320323 0.07903751
v 0.07960174 1.330646 0.05758698
v 0.07532277 1.31391 0.04701823
v 0.06276386 1.302405 0.06938882
v 0.06064566 1.311715 0.0988941
v 0.05421479 1.294798 0.08822387
v 0.0407518 1.284407 0.1002328
v 0.0253247 1.270302 0.1110561
v 0.02875624 1.288123 0.129679
v 0.01313298 1.281628 0.1358751
v 0.01515822 1.261415 0.1165721
v -1.84939E-17 1.267338 0.1227469
v 1.617088E-18 1.298703 0.132914
v -1.799208E-17 1.281694 0.1385032
v -0.01313298 1.281628 0.1358751
v -0.01515822 1.261415 0.1165721
v -0.02875624 1.288123 0.129679
vt 0.1435547 0.3483887
vt 0.1662598 0.3457031
vt 0.1644287 0.3305664
vt 0.1419678 0.3325195
vt 0.1418457 0.3178711
vt 0.1898193 0.3325195
vt 0.1872559 0.3442383
vt 0.2061768 0.3330078
vt 0.2028809 0.3442383
vt 0.21875 0.3457031
vt 0.1956787 0.3212891
vt 0.1638184 0.3120117
vt 0.1993408 0.3000488
vt 0.1696777 0.293457
vt 0.1427002 0.3005371
vt 0.1481934 0.2817383
vt 0.178833 0.2729492
vt 0.1923828 0.2900391
vt 0.2137451 0.2858887
vt 0.1982422 0.2722168
vt 0.2160645 0.2683105
vt 0.2322998 0.2670898
vt 0.2150879 0.2973633
vt 0.225708 0.317627
vt 0.222168 0.3374023
vt 0.2414551 0.3466797
vt 0.2412109 0.3537598
vt 0.2502441 0.3525391
vt 0.2353516 0.3339844
vt 0.2502441 0.3186035
vt 0.2301025 0.3066406
vt 0.2344971 0.2956543
vt 0.2502441 0.3325195
vt 0.2502441 0.3464355
vt 0.2592773 0.3466797
vt 0.2595215 0.3537598
vt 0.2819824 0.3457031
vt 0.2653809 0.3339844
vt 0.2785645 0.3374023
vt 0.2944336 0.3330078
vt 0.2978516 0.3442383
vt 0.3134766 0.3442383
vt 0.2749023 0.317627
vt 0.310791 0.3325195
vt 0.3344727 0.3457031
vt 0.3361816 0.3305664
vt 0.3571777 0.3483887
vt 0.3586426 0.3325195
vt 0.3588867 0.3178711
vt 0.3049316 0.3212891
vt 0.2705078 0.3066406
vt 0.2854004 0.2973633
vt 0.3012695 0.3000488
vt 0.2868652 0.2858887
vt 0.3369141 0.3117676
vt 0.2502441 0.3088379
vt 0.2661133 0.2956543
vt 0.3310547 0.293457
vt 0.3579102 0.3005371
vt 0.3525391 0.2817383
vt 0.3217773 0.2729492
vt 0.3083496 0.2900391
vt 0.3024902 0.2722168
vt 0.284668 0.2683105
vt 0.2683105 0.2670898
vt 0.270752 0.2849121
vt 0.2595215 0.2841797
vt 0.2595215 0.2675781
vt 0.2502441 0.2702637
vt 0.2502441 0.2946777
vt 0.2502441 0.2849121
vt 0.2412109 0.2841797
vt 0.2410889 0.2675781
vt 0.2298584 0.2849121
vn -0.9431655 -0.2291226 0.2407107
vn -0.8393157 -0.2854728 0.4626602
vn -0.8763444 -0.2848726 0.3884173
vn -0.931574 -0.2574578 0.2566815
vn -0.9368129 -0.2327271 0.2611888
vn -0.6340321 -0.2692151 0.7249321
vn -0.5673528 -0.2880821 0.7714399
vn -0.4702664 -0.1555534 0.8687074
vn -0.373104 -0.2115233 0.9033556
vn -0.6761019 0.09384229 0.7308076
vn -0.6531004 -0.153921 0.7414635
vn -0.9241666 -0.2344199 0.3016011
vn -0.7908395 -0.2565523 0.5556561
vn -0.8973446 -0.3668799 0.2452992
vn -0.9299789 -0.3028875 0.208323
vn -0.5774595 -0.7745147 -0.2582005
vn -0.5503523 -0.8290236 -0.09915671
vn -0.8316536 -0.4185845 0.3648825
vn -0.7358526 -0.397395 0.5482682
vn -0.5953361 -0.8028986 -0.03047802
vn -0.5987663 -0.8004848 -0.0265171
vn -0.5793476 -0.8134528 -0.05148819
vn -0.5066579 -0.128903 0.8524563
vn -0.3740461 -0.2383102 0.8962688
vn -0.6436085 -0.190925 0.7411584
vn -0.573178 -0.5098181 0.6415235
vn -0.7385171 0.2265827 0.635022
vn -1.014967E-07 -0.06176621 0.9980906
vn -0.3228938 -0.5194944 0.7911164
vn -1.976671E-07 -0.3151142 0.9490538
vn -0.2874457 -0.2401892 0.9271914
vn -0.3424902 0.04060853 0.9386434
vn 1.689866E-07 -0.6408043 0.7677043
vn -0 -0.7965379 0.6045884
vn 0.5731778 -0.5098184 0.6415235
vn 0.7385167 0.2265826 0.6350223
vn 0.676101 0.09384242 0.7308085
vn 0.3228939 -0.5194948 0.791116
vn 0.6436083 -0.1909252 0.7411585
vn 0.4702654 -0.1555529 0.8687081
vn 0.3731027 -0.2115225 0.9033563
vn 0.5673519 -0.2880816 0.7714407
vn 0.3740459 -0.2383101 0.8962689
vn 0.6340308 -0.2692145 0.7249335
vn 0.8393154 -0.2854726 0.4626608
vn 0.8763442 -0.2848724 0.3884178
vn 0.9431655 -0.2291228 0.2407108
vn 0.9315738 -0.2574578 0.2566819
vn 0.9368128 -0.2327271 0.2611893
vn 0.6531007 -0.1539212 0.7414632
vn 0.2874454 -0.2401893 0.9271916
vn 0.5066577 -0.1289032 0.8524564
vn 0.7908395 -0.2565524 0.5556561
vn 0.7358524 -0.3973951 0.5482685
vn 0.9241666 -0.2344199 0.3016012
vn -3.184068E-07 -0.2964633 0.9550442
vn 0.3424896 0.04060858 0.9386436
vn 0.8973447 -0.36688 0.2452989
vn 0.9299789 -0.3028875 0.2083226
vn 0.5774595 -0.7745146 -0.2582009
vn 0.5503523 -0.8290236 -0.09915659
vn 0.8316536 -0.4185846 0.3648824
vn 0.5953361 -0.8028986 -0.03047789
vn 0.5987661 -0.8004848 -0.0265169
vn 0.5793477 -0.8134525 -0.05148938
vn 0.6603063 -0.3813224 0.6469845
vn 0.343603 -0.4737594 0.8108571
vn 0.2901871 -0.9530763 0.08623745
vn -0 -0.971279 0.2379438
vn -0 0.06248708 0.9980458
vn 1.239352E-07 -0.4933734 0.8698176
vn -0.3436026 -0.4737594 0.8108571
vn -0.290187 -0.9530763 0.08623867
vn -0.6603068 -0.3813224 0.6469839
g facial_mouth_geo_0
f 3/3/3 2/2/2 1/1/1
f 4/4/4 3/3/3 1/1/1
f 3/3/3 4/4/4 5/5/5
f 2/2/2 3/3/3 6/6/6
f 7/7/7 2/2/2 6/6/6
f 7/7/7 6/6/6 8/8/8
f 9/9/9 7/7/7 8/8/8
f 9/9/9 8/8/8 10/10/10
f 11/11/11 6/6/6 3/3/3
f 8/8/8 6/6/6 11/11/11
f 12/12/12 3/3/3 5/5/5
f 11/11/11 3/3/3 13/13/13
f 3/3/3 12/12/12 13/13/13
f 14/14/14 12/12/12 5/5/5
f 15/15/15 14/14/14 5/5/5
f 15/15/15 16/16/16 14/14/14
f 16/16/16 17/17/17 14/14/14
f 18/18/18 12/12/12 14/14/14
f 14/14/14 17/17/17 18/18/18
f 18/18/18 13/13/13 12/12/12
f 18/18/18 19/19/19 13/13/13
f 17/17/17 20/20/20 18/18/18
f 18/18/18 20/20/20 19/19/19
f 20/20/20 21/21/21 19/19/19
f 19/19/19 21/21/21 22/22/22
f 23/23/23 11/11/11 13/13/13
f 13/13/13 19/19/19 23/23/23
f 24/24/24 8/8/8 11/11/11
f 23/23/23 24/24/24 11/11/11
f 25/25/25 8/8/8 24/24/24
f 25/25/25 10/10/10 8/8/8
f 25/25/25 26/26/26 10/10/10
f 26/26/26 27/27/27 10/10/10
f 28/28/28 27/27/27 26/26/26
f 24/24/24 29/29/29 25/25/25
f 25/25/25 29/29/29 26/26/26
f 30/30/30 29/29/29 24/24/24
f 23/23/23 31/31/31 24/24/24
f 30/30/30 24/24/24 31/31/31
f 23/23/23 19/19/19 32/32/32
f 23/23/23 32/32/32 31/31/31
f 29/29/29 33/33/33 26/26/26
f 30/30/30 33/33/33 29/29/29
f 34/34/34 28/28/28 26/26/26
f 33/33/33 34/34/34 26/26/26
f 28/28/28 34/34/34 35/35/35
f 34/34/34 33/33/33 35/35/35
f 36/36/36 28/28/28 35/35/35
f 36/36/36 35/35/35 37/37/37
f 33/33/33 38/38/38 35/35/35
f 38/38/38 33/33/33 30/30/30
f 35/35/35 39/39/39 37/37/37
f 38/38/38 39/39/39 35/35/35
f 37/37/37 39/39/39 40/40/40
f 40/40/40 41/41/41 37/37/37
f 42/42/42 41/41/41 40/40/40
f 38/38/38 43/43/43 39/39/39
f 38/38/38 30/30/30 43/43/43
f 40/40/40 39/39/39 43/43/43
f 44/44/44 42/42/42 40/40/40
f 45/45/45 42/42/42 44/44/44
f 46/46/46 45/45/45 44/44/44
f 45/45/45 46/46/46 47/47/47
f 46/46/46 48/48/48 47/47/47
f 48/48/48 46/46/46 49/49/49
f 44/44/44 40/40/40 50/50/50
f 40/40/40 43/43/43 50/50/50
f 44/44/44 50/50/50 46/46/46
f 51/51/51 43/43/43 30/30/30
f 43/43/43 52/52/52 50/50/50
f 51/51/51 52/52/52 43/43/43
f 46/46/46 50/50/50 53/53/53
f 52/52/52 53/53/53 50/50/50
f 54/54/54 53/53/53 52/52/52
f 46/46/46 55/55/55 49/49/49
f 46/46/46 53/53/53 55/55/55
f 56/56/56 51/51/51 30/30/30
f 56/56/56 30/30/30 31/31/31
f 56/56/56 31/31/31 32/32/32
f 51/51/51 57/57/57 52/52/52
f 56/56/56 57/57/57 51/51/51
f 54/54/54 52/52/52 57/57/57
f 55/55/55 58/58/58 49/49/49
f 58/58/58 59/59/59 49/49/49
f 60/60/60 59/59/59 58/58/58
f 61/61/61 60/60/60 58/58/58
f 55/55/55 53/53/53 62/62/62
f 55/55/55 62/62/62 58/58/58
f 61/61/61 58/58/58 62/62/62
f 54/54/54 62/62/62 53/53/53
f 63/63/63 61/61/61 62/62/62
f 63/63/63 62/62/62 54/54/54
f 64/64/64 63/63/63 54/54/54
f 64/64/64 54/54/54 65/65/65
f 54/54/54 66/66/66 65/65/65
f 66/66/66 54/54/54 57/57/57
f 65/65/65 66/66/66 67/67/67
f 67/67/67 66/66/66 57/57/57
f 68/68/68 65/65/65 67/67/67
f 68/68/68 67/67/67 69/69/69
f 70/70/70 67/67/67 57/57/57
f 56/56/56 70/70/70 57/57/57
f 70/70/70 56/56/56 32/32/32
f 67/67/67 71/71/71 69/69/69
f 70/70/70 71/71/71 67/67/67
f 71/71/71 72/72/72 69/69/69
f 71/71/71 70/70/70 72/72/72
f 72/72/72 70/70/70 32/32/32
f 72/72/72 73/73/73 69/69/69
f 22/22/22 73/73/73 72/72/72
f 74/74/74 72/72/72 32/32/32
f 74/74/74 22/22/22 72/72/72
f 19/19/19 74/74/74 32/32/32
f 74/74/74 19/19/19 22/22/22
