g backface_geo
v 0.014224 1.054905 -0.095291
v 0.014224 1.019863 -0.080312
v -0.014801 1.019863 -0.080312
v -0.014801 1.054905 -0.095291
v -0.014801 1.085379 -0.104234
v 0.014224 1.085379 -0.104234
v 0.032322 1.176473 -0.120965
v 0.056154 1.159988 -0.1193
v 0.029334 1.121127 -0.117623
v 0.005503 1.137612 -0.119288
v 0.066658 1.09629 0.112385
v 0.101509 1.130303 0.0988
v 0.072619 1.136176 0.111796
v 0.09587499 1.092649 0.09862
v 0.058288 1.038917 0.106588
v 0.087923 1.036762 0.093306
v 0.060377 1.032221 0.102578
v 0.050671 1.00968 0.10337
v 0.039365 1.009836 0.107628
v 0.07984 1.030792 0.093783
v 0.088423 0.999857 0.076508
v 0.079779 1.001155 0.081039
v 0.03328 1.135616 -0.126263
v 0.100749 1.167745 -0.113104
v 0.08371899 1.13659 -0.114503
v 0.055873 1.176384 -0.121122
v 0.118244 1.197956 -0.106238
v 0.022837 1.20304 -0.117018
v 0.008775 1.17258 -0.124111
v 0.038269 1.232555 -0.105277
v 0.075404 1.210866 -0.111334
v 0.093881 1.240748 -0.092512
v 0.134238 1.22387 -0.090246
v 0.109485 1.260406 -0.064551
v 0.054493 1.2586 -0.086118
v 0.148333 1.241593 -0.065028
v 0.068448 1.27543 -0.059797
v 0.156981 1.249101 -0.032968
v 0.076569 1.279848 -0.026099
v 0.117985 1.266712 -0.029723
v 0.159183 1.244267 0.00104
v 0.119277 1.259235 0.008016
v 0.077801 1.271566 0.011263
v 0.156432 1.227436 0.031524
v 0.075 1.25447 0.0461
v 0.116031 1.240723 0.042311
v 0.150234 1.199275 0.05657
v 0.109446 1.211118 0.071309
v 0.069513 1.228455 0.077157
v 0.142365 1.166557 0.078712
v 0.063976 1.190971 0.101404
v 0.101378 1.170188 0.09673
v 0.133604 1.128224 0.10063
v 0.091901 1.118337 0.119602
v 0.05745 1.146594 0.118666
v -0.005503 1.137612 -0.119288
v -0.029334 1.121127 -0.117623
v -0.056154 1.159988 -0.1193
v -0.032322 1.176473 -0.120965
v -0.101509 1.130303 0.0988
v -0.066658 1.09629 0.112385
v -0.072619 1.136176 0.111796
v -0.09587499 1.092649 0.09862
v -0.058288 1.038917 0.106588
v -0.087923 1.036762 0.093306
v -0.060377 1.032221 0.102578
v -0.039365 1.009836 0.107628
v -0.050671 1.00968 0.10337
v -0.07984 1.030792 0.093783
v -0.088423 0.999857 0.076508
v -0.079779 1.001155 0.081039
v -0.091901 1.118337 0.119602
v -0.142365 1.166557 0.078712
v -0.133604 1.128224 0.10063
v -0.101378 1.170188 0.09673
v -0.063976 1.190971 0.101404
v -0.05745 1.146594 0.118666
v -0.069513 1.228455 0.077157
v -0.109446 1.211118 0.071309
v -0.150234 1.199275 0.05657
v -0.156432 1.227436 0.031524
v -0.116031 1.240723 0.042311
v -0.075 1.25447 0.0461
v -0.159183 1.244267 0.00104
v -0.119277 1.259235 0.008016
v -0.077801 1.271566 0.011263
v -0.076569 1.279848 -0.026099
v -0.117985 1.266712 -0.029723
v -0.156981 1.249101 -0.032968
v -0.068448 1.27543 -0.059797
v -0.109485 1.260406 -0.064551
v -0.148333 1.241593 -0.065028
v -0.093881 1.240748 -0.092512
v -0.134238 1.22387 -0.090246
v -0.054493 1.2586 -0.086118
v -0.118244 1.197956 -0.106238
v -0.075404 1.210866 -0.111334
v -0.038269 1.232555 -0.105277
v -0.100749 1.167745 -0.113104
v -0.055873 1.176384 -0.121122
v -0.022837 1.20304 -0.117018
v -0.03328 1.135616 -0.126263
v -0.08371899 1.13659 -0.114503
v -0.008775 1.17258 -0.124111
vt 0.3317871 0.71875
vt 0.3317871 0.6821289
vt 0.3562012 0.6821289
vt 0.3562012 0.71875
vt 0.3562012 0.7514648
vt 0.3317871 0.7514648
vt 0.04190063 0.9794922
vt 0.04190063 0.9570312
vt 0.008903503 0.9570312
vt 0.008903503 0.9794922
vt 0.322998 0.9794922
vt 0.2885742 0.9570312
vt 0.2885742 0.9794922
vt 0.322998 0.9570312
vt 0.3806152 0.9794922
vt 0.3806152 0.9570312
vt 0.3859863 0.9765625
vt 0.4130859 0.9819336
vt 0.4130859 0.9902344
vt 0.3859863 0.9619141
vt 0.4130859 0.9501953
vt 0.4130859 0.9570312
vt 0.2797852 0.9365234
vt 0.3181152 0.8901367
vt 0.3181152 0.9174805
vt 0.2797852 0.9013672
vt 0.3181152 0.8666992
vt 0.2453613 0.894043
vt 0.2453613 0.9174805
vt 0.2453613 0.8725586
vt 0.2797852 0.8745117
vt 0.2797852 0.8500977
vt 0.3181152 0.8442383
vt 0.2797852 0.8266602
vt 0.2453613 0.8515625
vt 0.3181152 0.8222656
vt 0.2453613 0.8295898
vt 0.3181152 0.8007812
vt 0.2453613 0.8051758
vt 0.2797852 0.8027344
vt 0.3181152 0.7788086
vt 0.2797852 0.7783203
vt 0.2453613 0.7792969
vt 0.3181152 0.7553711
vt 0.2453613 0.7539062
vt 0.2797852 0.7529297
vt 0.3181152 0.7290039
vt 0.2797852 0.7250977
vt 0.2453613 0.7280273
vt 0.3181152 0.7011719
vt 0.2453613 0.699707
vt 0.2797852 0.6918945
vt 0.3181152 0.6679688
vt 0.2797852 0.6469727
vt 0.2453613 0.6679688
vt 0.008903503 0.9794922
vt 0.008903503 0.9570312
vt 0.04190063 0.9570312
vt 0.04190063 0.9794922
vt 0.2885742 0.9570312
vt 0.322998 0.9794922
vt 0.2885742 0.9794922
vt 0.322998 0.9570312
vt 0.3806152 0.9794922
vt 0.3806152 0.9570312
vt 0.3859863 0.9765625
vt 0.4130859 0.9902344
vt 0.4130859 0.9819336
vt 0.3859863 0.9619141
vt 0.4130859 0.9501953
vt 0.4130859 0.9570312
vt 0.2797852 0.6469727
vt 0.3181152 0.7011719
vt 0.3181152 0.6679688
vt 0.2797852 0.6918945
vt 0.2453613 0.699707
vt 0.2453613 0.6679688
vt 0.2453613 0.7280273
vt 0.2797852 0.7250977
vt 0.3181152 0.7290039
vt 0.3181152 0.7553711
vt 0.2797852 0.7529297
vt 0.2453613 0.7539062
vt 0.3181152 0.7788086
vt 0.2797852 0.7783203
vt 0.2453613 0.7792969
vt 0.2453613 0.8051758
vt 0.2797852 0.8027344
vt 0.3181152 0.8007812
vt 0.2453613 0.8295898
vt 0.2797852 0.8266602
vt 0.3181152 0.8222656
vt 0.2797852 0.8500977
vt 0.3181152 0.8442383
vt 0.2453613 0.8515625
vt 0.3181152 0.8666992
vt 0.2797852 0.8745117
vt 0.2453613 0.8725586
vt 0.3181152 0.8901367
vt 0.2797852 0.9013672
vt 0.2453613 0.894043
vt 0.2797852 0.9365234
vt 0.3181152 0.9174805
vt 0.2453613 0.9174805
vn -0 0.3429836 0.9393414
vn -0 0.393055 0.919515
vn -0 0.393055 0.919515
vn -0 0.3429836 0.9393414
vn -0 0.2815878 0.9595354
vn -0 0.2815878 0.9595354
vn -0.02702259 0.06170559 0.9977285
vn -0.0270226 0.06170558 0.9977285
vn -0.0270226 0.06170558 0.9977285
vn -0.02702259 0.06170558 0.9977285
vn -0.4051098 0.1103179 -0.907588
vn -0.4099991 0.05650774 -0.9103338
vn -0.409999 0.05650775 -0.9103338
vn -0.4051117 0.1103003 -0.9075894
vn -0.4014561 0.1669852 -0.9005271
vn -0.396511 0.1805224 -0.9001059
vn -0.4021014 0.2897184 -0.8685492
vn -0.4337679 0.2094625 -0.8763395
vn -0.433768 0.2094625 -0.8763395
vn -0.3568672 0.3865224 -0.8504388
vn -0.3606417 0.3764735 -0.8533495
vn -0.3606417 0.3764735 -0.8533494
vn -0.1295639 -0.05840814 0.9898493
vn -0.1904205 -0.07647392 0.9787194
vn -0.2014335 0.02192718 0.9792567
vn -0.1283992 -0.1216836 0.984229
vn -0.2088114 -0.3019041 0.9301891
vn -0.05661121 -0.2275536 0.9721186
vn -0.05113842 -0.1434387 0.9883371
vn -0.09352346 -0.4058107 0.9091595
vn -0.1465085 -0.329096 0.9328617
vn -0.2217934 -0.5890113 0.7770929
vn -0.2828401 -0.5684587 0.7725646
vn -0.3162141 -0.8294581 0.460443
vn -0.1708538 -0.6303228 0.7572994
vn -0.3699954 -0.8034995 0.4663604
vn -0.2621055 -0.8561646 0.4452898
vn -0.4032531 -0.9129516 0.06249948
vn -0.305394 -0.9520883 0.01620275
vn -0.3548599 -0.9340884 0.0394121
vn -0.3946386 -0.8669013 -0.3045367
vn -0.349321 -0.8801091 -0.3215322
vn -0.3061353 -0.8945864 -0.3255709
vn -0.3979781 -0.6979278 -0.5954075
vn -0.3217923 -0.7515999 -0.5758014
vn -0.3599678 -0.7182704 -0.595408
vn -0.4047746 -0.510051 -0.7589502
vn -0.3709982 -0.526283 -0.7651056
vn -0.3383389 -0.5638346 -0.7534038
vn -0.3860167 -0.401059 -0.8307484
vn -0.311675 -0.4066897 -0.8587561
vn -0.3387898 -0.3866481 -0.857744
vn -0.3590329 -0.3559034 -0.8628025
vn -0.3153715 -0.3436945 -0.8845422
vn -0.2730761 -0.3312676 -0.9031563
vn 0.02702281 0.06170544 0.9977285
vn 0.02702281 0.06170545 0.9977285
vn 0.02702281 0.06170546 0.9977285
vn 0.02702281 0.06170545 0.9977285
vn 0.4099993 0.05650781 -0.9103336
vn 0.40511 0.1103179 -0.907588
vn 0.4099993 0.05650781 -0.9103338
vn 0.4051118 0.1103003 -0.9075893
vn 0.4014564 0.1669855 -0.9005268
vn 0.3965111 0.1805226 -0.9001058
vn 0.4021032 0.28972 -0.8685479
vn 0.4337701 0.2094636 -0.8763381
vn 0.4337702 0.2094636 -0.8763381
vn 0.3568679 0.3865231 -0.8504382
vn 0.3606423 0.3764737 -0.8533491
vn 0.3606423 0.3764736 -0.8533491
vn 0.3153714 -0.3436943 -0.8845423
vn 0.3860167 -0.401059 -0.8307484
vn 0.359033 -0.3559034 -0.8628024
vn 0.3387897 -0.386648 -0.857744
vn 0.311675 -0.4066896 -0.8587563
vn 0.2730759 -0.3312671 -0.9031564
vn 0.338339 -0.5638349 -0.7534035
vn 0.3709982 -0.5262831 -0.7651055
vn 0.4047746 -0.510051 -0.7589504
vn 0.3979782 -0.6979282 -0.5954071
vn 0.359968 -0.7182708 -0.5954075
vn 0.3217925 -0.7516003 -0.5758008
vn 0.3946387 -0.8669015 -0.304536
vn 0.349321 -0.8801091 -0.321532
vn 0.3061353 -0.8945863 -0.325571
vn 0.305394 -0.9520883 0.01620189
vn 0.35486 -0.9340884 0.03941122
vn 0.4032531 -0.9129518 0.06249872
vn 0.2621054 -0.8561644 0.4452901
vn 0.3162141 -0.8294581 0.460443
vn 0.3699956 -0.8034996 0.4663599
vn 0.2217932 -0.5890111 0.7770931
vn 0.2828399 -0.5684584 0.772565
vn 0.1708537 -0.6303225 0.7572994
vn 0.2088112 -0.3019038 0.9301892
vn 0.1465084 -0.3290963 0.9328616
vn 0.09352366 -0.4058115 0.9091592
vn 0.1904203 -0.07647378 0.9787195
vn 0.1283992 -0.1216836 0.984229
vn 0.05661124 -0.2275537 0.9721185
vn 0.1295639 -0.05840813 0.9898493
vn 0.2014334 0.0219272 0.9792567
vn 0.05113842 -0.1434387 0.9883371
g backface_geo_0
f 3/3/3 2/2/2 1/1/1
f 4/4/4 3/3/3 1/1/1
f 5/5/5 4/4/4 1/1/1
f 6/6/6 5/5/5 1/1/1
f 9/9/9 8/8/8 7/7/7
f 10/10/10 9/9/9 7/7/7
f 13/13/13 12/12/12 11/11/11
f 12/12/12 14/14/14 11/11/11
f 11/11/11 14/14/14 15/15/15
f 14/14/14 16/16/16 15/15/15
f 17/17/17 15/15/15 16/16/16
f 15/15/15 17/17/17 18/18/18
f 19/19/19 15/15/15 18/18/18
f 20/20/20 17/17/17 16/16/16
f 16/16/16 21/21/21 20/20/20
f 21/21/21 22/22/22 20/20/20
f 25/25/25 24/24/24 23/23/23
f 24/24/24 26/26/26 23/23/23
f 26/26/26 24/24/24 27/27/27
f 23/23/23 26/26/26 28/28/28
f 29/29/29 23/23/23 28/28/28
f 28/28/28 26/26/26 30/30/30
f 31/31/31 26/26/26 27/27/27
f 26/26/26 31/31/31 30/30/30
f 31/31/31 27/27/27 32/32/32
f 30/30/30 31/31/31 32/32/32
f 27/27/27 33/33/33 32/32/32
f 32/32/32 33/33/33 34/34/34
f 35/35/35 30/30/30 32/32/32
f 32/32/32 34/34/34 35/35/35
f 33/33/33 36/36/36 34/34/34
f 34/34/34 37/37/37 35/35/35
f 36/36/36 38/38/38 34/34/34
f 37/37/37 34/34/34 39/39/39
f 38/38/38 40/40/40 34/34/34
f 34/34/34 40/40/40 39/39/39
f 38/38/38 41/41/41 40/40/40
f 40/40/40 42/42/42 39/39/39
f 41/41/41 42/42/42 40/40/40
f 42/42/42 43/43/43 39/39/39
f 42/42/42 41/41/41 44/44/44
f 45/45/45 43/43/43 42/42/42
f 46/46/46 42/42/42 44/44/44
f 46/46/46 45/45/45 42/42/42
f 46/46/46 44/44/44 47/47/47
f 45/45/45 46/46/46 48/48/48
f 48/48/48 46/46/46 47/47/47
f 49/49/49 45/45/45 48/48/48
f 48/48/48 47/47/47 50/50/50
f 51/51/51 49/49/49 48/48/48
f 52/52/52 48/48/48 50/50/50
f 52/52/52 51/51/51 48/48/48
f 52/52/52 50/50/50 53/53/53
f 54/54/54 52/52/52 53/53/53
f 52/52/52 54/54/54 51/51/51
f 54/54/54 55/55/55 51/51/51
f 58/58/58 57/57/57 56/56/56
f 59/59/59 58/58/58 56/56/56
f 62/62/62 61/61/61 60/60/60
f 61/61/61 63/63/63 60/60/60
f 61/61/61 64/64/64 63/63/63
f 64/64/64 65/65/65 63/63/63
f 65/65/65 64/64/64 66/66/66
f 66/66/66 64/64/64 67/67/67
f 68/68/68 66/66/66 67/67/67
f 69/69/69 65/65/65 66/66/66
f 65/65/65 69/69/69 70/70/70
f 69/69/69 71/71/71 70/70/70
f 74/74/74 73/73/73 72/72/72
f 73/73/73 75/75/75 72/72/72
f 72/72/72 75/75/75 76/76/76
f 77/77/77 72/72/72 76/76/76
f 76/76/76 75/75/75 78/78/78
f 75/75/75 73/73/73 79/79/79
f 75/75/75 79/79/79 78/78/78
f 73/73/73 80/80/80 79/79/79
f 79/79/79 80/80/80 81/81/81
f 79/79/79 82/82/82 78/78/78
f 82/82/82 79/79/79 81/81/81
f 82/82/82 83/83/83 78/78/78
f 81/81/81 84/84/84 82/82/82
f 82/82/82 85/85/85 83/83/83
f 84/84/84 85/85/85 82/82/82
f 85/85/85 86/86/86 83/83/83
f 87/87/87 86/86/86 85/85/85
f 88/88/88 85/85/85 84/84/84
f 88/88/88 87/87/87 85/85/85
f 89/89/89 88/88/88 84/84/84
f 90/90/90 87/87/87 88/88/88
f 88/88/88 89/89/89 91/91/91
f 91/91/91 90/90/90 88/88/88
f 89/89/89 92/92/92 91/91/91
f 90/90/90 91/91/91 93/93/93
f 93/93/93 91/91/91 92/92/92
f 94/94/94 93/93/93 92/92/92
f 95/95/95 90/90/90 93/93/93
f 93/93/93 94/94/94 96/96/96
f 93/93/93 97/97/97 95/95/95
f 97/97/97 93/93/93 96/96/96
f 97/97/97 98/98/98 95/95/95
f 96/96/96 99/99/99 97/97/97
f 98/98/98 97/97/97 100/100/100
f 99/99/99 100/100/100 97/97/97
f 101/101/101 98/98/98 100/100/100
f 102/102/102 100/100/100 99/99/99
f 100/100/100 102/102/102 101/101/101
f 103/103/103 102/102/102 99/99/99
f 102/102/102 104/104/104 101/101/101
