g facial_eye_geo
v -0.091204 1.400477 0.077767
v -0.081069 1.38311 0.09811
v -0.086925 1.381571 0.071463
v -0.082839 1.401682 0.099257
v -0.095165 1.421829 0.081737
v -0.070958 1.382931 0.108956
v -0.08532999 1.41913 0.09751199
v -0.098799 1.448778 0.08329
v -0.092705 1.448719 0.100848
v -0.073569 1.401947 0.107473
v -0.054527 1.382338 0.118987
v -0.07599699 1.418568 0.104462
v -0.059758 1.402564 0.115905
v -0.040832 1.404103 0.124805
v -0.037786 1.381931 0.127989
v -0.019103 1.385926 0.142476
v -0.062697 1.4178 0.110484
v -0.069337 1.461205 0.113725
v -0.039583 1.419689 0.117405
v -0.020165 1.424891 0.124116
v -0.020623 1.405689 0.13459
v -0 1.407625 0.141607
v -0 1.425181 0.135045
v -0 1.390698 0.154538
v 0.020165 1.424891 0.124116
v 0.020623 1.405689 0.13459
v 0.040832 1.404103 0.124805
v 0.019103 1.385926 0.142476
v 0.037786 1.381931 0.127989
v 0.039583 1.419689 0.117405
v 0.054527 1.382338 0.118987
v 0.062697 1.4178 0.110484
v 0.069337 1.461205 0.113725
v 0.092705 1.448719 0.100848
v 0.059758 1.402564 0.115905
v 0.073569 1.401947 0.107473
v 0.07095799 1.382931 0.108956
v 0.07599699 1.418568 0.104462
v 0.082839 1.401682 0.099257
v 0.081069 1.38311 0.09811
v 0.08532999 1.41913 0.09751199
v 0.098799 1.448778 0.08329
v 0.095165 1.421829 0.081737
v 0.091204 1.400477 0.077767
v 0.086925 1.381571 0.071463
vt 0.1514893 0.3662109
vt 0.1740723 0.3525391
vt 0.1520996 0.3466797
vt 0.1700439 0.3693848
vt 0.1494141 0.387207
vt 0.1849365 0.3522949
vt 0.1650391 0.385498
vt 0.1429443 0.4125977
vt 0.1584473 0.4125977
vt 0.1795654 0.3693848
vt 0.1993408 0.3510742
vt 0.1745605 0.3842773
vt 0.1928711 0.369873
vt 0.2103271 0.3710938
vt 0.2143555 0.3508301
vt 0.2316895 0.3566895
vt 0.1876221 0.3837891
vt 0.1828613 0.4243164
vt 0.2086182 0.385498
vt 0.2277832 0.3908691
vt 0.2290039 0.3740234
vt 0.25 0.3769531
vt 0.25 0.3911133
vt 0.25 0.3630371
vt 0.2722168 0.3908691
vt 0.2709961 0.3740234
vt 0.2897949 0.3710938
vt 0.2683105 0.3566895
vt 0.2856445 0.3508301
vt 0.2915039 0.385498
vt 0.3007812 0.3510742
vt 0.3125 0.3837891
vt 0.3171387 0.4243164
vt 0.3415527 0.4125977
vt 0.3071289 0.369873
vt 0.3203125 0.3693848
vt 0.3151855 0.3522949
vt 0.3254395 0.3842773
vt 0.329834 0.3693848
vt 0.3259277 0.3525391
vt 0.3349609 0.385498
vt 0.3571777 0.4125977
vt 0.3505859 0.387207
vt 0.3483887 0.3662109
vt 0.3479004 0.3466797
vn -0.9434026 -0.2026419 0.2625409
vn -0.87704 -0.2236161 0.4252021
vn -0.949232 -0.255469 0.18356
vn -0.8294837 -0.102378 0.5490678
vn -0.93889 -0.18234 0.291955
vn -0.5869119 -0.11961 0.8007669
vn -0.8130372 -0.1620051 0.5592182
vn -0.9373319 -0.177258 0.299981
vn -0.6377431 -0.1929655 0.7456864
vn -0.5492449 0.04385199 0.8345101
vn -0.4943549 -0.106706 0.862686
vn -0.519317 -0.03279301 0.8539523
vn -0.445355 0.15041 0.88263
vn -0.4538168 0.2410989 0.8578587
vn -0.5245488 -0.05793797 0.8494067
vn -0.436606 -0.251847 0.863683
vn -0.3725698 0.03254425 0.9274333
vn -0.3866146 -0.1273467 0.9134067
vn -0.325375 0.027577 0.9451829
vn -0.409737 0.247184 0.878075
vn -0.462164 0.33441 0.8213249
vn -0 0.452812 0.891606
vn -0 0.2819179 0.9594385
vn -0 -0.06057697 0.9981635
vn 0.409737 0.247184 0.878075
vn 0.4621651 0.33441 0.8213242
vn 0.4538179 0.2410999 0.8578578
vn 0.436606 -0.251847 0.863683
vn 0.5245492 -0.05793802 0.8494064
vn 0.325375 0.027577 0.9451829
vn 0.4943549 -0.106706 0.862686
vn 0.366358 -0.014032 0.9303682
vn 0.3301089 -0.3205919 0.8878338
vn 0.6968848 -0.207416 0.6865349
vn 0.4453558 0.1504099 0.8826297
vn 0.5492449 0.04385199 0.8345101
vn 0.5869126 -0.1196099 0.8007666
vn 0.519317 -0.03279401 0.8539522
vn 0.8294842 -0.102378 0.5490672
vn 0.8770409 -0.223616 0.4252
vn 0.813038 -0.162005 0.5592171
vn 0.9373319 -0.177258 0.299981
vn 0.9388903 -0.18234 0.2919541
vn 0.9434026 -0.2026419 0.2625409
vn 0.949232 -0.255469 0.18356
g facial_eye_geo_0
f 3/3/3 2/2/2 1/1/1
f 2/2/2 4/4/4 1/1/1
f 5/5/5 1/1/1 4/4/4
f 6/6/6 4/4/4 2/2/2
f 7/7/7 5/5/5 4/4/4
f 8/8/8 5/5/5 7/7/7
f 9/9/9 8/8/8 7/7/7
f 6/6/6 10/10/10 4/4/4
f 4/4/4 10/10/10 7/7/7
f 10/10/10 6/6/6 11/11/11
f 12/12/12 9/9/9 7/7/7
f 10/10/10 12/12/12 7/7/7
f 13/13/13 10/10/10 11/11/11
f 12/12/12 10/10/10 13/13/13
f 11/11/11 14/14/14 13/13/13
f 11/11/11 15/15/15 14/14/14
f 15/15/15 16/16/16 14/14/14
f 12/12/12 17/17/17 9/9/9
f 17/17/17 12/12/12 13/13/13
f 13/13/13 14/14/14 17/17/17
f 9/9/9 17/17/17 18/18/18
f 17/17/17 19/19/19 18/18/18
f 14/14/14 19/19/19 17/17/17
f 19/19/19 14/14/14 20/20/20
f 16/16/16 21/21/21 14/14/14
f 14/14/14 21/21/21 20/20/20
f 22/22/22 21/21/21 16/16/16
f 20/20/20 21/21/21 22/22/22
f 23/23/23 20/20/20 22/22/22
f 24/24/24 22/22/22 16/16/16
f 23/23/23 22/22/22 25/25/25
f 26/26/26 22/22/22 24/24/24
f 22/22/22 26/26/26 25/25/25
f 26/26/26 27/27/27 25/25/25
f 28/28/28 26/26/26 24/24/24
f 27/27/27 26/26/26 28/28/28
f 29/29/29 27/27/27 28/28/28
f 27/27/27 30/30/30 25/25/25
f 27/27/27 29/29/29 31/31/31
f 32/32/32 30/30/30 27/27/27
f 30/30/30 32/32/32 33/33/33
f 32/32/32 34/34/34 33/33/33
f 27/27/27 31/31/31 35/35/35
f 35/35/35 32/32/32 27/27/27
f 36/36/36 35/35/35 31/31/31
f 35/35/35 36/36/36 32/32/32
f 37/37/37 36/36/36 31/31/31
f 34/34/34 32/32/32 38/38/38
f 36/36/36 38/38/38 32/32/32
f 39/39/39 36/36/36 37/37/37
f 38/38/38 36/36/36 39/39/39
f 40/40/40 39/39/39 37/37/37
f 34/34/34 38/38/38 41/41/41
f 41/41/41 38/38/38 39/39/39
f 42/42/42 34/34/34 41/41/41
f 43/43/43 42/42/42 41/41/41
f 44/44/44 43/43/43 41/41/41
f 39/39/39 44/44/44 41/41/41
f 39/39/39 40/40/40 44/44/44
f 40/40/40 45/45/45 44/44/44
