g body_geo
v -1.158747 0.06719209 -0.2111891
v -1.109307 0.7384048 -0.2111891
v -1.158747 0.7384048 -0.2111891
v -1.109307 0.06719209 -0.2111891
v -1.155216 0 -0.2076578
v -1.112839 0 -0.2076578
v -1.158747 0.7384048 -0.1617491
v -1.109307 0.7384048 -0.1617491
v -1.109307 0.06719209 -0.1617491
v -1.158747 0.06719209 -0.1617491
v -1.112839 0 -0.1652803
v -1.155216 0 -0.1652803
v -1.155216 0 -0.1652803
v -1.112839 0 -0.1652803
v -1.112839 0 -0.2076578
v -1.155216 0 -0.2076578
v -1.109307 0.06719209 -0.2111891
v -1.109307 0.7384048 -0.1617491
v -1.109307 0.7384048 -0.2111891
v -1.109307 0.06719209 -0.1617491
v -1.112839 0 -0.2076578
v -1.112839 0 -0.1652803
v -1.158747 0.06719209 -0.1617491
v -1.158747 0.7384048 -0.2111891
v -1.158747 0.7384048 -0.1617491
v -1.158747 0.06719209 -0.2111891
v -1.155216 0 -0.1652803
v -1.155216 0 -0.2076578
v -1.158747 0.06719209 0.2111891
v -1.158747 0.7384048 0.2111891
v -1.109307 0.7384048 0.2111891
v -1.109307 0.06719209 0.2111891
v -1.155216 0 0.2076578
v -1.112839 0 0.2076578
v -1.158747 0.7384048 0.1617491
v -1.109307 0.06719209 0.1617491
v -1.109307 0.7384048 0.1617491
v -1.158747 0.06719209 0.1617491
v -1.112839 0 0.1652803
v -1.155216 0 0.1652803
v -1.155216 0 0.1652803
v -1.155216 0 0.2076578
v -1.112839 0 0.2076578
v -1.112839 0 0.1652803
v -1.109307 0.06719209 0.2111891
v -1.109307 0.7384048 0.2111891
v -1.109307 0.7384048 0.1617491
v -1.109307 0.06719209 0.1617491
v -1.112839 0 0.2076578
v -1.112839 0 0.1652803
v -1.158747 0.06719209 0.1617491
v -1.158747 0.7384048 0.1617491
v -1.158747 0.7384048 0.2111891
v -1.158747 0.06719209 0.2111891
v -1.155216 0 0.1652803
v -1.155216 0 0.2076578
v -1.154423 0.2121285 0.1617491
v -1.154423 0.2121285 -0.1617491
v -1.113223 0.2121285 -0.1617491
v -1.113223 0.2121285 0.1617491
v -1.154423 0.1709284 -0.1617491
v -1.154423 0.1709284 0.1617491
v -1.113223 0.1709284 0.1617491
v -1.113223 0.1709284 -0.1617491
v -1.113223 0.1709284 0.1617491
v -1.113223 0.2121285 0.1617491
v -1.113223 0.2121285 -0.1617491
v -1.113223 0.1709284 -0.1617491
v -1.154423 0.1709284 -0.1617491
v -1.154423 0.2121285 -0.1617491
v -1.154423 0.2121285 0.1617491
v -1.154423 0.1709284 0.1617491
v -1.19289 0.6550462 0.2342568
v -1.19289 0.7384049 0.2342568
v 1.19289 0.7384049 0.2342568
v 1.19289 0.6550462 0.2342568
v -1.19289 0.7384049 -0.2342568
v -1.19289 0.6550462 -0.2342568
v 1.19289 0.6550462 -0.2342568
v 1.19289 0.7384049 -0.2342568
v 1.19289 0.6550462 -0.2342568
v 1.19289 0.6550462 0.2342568
v 1.19289 0.7384049 0.2342568
v 1.19289 0.7384049 -0.2342568
v -1.19289 0.6550462 0.2342568
v -1.19289 0.6550462 -0.2342568
v -1.19289 0.7384049 -0.2342568
v -1.19289 0.7384049 0.2342568
v -1.19289 0.6550462 -0.2342568
v -1.158747 0.6550462 -0.2112084
v 1.158747 0.6550462 -0.2112084
v 1.19289 0.6550462 -0.2342568
v 1.158747 0.6550462 -0.2112084
v 1.158747 0.6550462 0.2112084
v 1.19289 0.6550462 0.2342568
v 1.19289 0.6550462 -0.2342568
v 1.19289 0.6550462 0.2342568
v 1.158747 0.6550462 0.2112084
v -1.158747 0.6550462 0.2112084
v -1.19289 0.6550462 0.2342568
v -1.158747 0.6550462 0.2112084
v -1.158747 0.6550462 -0.2112084
v -1.19289 0.6550462 -0.2342568
v -1.19289 0.6550462 0.2342568
v 1.158747 0.7384049 -0.2112084
v 1.158747 0.6550462 -0.2112084
v -1.158747 0.6550462 -0.2112084
v -1.158747 0.7384049 -0.2112084
v -1.158747 0.7384049 0.2112084
v -1.158747 0.6550462 0.2112084
v 1.158747 0.6550462 0.2112084
v 1.158747 0.7384049 0.2112084
v -1.158747 0.7384049 0.2112084
v -1.158747 0.7384049 -0.2112084
v -1.158747 0.6550462 -0.2112084
v -1.158747 0.6550462 0.2112084
v 1.158747 0.7384049 -0.2112084
v 1.158747 0.7384049 0.2112084
v 1.158747 0.6550462 0.2112084
v 1.158747 0.6550462 -0.2112084
v -1.267695 0.7384049 0.2732008
v -1.267695 0.7728259 0.2732008
v 1.267695 0.7728259 0.2732008
v 1.267695 0.7384049 0.2732008
v -1.267695 0.7728259 0.2732008
v -1.267695 0.7728259 -0.2732008
v 1.267695 0.7728259 -0.2732008
v 1.267695 0.7728259 0.2732008
v -1.267695 0.7728259 -0.2732008
v -1.267695 0.7384049 -0.2732008
v 1.267695 0.7384049 -0.2732008
v 1.267695 0.7728259 -0.2732008
v -1.267695 0.7384049 -0.2732008
v -1.267695 0.7384049 0.2732008
v 1.267695 0.7384049 0.2732008
v 1.267695 0.7384049 -0.2732008
v 1.267695 0.7384049 0.2732008
v 1.267695 0.7728259 0.2732008
v 1.267695 0.7728259 -0.2732008
v 1.267695 0.7384049 -0.2732008
v -1.267695 0.7384049 -0.2732008
v -1.267695 0.7728259 -0.2732008
v -1.267695 0.7728259 0.2732008
v -1.267695 0.7384049 0.2732008
v 1.158747 0.06719209 -0.2111891
v 1.158747 0.7384048 -0.2111891
v 1.109307 0.7384048 -0.2111891
v 1.109307 0.06719209 -0.2111891
v 1.155216 0 -0.2076578
v 1.112839 0 -0.2076578
v 1.158747 0.7384048 -0.1617491
v 1.109307 0.06719209 -0.1617491
v 1.109307 0.7384048 -0.1617491
v 1.158747 0.06719209 -0.1617491
v 1.112839 0 -0.1652803
v 1.155216 0 -0.1652803
v 1.155216 0 -0.1652803
v 1.155216 0 -0.2076578
v 1.112839 0 -0.2076578
v 1.112839 0 -0.1652803
v 1.109307 0.06719209 -0.2111891
v 1.109307 0.7384048 -0.2111891
v 1.109307 0.7384048 -0.1617491
v 1.109307 0.06719209 -0.1617491
v 1.112839 0 -0.2076578
v 1.112839 0 -0.1652803
v 1.158747 0.06719209 -0.1617491
v 1.158747 0.7384048 -0.1617491
v 1.158747 0.7384048 -0.2111891
v 1.158747 0.06719209 -0.2111891
v 1.155216 0 -0.1652803
v 1.155216 0 -0.2076578
v 1.158747 0.06719209 0.2111891
v 1.109307 0.7384048 0.2111891
v 1.158747 0.7384048 0.2111891
v 1.109307 0.06719209 0.2111891
v 1.155216 0 0.2076578
v 1.112839 0 0.2076578
v 1.158747 0.7384048 0.1617491
v 1.109307 0.7384048 0.1617491
v 1.109307 0.06719209 0.1617491
v 1.158747 0.06719209 0.1617491
v 1.112839 0 0.1652803
v 1.155216 0 0.1652803
v 1.155216 0 0.1652803
v 1.112839 0 0.1652803
v 1.112839 0 0.2076578
v 1.155216 0 0.2076578
v 1.109307 0.06719209 0.2111891
v 1.109307 0.7384048 0.1617491
v 1.109307 0.7384048 0.2111891
v 1.109307 0.06719209 0.1617491
v 1.112839 0 0.2076578
v 1.112839 0 0.1652803
v 1.158747 0.06719209 0.1617491
v 1.158747 0.7384048 0.2111891
v 1.158747 0.7384048 0.1617491
v 1.158747 0.06719209 0.2111891
v 1.155216 0 0.1652803
v 1.155216 0 0.2076578
v 1.154423 0.2121285 0.1617491
v 1.113223 0.2121285 0.1617491
v 1.113223 0.2121285 -0.1617491
v 1.154423 0.2121285 -0.1617491
v 1.154423 0.1709284 -0.1617491
v 1.113223 0.1709284 -0.1617491
v 1.113223 0.1709284 0.1617491
v 1.154423 0.1709284 0.1617491
v 1.113223 0.1709284 0.1617491
v 1.113223 0.1709284 -0.1617491
v 1.113223 0.2121285 -0.1617491
v 1.113223 0.2121285 0.1617491
v 1.154423 0.1709284 -0.1617491
v 1.154423 0.1709284 0.1617491
v 1.154423 0.2121285 0.1617491
v 1.154423 0.2121285 -0.1617491
vt 0.3530273 0.08929443
vt 0.05673218 0.1121216
vt 0.05673218 0.08929443
vt 0.3530273 0.1121216
vt 0.3847656 0.08929443
vt 0.3847656 0.1121216
vt 0.0567627 0.06640625
vt 0.05679321 0.04354858
vt 0.3530273 0.04354858
vt 0.3530273 0.06640625
vt 0.3847656 0.04354858
vt 0.3847656 0.06640625
vt 0.402832 0.08929443
vt 0.402832 0.1121216
vt 0.3847656 0.1121216
vt 0.3847656 0.08929443
vt 0.3530273 0.1121216
vt 0.05673218 0.1350098
vt 0.05673218 0.1121216
vt 0.3530273 0.1350098
vt 0.3847656 0.1121216
vt 0.3847656 0.1350098
vt 0.3530273 0.06640625
vt 0.05673218 0.08929443
vt 0.0567627 0.06640625
vt 0.3530273 0.08929443
vt 0.3847656 0.06640625
vt 0.3847656 0.08929443
vt 1.352539 0.08929443
vt 1.056641 0.08929443
vt 1.056641 0.1121216
vt 1.352539 0.1121216
vt 1.384766 0.08929443
vt 1.384766 0.1121216
vt 1.056641 0.06640625
vt 1.352539 0.04354858
vt 1.056641 0.04354858
vt 1.352539 0.06640625
vt 1.384766 0.04354858
vt 1.384766 0.06640625
vt 1.402344 0.08929443
vt 1.384766 0.08929443
vt 1.384766 0.1121216
vt 1.402344 0.1121216
vt 1.352539 0.1121216
vt 1.056641 0.1121216
vt 1.056641 0.1350098
vt 1.352539 0.1350098
vt 1.384766 0.1121216
vt 1.384766 0.1350098
vt 1.352539 0.06640625
vt 1.056641 0.06640625
vt 1.056641 0.08929443
vt 1.352539 0.08929443
vt 1.384766 0.06640625
vt 1.384766 0.08929443
vt 0.4680176 0.09362793
vt 0.6557617 0.09362793
vt 0.6557617 0.07019043
vt 0.4680176 0.07019043
vt 0.6557617 0.1171265
vt 0.4680176 0.1171265
vt 0.4680176 0.1405029
vt 0.6557617 0.1405029
vt 0.4680176 0.04675293
vt 0.4680176 0.07019043
vt 0.6557617 0.07019043
vt 0.6557617 0.04675293
vt 0.6557617 0.1171265
vt 0.6557617 0.09362793
vt 0.4680176 0.09362793
vt 0.4680176 0.1171265
vt 1.013672 0.309082
vt 1.013672 0.3469238
vt 1.987305 0.3469238
vt 1.987305 0.309082
vt 0.9873047 0.3469238
vt 0.9873047 0.309082
vt 0.01352692 0.309082
vt 0.01352692 0.3469238
vt 0.9936523 0.166626
vt 0.6479492 0.166626
vt 0.6479492 0.2209473
vt 0.9936523 0.2209473
vt 1.993164 0.166626
vt 1.648438 0.166626
vt 1.648438 0.2209473
vt 1.993164 0.2209473
vt 0.9873047 0.309082
vt 0.9682617 0.2885742
vt 0.03265381 0.2885742
vt 0.01352692 0.309082
vt 0.9677734 0.1427002
vt 0.6738281 0.1427002
vt 0.6479492 0.166626
vt 0.9936523 0.166626
vt 1.987305 0.309082
vt 1.967773 0.2885742
vt 1.032227 0.2885742
vt 1.013672 0.309082
vt 1.967773 0.1427002
vt 1.673828 0.1427002
vt 1.648438 0.166626
vt 1.993164 0.166626
vt 0.03265381 0.2467041
vt 0.03265381 0.2885742
vt 0.9682617 0.2885742
vt 0.9682617 0.2467041
vt 1.032227 0.2467041
vt 1.032227 0.2885742
vt 1.967773 0.2885742
vt 1.967773 0.2467041
vt 1.967773 0.08374023
vt 1.673828 0.08374023
vt 1.673828 0.1427002
vt 1.967773 0.1427002
vt 0.9677734 0.08374023
vt 0.6738281 0.08374023
vt 0.6738281 0.1427002
vt 0.9677734 0.1427002
vt 0.01615906 0.730957
vt 0.01615906 0.7446289
vt 0.9736328 0.7446289
vt 0.9736328 0.730957
vt 0.01615906 0.7446289
vt 0.01615906 0.9628906
vt 0.9736328 0.9628906
vt 0.9736328 0.7446289
vt 0.01615906 0.9628906
vt 0.01615906 0.9765625
vt 0.9736328 0.9765625
vt 0.9736328 0.9628906
vt 0.01615906 0.4851074
vt 0.01615906 0.7036133
vt 0.9736328 0.7036133
vt 0.9736328 0.4851074
vt 0.9868164 0.7446289
vt 0.9736328 0.7446289
vt 0.9736328 0.9628906
vt 0.9868164 0.9628906
vt 0.002655029 0.9628906
vt 0.01615906 0.9628906
vt 0.01615906 0.7446289
vt 0.002655029 0.7446289
vt 1.352539 0.08929443
vt 1.056641 0.08929443
vt 1.056641 0.1121216
vt 1.352539 0.1121216
vt 1.384766 0.08929443
vt 1.384766 0.1121216
vt 1.056641 0.06640625
vt 1.352539 0.04354858
vt 1.056641 0.04354858
vt 1.352539 0.06640625
vt 1.384766 0.04354858
vt 1.384766 0.06640625
vt 1.402344 0.08929443
vt 1.384766 0.08929443
vt 1.384766 0.1121216
vt 1.402344 0.1121216
vt 1.352539 0.1121216
vt 1.056641 0.1121216
vt 1.056641 0.1350098
vt 1.352539 0.1350098
vt 1.384766 0.1121216
vt 1.384766 0.1350098
vt 1.352539 0.06640625
vt 1.056641 0.06640625
vt 1.056641 0.08929443
vt 1.352539 0.08929443
vt 1.384766 0.06640625
vt 1.384766 0.08929443
vt 1.352539 0.08929443
vt 1.056641 0.1121216
vt 1.056641 0.08929443
vt 1.352539 0.1121216
vt 1.384766 0.08929443
vt 1.384766 0.1121216
vt 1.056641 0.06640625
vt 1.056641 0.04354858
vt 1.352539 0.04354858
vt 1.352539 0.06640625
vt 1.384766 0.04354858
vt 1.384766 0.06640625
vt 1.402344 0.08929443
vt 1.402344 0.1121216
vt 1.384766 0.1121216
vt 1.384766 0.08929443
vt 1.352539 0.1121216
vt 1.056641 0.1350098
vt 1.056641 0.1121216
vt 1.352539 0.1350098
vt 1.384766 0.1121216
vt 1.384766 0.1350098
vt 1.352539 0.06640625
vt 1.056641 0.08929443
vt 1.056641 0.06640625
vt 1.352539 0.08929443
vt 1.384766 0.06640625
vt 1.384766 0.08929443
vt 1.467773 0.09362793
vt 1.467773 0.07019043
vt 1.655273 0.07019043
vt 1.655273 0.09362793
vt 1.655273 0.1171265
vt 1.655273 0.1405029
vt 1.467773 0.1405029
vt 1.467773 0.1171265
vt 1.467773 0.04675293
vt 1.655273 0.04675293
vt 1.655273 0.07019043
vt 1.467773 0.07019043
vt 1.655273 0.1171265
vt 1.467773 0.1171265
vt 1.467773 0.09362793
vt 1.655273 0.09362793
vn -0 -0.004333496 -1
vn -0 0 -1
vn -0 0 -1
vn -0 -0.004333496 -1
vn -0 -0.05249023 -0.9985352
vn -0 -0.05249023 -0.9985352
vn -0 0 1
vn -0 0 1
vn -0 -0.004333496 1
vn -0 -0.004333496 1
vn -0 -0.05249023 0.9985352
vn -0 -0.05249023 0.9985352
vn -0 -1 0
vn -0 -1 0
vn -0 -1 0
vn -0 -1 0
vn 1 -0.004333496 0
vn 1 0 0
vn 1 0 0
vn 1 -0.004333496 0
vn 0.9985352 -0.05249023 0
vn 0.9985352 -0.05249023 0
vn -1 -0.004333496 0
vn -1 0 0
vn -1 0 0
vn -1 -0.004333496 0
vn -0.9985352 -0.05249023 0
vn -0.9985352 -0.05249023 0
vn -0 -0.004333496 1
vn -0 0 1
vn -0 0 1
vn -0 -0.004333496 1
vn -0 -0.05249023 0.9985352
vn -0 -0.05249023 0.9985352
vn -0 0 -1
vn -0 -0.004333496 -1
vn -0 0 -1
vn -0 -0.004333496 -1
vn -0 -0.05249023 -0.9985352
vn -0 -0.05249023 -0.9985352
vn -0 -1 0
vn -0 -1 0
vn -0 -1 0
vn -0 -1 0
vn 1 -0.004333496 0
vn 1 0 0
vn 1 0 0
vn 1 -0.004333496 0
vn 0.9985352 -0.05249023 0
vn 0.9985352 -0.05249023 0
vn -1 -0.004333496 0
vn -1 0 0
vn -1 0 0
vn -1 -0.004333496 0
vn -0.9985352 -0.05249023 0
vn -0.9985352 -0.05249023 0
vn -0 1 0
vn -0 1 0
vn -0 1 0
vn -0 1 0
vn -0 -1 0
vn -0 -1 0
vn -0 -1 0
vn -0 -1 0
vn 1 0 0
vn 1 0 0
vn 1 0 0
vn 1 0 0
vn -1 0 0
vn -1 0 0
vn -1 0 0
vn -1 0 0
vn -0 -1.192093E-07 1
vn -0 -1.192093E-07 1
vn -0 -1.192093E-07 1
vn -0 -1.192093E-07 1
vn -0 -1.192093E-07 -1
vn -0 -1.192093E-07 -1
vn -0 -1.192093E-07 -1
vn -0 -1.192093E-07 -1
vn 1 -1.251698E-06 0
vn 1 -1.251698E-06 0
vn 1 -1.251698E-06 0
vn 1 -1.251698E-06 0
vn -1 -1.251698E-06 0
vn -1 -1.251698E-06 0
vn -1 -1.251698E-06 0
vn -1 -1.251698E-06 0
vn -0 -1 -6.556511E-07
vn -0 -1 -7.748604E-07
vn -0 -1 -7.748604E-07
vn -0 -1 -6.556511E-07
vn -0 -1 -7.748604E-07
vn -0 -1 7.748604E-07
vn -0 -1 6.556511E-07
vn -0 -1 -6.556511E-07
vn -0 -1 6.556511E-07
vn -0 -1 7.748604E-07
vn -0 -1 7.748604E-07
vn -0 -1 6.556511E-07
vn -0 -1 7.748604E-07
vn -0 -1 -7.748604E-07
vn -0 -1 -6.556511E-07
vn -0 -1 6.556511E-07
vn -0 0 1
vn -0 0 1
vn -0 0 1
vn -0 0 1
vn -0 0 -1
vn -0 0 -1
vn -0 0 -1
vn -0 0 -1
vn 1 0 0
vn 1 0 0
vn 1 0 0
vn 1 0 0
vn -1 0 0
vn -1 0 0
vn -1 0 0
vn -1 0 0
vn -0 0 1
vn -0 0 1
vn -0 0 1
vn -0 0 1
vn -0 1 0
vn -0 1 0
vn -0 1 0
vn -0 1 0
vn -0 0 -1
vn -0 0 -1
vn -0 0 -1
vn -0 0 -1
vn -0 -1 0
vn -0 -1 0
vn -0 -1 0
vn -0 -1 0
vn 1 0 0
vn 1 0 0
vn 1 0 0
vn 1 0 0
vn -1 0 0
vn -1 0 0
vn -1 0 0
vn -1 0 0
vn -0 -0.004333496 -1
vn -0 0 -1
vn -0 0 -1
vn -0 -0.004333496 -1
vn -0 -0.05249023 -0.9985352
vn -0 -0.05249023 -0.9985352
vn -0 0 1
vn -0 -0.004333496 1
vn -0 0 1
vn -0 -0.004333496 1
vn -0 -0.05249023 0.9985352
vn -0 -0.05249023 0.9985352
vn -0 -1 0
vn -0 -1 0
vn -0 -1 0
vn -0 -1 0
vn -1 -0.004333496 0
vn -1 0 0
vn -1 0 0
vn -1 -0.004333496 0
vn -0.9985352 -0.05249023 0
vn -0.9985352 -0.05249023 0
vn 1 -0.004333496 0
vn 1 0 0
vn 1 0 0
vn 1 -0.004333496 0
vn 0.9985352 -0.05249023 0
vn 0.9985352 -0.05249023 0
vn -0 -0.004333496 1
vn -0 0 1
vn -0 0 1
vn -0 -0.004333496 1
vn -0 -0.05249023 0.9985352
vn -0 -0.05249023 0.9985352
vn -0 0 -1
vn -0 0 -1
vn -0 -0.004333496 -1
vn -0 -0.004333496 -1
vn -0 -0.05249023 -0.9985352
vn -0 -0.05249023 -0.9985352
vn -0 -1 0
vn -0 -1 0
vn -0 -1 0
vn -0 -1 0
vn -1 -0.004333496 0
vn -1 0 0
vn -1 0 0
vn -1 -0.004333496 0
vn -0.9985352 -0.05249023 0
vn -0.9985352 -0.05249023 0
vn 1 -0.004333496 0
vn 1 0 0
vn 1 0 0
vn 1 -0.004333496 0
vn 0.9985352 -0.05249023 0
vn 0.9985352 -0.05249023 0
vn -0 1 0
vn -0 1 0
vn -0 1 0
vn -0 1 0
vn -0 -1 0
vn -0 -1 0
vn -0 -1 0
vn -0 -1 0
vn -1 0 0
vn -1 0 0
vn -1 0 0
vn -1 0 0
vn 1 0 0
vn 1 0 0
vn 1 0 0
vn 1 0 0
g body_geo_0
f 3/3/3 2/2/2 1/1/1
f 2/2/2 4/4/4 1/1/1
f 1/1/1 4/4/4 5/5/5
f 4/4/4 6/6/6 5/5/5
f 9/9/9 8/8/8 7/7/7
f 10/10/10 9/9/9 7/7/7
f 11/11/11 9/9/9 10/10/10
f 12/12/12 11/11/11 10/10/10
f 15/15/15 14/14/14 13/13/13
f 16/16/16 15/15/15 13/13/13
f 19/19/19 18/18/18 17/17/17
f 18/18/18 20/20/20 17/17/17
f 17/17/17 20/20/20 21/21/21
f 20/20/20 22/22/22 21/21/21
f 25/25/25 24/24/24 23/23/23
f 24/24/24 26/26/26 23/23/23
f 23/23/23 26/26/26 27/27/27
f 26/26/26 28/28/28 27/27/27
f 31/31/31 30/30/30 29/29/29
f 32/32/32 31/31/31 29/29/29
f 32/32/32 29/29/29 33/33/33
f 34/34/34 32/32/32 33/33/33
f 37/37/37 36/36/36 35/35/35
f 36/36/36 38/38/38 35/35/35
f 36/36/36 39/39/39 38/38/38
f 39/39/39 40/40/40 38/38/38
f 43/43/43 42/42/42 41/41/41
f 44/44/44 43/43/43 41/41/41
f 47/47/47 46/46/46 45/45/45
f 48/48/48 47/47/47 45/45/45
f 48/48/48 45/45/45 49/49/49
f 50/50/50 48/48/48 49/49/49
f 53/53/53 52/52/52 51/51/51
f 54/54/54 53/53/53 51/51/51
f 54/54/54 51/51/51 55/55/55
f 56/56/56 54/54/54 55/55/55
f 59/59/59 58/58/58 57/57/57
f 60/60/60 59/59/59 57/57/57
f 63/63/63 62/62/62 61/61/61
f 64/64/64 63/63/63 61/61/61
f 67/67/67 66/66/66 65/65/65
f 68/68/68 67/67/67 65/65/65
f 71/71/71 70/70/70 69/69/69
f 72/72/72 71/71/71 69/69/69
f 75/75/75 74/74/74 73/73/73
f 76/76/76 75/75/75 73/73/73
f 79/79/79 78/78/78 77/77/77
f 80/80/80 79/79/79 77/77/77
f 83/83/83 82/82/82 81/81/81
f 84/84/84 83/83/83 81/81/81
f 87/87/87 86/86/86 85/85/85
f 88/88/88 87/87/87 85/85/85
f 91/91/91 90/90/90 89/89/89
f 92/92/92 91/91/91 89/89/89
f 95/95/95 94/94/94 93/93/93
f 96/96/96 95/95/95 93/93/93
f 99/99/99 98/98/98 97/97/97
f 100/100/100 99/99/99 97/97/97
f 103/103/103 102/102/102 101/101/101
f 104/104/104 103/103/103 101/101/101
f 107/107/107 106/106/106 105/105/105
f 108/108/108 107/107/107 105/105/105
f 111/111/111 110/110/110 109/109/109
f 112/112/112 111/111/111 109/109/109
f 115/115/115 114/114/114 113/113/113
f 116/116/116 115/115/115 113/113/113
f 119/119/119 118/118/118 117/117/117
f 120/120/120 119/119/119 117/117/117
f 123/123/123 122/122/122 121/121/121
f 124/124/124 123/123/123 121/121/121
f 127/127/127 126/126/126 125/125/125
f 128/128/128 127/127/127 125/125/125
f 131/131/131 130/130/130 129/129/129
f 132/132/132 131/131/131 129/129/129
f 135/135/135 134/134/134 133/133/133
f 136/136/136 135/135/135 133/133/133
f 139/139/139 138/138/138 137/137/137
f 140/140/140 139/139/139 137/137/137
f 143/143/143 142/142/142 141/141/141
f 144/144/144 143/143/143 141/141/141
f 147/147/147 146/146/146 145/145/145
f 148/148/148 147/147/147 145/145/145
f 148/148/148 145/145/145 149/149/149
f 150/150/150 148/148/148 149/149/149
f 153/153/153 152/152/152 151/151/151
f 152/152/152 154/154/154 151/151/151
f 152/152/152 155/155/155 154/154/154
f 155/155/155 156/156/156 154/154/154
f 159/159/159 158/158/158 157/157/157
f 160/160/160 159/159/159 157/157/157
f 163/163/163 162/162/162 161/161/161
f 164/164/164 163/163/163 161/161/161
f 164/164/164 161/161/161 165/165/165
f 166/166/166 164/164/164 165/165/165
f 169/169/169 168/168/168 167/167/167
f 170/170/170 169/169/169 167/167/167
f 170/170/170 167/167/167 171/171/171
f 172/172/172 170/170/170 171/171/171
f 175/175/175 174/174/174 173/173/173
f 174/174/174 176/176/176 173/173/173
f 173/173/173 176/176/176 177/177/177
f 176/176/176 178/178/178 177/177/177
f 181/181/181 180/180/180 179/179/179
f 182/182/182 181/181/181 179/179/179
f 183/183/183 181/181/181 182/182/182
f 184/184/184 183/183/183 182/182/182
f 187/187/187 186/186/186 185/185/185
f 188/188/188 187/187/187 185/185/185
f 191/191/191 190/190/190 189/189/189
f 190/190/190 192/192/192 189/189/189
f 189/189/189 192/192/192 193/193/193
f 192/192/192 194/194/194 193/193/193
f 197/197/197 196/196/196 195/195/195
f 196/196/196 198/198/198 195/195/195
f 195/195/195 198/198/198 199/199/199
f 198/198/198 200/200/200 199/199/199
f 203/203/203 202/202/202 201/201/201
f 204/204/204 203/203/203 201/201/201
f 207/207/207 206/206/206 205/205/205
f 208/208/208 207/207/207 205/205/205
f 211/211/211 210/210/210 209/209/209
f 212/212/212 211/211/211 209/209/209
f 215/215/215 214/214/214 213/213/213
f 216/216/216 215/215/215 213/213/213
