g facial_eye_geo
v -0.1226892 1.568795 0.1044404
v -0.09535933 1.525977 0.1285644
v -0.1070219 1.531085 0.1041179
v -0.1129004 1.553739 0.1326097
v -0.1107469 1.59218 0.1017953
v -0.07939535 1.525328 0.1502604
v -0.09907604 1.585106 0.1263019
v -0.1093986 1.605715 0.1009031
v -0.08745796 1.55056 0.1522246
v -0.06236425 1.528379 0.1599971
v -0.05567048 1.55231 0.1596214
v -0.03602835 1.530212 0.1640832
v -0.1019778 1.610637 0.1269278
v -0.1050332 1.640921 0.1298135
v -0.1148318 1.638551 0.09674411
v -0.1029144 1.657648 0.1238302
v -0.116167 1.662243 0.0823275
v -0.1031334 1.682447 0.110111
v -0.09316315 1.68455 0.1293653
v -0.09429074 1.659467 0.1405945
v -0.06555784 1.683051 0.1462032
v -0.09614592 1.649692 0.1495332
v -0.09543819 1.624551 0.1514691
v -0.08393901 1.607214 0.1413229
v -0.09266475 1.617574 0.1483226
v -0.08015954 1.573928 0.1426659
v -0.0559747 1.57495 0.1504696
v -0.06684607 1.609551 0.1492115
v -0.07965942 1.616737 0.1566456
v -0.0839778 1.624839 0.1607313
v -0.06794216 1.643591 0.1646205
v -0.04975308 1.60882 0.1542513
v -0.02519862 1.583948 0.1556095
v -0.06383218 1.611245 0.1634738
v -0.0680527 1.623336 0.1676122
v -0.04737385 1.605596 0.1674743
v -0.06748378 1.654804 0.1560382
v -0.04894808 1.61832 0.1723927
v -0.02866103 1.597264 0.1580274
v -0.03387162 1.648376 0.1667375
v -0.03260492 1.6815 0.1561235
v -0.03385058 1.635762 0.1741748
v -4.768371E-09 1.631406 0.1742013
v 2.384186E-09 1.643368 0.1685514
v -7.638965E-17 1.677873 0.1583458
v 0.03260492 1.6815 0.1561235
v 0.03387162 1.648376 0.1667375
v 0.06555784 1.683051 0.1462032
v -0.03237426 1.615797 0.1757335
v -0.01618714 1.615522 0.1768415
v -0.03133162 1.600461 0.1700352
v -0.01735151 1.595573 0.1673682
v -0.01566581 1.603256 0.1735442
v 4.768371E-09 1.607333 0.1770533
v -7.850272E-17 1.617175 0.1779496
v 0.06748378 1.654804 0.1560382
v 0.03385059 1.635762 0.1741748
v 0.01618713 1.615522 0.1768415
v 0.09429074 1.659467 0.1405945
v 0.09316316 1.68455 0.1293653
v 0.0156658 1.603256 0.1735442
v 0.06794217 1.643591 0.1646205
v 0.1029144 1.657648 0.1238302
v 0.1031334 1.682447 0.110111
v 0.116167 1.662243 0.0823275
v 0.1148318 1.638551 0.09674411
v 0.09614592 1.649692 0.1495332
v 0.1050332 1.640921 0.1298135
v 0.1093986 1.605715 0.1009031
v 0.01735151 1.595573 0.1673682
v 0.03133162 1.600461 0.1700352
v -7.850273E-17 1.591465 0.1751154
v 0.03237426 1.615797 0.1757335
v 0.04894808 1.61832 0.1723927
v 0.04737384 1.605596 0.1674743
v 0.0680527 1.623336 0.1676122
v 0.02866103 1.597264 0.1580274
v -0.01352902 1.569625 0.1799071
v 0.0839778 1.624839 0.1607313
v 0.09543819 1.624551 0.1514691
v 0.07965942 1.616737 0.1566456
v 0.06383218 1.611245 0.1634738
v 0.04975308 1.60882 0.1542513
v 0.1019778 1.610637 0.1269279
v 0.09266475 1.617574 0.1483226
v 0.09907604 1.585106 0.1263019
v 0.1107469 1.59218 0.1017953
v 0.06684606 1.609551 0.1492115
v 0.083939 1.607214 0.1413229
v 0.02519862 1.583948 0.1556095
v 0.0559747 1.57495 0.1504696
v 0.1129004 1.553739 0.1326097
v 0.1226892 1.568795 0.1044404
v 0.08015954 1.573928 0.1426658
v 0.08745796 1.55056 0.1522246
v 0.09535933 1.525977 0.1285644
v 0.1070219 1.531085 0.1041179
v 0.07939535 1.525328 0.1502604
v 0.06236425 1.528379 0.1599971
v 0.05567049 1.55231 0.1596214
v 0.03602836 1.530212 0.1640832
v 0.02258132 1.562298 0.1670687
v 0.01352902 1.569625 0.1799071
v 0.01357776 1.554658 0.184191
v 0.02231148 1.542857 0.1745877
v 0.02868207 1.535251 0.1762559
v 0.01376712 1.540058 0.1933544
v -4.768371E-09 1.539111 0.2038989
v -7.850272E-17 1.570402 0.185851
v -0.01357776 1.554658 0.184191
v -7.850272E-17 1.554445 0.1926506
v -0.01376712 1.540058 0.1933544
v -0.02868207 1.535251 0.1762559
v -0.02258132 1.562298 0.1670687
v -0.02231148 1.542857 0.1745877
vt 0.1378174 0.3742676
vt 0.1673584 0.3439941
vt 0.1459961 0.345459
vt 0.1599121 0.3652344
vt 0.1350098 0.3933105
vt 0.1871338 0.3439941
vt 0.1612549 0.3908691
vt 0.1379395 0.4123535
vt 0.1827393 0.3625488
vt 0.2011719 0.3461914
vt 0.204834 0.3630371
vt 0.2183838 0.3457031
vt 0.161499 0.4128418
vt 0.1645508 0.4372559
vt 0.1379395 0.439209
vt 0.1624756 0.4519043
vt 0.1235962 0.4521484
vt 0.1533203 0.4719238
vt 0.1721191 0.4726562
vt 0.1768799 0.4519043
vt 0.197876 0.4719238
vt 0.180542 0.4428711
vt 0.1800537 0.4245605
vt 0.1801758 0.4055176
vt 0.1791992 0.4187012
vt 0.1820068 0.3818359
vt 0.2012939 0.3818359
vt 0.1947021 0.4069824
vt 0.1906738 0.4179688
vt 0.1900635 0.4248047
vt 0.2020264 0.4382324
vt 0.2071533 0.4064941
vt 0.2250977 0.3901367
vt 0.203125 0.4143066
vt 0.2017822 0.4233398
vt 0.2147217 0.4091797
vt 0.2000732 0.4487305
vt 0.2150879 0.4182129
vt 0.2252197 0.3989258
vt 0.2253418 0.4406738
vt 0.2246094 0.4699707
vt 0.2263184 0.4279785
vt 0.25 0.4255371
vt 0.25 0.4367676
vt 0.25 0.467041
vt 0.2753906 0.4699707
vt 0.2746582 0.4406738
vt 0.3022461 0.4719238
vt 0.2270508 0.4145508
vt 0.2386475 0.4125977
vt 0.2258301 0.4033203
vt 0.2348633 0.3942871
vt 0.237915 0.4025879
vt 0.25 0.4055176
vt 0.25 0.4133301
vt 0.3000488 0.4487305
vt 0.2736816 0.4279785
vt 0.2614746 0.4125977
vt 0.3232422 0.4519043
vt 0.3278809 0.4726562
vt 0.262207 0.4025879
vt 0.2980957 0.4382324
vt 0.3376465 0.4519043
vt 0.3466797 0.4719238
vt 0.3764648 0.4521484
vt 0.3620605 0.439209
vt 0.3193359 0.4428711
vt 0.3354492 0.4372559
vt 0.3620605 0.4123535
vt 0.2651367 0.3942871
vt 0.2741699 0.4033203
vt 0.25 0.3933105
vt 0.2729492 0.4145508
vt 0.2849121 0.4182129
vt 0.2854004 0.4091797
vt 0.2983398 0.4233398
vt 0.2749023 0.3989258
vt 0.2401123 0.3762207
vt 0.3098145 0.4248047
vt 0.3200684 0.4245605
vt 0.3093262 0.4179688
vt 0.296875 0.4143066
vt 0.2929688 0.4064941
vt 0.338623 0.4128418
vt 0.3208008 0.4187012
vt 0.3388672 0.3908691
vt 0.3649902 0.3933105
vt 0.3054199 0.4069824
vt 0.3198242 0.4055176
vt 0.2749023 0.3901367
vt 0.298584 0.3818359
vt 0.3400879 0.3652344
vt 0.3623047 0.3742676
vt 0.3181152 0.3818359
vt 0.3171387 0.3625488
vt 0.3327637 0.3439941
vt 0.3540039 0.345459
vt 0.3129883 0.3439941
vt 0.2988281 0.3461914
vt 0.295166 0.3630371
vt 0.2817383 0.3457031
vt 0.2722168 0.3720703
vt 0.2600098 0.3762207
vt 0.260498 0.3649902
vt 0.2705078 0.3569336
vt 0.2722168 0.3496094
vt 0.2590332 0.3537598
vt 0.25 0.3525391
vt 0.25 0.3759766
vt 0.239502 0.3649902
vt 0.25 0.3640137
vt 0.2408447 0.3537598
vt 0.2277832 0.3496094
vt 0.2277832 0.3720703
vt 0.2296143 0.3569336
vn -0.9692248 0.03857631 0.2431365
vn -0.8229587 -0.3413375 0.454123
vn -0.8975378 -0.3269626 0.2958399
vn -0.8593673 -0.132154 0.493987
vn -0.8807061 0.3239661 0.3455468
vn -0.5979985 -0.2450109 0.7631301
vn -0.7426143 0.2764924 0.6099803
vn -0.9515027 -0.06897359 0.2998087
vn -0.5445694 -0.05152366 0.8371317
vn -0.3289565 -0.1195888 0.9367423
vn -0.263771 0.1543988 0.952148
vn -0.4465789 0.02072791 0.8945041
vn -0.8970228 -0.1577806 0.4128623
vn -0.9492694 0.01038193 0.3142925
vn -0.9722157 -0.003894808 0.2340546
vn -0.9111364 0.2080681 0.3557221
vn -0.9744196 0.1217263 0.1889159
vn -0.89463 0.2832014 0.3455926
vn -0.6160882 0.4115698 0.6715994
vn -0.5719019 0.3983537 0.7171071
vn -0.3371667 0.4394413 0.8325923
vn -0.5852197 0.3959804 0.7076139
vn -0.8195717 -0.1642043 0.5489437
vn -0.4625605 -0.1959282 0.8646676
vn -0.5100166 -0.6494406 0.5640124
vn -0.415884 0.1721691 0.8929717
vn -0.2750692 0.1340854 0.9520283
vn -0.3348791 -0.2037278 0.9199734
vn -0.4069088 -0.6895791 0.5990875
vn -0.4957435 -0.1080171 0.8617254
vn -0.249259 0.4281419 0.8686567
vn -0.3262362 -0.4311351 0.8412446
vn -0.4464431 0.1303778 0.8852628
vn -0.3904943 -0.7099833 0.5860358
vn -0.3510428 -0.1598601 0.9226124
vn -0.3735901 -0.6598418 0.6519504
vn -0.2915127 0.4205215 0.8591752
vn -0.2677762 -0.1357436 0.9538708
vn -0.4558792 -0.6092204 0.6488642
vn -0.09963262 0.3764419 0.9210672
vn -0.129828 0.4229899 0.8967855
vn -0.07804354 0.3657505 0.927435
vn -0 0.3697275 0.9291403
vn -0 0.3534989 0.9354349
vn -0 0.4227393 0.9062514
vn 0.129828 0.4229901 0.8967854
vn 0.09963267 0.3764418 0.9210672
vn 0.3371663 0.4394408 0.8325927
vn -0.164869 -0.1864968 0.9685232
vn -0.06250058 -0.05728947 0.9963993
vn -0.2357648 -0.5799689 0.7797763
vn -0.5929855 -0.07524987 0.8016892
vn -0.09100306 -0.3677292 0.9254694
vn 7.760441E-07 -0.1966236 0.9804791
vn -5.044768E-07 0.0007836184 0.9999998
vn 0.2915119 0.4205203 0.859176
vn 0.07804342 0.3657499 0.9274353
vn 0.06250057 -0.05728894 0.9963993
vn 0.5719007 0.3983526 0.7171087
vn 0.6160874 0.4115695 0.6716002
vn 0.09100327 -0.3677303 0.925469
vn 0.2492578 0.4281405 0.8686578
vn 0.911136 0.2080678 0.355723
vn 0.8946299 0.2832015 0.3455927
vn 0.9744195 0.1217266 0.1889161
vn 0.9722158 -0.003894885 0.2340541
vn 0.5852196 0.3959799 0.7076143
vn 0.9492692 0.01038195 0.3142931
vn 0.9515026 -0.06897371 0.299809
vn 0.5929883 -0.07525039 0.8016872
vn 0.2357658 -0.5799723 0.7797735
vn 1.082122E-06 0.2483904 0.9686601
vn 0.1648682 -0.1864957 0.9685236
vn 0.2677751 -0.1357432 0.9538713
vn 0.3735908 -0.6598439 0.6519477
vn 0.3510397 -0.1598583 0.9226139
vn 0.4558812 -0.6092205 0.6488626
vn -0.6204638 0.2755602 0.7342284
vn 0.4957418 -0.1080159 0.8617265
vn 0.8195707 -0.1642036 0.5489455
vn 0.4069071 -0.6895776 0.5990905
vn 0.3904932 -0.7099816 0.5860386
vn 0.326238 -0.4311387 0.8412421
vn 0.8970219 -0.1577805 0.4128643
vn 0.510015 -0.6494392 0.5640155
vn 0.742614 0.2764922 0.6099808
vn 0.8807061 0.3239663 0.3455466
vn 0.3348787 -0.2037283 0.9199734
vn 0.4625586 -0.1959271 0.8646687
vn 0.4464444 0.1303772 0.8852622
vn 0.2750691 0.1340853 0.9520284
vn 0.8593671 -0.1321537 0.4939874
vn 0.9692248 0.03857629 0.2431364
vn 0.4158838 0.1721697 0.8929716
vn 0.5445681 -0.05152275 0.8371326
vn 0.8229581 -0.341337 0.4541244
vn 0.8975379 -0.3269625 0.2958399
vn 0.5979974 -0.2450103 0.7631311
vn 0.3289562 -0.1195888 0.9367424
vn 0.2637708 0.1543986 0.9521481
vn 0.4465776 0.02072773 0.8945048
vn 0.5286515 0.2460908 0.8123835
vn 0.6204635 0.2755601 0.7342287
vn 0.6429935 0.3672541 0.6720743
vn 0.7837257 0.3505015 0.5127599
vn 0.8287528 0.3064455 0.4682521
vn 0.6587262 0.2911367 0.6937717
vn 5.716717E-07 0.3077546 0.9514657
vn 2.473492E-07 0.3829213 0.9237809
vn -0.642993 0.3672538 0.6720749
vn 4.512206E-07 0.4809132 0.8767681
vn -0.6587266 0.2911367 0.6937713
vn -0.8287523 0.3064449 0.4682532
vn -0.5286497 0.2460903 0.8123848
vn -0.7837257 0.3505013 0.51276
g facial_eye_geo_0
f 3/3/3 2/2/2 1/1/1
f 2/2/2 4/4/4 1/1/1
f 1/1/1 4/4/4 5/5/5
f 4/4/4 2/2/2 6/6/6
f 4/4/4 7/7/7 5/5/5
f 8/8/8 5/5/5 7/7/7
f 9/9/9 4/4/4 6/6/6
f 4/4/4 9/9/9 7/7/7
f 9/9/9 6/6/6 10/10/10
f 11/11/11 9/9/9 10/10/10
f 11/11/11 10/10/10 12/12/12
f 13/13/13 8/8/8 7/7/7
f 14/14/14 8/8/8 13/13/13
f 14/14/14 15/15/15 8/8/8
f 16/16/16 15/15/15 14/14/14
f 17/17/17 15/15/15 16/16/16
f 18/18/18 17/17/17 16/16/16
f 18/18/18 16/16/16 19/19/19
f 16/16/16 20/20/20 19/19/19
f 19/19/19 20/20/20 21/21/21
f 16/16/16 14/14/14 22/22/22
f 20/20/20 16/16/16 22/22/22
f 23/23/23 14/14/14 13/13/13
f 14/14/14 23/23/23 22/22/22
f 24/24/24 13/13/13 7/7/7
f 13/13/13 25/25/25 23/23/23
f 24/24/24 25/25/25 13/13/13
f 7/7/7 26/26/26 24/24/24
f 9/9/9 26/26/26 7/7/7
f 26/26/26 9/9/9 27/27/27
f 24/24/24 26/26/26 27/27/27
f 27/27/27 9/9/9 11/11/11
f 25/25/25 24/24/24 28/28/28
f 28/28/28 24/24/24 27/27/27
f 25/25/25 29/29/29 23/23/23
f 28/28/28 29/29/29 25/25/25
f 23/23/23 30/30/30 22/22/22
f 29/29/29 30/30/30 23/23/23
f 22/22/22 31/31/31 20/20/20
f 22/22/22 30/30/30 31/31/31
f 32/32/32 28/28/28 27/27/27
f 29/29/29 28/28/28 32/32/32
f 27/27/27 11/11/11 33/33/33
f 27/27/27 33/33/33 32/32/32
f 29/29/29 34/34/34 30/30/30
f 32/32/32 34/34/34 29/29/29
f 34/34/34 35/35/35 30/30/30
f 31/31/31 30/30/30 35/35/35
f 36/36/36 34/34/34 32/32/32
f 34/34/34 36/36/36 35/35/35
f 31/31/31 37/37/37 20/20/20
f 20/20/20 37/37/37 21/21/21
f 35/35/35 38/38/38 31/31/31
f 36/36/36 38/38/38 35/35/35
f 36/36/36 32/32/32 39/39/39
f 33/33/33 39/39/39 32/32/32
f 37/37/37 40/40/40 21/21/21
f 40/40/40 41/41/41 21/21/21
f 31/31/31 42/42/42 37/37/37
f 38/38/38 42/42/42 31/31/31
f 42/42/42 40/40/40 37/37/37
f 40/40/40 42/42/42 43/43/43
f 41/41/41 40/40/40 44/44/44
f 44/44/44 40/40/40 43/43/43
f 45/45/45 41/41/41 44/44/44
f 46/46/46 45/45/45 44/44/44
f 47/47/47 46/46/46 44/44/44
f 47/47/47 44/44/44 43/43/43
f 46/46/46 47/47/47 48/48/48
f 38/38/38 49/49/49 42/42/42
f 42/42/42 49/49/49 50/50/50
f 43/43/43 42/42/42 50/50/50
f 51/51/51 49/49/49 38/38/38
f 50/50/50 49/49/49 51/51/51
f 36/36/36 51/51/51 38/38/38
f 39/39/39 51/51/51 36/36/36
f 39/39/39 52/52/52 51/51/51
f 39/39/39 33/33/33 52/52/52
f 53/53/53 50/50/50 51/51/51
f 53/53/53 51/51/51 52/52/52
f 53/53/53 54/54/54 50/50/50
f 53/53/53 52/52/52 54/54/54
f 43/43/43 50/50/50 55/55/55
f 54/54/54 55/55/55 50/50/50
f 47/47/47 56/56/56 48/48/48
f 57/57/57 47/47/47 43/43/43
f 47/47/47 57/57/57 56/56/56
f 58/58/58 43/43/43 55/55/55
f 58/58/58 57/57/57 43/43/43
f 56/56/56 59/59/59 48/48/48
f 59/59/59 60/60/60 48/48/48
f 55/55/55 54/54/54 61/61/61
f 58/58/58 55/55/55 61/61/61
f 57/57/57 62/62/62 56/56/56
f 56/56/56 62/62/62 59/59/59
f 59/59/59 63/63/63 60/60/60
f 63/63/63 64/64/64 60/60/60
f 65/65/65 64/64/64 63/63/63
f 66/66/66 65/65/65 63/63/63
f 63/63/63 59/59/59 67/67/67
f 62/62/62 67/67/67 59/59/59
f 66/66/66 63/63/63 68/68/68
f 68/68/68 63/63/63 67/67/67
f 66/66/66 68/68/68 69/69/69
f 70/70/70 61/61/61 54/54/54
f 58/58/58 61/61/61 71/71/71
f 70/70/70 71/71/71 61/61/61
f 54/54/54 72/72/72 70/70/70
f 72/72/72 54/54/54 52/52/52
f 73/73/73 58/58/58 71/71/71
f 58/58/58 73/73/73 57/57/57
f 57/57/57 73/73/73 74/74/74
f 57/57/57 74/74/74 62/62/62
f 73/73/73 71/71/71 75/75/75
f 74/74/74 73/73/73 75/75/75
f 74/74/74 76/76/76 62/62/62
f 74/74/74 75/75/75 76/76/76
f 70/70/70 77/77/77 71/71/71
f 75/75/75 71/71/71 77/77/77
f 52/52/52 78/78/78 72/72/72
f 78/78/78 52/52/52 33/33/33
f 79/79/79 62/62/62 76/76/76
f 79/79/79 67/67/67 62/62/62
f 79/79/79 80/80/80 67/67/67
f 80/80/80 68/68/68 67/67/67
f 79/79/79 76/76/76 81/81/81
f 79/79/79 81/81/81 80/80/80
f 75/75/75 82/82/82 76/76/76
f 76/76/76 82/82/82 81/81/81
f 83/83/83 82/82/82 75/75/75
f 77/77/77 83/83/83 75/75/75
f 81/81/81 82/82/82 83/83/83
f 84/84/84 68/68/68 80/80/80
f 69/69/69 68/68/68 84/84/84
f 81/81/81 85/85/85 80/80/80
f 80/80/80 85/85/85 84/84/84
f 69/69/69 84/84/84 86/86/86
f 87/87/87 69/69/69 86/86/86
f 85/85/85 81/81/81 88/88/88
f 83/83/83 88/88/88 81/81/81
f 85/85/85 89/89/89 84/84/84
f 88/88/88 89/89/89 85/85/85
f 86/86/86 84/84/84 89/89/89
f 77/77/77 90/90/90 83/83/83
f 90/90/90 77/77/77 70/70/70
f 88/88/88 83/83/83 91/91/91
f 89/89/89 88/88/88 91/91/91
f 90/90/90 91/91/91 83/83/83
f 86/86/86 92/92/92 87/87/87
f 92/92/92 93/93/93 87/87/87
f 89/89/89 94/94/94 86/86/86
f 94/94/94 89/89/89 91/91/91
f 94/94/94 95/95/95 86/86/86
f 95/95/95 94/94/94 91/91/91
f 95/95/95 92/92/92 86/86/86
f 92/92/92 96/96/96 93/93/93
f 96/96/96 97/97/97 93/93/93
f 96/96/96 92/92/92 98/98/98
f 92/92/92 95/95/95 98/98/98
f 98/98/98 95/95/95 99/99/99
f 95/95/95 91/91/91 100/100/100
f 95/95/95 100/100/100 99/99/99
f 100/100/100 91/91/91 90/90/90
f 99/99/99 100/100/100 101/101/101
f 102/102/102 100/100/100 90/90/90
f 100/100/100 102/102/102 101/101/101
f 103/103/103 102/102/102 90/90/90
f 103/103/103 104/104/104 102/102/102
f 70/70/70 103/103/103 90/90/90
f 103/103/103 70/70/70 72/72/72
f 105/105/105 101/101/101 102/102/102
f 104/104/104 105/105/105 102/102/102
f 105/105/105 106/106/106 101/101/101
f 105/105/105 104/104/104 106/106/106
f 104/104/104 107/107/107 106/106/106
f 107/107/107 104/104/104 108/108/108
f 109/109/109 103/103/103 72/72/72
f 103/103/103 109/109/109 104/104/104
f 78/78/78 109/109/109 72/72/72
f 109/109/109 78/78/78 110/110/110
f 109/109/109 111/111/111 104/104/104
f 104/104/104 111/111/111 108/108/108
f 111/111/111 109/109/109 110/110/110
f 111/111/111 110/110/110 108/108/108
f 110/110/110 112/112/112 108/108/108
f 112/112/112 110/110/110 113/113/113
f 110/110/110 78/78/78 114/114/114
f 114/114/114 78/78/78 33/33/33
f 11/11/11 114/114/114 33/33/33
f 114/114/114 11/11/11 12/12/12
f 110/110/110 115/115/115 113/113/113
f 113/113/113 115/115/115 12/12/12
f 12/12/12 115/115/115 114/114/114
f 115/115/115 110/110/110 114/114/114
