g weapon_geo
v 0.1529998 -0.01939283 0.7856975
v 0.2727212 0 0.7929343
v 0.1828397 0 0.7625376
v 0.1434264 0 0.7296479
v 0.09955554 -0.02644433 0.7556706
v 0.1124326 0 0.686698
v 0.05902882 -0.02879113 0.7078112
v 0.0850886 0 0.6336659
v 0.0291167 -0.0240808 0.6486226
v 0.06566583 0 0.5768646
v 0.01171862 -0.01989344 0.5830457
v 0.05074551 0 0.5092676
v -0.001212533 -0.01682905 0.5076817
v 0.04261331 0 0.4387224
v -0.007048135 -0.01463646 0.4332705
v 0.0401492 0 0.372705
v -0.006092821 -0.01413935 0.3658968
v 0.04198324 0 0.3029975
v 0.0006566087 -0.01497919 0.2966005
v 0.01007799 -0.01714941 0.239632
v 0.04733374 0 0.2411947
v 0.02739716 -0.02012943 0.1725885
v 0.05367316 0 0.1784992
v 0.06356355 0 0.09453717
v 0.007411759 -0.02899744 0.0979603
v -0.03536541 -0.02928392 0.07322752
v -0.07377823 0 0.1591841
v 0.01007799 -0.01714941 0.239632
v -0.09717652 0 0.1356926
v -0.09390126 0 0.2187544
v -0.1202697 0 0.1133861
v -0.06880604 -0.007394808 0.03425987
v -0.0872829 0 -0.03825459
v 0.0006566087 -0.01497919 0.2966005
v -0.1138067 0 0.2757896
v -0.08216197 0 0.3548198
v -0.006092821 -0.01413935 0.3658968
v -0.06808636 0 0.4246114
v -0.007048135 -0.01463646 0.4332705
v -0.0611258 0 0.5037525
v -0.001212533 -0.01682905 0.5076817
v -0.06463859 0 0.5897306
v 0.01171862 -0.01989344 0.5830457
v 0.0291167 -0.0240808 0.6486226
v -0.09161486 0 0.6711669
v -0.05330644 0 0.743961
v 0.05902882 -0.02879113 0.7078112
v 0.00649915 0 0.8031085
v 0.09955554 -0.02644433 0.7556706
v 0.07863431 0 0.834119
v 0.1529998 -0.01939283 0.7856975
v 0.1627857 0 0.8324619
v 0.2727212 0 0.7929343
v -0.03991936 0 -0.1886388
v -0.03553493 0 -0.1546788
v 0.001209683 -0.02333532 -0.1719436
v -0.01506439 0 -0.2131229
v 0.01807528 0 -0.2186304
v 0.0588278 0 -0.2027722
v -0.006792978 -0.01995899 0.1063661
v -0.02151645 0 0.04966213
v -0.02584363 0 0.1057502
v -0.003648498 -0.01658909 0.04875623
v 0.01696382 0 0.1077804
v -0.01700298 0 -0.007134809
v 0.018357 0 0.04854954
v -0.000476208 -0.01272972 -0.009742045
v -0.01723184 0 -0.1149832
v 0.01951419 0 -0.01176158
v 0.0009079787 -0.01113649 -0.1198948
v -0.01852478 0 -0.170429
v 0.02257293 0 -0.1242094
v 0.003096475 -0.01628589 -0.1785595
v 0.02953803 0 -0.1858739
v 0.06356355 0 0.09453717
v 0.01015596 0 0.0984251
v 0.007411759 -0.02899744 0.0979603
v -0.03249913 0 0.07371301
v -0.03536541 -0.02928392 0.07322752
v -0.06880604 -0.007394808 0.03425987
v -0.06698654 0 0.03456806
v -0.0872829 0 -0.03825459
v 0.0588278 0 -0.2027722
v 0.001209683 -0.02333532 -0.1719436
v 0.00441942 0 -0.1605692
v -0.03553493 0 -0.1546788
v 0.1529998 0.01939283 0.7856975
v 0.1828397 0 0.7625376
v 0.2727212 0 0.7929343
v 0.1434264 0 0.7296479
v 0.09955554 0.02644433 0.7556706
v 0.1124326 0 0.686698
v 0.05902882 0.02879113 0.7078112
v 0.0850886 0 0.6336659
v 0.0291167 0.0240808 0.6486226
v 0.06566583 0 0.5768646
v 0.01171862 0.01989344 0.5830457
v 0.05074551 0 0.5092676
v -0.001212533 0.01682905 0.5076817
v 0.04261331 0 0.4387224
v -0.007048135 0.01463646 0.4332705
v 0.0401492 0 0.372705
v -0.006092821 0.01413935 0.3658968
v 0.04198324 0 0.3029975
v 0.0006566087 0.01497919 0.2966005
v 0.01007799 0.01714941 0.239632
v 0.04733374 0 0.2411947
v 0.02739716 0.02012943 0.1725885
v 0.05367316 0 0.1784992
v 0.06356355 0 0.09453717
v 0.007411759 0.02899744 0.0979603
v -0.03536541 0.02928392 0.07322752
v -0.07377823 0 0.1591841
v 0.01007799 0.01714941 0.239632
v -0.09717652 0 0.1356926
v -0.09390126 0 0.2187544
v -0.1202697 0 0.1133861
v -0.06880604 0.007394808 0.03425987
v -0.0872829 0 -0.03825459
v 0.0006566087 0.01497919 0.2966005
v -0.1138067 0 0.2757896
v -0.08216197 0 0.3548198
v -0.006092821 0.01413935 0.3658968
v -0.06808636 0 0.4246114
v -0.007048135 0.01463646 0.4332705
v -0.0611258 0 0.5037525
v -0.001212533 0.01682905 0.5076817
v -0.06463859 0 0.5897306
v 0.01171862 0.01989344 0.5830457
v 0.0291167 0.0240808 0.6486226
v -0.09161486 0 0.6711669
v -0.05330644 0 0.743961
v 0.05902882 0.02879113 0.7078112
v 0.00649915 0 0.8031085
v 0.09955554 0.02644433 0.7556706
v 0.07863431 0 0.834119
v 0.1529998 0.01939283 0.7856975
v 0.1627857 0 0.8324619
v 0.2727212 0 0.7929343
v -0.03991936 0 -0.1886388
v 0.001209683 0.02333532 -0.1719436
v -0.03553493 0 -0.1546788
v -0.01506439 0 -0.2131229
v 0.01807528 0 -0.2186304
v 0.0588278 0 -0.2027722
v -0.006792978 0.01995899 0.1063661
v -0.02584363 0 0.1057502
v -0.02151645 0 0.04966213
v -0.003648498 0.01658909 0.04875623
v 0.01696382 0 0.1077804
v -0.01700298 0 -0.007134809
v 0.018357 0 0.04854954
v -0.000476208 0.01272972 -0.009742045
v -0.01723184 0 -0.1149832
v 0.01951419 0 -0.01176158
v 0.0009079787 0.01113649 -0.1198948
v -0.01852478 0 -0.170429
v 0.02257293 0 -0.1242094
v 0.003096475 0.01628589 -0.1785595
v 0.02953803 0 -0.1858739
v 0.06356355 0 0.09453717
v 0.007411759 0.02899744 0.0979603
v 0.01015596 0 0.0984251
v -0.03249913 0 0.07371301
v -0.03536541 0.02928392 0.07322752
v -0.06880604 0.007394808 0.03425987
v -0.06698654 0 0.03456806
v -0.0872829 0 -0.03825459
v 0.0588278 0 -0.2027722
v 0.00441942 0 -0.1605692
v 0.001209683 0.02333532 -0.1719436
v -0.03553493 0 -0.1546788
vt 0.1491699 0.2739258
vt 0.01931763 0.3549805
vt 0.1364746 0.3181152
vt 0.2019043 0.3215332
vt 0.2265625 0.2644043
vt 0.2653809 0.3417969
vt 0.3032227 0.2822266
vt 0.3317871 0.3745117
vt 0.3771973 0.3193359
vt 0.3928223 0.4169922
vt 0.4428711 0.3718262
vt 0.4562988 0.473877
vt 0.5102539 0.4377441
vt 0.5151367 0.5385742
vt 0.5693359 0.5083008
vt 0.5639648 0.6030273
vt 0.6162109 0.5761719
vt 0.6113281 0.6748047
vt 0.6577148 0.6513672
vt 0.6879883 0.7158203
vt 0.6494141 0.7412109
vt 0.7167969 0.7963867
vt 0.6870117 0.809082
vt 0.7358398 0.9008789
vt 0.7900391 0.8569336
vt 0.8530273 0.8496094
vt 0.8266602 0.7045898
vt 0.6879883 0.7158203
vt 0.8706055 0.7416992
vt 0.800293 0.652832
vt 0.918457 0.7441406
vt 0.9174805 0.8632812
vt 0.9902344 0.9213867
vt 0.6577148 0.6513672
vt 0.796875 0.5854492
vt 0.7075195 0.5292969
vt 0.6162109 0.5761719
vt 0.6430664 0.4699707
vt 0.5693359 0.5083008
vt 0.5795898 0.3952637
vt 0.5102539 0.4377441
vt 0.5224609 0.3063965
vt 0.4428711 0.3718262
vt 0.3771973 0.3193359
vt 0.4938965 0.2041016
vt 0.4016113 0.159668
vt 0.3032227 0.2822266
vt 0.2961426 0.1451416
vt 0.2265625 0.2644043
vt 0.1972656 0.1679688
vt 0.1491699 0.2739258
vt 0.1086426 0.2327881
vt 0.01931763 0.3549805
vt 0.5673828 0.2130127
vt 0.6030273 0.1860352
vt 0.5566406 0.1486816
vt 0.5224609 0.1988525
vt 0.4936523 0.1625977
vt 0.4838867 0.1032104
vt 0.2629395 0.449707
vt 0.2958984 0.5415039
vt 0.309082 0.4499512
vt 0.2595215 0.5439453
vt 0.2164307 0.4494629
vt 0.2897949 0.6582031
vt 0.2232666 0.5463867
vt 0.2583008 0.6630859
vt 0.2907715 0.7739258
vt 0.2269287 0.668457
vt 0.2565918 0.7827148
vt 0.2961426 0.8876953
vt 0.2227783 0.7915039
vt 0.2553711 0.9018555
vt 0.2143555 0.9165039
vt 0.239624 0.08514404
vt 0.2902832 0.09130859
vt 0.2932129 0.06750488
vt 0.3369141 0.09710693
vt 0.3400879 0.07226562
vt 0.3881836 0.08728027
vt 0.3862305 0.1031494
vt 0.4575195 0.1119385
vt 0.4838867 0.1032104
vt 0.5566406 0.1486816
vt 0.5722656 0.1330566
vt 0.6030273 0.1860352
vt 0.1491699 0.2739258
vt 0.1364746 0.3181152
vt 0.01931763 0.3549805
vt 0.2019043 0.3215332
vt 0.2265625 0.2644043
vt 0.2653809 0.3417969
vt 0.3032227 0.2822266
vt 0.3317871 0.3745117
vt 0.3771973 0.3193359
vt 0.3928223 0.4169922
vt 0.4428711 0.3718262
vt 0.4562988 0.473877
vt 0.5102539 0.4377441
vt 0.5151367 0.5385742
vt 0.5693359 0.5083008
vt 0.5639648 0.6030273
vt 0.6162109 0.5761719
vt 0.6113281 0.6748047
vt 0.6577148 0.6513672
vt 0.6879883 0.7158203
vt 0.6494141 0.7412109
vt 0.7167969 0.7963867
vt 0.6870117 0.809082
vt 0.7358398 0.9008789
vt 0.7900391 0.8569336
vt 0.8530273 0.8496094
vt 0.8266602 0.7045898
vt 0.6879883 0.7158203
vt 0.8706055 0.7416992
vt 0.800293 0.652832
vt 0.918457 0.7441406
vt 0.9174805 0.8632812
vt 0.9902344 0.9213867
vt 0.6577148 0.6513672
vt 0.796875 0.5854492
vt 0.7075195 0.5292969
vt 0.6162109 0.5761719
vt 0.6430664 0.4699707
vt 0.5693359 0.5083008
vt 0.5795898 0.3952637
vt 0.5102539 0.4377441
vt 0.5224609 0.3063965
vt 0.4428711 0.3718262
vt 0.3771973 0.3193359
vt 0.4938965 0.2041016
vt 0.4016113 0.159668
vt 0.3032227 0.2822266
vt 0.2961426 0.1451416
vt 0.2265625 0.2644043
vt 0.1972656 0.1679688
vt 0.1491699 0.2739258
vt 0.1086426 0.2327881
vt 0.01931763 0.3549805
vt 0.5673828 0.2130127
vt 0.5566406 0.1486816
vt 0.6030273 0.1860352
vt 0.5224609 0.1988525
vt 0.4936523 0.1625977
vt 0.4838867 0.1032104
vt 0.2629395 0.449707
vt 0.309082 0.4499512
vt 0.2958984 0.5415039
vt 0.2595215 0.5439453
vt 0.2164307 0.4494629
vt 0.2897949 0.6582031
vt 0.2232666 0.5463867
vt 0.2583008 0.6630859
vt 0.2907715 0.7739258
vt 0.2269287 0.668457
vt 0.2565918 0.7827148
vt 0.2961426 0.8876953
vt 0.2227783 0.7915039
vt 0.2553711 0.9018555
vt 0.2143555 0.9165039
vt 0.239624 0.08514404
vt 0.2932129 0.06750488
vt 0.2902832 0.09130859
vt 0.3369141 0.09710693
vt 0.3400879 0.07226562
vt 0.3881836 0.08728027
vt 0.3862305 0.1031494
vt 0.4575195 0.1119385
vt 0.4838867 0.1032104
vt 0.5722656 0.1330566
vt 0.5566406 0.1486816
vt 0.6030273 0.1860352
vn 0.2814941 -0.8779297 -0.387207
vn 0.3203125 0 -0.9472656
vn 0.4863281 0 -0.8735352
vn 0.7373047 0 -0.675293
vn 0.3532715 -0.8867188 -0.298584
vn 0.8300781 0 -0.5581055
vn 0.3674316 -0.8979492 -0.2425537
vn 0.8881836 0 -0.4594727
vn 0.3544922 -0.9179688 -0.1784668
vn 0.9492188 0 -0.3149414
vn 0.3334961 -0.9365234 -0.1074219
vn 0.9785156 0 -0.206665
vn 0.3100586 -0.9487305 -0.06195068
vn 0.9956055 1.192093E-07 -0.09558105
vn 0.2932129 -0.9555664 -0.02471924
vn 0.9995117 0 0.02476501
vn 0.3007812 -0.9536133 0.009750366
vn 0.9926758 0 0.1201782
vn 0.3393555 -0.9399414 0.04226685
vn 0.4272461 -0.9003906 0.08416748
vn 0.9804688 0 0.196167
vn 0.03384399 -0.9970703 0.07202148
vn 0.9838867 0 0.1791992
vn 1 0 -0.002235413
vn 0.2008057 -0.9775391 0.06237793
vn -0.2624512 -0.9570312 0.1229858
vn -0.8681641 0 0.496582
vn -0.1586914 -0.9868164 -0.02320862
vn -0.8994141 0 0.4375
vn -0.9897461 0 -0.1430664
vn -0.9960938 0 -0.08703613
vn -0.2700195 -0.9619141 -0.03649902
vn -0.9770508 1.788139E-07 -0.2125244
vn -0.1496582 -0.9887695 0.008392334
vn -0.9995117 0 0.02420044
vn -0.9873047 0 0.157959
vn -0.1784668 -0.9833984 0.02513123
vn -0.9985352 1.788139E-07 0.05529785
vn -0.2325439 -0.9726562 0.01127625
vn -1 0 0.007183075
vn -0.2570801 -0.9663086 0.0009675026
vn -0.9931641 -2.980232E-07 -0.1177368
vn -0.2381592 -0.9707031 -0.02682495
vn -0.2119141 -0.9770508 0.02566528
vn -0.9936523 -2.980232E-07 0.1130981
vn -0.8642578 0 0.503418
vn -0.1918945 -0.9716797 0.137207
vn -0.5839844 0 0.8115234
vn -0.1331787 -0.9594727 0.2481689
vn -0.2592773 0 0.9658203
vn -0.007575989 -0.9433594 0.3322754
vn 0.2099609 0 0.9775391
vn 0.3383789 0 0.940918
vn -0.9370117 0 -0.348877
vn -0.9916992 0 0.1280518
vn -0.1717529 -0.9331055 -0.3166504
vn -0.4414062 0 -0.8974609
vn 0.1813965 0 -0.9833984
vn 0.3625488 0 -0.9321289
vn 0.01038361 -0.9990234 -0.04049683
vn -0.9951172 0 -0.0993042
vn -0.9956055 0 -0.09521484
vn 0.01423645 -0.9990234 -0.04193115
vn 1 0 0.002719879
vn -0.9985352 0 -0.05535889
vn 1 0 -0.003133774
vn 0.001688004 -1 -0.01622009
vn -1 0 0.007167816
vn 1 0 0.001067162
vn 0.03109741 -0.9990234 0.02322388
vn -0.9980469 0 0.05874634
vn 0.9975586 0 0.07220459
vn 0.1480713 -0.9863281 0.07012939
vn 0.9892578 0 0.1468506
vn -0.07263184 0 -0.9975586
vn 0.296875 0 -0.9550781
vn 0.3725586 -0.02082825 -0.9277344
vn 0.5991211 0 -0.8007812
vn 0.5947266 -0.05145264 -0.8022461
vn 0.7963867 -0.1112061 -0.5942383
vn 0.7993164 0 -0.6010742
vn 0.9633789 0 -0.2685547
vn 0.612793 0 0.7900391
vn 0.432373 -0.4423828 0.7856445
vn 0.4455566 0 0.8950195
vn 0.145874 0 0.9892578
vn 0.2814941 0.8779297 -0.387207
vn 0.4863281 0 -0.8735352
vn 0.3203125 0 -0.9472656
vn 0.7373047 0 -0.675293
vn 0.3532715 0.8867188 -0.298584
vn 0.8300781 0 -0.5581055
vn 0.3674316 0.8979492 -0.2425537
vn 0.8881836 0 -0.4594727
vn 0.3544922 0.9179688 -0.1784668
vn 0.9492188 0 -0.3149414
vn 0.3334961 0.9365234 -0.1074219
vn 0.9785156 0 -0.206665
vn 0.3100586 0.9487305 -0.06195068
vn 0.9956055 1.192093E-07 -0.09558105
vn 0.2932129 0.9555664 -0.02471924
vn 0.9995117 0 0.02476501
vn 0.3007812 0.9536133 0.009750366
vn 0.9926758 0 0.1201782
vn 0.3393555 0.9399414 0.04226685
vn 0.4272461 0.9003906 0.08416748
vn 0.9804688 0 0.196167
vn 0.03384399 0.9970703 0.07202148
vn 0.9838867 0 0.1791992
vn 1 0 -0.002235413
vn 0.2008057 0.9775391 0.06237793
vn -0.2624512 0.9570312 0.1229858
vn -0.8681641 0 0.496582
vn -0.1586914 0.9868164 -0.02320862
vn -0.8994141 0 0.4375
vn -0.9897461 0 -0.1430664
vn -0.9960938 0 -0.08703613
vn -0.2700195 0.9619141 -0.03649902
vn -0.9770508 1.788139E-07 -0.2125244
vn -0.1496582 0.9887695 0.008392334
vn -0.9995117 0 0.02420044
vn -0.9873047 0 0.157959
vn -0.1784668 0.9833984 0.02513123
vn -0.9985352 1.788139E-07 0.05529785
vn -0.2325439 0.9726562 0.01127625
vn -1 0 0.007183075
vn -0.2570801 0.9663086 0.0009675026
vn -0.9931641 -2.980232E-07 -0.1177368
vn -0.2381592 0.9707031 -0.02682495
vn -0.2119141 0.9770508 0.02566528
vn -0.9936523 -2.980232E-07 0.1130981
vn -0.8642578 0 0.503418
vn -0.1918945 0.9716797 0.137207
vn -0.5839844 0 0.8115234
vn -0.1331787 0.9594727 0.2481689
vn -0.2592773 0 0.9658203
vn -0.007575989 0.9433594 0.3322754
vn 0.2099609 0 0.9775391
vn 0.3383789 0 0.940918
vn -0.9370117 0 -0.348877
vn -0.1717529 0.9331055 -0.3166504
vn -0.9916992 0 0.1280518
vn -0.4414062 0 -0.8974609
vn 0.1813965 0 -0.9833984
vn 0.3625488 0 -0.9321289
vn 0.01038361 0.9990234 -0.04049683
vn -0.9956055 0 -0.09521484
vn -0.9951172 0 -0.0993042
vn 0.01423645 0.9990234 -0.04193115
vn 1 0 0.002719879
vn -0.9985352 0 -0.05535889
vn 1 0 -0.003133774
vn 0.001688004 1 -0.01622009
vn -1 0 0.007167816
vn 1 0 0.001067162
vn 0.03109741 0.9990234 0.02322388
vn -0.9980469 0 0.05874634
vn 0.9975586 0 0.07220459
vn 0.1480713 0.9863281 0.07012939
vn 0.9892578 0 0.1468506
vn -0.07263184 0 -0.9975586
vn 0.3725586 0.02082825 -0.9277344
vn 0.296875 0 -0.9550781
vn 0.5991211 0 -0.8007812
vn 0.5947266 0.05145264 -0.8022461
vn 0.7963867 0.1112061 -0.5942383
vn 0.7993164 0 -0.6010742
vn 0.9633789 0 -0.2685547
vn 0.612793 0 0.7900391
vn 0.4455566 0 0.8950195
vn 0.432373 0.4423828 0.7856445
vn 0.145874 0 0.9892578
g weapon_geo_0
f 3/3/3 2/2/2 1/1/1
f 3/3/3 1/1/1 4/4/4
f 1/1/1 5/5/5 4/4/4
f 6/6/6 4/4/4 5/5/5
f 7/7/7 6/6/6 5/5/5
f 8/8/8 6/6/6 7/7/7
f 9/9/9 8/8/8 7/7/7
f 8/8/8 9/9/9 10/10/10
f 9/9/9 11/11/11 10/10/10
f 10/10/10 11/11/11 12/12/12
f 11/11/11 13/13/13 12/12/12
f 12/12/12 13/13/13 14/14/14
f 13/13/13 15/15/15 14/14/14
f 14/14/14 15/15/15 16/16/16
f 15/15/15 17/17/17 16/16/16
f 18/18/18 16/16/16 17/17/17
f 19/19/19 18/18/18 17/17/17
f 18/18/18 19/19/19 20/20/20
f 21/21/21 18/18/18 20/20/20
f 21/21/21 20/20/20 22/22/22
f 23/23/23 21/21/21 22/22/22
f 23/23/23 22/22/22 24/24/24
f 24/24/24 22/22/22 25/25/25
f 22/22/22 26/26/26 25/25/25
f 26/26/26 22/22/22 27/27/27
f 22/22/22 28/28/28 27/27/27
f 29/29/29 26/26/26 27/27/27
f 28/28/28 30/30/30 27/27/27
f 26/26/26 29/29/29 31/31/31
f 32/32/32 26/26/26 31/31/31
f 32/32/32 31/31/31 33/33/33
f 30/30/30 28/28/28 34/34/34
f 35/35/35 30/30/30 34/34/34
f 35/35/35 34/34/34 36/36/36
f 34/34/34 37/37/37 36/36/36
f 38/38/38 36/36/36 37/37/37
f 39/39/39 38/38/38 37/37/37
f 40/40/40 38/38/38 39/39/39
f 41/41/41 40/40/40 39/39/39
f 42/42/42 40/40/40 41/41/41
f 43/43/43 42/42/42 41/41/41
f 42/42/42 43/43/43 44/44/44
f 45/45/45 42/42/42 44/44/44
f 45/45/45 44/44/44 46/46/46
f 44/44/44 47/47/47 46/46/46
f 46/46/46 47/47/47 48/48/48
f 47/47/47 49/49/49 48/48/48
f 50/50/50 48/48/48 49/49/49
f 51/51/51 50/50/50 49/49/49
f 50/50/50 51/51/51 52/52/52
f 51/51/51 53/53/53 52/52/52
f 56/56/56 55/55/55 54/54/54
f 56/56/56 54/54/54 57/57/57
f 56/56/56 57/57/57 58/58/58
f 56/56/56 58/58/58 59/59/59
f 62/62/62 61/61/61 60/60/60
f 61/61/61 63/63/63 60/60/60
f 60/60/60 63/63/63 64/64/64
f 63/63/63 61/61/61 65/65/65
f 63/63/63 66/66/66 64/64/64
f 67/67/67 63/63/63 65/65/65
f 66/66/66 63/63/63 67/67/67
f 67/67/67 65/65/65 68/68/68
f 69/69/69 66/66/66 67/67/67
f 70/70/70 67/67/67 68/68/68
f 69/69/69 67/67/67 70/70/70
f 70/70/70 68/68/68 71/71/71
f 72/72/72 69/69/69 70/70/70
f 73/73/73 70/70/70 71/71/71
f 72/72/72 70/70/70 73/73/73
f 74/74/74 72/72/72 73/73/73
f 77/77/77 76/76/76 75/75/75
f 78/78/78 76/76/76 77/77/77
f 79/79/79 78/78/78 77/77/77
f 78/78/78 79/79/79 80/80/80
f 81/81/81 78/78/78 80/80/80
f 81/81/81 80/80/80 82/82/82
f 85/85/85 84/84/84 83/83/83
f 85/85/85 86/86/86 84/84/84
f 89/89/89 88/88/88 87/87/87
f 87/87/87 88/88/88 90/90/90
f 91/91/91 87/87/87 90/90/90
f 90/90/90 92/92/92 91/91/91
f 92/92/92 93/93/93 91/91/91
f 92/92/92 94/94/94 93/93/93
f 94/94/94 95/95/95 93/93/93
f 95/95/95 94/94/94 96/96/96
f 97/97/97 95/95/95 96/96/96
f 97/97/97 96/96/96 98/98/98
f 99/99/99 97/97/97 98/98/98
f 99/99/99 98/98/98 100/100/100
f 101/101/101 99/99/99 100/100/100
f 101/101/101 100/100/100 102/102/102
f 103/103/103 101/101/101 102/102/102
f 102/102/102 104/104/104 103/103/103
f 104/104/104 105/105/105 103/103/103
f 105/105/105 104/104/104 106/106/106
f 104/104/104 107/107/107 106/106/106
f 106/106/106 107/107/107 108/108/108
f 107/107/107 109/109/109 108/108/108
f 108/108/108 109/109/109 110/110/110
f 108/108/108 110/110/110 111/111/111
f 112/112/112 108/108/108 111/111/111
f 108/108/108 112/112/112 113/113/113
f 114/114/114 108/108/108 113/113/113
f 112/112/112 115/115/115 113/113/113
f 116/116/116 114/114/114 113/113/113
f 115/115/115 112/112/112 117/117/117
f 112/112/112 118/118/118 117/117/117
f 117/117/117 118/118/118 119/119/119
f 114/114/114 116/116/116 120/120/120
f 116/116/116 121/121/121 120/120/120
f 120/120/120 121/121/121 122/122/122
f 123/123/123 120/120/120 122/122/122
f 122/122/122 124/124/124 123/123/123
f 124/124/124 125/125/125 123/123/123
f 124/124/124 126/126/126 125/125/125
f 126/126/126 127/127/127 125/125/125
f 126/126/126 128/128/128 127/127/127
f 128/128/128 129/129/129 127/127/127
f 129/129/129 128/128/128 130/130/130
f 128/128/128 131/131/131 130/130/130
f 130/130/130 131/131/131 132/132/132
f 133/133/133 130/130/130 132/132/132
f 133/133/133 132/132/132 134/134/134
f 135/135/135 133/133/133 134/134/134
f 134/134/134 136/136/136 135/135/135
f 136/136/136 137/137/137 135/135/135
f 137/137/137 136/136/136 138/138/138
f 139/139/139 137/137/137 138/138/138
f 142/142/142 141/141/141 140/140/140
f 140/140/140 141/141/141 143/143/143
f 143/143/143 141/141/141 144/144/144
f 144/144/144 141/141/141 145/145/145
f 148/148/148 147/147/147 146/146/146
f 149/149/149 148/148/148 146/146/146
f 149/149/149 146/146/146 150/150/150
f 148/148/148 149/149/149 151/151/151
f 152/152/152 149/149/149 150/150/150
f 149/149/149 153/153/153 151/151/151
f 149/149/149 152/152/152 153/153/153
f 151/151/151 153/153/153 154/154/154
f 152/152/152 155/155/155 153/153/153
f 153/153/153 156/156/156 154/154/154
f 153/153/153 155/155/155 156/156/156
f 154/154/154 156/156/156 157/157/157
f 155/155/155 158/158/158 156/156/156
f 156/156/156 159/159/159 157/157/157
f 156/156/156 158/158/158 159/159/159
f 158/158/158 160/160/160 159/159/159
f 163/163/163 162/162/162 161/161/161
f 163/163/163 164/164/164 162/162/162
f 164/164/164 165/165/165 162/162/162
f 165/165/165 164/164/164 166/166/166
f 164/164/164 167/167/167 166/166/166
f 166/166/166 167/167/167 168/168/168
f 171/171/171 170/170/170 169/169/169
f 172/172/172 170/170/170 171/171/171
