g facial_eye_geo
v -0.03861562 1.363218 0.1295298
v -0.0537464 1.356985 0.1217168
v -0.06140196 1.380221 0.1195095
v -0.07307072 1.366162 0.1120318
v -0.04183888 1.386055 0.1260196
v -0.01885696 1.369659 0.142113
v -0.07567675 1.380033 0.111313
v -0.08332978 1.366931 0.100998
v -0.01848104 1.390223 0.1350543
v -0 1.376934 0.1549298
v -0.06460236 1.400045 0.1120953
v -0.04033774 1.403457 0.1180821
v -0.08491474 1.380449 0.1025906
v -0.07803896 1.401135 0.1060806
v -0.09362694 1.380142 0.079248
v -0.08966708 1.35638 0.07278624
v -0.0980948 1.37512 0.05004308
v -0.08728455 1.402016 0.0989584
v -0.0964565 1.405418 0.08234934
v -0.102776 1.429255 0.05344667
v -0.09047733 1.43146 0.09966452
v -0.07144766 1.439405 0.1145946
v -0.07509764 1.459509 0.1232129
v -0.04523232 1.439299 0.125791
v -0.09924541 1.434955 0.08329676
v -0.1041044 1.463228 0.08016239
v -0.1094816 1.468227 0.04351274
v -0.1058113 1.47905 0.07736332
v -0.09601961 1.459601 0.1073759
v -0.09624059 1.479037 0.1085215
v -0.09531096 1.491714 0.1082446
v -0.0758571 1.482049 0.1263167
v -0.07414768 1.495829 0.1273454
v -0.05056632 1.478623 0.136271
v -0.04956048 1.496233 0.1365174
v -0.02289048 1.497622 0.1419479
v -0.04985512 1.45433 0.1323391
v -0.0240792 1.472913 0.1418336
v -0 1.497658 0.1436522
v -0.02347976 1.449923 0.138778
v -0 1.469527 0.1436776
v -0.0196977 1.422387 0.1263269
v 0.0240792 1.472913 0.1418336
v 0.02289048 1.497622 0.1419479
v -0.02040382 1.41051 0.1242797
v -0 1.411386 0.1350442
v -0 1.428331 0.136939
v -0 1.447274 0.1411935
v 0.02347976 1.449923 0.138778
v 0.05056632 1.478623 0.136271
v 0.04956048 1.496233 0.1365174
v 0.07414768 1.495829 0.1273454
v -0 1.393761 0.1416253
v 0.01848104 1.390223 0.1350543
v 0.01885696 1.369659 0.142113
v 0.0196977 1.422387 0.1263269
v 0.04985512 1.45433 0.1323391
v 0.07509764 1.459509 0.1232129
v 0.0758571 1.482049 0.1263167
v 0.09531096 1.491714 0.1082446
v 0.04523232 1.439299 0.125791
v 0.09624059 1.479037 0.1085215
v 0.1058113 1.47905 0.07736332
v 0.02040382 1.41051 0.1242797
v 0.04033774 1.403457 0.1180821
v 0.1041044 1.463228 0.08016239
v 0.1094816 1.468227 0.04351274
v 0.102776 1.429255 0.05344667
v 0.04183888 1.386055 0.1260196
v 0.03861562 1.363218 0.1295298
v 0.06460236 1.400045 0.1120953
v 0.06140196 1.380221 0.1195095
v 0.0537464 1.356985 0.1217168
v 0.07307072 1.366162 0.1120318
v 0.07567675 1.380033 0.111313
v 0.08332978 1.366931 0.100998
v 0.07144766 1.439405 0.1145946
v 0.07803896 1.401135 0.1060806
v 0.08491474 1.380449 0.1025906
v 0.09047733 1.43146 0.09966452
v 0.09362694 1.380142 0.079248
v 0.08966708 1.35638 0.07278624
v 0.0980948 1.37512 0.05004308
v 0.08728455 1.402016 0.0989584
v 0.0964565 1.405418 0.08234934
v 0.09924541 1.434955 0.08329676
v 0.09601961 1.459601 0.1073759
vt 0.2805176 0.3540039
vt 0.2993164 0.3522949
vt 0.307373 0.3662109
vt 0.3171387 0.3513184
vt 0.2897949 0.3706055
vt 0.2658691 0.3574219
vt 0.3232422 0.3632812
vt 0.3320312 0.3505859
vt 0.2709961 0.3740234
vt 0.25 0.3642578
vt 0.3146973 0.3833008
vt 0.291748 0.387207
vt 0.3383789 0.3642578
vt 0.3286133 0.3837891
vt 0.3557129 0.3664551
vt 0.3527832 0.3464355
vt 0.3671875 0.3620605
vt 0.3395996 0.3850098
vt 0.3579102 0.3886719
vt 0.3720703 0.4074707
vt 0.3405762 0.4108887
vt 0.3193359 0.418457
vt 0.3186035 0.4375
vt 0.2937012 0.4187012
vt 0.3571777 0.4125977
vt 0.3623047 0.4387207
vt 0.3771973 0.4465332
vt 0.3649902 0.4543457
vt 0.340332 0.4372559
vt 0.3417969 0.4543457
vt 0.340332 0.4658203
vt 0.3195801 0.4575195
vt 0.3200684 0.4694824
vt 0.2961426 0.454834
vt 0.2976074 0.4699707
vt 0.2722168 0.4709473
vt 0.2956543 0.4333496
vt 0.2719727 0.449707
vt 0.25 0.4707031
vt 0.2712402 0.4294434
vt 0.25 0.4465332
vt 0.270752 0.4033203
vt 0.2281494 0.449707
vt 0.2279053 0.4709473
vt 0.2727051 0.3930664
vt 0.25 0.3933105
vt 0.25 0.4091797
vt 0.25 0.4267578
vt 0.2287598 0.4294434
vt 0.2038574 0.454834
vt 0.2025146 0.4699707
vt 0.1799316 0.4694824
vt 0.25 0.3769531
vt 0.2290039 0.3740234
vt 0.2341309 0.3574219
vt 0.229248 0.4033203
vt 0.2043457 0.4333496
vt 0.1812744 0.4375
vt 0.180542 0.4575195
vt 0.159668 0.4658203
vt 0.2064209 0.4187012
vt 0.1582031 0.4543457
vt 0.1350098 0.4543457
vt 0.2272949 0.3930664
vt 0.208252 0.387207
vt 0.1375732 0.4387207
vt 0.1228027 0.4465332
vt 0.1280518 0.4074707
vt 0.210083 0.3706055
vt 0.2193604 0.3540039
vt 0.1853027 0.3833008
vt 0.192749 0.3662109
vt 0.2005615 0.3522949
vt 0.1827393 0.3513184
vt 0.1767578 0.3632812
vt 0.1679688 0.3505859
vt 0.1806641 0.418457
vt 0.1713867 0.3837891
vt 0.1617432 0.3642578
vt 0.1594238 0.4108887
vt 0.144165 0.3664551
vt 0.1473389 0.3464355
vt 0.1326904 0.3620605
vt 0.1602783 0.3850098
vt 0.1420898 0.3886719
vt 0.1429443 0.4125977
vt 0.159668 0.4372559
vn -0.4141536 -0.09231953 0.9055131
vn -0.4570252 -0.1507014 0.8765939
vn -0.4082564 0.130056 0.9035554
vn -0.6185405 -0.1891091 0.7626567
vn -0.4020621 0.2458698 0.881983
vn -0.4233073 -0.1580002 0.8921025
vn -0.5553804 0.04483443 0.8303869
vn -0.8525861 -0.2446065 0.4618059
vn -0.4534945 0.3374773 0.8248951
vn -0 -0.0425578 0.999094
vn -0.3579733 0.01058205 0.9336718
vn -0.3304482 0.06018981 0.9419029
vn -0.8595996 -0.102295 0.5006239
vn -0.5413809 0.02271037 0.8404707
vn -0.9454883 -0.1578925 0.2848189
vn -0.9297644 -0.2775846 0.2418364
vn -0.9794982 -0.1652461 0.1152253
vn -0.8374485 -0.0678361 0.5422897
vn -0.9611015 -0.1007348 0.25717
vn -0.9840165 -0.1163721 0.1347925
vn -0.7372193 -0.1905324 0.6482324
vn -0.3890637 -0.2459596 0.8877687
vn -0.4848831 -0.2081099 0.8494578
vn -0.2983549 -0.2762319 0.9136084
vn -0.9587188 -0.1442246 0.2450664
vn -0.9748417 -0.1119519 0.1927449
vn -0.9834219 -0.1298461 0.1265757
vn -0.9748605 -0.05534669 0.215833
vn -0.7725791 -0.1660589 0.6128181
vn -0.7758445 -0.02601024 0.6303878
vn -0.7702128 0.05575126 0.6353458
vn -0.5065095 -0.06274473 0.8599485
vn -0.4872264 0.01379729 0.8731667
vn -0.2928344 -0.08243886 0.9526027
vn -0.2647248 -0.00143318 0.964323
vn -0.1336035 0.000991468 0.9910343
vn -0.3166731 -0.2317004 0.9198006
vn -0.1614839 -0.07018659 0.9843763
vn -0 1.703382E-05 1
vn -0.2129193 -0.2286253 0.9499452
vn -0 -0.06260478 0.9980385
vn -0.3193575 -0.2665406 0.9093772
vn 0.161484 -0.07018669 0.9843763
vn 0.1336035 0.0009914711 0.9910343
vn -0.408879 0.2169703 0.8864208
vn 9.407723E-07 0.1889508 0.9819865
vn 2.774536E-07 -0.27501 0.9614414
vn -0 -0.1540332 0.9880656
vn 0.2129195 -0.2286255 0.9499451
vn 0.2928347 -0.08243906 0.9526026
vn 0.2647246 -0.00143319 0.964323
vn 0.4872264 0.01379731 0.8731667
vn 6.949233E-07 0.4403356 0.8978333
vn 0.4534952 0.337478 0.8248944
vn 0.4233074 -0.1580001 0.8921025
vn 0.3193578 -0.2665408 0.909377
vn 0.3166734 -0.2317004 0.9198005
vn 0.4848835 -0.2081099 0.8494577
vn 0.5065098 -0.06274489 0.8599482
vn 0.7702126 0.0557512 0.6353459
vn 0.2983549 -0.2762319 0.9136084
vn 0.7758444 -0.02601038 0.6303879
vn 0.9748605 -0.05534668 0.2158322
vn 0.40888 0.2169711 0.8864202
vn 0.3304487 0.06019043 0.9419027
vn 0.9748417 -0.1119519 0.1927447
vn 0.9834219 -0.129846 0.1265759
vn 0.9840165 -0.116372 0.1347925
vn 0.4020628 0.2458705 0.8819825
vn 0.4141531 -0.09231896 0.9055133
vn 0.3579732 0.01058215 0.9336719
vn 0.4082565 0.1300561 0.9035553
vn 0.4570276 -0.1507027 0.8765925
vn 0.6185409 -0.1891093 0.7626566
vn 0.5553803 0.04483433 0.8303869
vn 0.8644312 -0.2416006 0.4408943
vn 0.3890633 -0.2459593 0.887769
vn 0.541381 0.02271035 0.8404706
vn 0.8595998 -0.102295 0.5006234
vn 0.7372195 -0.1905324 0.648232
vn 0.9454885 -0.1578926 0.2848187
vn 0.9371591 -0.2278967 0.2641892
vn 0.9801275 -0.1573797 0.1207553
vn 0.8374491 -0.06783618 0.5422889
vn 0.9611016 -0.1007348 0.2571696
vn 0.9587188 -0.1442246 0.2450664
vn 0.7725791 -0.166059 0.6128179
g facial_eye_geo_0
f 3/3/3 2/2/2 1/1/1
f 4/4/4 2/2/2 3/3/3
f 5/5/5 3/3/3 1/1/1
f 5/5/5 1/1/1 6/6/6
f 7/7/7 4/4/4 3/3/3
f 8/8/8 4/4/4 7/7/7
f 9/9/9 5/5/5 6/6/6
f 6/6/6 10/10/10 9/9/9
f 3/3/3 5/5/5 11/11/11
f 3/3/3 11/11/11 7/7/7
f 5/5/5 9/9/9 12/12/12
f 5/5/5 12/12/12 11/11/11
f 13/13/13 8/8/8 7/7/7
f 11/11/11 14/14/14 7/7/7
f 7/7/7 14/14/14 13/13/13
f 8/8/8 13/13/13 15/15/15
f 16/16/16 8/8/8 15/15/15
f 16/16/16 15/15/15 17/17/17
f 13/13/13 18/18/18 15/15/15
f 14/14/14 18/18/18 13/13/13
f 15/15/15 19/19/19 17/17/17
f 18/18/18 19/19/19 15/15/15
f 17/17/17 19/19/19 20/20/20
f 14/14/14 21/21/21 18/18/18
f 18/18/18 21/21/21 19/19/19
f 11/11/11 22/22/22 14/14/14
f 21/21/21 14/14/14 22/22/22
f 22/22/22 23/23/23 21/21/21
f 24/24/24 22/22/22 11/11/11
f 22/22/22 24/24/24 23/23/23
f 12/12/12 24/24/24 11/11/11
f 19/19/19 25/25/25 20/20/20
f 25/25/25 19/19/19 21/21/21
f 25/25/25 26/26/26 20/20/20
f 26/26/26 27/27/27 20/20/20
f 28/28/28 27/27/27 26/26/26
f 29/29/29 25/25/25 21/21/21
f 29/29/29 26/26/26 25/25/25
f 21/21/21 23/23/23 29/29/29
f 28/28/28 26/26/26 30/30/30
f 30/30/30 26/26/26 29/29/29
f 29/29/29 23/23/23 30/30/30
f 31/31/31 28/28/28 30/30/30
f 30/30/30 32/32/32 31/31/31
f 23/23/23 32/32/32 30/30/30
f 32/32/32 33/33/33 31/31/31
f 32/32/32 34/34/34 33/33/33
f 34/34/34 32/32/32 23/23/23
f 34/34/34 35/35/35 33/33/33
f 36/36/36 35/35/35 34/34/34
f 37/37/37 34/34/34 23/23/23
f 37/37/37 23/23/23 24/24/24
f 38/38/38 36/36/36 34/34/34
f 38/38/38 34/34/34 37/37/37
f 36/36/36 38/38/38 39/39/39
f 24/24/24 40/40/40 37/37/37
f 40/40/40 38/38/38 37/37/37
f 38/38/38 41/41/41 39/39/39
f 41/41/41 38/38/38 40/40/40
f 42/42/42 40/40/40 24/24/24
f 12/12/12 42/42/42 24/24/24
f 39/39/39 41/41/41 43/43/43
f 44/44/44 39/39/39 43/43/43
f 12/12/12 45/45/45 42/42/42
f 42/42/42 45/45/45 46/46/46
f 9/9/9 45/45/45 12/12/12
f 46/46/46 45/45/45 9/9/9
f 42/42/42 47/47/47 40/40/40
f 47/47/47 42/42/42 46/46/46
f 48/48/48 41/41/41 40/40/40
f 48/48/48 40/40/40 47/47/47
f 41/41/41 48/48/48 49/49/49
f 49/49/49 48/48/48 47/47/47
f 43/43/43 41/41/41 49/49/49
f 43/43/43 50/50/50 44/44/44
f 50/50/50 51/51/51 44/44/44
f 52/52/52 51/51/51 50/50/50
f 53/53/53 46/46/46 9/9/9
f 10/10/10 53/53/53 9/9/9
f 53/53/53 10/10/10 54/54/54
f 53/53/53 54/54/54 46/46/46
f 10/10/10 55/55/55 54/54/54
f 56/56/56 47/47/47 46/46/46
f 47/47/47 56/56/56 49/49/49
f 49/49/49 57/57/57 43/43/43
f 57/57/57 50/50/50 43/43/43
f 57/57/57 58/58/58 50/50/50
f 59/59/59 52/52/52 50/50/50
f 58/58/58 59/59/59 50/50/50
f 60/60/60 52/52/52 59/59/59
f 49/49/49 61/61/61 57/57/57
f 49/49/49 56/56/56 61/61/61
f 58/58/58 57/57/57 61/61/61
f 62/62/62 60/60/60 59/59/59
f 59/59/59 58/58/58 62/62/62
f 63/63/63 60/60/60 62/62/62
f 64/64/64 56/56/56 46/46/46
f 54/54/54 64/64/64 46/46/46
f 64/64/64 65/65/65 56/56/56
f 65/65/65 64/64/64 54/54/54
f 56/56/56 65/65/65 61/61/61
f 66/66/66 63/63/63 62/62/62
f 67/67/67 63/63/63 66/66/66
f 67/67/67 66/66/66 68/68/68
f 69/69/69 65/65/65 54/54/54
f 69/69/69 54/54/54 55/55/55
f 70/70/70 69/69/69 55/55/55
f 65/65/65 71/71/71 61/61/61
f 65/65/65 69/69/69 71/71/71
f 69/69/69 70/70/70 72/72/72
f 69/69/69 72/72/72 71/71/71
f 70/70/70 73/73/73 72/72/72
f 72/72/72 73/73/73 74/74/74
f 75/75/75 72/72/72 74/74/74
f 71/71/71 72/72/72 75/75/75
f 75/75/75 74/74/74 76/76/76
f 71/71/71 77/77/77 61/61/61
f 61/61/61 77/77/77 58/58/58
f 78/78/78 71/71/71 75/75/75
f 77/77/77 71/71/71 78/78/78
f 79/79/79 75/75/75 76/76/76
f 75/75/75 79/79/79 78/78/78
f 58/58/58 77/77/77 80/80/80
f 78/78/78 80/80/80 77/77/77
f 79/79/79 76/76/76 81/81/81
f 76/76/76 82/82/82 81/81/81
f 81/81/81 82/82/82 83/83/83
f 79/79/79 84/84/84 78/78/78
f 79/79/79 81/81/81 84/84/84
f 80/80/80 78/78/78 84/84/84
f 85/85/85 81/81/81 83/83/83
f 81/81/81 85/85/85 84/84/84
f 80/80/80 84/84/84 85/85/85
f 85/85/85 83/83/83 68/68/68
f 86/86/86 85/85/85 68/68/68
f 85/85/85 86/86/86 80/80/80
f 66/66/66 86/86/86 68/68/68
f 58/58/58 80/80/80 87/87/87
f 86/86/86 87/87/87 80/80/80
f 66/66/66 87/87/87 86/86/86
f 58/58/58 87/87/87 62/62/62
f 66/66/66 62/62/62 87/87/87
