g facial_eye_geo
v -0.09120434 1.400477 0.07776694
v -0.08106903 1.38311 0.0981098
v -0.086925 1.381571 0.07146337
v -0.08214577 1.396827 0.09974246
v -0.0951654 1.421829 0.08173732
v -0.07095842 1.382931 0.1089557
v -0.08533002 1.41913 0.09751199
v -0.09879865 1.448778 0.08329006
v -0.07289305 1.397321 0.1083112
v -0.05627968 1.388036 0.1185053
v -0.09270474 1.448719 0.1008483
v -0.07599677 1.418568 0.1044619
v -0.05916985 1.399516 0.11699
v -0.04083182 1.404103 0.1248052
v -0.03778593 1.381931 0.1279886
v -0.01910317 1.385926 0.1424761
v -0.06269731 1.4178 0.1104837
v -0.09594344 1.473394 0.1073771
v -0.1040778 1.477023 0.08016218
v -0.09624074 1.49283 0.1085224
v -0.1077586 1.510913 0.07416848
v -0.09439208 1.518027 0.1079701
v -0.07298391 1.519011 0.1280462
v -0.07504523 1.473303 0.1232128
v -0.07585768 1.495844 0.1263177
v -0.04914852 1.517234 0.1366196
v -0.06933707 1.461205 0.1137253
v -0.05056675 1.492417 0.1362712
v -0.04982975 1.468124 0.1323388
v -0.04030725 1.456464 0.1257917
v -0.04016263 1.449125 0.1223542
v -0.02408026 1.486707 0.1418336
v -0.02276849 1.513936 0.1419597
v -0 1.483322 0.1436774
v -0 1.511453 0.143653
v 0.02276849 1.513936 0.1419597
v -0.02347889 1.459766 0.1385902
v -0.03958256 1.419689 0.1174049
v -0.02090353 1.449923 0.1314762
v -0 1.442126 0.1369405
v -0.0227368 1.441733 0.1230363
v -0.02016475 1.424891 0.124116
v 0.02408026 1.486707 0.1418336
v 0.04914852 1.517234 0.1366196
v -0 1.461069 0.1411937
v 0.02347889 1.459766 0.1385902
v 0.05056675 1.492417 0.1362712
v 0.07585768 1.495844 0.1263177
v 0.07298391 1.519011 0.1280462
v 0.04982975 1.468124 0.1323388
v 0.09624074 1.49283 0.1085224
v 0.09439208 1.518027 0.1079701
v 0.1077586 1.510913 0.07416848
v 0.1040778 1.477023 0.08016218
v 0.07504523 1.473303 0.1232128
v 0.09594344 1.473394 0.1073771
v 0.09879865 1.448778 0.08329006
v 0.02090353 1.449923 0.1314762
v 0.09270474 1.448719 0.1008483
v 0.04030725 1.456464 0.1257917
v 0.0227368 1.441733 0.1230363
v 0.06933707 1.461205 0.1137253
v 0.08533002 1.41913 0.09751199
v 0.0951654 1.421829 0.08173732
v -0 1.425181 0.1350446
v 0.04016263 1.449125 0.1223542
v 0.03958256 1.419689 0.1174049
v 0.06269731 1.4178 0.1104837
v 0.04083182 1.404103 0.1248052
v 0.02016475 1.424891 0.124116
v -0 1.407625 0.1416069
v 0.07599677 1.418568 0.1044619
v 0.07289305 1.397321 0.1083112
v 0.05916985 1.399516 0.11699
v -0.0206229 1.405689 0.1345897
v -0 1.390698 0.154538
v 0.0206229 1.405689 0.1345897
v 0.01910317 1.385926 0.1424761
v 0.03778593 1.381931 0.1279886
v 0.05627969 1.388036 0.1185053
v 0.07095842 1.382931 0.1089557
v 0.08214577 1.396827 0.09974246
v 0.08106903 1.38311 0.0981098
v 0.09120434 1.400477 0.07776694
v 0.086925 1.381571 0.07146337
vt 0.144165 0.3664551
vt 0.1678467 0.3527832
vt 0.1480713 0.3464355
vt 0.1657715 0.362793
vt 0.1420898 0.3886719
vt 0.1795654 0.3537598
vt 0.1634521 0.3852539
vt 0.1429443 0.4125977
vt 0.177124 0.3637695
vt 0.1955566 0.3566895
vt 0.1584473 0.4125977
vt 0.1745605 0.3842773
vt 0.192627 0.3662109
vt 0.210083 0.3706055
vt 0.2128906 0.3513184
vt 0.2316895 0.3566895
vt 0.1876221 0.3837891
vt 0.1582031 0.4355469
vt 0.1375732 0.4387207
vt 0.1577148 0.4533691
vt 0.1328125 0.4702148
vt 0.15979 0.4768066
vt 0.1804199 0.4777832
vt 0.1799316 0.439209
vt 0.1787109 0.4562988
vt 0.2025146 0.4760742
vt 0.1828613 0.4240723
vt 0.2019043 0.453125
vt 0.2034912 0.4350586
vt 0.2097168 0.420166
vt 0.2094727 0.4133301
vt 0.2268066 0.4477539
vt 0.2280273 0.4731445
vt 0.25 0.4445801
vt 0.25 0.4707031
vt 0.2719727 0.4731445
vt 0.2280273 0.4267578
vt 0.2086182 0.385498
vt 0.2285156 0.4125977
vt 0.25 0.4060059
vt 0.2252197 0.4052734
vt 0.2277832 0.3908691
vt 0.2731934 0.4477539
vt 0.2976074 0.4760742
vt 0.25 0.4240723
vt 0.2719727 0.4267578
vt 0.2980957 0.453125
vt 0.3212891 0.4562988
vt 0.3195801 0.4777832
vt 0.2963867 0.4350586
vt 0.3422852 0.4533691
vt 0.3400879 0.4768066
vt 0.3671875 0.4702148
vt 0.3623047 0.4387207
vt 0.3200684 0.439209
vt 0.3417969 0.4355469
vt 0.3571777 0.4125977
vt 0.2714844 0.4125977
vt 0.3415527 0.4125977
vt 0.2902832 0.420166
vt 0.2746582 0.4052734
vt 0.3171387 0.4240723
vt 0.3364258 0.3852539
vt 0.3579102 0.3886719
vt 0.25 0.3911133
vt 0.2905273 0.4133301
vt 0.2915039 0.385498
vt 0.3125 0.3837891
vt 0.2897949 0.3706055
vt 0.2722168 0.3908691
vt 0.25 0.3769531
vt 0.3254395 0.3842773
vt 0.3227539 0.3637695
vt 0.307373 0.3662109
vt 0.2290039 0.3740234
vt 0.25 0.3630371
vt 0.2709961 0.3740234
vt 0.2683105 0.3566895
vt 0.2871094 0.3513184
vt 0.3044434 0.3566895
vt 0.3205566 0.3537598
vt 0.3342285 0.362793
vt 0.3320312 0.3527832
vt 0.355957 0.3664551
vt 0.3518066 0.3464355
vn -0.910901 -0.1928438 0.3647886
vn -0.8896904 -0.1911117 0.4146411
vn -0.9326297 -0.2849165 0.2214147
vn -0.8229563 -0.09580509 0.5599681
vn -0.8775606 -0.1556686 0.4534917
vn -0.589341 -0.05154449 0.8062384
vn -0.8160015 -0.1514217 0.5578648
vn -0.9252532 -0.1941692 0.3258911
vn -0.5614849 0.0446029 0.8262841
vn -0.4797793 0.01130105 0.8773164
vn -0.6874646 -0.237744 0.6861998
vn -0.532063 -0.02139675 0.8464344
vn -0.4418556 0.1689901 0.8810256
vn -0.4473874 0.2531046 0.8577777
vn -0.5165953 0.1389165 0.8448854
vn -0.4979646 0.2997316 0.8137519
vn -0.3740609 -0.0054972 0.9273878
vn -0.7803873 -0.1485108 0.6074046
vn -0.955749 -0.08514703 0.2815916
vn -0.801119 -0.01359815 0.5983506
vn -0.9487359 -0.003870788 0.3160464
vn -0.7867143 0.05953205 0.61444
vn -0.5150532 0.01843124 0.8569599
vn -0.470868 -0.2451277 0.8474643
vn -0.5211615 -0.04251901 0.8523983
vn -0.2762954 -0.003453907 0.9610665
vn -0.330105 -0.320592 0.8878352
vn -0.2924441 -0.07218256 0.9535544
vn -0.3247303 -0.2520122 0.911614
vn -0.3892048 -0.5936815 0.7043167
vn -0.2866112 -0.1744168 0.9420365
vn -0.1635852 -0.06539799 0.9843591
vn -0.1440847 0.0008744185 0.9895649
vn -0 -0.06065837 0.9981586
vn -1.364548E-07 -4.752503E-05 1
vn 0.1440845 0.0008744178 0.989565
vn -0.2101207 -0.2261096 0.9511697
vn -0.3274719 0.03131272 0.9443419
vn -0.3975618 -0.6116751 0.6839578
vn -1.000365E-07 -0.2527708 0.9675262
vn -0.3390431 -0.2442042 0.9085231
vn -0.409735 0.2471833 0.8780761
vn 0.1635853 -0.06539813 0.9843591
vn 0.2762952 -0.003453891 0.9610667
vn -0 -0.1436445 0.9896293
vn 0.2101211 -0.2261101 0.9511695
vn 0.2924441 -0.07218255 0.9535544
vn 0.5211617 -0.04251894 0.8523982
vn 0.5150538 0.01843132 0.8569596
vn 0.3247302 -0.2520115 0.9116143
vn 0.8011192 -0.01359816 0.5983504
vn 0.7867149 0.05953207 0.6144392
vn 0.9487359 -0.003870849 0.3160464
vn 0.955749 -0.08514709 0.2815915
vn 0.470868 -0.2451275 0.8474643
vn 0.7803875 -0.1485108 0.6074042
vn 0.9252534 -0.1941693 0.3258903
vn 0.3975615 -0.611675 0.6839581
vn 0.6874653 -0.2377443 0.686199
vn 0.3892048 -0.5936822 0.7043161
vn 0.3390433 -0.2442045 0.9085228
vn 0.3301054 -0.3205921 0.8878351
vn 0.8160019 -0.1514218 0.5578642
vn 0.8775608 -0.1556687 0.4534912
vn 6.627676E-07 0.2819116 0.9594404
vn 0.2866113 -0.1744169 0.9420365
vn 0.3274719 0.0313122 0.9443419
vn 0.3740613 -0.005497657 0.9273878
vn 0.4473877 0.2531047 0.8577775
vn 0.4097361 0.2471838 0.8780754
vn 4.430502E-07 0.4528219 0.891601
vn 0.5320635 -0.02139716 0.846434
vn 0.5614838 0.04460293 0.8262848
vn 0.4418554 0.1689898 0.8810257
vn -0.4621646 0.3344162 0.8213219
vn 4.833137E-07 0.4776593 0.8785451
vn 0.462165 0.3344168 0.8213215
vn 0.4979645 0.2997319 0.8137519
vn 0.5165953 0.1389165 0.8448855
vn 0.4797801 0.01130101 0.8773159
vn 0.5893385 -0.05154432 0.8062401
vn 0.8229565 -0.09580509 0.5599678
vn 0.8896903 -0.1911116 0.4146414
vn 0.9109011 -0.1928439 0.3647882
vn 0.9326297 -0.2849165 0.2214147
g facial_eye_geo_0
f 3/3/3 2/2/2 1/1/1
f 2/2/2 4/4/4 1/1/1
f 1/1/1 4/4/4 5/5/5
f 6/6/6 4/4/4 2/2/2
f 4/4/4 7/7/7 5/5/5
f 8/8/8 5/5/5 7/7/7
f 6/6/6 9/9/9 4/4/4
f 4/4/4 9/9/9 7/7/7
f 6/6/6 10/10/10 9/9/9
f 11/11/11 8/8/8 7/7/7
f 9/9/9 12/12/12 7/7/7
f 12/12/12 11/11/11 7/7/7
f 10/10/10 13/13/13 9/9/9
f 9/9/9 13/13/13 12/12/12
f 10/10/10 14/14/14 13/13/13
f 10/10/10 15/15/15 14/14/14
f 14/14/14 15/15/15 16/16/16
f 13/13/13 17/17/17 12/12/12
f 12/12/12 17/17/17 11/11/11
f 13/13/13 14/14/14 17/17/17
f 18/18/18 8/8/8 11/11/11
f 18/18/18 19/19/19 8/8/8
f 18/18/18 20/20/20 19/19/19
f 21/21/21 19/19/19 20/20/20
f 22/22/22 21/21/21 20/20/20
f 22/22/22 20/20/20 23/23/23
f 11/11/11 24/24/24 18/18/18
f 18/18/18 24/24/24 20/20/20
f 20/20/20 25/25/25 23/23/23
f 24/24/24 25/25/25 20/20/20
f 23/23/23 25/25/25 26/26/26
f 11/11/11 17/17/17 27/27/27
f 11/11/11 27/27/27 24/24/24
f 25/25/25 28/28/28 26/26/26
f 24/24/24 29/29/29 25/25/25
f 29/29/29 28/28/28 25/25/25
f 24/24/24 27/27/27 30/30/30
f 30/30/30 29/29/29 24/24/24
f 27/27/27 17/17/17 31/31/31
f 27/27/27 31/31/31 30/30/30
f 28/28/28 32/32/32 26/26/26
f 32/32/32 33/33/33 26/26/26
f 33/33/33 32/32/32 34/34/34
f 35/35/35 33/33/33 34/34/34
f 36/36/36 35/35/35 34/34/34
f 37/37/37 32/32/32 28/28/28
f 29/29/29 37/37/37 28/28/28
f 34/34/34 32/32/32 37/37/37
f 17/17/17 38/38/38 31/31/31
f 14/14/14 38/38/38 17/17/17
f 29/29/29 30/30/30 39/39/39
f 39/39/39 37/37/37 29/29/29
f 37/37/37 39/39/39 40/40/40
f 30/30/30 31/31/31 41/41/41
f 30/30/30 41/41/41 39/39/39
f 31/31/31 38/38/38 41/41/41
f 40/40/40 39/39/39 41/41/41
f 38/38/38 14/14/14 42/42/42
f 41/41/41 38/38/38 42/42/42
f 43/43/43 36/36/36 34/34/34
f 36/36/36 43/43/43 44/44/44
f 45/45/45 34/34/34 37/37/37
f 40/40/40 45/45/45 37/37/37
f 34/34/34 45/45/45 46/46/46
f 43/43/43 34/34/34 46/46/46
f 46/46/46 45/45/45 40/40/40
f 43/43/43 47/47/47 44/44/44
f 43/43/43 46/46/46 47/47/47
f 47/47/47 48/48/48 44/44/44
f 48/48/48 49/49/49 44/44/44
f 46/46/46 50/50/50 47/47/47
f 47/47/47 50/50/50 48/48/48
f 48/48/48 51/51/51 49/49/49
f 51/51/51 52/52/52 49/49/49
f 53/53/53 52/52/52 51/51/51
f 54/54/54 53/53/53 51/51/51
f 48/48/48 55/55/55 51/51/51
f 50/50/50 55/55/55 48/48/48
f 54/54/54 51/51/51 56/56/56
f 55/55/55 56/56/56 51/51/51
f 54/54/54 56/56/56 57/57/57
f 50/50/50 46/46/46 58/58/58
f 40/40/40 58/58/58 46/46/46
f 57/57/57 56/56/56 59/59/59
f 55/55/55 59/59/59 56/56/56
f 58/58/58 60/60/60 50/50/50
f 55/55/55 50/50/50 60/60/60
f 61/61/61 58/58/58 40/40/40
f 61/61/61 60/60/60 58/58/58
f 60/60/60 62/62/62 55/55/55
f 55/55/55 62/62/62 59/59/59
f 57/57/57 59/59/59 63/63/63
f 64/64/64 57/57/57 63/63/63
f 61/61/61 40/40/40 65/65/65
f 65/65/65 40/40/40 41/41/41
f 41/41/41 42/42/42 65/65/65
f 66/66/66 62/62/62 60/60/60
f 61/61/61 66/66/66 60/60/60
f 66/66/66 67/67/67 62/62/62
f 61/61/61 67/67/67 66/66/66
f 68/68/68 59/59/59 62/62/62
f 67/67/67 68/68/68 62/62/62
f 67/67/67 69/69/69 68/68/68
f 70/70/70 67/67/67 61/61/61
f 65/65/65 70/70/70 61/61/61
f 69/69/69 67/67/67 70/70/70
f 71/71/71 65/65/65 42/42/42
f 65/65/65 71/71/71 70/70/70
f 59/59/59 68/68/68 72/72/72
f 59/59/59 72/72/72 63/63/63
f 72/72/72 68/68/68 73/73/73
f 72/72/72 73/73/73 63/63/63
f 69/69/69 74/74/74 68/68/68
f 68/68/68 74/74/74 73/73/73
f 75/75/75 71/71/71 42/42/42
f 14/14/14 75/75/75 42/42/42
f 75/75/75 14/14/14 16/16/16
f 16/16/16 76/76/76 75/75/75
f 76/76/76 71/71/71 75/75/75
f 71/71/71 77/77/77 70/70/70
f 71/71/71 76/76/76 77/77/77
f 77/77/77 69/69/69 70/70/70
f 76/76/76 78/78/78 77/77/77
f 69/69/69 77/77/77 78/78/78
f 79/79/79 69/69/69 78/78/78
f 69/69/69 79/79/79 80/80/80
f 69/69/69 80/80/80 74/74/74
f 73/73/73 74/74/74 80/80/80
f 81/81/81 73/73/73 80/80/80
f 82/82/82 73/73/73 81/81/81
f 73/73/73 82/82/82 63/63/63
f 63/63/63 82/82/82 64/64/64
f 83/83/83 82/82/82 81/81/81
f 82/82/82 84/84/84 64/64/64
f 82/82/82 83/83/83 84/84/84
f 83/83/83 85/85/85 84/84/84
