g facial_mouth_geo
v -0.06539394 1.343399 0.06049526
v -0.07896127 1.355604 0.04313309
v -0.08462024 1.365923 0.06252608
v -0.07341438 1.352695 0.07923
v -0.05004038 1.334285 0.07348815
v -0.07852762 1.365593 0.09050319
v -0.086925 1.381571 0.07146337
v -0.08106903 1.38311 0.0981098
v -0.05550942 1.340945 0.0911244
v -0.0333986 1.324644 0.08826511
v -0.06773645 1.368382 0.1076955
v -0.07095842 1.382931 0.1089557
v -0.0622239 1.354775 0.1024096
v -0.04687228 1.351272 0.1119533
v -0.04931583 1.364169 0.1170485
v -0.05277424 1.376639 0.1194687
v -0.05627968 1.388036 0.1185053
v -0.03778593 1.381931 0.1279886
v -0.0323774 1.371832 0.1282846
v -0.01910317 1.385926 0.1424761
v -0.03070955 1.359386 0.1250223
v -0.0151106 1.356265 0.1294666
v -0.01664559 1.369217 0.1336196
v -0 1.366603 0.1373648
v -0 1.390698 0.154538
v 0.01910317 1.385926 0.1424761
v -0.03097908 1.348753 0.1183226
v -0.03354441 1.339495 0.111231
v -0.01410036 1.345433 0.1240893
v -0.03301808 1.329618 0.1007684
v -0.0142766 1.329302 0.1137334
v -0.0119006 1.321172 0.1093716
v -0.01054239 1.314918 0.1033837
v -0 1.313144 0.1064383
v -0 1.344537 0.127392
v -0 1.319209 0.1119285
v -0 1.353345 0.1324184
v 0.0151106 1.356265 0.1294666
v -0 1.32873 0.1167669
v 0.0119006 1.321172 0.1093716
v 0.01054239 1.314918 0.1033838
v 0.0333986 1.324644 0.08826511
v 0.01410038 1.345433 0.1240893
v 0.01427658 1.329302 0.1137334
v 0.03301808 1.329618 0.1007684
v 0.03354441 1.339495 0.111231
v 0.05550942 1.340945 0.0911244
v 0.05004038 1.334285 0.07348815
v 0.03097908 1.348752 0.1183226
v 0.04687228 1.351272 0.1119533
v 0.07341438 1.352695 0.07923
v 0.06539394 1.343399 0.06049526
v 0.03070955 1.359386 0.1250223
v 0.0622239 1.354775 0.1024096
v 0.08462024 1.365923 0.06252608
v 0.07896127 1.355604 0.04313309
v 0.07852762 1.365593 0.09050319
v 0.086925 1.381571 0.07146337
v 0.08106903 1.38311 0.0981098
v 0.06773645 1.368382 0.1076955
v 0.07095842 1.382931 0.1089557
v 0.04931583 1.364169 0.1170485
v 0.03237741 1.371832 0.1282846
v 0.05277424 1.376639 0.1194687
v 0.05627969 1.388036 0.1185053
v 0.03778593 1.381931 0.1279886
v 0.01664559 1.369217 0.1336196
vt 0.1832275 0.309082
vt 0.1561279 0.3166504
vt 0.1513672 0.3320312
vt 0.1751709 0.3254395
vt 0.2004395 0.3032227
vt 0.1699219 0.3427734
vt 0.1480713 0.3464355
vt 0.1678467 0.3527832
vt 0.1947021 0.3225098
vt 0.2188721 0.2980957
vt 0.1818848 0.3435059
vt 0.1795654 0.3537598
vt 0.1878662 0.3337402
vt 0.2106934 0.3291016
vt 0.2042236 0.3378906
vt 0.1977539 0.3466797
vt 0.1955566 0.3566895
vt 0.2128906 0.3513184
vt 0.2186279 0.3417969
vt 0.2316895 0.3566895
vt 0.2244873 0.3322754
vt 0.2393799 0.3276367
vt 0.234375 0.3398438
vt 0.25 0.3378906
vt 0.25 0.3630371
vt 0.2683105 0.3566895
vt 0.2216797 0.324707
vt 0.2191162 0.317627
vt 0.2373047 0.3198242
vt 0.2189941 0.3083496
vt 0.2307129 0.3049316
vt 0.2412109 0.293457
vt 0.2440186 0.2797852
vt 0.25 0.279541
vt 0.25 0.3161621
vt 0.25 0.2927246
vt 0.25 0.3242188
vt 0.2607422 0.3276367
vt 0.25 0.3012695
vt 0.2587891 0.293457
vt 0.2561035 0.2797852
vt 0.2810059 0.2980957
vt 0.2626953 0.3198242
vt 0.2692871 0.3049316
vt 0.2810059 0.3083496
vt 0.2807617 0.317627
vt 0.3054199 0.3225098
vt 0.2995605 0.3032227
vt 0.2783203 0.324707
vt 0.2893066 0.3291016
vt 0.3249512 0.3254395
vt 0.3166504 0.309082
vt 0.2753906 0.3322754
vt 0.3122559 0.3337402
vt 0.3486328 0.3320312
vt 0.34375 0.3166504
vt 0.3300781 0.3427734
vt 0.3518066 0.3464355
vt 0.3320312 0.3527832
vt 0.3181152 0.3435059
vt 0.3205566 0.3537598
vt 0.2958984 0.3378906
vt 0.28125 0.3417969
vt 0.3022461 0.3466797
vt 0.3044434 0.3566895
vt 0.2871094 0.3513184
vt 0.265625 0.3398438
vn -0.6887213 -0.7185827 0.09644521
vn -0.7486485 -0.6505508 0.1277077
vn -0.8434418 -0.5217314 0.1280713
vn -0.7312043 -0.6585882 0.1777689
vn -0.587508 -0.799293 0.1263534
vn -0.8461844 -0.4130347 0.3367112
vn -0.9459683 -0.247433 0.2095736
vn -0.8712312 -0.2757466 0.4061034
vn -0.5967864 -0.7382155 0.314458
vn -0.53894 -0.7935452 0.2825414
vn -0.6275285 -0.34364 0.6986557
vn -0.6086257 -0.2012183 0.7675194
vn -0.613248 -0.5926297 0.522223
vn -0.4973386 -0.5526203 0.6687788
vn -0.4710087 -0.3377701 0.8149
vn -0.5003374 -0.2123532 0.8393858
vn -0.5034057 -0.08213077 0.8601379
vn -0.490713 -0.2142138 0.8445787
vn -0.430008 -0.3126909 0.846946
vn -0.356113 -0.4989159 0.7901054
vn -0.3759744 -0.3889422 0.8410512
vn -0.3008074 -0.4139303 0.859172
vn -0.307229 -0.4177168 0.8550574
vn 1.04672E-07 -0.4854876 0.8742436
vn -0 -0.5803893 0.8143393
vn 0.3561136 -0.4989168 0.7901046
vn -0.3676265 -0.4878005 0.7917711
vn -0.4460059 -0.5775796 0.6837254
vn -0.2942433 -0.4994464 0.814846
vn -0.5074791 -0.7252769 0.4652294
vn -0.3261542 -0.5328134 0.7808541
vn -0.4403247 -0.6300839 0.6396158
vn -0.4652215 -0.6522132 0.5984871
vn -4.529242E-06 -0.6989341 0.7151861
vn 1.385432E-06 -0.5209562 0.8535834
vn -3.124866E-06 -0.6122385 0.7906732
vn 4.952809E-07 -0.4315431 0.9020923
vn 0.3008036 -0.4139278 0.8591745
vn 1.328743E-06 -0.5292781 0.8484485
vn 0.4403242 -0.6300814 0.6396188
vn 0.4652204 -0.652207 0.5984948
vn 0.5389408 -0.7935461 0.2825376
vn 0.2942375 -0.4994485 0.8148469
vn 0.3261496 -0.5328171 0.7808536
vn 0.5074796 -0.7252774 0.465228
vn 0.4460052 -0.5775892 0.6837179
vn 0.5967868 -0.7382162 0.3144555
vn 0.5875081 -0.7992932 0.1263511
vn 0.3676255 -0.4878025 0.7917703
vn 0.4973421 -0.5526193 0.6687771
vn 0.7312043 -0.6585885 0.1777677
vn 0.6887212 -0.7185828 0.09644597
vn 0.3759722 -0.3889345 0.8410559
vn 0.6132485 -0.5926301 0.522222
vn 0.8434418 -0.5217311 0.1280719
vn 0.7486481 -0.6505505 0.1277104
vn 0.8461844 -0.413035 0.3367104
vn 0.9459683 -0.2474329 0.2095736
vn 0.8712311 -0.2757468 0.4061035
vn 0.6275288 -0.34364 0.6986554
vn 0.6086264 -0.2012187 0.7675188
vn 0.4710087 -0.3377702 0.8149001
vn 0.4300092 -0.3126916 0.8469452
vn 0.5003369 -0.2123533 0.8393861
vn 0.5034047 -0.08213082 0.8601385
vn 0.4907142 -0.214214 0.844578
vn 0.3072299 -0.4177184 0.8550562
g facial_mouth_geo_0
f 3/3/3 2/2/2 1/1/1
f 1/1/1 4/4/4 3/3/3
f 4/4/4 1/1/1 5/5/5
f 6/6/6 3/3/3 4/4/4
f 6/6/6 7/7/7 3/3/3
f 7/7/7 6/6/6 8/8/8
f 5/5/5 9/9/9 4/4/4
f 10/10/10 9/9/9 5/5/5
f 11/11/11 8/8/8 6/6/6
f 11/11/11 12/12/12 8/8/8
f 13/13/13 6/6/6 4/4/4
f 13/13/13 4/4/4 9/9/9
f 13/13/13 11/11/11 6/6/6
f 11/11/11 13/13/13 14/14/14
f 14/14/14 13/13/13 9/9/9
f 12/12/12 11/11/11 15/15/15
f 14/14/14 15/15/15 11/11/11
f 15/15/15 16/16/16 12/12/12
f 12/12/12 16/16/16 17/17/17
f 17/17/17 16/16/16 18/18/18
f 19/19/19 18/18/18 16/16/16
f 19/19/19 16/16/16 15/15/15
f 19/19/19 20/20/20 18/18/18
f 15/15/15 14/14/14 21/21/21
f 19/19/19 15/15/15 21/21/21
f 19/19/19 21/21/21 22/22/22
f 19/19/19 23/23/23 20/20/20
f 22/22/22 23/23/23 19/19/19
f 23/23/23 24/24/24 20/20/20
f 22/22/22 24/24/24 23/23/23
f 25/25/25 20/20/20 24/24/24
f 26/26/26 25/25/25 24/24/24
f 27/27/27 21/21/21 14/14/14
f 22/22/22 21/21/21 27/27/27
f 27/27/27 14/14/14 28/28/28
f 28/28/28 14/14/14 9/9/9
f 29/29/29 22/22/22 27/27/27
f 29/29/29 27/27/27 28/28/28
f 30/30/30 28/28/28 9/9/9
f 9/9/9 10/10/10 30/30/30
f 31/31/31 29/29/29 28/28/28
f 31/31/31 28/28/28 30/30/30
f 30/30/30 10/10/10 32/32/32
f 32/32/32 31/31/31 30/30/30
f 10/10/10 33/33/33 32/32/32
f 32/32/32 33/33/33 34/34/34
f 29/29/29 35/35/35 22/22/22
f 35/35/35 29/29/29 31/31/31
f 36/36/36 32/32/32 34/34/34
f 36/36/36 31/31/31 32/32/32
f 35/35/35 37/37/37 22/22/22
f 38/38/38 37/37/37 35/35/35
f 22/22/22 37/37/37 24/24/24
f 37/37/37 38/38/38 24/24/24
f 39/39/39 35/35/35 31/31/31
f 36/36/36 39/39/39 31/31/31
f 40/40/40 36/36/36 34/34/34
f 41/41/41 40/40/40 34/34/34
f 41/41/41 42/42/42 40/40/40
f 43/43/43 35/35/35 39/39/39
f 43/43/43 38/38/38 35/35/35
f 44/44/44 39/39/39 36/36/36
f 44/44/44 36/36/36 40/40/40
f 44/44/44 43/43/43 39/39/39
f 40/40/40 42/42/42 45/45/45
f 45/45/45 44/44/44 40/40/40
f 43/43/43 44/44/44 46/46/46
f 45/45/45 46/46/46 44/44/44
f 42/42/42 47/47/47 45/45/45
f 47/47/47 46/46/46 45/45/45
f 47/47/47 42/42/42 48/48/48
f 49/49/49 43/43/43 46/46/46
f 43/43/43 49/49/49 38/38/38
f 50/50/50 49/49/49 46/46/46
f 50/50/50 46/46/46 47/47/47
f 51/51/51 47/47/47 48/48/48
f 48/48/48 52/52/52 51/51/51
f 49/49/49 53/53/53 38/38/38
f 50/50/50 53/53/53 49/49/49
f 54/54/54 50/50/50 47/47/47
f 51/51/51 54/54/54 47/47/47
f 55/55/55 51/51/51 52/52/52
f 52/52/52 56/56/56 55/55/55
f 55/55/55 57/57/57 51/51/51
f 51/51/51 57/57/57 54/54/54
f 55/55/55 58/58/58 57/57/57
f 59/59/59 57/57/57 58/58/58
f 57/57/57 60/60/60 54/54/54
f 59/59/59 60/60/60 57/57/57
f 50/50/50 54/54/54 60/60/60
f 59/59/59 61/61/61 60/60/60
f 60/60/60 62/62/62 50/50/50
f 50/50/50 62/62/62 53/53/53
f 62/62/62 60/60/60 61/61/61
f 38/38/38 53/53/53 63/63/63
f 62/62/62 63/63/63 53/53/53
f 61/61/61 64/64/64 62/62/62
f 62/62/62 64/64/64 63/63/63
f 61/61/61 65/65/65 64/64/64
f 66/66/66 64/64/64 65/65/65
f 64/64/64 66/66/66 63/63/63
f 26/26/26 63/63/63 66/66/66
f 63/63/63 67/67/67 38/38/38
f 26/26/26 67/67/67 63/63/63
f 67/67/67 24/24/24 38/38/38
f 26/26/26 24/24/24 67/67/67
