g facial_eye_geo
v -0.091204 1.400477 0.077767
v -0.081069 1.38311 0.09811
v -0.086925 1.381571 0.071463
v -0.082839 1.401682 0.099257
v -0.095165 1.421829 0.081737
v -0.070958 1.382931 0.108956
v -0.08532999 1.41913 0.09751199
v -0.098799 1.448778 0.08329
v -0.073569 1.401947 0.107473
v -0.054527 1.382338 0.118987
v -0.092705 1.448719 0.100848
v -0.07599699 1.418568 0.104462
v -0.059758 1.402564 0.115905
v -0.040832 1.404103 0.124805
v -0.037786 1.381931 0.127989
v -0.019103 1.385926 0.142476
v -0.062697 1.4178 0.110484
v -0.095943 1.473394 0.102949
v -0.101438 1.4629 0.081726
v -0.075045 1.473304 0.123213
v -0.096241 1.49283 0.10108
v -0.078901 1.495394 0.12255
v -0.069337 1.461205 0.113725
v -0.04983 1.468124 0.132339
v -0.050567 1.492417 0.136271
v -0.02408 1.486707 0.141834
v -0.039583 1.419689 0.117405
v -0.040307 1.456464 0.125792
v -0.023479 1.459766 0.13859
v -0 1.483322 0.143677
v -0.040163 1.449125 0.122354
v -0.020904 1.449923 0.131476
v -0 1.442126 0.13694
v -0 1.461069 0.141194
v 0.02408 1.486707 0.141834
v -0.022737 1.441733 0.123036
v -0.020165 1.424891 0.124116
v 0.023479 1.459766 0.13859
v 0.04983 1.468124 0.132339
v 0.050567 1.492417 0.136271
v 0.078901 1.495394 0.12255
v -0.020623 1.405689 0.13459
v -0 1.407625 0.141607
v -0 1.390698 0.154538
v -0 1.425181 0.135045
v 0.020904 1.449923 0.131476
v 0.020623 1.405689 0.13459
v 0.019103 1.385926 0.142476
v 0.040832 1.404103 0.124805
v 0.037786 1.381931 0.127989
v 0.054527 1.382338 0.118987
v 0.020165 1.424891 0.124116
v 0.022737 1.441733 0.123036
v 0.040307 1.456464 0.125792
v 0.039583 1.419689 0.117405
v 0.075045 1.473304 0.123213
v 0.040163 1.449125 0.122354
v 0.069337 1.461205 0.113725
v 0.062697 1.4178 0.110484
v 0.095943 1.473394 0.102949
v 0.096241 1.49283 0.10108
v 0.092705 1.448719 0.100848
v 0.059758 1.402564 0.115905
v 0.073569 1.401947 0.107473
v 0.070958 1.382931 0.108956
v 0.07599699 1.418568 0.104462
v 0.082839 1.401682 0.099257
v 0.081069 1.38311 0.09811
v 0.098799 1.448778 0.08329
v 0.101438 1.4629 0.081726
v 0.08532999 1.41913 0.09751199
v 0.095165 1.421829 0.081737
v 0.091204 1.400477 0.077767
v 0.086925 1.381571 0.071463
vt 0.1514893 0.3662109
vt 0.1740723 0.3525391
vt 0.1520996 0.3466797
vt 0.1700439 0.3693848
vt 0.1494141 0.387207
vt 0.1849365 0.3522949
vt 0.1650391 0.385498
vt 0.1429443 0.4125977
vt 0.1795654 0.3693848
vt 0.1993408 0.3510742
vt 0.1584473 0.4125977
vt 0.1745605 0.3842773
vt 0.1928711 0.369873
vt 0.2103271 0.3710938
vt 0.2143555 0.3508301
vt 0.2316895 0.3566895
vt 0.1876221 0.3837891
vt 0.1582031 0.4355469
vt 0.1402588 0.4257812
vt 0.1798096 0.4375
vt 0.1577148 0.4536133
vt 0.178833 0.4562988
vt 0.1828613 0.4243164
vt 0.2034912 0.4350586
vt 0.2019043 0.453125
vt 0.2268066 0.4477539
vt 0.2086182 0.385498
vt 0.2098389 0.420166
vt 0.2280273 0.4267578
vt 0.25 0.4445801
vt 0.2094727 0.4133301
vt 0.2285156 0.4125977
vt 0.25 0.4060059
vt 0.25 0.4240723
vt 0.2731934 0.4477539
vt 0.2252197 0.4052734
vt 0.2277832 0.3908691
vt 0.2719727 0.4267578
vt 0.2963867 0.4350586
vt 0.2980957 0.453125
vt 0.3212891 0.4562988
vt 0.2290039 0.3740234
vt 0.25 0.3769531
vt 0.25 0.3630371
vt 0.25 0.3911133
vt 0.2714844 0.4125977
vt 0.2709961 0.3740234
vt 0.2683105 0.3566895
vt 0.2897949 0.3710938
vt 0.2856445 0.3508301
vt 0.3007812 0.3510742
vt 0.2722168 0.3908691
vt 0.2749023 0.4052734
vt 0.2902832 0.420166
vt 0.2915039 0.385498
vt 0.3198242 0.4375
vt 0.2905273 0.4133301
vt 0.3171387 0.4243164
vt 0.3125 0.3837891
vt 0.3417969 0.4355469
vt 0.3422852 0.4536133
vt 0.3415527 0.4125977
vt 0.3071289 0.369873
vt 0.3203125 0.3693848
vt 0.3151855 0.3522949
vt 0.3254395 0.3842773
vt 0.329834 0.3693848
vt 0.3259277 0.3525391
vt 0.3571777 0.4125977
vt 0.3598633 0.4257812
vt 0.3349609 0.385498
vt 0.3505859 0.387207
vt 0.3483887 0.3662109
vt 0.3479004 0.3466797
vn -0.9434025 -0.202642 0.262541
vn -0.8770401 -0.2236159 0.4252017
vn -0.949232 -0.2554688 0.18356
vn -0.8294836 -0.1023777 0.5490681
vn -0.93889 -0.1823401 0.2919547
vn -0.5869123 -0.1196099 0.8007667
vn -0.813037 -0.1620049 0.5592183
vn -0.9373319 -0.177258 0.299981
vn -0.5492452 0.04385213 0.8345099
vn -0.4943548 -0.1067059 0.862686
vn -0.6968847 -0.2074154 0.6865353
vn -0.5193168 -0.03279348 0.8539525
vn -0.4453545 0.1504095 0.8826303
vn -0.4538169 0.2410991 0.8578586
vn -0.5245488 -0.05793833 0.8494067
vn -0.4366057 -0.2518468 0.8636832
vn -0.366358 -0.01403254 0.9303682
vn -0.7554096 -0.08549042 0.6496521
vn -0.9556323 -0.1505412 0.2531881
vn -0.5273714 -0.1934591 0.8273168
vn -0.7716183 0.0430581 0.6346269
vn -0.6121977 0.008559923 0.7906585
vn -0.3301091 -0.3205913 0.887834
vn -0.3376044 -0.2348486 0.9115204
vn -0.3339979 -0.04706182 0.9413981
vn -0.163585 -0.06541343 0.9843582
vn -0.3253747 0.0275767 0.945183
vn -0.3892137 -0.5936979 0.7042978
vn -0.2101171 -0.2261101 0.9511703
vn -0 -0.05853525 0.9982854
vn -0.2866162 -0.1744145 0.9420354
vn -0.397542 -0.6116948 0.6839516
vn 6.002097E-07 -0.2527616 0.9675286
vn -0 -0.1436515 0.9896283
vn 0.1635851 -0.0654135 0.9843582
vn -0.3390397 -0.2442011 0.9085252
vn -0.4097372 0.2471841 0.8780748
vn 0.2101171 -0.2261096 0.9511704
vn 0.3376043 -0.2348477 0.9115207
vn 0.3339981 -0.04706188 0.9413981
vn 0.6121973 0.008559937 0.7906586
vn -0.4621639 0.3344098 0.8213249
vn 3.721611E-07 0.4528119 0.8916061
vn 3.68098E-07 -0.0605775 0.9981635
vn 3.584879E-07 0.2819175 0.9594386
vn 0.3975435 -0.6116968 0.6839489
vn 0.4621646 0.3344101 0.8213245
vn 0.436606 -0.2518469 0.863683
vn 0.4538175 0.2410997 0.8578581
vn 0.5245491 -0.05793824 0.8494065
vn 0.4943551 -0.1067059 0.8626859
vn 0.4097374 0.2471842 0.8780746
vn 0.3390403 -0.2442022 0.9085246
vn 0.3892154 -0.5937003 0.7042949
vn 0.3253747 0.02757706 0.9451829
vn 0.5273712 -0.1934594 0.8273168
vn 0.2866163 -0.1744147 0.9420353
vn 0.3301093 -0.3205923 0.8878336
vn 0.3663583 -0.01403229 0.9303681
vn 0.7554095 -0.08549045 0.6496521
vn 0.7716183 0.04305824 0.6346269
vn 0.6968847 -0.2074156 0.6865351
vn 0.4453556 0.1504098 0.8826297
vn 0.5492454 0.04385196 0.8345097
vn 0.5869126 -0.1196099 0.8007666
vn 0.5193169 -0.03279364 0.8539523
vn 0.8294845 -0.1023778 0.5490667
vn 0.8770407 -0.2236162 0.4252003
vn 0.9373318 -0.177258 0.2999811
vn 0.9556322 -0.1505411 0.2531885
vn 0.8130378 -0.1620052 0.5592172
vn 0.9388903 -0.18234 0.2919543
vn 0.9434026 -0.2026419 0.2625408
vn 0.949232 -0.2554691 0.18356
g facial_eye_geo_0
f 3/3/3 2/2/2 1/1/1
f 2/2/2 4/4/4 1/1/1
f 5/5/5 1/1/1 4/4/4
f 6/6/6 4/4/4 2/2/2
f 7/7/7 5/5/5 4/4/4
f 8/8/8 5/5/5 7/7/7
f 6/6/6 9/9/9 4/4/4
f 4/4/4 9/9/9 7/7/7
f 9/9/9 6/6/6 10/10/10
f 11/11/11 8/8/8 7/7/7
f 9/9/9 12/12/12 7/7/7
f 12/12/12 11/11/11 7/7/7
f 13/13/13 9/9/9 10/10/10
f 12/12/12 9/9/9 13/13/13
f 10/10/10 14/14/14 13/13/13
f 10/10/10 15/15/15 14/14/14
f 15/15/15 16/16/16 14/14/14
f 17/17/17 12/12/12 13/13/13
f 12/12/12 17/17/17 11/11/11
f 13/13/13 14/14/14 17/17/17
f 18/18/18 8/8/8 11/11/11
f 18/18/18 19/19/19 8/8/8
f 11/11/11 20/20/20 18/18/18
f 18/18/18 20/20/20 21/21/21
f 20/20/20 22/22/22 21/21/21
f 11/11/11 17/17/17 23/23/23
f 11/11/11 23/23/23 20/20/20
f 20/20/20 24/24/24 22/22/22
f 24/24/24 25/25/25 22/22/22
f 26/26/26 25/25/25 24/24/24
f 14/14/14 27/27/27 17/17/17
f 17/17/17 27/27/27 23/23/23
f 20/20/20 23/23/23 28/28/28
f 28/28/28 24/24/24 20/20/20
f 29/29/29 26/26/26 24/24/24
f 30/30/30 26/26/26 29/29/29
f 27/27/27 31/31/31 23/23/23
f 23/23/23 31/31/31 28/28/28
f 24/24/24 28/28/28 32/32/32
f 32/32/32 29/29/29 24/24/24
f 29/29/29 32/32/32 33/33/33
f 34/34/34 30/30/30 29/29/29
f 33/33/33 34/34/34 29/29/29
f 35/35/35 30/30/30 34/34/34
f 28/28/28 31/31/31 36/36/36
f 28/28/28 36/36/36 32/32/32
f 31/31/31 27/27/27 36/36/36
f 33/33/33 32/32/32 36/36/36
f 27/27/27 14/14/14 37/37/37
f 36/36/36 27/27/27 37/37/37
f 38/38/38 35/35/35 34/34/34
f 38/38/38 34/34/34 33/33/33
f 38/38/38 39/39/39 35/35/35
f 39/39/39 40/40/40 35/35/35
f 40/40/40 39/39/39 41/41/41
f 14/14/14 42/42/42 37/37/37
f 16/16/16 42/42/42 14/14/14
f 43/43/43 42/42/42 16/16/16
f 37/37/37 42/42/42 43/43/43
f 44/44/44 43/43/43 16/16/16
f 36/36/36 37/37/37 45/45/45
f 45/45/45 33/33/33 36/36/36
f 45/45/45 37/37/37 43/43/43
f 33/33/33 46/46/46 38/38/38
f 39/39/39 38/38/38 46/46/46
f 47/47/47 43/43/43 44/44/44
f 48/48/48 47/47/47 44/44/44
f 49/49/49 47/47/47 48/48/48
f 50/50/50 49/49/49 48/48/48
f 49/49/49 50/50/50 51/51/51
f 43/43/43 47/47/47 52/52/52
f 45/45/45 43/43/43 52/52/52
f 47/47/47 49/49/49 52/52/52
f 53/53/53 33/33/33 45/45/45
f 53/53/53 46/46/46 33/33/33
f 45/45/45 52/52/52 53/53/53
f 46/46/46 54/54/54 39/39/39
f 53/53/53 54/54/54 46/46/46
f 52/52/52 55/55/55 53/53/53
f 49/49/49 55/55/55 52/52/52
f 56/56/56 39/39/39 54/54/54
f 39/39/39 56/56/56 41/41/41
f 53/53/53 57/57/57 54/54/54
f 53/53/53 55/55/55 57/57/57
f 57/57/57 58/58/58 54/54/54
f 57/57/57 55/55/55 58/58/58
f 54/54/54 58/58/58 56/56/56
f 59/59/59 55/55/55 49/49/49
f 55/55/55 59/59/59 58/58/58
f 56/56/56 60/60/60 41/41/41
f 60/60/60 61/61/61 41/41/41
f 56/56/56 58/58/58 62/62/62
f 56/56/56 62/62/62 60/60/60
f 59/59/59 62/62/62 58/58/58
f 63/63/63 59/59/59 49/49/49
f 49/49/49 51/51/51 63/63/63
f 64/64/64 63/63/63 51/51/51
f 63/63/63 64/64/64 59/59/59
f 65/65/65 64/64/64 51/51/51
f 64/64/64 66/66/66 59/59/59
f 62/62/62 59/59/59 66/66/66
f 67/67/67 64/64/64 65/65/65
f 66/66/66 64/64/64 67/67/67
f 68/68/68 67/67/67 65/65/65
f 69/69/69 60/60/60 62/62/62
f 70/70/70 60/60/60 69/69/69
f 62/62/62 66/66/66 71/71/71
f 69/69/69 62/62/62 71/71/71
f 71/71/71 66/66/66 67/67/67
f 72/72/72 69/69/69 71/71/71
f 73/73/73 72/72/72 71/71/71
f 67/67/67 73/73/73 71/71/71
f 67/67/67 68/68/68 73/73/73
f 68/68/68 74/74/74 73/73/73
