g weapon_geo
v -0.4304316 1.692506 -0.1130675
v -0.4224318 1.693012 -0.08549248
v -0.4490994 1.682264 -0.1323373
v -0.2911884 1.138021 -0.1125637
v -0.003826913 1.353809 -0.1050273
v -0.0180628 1.366944 -0.2239144
v -0.3054239 1.151157 -0.2314495
v -0.3054239 1.151157 -0.2314495
v -0.0180628 1.366944 -0.2239144
v -0.07324719 1.439919 -0.2092436
v -0.3606075 1.22413 -0.2167792
v -0.07324719 1.439919 -0.2092436
v -0.05901149 1.426784 -0.09035751
v -0.3463717 1.210996 -0.09789219
v -0.3606075 1.22413 -0.2167792
v -0.3463717 1.210996 -0.09789219
v -0.05901149 1.426784 -0.09035751
v -0.003826913 1.353809 -0.1050273
v -0.2911884 1.138021 -0.1125637
v -0.3463717 1.210996 -0.09789219
v -0.2911884 1.138021 -0.1125637
v -0.3054239 1.151157 -0.2314495
v -0.3606075 1.22413 -0.2167792
v -0.003826913 1.353809 -0.1050273
v -0.05901149 1.426784 -0.09035751
v -0.07324719 1.439919 -0.2092436
v -0.0180628 1.366944 -0.2239144
v -0.2210016 1.218082 -0.1871747
v -0.2735288 1.174559 -0.1682617
v 0.01003735 0.7995709 -0.2436463
v 0.06256479 0.8430943 -0.2625594
v -0.05699177 1.342338 -0.1883282
v 0.2265749 0.9673509 -0.2637127
v 0.3775502 0.4265583 -0.3462962
v 0.3375132 0.3665181 -0.330703
v 0.644756 0.414349 -0.3748837
v 0.69727 0.3450818 -0.3698158
v 0.01003735 0.7995709 -0.2436463
v -0.2735288 1.174559 -0.1682617
v -0.2172465 1.213471 -0.1501137
v 0.06631976 0.8384833 -0.2254984
v 0.3813038 0.4219467 -0.3092351
v 0.3375132 0.3665181 -0.330703
v 0.2303293 0.9627393 -0.2266528
v -0.05323792 1.337727 -0.1512679
v 0.6485106 0.4097372 -0.3378229
v 0.69727 0.3450818 -0.3698158
v 0.69727 0.3450818 -0.3698158
v 0.6485106 0.4097372 -0.3378229
v 0.644756 0.414349 -0.3748837
v 0.2303293 0.9627393 -0.2266528
v 0.2265749 0.9673509 -0.2637127
v -0.05323792 1.337727 -0.1512679
v -0.05699177 1.342338 -0.1883282
v -0.4224318 1.693012 -0.08549248
v -0.4248379 1.685636 -0.05784418
v -0.4395767 1.67057 -0.03833898
v -0.4606493 1.652951 -0.02995982
v -0.4833875 1.637378 -0.03803103
v -0.5020544 1.627134 -0.05730033
v -0.5100542 1.626628 -0.08487538
v -0.5076492 1.634005 -0.1125244
v -0.492911 1.649072 -0.1320282
v -0.4718383 1.666691 -0.1404074
v -0.4490994 1.682264 -0.1323373
v -0.4654634 1.578219 -0.1237391
v -0.4678686 1.570842 -0.09609106
v -0.4397146 1.579171 -0.09790638
v -0.4311408 1.590395 -0.1214863
v -0.4507242 1.593286 -0.1432432
v -0.4296526 1.610905 -0.151623
v -0.4092351 1.606992 -0.1216402
v -0.4069135 1.626478 -0.1435521
v -0.3882458 1.63672 -0.1242823
v -0.3958992 1.612365 -0.09821475
v -0.380246 1.637226 -0.09670722
v -0.3826514 1.629849 -0.06905937
v -0.4044734 1.601143 -0.07463415
v -0.3973902 1.614783 -0.04955418
v -0.4184629 1.597164 -0.04117498
v -0.4263802 1.584546 -0.07448021
v -0.441202 1.581591 -0.04924596
v -0.4598685 1.571348 -0.06851506
v -0.4397146 1.579171 -0.09790638
v -0.4678686 1.570842 -0.09609106
v -0.2138888 1.280538 -0.1579413
v -0.4311408 1.590395 -0.1214863
v -0.4397146 1.579171 -0.09790638
v -0.2053151 1.291761 -0.1815214
v -0.4092351 1.606992 -0.1216402
v -0.1834072 1.308359 -0.1816754
v -0.3958992 1.612365 -0.09821475
v -0.1700718 1.313734 -0.1582495
v -0.4044734 1.601143 -0.07463415
v -0.1786455 1.30251 -0.1346693
v -0.4263802 1.584546 -0.07448021
v -0.2005532 1.285912 -0.1345144
v -0.4397146 1.579171 -0.09790638
v -0.2138888 1.280538 -0.1579413
v -0.4654634 1.578219 -0.1237391
v -0.5100542 1.626628 -0.08487538
v -0.4678686 1.570842 -0.09609106
v -0.5076492 1.634005 -0.1125244
v -0.492911 1.649072 -0.1320282
v -0.4507242 1.593286 -0.1432432
v -0.4296526 1.610905 -0.151623
v -0.4718383 1.666691 -0.1404074
v -0.4490994 1.682264 -0.1323373
v -0.4069135 1.626478 -0.1435521
v -0.3882458 1.63672 -0.1242823
v -0.4304316 1.692506 -0.1130675
v -0.4224318 1.693012 -0.08549248
v -0.380246 1.637226 -0.09670722
v -0.3826514 1.629849 -0.06905937
v -0.4248379 1.685636 -0.05784418
v -0.4395767 1.67057 -0.03833898
v -0.3973902 1.614783 -0.04955418
v -0.4184629 1.597164 -0.04117498
v -0.4606493 1.652951 -0.02995982
v -0.4833875 1.637378 -0.03803103
v -0.441202 1.581591 -0.04924596
v -0.4598685 1.571348 -0.06851506
v -0.5020544 1.627134 -0.05730033
v -0.5100542 1.626628 -0.08487538
v -0.4678686 1.570842 -0.09609106
vt 0.5576172 0.3713379
vt 0.5600586 0.3671875
vt 0.5551758 0.3757324
vt 0.684082 0.3803711
vt 0.578125 0.3803711
vt 0.578125 0.3503418
vt 0.684082 0.3503418
vt 0.5869141 0.3376465
vt 0.6879883 0.3376465
vt 0.6879883 0.3117676
vt 0.5869141 0.3117676
vt 0.578125 0.3842773
vt 0.578125 0.4140625
vt 0.684082 0.4140625
vt 0.684082 0.3842773
vt 0.8168945 0.3117676
vt 0.7163086 0.3117676
vt 0.7163086 0.3376465
vt 0.8168945 0.3376465
vt 0.8168945 0.3117676
vt 0.8168945 0.3376465
vt 0.8457031 0.3376465
vt 0.8457031 0.3117676
vt 0.7163086 0.3376465
vt 0.7163086 0.3117676
vt 0.6879883 0.3117676
vt 0.6879883 0.3376465
vt 0.9101562 0.3183594
vt 0.8876953 0.3183594
vt 0.8886719 0.1759033
vt 0.9101562 0.1767578
vt 0.9716797 0.3183594
vt 0.9716797 0.1767578
vt 0.9101562 0.08331299
vt 0.8891602 0.07562256
vt 0.9716797 0.03170776
vt 0.9716797 0.004299164
vt 0.8886719 0.1759033
vt 0.8876953 0.3183594
vt 0.9101562 0.3183594
vt 0.9101562 0.1767578
vt 0.9101562 0.08331299
vt 0.8891602 0.07562256
vt 0.9716797 0.1767578
vt 0.9716797 0.3183594
vt 0.9716797 0.03170776
vt 0.9716797 0.004299164
vt 0.9858398 0.006698608
vt 0.9770508 0.03189087
vt 0.9941406 0.03201294
vt 0.9770508 0.1766357
vt 0.9941406 0.1767578
vt 0.9770508 0.3181152
vt 0.9941406 0.3181152
vt 0.5600586 0.3671875
vt 0.5576172 0.3630371
vt 0.5551758 0.3588867
vt 0.550293 0.3588867
vt 0.5454102 0.3588867
vt 0.5429688 0.3630371
vt 0.5405273 0.3671875
vt 0.5429688 0.3713379
vt 0.5454102 0.3757324
vt 0.550293 0.3757324
vt 0.5551758 0.3757324
vt 0.8325195 0.354248
vt 0.8325195 0.3498535
vt 0.8305664 0.3498535
vt 0.8305664 0.3588867
vt 0.8325195 0.3588867
vt 0.8325195 0.3632812
vt 0.8305664 0.3676758
vt 0.8325195 0.3676758
vt 0.8325195 0.3720703
vt 0.8305664 0.376709
vt 0.8325195 0.376709
vt 0.8325195 0.3811035
vt 0.8305664 0.385498
vt 0.8325195 0.385498
vt 0.8325195 0.3898926
vt 0.8305664 0.3942871
vt 0.8325195 0.3942871
vt 0.8325195 0.3989258
vt 0.8305664 0.4033203
vt 0.8325195 0.4033203
vt 0.6943359 0.3498535
vt 0.8305664 0.3588867
vt 0.8305664 0.3498535
vt 0.6943359 0.3588867
vt 0.8305664 0.3676758
vt 0.6943359 0.3676758
vt 0.8305664 0.376709
vt 0.6943359 0.376709
vt 0.8305664 0.385498
vt 0.6943359 0.385498
vt 0.8305664 0.3942871
vt 0.6943359 0.3942871
vt 0.8305664 0.4033203
vt 0.6943359 0.4033203
vt 0.8325195 0.354248
vt 0.8432617 0.3498535
vt 0.8325195 0.3498535
vt 0.8432617 0.354248
vt 0.8432617 0.3588867
vt 0.8325195 0.3588867
vt 0.8325195 0.3632812
vt 0.8432617 0.3632812
vt 0.8432617 0.3676758
vt 0.8325195 0.3676758
vt 0.8325195 0.3720703
vt 0.8432617 0.3720703
vt 0.8432617 0.376709
vt 0.8325195 0.376709
vt 0.8325195 0.3811035
vt 0.8432617 0.3811035
vt 0.8432617 0.385498
vt 0.8325195 0.385498
vt 0.8325195 0.3898926
vt 0.8432617 0.3898926
vt 0.8432617 0.3942871
vt 0.8325195 0.3942871
vt 0.8325195 0.3989258
vt 0.8432617 0.3989258
vt 0.8432617 0.4033203
vt 0.8325195 0.4033203
vn 0.5806903 0.6566618 -0.4812422
vn 0.5248587 0.8495663 0.05254037
vn -0.5955598 0.7875509 0.158342
vn 0.595552 -0.78756 -0.1583253
vn 0.595552 -0.7875601 -0.1583253
vn 0.5955521 -0.7875601 -0.1583253
vn 0.5955521 -0.7875601 -0.1583253
vn -0.07854076 0.1390635 -0.987164
vn -0.07854077 0.1390635 -0.987164
vn -0.07854076 0.1390635 -0.987164
vn -0.07854076 0.1390635 -0.987164
vn -0.5955548 0.7875583 0.1583241
vn -0.5955548 0.7875583 0.1583241
vn -0.5955548 0.7875583 0.1583241
vn -0.5955548 0.7875583 0.1583241
vn 0.07854101 -0.1390643 0.9871638
vn 0.07854102 -0.1390643 0.9871638
vn 0.078541 -0.1390643 0.9871638
vn 0.07854102 -0.1390643 0.9871638
vn -0.7945711 -0.6065191 0.02813137
vn -0.7945711 -0.6065191 0.02813137
vn -0.7945711 -0.6065191 0.02813137
vn -0.7945711 -0.6065191 0.02813137
vn 0.7945694 0.6065211 -0.02813535
vn 0.7945694 0.6065211 -0.02813536
vn 0.7945694 0.6065211 -0.02813536
vn 0.7945695 0.6065211 -0.02813536
vn -0.1542505 0.08130822 -0.9846806
vn -0.3077591 -0.04163589 -0.9505529
vn -0.3077602 -0.0416378 -0.9505524
vn -0.151384 0.08352735 -0.9849396
vn -0.1000217 0.122857 -0.9873712
vn -0.1000217 0.1228565 -0.9873712
vn -0.1394349 0.06280935 -0.9882373
vn -0.2507703 -0.08019559 -0.9647191
vn -0.1053036 0.03726689 -0.9937416
vn -0.1147224 -0.1675244 -0.9791702
vn -0.1148715 -0.2785546 0.953526
vn -0.1148711 -0.2785551 0.9535259
vn 0.04532865 -0.1638293 0.9854468
vn 0.04824314 -0.1616681 0.9856653
vn 0.06009513 -0.1822675 0.9814108
vn -0.05716993 -0.3179872 0.9463697
vn 0.1000246 -0.1228539 0.9873713
vn 0.1000256 -0.1228543 0.9873711
vn 0.09400332 -0.207538 0.9736998
vn 0.07686388 -0.4028514 0.9120321
vn 0.7970622 0.6038712 -0.005605531
vn 0.7970642 0.6038685 -0.005604916
vn 0.7970642 0.6038687 -0.005604916
vn 0.7970639 0.6038689 -0.005605464
vn 0.7970639 0.6038689 -0.005605463
vn 0.7970634 0.6038696 -0.005606318
vn 0.7970634 0.6038696 -0.005606318
vn 0.5248587 0.8495663 0.05254037
vn 0.6802754 0.5343587 0.5016832
vn -0.5955503 0.7875663 0.1583013
vn -0.5955684 0.7875571 0.1582785
vn -0.5955657 0.7875565 0.1582912
vn -0.5955591 0.7875592 0.1583033
vn -0.5955547 0.7875591 0.1583202
vn -0.5955554 0.7875549 0.1583381
vn -0.5955546 0.7875553 0.1583392
vn -0.5955434 0.7875679 0.1583192
vn -0.5955598 0.7875509 0.158342
vn 0.3101377 -0.8972346 -0.3143003
vn 0.271982 -0.9511784 -0.1458952
vn 0.3228489 -0.9346483 -0.1490005
vn 0.4183682 -0.8095922 -0.4117385
vn 0.3832663 -0.8054922 -0.4519835
vn 0.5266441 -0.699607 -0.4829039
vn 0.6624529 -0.6246632 -0.4134636
vn 0.6676354 -0.5900465 -0.4539914
vn 0.7769749 -0.543543 -0.3176021
vn 0.8110287 -0.5647972 -0.1524358
vn 0.8407441 -0.5202643 -0.1499144
vn 0.8108002 -0.5850956 0.01631394
vn 0.7155035 -0.6898445 0.1103147
vn 0.7294433 -0.6659755 0.1561708
vn 0.5942881 -0.7827055 0.1849159
vn 0.4714178 -0.8747655 0.1120297
vn 0.4450742 -0.8814099 0.1581946
vn 0.3439554 -0.9387814 0.01960093
vn 0.3228489 -0.9346483 -0.1490005
vn 0.271982 -0.9511784 -0.1458952
vn -0.7970673 -0.6038644 0.005594256
vn -0.4851565 -0.1955367 -0.8522843
vn -0.7970672 -0.6038648 0.005596813
vn -0.4851596 -0.1955397 -0.8522817
vn 0.3119114 0.4083335 -0.8578898
vn 0.3119182 0.4083377 -0.8578854
vn 0.7970624 0.6038709 -0.005607198
vn 0.7970622 0.6038713 -0.005609459
vn 0.4851564 0.1955423 0.8522831
vn 0.485164 0.1955493 0.8522772
vn -0.3119147 -0.408332 0.8578893
vn -0.3119181 -0.4083341 0.8578871
vn -0.7970672 -0.6038648 0.005596813
vn -0.7970673 -0.6038644 0.005594256
vn -0.7402836 -0.4615368 -0.4888394
vn -0.7970606 -0.6038731 0.00562248
vn -0.797061 -0.6038726 0.005618264
vn -0.7402831 -0.461536 -0.488841
vn -0.4851482 -0.1955335 -0.8522898
vn -0.4851474 -0.1955328 -0.8522905
vn -0.1000401 0.1228494 -0.9873703
vn -0.1000407 0.1228489 -0.9873703
vn 0.3118905 0.4083234 -0.8579022
vn 0.3118927 0.4083248 -0.8579008
vn 0.6402527 0.5843905 -0.4985622
vn 0.5806903 0.6566618 -0.4812422
vn 0.5248587 0.8495663 0.05254037
vn 0.797063 0.6038703 -0.005602772
vn 0.740287 0.461535 0.4888359
vn 0.6802754 0.5343587 0.5016832
vn 0.4851561 0.1955373 0.8522844
vn 0.4851597 0.1955405 0.8522816
vn 0.1000239 -0.1228559 0.9873711
vn 0.1000241 -0.1228556 0.9873711
vn -0.3118902 -0.4083162 0.8579058
vn -0.311896 -0.4083199 0.8579019
vn -0.6402538 -0.5843887 0.498563
vn -0.6402516 -0.5843878 0.4985667
vn -0.7970606 -0.6038731 0.00562248
vn -0.797061 -0.6038726 0.005618264
g weapon_geo_0
f 3/3/3 2/2/2 1/1/1
f 6/6/6 5/5/5 4/4/4
f 7/7/7 6/6/6 4/4/4
f 10/10/10 9/9/9 8/8/8
f 11/11/11 10/10/10 8/8/8
f 14/14/14 13/13/13 12/12/12
f 15/15/15 14/14/14 12/12/12
f 18/18/18 17/17/17 16/16/16
f 19/19/19 18/18/18 16/16/16
f 22/22/22 21/21/21 20/20/20
f 23/23/23 22/22/22 20/20/20
f 26/26/26 25/25/25 24/24/24
f 27/27/27 26/26/26 24/24/24
f 30/30/30 29/29/29 28/28/28
f 31/31/31 30/30/30 28/28/28
f 28/28/28 32/32/32 31/31/31
f 32/32/32 33/33/33 31/31/31
f 31/31/31 34/34/34 30/30/30
f 31/31/31 33/33/33 34/34/34
f 34/34/34 35/35/35 30/30/30
f 33/33/33 36/36/36 34/34/34
f 35/35/35 34/34/34 36/36/36
f 37/37/37 35/35/35 36/36/36
f 40/40/40 39/39/39 38/38/38
f 41/41/41 40/40/40 38/38/38
f 42/42/42 41/41/41 38/38/38
f 43/43/43 42/42/42 38/38/38
f 40/40/40 41/41/41 44/44/44
f 44/44/44 41/41/41 42/42/42
f 45/45/45 40/40/40 44/44/44
f 46/46/46 44/44/44 42/42/42
f 46/46/46 42/42/42 43/43/43
f 47/47/47 46/46/46 43/43/43
f 50/50/50 49/49/49 48/48/48
f 51/51/51 49/49/49 50/50/50
f 52/52/52 51/51/51 50/50/50
f 53/53/53 51/51/51 52/52/52
f 54/54/54 53/53/53 52/52/52
f 57/57/57 56/56/56 55/55/55
f 57/57/57 55/55/55 58/58/58
f 58/58/58 55/55/55 59/59/59
f 59/59/59 55/55/55 60/60/60
f 60/60/60 55/55/55 61/61/61
f 55/55/55 62/62/62 61/61/61
f 63/63/63 62/62/62 55/55/55
f 55/55/55 64/64/64 63/63/63
f 65/65/65 64/64/64 55/55/55
f 68/68/68 67/67/67 66/66/66
f 69/69/69 68/68/68 66/66/66
f 66/66/66 70/70/70 69/69/69
f 69/69/69 70/70/70 71/71/71
f 72/72/72 69/69/69 71/71/71
f 71/71/71 73/73/73 72/72/72
f 72/72/72 73/73/73 74/74/74
f 75/75/75 72/72/72 74/74/74
f 74/74/74 76/76/76 75/75/75
f 75/75/75 76/76/76 77/77/77
f 78/78/78 75/75/75 77/77/77
f 77/77/77 79/79/79 78/78/78
f 78/78/78 79/79/79 80/80/80
f 81/81/81 78/78/78 80/80/80
f 80/80/80 82/82/82 81/81/81
f 81/81/81 82/82/82 83/83/83
f 84/84/84 81/81/81 83/83/83
f 83/83/83 85/85/85 84/84/84
f 88/88/88 87/87/87 86/86/86
f 87/87/87 89/89/89 86/86/86
f 87/87/87 90/90/90 89/89/89
f 90/90/90 91/91/91 89/89/89
f 90/90/90 92/92/92 91/91/91
f 92/92/92 93/93/93 91/91/91
f 92/92/92 94/94/94 93/93/93
f 94/94/94 95/95/95 93/93/93
f 94/94/94 96/96/96 95/95/95
f 96/96/96 97/97/97 95/95/95
f 96/96/96 98/98/98 97/97/97
f 98/98/98 99/99/99 97/97/97
f 102/102/102 101/101/101 100/100/100
f 101/101/101 103/103/103 100/100/100
f 103/103/103 104/104/104 100/100/100
f 104/104/104 105/105/105 100/100/100
f 105/105/105 104/104/104 106/106/106
f 104/104/104 107/107/107 106/106/106
f 107/107/107 108/108/108 106/106/106
f 108/108/108 109/109/109 106/106/106
f 109/109/109 108/108/108 110/110/110
f 108/108/108 111/111/111 110/110/110
f 111/111/111 112/112/112 110/110/110
f 112/112/112 113/113/113 110/110/110
f 113/113/113 112/112/112 114/114/114
f 112/112/112 115/115/115 114/114/114
f 115/115/115 116/116/116 114/114/114
f 116/116/116 117/117/117 114/114/114
f 117/117/117 116/116/116 118/118/118
f 116/116/116 119/119/119 118/118/118
f 119/119/119 120/120/120 118/118/118
f 120/120/120 121/121/121 118/118/118
f 121/121/121 120/120/120 122/122/122
f 120/120/120 123/123/123 122/122/122
f 123/123/123 124/124/124 122/122/122
f 124/124/124 125/125/125 122/122/122
