g blade_geo
v 0.03816852 0.03387339 1.057563
v 0.03816861 3.725291E-11 0.8690353
v 0.0381686 -2.980232E-10 1.057563
v 0.03816852 0.01609701 0.8690353
v 2.114457E-18 0.06974053 1.057563
v 1.494981E-19 0.07035933 0.7803928
v 0.03816852 0.02872761 0.7803928
v 0.03816861 4.470348E-10 0.7803928
v 0.03728027 0.02577573 0.4925728
v -1.067511E-18 0.07068608 0.4929441
v 0.03816858 0.01193072 0.6472101
v 0.03816861 -8.940697E-10 0.653617
v 0.02170735 4.711146E-18 0.640918
v 0.03816858 0.01193072 0.6351337
v 0.03816861 -2.980232E-10 0.6287268
v 0.03728033 -5.960464E-09 0.4925054
v 0.03367315 1.660065E-18 0.3158337
v 0.03367312 0.0173791 0.3158337
v -3.732072E-19 0.06148457 0.4099274
v 9.729077E-19 0.06170372 0.3166276
v 8.841156E-18 -1.15964E-17 1.797072
v -1.054542E-17 0.03095561 1.71581
v 0.0217243 -1.935801E-17 1.714051
v 0.03816856 -8.34465E-09 1.644728
v 5.700003E-18 0.04970639 1.653947
v 0.03816851 0.01983114 1.583369
v 0.03816859 -1.192093E-09 1.583395
v 9.406555E-18 0.06341743 1.591071
v 0.03816859 -7.152557E-09 1.525716
v 0.03816851 0.0297543 1.525716
v -6.386035E-19 0.06501754 1.532715
v 0.0381686 -2.980232E-10 1.057563
v 2.114457E-18 0.06974053 1.057563
v 0.03816852 0.03387339 1.057563
v 0.03816852 -0.03387339 1.057563
v 0.0381686 -2.980232E-10 1.057563
v 0.03816861 3.725291E-11 0.8690353
v 0.03816852 -0.016097 0.8690353
v 3.621786E-19 -0.06974053 1.057563
v -3.230192E-18 -0.07035933 0.7803928
v 0.03816852 -0.02872761 0.7803928
v 0.03816861 4.470348E-10 0.7803928
v 0.03728027 -0.02577573 0.4925728
v -1.846135E-18 -0.07068608 0.4929441
v 0.03816858 -0.01193072 0.6472101
v 0.03816861 -8.940697E-10 0.653617
v 0.02170735 4.711146E-18 0.640918
v 0.03816858 -0.01193072 0.6351337
v 0.03816861 -2.980232E-10 0.6287268
v 0.03728033 -5.960464E-09 0.4925054
v 0.03367315 1.660065E-18 0.3158337
v 0.03367312 -0.01737908 0.3158337
v 2.365057E-19 -0.06148457 0.4099274
v 1.803908E-18 -0.06170372 0.3166276
v 8.841156E-18 -1.15964E-17 1.797072
v 0.0217243 -1.935801E-17 1.714051
v 5.161656E-18 -0.03095561 1.71581
v 0.03816856 -8.34465E-09 1.644728
v 2.159013E-18 -0.04970639 1.653947
v 0.03816851 -0.01983115 1.583369
v 0.03816859 -1.192093E-09 1.583395
v 1.005435E-18 -0.06341743 1.591071
v 0.03816859 -7.152557E-09 1.525716
v 0.03816851 -0.02975429 1.525716
v 1.011897E-18 -0.06501754 1.532715
v 0.0381686 -2.980232E-10 1.057563
v 3.621786E-19 -0.06974053 1.057563
v 0.03816852 -0.03387339 1.057563
v -0.03816852 0.03387339 1.057563
v -0.0381686 -2.980232E-10 1.057563
v -0.03816861 3.72529E-11 0.8690353
v -0.03816852 0.01609701 0.8690353
v 2.114457E-18 0.06974053 1.057563
v 1.494981E-19 0.07035933 0.7803928
v -0.03816852 0.02872761 0.7803928
v -0.03816861 4.470348E-10 0.7803928
v -0.03728027 0.02577573 0.4925728
v -1.067511E-18 0.07068608 0.4929441
v -0.03816858 0.01193072 0.6472101
v -0.03816861 -8.940697E-10 0.653617
v -0.02170735 3.225474E-18 0.640918
v -0.03816858 0.01193072 0.6351337
v -0.03816861 -2.980232E-10 0.6287268
v -0.03728033 -5.960464E-09 0.4925054
v -0.03367315 -1.657752E-18 0.3158337
v -0.03367312 0.0173791 0.3158337
v -3.732072E-19 0.06148457 0.4099274
v 9.729077E-19 0.06170372 0.3166276
v 8.841156E-18 -1.15964E-17 1.797072
v -0.0217243 -3.192337E-17 1.714051
v -1.054542E-17 0.03095561 1.71581
v -0.03816856 -8.34465E-09 1.644728
v 5.700003E-18 0.04970639 1.653947
v -0.03816851 0.01983114 1.583369
v -0.03816859 -1.192093E-09 1.583395
v 9.406555E-18 0.06341743 1.591071
v -0.03816859 -7.152557E-09 1.525716
v -0.03816851 0.0297543 1.525716
v -6.386035E-19 0.06501754 1.532715
v -0.0381686 -2.980232E-10 1.057563
v 2.114457E-18 0.06974053 1.057563
v -0.03816852 0.03387339 1.057563
v -0.03816852 -0.03387339 1.057563
v -0.03816861 3.72529E-11 0.8690353
v -0.0381686 -2.980232E-10 1.057563
v -0.03816852 -0.016097 0.8690353
v 3.621786E-19 -0.06974053 1.057563
v -3.230192E-18 -0.07035933 0.7803928
v -0.03816852 -0.02872761 0.7803928
v -0.03816861 4.470348E-10 0.7803928
v -0.03728027 -0.02577573 0.4925728
v -1.846135E-18 -0.07068608 0.4929441
v -0.03816858 -0.01193072 0.6472101
v -0.03816861 -8.940697E-10 0.653617
v -0.02170735 3.225474E-18 0.640918
v -0.03816858 -0.01193072 0.6351337
v -0.03816861 -2.980232E-10 0.6287268
v -0.03728033 -5.960464E-09 0.4925054
v -0.03367315 -1.657752E-18 0.3158337
v -0.03367312 -0.01737908 0.3158337
v 2.365057E-19 -0.06148457 0.4099274
v 1.803908E-18 -0.06170372 0.3166276
v 8.841156E-18 -1.15964E-17 1.797072
v 5.161656E-18 -0.03095561 1.71581
v -0.0217243 -3.192337E-17 1.714051
v -0.03816856 -8.34465E-09 1.644728
v 2.159013E-18 -0.04970639 1.653947
v -0.03816851 -0.01983115 1.583369
v -0.03816859 -1.192093E-09 1.583395
v 1.005435E-18 -0.06341743 1.591071
v -0.03816859 -7.152557E-09 1.525716
v -0.03816851 -0.02975429 1.525716
v 1.011897E-18 -0.06501754 1.532715
v -0.0381686 -2.980232E-10 1.057563
v 3.621786E-19 -0.06974053 1.057563
v -0.03816852 -0.03387339 1.057563
vt 0.1801758 0.9589844
vt 0.1313477 0.7128906
vt 0.1313477 0.9550781
vt 0.1553955 0.7133789
vt 0.2407227 0.9584961
vt 0.2410889 0.6000977
vt 0.1722412 0.5976562
vt 0.1313477 0.5966797
vt 0.168335 0.3051758
vt 0.2412109 0.3051758
vt 0.147583 0.4609375
vt 0.1313477 0.4675293
vt 0.1313477 0.4545898
vt 0.147583 0.4484863
vt 0.1313477 0.4418945
vt 0.1312256 0.3051758
vt 0.1313477 0.05203247
vt 0.1567383 0.05215454
vt 0.2412109 0.1651611
vt 0.2412109 0.05618286
vt 0.006923676 0.9907227
vt 0.05511475 0.902832
vt 0.006885529 0.8964844
vt 0.006874084 0.8286133
vt 0.08087158 0.8374023
vt 0.03189087 0.7333984
vt 0.006874084 0.7333984
vt 0.1015625 0.7460938
vt 0.006874084 0.6489258
vt 0.04876709 0.6489258
vt 0.1074829 0.6591797
vt 0.004047394 0.03634644
vt 0.1155396 0.03671265
vt 0.05554199 0.03662109
vt 0.1801758 0.9589844
vt 0.1313477 0.9550781
vt 0.1313477 0.7128906
vt 0.1553955 0.7133789
vt 0.2407227 0.9584961
vt 0.2410889 0.6000977
vt 0.1722412 0.5976562
vt 0.1313477 0.5966797
vt 0.168335 0.3051758
vt 0.2412109 0.3051758
vt 0.147583 0.4609375
vt 0.1313477 0.4675293
vt 0.1313477 0.4545898
vt 0.147583 0.4484863
vt 0.1313477 0.4418945
vt 0.1312256 0.3051758
vt 0.1313477 0.05203247
vt 0.1567383 0.05215454
vt 0.2412109 0.1651611
vt 0.2412109 0.05618286
vt 0.006923676 0.9907227
vt 0.006885529 0.8964844
vt 0.05511475 0.902832
vt 0.006874084 0.8286133
vt 0.08087158 0.8374023
vt 0.03189087 0.7333984
vt 0.006874084 0.7333984
vt 0.1015625 0.7460938
vt 0.006874084 0.6489258
vt 0.04876709 0.6489258
vt 0.1074829 0.6591797
vt 0.004047394 0.03634644
vt 0.1155396 0.03671265
vt 0.05554199 0.03662109
vt 0.1801758 0.9589844
vt 0.1313477 0.9550781
vt 0.1313477 0.7128906
vt 0.1553955 0.7133789
vt 0.2407227 0.9584961
vt 0.2410889 0.6000977
vt 0.1722412 0.5976562
vt 0.1313477 0.5966797
vt 0.168335 0.3051758
vt 0.2412109 0.3051758
vt 0.147583 0.4609375
vt 0.1313477 0.4675293
vt 0.1313477 0.4545898
vt 0.147583 0.4484863
vt 0.1313477 0.4418945
vt 0.1312256 0.3051758
vt 0.1313477 0.05203247
vt 0.1567383 0.05215454
vt 0.2412109 0.1651611
vt 0.2412109 0.05618286
vt 0.006923676 0.9907227
vt 0.006885529 0.8964844
vt 0.05511475 0.902832
vt 0.006874084 0.8286133
vt 0.08087158 0.8374023
vt 0.03189087 0.7333984
vt 0.006874084 0.7333984
vt 0.1015625 0.7460938
vt 0.006874084 0.6489258
vt 0.04876709 0.6489258
vt 0.1074829 0.6591797
vt 0.004047394 0.03634644
vt 0.1155396 0.03671265
vt 0.05554199 0.03662109
vt 0.1801758 0.9589844
vt 0.1313477 0.7128906
vt 0.1313477 0.9550781
vt 0.1553955 0.7133789
vt 0.2407227 0.9584961
vt 0.2410889 0.6000977
vt 0.1722412 0.5976562
vt 0.1313477 0.5966797
vt 0.168335 0.3051758
vt 0.2412109 0.3051758
vt 0.147583 0.4609375
vt 0.1313477 0.4675293
vt 0.1313477 0.4545898
vt 0.147583 0.4484863
vt 0.1313477 0.4418945
vt 0.1312256 0.3051758
vt 0.1313477 0.05203247
vt 0.1567383 0.05215454
vt 0.2412109 0.1651611
vt 0.2412109 0.05618286
vt 0.006923676 0.9907227
vt 0.05511475 0.902832
vt 0.006885529 0.8964844
vt 0.006874084 0.8286133
vt 0.08087158 0.8374023
vt 0.03189087 0.7333984
vt 0.006874084 0.7333984
vt 0.1015625 0.7460938
vt 0.006874084 0.6489258
vt 0.04876709 0.6489258
vt 0.1074829 0.6591797
vt 0.004047394 0.03634644
vt 0.1155396 0.03671265
vt 0.05554199 0.03662109
vn 0.8662109 0.4992676 -0.003133774
vn 1 0 0
vn 1 0 0
vn 0.8510742 0.5244141 -0.01554871
vn 0.7172852 0.6967773 -0.004150391
vn 0.753418 0.6577148 -0.003557205
vn 0.8325195 0.5537109 0.01372528
vn 1 0 0
vn 0.8779297 0.4782715 -0.01829529
vn 0.7675781 0.640625 -0.01600647
vn 1 0.0005497932 -0.01702881
vn 0.9970703 0 -0.07550049
vn 1 2.980232E-07 0.004970551
vn 1 0.0009269714 0.0104599
vn 0.9980469 2.384186E-07 0.06500244
vn 1 0 -0.01589966
vn 1 0 -0.02041626
vn 0.9580078 0.2851562 -0.02220154
vn 0.7250977 0.6855469 -0.06182861
vn 0.7963867 0.6049805 0.001420975
vn 0.9672852 0 0.2531738
vn 0.8032227 0.5629883 0.1943359
vn 0.9702148 -1.788139E-07 0.2416992
vn 0.9765625 -2.980232E-07 0.2149658
vn 0.7875977 0.5922852 0.1702881
vn 0.8994141 0.4267578 0.09558105
vn 1 0 3.576279E-07
vn 0.7436523 0.659668 0.1088257
vn 1 0 0
vn 0.8657227 0.5004883 0.007106781
vn 0.6821289 0.7314453 0.007743835
vn 1 0 0
vn 0.7172852 0.6967773 -0.004150391
vn 0.8662109 0.4992676 -0.003133774
vn 0.8662109 -0.4992676 -0.003133774
vn 1 0 0
vn 1 0 0
vn 0.8510742 -0.5244141 -0.01554871
vn 0.7172852 -0.6967773 -0.004150391
vn 0.753418 -0.6577148 -0.003557205
vn 0.8325195 -0.5537109 0.01372528
vn 1 0 0
vn 0.8779297 -0.4782715 -0.01829529
vn 0.7675781 -0.640625 -0.01600647
vn 1 -0.0005497932 -0.01702881
vn 0.9970703 0 -0.07550049
vn 1 2.980232E-07 0.004970551
vn 1 -0.0009274483 0.0104599
vn 0.9980469 2.384186E-07 0.06500244
vn 1 0 -0.01589966
vn 1 0 -0.02041626
vn 0.9580078 -0.2851562 -0.02220154
vn 0.7250977 -0.6855469 -0.06182861
vn 0.7963867 -0.6049805 0.001420975
vn 0.9672852 0 0.2531738
vn 0.9702148 -1.788139E-07 0.2416992
vn 0.8032227 -0.5629883 0.1943359
vn 0.9765625 -2.980232E-07 0.2149658
vn 0.7875977 -0.5922852 0.1702881
vn 0.8994141 -0.4267578 0.09558105
vn 1 0 3.576279E-07
vn 0.7436523 -0.659668 0.1088257
vn 1 0 0
vn 0.8657227 -0.5004883 0.007106781
vn 0.6821289 -0.7314453 0.007743835
vn 1 0 0
vn 0.7172852 -0.6967773 -0.004150391
vn 0.8662109 -0.4992676 -0.003133774
vn -0.8662109 0.4992676 -0.003133774
vn -1 0 0
vn -1 0 0
vn -0.8510742 0.5244141 -0.01554871
vn -0.7172852 0.6967773 -0.004150391
vn -0.753418 0.6577148 -0.003557205
vn -0.8325195 0.5537109 0.01372528
vn -1 0 0
vn -0.8779297 0.4782715 -0.01829529
vn -0.7675781 0.640625 -0.01600647
vn -1 0.0005497932 -0.01702881
vn -0.9970703 0 -0.07550049
vn -1 4.172325E-07 0.004970551
vn -1 0.0009269714 0.0104599
vn -0.9980469 2.384186E-07 0.06500244
vn -1 0 -0.01589966
vn -1 0 -0.02041626
vn -0.9580078 0.2851562 -0.02220154
vn -0.7250977 0.6855469 -0.06182861
vn -0.7963867 0.6049805 0.001420975
vn -0.9672852 0 0.2531738
vn -0.9702148 -1.788139E-07 0.2416992
vn -0.8032227 0.5629883 0.1943359
vn -0.9765625 0 0.2149658
vn -0.7875977 0.5922852 0.1702881
vn -0.8994141 0.4267578 0.09558105
vn -1 0 3.576279E-07
vn -0.7436523 0.659668 0.1088257
vn -1 0 0
vn -0.8657227 0.5004883 0.007106781
vn -0.6821289 0.7314453 0.007743835
vn -1 0 0
vn -0.7172852 0.6967773 -0.004150391
vn -0.8662109 0.4992676 -0.003133774
vn -0.8662109 -0.4992676 -0.003133774
vn -1 0 0
vn -1 0 0
vn -0.8510742 -0.5244141 -0.01554871
vn -0.7172852 -0.6967773 -0.004150391
vn -0.753418 -0.6577148 -0.003557205
vn -0.8325195 -0.5537109 0.01372528
vn -1 0 0
vn -0.8779297 -0.4782715 -0.01829529
vn -0.7675781 -0.640625 -0.01600647
vn -1 -0.0005497932 -0.01702881
vn -0.9970703 0 -0.07550049
vn -1 4.172325E-07 0.004970551
vn -1 -0.0009274483 0.0104599
vn -0.9980469 2.384186E-07 0.06500244
vn -1 0 -0.01589966
vn -1 0 -0.02041626
vn -0.9580078 -0.2851562 -0.02220154
vn -0.7250977 -0.6855469 -0.06182861
vn -0.7963867 -0.6049805 0.001420975
vn -0.9672852 0 0.2531738
vn -0.8032227 -0.5629883 0.1943359
vn -0.9702148 -1.788139E-07 0.2416992
vn -0.9765625 0 0.2149658
vn -0.7875977 -0.5922852 0.1702881
vn -0.8994141 -0.4267578 0.09558105
vn -1 0 3.576279E-07
vn -0.7436523 -0.659668 0.1088257
vn -1 0 0
vn -0.8657227 -0.5004883 0.007106781
vn -0.6821289 -0.7314453 0.007743835
vn -1 0 0
vn -0.7172852 -0.6967773 -0.004150391
vn -0.8662109 -0.4992676 -0.003133774
g blade_geo_0
f 3/3/3 2/2/2 1/1/1
f 2/2/2 4/4/4 1/1/1
f 1/1/1 4/4/4 5/5/5
f 4/4/4 6/6/6 5/5/5
f 7/7/7 4/4/4 2/2/2
f 4/4/4 7/7/7 6/6/6
f 7/7/7 2/2/2 8/8/8
f 9/9/9 6/6/6 7/7/7
f 9/9/9 10/10/10 6/6/6
f 11/11/11 7/7/7 8/8/8
f 11/11/11 8/8/8 12/12/12
f 11/11/11 12/12/12 13/13/13
f 11/11/11 14/14/14 7/7/7
f 14/14/14 11/11/11 13/13/13
f 14/14/14 9/9/9 7/7/7
f 14/14/14 13/13/13 15/15/15
f 14/14/14 15/15/15 16/16/16
f 9/9/9 14/14/14 16/16/16
f 16/16/16 17/17/17 9/9/9
f 17/17/17 18/18/18 9/9/9
f 9/9/9 18/18/18 10/10/10
f 18/18/18 19/19/19 10/10/10
f 18/18/18 20/20/20 19/19/19
f 23/23/23 22/22/22 21/21/21
f 22/22/22 23/23/23 24/24/24
f 24/24/24 25/25/25 22/22/22
f 24/24/24 26/26/26 25/25/25
f 26/26/26 24/24/24 27/27/27
f 26/26/26 28/28/28 25/25/25
f 27/27/27 29/29/29 26/26/26
f 30/30/30 28/28/28 26/26/26
f 29/29/29 30/30/30 26/26/26
f 30/30/30 31/31/31 28/28/28
f 30/30/30 29/29/29 32/32/32
f 33/33/33 31/31/31 30/30/30
f 34/34/34 30/30/30 32/32/32
f 34/34/34 33/33/33 30/30/30
f 37/37/37 36/36/36 35/35/35
f 38/38/38 37/37/37 35/35/35
f 38/38/38 35/35/35 39/39/39
f 40/40/40 38/38/38 39/39/39
f 38/38/38 41/41/41 37/37/37
f 41/41/41 38/38/38 40/40/40
f 37/37/37 41/41/41 42/42/42
f 40/40/40 43/43/43 41/41/41
f 44/44/44 43/43/43 40/40/40
f 41/41/41 45/45/45 42/42/42
f 42/42/42 45/45/45 46/46/46
f 46/46/46 45/45/45 47/47/47
f 48/48/48 45/45/45 41/41/41
f 45/45/45 48/48/48 47/47/47
f 43/43/43 48/48/48 41/41/41
f 47/47/47 48/48/48 49/49/49
f 49/49/49 48/48/48 50/50/50
f 48/48/48 43/43/43 50/50/50
f 51/51/51 50/50/50 43/43/43
f 52/52/52 51/51/51 43/43/43
f 52/52/52 43/43/43 44/44/44
f 53/53/53 52/52/52 44/44/44
f 54/54/54 52/52/52 53/53/53
f 57/57/57 56/56/56 55/55/55
f 56/56/56 57/57/57 58/58/58
f 59/59/59 58/58/58 57/57/57
f 60/60/60 58/58/58 59/59/59
f 58/58/58 60/60/60 61/61/61
f 62/62/62 60/60/60 59/59/59
f 63/63/63 61/61/61 60/60/60
f 62/62/62 64/64/64 60/60/60
f 64/64/64 63/63/63 60/60/60
f 65/65/65 64/64/64 62/62/62
f 63/63/63 64/64/64 66/66/66
f 65/65/65 67/67/67 64/64/64
f 64/64/64 68/68/68 66/66/66
f 67/67/67 68/68/68 64/64/64
f 71/71/71 70/70/70 69/69/69
f 72/72/72 71/71/71 69/69/69
f 72/72/72 69/69/69 73/73/73
f 74/74/74 72/72/72 73/73/73
f 72/72/72 75/75/75 71/71/71
f 75/75/75 72/72/72 74/74/74
f 71/71/71 75/75/75 76/76/76
f 74/74/74 77/77/77 75/75/75
f 78/78/78 77/77/77 74/74/74
f 75/75/75 79/79/79 76/76/76
f 76/76/76 79/79/79 80/80/80
f 80/80/80 79/79/79 81/81/81
f 82/82/82 79/79/79 75/75/75
f 79/79/79 82/82/82 81/81/81
f 77/77/77 82/82/82 75/75/75
f 81/81/81 82/82/82 83/83/83
f 83/83/83 82/82/82 84/84/84
f 82/82/82 77/77/77 84/84/84
f 85/85/85 84/84/84 77/77/77
f 86/86/86 85/85/85 77/77/77
f 86/86/86 77/77/77 78/78/78
f 87/87/87 86/86/86 78/78/78
f 88/88/88 86/86/86 87/87/87
f 91/91/91 90/90/90 89/89/89
f 90/90/90 91/91/91 92/92/92
f 93/93/93 92/92/92 91/91/91
f 94/94/94 92/92/92 93/93/93
f 92/92/92 94/94/94 95/95/95
f 96/96/96 94/94/94 93/93/93
f 97/97/97 95/95/95 94/94/94
f 96/96/96 98/98/98 94/94/94
f 98/98/98 97/97/97 94/94/94
f 99/99/99 98/98/98 96/96/96
f 97/97/97 98/98/98 100/100/100
f 99/99/99 101/101/101 98/98/98
f 98/98/98 102/102/102 100/100/100
f 101/101/101 102/102/102 98/98/98
f 105/105/105 104/104/104 103/103/103
f 104/104/104 106/106/106 103/103/103
f 103/103/103 106/106/106 107/107/107
f 106/106/106 108/108/108 107/107/107
f 109/109/109 106/106/106 104/104/104
f 106/106/106 109/109/109 108/108/108
f 109/109/109 104/104/104 110/110/110
f 111/111/111 108/108/108 109/109/109
f 111/111/111 112/112/112 108/108/108
f 113/113/113 109/109/109 110/110/110
f 113/113/113 110/110/110 114/114/114
f 113/113/113 114/114/114 115/115/115
f 113/113/113 116/116/116 109/109/109
f 116/116/116 113/113/113 115/115/115
f 116/116/116 111/111/111 109/109/109
f 116/116/116 115/115/115 117/117/117
f 116/116/116 117/117/117 118/118/118
f 111/111/111 116/116/116 118/118/118
f 118/118/118 119/119/119 111/111/111
f 119/119/119 120/120/120 111/111/111
f 111/111/111 120/120/120 112/112/112
f 120/120/120 121/121/121 112/112/112
f 120/120/120 122/122/122 121/121/121
f 125/125/125 124/124/124 123/123/123
f 124/124/124 125/125/125 126/126/126
f 126/126/126 127/127/127 124/124/124
f 126/126/126 128/128/128 127/127/127
f 128/128/128 126/126/126 129/129/129
f 128/128/128 130/130/130 127/127/127
f 129/129/129 131/131/131 128/128/128
f 132/132/132 130/130/130 128/128/128
f 131/131/131 132/132/132 128/128/128
f 132/132/132 133/133/133 130/130/130
f 132/132/132 131/131/131 134/134/134
f 135/135/135 133/133/133 132/132/132
f 136/136/136 132/132/132 134/134/134
f 136/136/136 135/135/135 132/132/132
