g right_doubleside_backface_geo
v -0.3999892 1.031697 -0.01291822
v -0.4023353 1.033963 -0.01447851
v -0.3988102 1.034298 -0.01015191
v -0.4050612 1.045589 -0.009710941
v -0.4034398 1.045587 -0.01060773
v -0.4046001 1.052333 -0.005103257
v -0.406504 1.050957 -0.004258685
v -0.4063735 1.058357 0.01024059
v -0.4080887 1.056153 0.0101238
v -0.4111458 1.064874 0.02065898
v -0.4128391 1.062811 0.02058391
v -0.4188451 1.072588 0.02682865
v -0.4205605 1.070788 0.0267118
v -0.428014 1.080795 0.02474468
v -0.4297578 1.079221 0.02470881
v -0.4353206 1.087674 0.0165182
v -0.4371361 1.086276 0.01655585
v -0.44373 1.08112 0.01378097
v -0.4376973 1.076472 0.02172969
v -0.441847 1.08221 0.01371485
v -0.4395775 1.075348 0.02143035
v -0.4304983 1.06859 0.02747458
v -0.4322139 1.06679 0.02735742
v -0.4225337 1.059812 0.02821991
v -0.4242491 1.058013 0.02810291
v -0.4161371 1.05204 0.02200255
v -0.4145466 1.05385 0.0221703
v -0.4097239 1.049719 0.01173557
v -0.4083428 1.051445 0.01196605
v -0.4066315 1.051241 0.0007540875
v -0.4054953 1.052791 0.001118579
v -0.441847 1.08221 0.01371485
v -0.4447269 1.084696 0.003708072
v -0.44373 1.08112 0.01378097
v -0.4429259 1.085867 0.003676991
v -0.4433093 1.084817 -0.004117756
v -0.441344 1.086154 -0.00421879
v -0.4405909 1.083848 -0.01351808
v -0.4387217 1.084982 -0.01322602
v -0.4350217 1.079445 -0.02266871
v -0.4331711 1.080962 -0.02212112
v -0.4260627 1.074175 -0.02629576
v -0.4279378 1.072617 -0.02683958
v -0.4203305 1.065299 -0.02550686
v -0.4184709 1.066832 -0.02496657
v -0.4134686 1.058151 -0.02023507
v -0.4116178 1.059668 -0.0196875
v -0.4090032 1.052444 -0.01392659
v -0.4071073 1.054014 -0.01336288
v -0.4030067 1.04656 -0.009201824
v -0.4042465 1.04551 -0.009593459
v -0.4353206 1.087674 0.0165182
v -0.4390821 1.089463 0.007058283
v -0.4371361 1.086276 0.01655585
v -0.4371846 1.090818 0.006965925
v -0.4365829 1.091727 -0.004043607
v -0.4385482 1.09039 -0.003942552
v -0.4355521 1.088351 -0.01459648
v -0.4335888 1.089642 -0.01441222
v -0.4301688 1.083646 -0.02304527
v -0.4282608 1.084967 -0.02260876
v -0.4207608 1.078231 -0.02722291
v -0.4225892 1.076737 -0.02779882
v -0.4153263 1.069498 -0.02647197
v -0.4136362 1.070986 -0.02587934
v -0.4136362 1.070986 -0.02587934
v -0.4095946 1.061916 -0.01992158
v -0.4153263 1.069498 -0.02647197
v -0.4082273 1.063338 -0.01935381
v -0.4055407 1.057008 -0.009643913
v -0.4066163 1.055619 -0.01015236
v -0.4066315 1.051241 0.0007540875
v -0.4054953 1.052791 0.001118579
v -0.4430003 1.083336 0.01051542
v -0.4367586 1.083376 0.0196827
v -0.4352458 1.085297 0.0191069
v -0.4412984 1.084938 0.009969438
v -0.4443226 1.08157 -0.002060716
v -0.4461347 1.079932 -0.001636035
v -0.4428062 1.076095 -0.01356645
v -0.4446095 1.074224 -0.01324756
v -0.4388936 1.067849 -0.02251039
v -0.4371833 1.069924 -0.02271438
v -0.4301658 1.062679 -0.02702572
v -0.4285287 1.064845 -0.02718253
v -0.4367586 1.083376 0.0196827
v -0.4267464 1.082886 0.02499504
v -0.4352458 1.085297 0.0191069
v -0.4281717 1.080697 0.02562087
v -0.418886 1.076066 0.02718862
v -0.4175145 1.078499 0.02650886
v -0.4099202 1.069723 0.0226924
v -0.4086169 1.072372 0.02188953
v -0.4043232 1.063179 0.01405796
v -0.4086169 1.072372 0.02188953
v -0.4099202 1.069723 0.0226924
v -0.4030561 1.065921 0.01321428
v -0.4033011 1.056555 0.001902579
v -0.4019325 1.059023 0.001261136
v -0.4053741 1.054842 -0.011061
v -0.4068372 1.05271 -0.0107239
v -0.4285287 1.064845 -0.02718253
v -0.4203849 1.057916 -0.02672083
v -0.4301658 1.062679 -0.02702572
v -0.4188351 1.060143 -0.02686424
v -0.4132459 1.053423 -0.02061032
v -0.4118277 1.055627 -0.02068998
v -0.4068372 1.05271 -0.0107239
v -0.4053741 1.054842 -0.011061
v -0.4083122 1.034177 -0.01274157
v -0.4081124 1.044577 -0.01317444
v -0.4024057 1.044643 -0.006569194
v -0.4027106 1.03424 -0.006064858
v -0.4023353 1.033963 -0.01447851
v -0.4061627 1.044422 -0.01240999
v -0.4021952 1.044898 -0.007586158
v -0.3988102 1.034298 -0.01015191
v -0.4075913 1.042596 -0.009781857
v -0.4075802 1.048028 -0.008986152
v -0.4022219 1.048086 -0.0098479
v -0.4022292 1.042641 -0.01057802
vt 0.965332 0.8681641
vt 0.9438477 0.8823242
vt 0.9873047 0.8828125
vt 0.004360199 0.9726562
vt 0.001358032 0.9960938
vt 0.09735107 0.9960938
vt 0.09912109 0.9726562
vt 0.3432617 0.9960938
vt 0.3383789 0.9726562
vt 0.5136719 0.9960938
vt 0.5126953 0.9726562
vt 0.6201172 0.9960938
vt 0.621582 0.9726562
vt 0.7612305 0.9960938
vt 0.7651367 0.9726562
vt 0.8691406 0.9960938
vt 0.8720703 0.9726562
vt 0.9663086 0.9726562
vt 0.8662109 0.9960938
vt 0.9648438 0.9960938
vt 0.8706055 0.9726562
vt 0.7436523 0.9960938
vt 0.7421875 0.9726562
vt 0.6318359 0.9960938
vt 0.6298828 0.9726562
vt 0.5146484 0.9726562
vt 0.5117188 0.9960938
vt 0.3908691 0.9726562
vt 0.3859863 0.9960938
vt 0.2478027 0.9726562
vt 0.2443848 0.9960938
vt 0.06188965 0.9960938
vt 0.1784668 0.9726562
vt 0.06140137 0.9726562
vt 0.1821289 0.9960938
vt 0.2624512 0.9726562
vt 0.2675781 0.9960938
vt 0.3640137 0.9726562
vt 0.3659668 0.9960938
vt 0.4804688 0.9726562
vt 0.4799805 0.9960938
vt 0.6069336 0.9960938
vt 0.6049805 0.9726562
vt 0.6801758 0.9726562
vt 0.6845703 0.9960938
vt 0.7915039 0.9726562
vt 0.7958984 0.9960938
vt 0.8842773 0.9726562
vt 0.8857422 0.9960938
vt 0.9858398 0.9960938
vt 0.9868164 0.9726562
vt 0.08215332 0.9960938
vt 0.1938477 0.9726562
vt 0.0838623 0.9726562
vt 0.1950684 0.9960938
vt 0.3100586 0.9960938
vt 0.3061523 0.9726562
vt 0.4060059 0.9726562
vt 0.4064941 0.9960938
vt 0.5048828 0.9726562
vt 0.5043945 0.9960938
vt 0.6420898 0.9960938
vt 0.6401367 0.9726562
vt 0.7270508 0.9726562
vt 0.7299805 0.9960938
vt 0.7299805 0.9960938
vt 0.550293 0.9726562
vt 0.7270508 0.9726562
vt 0.5512695 0.9960938
vt 0.3691406 0.9960938
vt 0.3693848 0.9726562
vt 0.2478027 0.9726562
vt 0.2443848 0.9960938
vt 0.621582 0.9960938
vt 0.7172852 0.9960938
vt 0.7163086 0.9726562
vt 0.6264648 0.9726562
vt 0.4597168 0.9726562
vt 0.4580078 0.9960938
vt 0.3269043 0.9726562
vt 0.3261719 0.9960938
vt 0.1856689 0.9960938
vt 0.1870117 0.9726562
vt 0.09613037 0.9960938
vt 0.09332275 0.9726562
vt 0.7172852 0.9960938
vt 0.6494141 0.9726562
vt 0.7163086 0.9726562
vt 0.6494141 0.9960938
vt 0.5844727 0.9960938
vt 0.5844727 0.9726562
vt 0.4851074 0.9960938
vt 0.4831543 0.9726562
vt 0.59375 0.9960938
vt 0.4831543 0.9726562
vt 0.4851074 0.9960938
vt 0.590332 0.9726562
vt 0.746582 0.9960938
vt 0.7397461 0.9726562
vt 0.8569336 0.9726562
vt 0.8608398 0.9960938
vt 0.4753418 0.9726562
vt 0.3806152 0.9960938
vt 0.4780273 0.9960938
vt 0.3776855 0.9726562
vt 0.286377 0.9960938
vt 0.2854004 0.9726562
vt 0.1724854 0.9960938
vt 0.1704102 0.9726562
vt 0.0725708 0.1623535
vt 0.0725708 0.2272949
vt 0.1300049 0.2272949
vt 0.1300049 0.1623535
vt 0.9438477 0.8823242
vt 0.940918 0.9672852
vt 0.9897461 0.96875
vt 0.9873047 0.8828125
vt 0.04754639 0.09399414
vt 0.04754639 0.1473389
vt 0.100708 0.1473389
vt 0.100708 0.09399414
vn -0.7208267 -0.3246029 0.6124066
vn -0.7208268 -0.3246029 0.6124066
vn -0.7208267 -0.3246029 0.6124066
vn -0.5322748 0.502095 -0.681604
vn -0.5322748 0.502095 -0.681604
vn -0.6598195 0.6097958 -0.4390755
vn -0.6651998 0.6142063 -0.4245701
vn -0.658973 0.5799142 -0.4790137
vn -0.6716464 0.5983033 -0.4369488
vn -0.4812995 0.4361337 -0.7603539
vn -0.5059218 0.4515943 -0.7349189
vn -0.1185116 0.1412649 -0.9828526
vn -0.1214871 0.1440002 -0.982092
vn 0.2708093 -0.2872776 -0.9187676
vn 0.2860328 -0.3093603 -0.9069076
vn 0.4821596 -0.6222167 -0.6167402
vn 0.4847858 -0.6271042 -0.609691
vn 0.4536641 -0.7245109 -0.5189151
vn 0.3812788 -0.4369387 -0.8146846
vn 0.4554394 -0.7286777 -0.5114723
vn 0.3879562 -0.4753147 -0.7896619
vn 0.2261042 -0.1688111 -0.9593642
vn 0.2152009 -0.1569354 -0.9638776
vn -0.1403913 0.1962139 -0.9704589
vn -0.1386913 0.1946356 -0.9710209
vn -0.4931056 0.4938868 -0.7161863
vn -0.5084812 0.5048267 -0.697565
vn -0.7017344 0.6111339 -0.3661749
vn -0.7141069 0.6143658 -0.3355682
vn -0.8032181 0.595095 0.02650886
vn -0.8055128 0.5906399 0.04789241
vn 0.4554394 -0.7286777 -0.5114723
vn 0.5239959 -0.8327788 -0.178628
vn 0.4536641 -0.7245109 -0.5189151
vn 0.5312709 -0.8359037 -0.1378995
vn 0.5380046 -0.8270469 0.1629248
vn 0.5328435 -0.8258725 0.1844245
vn 0.4558279 -0.7824785 0.4242033
vn 0.4485367 -0.776885 0.4418873
vn 0.2505389 -0.5998178 0.7599005
vn 0.2521634 -0.6014365 0.7580817
vn -0.07342491 -0.2518198 0.9649847
vn -0.05691795 -0.2705798 0.9610135
vn -0.3315382 0.06984335 0.9408531
vn -0.3520572 0.09799206 0.9308347
vn -0.4859172 0.2960918 0.8223223
vn -0.4963577 0.3128756 0.8097765
vn -0.5082198 0.324524 0.7977448
vn -0.5051395 0.3188617 0.8019734
vn -0.4537778 0.2290554 0.8611733
vn -0.4537778 0.2290554 0.8611733
vn 0.4821596 -0.6222167 -0.6167402
vn 0.5662579 -0.7982769 -0.2051976
vn 0.4847858 -0.6271042 -0.609691
vn 0.5675968 -0.8022554 -0.184987
vn 0.5536855 -0.8186509 0.1524561
vn 0.5579522 -0.8211413 0.120068
vn 0.4580293 -0.7586689 0.4632824
vn 0.449647 -0.7532043 0.4801051
vn 0.2503546 -0.596295 0.7627285
vn 0.2389598 -0.5861675 0.7741486
vn -0.07218667 -0.2838084 0.9561599
vn -0.05272799 -0.3042302 0.9511381
vn -0.4115704 0.09218513 0.9067037
vn -0.4277092 0.1108296 0.8970963
vn -0.4277092 0.1108296 0.8970963
vn -0.6529961 0.3599778 0.6663424
vn -0.4115704 0.09218513 0.9067037
vn -0.6552832 0.362199 0.6628845
vn -0.7817712 0.5003413 0.3721455
vn -0.7830836 0.5020977 0.3669852
vn -0.8032181 0.595095 0.02650886
vn -0.8055128 0.5906399 0.04789241
vn 0.6692531 -0.7287482 -0.1450049
vn 0.523378 -0.6185447 -0.58607
vn 0.4985891 -0.5984753 -0.6270855
vn 0.6618737 -0.7241614 -0.193684
vn 0.6941333 -0.6897224 0.206063
vn 0.6939592 -0.6811587 0.233331
vn 0.6492737 -0.5404629 0.535111
vn 0.6471753 -0.536092 0.542005
vn 0.4983654 -0.3417048 0.7967871
vn 0.4881111 -0.3314911 0.8073792
vn 0.202233 -0.08418512 0.9757124
vn 0.1653246 -0.05603948 0.9846458
vn 0.523378 -0.6185447 -0.58607
vn 0.1925651 -0.3937309 -0.8988296
vn 0.4985891 -0.5984753 -0.6270855
vn 0.2147468 -0.4070707 -0.8877936
vn -0.2529706 -0.1426022 -0.9569067
vn -0.2574322 -0.140083 -0.9560887
vn -0.6399027 0.08859201 -0.7633321
vn -0.6288368 0.08159292 -0.7732444
vn -0.8494518 0.2880234 -0.4421246
vn -0.6288368 0.08159292 -0.7732444
vn -0.6399027 0.08859201 -0.7633321
vn -0.8396085 0.2722066 -0.4700651
vn -0.8804442 0.4626224 -0.103916
vn -0.884788 0.4430789 -0.1443307
vn -0.807799 0.5386437 0.2394235
vn -0.7892098 0.5365632 0.2987438
vn 0.1653246 -0.05603948 0.9846458
vn -0.229095 0.2113332 0.9501863
vn 0.202233 -0.08418512 0.9757124
vn -0.2536886 0.2263914 0.9404196
vn -0.5944894 0.441606 0.6719869
vn -0.6095662 0.4519542 0.6512806
vn -0.7892098 0.5365632 0.2987438
vn -0.807799 0.5386437 0.2394235
vn -0.7607782 0.04761551 0.6472629
vn -0.7607782 0.04761551 0.6472629
vn -0.7607782 0.04761551 0.6472629
vn -0.7607782 0.04761551 0.6472629
vn -0.7011369 -0.3737596 0.6072155
vn -0.7011369 -0.3737596 0.6072156
vn -0.7011369 -0.3737596 0.6072155
vn -0.7011369 -0.3737596 0.6072156
vn 0.152677 -0.1375477 0.9786574
vn 0.152677 -0.1375477 0.9786574
vn 0.152677 -0.1375477 0.9786574
vn 0.152677 -0.1375477 0.9786574
g right_doubleside_backface_geo_0
f 3/3/3 2/2/2 1/1/1
f 6/6/6 5/5/5 4/4/4
f 7/7/7 6/6/6 4/4/4
f 8/8/8 6/6/6 7/7/7
f 9/9/9 8/8/8 7/7/7
f 10/10/10 8/8/8 9/9/9
f 11/11/11 10/10/10 9/9/9
f 12/12/12 10/10/10 11/11/11
f 13/13/13 12/12/12 11/11/11
f 14/14/14 12/12/12 13/13/13
f 15/15/15 14/14/14 13/13/13
f 16/16/16 14/14/14 15/15/15
f 17/17/17 16/16/16 15/15/15
f 20/20/20 19/19/19 18/18/18
f 19/19/19 21/21/21 18/18/18
f 19/19/19 22/22/22 21/21/21
f 22/22/22 23/23/23 21/21/21
f 22/22/22 24/24/24 23/23/23
f 24/24/24 25/25/25 23/23/23
f 25/25/25 24/24/24 26/26/26
f 24/24/24 27/27/27 26/26/26
f 26/26/26 27/27/27 28/28/28
f 27/27/27 29/29/29 28/28/28
f 28/28/28 29/29/29 30/30/30
f 29/29/29 31/31/31 30/30/30
f 34/34/34 33/33/33 32/32/32
f 33/33/33 35/35/35 32/32/32
f 33/33/33 36/36/36 35/35/35
f 36/36/36 37/37/37 35/35/35
f 36/36/36 38/38/38 37/37/37
f 38/38/38 39/39/39 37/37/37
f 38/38/38 40/40/40 39/39/39
f 40/40/40 41/41/41 39/39/39
f 42/42/42 41/41/41 40/40/40
f 43/43/43 42/42/42 40/40/40
f 43/43/43 44/44/44 42/42/42
f 44/44/44 45/45/45 42/42/42
f 44/44/44 46/46/46 45/45/45
f 46/46/46 47/47/47 45/45/45
f 46/46/46 48/48/48 47/47/47
f 48/48/48 49/49/49 47/47/47
f 50/50/50 49/49/49 48/48/48
f 51/51/51 50/50/50 48/48/48
f 54/54/54 53/53/53 52/52/52
f 53/53/53 55/55/55 52/52/52
f 56/56/56 55/55/55 53/53/53
f 57/57/57 56/56/56 53/53/53
f 57/57/57 58/58/58 56/56/56
f 58/58/58 59/59/59 56/56/56
f 58/58/58 60/60/60 59/59/59
f 60/60/60 61/61/61 59/59/59
f 62/62/62 61/61/61 60/60/60
f 63/63/63 62/62/62 60/60/60
f 63/63/63 64/64/64 62/62/62
f 64/64/64 65/65/65 62/62/62
f 68/68/68 67/67/67 66/66/66
f 67/67/67 69/69/69 66/66/66
f 70/70/70 69/69/69 67/67/67
f 71/71/71 70/70/70 67/67/67
f 71/71/71 72/72/72 70/70/70
f 72/72/72 73/73/73 70/70/70
f 76/76/76 75/75/75 74/74/74
f 77/77/77 76/76/76 74/74/74
f 78/78/78 77/77/77 74/74/74
f 79/79/79 78/78/78 74/74/74
f 80/80/80 78/78/78 79/79/79
f 81/81/81 80/80/80 79/79/79
f 81/81/81 82/82/82 80/80/80
f 82/82/82 83/83/83 80/80/80
f 82/82/82 84/84/84 83/83/83
f 84/84/84 85/85/85 83/83/83
f 88/88/88 87/87/87 86/86/86
f 87/87/87 89/89/89 86/86/86
f 89/89/89 87/87/87 90/90/90
f 87/87/87 91/91/91 90/90/90
f 92/92/92 90/90/90 91/91/91
f 93/93/93 92/92/92 91/91/91
f 96/96/96 95/95/95 94/94/94
f 95/95/95 97/97/97 94/94/94
f 94/94/94 97/97/97 98/98/98
f 97/97/97 99/99/99 98/98/98
f 98/98/98 99/99/99 100/100/100
f 101/101/101 98/98/98 100/100/100
f 104/104/104 103/103/103 102/102/102
f 103/103/103 105/105/105 102/102/102
f 103/103/103 106/106/106 105/105/105
f 106/106/106 107/107/107 105/105/105
f 106/106/106 108/108/108 107/107/107
f 108/108/108 109/109/109 107/107/107
f 112/112/112 111/111/111 110/110/110
f 113/113/113 112/112/112 110/110/110
f 116/116/116 115/115/115 114/114/114
f 117/117/117 116/116/116 114/114/114
f 120/120/120 119/119/119 118/118/118
f 121/121/121 120/120/120 118/118/118
