g head_geo
v -0.01704044 1.318976 -0.06380876
v 3.088895E-18 1.321055 -0.07128914
v 2.943583E-18 1.331099 -0.07324426
v 0.1040778 1.477023 0.08016218
v 0.1070183 1.517642 0.08596543
v 0.1050195 1.459837 0.06219727
v 0.09879865 1.448778 0.08329006
v 0.09516541 1.421829 0.08173732
v 0.09465368 1.396602 0.04973207
v 0.09909563 1.408216 0.02342002
v 0.09120434 1.400477 0.07776694
v 0.086925 1.381571 0.07146337
v 0.08462024 1.365923 0.06252608
v 0.09425832 1.385277 0.02334818
v 0.08750297 1.367357 0.03112186
v 0.08177062 1.35868 0.02123694
v 0.07896127 1.355604 0.04313309
v 0.09386315 1.386002 0.000356987
v 0.07248205 1.346611 0.03596107
v 0.06539394 1.343399 0.06049526
v 0.08512331 1.373571 -0.01840428
v 0.1021632 1.408348 -0.01577126
v 0.05559103 1.34854 -0.01939244
v 0.05039747 1.351725 -0.03180492
v 0.05817311 1.337304 0.05265887
v 0.03052817 1.329883 0.03523367
v 0.05004038 1.334285 0.07348815
v 0.05346809 1.342315 0.009753745
v 0.04422672 1.329313 0.06565695
v 0.0333986 1.324644 0.08826511
v 0.0493122 1.312 -0.02577603
v 0.03686995 1.33411 -0.05726862
v 0.03550387 1.316724 -0.05570371
v 0.02407755 1.322129 -0.06121433
v 3.088895E-18 1.321055 -0.07128914
v 2.943583E-18 1.331099 -0.07324426
v 0.0452714 1.30715 0.003442805
v 0.04623088 1.30113 0.003372847
v 0.02782082 1.282917 0.02842184
v 0.02547493 1.29865 0.0292585
v 1.406337E-18 1.272701 0.04287072
v 0.02109074 1.254476 0.04390586
v 0.03808062 1.259053 0.03176772
v 0.03381753 1.235626 0.05271637
v 5.170857E-18 1.294636 0.04559182
v -8.836843E-20 1.249198 0.03995509
v -1.185926E-17 1.316053 0.05196831
v -0.03052817 1.329883 0.03523367
v -0.02547493 1.29865 0.0292585
v 0.01803012 1.323085 0.06649324
v 0.02973365 1.322366 0.0793074
v 0.01054239 1.314918 0.1033838
v 0.005371744 1.31345 0.0940205
v -3.904323E-18 1.317328 0.0712416
v 4.983235E-18 1.312202 0.09532022
v 1.619055E-17 1.313144 0.1064383
v -0.01054239 1.314918 0.1033838
v -0.01803012 1.323085 0.06649324
v -0.005371744 1.31345 0.0940205
v -0.02973365 1.322366 0.0793074
v -0.0333986 1.324644 0.08826511
v -0.04422672 1.329313 0.06565695
v -0.05004038 1.334285 0.07348815
v -0.05817311 1.337304 0.05265887
v -0.06539394 1.343399 0.06049526
v -0.07248205 1.346611 0.03596107
v -0.07896127 1.355604 0.04313309
v -0.08177062 1.35868 0.02123694
v -0.05346809 1.342315 0.009753745
v -0.08750297 1.367357 0.03112186
v -0.08462024 1.365923 0.06252608
v -0.09465368 1.396602 0.04973207
v -0.086925 1.381571 0.07146337
v -0.09120434 1.400477 0.07776694
v -0.09516541 1.421829 0.08173732
v -0.09425832 1.385277 0.02334818
v -0.1025134 1.443093 0.05344735
v -0.09879865 1.448778 0.08329006
v -0.1040778 1.477023 0.08016218
v -0.1050757 1.436575 0.02350884
v -0.09386315 1.386002 0.000356987
v -0.1128133 1.501391 0.03847629
v -0.1077586 1.510913 0.07416847
v -0.1181057 1.495577 -0.007062887
v -0.1088617 1.446406 -0.008362426
v -0.1257076 1.499708 -0.06372238
v -0.116962 1.45649 -0.06517895
v -0.1090664 1.431198 -0.01564993
v -0.09908605 1.409015 -0.06173619
v -0.1021632 1.408348 -0.01577126
v -0.08265847 1.375391 -0.01620002
v -0.1021632 1.408348 -0.01577126
v -0.05559103 1.34854 -0.01939244
v -0.04639076 1.354182 -0.04138085
v -0.0452714 1.30715 0.003442805
v -0.0493122 1.312 -0.02577603
v -0.0374012 1.340872 -0.05787719
v -0.03550387 1.316724 -0.05570371
v -0.01704044 1.318976 -0.06380876
v -0.04623088 1.30113 0.003372847
v -0.02782082 1.282917 0.02842184
v -0.02109074 1.254476 0.04390586
v -0.03808062 1.259053 0.03176772
v -0.03381753 1.235626 0.05271637
v -7.92258E-19 1.21467 0.06936049
v -9.903773E-20 1.165819 0.09843675
v -0.03342291 1.183454 0.09384791
v -0.07575344 1.187901 0.08535498
v 0.03342291 1.183454 0.09384791
v 0.07575344 1.187901 0.08535498
v 0.1088617 1.446406 -0.008362426
v 0.1230928 1.447812 0.0006507821
v 0.1050757 1.436575 0.02350884
v 0.1294859 1.442831 -0.01099639
v 0.1090664 1.431198 -0.01564993
v 0.1298574 1.432466 -0.01804509
v 0.1021632 1.408348 -0.01577126
v 0.129857 1.437404 -0.004904274
v 0.1311398 1.429329 -0.01099148
v 0.1231143 1.401634 -0.006238317
v 0.1263568 1.40578 -0.01726127
v 0.1138622 1.379319 -0.006203905
v 0.09386315 1.386002 0.000356987
v 0.100529 1.375381 0.007738166
v 0.09425832 1.385277 0.02334818
v 0.100529 1.375381 0.007738166
v 0.1246073 1.441842 0.003206303
v 0.1050757 1.436575 0.02350884
v 0.09425832 1.385277 0.02334818
v 0.09909563 1.408216 0.02342002
v -0.1088617 1.446406 -0.008362426
v -0.1050757 1.436575 0.02350884
v -0.1230928 1.447812 0.000650783
v -0.1294859 1.442831 -0.01099639
v -0.1090664 1.431198 -0.01564993
v -0.1298574 1.432466 -0.01804509
v -0.1021632 1.408348 -0.01577126
v -0.129857 1.437404 -0.004904274
v -0.1311398 1.429329 -0.01099148
v -0.1231143 1.401634 -0.006238317
v -0.1263568 1.40578 -0.01726127
v -0.1138622 1.379319 -0.006203905
v -0.09386315 1.386002 0.000356987
v -0.100529 1.375381 0.007738166
v -0.09425832 1.385277 0.02334818
v -0.100529 1.375381 0.007738166
v -0.1246073 1.441842 0.003206303
v -0.1050757 1.436575 0.02350884
v -0.09425832 1.385277 0.02334818
v 0.09439208 1.518027 0.1079701
v 0.09156139 1.5321 0.1058299
v 0.1070183 1.517642 0.08596543
v 0.06990194 1.534126 0.125249
v 0.07298391 1.519011 0.1280462
v 0.04914851 1.517234 0.1366196
v 0.05279398 1.534615 0.1304915
v 0.03247891 1.535719 0.1363057
v 0.02276849 1.513936 0.1419597
v 0.01104376 1.536876 0.137039
v -9.688971E-20 1.511453 0.143653
v 1.991933E-18 1.537365 0.138155
v -0.02276849 1.513936 0.1419597
v -0.04914851 1.517234 0.1366196
vt 0.02566528 0.277832
vt 0.005477905 0.2792969
vt 0.005477905 0.2929688
vt 0.3623047 0.4387207
vt 0.3671875 0.4702148
vt 0.3710938 0.4179688
vt 0.3571777 0.4125977
vt 0.3579102 0.3886719
vt 0.3674316 0.3620605
vt 0.3962402 0.3789062
vt 0.355957 0.3664551
vt 0.3518066 0.3464355
vt 0.3486328 0.3320312
vt 0.3930664 0.3588867
vt 0.3654785 0.3310547
vt 0.3735352 0.3186035
vt 0.34375 0.3166504
vt 0.4064941 0.3583984
vt 0.3425293 0.3034668
vt 0.3166504 0.309082
vt 0.4187012 0.333252
vt 0.4162598 0.3796387
vt 0.4169922 0.2990723
vt 0.4291992 0.3081055
vt 0.3164062 0.2941895
vt 0.3168945 0.2561035
vt 0.2995605 0.3032227
vt 0.3718262 0.2753906
vt 0.2978516 0.2890625
vt 0.2810059 0.2980957
vt 0.4121094 0.2580566
vt 0.4541016 0.2978516
vt 0.4523926 0.276123
vt 0.4660645 0.2824707
vt 0.4946289 0.2792969
vt 0.4946289 0.2929688
vt 0.364502 0.2426758
vt 0.3625488 0.2375488
vt 0.3034668 0.2098389
vt 0.3068848 0.225708
vt 0.25 0.2154541
vt 0.2773438 0.1920166
vt 0.3051758 0.1906738
vt 0.2958984 0.1721191
vt 0.25 0.2266846
vt 0.25 0.1938477
vt 0.25 0.2399902
vt 0.1829834 0.2561035
vt 0.1931152 0.225708
vt 0.276123 0.2626953
vt 0.2800293 0.2839355
vt 0.2561035 0.2797852
vt 0.2548828 0.2709961
vt 0.25 0.2548828
vt 0.25 0.2705078
vt 0.25 0.279541
vt 0.2440186 0.2797852
vt 0.223877 0.2626953
vt 0.2451172 0.2709961
vt 0.2198486 0.2839355
vt 0.2188721 0.2980957
vt 0.2020264 0.2890625
vt 0.2004395 0.3032227
vt 0.1835938 0.2941895
vt 0.1832275 0.309082
vt 0.1575928 0.3034668
vt 0.1561279 0.3166504
vt 0.1264648 0.3186035
vt 0.1281738 0.2753906
vt 0.1345215 0.3310547
vt 0.1513672 0.3320312
vt 0.1326904 0.3620605
vt 0.1480713 0.3464355
vt 0.144165 0.3664551
vt 0.1420898 0.3886719
vt 0.1069336 0.3588867
vt 0.1280518 0.4074707
vt 0.1429443 0.4125977
vt 0.1375732 0.4387207
vt 0.09991455 0.4035645
vt 0.09362793 0.3583984
vt 0.1192627 0.4614258
vt 0.1328125 0.4702148
vt 0.09515381 0.4638672
vt 0.08453369 0.4169922
vt 0.07745361 0.4790039
vt 0.06768799 0.4504395
vt 0.08184814 0.4035645
vt 0.06234741 0.4077148
vt 0.08374023 0.3796387
vt 0.08135986 0.333252
vt 0.08374023 0.3796387
vt 0.08294678 0.2990723
vt 0.06143188 0.3154297
vt 0.1356201 0.2426758
vt 0.08789062 0.2580566
vt 0.0453186 0.3063965
vt 0.04751587 0.276123
vt 0.02566528 0.277832
vt 0.1373291 0.2375488
vt 0.1964111 0.2098389
vt 0.2226562 0.1920166
vt 0.1949463 0.1906738
vt 0.2041016 0.1721191
vt 0.25 0.144043
vt 0.25 0.08172607
vt 0.2042236 0.08691406
vt 0.1464844 0.1060791
vt 0.2958984 0.08691406
vt 0.3535156 0.1060791
vt 0.3908691 0.1901855
vt 0.3891602 0.1777344
vt 0.3608398 0.1773682
vt 0.3972168 0.1846924
vt 0.4050293 0.1989746
vt 0.4052734 0.1916504
vt 0.4267578 0.1990967
vt 0.4033203 0.1816406
vt 0.4089355 0.1867676
vt 0.4355469 0.1831055
vt 0.4301758 0.192627
vt 0.4528809 0.1800537
vt 0.4638672 0.1881104
vt 0.4638672 0.1820068
vt 0.4787598 0.1849365
vt 0.458252 0.1662598
vt 0.3974609 0.1765137
vt 0.4001465 0.1535645
vt 0.4487305 0.1529541
vt 0.427002 0.1531982
vt 0.1091309 0.1901855
vt 0.1391602 0.1773682
vt 0.1109009 0.1777344
vt 0.1028442 0.1846924
vt 0.09509277 0.1989746
vt 0.09484863 0.1916504
vt 0.07324219 0.1990967
vt 0.09680176 0.1816406
vt 0.09100342 0.1867676
vt 0.06433105 0.1831055
vt 0.06982422 0.192627
vt 0.04718018 0.1800537
vt 0.03604126 0.1881104
vt 0.03607178 0.1820068
vt 0.02125549 0.1849365
vt 0.04177856 0.1662598
vt 0.1025391 0.1765137
vt 0.09985352 0.1535645
vt 0.05126953 0.1529541
vt 0.3400879 0.4768066
vt 0.3369141 0.4853516
vt 0.3671875 0.4702148
vt 0.3161621 0.4853516
vt 0.3195801 0.4777832
vt 0.2976074 0.4760742
vt 0.3027344 0.4846191
vt 0.282959 0.4841309
vt 0.2719727 0.4731445
vt 0.2595215 0.4846191
vt 0.25 0.4707031
vt 0.25 0.4846191
vt 0.2280273 0.4731445
vt 0.2041016 0.4812012
vn -0.3774384 -0.1769351 -0.9089742
vn -1.176457E-07 -0.1588409 -0.9873043
vn 0.1203268 -0.1896804 -0.9744449
vn 0.9776797 -0.1196817 0.1726812
vn 0.9725013 0.06360132 0.2240448
vn 0.9798285 -0.159138 0.1208768
vn 0.9577515 -0.1729216 0.2298048
vn 0.9678326 -0.1696725 0.1857719
vn 0.9724126 -0.2077601 0.1060634
vn 0.9267637 -0.1819767 0.3286235
vn 0.9490707 -0.2166318 0.2287696
vn 0.9496104 -0.2547808 0.182557
vn 0.9171416 -0.3837915 0.1074962
vn 0.9325931 -0.2935483 0.2099987
vn 0.9176279 -0.397283 0.01119595
vn 0.7433202 -0.6514739 -0.1518449
vn 0.8038258 -0.5911787 0.06611929
vn 0.6702149 -0.6497265 -0.3587023
vn 0.5325981 -0.8369818 -0.1257003
vn 0.6277315 -0.7722843 0.09762325
vn 0.6891209 -0.6667069 -0.2839264
vn 0.7289221 -0.4162768 -0.5434945
vn 0.8166886 -0.4907775 -0.3035741
vn 0.8779927 -0.2032149 -0.4333964
vn 0.4070932 -0.9091106 -0.08827911
vn 0.686509 -0.5821728 0.4356377
vn 0.5619418 -0.820707 0.1032545
vn 0.8342763 -0.5345197 0.135173
vn 0.3567761 -0.9298787 -0.0896455
vn 0.5093046 -0.8448323 0.1639121
vn 0.9634275 -0.1455069 -0.2250226
vn 0.8876628 -0.09678366 -0.4502086
vn 0.704524 -0.1282311 -0.6979989
vn 0.3877431 -0.1208917 -0.9138055
vn -1.176457E-07 -0.1588409 -0.9873043
vn 0.1203268 -0.1896804 -0.9744449
vn 0.9055156 -0.1939832 0.377375
vn 0.8122635 0.1011226 0.5744581
vn 0.5437939 0.1011479 0.8331011
vn 0.6690777 -0.1691951 0.7236768
vn 2.2745E-07 0.0954483 0.9954343
vn 0.1483509 0.3511592 0.9244886
vn 0.450364 0.4190516 0.7883958
vn 0.01322976 0.5730044 0.8194455
vn 1.657083E-07 -0.1941038 0.980981
vn -0 0.4383634 0.8987979
vn -0 -0.6367118 0.7711018
vn -0.6865086 -0.5821726 0.4356385
vn -0.6690776 -0.1691951 0.7236769
vn 0.2967687 -0.9456795 -0.1327343
vn 0.3290903 -0.9358706 -0.1258798
vn 0.337784 -0.9345753 0.1116736
vn 0.2428997 -0.9621262 -0.123745
vn -0 -0.9960284 -0.08903648
vn -0 -0.993735 -0.1117619
vn 0.0556202 -0.9675345 0.2465428
vn -0.1861562 -0.9749327 0.121869
vn -0.2693031 -0.9515305 -0.1485451
vn -0.2428999 -0.9621263 -0.1237441
vn -0.3290902 -0.9358704 -0.1258816
vn -0.3159889 -0.9304623 0.1854478
vn -0.3567761 -0.9298787 -0.08964615
vn -0.3220975 -0.9391523 0.1193578
vn -0.4070933 -0.9091108 -0.08827605
vn -0.3455569 -0.9309511 0.1179852
vn -0.5325982 -0.8369824 -0.1256973
vn -0.6361938 -0.7666795 0.08637189
vn -0.7433201 -0.6514741 -0.1518448
vn -0.8342762 -0.5345197 0.1351731
vn -0.9176279 -0.3972831 0.01119585
vn -0.5808083 -0.7852048 0.2147438
vn -0.9724126 -0.2077601 0.1060632
vn -0.7267429 -0.553034 0.4074286
vn -0.7019314 -0.4569201 0.5463665
vn -0.6132964 -0.4862721 0.6224204
vn -0.9325932 -0.2935483 0.2099985
vn -0.9798285 -0.159138 0.1208769
vn -0.806582 -0.343568 0.4810265
vn -0.6172882 -0.3930748 0.6815038
vn -0.9666016 -0.151829 0.2064687
vn -0.6702147 -0.6497267 -0.3587022
vn -0.9874234 -0.07750373 0.1377977
vn -0.7393644 0.1644119 0.6529233
vn -0.9879556 -0.09932213 0.1186542
vn -0.9922556 -0.09941327 0.07447021
vn -0.9928757 -0.07441709 -0.09305923
vn -0.959847 -0.2461101 -0.1346234
vn -0.8571671 -0.188808 -0.4791827
vn -0.8557246 -0.4579606 -0.2408472
vn -0.7289221 -0.4162767 -0.5434946
vn -0.6891209 -0.6667068 -0.283927
vn -0.7289221 -0.4162767 -0.5434946
vn -0.8166884 -0.4907774 -0.3035746
vn -0.8886753 -0.174586 -0.4239998
vn -0.9055157 -0.1939833 0.3773748
vn -0.9634274 -0.145507 -0.2250227
vn -0.8736858 -0.09756529 -0.4766069
vn -0.7045243 -0.1282312 -0.6979988
vn -0.3878219 -0.1128118 -0.9148047
vn -0.812263 0.1011224 0.5744589
vn -0.5437936 0.1011479 0.8331012
vn -0.1483508 0.3511592 0.9244886
vn -0.4503635 0.4190515 0.7883962
vn -0.01322983 0.5730041 0.8194457
vn -0 0.5469853 0.8371422
vn -0 0.5501835 0.8350437
vn 0.02474402 0.5626935 0.8262951
vn 0.002892979 0.5627651 0.8266118
vn -0.02474402 0.5626941 0.8262947
vn -0.002893045 0.5627662 0.8266111
vn 0.9922556 -0.09941337 0.07447037
vn 0.1498693 0.9612296 0.231467
vn 0.9666016 -0.1518291 0.2064686
vn 0.4825538 0.6772683 -0.5553824
vn 0.8571671 -0.1888081 -0.4791827
vn 0.308457 0.0739259 -0.9483613
vn 0.7289221 -0.4162768 -0.5434945
vn 0.8488212 -0.08604402 0.5216311
vn 0.980586 -0.1463441 0.1305171
vn 0.7916608 -0.2174953 0.5709369
vn 0.3186834 -0.2063753 -0.9251217
vn 0.2793515 -0.7913617 -0.5437918
vn 0.6702149 -0.6497265 -0.3587023
vn 0.6588646 -0.5418552 0.5218146
vn 0.9325931 -0.2935483 0.2099987
vn 0.6588646 -0.5418552 0.5218146
vn 0.7781117 -0.0803594 0.6229643
vn 0.9666016 -0.1518291 0.2064686
vn 0.9325931 -0.2935483 0.2099987
vn 0.9267637 -0.1819767 0.3286235
vn -0.9922556 -0.09941327 0.07447021
vn -0.9666016 -0.151829 0.2064687
vn -0.1498686 0.9612291 0.2314691
vn -0.4825533 0.6772684 -0.5553825
vn -0.8571671 -0.188808 -0.4791827
vn -0.3084567 0.07392596 -0.9483613
vn -0.7289221 -0.4162767 -0.5434946
vn -0.8488209 -0.08604402 0.5216315
vn -0.9805862 -0.1463441 0.1305147
vn -0.7916605 -0.2174952 0.5709374
vn -0.3186833 -0.2063753 -0.9251217
vn -0.2793515 -0.791362 -0.5437911
vn -0.6702147 -0.6497267 -0.3587022
vn -0.6588638 -0.5418558 0.5218149
vn -0.9325932 -0.2935483 0.2099985
vn -0.6588638 -0.5418558 0.5218149
vn -0.7781109 -0.08035989 0.6229652
vn -0.9666016 -0.151829 0.2064687
vn -0.9325932 -0.2935483 0.2099985
vn 0.7842118 0.2167843 0.5813918
vn 0.7057953 0.2529329 0.6617235
vn 0.91809 0.2701501 0.290051
vn 0.497521 0.2562879 0.8287275
vn 0.4912502 0.1983285 0.8481386
vn 0.2600554 0.1821166 0.948264
vn 0.2959717 0.2530116 0.9210787
vn 0.147535 0.2158727 0.9652111
vn 0.1177331 0.1915607 0.9743939
vn 0.06262151 0.225484 0.9722322
vn 0.0126037 0.1561187 0.9876579
vn 0.008567995 0.2327339 0.9725027
vn -0.06356435 0.1923415 0.9792672
vn -0.1528417 0.3013742 0.9411765
g head_geo_0
f 3/3/3 2/2/2 1/1/1
f 6/6/6 5/5/5 4/4/4
f 4/4/4 7/7/7 6/6/6
f 7/7/7 8/8/8 6/6/6
f 8/8/8 9/9/9 6/6/6
f 10/10/10 6/6/6 9/9/9
f 8/8/8 11/11/11 9/9/9
f 11/11/11 12/12/12 9/9/9
f 9/9/9 12/12/12 13/13/13
f 14/14/14 10/10/10 9/9/9
f 13/13/13 15/15/15 9/9/9
f 15/15/15 14/14/14 9/9/9
f 14/14/14 15/15/15 16/16/16
f 13/13/13 17/17/17 15/15/15
f 15/15/15 17/17/17 16/16/16
f 18/18/18 14/14/14 16/16/16
f 17/17/17 19/19/19 16/16/16
f 19/19/19 17/17/17 20/20/20
f 21/21/21 18/18/18 16/16/16
f 22/22/22 18/18/18 21/21/21
f 16/16/16 23/23/23 21/21/21
f 23/23/23 24/24/24 21/21/21
f 25/25/25 19/19/19 20/20/20
f 19/19/19 25/25/25 26/26/26
f 25/25/25 20/20/20 27/27/27
f 19/19/19 28/28/28 16/16/16
f 28/28/28 23/23/23 16/16/16
f 19/19/19 26/26/26 28/28/28
f 29/29/29 25/25/25 27/27/27
f 25/25/25 29/29/29 26/26/26
f 29/29/29 27/27/27 30/30/30
f 24/24/24 23/23/23 31/31/31
f 24/24/24 31/31/31 32/32/32
f 31/31/31 33/33/33 32/32/32
f 34/34/34 32/32/32 33/33/33
f 35/35/35 34/34/34 33/33/33
f 35/35/35 36/36/36 34/34/34
f 31/31/31 23/23/23 37/37/37
f 23/23/23 28/28/28 37/37/37
f 31/31/31 37/37/37 38/38/38
f 38/38/38 37/37/37 39/39/39
f 37/37/37 28/28/28 40/40/40
f 37/37/37 40/40/40 39/39/39
f 39/39/39 40/40/40 41/41/41
f 28/28/28 26/26/26 40/40/40
f 42/42/42 39/39/39 41/41/41
f 42/42/42 43/43/43 39/39/39
f 43/43/43 42/42/42 44/44/44
f 40/40/40 26/26/26 45/45/45
f 40/40/40 45/45/45 41/41/41
f 44/44/44 42/42/42 46/46/46
f 42/42/42 41/41/41 46/46/46
f 26/26/26 47/47/47 45/45/45
f 47/47/47 48/48/48 45/45/45
f 45/45/45 49/49/49 41/41/41
f 48/48/48 49/49/49 45/45/45
f 50/50/50 47/47/47 26/26/26
f 29/29/29 50/50/50 26/26/26
f 50/50/50 29/29/29 51/51/51
f 51/51/51 29/29/29 30/30/30
f 52/52/52 51/51/51 30/30/30
f 50/50/50 51/51/51 53/53/53
f 52/52/52 53/53/53 51/51/51
f 54/54/54 47/47/47 50/50/50
f 54/54/54 50/50/50 53/53/53
f 53/53/53 52/52/52 55/55/55
f 55/55/55 54/54/54 53/53/53
f 52/52/52 56/56/56 55/55/55
f 56/56/56 57/57/57 55/55/55
f 47/47/47 54/54/54 58/58/58
f 47/47/47 58/58/58 48/48/48
f 54/54/54 55/55/55 59/59/59
f 57/57/57 59/59/59 55/55/55
f 58/58/58 54/54/54 59/59/59
f 59/59/59 57/57/57 60/60/60
f 60/60/60 58/58/58 59/59/59
f 60/60/60 57/57/57 61/61/61
f 62/62/62 58/58/58 60/60/60
f 62/62/62 60/60/60 61/61/61
f 58/58/58 62/62/62 48/48/48
f 63/63/63 62/62/62 61/61/61
f 64/64/64 62/62/62 63/63/63
f 62/62/62 64/64/64 48/48/48
f 65/65/65 64/64/64 63/63/63
f 66/66/66 64/64/64 65/65/65
f 64/64/64 66/66/66 48/48/48
f 67/67/67 66/66/66 65/65/65
f 66/66/66 67/67/67 68/68/68
f 48/48/48 66/66/66 69/69/69
f 69/69/69 66/66/66 68/68/68
f 48/48/48 69/69/69 49/49/49
f 67/67/67 70/70/70 68/68/68
f 67/67/67 71/71/71 70/70/70
f 70/70/70 71/71/71 72/72/72
f 73/73/73 72/72/72 71/71/71
f 73/73/73 74/74/74 72/72/72
f 74/74/74 75/75/75 72/72/72
f 70/70/70 76/76/76 68/68/68
f 76/76/76 70/70/70 72/72/72
f 72/72/72 75/75/75 77/77/77
f 75/75/75 78/78/78 77/77/77
f 78/78/78 79/79/79 77/77/77
f 80/80/80 76/76/76 72/72/72
f 77/77/77 80/80/80 72/72/72
f 76/76/76 81/81/81 68/68/68
f 79/79/79 82/82/82 77/77/77
f 77/77/77 82/82/82 80/80/80
f 83/83/83 82/82/82 79/79/79
f 82/82/82 84/84/84 80/80/80
f 80/80/80 84/84/84 85/85/85
f 84/84/84 86/86/86 85/85/85
f 86/86/86 87/87/87 85/85/85
f 88/88/88 85/85/85 87/87/87
f 88/88/88 87/87/87 89/89/89
f 88/88/88 89/89/89 90/90/90
f 81/81/81 91/91/91 68/68/68
f 81/81/81 92/92/92 91/91/91
f 91/91/91 93/93/93 68/68/68
f 93/93/93 69/69/69 68/68/68
f 91/91/91 94/94/94 93/93/93
f 69/69/69 93/93/93 95/95/95
f 69/69/69 95/95/95 49/49/49
f 93/93/93 94/94/94 96/96/96
f 93/93/93 96/96/96 95/95/95
f 94/94/94 97/97/97 96/96/96
f 98/98/98 96/96/96 97/97/97
f 97/97/97 99/99/99 98/98/98
f 95/95/95 96/96/96 100/100/100
f 95/95/95 100/100/100 101/101/101
f 49/49/49 95/95/95 101/101/101
f 49/49/49 101/101/101 41/41/41
f 101/101/101 102/102/102 41/41/41
f 103/103/103 102/102/102 101/101/101
f 41/41/41 102/102/102 46/46/46
f 102/102/102 103/103/103 104/104/104
f 102/102/102 104/104/104 46/46/46
f 46/46/46 104/104/104 105/105/105
f 44/44/44 46/46/46 105/105/105
f 105/105/105 104/104/104 106/106/106
f 44/44/44 105/105/105 106/106/106
f 106/106/106 104/104/104 107/107/107
f 107/107/107 104/104/104 108/108/108
f 44/44/44 106/106/106 109/109/109
f 44/44/44 109/109/109 110/110/110
f 113/113/113 112/112/112 111/111/111
f 114/114/114 111/111/111 112/112/112
f 114/114/114 115/115/115 111/111/111
f 114/114/114 116/116/116 115/115/115
f 115/115/115 116/116/116 117/117/117
f 118/118/118 114/114/114 112/112/112
f 119/119/119 116/116/116 114/114/114
f 118/118/118 119/119/119 114/114/114
f 119/119/119 120/120/120 116/116/116
f 119/119/119 118/118/118 120/120/120
f 116/116/116 121/121/121 117/117/117
f 120/120/120 121/121/121 116/116/116
f 121/121/121 122/122/122 117/117/117
f 121/121/121 120/120/120 122/122/122
f 117/117/117 122/122/122 123/123/123
f 122/122/122 124/124/124 123/123/123
f 125/125/125 123/123/123 124/124/124
f 120/120/120 126/126/126 122/122/122
f 126/126/126 120/120/120 118/118/118
f 127/127/127 118/118/118 112/112/112
f 118/118/118 127/127/127 126/126/126
f 128/128/128 127/127/127 112/112/112
f 127/127/127 129/129/129 126/126/126
f 128/128/128 130/130/130 127/127/127
f 130/130/130 129/129/129 127/127/127
f 133/133/133 132/132/132 131/131/131
f 131/131/131 134/134/134 133/133/133
f 135/135/135 134/134/134 131/131/131
f 136/136/136 134/134/134 135/135/135
f 136/136/136 135/135/135 137/137/137
f 134/134/134 138/138/138 133/133/133
f 136/136/136 139/139/139 134/134/134
f 139/139/139 138/138/138 134/134/134
f 140/140/140 139/139/139 136/136/136
f 138/138/138 139/139/139 140/140/140
f 141/141/141 136/136/136 137/137/137
f 141/141/141 140/140/140 136/136/136
f 142/142/142 141/141/141 137/137/137
f 140/140/140 141/141/141 142/142/142
f 142/142/142 137/137/137 143/143/143
f 144/144/144 142/142/142 143/143/143
f 143/143/143 145/145/145 144/144/144
f 146/146/146 140/140/140 142/142/142
f 140/140/140 146/146/146 138/138/138
f 138/138/138 147/147/147 133/133/133
f 147/147/147 138/138/138 146/146/146
f 147/147/147 148/148/148 133/133/133
f 149/149/149 147/147/147 146/146/146
f 149/149/149 148/148/148 147/147/147
f 152/152/152 151/151/151 150/150/150
f 151/151/151 153/153/153 150/150/150
f 153/153/153 154/154/154 150/150/150
f 154/154/154 153/153/153 155/155/155
f 153/153/153 156/156/156 155/155/155
f 155/155/155 156/156/156 157/157/157
f 157/157/157 158/158/158 155/155/155
f 157/157/157 159/159/159 158/158/158
f 160/160/160 158/158/158 159/159/159
f 161/161/161 160/160/160 159/159/159
f 162/162/162 160/160/160 161/161/161
f 161/161/161 163/163/163 162/162/162
