g bf_body_geo
v 0.05329851 0.805695 -0.09662069
v 0.1050503 0.808102 -0.05568536
v 0.1166799 0.7549248 -0.06484022
v 0.05749224 0.7499536 -0.1097227
v 1.676192E-18 0.8031295 -0.1017298
v 1.177415E-18 0.7488614 -0.1152527
v 0.1257479 0.7023531 -0.07064687
v 0.06210508 0.6988657 -0.1187566
v 0.1578728 0.7023525 -0.002266711
v -1.264059E-19 0.6988652 -0.1258996
v -0.06210508 0.6988657 -0.1187566
v 0.1442643 0.7586218 0.002516761
v -0.05749224 0.7499536 -0.1097227
v 0.1330118 0.6920061 0.06130626
v -0.1257479 0.7023531 -0.07064687
v 0.116485 0.7751409 0.06111369
v 0.1333087 0.8050093 0.009588674
v 0.09119717 0.6850559 0.104468
v 0.1033453 0.8288119 0.0632193
v 0.07679653 0.75648 0.09765533
v 0.03251345 0.6788115 0.1131995
v 0.06455636 0.81762 0.09340254
v 0.02063551 0.7508485 0.1045679
v 0.009392561 0.8119615 0.09839805
v -0.1166799 0.7549248 -0.06484022
v -0.1578728 0.7023525 -0.002266711
v -0.1442643 0.7586218 0.002516761
v -0.1330118 0.6920061 0.06130626
v -0.116485 0.7751409 0.06111369
v -0.1333087 0.8050093 0.009588674
v -0.09119717 0.6850559 0.104468
v -0.1033453 0.8288119 0.0632193
v -0.07679653 0.75648 0.09765533
v -0.03251345 0.6788115 0.1131995
v -0.06455636 0.81762 0.09340254
v -0.02063551 0.7508485 0.1045679
v -0.009392561 0.8119615 0.09839805
v -0.05329851 0.805695 -0.09662069
v -0.1050503 0.808102 -0.05568536
v 1.676192E-18 0.8031295 -0.1017298
v 1.177415E-18 0.7488614 -0.1152527
v 0.1050503 0.808102 -0.05568536
v 0.1333087 0.8050093 0.009588674
v 0.1442643 0.7586218 0.002516761
v 0.1166799 0.7549248 -0.06484022
v -0.1050503 0.808102 -0.05568536
v -0.1166799 0.7549248 -0.06484022
v -0.1442643 0.7586218 0.002516761
v -0.1333087 0.8050093 0.009588674
vt 0.9633789 0.5356445
vt 0.9633789 0.5361328
vt 0.9633789 0.5029297
vt 0.9633789 0.5014648
vt 0.9633789 0.5395508
vt 0.9633789 0.5039062
vt 0.9633789 0.470459
vt 0.9633789 0.470459
vt 0.9633789 0.470459
vt 0.9633789 0.470459
vt 0.9633789 0.470459
vt 0.9633789 0.5078125
vt 0.9633789 0.5014648
vt 0.9633789 0.470459
vt 0.9633789 0.470459
vt 0.9633789 0.5195312
vt 0.9633789 0.5361328
vt 0.9633789 0.470459
vt 0.9633789 0.5512695
vt 0.9633789 0.5117188
vt 0.9633789 0.470459
vt 0.9633789 0.5473633
vt 0.9633789 0.5136719
vt 0.9633789 0.5483398
vt 0.9633789 0.5029297
vt 0.9633789 0.470459
vt 0.9633789 0.5078125
vt 0.9633789 0.470459
vt 0.9633789 0.5195312
vt 0.9633789 0.5361328
vt 0.9633789 0.470459
vt 0.9633789 0.5512695
vt 0.9633789 0.5117188
vt 0.9633789 0.470459
vt 0.9633789 0.5473633
vt 0.9633789 0.5136719
vt 0.9633789 0.5483398
vt 0.9633789 0.5356445
vt 0.9633789 0.5361328
vt 0.9633789 0.5395508
vt 0.9633789 0.5039062
vt 0.9633789 0.5361328
vt 0.9633789 0.5385742
vt 0.9633789 0.5078125
vt 0.9633789 0.5029297
vt 0.9633789 0.5361328
vt 0.9633789 0.5029297
vt 0.9633789 0.5078125
vt 0.9633789 0.5385742
vn -0.3840438 -0.2495618 0.8889484
vn -0.755881 -0.261063 0.6004083
vn -0.7587373 -0.2359612 0.6071574
vn -0.3797926 -0.2225364 0.897906
vn -0 -0.238307 0.9711899
vn -0 -0.2166592 0.9762473
vn -0.7623292 -0.2139443 0.6108043
vn -0.3879265 -0.1986699 0.900024
vn -0.9618302 -0.2275235 0.1520383
vn -0 -0.1955965 0.9806845
vn 0.3879266 -0.19867 0.900024
vn -0.9615121 -0.2371455 0.1387672
vn 0.3797925 -0.2225364 0.8979059
vn -0.8117318 -0.163705 -0.5606176
vn 0.7623295 -0.2139443 0.610804
vn -0.7653648 -0.1723219 -0.6200985
vn -0.9625199 -0.2495732 0.1061543
vn -0.3357617 -0.1456272 -0.9306217
vn -0.6945258 -0.1659766 -0.7000613
vn -0.3170082 -0.1436011 -0.9374884
vn -0.1208425 -0.1281082 -0.9843705
vn -0.3520355 -0.1296786 -0.9269598
vn -0.1089573 -0.1162238 -0.9872286
vn -0.09548876 -0.1027536 -0.9901129
vn 0.7587374 -0.2359613 0.6071572
vn 0.9618302 -0.2275235 0.152038
vn 0.9615121 -0.2371455 0.138767
vn 0.8117318 -0.163705 -0.5606176
vn 0.7653646 -0.1723218 -0.6200984
vn 0.9625199 -0.2495731 0.1061542
vn 0.3357618 -0.1456272 -0.9306217
vn 0.6945257 -0.1659765 -0.7000613
vn 0.3170082 -0.1436011 -0.9374884
vn 0.1208424 -0.1281082 -0.9843705
vn 0.3520355 -0.1296786 -0.9269598
vn 0.1089572 -0.1162237 -0.9872286
vn 0.09548867 -0.1027536 -0.9901129
vn 0.3840439 -0.2495618 0.8889484
vn 0.755881 -0.261063 0.6004082
vn -0 -0.238307 0.9711899
vn -0 -0.2166592 0.9762473
vn -0.755881 -0.261063 0.6004083
vn -0.9625199 -0.2495732 0.1061543
vn -0.9615121 -0.2371455 0.1387672
vn -0.7587373 -0.2359612 0.6071574
vn 0.755881 -0.261063 0.6004082
vn 0.7587374 -0.2359613 0.6071572
vn 0.9615121 -0.2371455 0.138767
vn 0.9625199 -0.2495731 0.1061542
g bf_body_geo_0
f 3/3/3 2/2/2 1/1/1
f 4/4/4 3/3/3 1/1/1
f 4/4/4 1/1/1 5/5/5
f 6/6/6 4/4/4 5/5/5
f 7/7/7 3/3/3 4/4/4
f 8/8/8 7/7/7 4/4/4
f 8/8/8 4/4/4 6/6/6
f 7/7/7 9/9/9 3/3/3
f 10/10/10 8/8/8 6/6/6
f 11/11/11 10/10/10 6/6/6
f 9/9/9 12/12/12 3/3/3
f 13/13/13 11/11/11 6/6/6
f 9/9/9 14/14/14 12/12/12
f 15/15/15 11/11/11 13/13/13
f 14/14/14 16/16/16 12/12/12
f 12/12/12 16/16/16 17/17/17
f 14/14/14 18/18/18 16/16/16
f 17/17/17 16/16/16 19/19/19
f 18/18/18 20/20/20 16/16/16
f 16/16/16 20/20/20 19/19/19
f 18/18/18 21/21/21 20/20/20
f 20/20/20 22/22/22 19/19/19
f 21/21/21 23/23/23 20/20/20
f 20/20/20 23/23/23 22/22/22
f 23/23/23 24/24/24 22/22/22
f 25/25/25 15/15/15 13/13/13
f 26/26/26 15/15/15 25/25/25
f 27/27/27 26/26/26 25/25/25
f 28/28/28 26/26/26 27/27/27
f 29/29/29 28/28/28 27/27/27
f 29/29/29 27/27/27 30/30/30
f 31/31/31 28/28/28 29/29/29
f 29/29/29 30/30/30 32/32/32
f 33/33/33 31/31/31 29/29/29
f 33/33/33 29/29/29 32/32/32
f 34/34/34 31/31/31 33/33/33
f 35/35/35 33/33/33 32/32/32
f 36/36/36 34/34/34 33/33/33
f 36/36/36 33/33/33 35/35/35
f 37/37/37 36/36/36 35/35/35
f 25/25/25 13/13/13 38/38/38
f 39/39/39 25/25/25 38/38/38
f 38/38/38 13/13/13 40/40/40
f 13/13/13 41/41/41 40/40/40
f 44/44/44 43/43/43 42/42/42
f 45/45/45 44/44/44 42/42/42
f 48/48/48 47/47/47 46/46/46
f 49/49/49 48/48/48 46/46/46
