g bf_waist_geo
v 0.06244535 0.7461336 -0.1200605
v 0.0305789 0.8084472 -0.1171219
v 0.06771663 0.8256418 -0.09715586
v 0.035039 0.7501839 -0.127233
v 0.06359014 0.7189723 -0.1281645
v 0.03535186 0.7197874 -0.1335115
v 0.06716049 0.5947582 -0.1579151
v 0.03535186 0.7197874 -0.1335115
v 0.06359014 0.7189723 -0.1281645
v -0.002479702 0.5972772 -0.1731404
v 0.07080889 0.4248019 -0.1953673
v -0.000437328 0.7219443 -0.1411503
v -0.003678385 0.4294719 -0.2132367
v -0.0791968 0.5932164 -0.1589189
v -0.07223516 0.6659178 -0.1426979
v -0.06682891 0.7223761 -0.1301011
v -0.1373854 0.7227482 -0.08568339
v -0.1770928 0.5833802 -0.1059
v -0.1676832 0.7230285 -0.004348818
v -0.1033243 0.4336815 -0.1888613
v -0.01011189 0.2494531 -0.2558074
v -0.12955 0.2596485 -0.2305222
v -0.2131746 0.5812585 -0.008167105
v -0.1307617 0.7222518 0.06986666
v -0.1999515 0.5031494 -0.1175382
v -0.2167091 0.4443323 -0.1260702
v -0.2610807 0.2885937 -0.1486615
v -0.2393327 0.4997392 -0.01036266
v -0.2526046 0.4583784 -0.01147663
v -0.2981883 0.316321 -0.01530266
v -0.2091672 0.4532523 0.08500462
v -0.251762 0.3071149 0.09322851
v -0.1917661 0.5129535 0.08164494
v -0.1456478 0.4397677 0.1432661
v -0.1216543 0.5869221 0.1167891
v -0.1719311 0.5810049 0.07781534
v -0.1113163 0.6622757 0.1030846
v -0.1029414 0.7233202 0.0919825
v -0.003678385 0.4294719 -0.2132367
v 0.07080889 0.4248019 -0.1953673
v 0.07629208 0.242632 -0.235294
v -0.01011189 0.2494531 -0.2558074
v -0.251762 0.3071149 0.09322851
v -0.1696413 0.2926132 0.169743
v -0.1456478 0.4397677 0.1432661
v -0.2091672 0.4532523 0.08500462
v 0.1519937 0.7180703 -0.06031153
v 0.1609973 0.6372132 -0.08204525
v 0.1458682 0.7157951 -0.07737791
v 0.1673218 0.6396228 -0.06574174
v 0.1919867 0.5065888 -0.07611509
v 0.1856622 0.5041792 -0.09241859
v -0.2057174 0.5108927 -0.1243453
v -0.1928272 0.5875316 -0.09431656
v -0.1866888 0.587908 -0.112822
v -0.2135005 0.5098317 -0.1046613
v -0.223176 0.4449142 -0.1314064
v -0.2297722 0.4483389 -0.1112423
v -0.2328615 0.4080727 -0.135516
v -0.2397225 0.4107353 -0.1152667
v -0.1939476 0.585834 0.06027936
v -0.2025934 0.5174953 0.08142321
v -0.1861296 0.585883 0.07951152
v -0.2129296 0.5146966 0.06106335
v -0.2281547 0.4563317 0.06148786
v -0.2185022 0.4565092 0.08186679
v -0.2398044 0.4116729 0.06181268
v -0.2306751 0.4098447 0.0822062
v 0.1735079 0.7300111 0.003219244
v 0.1857111 0.6499163 -0.01794179
v 0.1680361 0.7270197 -0.01257906
v 0.191367 0.6530324 -0.00284959
v 0.2172686 0.5191964 -0.01111422
v 0.2116127 0.5160803 -0.02620642
v -0.03955632 0.7855643 0.1168381
v 6.25303E-10 0.8454772 0.1114249
v -0.04360594 0.8276975 0.1062358
v 6.25303E-10 0.8008685 0.1170414
v 0.05640552 0.8721943 0.1024312
v 0.06463388 0.8314571 0.1045325
v 0.09348586 0.8903408 0.06829368
v 0.1063951 0.8528332 0.06761072
v -0.03955632 0.7855643 0.1168381
v -0.07681309 0.7015939 0.1222103
v -0.03982893 0.7321807 0.1256506
v -0.07583392 0.771319 0.1094606
v -0.04360594 0.8276975 0.1062358
v -0.07509226 0.8150617 0.09980334
v -0.1286016 0.7933686 0.07594223
v -0.1406691 0.7415753 0.08545456
v -0.1770209 0.7390938 -0.002803399
v -0.1653529 0.7807257 -0.0008978294
v -0.1803695 0.585189 0.08579804
v -0.1413958 0.7433124 -0.09161881
v -0.09624883 0.6182779 0.1292359
v -0.1965399 0.5176902 0.08678686
v -0.2468541 0.5040671 -0.01231995
v -0.2184256 0.5849508 -0.007819339
v -0.1999319 0.5104637 -0.130989
v -0.1814188 0.5872201 -0.1193831
v -0.07998718 0.5991226 -0.1613407
v -0.07263885 0.6698954 -0.1480848
v -0.1300478 0.7957986 -0.07896464
v -0.06280924 0.774847 -0.1272472
v -0.05811719 0.8248504 -0.1169992
v -0.008131047 0.844709 -0.1162373
v -3.077988E-09 0.7380507 -0.1352815
v -0.003696442 0.7956522 -0.1266239
v 0.02395515 0.8566123 -0.1079347
v 0.0305789 0.8091956 -0.1216103
v 0.03644286 0.7516035 -0.1336438
v 0.0305789 0.8091956 -0.1216103
v 0.05700224 0.8720444 -0.08815748
v 0.06771663 0.8263902 -0.1016443
v 0.03644286 0.7516035 -0.1336438
v 0.08276566 0.7471292 -0.1173939
v 0.1034252 0.8485363 -0.06288824
v 0.08838341 0.8894731 -0.04419661
v 0.131951 0.8644459 0.01936894
v 0.110372 0.9022863 0.01949301
v 0.09348586 0.8903408 0.06829368
v 0.1063951 0.8528332 0.06761072
v 0.147563 0.7670394 0.03558833
v 0.1214828 0.7832783 0.06387408
v 0.131951 0.8644459 0.01936894
v 0.147563 0.7670394 0.03558833
v 0.1723161 0.7301421 0.008838243
v 0.1892325 0.6526505 -8.462607E-05
v 0.1576187 0.6363746 -0.08247418
v 0.1421163 0.7148234 -0.07897379
v 0.08276566 0.7471292 -0.1173939
v 0.06771663 0.8263902 -0.1016443
v 0.1034252 0.8485363 -0.06288824
v 0.1421163 0.7148234 -0.07897379
v 0.1034252 0.8485363 -0.06288824
v 0.131951 0.8644459 0.01936894
v 0.1723161 0.7301421 0.008838243
v -0.1770209 0.7390938 -0.002803399
v -0.1413958 0.7433124 -0.09161881
v -0.1814188 0.5872201 -0.1193831
v -0.2184256 0.5849508 -0.007819339
v -0.1406691 0.7415753 0.08545456
v -0.1803695 0.585189 0.08579804
vt 0.1582031 0.3430176
vt 0.1901855 0.3735352
vt 0.1721191 0.394043
vt 0.1757812 0.3391113
vt 0.1523438 0.3261719
vt 0.1695557 0.3203125
vt -0.6220703 0.4868164
vt -0.644043 0.4868164
vt -0.6220703 0.4868164
vt -0.6655273 0.4868164
vt -0.6220703 0.4868164
vt -0.6655273 0.4868164
vt -0.6655273 0.4868164
vt -0.6489258 0.4868164
vt -0.6489258 0.4868164
vt -0.6489258 0.4868164
vt -0.6489258 0.4868164
vt -0.6489258 0.4868164
vt -0.6489258 0.4868164
vt -0.6489258 0.4868164
vt -0.6655273 0.3977051
vt -0.6489258 0.3977051
vt -0.6489258 0.4868164
vt -0.6679688 0.4868164
vt -0.6489258 0.4868164
vt -0.6489258 0.4868164
vt -0.6489258 0.3977051
vt -0.6489258 0.4868164
vt -0.6489258 0.4868164
vt -0.6489258 0.3977051
vt -0.6679688 0.4868164
vt -0.6679688 0.3977051
vt -0.6679688 0.4868164
vt -0.6220703 0.4868164
vt -0.6220703 0.4868164
vt -0.6679688 0.4868164
vt -0.6220703 0.4868164
vt -0.6220703 0.4868164
vt -0.6655273 0.4868164
vt -0.6220703 0.4868164
vt -0.6220703 0.3977051
vt -0.6655273 0.3977051
vt -0.6679688 0.3977051
vt -0.6220703 0.3977051
vt -0.6220703 0.4868164
vt -0.6679688 0.4868164
vt 0.9702148 0.9736328
vt 0.9897461 0.9038086
vt 0.9897461 0.9736328
vt 0.9702148 0.9038086
vt 0.9702148 0.7836914
vt 0.9897461 0.7836914
vt 0.9946289 0.5839844
vt 0.9755859 0.519043
vt 0.9946289 0.519043
vt 0.9755859 0.5839844
vt 0.9946289 0.6416016
vt 0.9755859 0.6416016
vt 0.9946289 0.6821289
vt 0.9755859 0.6821289
vt 0.9755859 0.6821289
vt 0.9946289 0.6171875
vt 0.9946289 0.6821289
vt 0.9755859 0.6171875
vt 0.9755859 0.5595703
vt 0.9946289 0.5595703
vt 0.9755859 0.519043
vt 0.9946289 0.519043
vt 0.9897461 0.9736328
vt 0.9702148 0.9038086
vt 0.9702148 0.9736328
vt 0.9897461 0.9038086
vt 0.9897461 0.7836914
vt 0.9702148 0.7836914
vt 0.6821289 0.9589844
vt 0.7207031 0.9873047
vt 0.6821289 0.9873047
vt 0.7138672 0.9589844
vt 0.7729492 0.9873047
vt 0.7709961 0.9589844
vt 0.8144531 0.9873047
vt 0.8144531 0.9589844
vt 0.3671875 0.4604492
vt 0.3669434 0.4572754
vt 0.3679199 0.4587402
vt 0.3662109 0.4594727
vt 0.3664551 0.4616699
vt 0.3657227 0.4609375
vt 0.3640137 0.4597168
vt 0.3642578 0.4580078
vt 0.3613281 0.4575195
vt 0.3613281 0.4589844
vt 0.364502 0.4526367
vt 0.3581543 0.4575195
vt 0.3674316 0.4545898
vt 0.3647461 0.4501953
vt 0.3613281 0.4489746
vt 0.3613281 0.4519043
vt 0.3571777 0.4494629
vt 0.3574219 0.4521484
vt 0.3540039 0.4533691
vt 0.3547363 0.4558105
vt 0.3583984 0.4592285
vt 0.3554688 0.4592285
vt 0.355957 0.4606934
vt 0.3544922 0.4619141
vt 0.3532715 0.4587402
vt 0.3540039 0.4604492
vt 0.3537598 0.4626465
vt 0.3530273 0.4611816
vt 0.3520508 0.4594727
vt 0.3530273 0.4611816
vt 0.3527832 0.4638672
vt 0.3520508 0.4624023
vt 0.3520508 0.4594727
vt 0.3505859 0.4599609
vt 0.3508301 0.4638672
vt 0.3515625 0.465332
vt 0.348877 0.4660645
vt 0.3498535 0.467041
vt 0.3486328 0.4682617
vt 0.3476562 0.4672852
vt 0.3461914 0.4641113
vt 0.3459473 0.4655762
vt 0.3408203 0.4694824
vt 0.3427734 0.4599609
vt 0.347168 0.4575195
vt 0.3508301 0.4506836
vt 0.359375 0.4536133
vt 0.3557129 0.4604492
vt 0.359375 0.4672852
vt 0.354248 0.473877
vt 0.348877 0.4724121
vt 0.3474121 0.4611816
vt 0.359375 0.4614258
vt 0.3603516 0.4697266
vt 0.3481445 0.4699707
vt 0.3510742 0.4731445
vt 0.3439941 0.4731445
vt 0.3422852 0.4592285
vt 0.3508301 0.4592285
vt 0.3579102 0.4731445
vt 0.3586426 0.4592285
vn -0.3116125 -0.2240609 0.9234145
vn -0.3404179 -0.2172286 0.9148374
vn -0.3404179 -0.2172286 0.9148374
vn -0.3162657 -0.2229764 0.9220941
vn -0.2017107 -0.2362612 0.9505227
vn -0.2109534 -0.2382815 0.9480087
vn -0.2251304 -0.2242527 0.9481703
vn -0.2109534 -0.2382815 0.9480087
vn -0.2017107 -0.2362612 0.9505227
vn 0.006517034 -0.2310109 0.9729293
vn -0.2356279 -0.2169271 0.9473237
vn 0.007931517 -0.2437596 0.9698033
vn 0.008297042 -0.2322927 0.9726105
vn 0.3035413 -0.2309182 0.924413
vn 0.4240343 -0.2489608 0.8707545
vn 0.4461919 -0.252325 0.8586296
vn 0.7715619 -0.2956513 0.5632783
vn 0.7816886 -0.2978154 0.547968
vn 0.9502686 -0.3081106 -0.04536062
vn 0.3305113 -0.2474624 0.9107825
vn 0.004800905 -0.237009 0.9714956
vn 0.3366797 -0.2566901 0.9059564
vn 0.9508846 -0.308343 -0.02725717
vn 0.828335 -0.2651601 -0.4935093
vn 0.6717072 -0.2804584 0.6856767
vn 0.7038761 -0.2979365 0.6448196
vn 0.6781414 -0.2959569 0.6727062
vn 0.9518 -0.3061435 -0.01878014
vn 0.9511613 -0.307551 -0.02654527
vn 0.9510388 -0.30885 0.01170877
vn 0.7762953 -0.2586857 -0.5748456
vn 0.7792684 -0.2593803 -0.5704932
vn 0.7531933 -0.2570563 -0.6054931
vn 0.6342651 -0.2318445 -0.7375337
vn 0.6176653 -0.228051 -0.7526502
vn 0.8240537 -0.2652112 -0.5005981
vn 0.613561 -0.2219966 -0.7577996
vn 0.6123978 -0.2213194 -0.7589378
vn 0.008297042 -0.2322927 0.9726105
vn -0.2356279 -0.2169271 0.9473237
vn -0.241126 -0.2149319 0.9463945
vn 0.004800905 -0.237009 0.9714956
vn 0.7792684 -0.2593803 -0.5704932
vn 0.6364039 -0.2315419 -0.7357842
vn 0.6342651 -0.2318445 -0.7375337
vn 0.7762953 -0.2586857 -0.5748456
vn -0.9085051 -0.1998121 0.3670064
vn -0.9054282 -0.1980767 0.3754536
vn -0.9085051 -0.1998121 0.3670065
vn -0.9057987 -0.1982843 0.374449
vn -0.9038272 -0.1971837 0.3797566
vn -0.9038272 -0.1971838 0.3797566
vn 0.902918 -0.2762044 0.329318
vn 0.9058927 -0.2776629 0.3197839
vn 0.9058927 -0.2776629 0.3197838
vn 0.9027944 -0.2761441 0.3297071
vn 0.8992116 -0.2744098 0.3407602
vn 0.8992116 -0.2744097 0.3407603
vn 0.8992116 -0.2744099 0.3407603
vn 0.8992116 -0.2744099 0.3407603
vn 0.8900869 -0.2336835 -0.3913276
vn 0.8859962 -0.2332296 -0.4007679
vn 0.8900869 -0.2336835 -0.3913276
vn 0.8845505 -0.2330658 -0.404043
vn 0.879763 -0.2325111 -0.4146754
vn 0.8797631 -0.2325112 -0.4146753
vn 0.8797628 -0.2325106 -0.4146761
vn 0.8797628 -0.2325106 -0.4146761
vn -0.8988056 -0.2347461 0.3701929
vn -0.9022306 -0.2100605 0.3766357
vn -0.8988056 -0.2347461 0.370193
vn -0.9017418 -0.2138743 0.375659
vn -0.9036437 -0.1983251 0.3795988
vn -0.9036437 -0.1983251 0.3795988
vn 0.2220226 -0.1861426 -0.9571086
vn 0.009991759 -0.1496127 -0.9886941
vn 0.1877757 -0.1898392 -0.9636915
vn 0.05901218 -0.1566297 -0.9858928
vn -0.4006278 -0.1361074 -0.9060752
vn -0.3265438 -0.1191768 -0.9376386
vn -0.7325966 -0.2778726 -0.6213607
vn -0.7779562 -0.2210138 -0.5881642
vn 0.2220226 -0.1861426 -0.9571086
vn 0.420372 -0.1419848 -0.8961739
vn 0.2447956 -0.1696873 -0.9546106
vn 0.3619725 -0.2003445 -0.9104054
vn 0.1877757 -0.1898392 -0.9636915
vn 0.3765961 -0.2246448 -0.8987269
vn 0.7143123 -0.2598627 -0.6497918
vn 0.6185469 -0.1956168 -0.7610083
vn 0.9586857 -0.2844619 0.001772859
vn 0.9586856 -0.2841381 -0.01369405
vn 0.7251831 -0.208268 -0.6563033
vn 0.5512567 -0.2613452 0.7923476
vn 0.5066173 -0.1814878 -0.8428529
vn 0.8577937 -0.2474796 -0.4504929
vn 0.9530195 -0.3012918 0.03125929
vn 0.9540627 -0.2995352 -0.006552446
vn 0.8055423 -0.2956478 0.5135114
vn 0.6296595 -0.2724305 0.7275373
vn 0.3948039 -0.2195535 0.8921469
vn 0.3978711 -0.2360867 0.8865448
vn 0.7119654 -0.2805994 0.6437153
vn 0.3154038 -0.2330824 0.9198875
vn 0.2913077 -0.2397442 0.9261007
vn -0.01315482 -0.2272273 0.9737529
vn 0.0125211 -0.1791758 0.9837373
vn 0.008374706 -0.1948836 0.9807906
vn -0.2278786 -0.2787897 0.9329243
vn -0.0240516 -0.1786738 0.9836143
vn -0.0240516 -0.1786738 0.9836143
vn -0.2437841 -0.2577536 0.9349505
vn -0.5133774 -0.3905069 0.764165
vn -0.5650722 -0.2807575 0.7758019
vn -0.3496125 -0.2411679 0.9053227
vn -0.5830515 -0.2571012 0.7706816
vn -0.8151302 -0.3240631 0.480152
vn -0.7752318 -0.4738556 0.4177038
vn -0.9158643 -0.3425045 0.2094834
vn -0.8516465 -0.4880644 0.1910265
vn -0.7325966 -0.2778726 -0.6213607
vn -0.7779562 -0.2210138 -0.5881642
vn -0.8357037 -0.2019631 -0.5106959
vn -0.7654033 -0.1321938 -0.6298275
vn -0.9158643 -0.3425045 0.2094834
vn -0.8357037 -0.2019631 -0.5106959
vn -0.9234152 -0.2688212 0.2739337
vn -0.9096406 -0.2170895 0.3541556
vn -0.881265 -0.2129612 0.4219238
vn -0.8325776 -0.2563885 0.4909982
vn -0.5830515 -0.2571012 0.7706816
vn -0.5650722 -0.2807575 0.7758019
vn -0.8151302 -0.3240631 0.480152
vn -0.8325776 -0.2563885 0.4909982
vn -0.8151302 -0.3240631 0.480152
vn -0.9158643 -0.3425045 0.2094834
vn -0.9234152 -0.2688212 0.2739337
vn 0.9633356 -0.2680404 -0.01178247
vn 0.9074829 -0.2720137 0.32013
vn 0.9074829 -0.2720137 0.32013
vn 0.9632208 -0.268711 0.0001445785
vn 0.9019128 -0.2300643 -0.3655458
vn 0.9019127 -0.2300643 -0.3655458
g bf_waist_geo_0
f 3/3/3 2/2/2 1/1/1
f 2/2/2 4/4/4 1/1/1
f 1/1/1 4/4/4 5/5/5
f 4/4/4 6/6/6 5/5/5
f 9/9/9 8/8/8 7/7/7
f 10/10/10 7/7/7 8/8/8
f 11/11/11 7/7/7 10/10/10
f 8/8/8 12/12/12 10/10/10
f 13/13/13 11/11/11 10/10/10
f 10/10/10 12/12/12 14/14/14
f 13/13/13 10/10/10 14/14/14
f 15/15/15 14/14/14 12/12/12
f 16/16/16 15/15/15 12/12/12
f 16/16/16 17/17/17 15/15/15
f 17/17/17 18/18/18 15/15/15
f 15/15/15 18/18/18 14/14/14
f 18/18/18 17/17/17 19/19/19
f 20/20/20 13/13/13 14/14/14
f 21/21/21 13/13/13 20/20/20
f 22/22/22 21/21/21 20/20/20
f 23/23/23 18/18/18 19/19/19
f 19/19/19 24/24/24 23/23/23
f 18/18/18 25/25/25 14/14/14
f 14/14/14 25/25/25 20/20/20
f 25/25/25 18/18/18 23/23/23
f 20/20/20 26/26/26 22/22/22
f 25/25/25 26/26/26 20/20/20
f 26/26/26 27/27/27 22/22/22
f 26/26/26 25/25/25 28/28/28
f 28/28/28 25/25/25 23/23/23
f 27/27/27 26/26/26 29/29/29
f 29/29/29 26/26/26 28/28/28
f 30/30/30 27/27/27 29/29/29
f 29/29/29 31/31/31 30/30/30
f 28/28/28 31/31/31 29/29/29
f 31/31/31 32/32/32 30/30/30
f 33/33/33 31/31/31 28/28/28
f 23/23/23 33/33/33 28/28/28
f 33/33/33 34/34/34 31/31/31
f 35/35/35 34/34/34 33/33/33
f 36/36/36 33/33/33 23/23/23
f 33/33/33 36/36/36 35/35/35
f 24/24/24 36/36/36 23/23/23
f 37/37/37 35/35/35 36/36/36
f 24/24/24 38/38/38 36/36/36
f 38/38/38 37/37/37 36/36/36
f 41/41/41 40/40/40 39/39/39
f 42/42/42 41/41/41 39/39/39
f 45/45/45 44/44/44 43/43/43
f 46/46/46 45/45/45 43/43/43
f 49/49/49 48/48/48 47/47/47
f 48/48/48 50/50/50 47/47/47
f 51/51/51 50/50/50 48/48/48
f 52/52/52 51/51/51 48/48/48
f 55/55/55 54/54/54 53/53/53
f 54/54/54 56/56/56 53/53/53
f 57/57/57 53/53/53 56/56/56
f 58/58/58 57/57/57 56/56/56
f 59/59/59 57/57/57 58/58/58
f 60/60/60 59/59/59 58/58/58
f 63/63/63 62/62/62 61/61/61
f 62/62/62 64/64/64 61/61/61
f 65/65/65 64/64/64 62/62/62
f 66/66/66 65/65/65 62/62/62
f 67/67/67 65/65/65 66/66/66
f 68/68/68 67/67/67 66/66/66
f 71/71/71 70/70/70 69/69/69
f 70/70/70 72/72/72 69/69/69
f 73/73/73 72/72/72 70/70/70
f 74/74/74 73/73/73 70/70/70
f 77/77/77 76/76/76 75/75/75
f 76/76/76 78/78/78 75/75/75
f 78/78/78 76/76/76 79/79/79
f 80/80/80 78/78/78 79/79/79
f 80/80/80 79/79/79 81/81/81
f 82/82/82 80/80/80 81/81/81
f 85/85/85 84/84/84 83/83/83
f 84/84/84 86/86/86 83/83/83
f 83/83/83 86/86/86 87/87/87
f 86/86/86 88/88/88 87/87/87
f 88/88/88 86/86/86 89/89/89
f 84/84/84 90/90/90 86/86/86
f 86/86/86 90/90/90 89/89/89
f 89/89/89 90/90/90 91/91/91
f 92/92/92 89/89/89 91/91/91
f 90/90/90 84/84/84 93/93/93
f 92/92/92 91/91/91 94/94/94
f 84/84/84 95/95/95 93/93/93
f 96/96/96 93/93/93 95/95/95
f 93/93/93 96/96/96 97/97/97
f 98/98/98 93/93/93 97/97/97
f 98/98/98 97/97/97 99/99/99
f 100/100/100 98/98/98 99/99/99
f 100/100/100 99/99/99 101/101/101
f 102/102/102 100/100/100 101/101/101
f 94/94/94 100/100/100 102/102/102
f 103/103/103 92/92/92 94/94/94
f 104/104/104 94/94/94 102/102/102
f 103/103/103 94/94/94 104/104/104
f 105/105/105 103/103/103 104/104/104
f 105/105/105 104/104/104 106/106/106
f 102/102/102 107/107/107 104/104/104
f 104/104/104 108/108/108 106/106/106
f 107/107/107 108/108/108 104/104/104
f 106/106/106 108/108/108 109/109/109
f 110/110/110 108/108/108 107/107/107
f 111/111/111 110/110/110 107/107/107
f 108/108/108 112/112/112 109/109/109
f 109/109/109 112/112/112 113/113/113
f 113/113/113 112/112/112 114/114/114
f 114/114/114 112/112/112 115/115/115
f 116/116/116 114/114/114 115/115/115
f 113/113/113 114/114/114 117/117/117
f 118/118/118 113/113/113 117/117/117
f 118/118/118 117/117/117 119/119/119
f 120/120/120 118/118/118 119/119/119
f 120/120/120 119/119/119 121/121/121
f 121/121/121 119/119/119 122/122/122
f 122/122/122 119/119/119 123/123/123
f 124/124/124 122/122/122 123/123/123
f 127/127/127 126/126/126 125/125/125
f 126/126/126 127/127/127 128/128/128
f 129/129/129 128/128/128 127/127/127
f 130/130/130 129/129/129 127/127/127
f 131/131/131 129/129/129 130/130/130
f 132/132/132 131/131/131 130/130/130
f 133/133/133 132/132/132 130/130/130
f 136/136/136 135/135/135 134/134/134
f 137/137/137 136/136/136 134/134/134
f 140/140/140 139/139/139 138/138/138
f 141/141/141 140/140/140 138/138/138
f 141/141/141 138/138/138 142/142/142
f 143/143/143 141/141/141 142/142/142
