g waist_geo
v 0.1151588 0.8076454 0.0635151
v 0.1194716 0.7878693 0.06218061
v 0.06426032 0.832031 0.1033942
v 0.07395981 0.8381245 0.09383603
v -0.02127873 0.8417642 0.1136831
v 0.008963321 0.8549563 0.113762
v 0.02687707 0.8082883 0.1206505
v -0.003050438 0.7950219 0.1204375
v 0.1519937 0.7180703 -0.06031153
v 0.1458682 0.7157951 -0.07737791
v 0.1609973 0.6372132 -0.08204525
v 0.1673218 0.6396228 -0.06574174
v 0.1919867 0.5065888 -0.07611509
v 0.1856622 0.5041792 -0.09241859
v -0.2057174 0.5108927 -0.1243453
v -0.1866888 0.587908 -0.112822
v -0.1928272 0.5875316 -0.09431656
v -0.2135005 0.5098317 -0.1046613
v -0.223176 0.4449142 -0.1314064
v -0.2297722 0.4483389 -0.1112423
v -0.2328615 0.4080727 -0.135516
v -0.2397225 0.4107353 -0.1152667
v -0.1939476 0.585834 0.06027936
v -0.1861296 0.585883 0.07951152
v -0.2025934 0.5174953 0.08142321
v -0.2129296 0.5146966 0.06106335
v -0.2281547 0.4563317 0.06148786
v -0.2185022 0.4565092 0.08186679
v -0.2398044 0.4116729 0.06181268
v -0.2306751 0.4098447 0.0822062
v 0.1735079 0.7300111 0.003219244
v 0.1680361 0.7270197 -0.01257906
v 0.1857111 0.6499163 -0.01794179
v 0.191367 0.6530324 -0.00284959
v 0.2172686 0.5191964 -0.01111422
v 0.2116127 0.5160803 -0.02620642
v 0.06244535 0.7461336 -0.1200605
v 0.06771663 0.8256418 -0.09715586
v 0.0305789 0.8084472 -0.1171219
v 0.035039 0.7501839 -0.127233
v 0.06359014 0.7189723 -0.1281645
v 0.03535186 0.7197874 -0.1335115
v 0.06716049 0.5947582 -0.1579151
v -0.002479702 0.5972772 -0.1731404
v 0.07080889 0.4248019 -0.1953673
v -0.000437328 0.7219443 -0.1411503
v -0.003678385 0.4294719 -0.2132367
v 0.07629208 0.242632 -0.235294
v -0.01011189 0.2494531 -0.2558074
v -0.0791968 0.5932164 -0.1589189
v -0.1033243 0.4336815 -0.1888613
v -0.12955 0.2596485 -0.2305222
v -0.2167091 0.4443323 -0.1260702
v -0.2610807 0.2885937 -0.1486615
v -0.07223516 0.6659178 -0.1426979
v -0.06682891 0.7223761 -0.1301011
v -0.1373854 0.7227482 -0.08568339
v -0.1770928 0.5833802 -0.1059
v -0.1676832 0.7230285 -0.004348818
v -0.1999515 0.5031494 -0.1175382
v -0.2131746 0.5812585 -0.008167105
v -0.1307617 0.7222518 0.06986666
v -0.2526046 0.4583784 -0.01147663
v -0.2981883 0.316321 -0.01530266
v -0.2393327 0.4997392 -0.01036266
v -0.2091672 0.4532523 0.08500462
v -0.251762 0.3071149 0.09322851
v -0.1719311 0.5810049 0.07781534
v -0.1029414 0.7233202 0.0919825
v -0.1113163 0.6622757 0.1030846
v -0.1216543 0.5869221 0.1167891
v -0.1917661 0.5129535 0.08164494
v -0.1456478 0.4397677 0.1432661
v -0.1696413 0.2926132 0.169743
v -0.03955632 0.7855643 0.1168381
v -0.04360594 0.8276975 0.1062358
v 6.25303E-10 0.8454772 0.1114249
v 6.25303E-10 0.8008685 0.1170414
v 0.05640552 0.8721943 0.1024312
v 0.06463388 0.8314571 0.1045325
v 0.09348586 0.8903408 0.06829368
v 0.1063951 0.8528332 0.06761072
v -0.03955632 0.7855643 0.1168381
v -0.03982893 0.7321807 0.1256506
v -0.07681309 0.7015939 0.1222103
v -0.07583392 0.771319 0.1094606
v -0.04360594 0.8276975 0.1062358
v -0.07509226 0.8150617 0.09980334
v -0.1286016 0.7933686 0.07594223
v -0.1406691 0.7415753 0.08545456
v -0.1770209 0.7390938 -0.002803399
v -0.1653529 0.7807257 -0.0008978294
v -0.1803695 0.585189 0.08579804
v -0.09624883 0.6182779 0.1292359
v -0.1965399 0.5176902 0.08678686
v -0.1413958 0.7433124 -0.09161881
v -0.2184256 0.5849508 -0.007819339
v -0.2468541 0.5040671 -0.01231995
v -0.1999319 0.5104637 -0.130989
v -0.1814188 0.5872201 -0.1193831
v -0.07998718 0.5991226 -0.1613407
v -0.07263885 0.6698954 -0.1480848
v -0.1300478 0.7957986 -0.07896464
v -0.06280924 0.774847 -0.1272472
v -0.05811719 0.8248504 -0.1169992
v -0.008131047 0.844709 -0.1162373
v -3.077988E-09 0.7380507 -0.1352815
v -0.003696442 0.7956522 -0.1266239
v 0.02395515 0.8566123 -0.1079347
v 0.0305789 0.8091956 -0.1216103
v 0.03644286 0.7516035 -0.1336438
v 0.0305789 0.8091956 -0.1216103
v 0.05700224 0.8720444 -0.08815748
v 0.06771663 0.8263902 -0.1016443
v 0.03644286 0.7516035 -0.1336438
v 0.08276566 0.7471292 -0.1173939
v 0.1034252 0.8485363 -0.06288824
v 0.08838341 0.8894731 -0.04419661
v 0.1421163 0.7148234 -0.07897379
v 0.1576187 0.6363746 -0.08247418
v 0.131951 0.8644459 0.01936894
v 0.1723161 0.7301421 0.008838244
v 0.1892325 0.6526505 -8.462607E-05
v 0.110372 0.9022863 0.01949301
v 0.147563 0.7670394 0.03558833
v 0.09348586 0.8903408 0.06829368
v 0.1063951 0.8528332 0.06761072
v 0.1214828 0.7832783 0.06387408
v -0.1770209 0.7390938 -0.002803399
v -0.1772266 0.7384936 -0.08977805
v -0.1413958 0.7433124 -0.09161881
v -0.2081446 0.7362598 0.002565498
v -0.1406691 0.7415753 0.08545456
v -0.1739533 0.7389527 0.08507988
v -0.2110889 0.5936515 -0.1146634
v -0.1413958 0.7433124 -0.09161881
v -0.1814188 0.5872201 -0.1193831
v -0.2442403 0.5903542 -0.007679953
v -0.1814188 0.5872201 -0.1193831
v -0.2184256 0.5849508 -0.007819339
v -0.208594 0.5916943 0.08291736
v -0.1803695 0.585189 0.08579804
v -0.1803695 0.585189 0.08579804
v -0.1406691 0.7415753 0.08545456
v 0.1421163 0.7148234 -0.07897379
v 0.131704 0.8424057 -0.07412358
v 0.1034252 0.8485363 -0.06288824
v 0.1677084 0.7221793 -0.08489458
v 0.1597589 0.857844 0.006984497
v 0.1034252 0.8485363 -0.06288824
v 0.131951 0.8644459 0.01936894
v 0.1954063 0.7362052 -0.004054184
v 0.131951 0.8644459 0.01936894
v 0.1723161 0.7301421 0.008838244
v 0.1723161 0.7301421 0.008838244
v 0.1421163 0.7148234 -0.07897379
vt 0.8291016 0.02632141
vt 0.8417969 0.01420593
vt 0.7729492 0.01425171
vt 0.7802734 0.02632141
vt 0.8276367 0.9892578
vt 0.8588867 0.9892578
vt 0.8588867 0.9448242
vt 0.8276367 0.9448242
vt 0.9702148 0.9736328
vt 0.9897461 0.9736328
vt 0.9897461 0.9038086
vt 0.9702148 0.9038086
vt 0.9702148 0.7836914
vt 0.9897461 0.7836914
vt 0.9946289 0.6171875
vt 0.9946289 0.6821289
vt 0.9755859 0.6821289
vt 0.9755859 0.6171875
vt 0.9946289 0.5595703
vt 0.9755859 0.5595703
vt 0.9946289 0.519043
vt 0.9755859 0.519043
vt 0.9755859 0.6821289
vt 0.9946289 0.6821289
vt 0.9946289 0.6171875
vt 0.9755859 0.6171875
vt 0.9755859 0.5595703
vt 0.9946289 0.5595703
vt 0.9755859 0.519043
vt 0.9946289 0.519043
vt 0.9897461 0.9736328
vt 0.9702148 0.9736328
vt 0.9702148 0.9038086
vt 0.9897461 0.9038086
vt 0.9897461 0.7836914
vt 0.9702148 0.7836914
vt 0.1582031 0.3430176
vt 0.1700439 0.394043
vt 0.1901855 0.3735352
vt 0.1757812 0.3391113
vt 0.1523438 0.3261719
vt 0.1695557 0.3203125
vt 0.1260986 0.2497559
vt 0.1689453 0.2357178
vt 0.09118652 0.145752
vt 0.1917725 0.3137207
vt 0.1374512 0.1315918
vt 0.05239868 0.0345459
vt 0.1064453 0.01893616
vt 0.2158203 0.2208252
vt 0.2010498 0.1182861
vt 0.1824951 0.005531311
vt 0.2827148 0.1099243
vt 0.2819824 0.006771088
vt 0.2254639 0.2670898
vt 0.2329102 0.3029785
vt 0.284668 0.2944336
vt 0.2836914 0.2020264
vt 0.3395996 0.2958984
vt 0.2832031 0.1489258
vt 0.3496094 0.2025146
vt 0.3901367 0.3093262
vt 0.3581543 0.12146
vt 0.3684082 0.02786255
vt 0.3552246 0.1488037
vt 0.423584 0.135498
vt 0.4418945 0.04098511
vt 0.4077148 0.2180176
vt 0.4106445 0.3181152
vt 0.4255371 0.2814941
vt 0.4436035 0.2363281
vt 0.4162598 0.1740723
vt 0.4775391 0.1469727
vt 0.5112305 0.05758667
vt 0.6821289 0.9589844
vt 0.6821289 0.9873047
vt 0.7207031 0.9873047
vt 0.7138672 0.9589844
vt 0.7729492 0.9873047
vt 0.7709961 0.9589844
vt 0.8144531 0.9873047
vt 0.8144531 0.9589844
vt 0.4389648 0.5449219
vt 0.4511719 0.5126953
vt 0.435791 0.4865723
vt 0.4199219 0.5288086
vt 0.4260254 0.5688477
vt 0.409668 0.5546875
vt 0.378418 0.5307617
vt 0.3850098 0.4980469
vt 0.3271484 0.4890137
vt 0.3256836 0.515625
vt 0.3891602 0.3955078
vt 0.4411621 0.4326172
vt 0.3937988 0.3518066
vt 0.2666016 0.4882812
vt 0.3271484 0.3815918
vt 0.3276367 0.3276367
vt 0.2479248 0.3364258
vt 0.2536621 0.3862305
vt 0.1898193 0.4118652
vt 0.2015381 0.4555664
vt 0.2712402 0.5229492
vt 0.2181396 0.5205078
vt 0.2255859 0.5517578
vt 0.199707 0.5737305
vt 0.1729736 0.5107422
vt 0.1871338 0.5444336
vt 0.1829834 0.5883789
vt 0.1696777 0.5600586
vt 0.1539307 0.5263672
vt 0.1696777 0.5600586
vt 0.1654053 0.6079102
vt 0.1505127 0.5810547
vt 0.1539307 0.5263672
vt 0.1241455 0.5361328
vt 0.1293945 0.609375
vt 0.1419678 0.6367188
vt 0.07525635 0.5405273
vt 0.04296875 0.5019531
vt 0.09301758 0.6508789
vt 0.03659058 0.5844727
vt 0.005222321 0.5454102
vt 0.1121826 0.6694336
vt 0.04110718 0.6166992
vt 0.08630371 0.6918945
vt 0.06768799 0.6743164
vt 0.03582764 0.6425781
vt 0.8027344 0.8764648
vt 0.7504883 0.8569336
vt 0.7470703 0.8764648
vt 0.8056641 0.8569336
vt 0.8564453 0.8764648
vt 0.8535156 0.8569336
vt 0.7431641 0.7739258
vt 0.7324219 0.8652344
vt 0.7265625 0.7739258
vt 0.800293 0.7739258
vt 0.737793 0.7563477
vt 0.8007812 0.7563477
vt 0.8535156 0.7739258
vt 0.8574219 0.7563477
vt 0.871582 0.7739258
vt 0.871582 0.8623047
vt 0.75 0.4616699
vt 0.8242188 0.4777832
vt 0.8330078 0.4616699
vt 0.7495117 0.4777832
vt 0.8310547 0.5288086
vt 0.8422852 0.4765625
vt 0.8491211 0.5283203
vt 0.7558594 0.5288086
vt 0.840332 0.5444336
vt 0.7568359 0.5449219
vt 0.7407227 0.5327148
vt 0.7333984 0.4775391
vn 0.6443602 0.1065513 0.7572626
vn 0.6443603 0.1065513 0.7572626
vn 0.6443602 0.1065513 0.7572626
vn 0.6443602 0.1065512 0.7572626
vn -0.05848819 0.1220788 0.9907956
vn -0.05848819 0.1220788 0.9907956
vn -0.05848819 0.1220788 0.9907956
vn -0.05848819 0.1220788 0.9907956
vn 0.9085051 0.1998121 -0.3670065
vn 0.9085051 0.1998121 -0.3670065
vn 0.9054283 0.1980767 -0.3754533
vn 0.9057988 0.1982843 -0.3744487
vn 0.9038274 0.1971838 -0.3797561
vn 0.9038274 0.1971838 -0.3797561
vn -0.902918 0.2762043 -0.329318
vn -0.9058927 0.277663 -0.3197836
vn -0.9058927 0.277663 -0.3197837
vn -0.9027944 0.2761441 -0.329707
vn -0.8992116 0.2744097 -0.3407604
vn -0.8992118 0.2744096 -0.3407604
vn -0.8992116 0.2744099 -0.3407603
vn -0.8992116 0.2744099 -0.3407604
vn -0.890087 0.2336836 0.3913274
vn -0.890087 0.2336835 0.3913273
vn -0.8859962 0.2332295 0.4007678
vn -0.8845505 0.2330658 0.404043
vn -0.879763 0.2325111 0.4146753
vn -0.8797631 0.2325112 0.4146753
vn -0.8797629 0.2325107 0.4146757
vn -0.8797629 0.2325107 0.4146757
vn 0.8988054 0.234746 -0.3701932
vn 0.8988054 0.234746 -0.3701932
vn 0.9022306 0.2100605 -0.3766359
vn 0.9017417 0.2138742 -0.3756592
vn 0.9036435 0.1983251 -0.3795989
vn 0.9036435 0.1983251 -0.3795989
vn 0.3116125 0.2240609 -0.9234145
vn 0.3404177 0.2172285 -0.9148375
vn 0.3404177 0.2172285 -0.9148375
vn 0.3162657 0.2229764 -0.9220941
vn 0.2017108 0.2362612 -0.9505227
vn 0.2109535 0.2382815 -0.9480087
vn 0.2251304 0.2242528 -0.9481703
vn -0.006517128 0.2310109 -0.9729293
vn 0.2356279 0.2169272 -0.9473237
vn -0.007931433 0.2437597 -0.9698033
vn -0.008297137 0.2322927 -0.9726105
vn 0.2411259 0.2149319 -0.9463945
vn -0.004800969 0.237009 -0.9714956
vn -0.3035415 0.2309182 -0.924413
vn -0.3305114 0.2474624 -0.9107824
vn -0.3366798 0.2566901 -0.9059564
vn -0.7038761 0.2979366 -0.6448194
vn -0.6781415 0.2959569 -0.6727062
vn -0.4240342 0.2489608 -0.8707545
vn -0.446192 0.2523251 -0.8586296
vn -0.7715619 0.2956513 -0.5632783
vn -0.7816886 0.2978154 -0.5479679
vn -0.9502686 0.3081106 0.04536064
vn -0.6717072 0.2804584 -0.6856766
vn -0.9508847 0.308343 0.02725723
vn -0.8283349 0.26516 0.4935094
vn -0.9511613 0.307551 0.02654533
vn -0.9510388 0.3088499 -0.01170871
vn -0.9518 0.3061436 0.01878017
vn -0.7762952 0.2586857 0.5748456
vn -0.7792684 0.2593803 0.5704934
vn -0.8240536 0.2652112 0.5005983
vn -0.6123976 0.2213193 0.758938
vn -0.613561 0.2219966 0.7577996
vn -0.6176654 0.228051 0.7526501
vn -0.7531933 0.2570562 0.6054931
vn -0.634265 0.2318445 0.7375337
vn -0.6364039 0.231542 0.7357843
vn -0.2220226 0.1861426 0.9571086
vn -0.1877758 0.1898391 0.9636915
vn -0.009991888 0.1496128 0.9886941
vn -0.05901235 0.1566297 0.9858928
vn 0.4006279 0.1361074 0.9060752
vn 0.3265439 0.1191769 0.9376385
vn 0.7325966 0.2778726 0.6213607
vn 0.7779562 0.2210137 0.5881642
vn -0.2220226 0.1861426 0.9571086
vn -0.2447956 0.1696872 0.9546106
vn -0.4203719 0.1419847 0.8961739
vn -0.3619725 0.2003445 0.9104055
vn -0.1877758 0.1898391 0.9636915
vn -0.3765959 0.2246447 0.8987271
vn -0.714312 0.2598625 0.6497921
vn -0.6185466 0.1956167 0.7610086
vn -0.9586857 0.2844618 -0.001772391
vn -0.9586857 0.2841379 0.01369451
vn -0.64338 0.1704802 0.7463235
vn -0.5066176 0.181488 0.8428527
vn -0.8333936 0.2349243 0.5002654
vn -0.6069503 0.2679517 -0.7482067
vn -0.9509521 0.3092033 0.009135978
vn -0.9427229 0.3326927 -0.02426932
vn -0.8038989 0.2936846 -0.5172001
vn -0.6127244 0.2663038 -0.7440773
vn -0.394723 0.2139032 -0.8935543
vn -0.3662686 0.2348043 -0.9003967
vn -0.7119654 0.2805994 -0.6437153
vn -0.2735776 0.2211888 -0.936072
vn -0.2913077 0.2397443 -0.9261007
vn 0.01315485 0.2272273 -0.9737529
vn -0.01252101 0.1791758 -0.9837373
vn -0.008374662 0.1948836 -0.9807906
vn 0.2278784 0.2787895 -0.9329244
vn 0.0240516 0.1786738 -0.9836143
vn 0.0240516 0.1786738 -0.9836143
vn 0.2437842 0.2577536 -0.9349505
vn 0.5133774 0.3905069 -0.7641649
vn 0.5650722 0.2807575 -0.7758019
vn 0.3496125 0.2411679 -0.9053227
vn 0.5830515 0.2571012 -0.7706816
vn 0.6790354 0.3531197 -0.6435972
vn 0.7752318 0.4738559 -0.4177036
vn 0.7825252 0.222999 -0.581314
vn 0.8812649 0.2129611 -0.4219238
vn 0.9120778 0.4028344 0.07641058
vn 0.969354 0.2146879 -0.119423
vn 0.9096406 0.2170894 -0.3541556
vn 0.8516465 0.4880647 -0.1910264
vn 0.8357038 0.2019632 0.5106956
vn 0.7325966 0.2778726 0.6213607
vn 0.7779562 0.2210137 0.5881642
vn 0.7654039 0.1321939 0.6298267
vn -0.1006746 0.9949181 -0.001577072
vn -0.7527803 0.4213548 -0.5057491
vn -0.1257879 0.59571 -0.7932888
vn -0.9284108 0.3702684 0.03089712
vn -0.0863542 0.4917745 0.8664299
vn -0.7121186 0.3622683 0.6013724
vn -0.8417243 0.06086134 -0.5364661
vn -0.1257879 0.59571 -0.7932888
vn -0.1738846 -0.2023199 -0.9637587
vn -0.9964936 0.08366704 0.0004003374
vn -0.1738846 -0.2023199 -0.9637587
vn -0.2180474 -0.9759161 -0.006563768
vn -0.812102 -0.004173624 0.5835006
vn -0.1203268 -0.3158558 0.9411464
vn -0.1203268 -0.3158558 0.9411464
vn -0.0863542 0.4917745 0.8664299
vn -0.1199541 -0.5217493 -0.8446234
vn 0.6453294 0.4140223 -0.6419778
vn -0.09614368 0.6779978 -0.7287493
vn 0.7807403 0.03868113 -0.6236573
vn 0.881265 0.4725094 0.01033092
vn -0.09614368 0.6779978 -0.7287493
vn 0.419052 0.7675478 0.485042
vn 0.9929926 0.09092622 -0.07548508
vn 0.419052 0.7675478 0.485042
vn 0.5011736 -0.4117965 0.7610838
vn 0.5011736 -0.4117965 0.7610838
vn -0.1199541 -0.5217493 -0.8446234
g waist_geo_0
f 3/3/3 2/2/2 1/1/1
f 4/4/4 3/3/3 1/1/1
f 7/7/7 6/6/6 5/5/5
f 8/8/8 7/7/7 5/5/5
f 11/11/11 10/10/10 9/9/9
f 12/12/12 11/11/11 9/9/9
f 12/12/12 13/13/13 11/11/11
f 13/13/13 14/14/14 11/11/11
f 17/17/17 16/16/16 15/15/15
f 18/18/18 17/17/17 15/15/15
f 15/15/15 19/19/19 18/18/18
f 19/19/19 20/20/20 18/18/18
f 19/19/19 21/21/21 20/20/20
f 21/21/21 22/22/22 20/20/20
f 25/25/25 24/24/24 23/23/23
f 26/26/26 25/25/25 23/23/23
f 26/26/26 27/27/27 25/25/25
f 27/27/27 28/28/28 25/25/25
f 27/27/27 29/29/29 28/28/28
f 29/29/29 30/30/30 28/28/28
f 33/33/33 32/32/32 31/31/31
f 34/34/34 33/33/33 31/31/31
f 34/34/34 35/35/35 33/33/33
f 35/35/35 36/36/36 33/33/33
f 39/39/39 38/38/38 37/37/37
f 40/40/40 39/39/39 37/37/37
f 40/40/40 37/37/37 41/41/41
f 42/42/42 40/40/40 41/41/41
f 42/42/42 41/41/41 43/43/43
f 43/43/43 44/44/44 42/42/42
f 43/43/43 45/45/45 44/44/44
f 46/46/46 42/42/42 44/44/44
f 45/45/45 47/47/47 44/44/44
f 45/45/45 48/48/48 47/47/47
f 48/48/48 49/49/49 47/47/47
f 46/46/46 44/44/44 50/50/50
f 44/44/44 47/47/47 50/50/50
f 47/47/47 49/49/49 51/51/51
f 47/47/47 51/51/51 50/50/50
f 49/49/49 52/52/52 51/51/51
f 53/53/53 51/51/51 52/52/52
f 54/54/54 53/53/53 52/52/52
f 50/50/50 55/55/55 46/46/46
f 55/55/55 56/56/56 46/46/46
f 57/57/57 56/56/56 55/55/55
f 58/58/58 57/57/57 55/55/55
f 58/58/58 55/55/55 50/50/50
f 57/57/57 58/58/58 59/59/59
f 60/60/60 50/50/50 51/51/51
f 60/60/60 58/58/58 50/50/50
f 53/53/53 60/60/60 51/51/51
f 58/58/58 61/61/61 59/59/59
f 58/58/58 60/60/60 61/61/61
f 62/62/62 59/59/59 61/61/61
f 53/53/53 54/54/54 63/63/63
f 54/54/54 64/64/64 63/63/63
f 60/60/60 53/53/53 65/65/65
f 53/53/53 63/63/63 65/65/65
f 60/60/60 65/65/65 61/61/61
f 66/66/66 63/63/63 64/64/64
f 66/66/66 65/65/65 63/63/63
f 67/67/67 66/66/66 64/64/64
f 68/68/68 62/62/62 61/61/61
f 69/69/69 62/62/62 68/68/68
f 70/70/70 69/69/69 68/68/68
f 71/71/71 70/70/70 68/68/68
f 72/72/72 61/61/61 65/65/65
f 72/72/72 68/68/68 61/61/61
f 68/68/68 72/72/72 71/71/71
f 66/66/66 72/72/72 65/65/65
f 73/73/73 71/71/71 72/72/72
f 73/73/73 72/72/72 66/66/66
f 73/73/73 66/66/66 67/67/67
f 74/74/74 73/73/73 67/67/67
f 77/77/77 76/76/76 75/75/75
f 78/78/78 77/77/77 75/75/75
f 77/77/77 78/78/78 79/79/79
f 78/78/78 80/80/80 79/79/79
f 79/79/79 80/80/80 81/81/81
f 80/80/80 82/82/82 81/81/81
f 85/85/85 84/84/84 83/83/83
f 86/86/86 85/85/85 83/83/83
f 86/86/86 83/83/83 87/87/87
f 88/88/88 86/86/86 87/87/87
f 86/86/86 88/88/88 89/89/89
f 90/90/90 85/85/85 86/86/86
f 90/90/90 86/86/86 89/89/89
f 90/90/90 89/89/89 91/91/91
f 89/89/89 92/92/92 91/91/91
f 85/85/85 90/90/90 93/93/93
f 94/94/94 85/85/85 93/93/93
f 93/93/93 95/95/95 94/94/94
f 91/91/91 92/92/92 96/96/96
f 95/95/95 93/93/93 97/97/97
f 95/95/95 97/97/97 98/98/98
f 98/98/98 97/97/97 99/99/99
f 97/97/97 100/100/100 99/99/99
f 99/99/99 100/100/100 101/101/101
f 100/100/100 102/102/102 101/101/101
f 100/100/100 96/96/96 102/102/102
f 92/92/92 103/103/103 96/96/96
f 96/96/96 104/104/104 102/102/102
f 96/96/96 103/103/103 104/104/104
f 103/103/103 105/105/105 104/104/104
f 104/104/104 105/105/105 106/106/106
f 107/107/107 102/102/102 104/104/104
f 108/108/108 104/104/104 106/106/106
f 108/108/108 107/107/107 104/104/104
f 108/108/108 106/106/106 109/109/109
f 108/108/108 110/110/110 107/107/107
f 110/110/110 111/111/111 107/107/107
f 112/112/112 108/108/108 109/109/109
f 112/112/112 109/109/109 113/113/113
f 112/112/112 113/113/113 114/114/114
f 112/112/112 114/114/114 115/115/115
f 114/114/114 116/116/116 115/115/115
f 114/114/114 113/113/113 117/117/117
f 113/113/113 118/118/118 117/117/117
f 116/116/116 114/114/114 119/119/119
f 114/114/114 117/117/117 119/119/119
f 120/120/120 116/116/116 119/119/119
f 117/117/117 118/118/118 121/121/121
f 120/120/120 119/119/119 122/122/122
f 123/123/123 120/120/120 122/122/122
f 118/118/118 124/124/124 121/121/121
f 122/122/122 125/125/125 123/123/123
f 125/125/125 122/122/122 121/121/121
f 121/121/121 124/124/124 126/126/126
f 121/121/121 126/126/126 127/127/127
f 121/121/121 127/127/127 125/125/125
f 127/127/127 128/128/128 125/125/125
f 131/131/131 130/130/130 129/129/129
f 130/130/130 132/132/132 129/129/129
f 129/129/129 132/132/132 133/133/133
f 132/132/132 134/134/134 133/133/133
f 132/132/132 130/130/130 135/135/135
f 135/135/135 130/130/130 136/136/136
f 137/137/137 135/135/135 136/136/136
f 138/138/138 132/132/132 135/135/135
f 134/134/134 132/132/132 138/138/138
f 138/138/138 135/135/135 139/139/139
f 140/140/140 138/138/138 139/139/139
f 141/141/141 138/138/138 140/140/140
f 141/141/141 134/134/134 138/138/138
f 142/142/142 141/141/141 140/140/140
f 134/134/134 141/141/141 143/143/143
f 144/144/144 134/134/134 143/143/143
f 147/147/147 146/146/146 145/145/145
f 146/146/146 148/148/148 145/145/145
f 146/146/146 149/149/149 148/148/148
f 149/149/149 146/146/146 150/150/150
f 151/151/151 149/149/149 150/150/150
f 149/149/149 152/152/152 148/148/148
f 152/152/152 149/149/149 153/153/153
f 154/154/154 152/152/152 153/153/153
f 148/148/148 152/152/152 155/155/155
f 156/156/156 148/148/148 155/155/155
