g facial_mouth_geo
v -0.06898688 1.361379 0.1098487
v -0.04596012 1.362951 0.1175115
v -0.06555823 1.345345 0.1084928
v -0.08172561 1.358142 0.0995889
v -0.04142114 1.343759 0.1176853
v -0.06142838 1.330047 0.105762
v -0.03535049 1.318102 0.1099122
v -0.01867567 1.343045 0.1296125
v -0.0180321 1.352029 0.1377741
v 1.497992E-10 1.34007 0.1409357
v 1.497995E-10 1.353928 0.1542627
v 0.0180321 1.352029 0.1377741
v -0.01620217 1.324297 0.1285355
v -0.07789379 1.330109 0.092918
v -0.09218628 1.349241 0.08406538
v 0.01867567 1.343045 0.1296125
v 0.04596012 1.362951 0.1175115
v -0.05604618 1.316769 0.1020589
v -0.08228139 1.325792 0.07793063
v -0.09240223 1.336745 0.05915349
v -0.08115514 1.318303 0.05124178
v -0.06958973 1.314643 0.09058261
v -0.06879322 1.30846 0.06983411
v -0.05531735 1.301226 0.09136048
v -0.0635583 1.301549 0.04836953
v -0.07650005 1.314359 0.03103888
v -0.06855893 1.3076 0.02353529
v -0.05907558 1.298439 0.03931402
v -0.05454697 1.296558 0.06467208
v -0.05034053 1.291288 0.05030195
v -0.03863609 1.286753 0.0897544
v -0.03537489 1.282027 0.06267793
v -0.03953909 1.293799 0.1007607
v -0.01491951 1.274035 0.09531619
v -0.01617818 1.275543 0.07486909
v 1.497991E-10 1.272852 0.07864071
v -0.01531292 1.279687 0.1066532
v -0.03795216 1.306442 0.1074454
v -0.01679425 1.292177 0.1119372
v 1.497996E-10 1.270901 0.09741322
v 1.497997E-10 1.276201 0.1087335
v 0.01491951 1.274035 0.09531619
v 0.01617818 1.275543 0.07486909
v 0.03537489 1.282027 0.06267793
v 0.01531292 1.279687 0.1066532
v 0.03863609 1.286753 0.0897544
v 0.05034053 1.291288 0.05030195
v 0.05454697 1.296558 0.06467208
v 0.05907558 1.298439 0.03931402
v 0.0635583 1.301549 0.04836953
v 0.06855894 1.3076 0.02353529
v 0.07650006 1.314359 0.03103888
v 0.08115514 1.318303 0.05124178
v 0.06879322 1.30846 0.06983411
v 0.05531735 1.301226 0.09136048
v 0.03953909 1.293799 0.1007607
v 0.01679425 1.292177 0.1119372
v 0.08228139 1.325792 0.07793063
v 0.09240223 1.336745 0.05915349
v 0.09218628 1.349241 0.08406538
v 0.06958973 1.314643 0.09058261
v 0.07789379 1.330109 0.092918
v 0.08172563 1.358142 0.0995889
v 0.05604618 1.316769 0.1020589
v 0.06142838 1.330047 0.105762
v 0.03535049 1.318102 0.1099122
v 0.03795216 1.306442 0.1074454
v 0.06555823 1.345345 0.1084928
v 0.06898689 1.361379 0.1098487
v 0.04142114 1.343759 0.1176853
v 0.01620217 1.324297 0.1285355
v -3.606259E-11 1.324604 0.1338303
v 1.497996E-10 1.317181 0.1263843
v 0.01490419 1.317193 0.1225666
v 0.01713316 1.306669 0.1193335
v 4.071891E-09 1.290834 0.1147795
v 2.232958E-09 1.306119 0.1230917
v -0.01713316 1.306669 0.1193335
v -0.01490419 1.317193 0.1225666
vt 0.1964111 0.364502
vt 0.2143555 0.3657227
vt 0.1990967 0.3520508
vt 0.1865234 0.3620605
vt 0.2178955 0.3508301
vt 0.2022705 0.340332
vt 0.2225342 0.3310547
vt 0.2354736 0.3503418
vt 0.2359619 0.3571777
vt 0.25 0.3498535
vt 0.25 0.3586426
vt 0.263916 0.3571777
vt 0.2374268 0.3356934
vt 0.192627 0.340332
vt 0.1748047 0.3552246
vt 0.2644043 0.3503418
vt 0.2856445 0.3657227
vt 0.206543 0.329834
vt 0.1781006 0.3369141
vt 0.1627197 0.345459
vt 0.1633301 0.3310547
vt 0.1958008 0.3283691
vt 0.1801758 0.3234863
vt 0.2030029 0.317627
vt 0.1661377 0.3181152
vt 0.1525879 0.328125
vt 0.1501465 0.3134766
vt 0.1699219 0.2998047
vt 0.1818848 0.3122559
vt 0.1833496 0.2939453
vt 0.210083 0.3022461
vt 0.2050781 0.2836914
vt 0.2160645 0.3117676
vt 0.2346191 0.2827148
vt 0.2327881 0.2722168
vt 0.25 0.2719727
vt 0.2381592 0.2932129
vt 0.2205811 0.3217773
vt 0.2369385 0.310791
vt 0.25 0.2824707
vt 0.25 0.291748
vt 0.2653809 0.2827148
vt 0.2670898 0.2722168
vt 0.2949219 0.2836914
vt 0.2619629 0.2932129
vt 0.2897949 0.3022461
vt 0.3166504 0.2939453
vt 0.3181152 0.3122559
vt 0.3300781 0.2998047
vt 0.3339844 0.3181152
vt 0.3498535 0.3134766
vt 0.3474121 0.328125
vt 0.3366699 0.3310547
vt 0.3198242 0.3234863
vt 0.296875 0.317627
vt 0.2839355 0.3117676
vt 0.2629395 0.310791
vt 0.3220215 0.3369141
vt 0.3371582 0.345459
vt 0.3251953 0.3552246
vt 0.3041992 0.3283691
vt 0.307373 0.340332
vt 0.3134766 0.3620605
vt 0.293457 0.329834
vt 0.2976074 0.340332
vt 0.2773438 0.3310547
vt 0.279541 0.3217773
vt 0.3007812 0.3520508
vt 0.3034668 0.364502
vt 0.2822266 0.3508301
vt 0.2626953 0.3356934
vt 0.25 0.3359375
vt 0.25 0.3303223
vt 0.2614746 0.3303223
vt 0.2631836 0.3220215
vt 0.25 0.3098145
vt 0.25 0.3215332
vt 0.2366943 0.3220215
vt 0.2384033 0.3303223
vn -0.4251933 -0.1661575 0.8897203
vn -0.4165266 -0.1462393 0.8972846
vn -0.4576735 -0.2135117 0.8631036
vn -0.6567023 -0.2485999 0.7119972
vn -0.4417038 -0.2301851 0.867129
vn -0.4124189 -0.3363839 0.8466148
vn -0.4374266 -0.290434 0.8510617
vn -0.5305801 -0.3101142 0.7888688
vn -0.5612404 -0.5446168 0.6232188
vn -0 -0.4378721 0.8990372
vn -0 -0.6931612 0.7207826
vn 0.5612412 -0.5446177 0.6232173
vn -0.4713318 -0.3389634 0.8142175
vn -0.6992244 -0.3595185 0.6179253
vn -0.8176804 -0.3561326 0.4522922
vn 0.5305806 -0.3101147 0.7888682
vn 0.4165272 -0.1462397 0.8972842
vn -0.4060593 -0.3840966 0.8292078
vn -0.8136106 -0.5364141 0.2242716
vn -0.8517153 -0.4956928 0.1699108
vn -0.7394716 -0.6685745 0.07867727
vn -0.6791301 -0.5927498 0.4329318
vn -0.6844537 -0.717371 0.1300073
vn -0.642984 -0.6827549 0.3470122
vn -0.6524236 -0.7574301 0.02535431
vn -0.6736611 -0.7381471 -0.03632709
vn -0.6608006 -0.7489326 -0.04942361
vn -0.6461401 -0.7631066 -0.01308489
vn -0.60864 -0.7881199 0.09178539
vn -0.6041051 -0.7935693 0.07283317
vn -0.5600483 -0.8090186 0.1784234
vn -0.5557093 -0.8276731 0.0783871
vn -0.524825 -0.5596027 0.6414073
vn -0.3255367 -0.93516 0.1396479
vn -0.232397 -0.9703509 -0.06641281
vn -0 -0.9965979 -0.08241614
vn -0.3756498 -0.6958265 0.6121376
vn -0.4472406 -0.2938488 0.8447655
vn -0.3362046 -0.3865989 0.8587828
vn -0 -0.9907238 0.1358909
vn -2.527172E-07 -0.7607613 0.6490318
vn 0.3255367 -0.9351602 0.1396465
vn 0.2323969 -0.9703507 -0.06641684
vn 0.5557092 -0.8276731 0.07838801
vn 0.3756498 -0.6958259 0.6121386
vn 0.560048 -0.8090181 0.1784266
vn 0.6041051 -0.7935695 0.07283269
vn 0.6086398 -0.7881199 0.09178535
vn 0.64614 -0.7631068 -0.01308677
vn 0.6524237 -0.7574301 0.02535348
vn 0.6608005 -0.7489324 -0.04942651
vn 0.6736612 -0.738147 -0.03632745
vn 0.7394716 -0.6685745 0.07867714
vn 0.6844538 -0.717371 0.130007
vn 0.6429838 -0.6827548 0.3470127
vn 0.5248241 -0.5596015 0.6414093
vn 0.3362048 -0.3865989 0.8587826
vn 0.8136106 -0.5364141 0.2242716
vn 0.8517156 -0.4956929 0.169909
vn 0.8176804 -0.3561324 0.4522926
vn 0.6791304 -0.5927499 0.4329313
vn 0.6992244 -0.3595187 0.6179252
vn 0.6567025 -0.2485998 0.7119972
vn 0.40606 -0.3840974 0.8292071
vn 0.4124201 -0.336385 0.8466136
vn 0.4374271 -0.2904345 0.8510613
vn 0.4472412 -0.2938495 0.8447649
vn 0.4576753 -0.2135128 0.8631023
vn 0.4251947 -0.1661582 0.8897195
vn 0.4417042 -0.2301855 0.8671286
vn 0.4713318 -0.3389635 0.8142174
vn 1.699838E-07 -0.3943852 0.9189452
vn -0 -0.4934322 0.8697844
vn 0.3276214 -0.440801 0.8356786
vn 0.3571435 -0.3202617 0.8774286
vn -0 -0.4413411 0.8973394
vn -0 -0.3896248 0.9209737
vn -0.3571423 -0.3202608 0.8774294
vn -0.3276221 -0.4408021 0.8356778
g facial_mouth_geo_0
f 3/3/3 2/2/2 1/1/1
f 1/1/1 4/4/4 3/3/3
f 2/2/2 3/3/3 5/5/5
f 3/3/3 4/4/4 6/6/6
f 3/3/3 6/6/6 5/5/5
f 7/7/7 5/5/5 6/6/6
f 5/5/5 8/8/8 2/2/2
f 9/9/9 2/2/2 8/8/8
f 10/10/10 9/9/9 8/8/8
f 11/11/11 9/9/9 10/10/10
f 12/12/12 11/11/11 10/10/10
f 13/13/13 8/8/8 5/5/5
f 7/7/7 13/13/13 5/5/5
f 8/8/8 13/13/13 10/10/10
f 14/14/14 6/6/6 4/4/4
f 4/4/4 15/15/15 14/14/14
f 12/12/12 10/10/10 16/16/16
f 17/17/17 12/12/12 16/16/16
f 18/18/18 7/7/7 6/6/6
f 6/6/6 14/14/14 18/18/18
f 14/14/14 15/15/15 19/19/19
f 19/19/19 15/15/15 20/20/20
f 20/20/20 21/21/21 19/19/19
f 14/14/14 19/19/19 22/22/22
f 22/22/22 18/18/18 14/14/14
f 19/19/19 21/21/21 23/23/23
f 19/19/19 23/23/23 22/22/22
f 18/18/18 22/22/22 24/24/24
f 22/22/22 23/23/23 24/24/24
f 23/23/23 21/21/21 25/25/25
f 26/26/26 25/25/25 21/21/21
f 26/26/26 27/27/27 25/25/25
f 27/27/27 28/28/28 25/25/25
f 25/25/25 29/29/29 23/23/23
f 25/25/25 28/28/28 29/29/29
f 24/24/24 23/23/23 29/29/29
f 28/28/28 30/30/30 29/29/29
f 29/29/29 30/30/30 31/31/31
f 31/31/31 24/24/24 29/29/29
f 30/30/30 32/32/32 31/31/31
f 18/18/18 24/24/24 33/33/33
f 24/24/24 31/31/31 33/33/33
f 34/34/34 31/31/31 32/32/32
f 35/35/35 34/34/34 32/32/32
f 34/34/34 35/35/35 36/36/36
f 31/31/31 34/34/34 37/37/37
f 31/31/31 37/37/37 33/33/33
f 33/33/33 38/38/38 18/18/18
f 7/7/7 18/18/18 38/38/38
f 38/38/38 33/33/33 39/39/39
f 39/39/39 33/33/33 37/37/37
f 38/38/38 39/39/39 7/7/7
f 40/40/40 34/34/34 36/36/36
f 37/37/37 34/34/34 40/40/40
f 41/41/41 39/39/39 37/37/37
f 41/41/41 37/37/37 40/40/40
f 42/42/42 40/40/40 36/36/36
f 43/43/43 42/42/42 36/36/36
f 42/42/42 43/43/43 44/44/44
f 42/42/42 45/45/45 40/40/40
f 45/45/45 41/41/41 40/40/40
f 46/46/46 42/42/42 44/44/44
f 42/42/42 46/46/46 45/45/45
f 44/44/44 47/47/47 46/46/46
f 47/47/47 48/48/48 46/46/46
f 47/47/47 49/49/49 48/48/48
f 49/49/49 50/50/50 48/48/48
f 49/49/49 51/51/51 50/50/50
f 51/51/51 52/52/52 50/50/50
f 50/50/50 52/52/52 53/53/53
f 48/48/48 50/50/50 54/54/54
f 53/53/53 54/54/54 50/50/50
f 55/55/55 46/46/46 48/48/48
f 54/54/54 55/55/55 48/48/48
f 45/45/45 46/46/46 56/56/56
f 46/46/46 55/55/55 56/56/56
f 57/57/57 41/41/41 45/45/45
f 56/56/56 57/57/57 45/45/45
f 53/53/53 58/58/58 54/54/54
f 53/53/53 59/59/59 58/58/58
f 60/60/60 58/58/58 59/59/59
f 54/54/54 61/61/61 55/55/55
f 54/54/54 58/58/58 61/61/61
f 60/60/60 62/62/62 58/58/58
f 58/58/58 62/62/62 61/61/61
f 60/60/60 63/63/63 62/62/62
f 61/61/61 64/64/64 55/55/55
f 56/56/56 55/55/55 64/64/64
f 64/64/64 61/61/61 62/62/62
f 65/65/65 62/62/62 63/63/63
f 62/62/62 65/65/65 64/64/64
f 66/66/66 64/64/64 65/65/65
f 64/64/64 67/67/67 56/56/56
f 56/56/56 67/67/67 57/57/57
f 64/64/64 66/66/66 67/67/67
f 57/57/57 67/67/67 66/66/66
f 63/63/63 68/68/68 65/65/65
f 63/63/63 69/69/69 68/68/68
f 17/17/17 68/68/68 69/69/69
f 65/65/65 68/68/68 70/70/70
f 68/68/68 17/17/17 70/70/70
f 70/70/70 66/66/66 65/65/65
f 16/16/16 70/70/70 17/17/17
f 16/16/16 71/71/71 70/70/70
f 71/71/71 66/66/66 70/70/70
f 71/71/71 16/16/16 10/10/10
f 72/72/72 71/71/71 10/10/10
f 71/71/71 72/72/72 73/73/73
f 13/13/13 72/72/72 10/10/10
f 72/72/72 13/13/13 73/73/73
f 71/71/71 74/74/74 66/66/66
f 74/74/74 71/71/71 73/73/73
f 75/75/75 66/66/66 74/74/74
f 75/75/75 57/57/57 66/66/66
f 75/75/75 74/74/74 73/73/73
f 76/76/76 57/57/57 75/75/75
f 57/57/57 76/76/76 41/41/41
f 76/76/76 39/39/39 41/41/41
f 77/77/77 76/76/76 75/75/75
f 77/77/77 75/75/75 73/73/73
f 39/39/39 76/76/76 78/78/78
f 76/76/76 77/77/77 78/78/78
f 78/78/78 77/77/77 73/73/73
f 39/39/39 78/78/78 7/7/7
f 13/13/13 79/79/79 73/73/73
f 79/79/79 13/13/13 7/7/7
f 79/79/79 78/78/78 73/73/73
f 7/7/7 78/78/78 79/79/79
