g head_geo
v -0.1312896 1.426274 -0.01578415
v -0.1241537 1.411434 0.01577837
v -0.1454423 1.431853 -0.005555362
v -0.1519903 1.425265 -0.02396539
v -0.1204326 1.397683 -0.02797627
v -0.1511728 1.412922 -0.0312508
v -0.1143713 1.379128 -0.02845058
v -0.1517658 1.418091 -0.01777286
v -0.1523609 1.409659 -0.0240645
v -0.1358212 1.372608 -0.0191868
v -0.13958 1.376799 -0.03051862
v -0.1250277 1.349089 -0.01915123
v -0.1008629 1.347731 -0.005790161
v -0.1167677 1.343517 -0.004740959
v -0.1041817 1.351329 0.0194251
v -0.1167677 1.343517 -0.004740959
v -0.1460824 1.423923 -0.003062972
v -0.1241537 1.411434 0.01577837
v -0.1041817 1.351329 0.0194251
v 0.1312896 1.426274 -0.01578415
v 0.1454423 1.431853 -0.005555362
v 0.1241537 1.411434 0.01577837
v 0.1519903 1.425265 -0.02396539
v 0.1204326 1.397683 -0.02797627
v 0.1511728 1.412922 -0.0312508
v 0.1143713 1.379128 -0.02845058
v 0.1517658 1.418091 -0.01777286
v 0.1523609 1.409659 -0.0240645
v 0.1358212 1.372608 -0.0191868
v 0.13958 1.376799 -0.03051862
v 0.1250277 1.349089 -0.01915123
v 0.1008629 1.347731 -0.005790161
v 0.1167677 1.343517 -0.004740959
v 0.1041817 1.351329 0.0194251
v 0.1167677 1.343517 -0.004740959
v 0.1460824 1.423923 -0.003062972
v 0.1241537 1.411434 0.01577837
v 0.1041817 1.351329 0.0194251
v -0.1143713 1.379128 -0.02845058
v -0.1092715 1.377701 -0.04472543
v -0.1204326 1.397683 -0.02797627
v -0.09295825 1.354196 -0.0506359
v -0.07676596 1.333674 -0.03172622
v -0.06374019 1.343714 -0.06342652
v -0.04221074 1.31791 -0.06026489
v -0.1008629 1.347731 -0.005790161
v -0.07252667 1.314147 0.009211112
v -0.05616345 1.309518 -0.03331792
v -0.05397688 1.297968 -0.005164485
v -0.1041817 1.351329 0.0194251
v -0.06855894 1.3076 0.02353529
v -0.03660042 1.286092 0.01955504
v -0.05907558 1.298438 0.03931402
v -0.07650005 1.314359 0.03103888
v -0.05034053 1.291288 0.05030194
v -0.08827701 1.328501 0.03430443
v -0.1030168 1.355484 0.04607956
v -0.08115514 1.318303 0.05124178
v -0.1241537 1.411434 0.01577837
v -0.09240223 1.336745 0.05915349
v -0.1017746 1.36781 0.06875764
v -0.1039132 1.395896 0.06897449
v -0.1150738 1.425202 0.04505521
v -0.1075793 1.436203 0.07327553
v -0.1074294 1.466094 0.07128282
v -0.1222838 1.488292 0.03131918
v -0.1075312 1.498712 0.0668204
v -0.03537489 1.282027 0.06267793
v -0.02282185 1.278813 0.04122435
v -0.01617818 1.275543 0.0748691
v 1.497994E-10 1.275378 0.03908073
v 1.497994E-10 1.272852 0.07864071
v 0.01617818 1.275543 0.0748691
v 0.02282185 1.278813 0.04122435
v 0.0353749 1.282027 0.06267793
v 0.05034053 1.291288 0.05030194
v 0.03660042 1.286092 0.01955504
v 0.05907557 1.298438 0.03931402
v 0.06855894 1.3076 0.02353529
v 0.05397688 1.297968 -0.005164485
v 0.07252667 1.314147 0.009211112
v 0.07650006 1.314359 0.03103888
v 0.05616345 1.309518 -0.03331792
v 0.08827701 1.328501 0.03430443
v 0.08115514 1.318303 0.05124178
v 0.1030168 1.355484 0.04607956
v 0.09240223 1.336745 0.05915349
v 0.1017746 1.36781 0.06875764
v 0.1039132 1.395896 0.06897449
v 0.07676596 1.333674 -0.03172622
v 0.04221074 1.31791 -0.06026489
v 0.06374019 1.343714 -0.06342652
v 0.09295825 1.354196 -0.0506359
v 0.1041817 1.351329 0.0194251
v 0.1008629 1.347731 -0.005790161
v 0.1241537 1.411434 0.01577837
v 0.1143713 1.379128 -0.02845058
v 0.1092715 1.377701 -0.04472543
v 0.1204326 1.397683 -0.02797627
v 0.1150738 1.425202 0.04505521
v 0.1075793 1.436203 0.07327553
v 0.1074294 1.466094 0.07128282
v 0.1222838 1.488292 0.03131918
v 0.1075312 1.498712 0.0668204
v -0.1075312 1.498712 0.0668204
v -0.09462617 1.518927 0.07997255
v -0.09510856 1.50301 0.0849373
v -0.07657039 1.523466 0.09411968
v -0.0772357 1.504846 0.100813
v -0.05675471 1.502749 0.1130181
v -0.05268105 1.524028 0.1092043
v -0.02870098 1.499513 0.1259793
v -0.02650234 1.522113 0.1187499
v 1.497994E-10 1.49769 0.1302981
v 1.497994E-10 1.520905 0.1239744
v 0.02650234 1.522113 0.1187499
v 0.02870098 1.499513 0.1259793
v 0.05268105 1.524028 0.1092043
v 0.05675471 1.502749 0.1130181
v 0.0765704 1.523466 0.09411968
v 0.0772357 1.504846 0.100813
v 0.09510856 1.50301 0.0849373
v 0.09462617 1.518927 0.07997255
v 0.1075312 1.498712 0.0668204
vt 0.109314 0.2000732
vt 0.145752 0.1934814
vt 0.1103516 0.1777344
vt 0.09899902 0.1905518
vt 0.07879639 0.2166748
vt 0.08996582 0.1932373
vt 0.05789185 0.2105713
vt 0.09472656 0.1854248
vt 0.08886719 0.1889648
vt 0.06512451 0.1828613
vt 0.0680542 0.192627
vt 0.04666138 0.1800537
vt 0.02442932 0.1917725
vt 0.03067017 0.1781006
vt 0.004749298 0.1782227
vt 0.04125977 0.1662598
vt 0.1019897 0.1765137
vt 0.09936523 0.1535645
vt 0.05075073 0.1529541
vt 0.3894043 0.2000732
vt 0.3884277 0.1777344
vt 0.3530273 0.1934814
vt 0.3996582 0.1905518
vt 0.4199219 0.2166748
vt 0.4086914 0.1932373
vt 0.440918 0.2105713
vt 0.4040527 0.1854248
vt 0.4099121 0.1889648
vt 0.4335938 0.1828613
vt 0.4306641 0.192627
vt 0.4521484 0.1800537
vt 0.4743652 0.1917725
vt 0.4680176 0.1781006
vt 0.4938965 0.1782227
vt 0.4575195 0.1662598
vt 0.3967285 0.1765137
vt 0.3994141 0.1535645
vt 0.447998 0.1529541
vt 0.1139526 0.3796387
vt 0.09924316 0.3874512
vt 0.1098022 0.4035645
vt 0.08758545 0.3671875
vt 0.09075928 0.3408203
vt 0.05743408 0.3652344
vt 0.04367065 0.3288574
vt 0.1187744 0.3583984
vt 0.1363525 0.3186035
vt 0.08093262 0.2990723
vt 0.124939 0.2763672
vt 0.1335449 0.3588867
vt 0.1501465 0.3134766
vt 0.1824951 0.2573242
vt 0.1699219 0.2998047
vt 0.1525879 0.328125
vt 0.1833496 0.2939453
vt 0.1494141 0.3391113
vt 0.1479492 0.3601074
vt 0.1633301 0.3310547
vt 0.1217041 0.4035645
vt 0.1627197 0.345459
vt 0.1608887 0.3696289
vt 0.1595459 0.3913574
vt 0.1390381 0.4145508
vt 0.1578369 0.4226074
vt 0.154541 0.4458008
vt 0.1244507 0.4614258
vt 0.1523438 0.4711914
vt 0.2050781 0.2836914
vt 0.2103271 0.260498
vt 0.2327881 0.2722168
vt 0.25 0.2529297
vt 0.25 0.2719727
vt 0.2670898 0.2722168
vt 0.2895508 0.260498
vt 0.2949219 0.2836914
vt 0.3166504 0.2939453
vt 0.3173828 0.2573242
vt 0.3300781 0.2998047
vt 0.3498535 0.3134766
vt 0.375 0.2763672
vt 0.3637695 0.3186035
vt 0.3474121 0.328125
vt 0.4189453 0.2990723
vt 0.3505859 0.3391113
vt 0.3366699 0.3310547
vt 0.3520508 0.3601074
vt 0.3371582 0.345459
vt 0.3391113 0.3696289
vt 0.340332 0.3913574
vt 0.4091797 0.3408203
vt 0.4562988 0.3288574
vt 0.442627 0.3652344
vt 0.4123535 0.3671875
vt 0.3664551 0.3588867
vt 0.3811035 0.3583984
vt 0.3781738 0.4035645
vt 0.3859863 0.3796387
vt 0.4006348 0.3874512
vt 0.3901367 0.4035645
vt 0.3608398 0.4145508
vt 0.3422852 0.4226074
vt 0.345459 0.4458008
vt 0.3754883 0.4614258
vt 0.3476562 0.4711914
vt 0.1379395 0.001912117
vt 0.1461182 0.009315491
vt 0.1470947 0.001912117
vt 0.1563721 0.01210022
vt 0.1586914 0.001912117
vt 0.1722412 0.001912117
vt 0.171875 0.01470184
vt 0.1905518 0.001912117
vt 0.1888428 0.01608276
vt 0.2078857 0.001912117
vt 0.2078857 0.01774597
vt 0.2269287 0.01608276
vt 0.2252197 0.001912117
vt 0.2438965 0.01470184
vt 0.2435303 0.001912117
vt 0.2592773 0.01210022
vt 0.2570801 0.001912117
vt 0.2685547 0.001912117
vt 0.2697754 0.009315491
vt 0.277832 0.001912117
vn 0.4161741 0.7893773 -0.4513121
vn -0.8864166 -0.1946909 0.4199536
vn -0.07890063 0.9576872 0.2767851
vn -0.2173266 0.6885527 -0.6918558
vn 0.08275365 0.07643754 -0.9936343
vn -0.3385184 0.08950204 -0.9366935
vn -0.3258223 -0.408453 -0.8526466
vn -0.9005989 -0.2016079 0.3850662
vn -0.9454079 -0.2978114 0.1323338
vn -0.8783145 -0.3432823 0.3327475
vn -0.3181364 -0.2268622 -0.9205014
vn -0.06680652 -0.6531604 -0.7542667
vn -0.6242207 -0.7267619 -0.2866454
vn -0.7358112 -0.5061073 0.4499304
vn -0.8810529 -0.4094328 0.236877
vn -0.7358112 -0.5061073 0.4499304
vn -0.8178519 -0.1741787 0.5484342
vn -0.8864166 -0.1946909 0.4199536
vn -0.8810529 -0.4094328 0.236877
vn -0.4161736 0.789377 -0.4513131
vn 0.0789014 0.9576874 0.2767839
vn 0.886417 -0.194691 0.4199527
vn 0.2173271 0.6885516 -0.6918566
vn -0.1334237 0.09298938 -0.9866869
vn 0.3385185 0.08950189 -0.9366935
vn 0.3258218 -0.4084524 -0.8526469
vn 0.900598 -0.2016076 0.3850682
vn 0.9454075 -0.2978114 0.1323372
vn 0.8783135 -0.343282 0.3327503
vn 0.3181364 -0.2268624 -0.9205014
vn 0.06680658 -0.6531604 -0.7542667
vn 0.6242207 -0.7267617 -0.286646
vn 0.7358117 -0.506107 0.4499299
vn 0.8810529 -0.4094328 0.2368768
vn 0.7358117 -0.506107 0.4499299
vn 0.8178517 -0.1741783 0.5484345
vn 0.886417 -0.194691 0.4199527
vn 0.8810529 -0.4094328 0.2368768
vn -0.3258223 -0.408453 -0.8526466
vn -0.8507981 -0.4749193 -0.2249319
vn 0.08275365 0.07643754 -0.9936343
vn -0.7003131 -0.6930674 -0.170936
vn -0.6873184 -0.6392439 -0.3449066
vn -0.6219596 -0.6212879 -0.4766212
vn -0.6612816 -0.5728902 -0.4842557
vn -0.6242207 -0.7267619 -0.2866454
vn -0.7390317 -0.6566808 -0.1503409
vn -0.6988555 -0.6002529 -0.3889696
vn -0.6630878 -0.739228 -0.1177136
vn -0.8810529 -0.4094328 0.236877
vn -0.6138158 -0.7853507 -0.08033948
vn -0.4864353 -0.8712055 -0.06619439
vn -0.5069794 -0.8574064 -0.08846618
vn -0.7677217 -0.6313387 -0.1096129
vn -0.4682784 -0.8805887 -0.07265519
vn -0.7999063 -0.5996625 -0.02355005
vn -0.9389105 -0.2652803 0.219256
vn -0.8395915 -0.5431477 0.00875559
vn -0.8864166 -0.1946909 0.4199536
vn -0.8867326 -0.4578811 0.06363979
vn -0.9779612 -0.1562481 0.1384862
vn -0.95774 -0.1468708 0.2473119
vn -0.9506885 -0.1508528 0.2709885
vn -0.9617745 -0.03980369 0.2709345
vn -0.9433425 -0.009619603 0.331681
vn -0.9388432 -0.008509721 0.3442397
vn -0.9272863 0.04789905 0.371276
vn -0.3683336 -0.9265213 -0.07673673
vn -0.2816764 -0.9545382 -0.09754597
vn -0.1737596 -0.982964 -0.05991191
vn -0 -0.9963661 -0.08517265
vn -0 -0.9978835 -0.06502671
vn 0.1737596 -0.982964 -0.05991153
vn 0.2816764 -0.9545382 -0.09754575
vn 0.3683336 -0.9265215 -0.07673535
vn 0.4682784 -0.8805887 -0.0726552
vn 0.4864353 -0.8712055 -0.06619439
vn 0.5069794 -0.8574064 -0.08846618
vn 0.6138157 -0.7853507 -0.08034066
vn 0.6630878 -0.739228 -0.1177139
vn 0.7390316 -0.6566808 -0.1503416
vn 0.7677217 -0.6313384 -0.1096135
vn 0.6988555 -0.600253 -0.3889696
vn 0.7999063 -0.5996627 -0.02355115
vn 0.8395916 -0.5431476 0.008751989
vn 0.9389107 -0.2652803 0.2192557
vn 0.8867328 -0.4578809 0.06363921
vn 0.9779613 -0.156248 0.1384859
vn 0.95774 -0.1468708 0.2473119
vn 0.6873183 -0.6392437 -0.3449074
vn 0.6612815 -0.5728903 -0.4842557
vn 0.6219594 -0.6212877 -0.4766217
vn 0.7003129 -0.6930671 -0.1709384
vn 0.8810529 -0.4094328 0.2368768
vn 0.6242207 -0.7267617 -0.286646
vn 0.886417 -0.194691 0.4199527
vn 0.3258218 -0.4084524 -0.8526469
vn 0.850798 -0.4749193 -0.2249318
vn 0.9192444 -0.2935864 -0.2622912
vn 0.9506886 -0.1508528 0.2709884
vn 0.9617745 -0.03980369 0.2709345
vn 0.9433425 -0.009619564 0.331681
vn 0.9388432 -0.008509667 0.3442399
vn 0.9272861 0.04789919 0.3712763
vn -0.8302238 0.1887609 0.5244975
vn -0.688041 0.2495876 0.6813997
vn -0.7035361 0.2441326 0.66741
vn -0.5683074 0.2711337 0.7768611
vn -0.5570031 0.2720095 0.7847028
vn -0.4140996 0.2763947 0.8672528
vn -0.4114344 0.2763764 0.8685263
vn -0.2432938 0.282914 0.9277757
vn -0.2513347 0.2824353 0.925776
vn -0 0.2902569 0.9569488
vn -0 0.2902569 0.9569488
vn 0.2513343 0.2824349 0.9257762
vn 0.2432936 0.2829136 0.9277759
vn 0.4114345 0.2763763 0.8685263
vn 0.4140998 0.2763946 0.8672528
vn 0.5683064 0.2711333 0.7768621
vn 0.5570023 0.2720092 0.7847033
vn 0.7035339 0.2441319 0.6674126
vn 0.6880385 0.2495867 0.6814027
vn 0.8302238 0.1887614 0.5244973
g head_geo_0
f 3/3/3 2/2/2 1/1/1
f 1/1/1 4/4/4 3/3/3
f 5/5/5 4/4/4 1/1/1
f 6/6/6 4/4/4 5/5/5
f 6/6/6 5/5/5 7/7/7
f 4/4/4 8/8/8 3/3/3
f 6/6/6 9/9/9 4/4/4
f 9/9/9 8/8/8 4/4/4
f 10/10/10 9/9/9 6/6/6
f 8/8/8 9/9/9 10/10/10
f 11/11/11 6/6/6 7/7/7
f 11/11/11 10/10/10 6/6/6
f 12/12/12 11/11/11 7/7/7
f 10/10/10 11/11/11 12/12/12
f 12/12/12 7/7/7 13/13/13
f 14/14/14 12/12/12 13/13/13
f 13/13/13 15/15/15 14/14/14
f 16/16/16 10/10/10 12/12/12
f 10/10/10 16/16/16 8/8/8
f 8/8/8 17/17/17 3/3/3
f 17/17/17 8/8/8 16/16/16
f 17/17/17 18/18/18 3/3/3
f 19/19/19 17/17/17 16/16/16
f 19/19/19 18/18/18 17/17/17
f 22/22/22 21/21/21 20/20/20
f 23/23/23 20/20/20 21/21/21
f 23/23/23 24/24/24 20/20/20
f 23/23/23 25/25/25 24/24/24
f 24/24/24 25/25/25 26/26/26
f 27/27/27 23/23/23 21/21/21
f 28/28/28 25/25/25 23/23/23
f 27/27/27 28/28/28 23/23/23
f 28/28/28 29/29/29 25/25/25
f 28/28/28 27/27/27 29/29/29
f 25/25/25 30/30/30 26/26/26
f 29/29/29 30/30/30 25/25/25
f 30/30/30 31/31/31 26/26/26
f 30/30/30 29/29/29 31/31/31
f 26/26/26 31/31/31 32/32/32
f 31/31/31 33/33/33 32/32/32
f 34/34/34 32/32/32 33/33/33
f 29/29/29 35/35/35 31/31/31
f 35/35/35 29/29/29 27/27/27
f 36/36/36 27/27/27 21/21/21
f 27/27/27 36/36/36 35/35/35
f 37/37/37 36/36/36 21/21/21
f 36/36/36 38/38/38 35/35/35
f 37/37/37 38/38/38 36/36/36
f 41/41/41 40/40/40 39/39/39
f 39/39/39 40/40/40 42/42/42
f 43/43/43 39/39/39 42/42/42
f 43/43/43 42/42/42 44/44/44
f 44/44/44 45/45/45 43/43/43
f 46/46/46 39/39/39 43/43/43
f 46/46/46 43/43/43 47/47/47
f 45/45/45 48/48/48 43/43/43
f 43/43/43 48/48/48 47/47/47
f 48/48/48 49/49/49 47/47/47
f 50/50/50 46/46/46 47/47/47
f 49/49/49 51/51/51 47/47/47
f 52/52/52 51/51/51 49/49/49
f 53/53/53 51/51/51 52/52/52
f 51/51/51 54/54/54 47/47/47
f 55/55/55 53/53/53 52/52/52
f 54/54/54 56/56/56 47/47/47
f 56/56/56 50/50/50 47/47/47
f 50/50/50 56/56/56 57/57/57
f 54/54/54 58/58/58 56/56/56
f 56/56/56 58/58/58 57/57/57
f 59/59/59 50/50/50 57/57/57
f 60/60/60 57/57/57 58/58/58
f 60/60/60 61/61/61 57/57/57
f 61/61/61 62/62/62 57/57/57
f 63/63/63 59/59/59 57/57/57
f 57/57/57 62/62/62 63/63/63
f 62/62/62 64/64/64 63/63/63
f 64/64/64 65/65/65 63/63/63
f 65/65/65 66/66/66 63/63/63
f 67/67/67 66/66/66 65/65/65
f 69/69/69 68/68/68 55/55/55
f 69/69/69 55/55/55 52/52/52
f 70/70/70 68/68/68 69/69/69
f 71/71/71 69/69/69 52/52/52
f 70/70/70 69/69/69 71/71/71
f 72/72/72 70/70/70 71/71/71
f 73/73/73 72/72/72 71/71/71
f 74/74/74 73/73/73 71/71/71
f 75/75/75 73/73/73 74/74/74
f 75/75/75 74/74/74 76/76/76
f 74/74/74 71/71/71 77/77/77
f 76/76/76 74/74/74 77/77/77
f 78/78/78 76/76/76 77/77/77
f 79/79/79 78/78/78 77/77/77
f 79/79/79 77/77/77 80/80/80
f 79/79/79 80/80/80 81/81/81
f 82/82/82 79/79/79 81/81/81
f 80/80/80 83/83/83 81/81/81
f 84/84/84 82/82/82 81/81/81
f 85/85/85 82/82/82 84/84/84
f 85/85/85 84/84/84 86/86/86
f 86/86/86 87/87/87 85/85/85
f 88/88/88 87/87/87 86/86/86
f 89/89/89 88/88/88 86/86/86
f 83/83/83 90/90/90 81/81/81
f 83/83/83 91/91/91 90/90/90
f 91/91/91 92/92/92 90/90/90
f 93/93/93 90/90/90 92/92/92
f 94/94/94 84/84/84 81/81/81
f 84/84/84 94/94/94 86/86/86
f 95/95/95 94/94/94 81/81/81
f 90/90/90 95/95/95 81/81/81
f 94/94/94 96/96/96 86/86/86
f 97/97/97 95/95/95 90/90/90
f 97/97/97 90/90/90 93/93/93
f 98/98/98 97/97/97 93/93/93
f 98/98/98 99/99/99 97/97/97
f 96/96/96 100/100/100 86/86/86
f 89/89/89 86/86/86 100/100/100
f 101/101/101 89/89/89 100/100/100
f 102/102/102 101/101/101 100/100/100
f 103/103/103 102/102/102 100/100/100
f 103/103/103 104/104/104 102/102/102
f 107/107/107 106/106/106 105/105/105
f 108/108/108 106/106/106 107/107/107
f 109/109/109 108/108/108 107/107/107
f 108/108/108 109/109/109 110/110/110
f 111/111/111 108/108/108 110/110/110
f 110/110/110 112/112/112 111/111/111
f 112/112/112 113/113/113 111/111/111
f 112/112/112 114/114/114 113/113/113
f 114/114/114 115/115/115 113/113/113
f 115/115/115 114/114/114 116/116/116
f 114/114/114 117/117/117 116/116/116
f 116/116/116 117/117/117 118/118/118
f 117/117/117 119/119/119 118/118/118
f 120/120/120 118/118/118 119/119/119
f 121/121/121 120/120/120 119/119/119
f 120/120/120 121/121/121 122/122/122
f 123/123/123 120/120/120 122/122/122
f 123/123/123 122/122/122 124/124/124
