g facial_eye_geo
v -0.091204 1.400477 0.077767
v -0.081069 1.38311 0.09811
v -0.086925 1.381571 0.071463
v -0.082839 1.401682 0.099257
v -0.095165 1.421829 0.081737
v -0.070958 1.382931 0.108956
v -0.08532999 1.41913 0.09751199
v -0.098799 1.448778 0.08329
v -0.073569 1.401947 0.107473
v -0.054527 1.382338 0.118987
v -0.07599699 1.418568 0.104462
v -0.092705 1.448719 0.100848
v -0.062697 1.4178 0.110484
v -0.059758 1.402564 0.115905
v -0.040832 1.404103 0.124805
v -0.037786 1.381931 0.127989
v -0.019103 1.385926 0.142476
v -0.039583 1.419689 0.117405
v -0.020623 1.405689 0.13459
v -0 1.390698 0.154538
v -0.020165 1.424891 0.124116
v -0 1.407625 0.141607
v 0.020623 1.405689 0.13459
v 0.019103 1.385926 0.142476
v 0.037786 1.381931 0.127989
v -0 1.425181 0.135045
v 0.040832 1.404103 0.124805
v 0.054527 1.382338 0.118987
v -0.069337 1.461205 0.113725
v -0.075045 1.473304 0.123213
v -0.022737 1.441733 0.123036
v -0 1.442126 0.13694
v 0.020165 1.424891 0.124116
v -0.040163 1.449125 0.122354
v -0.040307 1.456464 0.125792
v 0.022737 1.441733 0.123036
v 0.039583 1.419689 0.117405
v -0.020904 1.449923 0.131476
v -0.04983 1.468124 0.132339
v -0.023479 1.459766 0.13859
v 0.059758 1.402564 0.115905
v -0.050567 1.492417 0.136271
v -0.078901 1.495394 0.12255
v -0.096241 1.49283 0.10108
v -0.095943 1.473394 0.102949
v -0.101438 1.4629 0.081726
v -0.02408 1.486707 0.141834
v -0 1.461069 0.141194
v -0 1.483322 0.143677
v 0.02408 1.486707 0.141834
v 0.023479 1.459766 0.13859
v 0.020904 1.449923 0.131476
v 0.04983 1.468124 0.132339
v 0.050567 1.492417 0.136271
v 0.078901 1.495394 0.12255
v 0.040307 1.456464 0.125792
v 0.075045 1.473304 0.123213
v 0.096241 1.49283 0.10108
v 0.095943 1.473394 0.102949
v 0.040163 1.449125 0.122354
v 0.069337 1.461205 0.113725
v 0.062697 1.4178 0.110484
v 0.092705 1.448719 0.100848
v 0.07599699 1.418568 0.104462
v 0.098799 1.448778 0.08329
v 0.101438 1.4629 0.081726
v 0.08532999 1.41913 0.09751199
v 0.095165 1.421829 0.081737
v 0.091204 1.400477 0.077767
v 0.073569 1.401947 0.107473
v 0.070958 1.382931 0.108956
v 0.082839 1.401682 0.099257
v 0.081069 1.38311 0.09811
v 0.086925 1.381571 0.071463
vt 0.1514893 0.3662109
vt 0.1740723 0.3525391
vt 0.1520996 0.3466797
vt 0.1700439 0.3693848
vt 0.1494141 0.387207
vt 0.1849365 0.3522949
vt 0.1650391 0.385498
vt 0.1429443 0.4125977
vt 0.1795654 0.3693848
vt 0.1993408 0.3510742
vt 0.1745605 0.3842773
vt 0.1584473 0.4125977
vt 0.1876221 0.3837891
vt 0.1928711 0.369873
vt 0.2103271 0.3710938
vt 0.2143555 0.3508301
vt 0.2316895 0.3566895
vt 0.2086182 0.385498
vt 0.2290039 0.3740234
vt 0.25 0.3630371
vt 0.2277832 0.3908691
vt 0.25 0.3769531
vt 0.2709961 0.3740234
vt 0.2683105 0.3566895
vt 0.2856445 0.3508301
vt 0.25 0.3911133
vt 0.2897949 0.3710938
vt 0.3007812 0.3510742
vt 0.1828613 0.4243164
vt 0.1798096 0.4375
vt 0.2252197 0.4052734
vt 0.25 0.4060059
vt 0.2722168 0.3908691
vt 0.2094727 0.4133301
vt 0.2098389 0.420166
vt 0.2749023 0.4052734
vt 0.2915039 0.385498
vt 0.2285156 0.4125977
vt 0.2034912 0.4350586
vt 0.2280273 0.4267578
vt 0.3071289 0.369873
vt 0.2019043 0.453125
vt 0.178833 0.4562988
vt 0.1577148 0.4536133
vt 0.1582031 0.4355469
vt 0.1402588 0.4257812
vt 0.2268066 0.4477539
vt 0.25 0.4240723
vt 0.25 0.4445801
vt 0.2731934 0.4477539
vt 0.2719727 0.4267578
vt 0.2714844 0.4125977
vt 0.2963867 0.4350586
vt 0.2980957 0.453125
vt 0.3212891 0.4562988
vt 0.2902832 0.420166
vt 0.3198242 0.4375
vt 0.3422852 0.4536133
vt 0.3417969 0.4355469
vt 0.2905273 0.4133301
vt 0.3171387 0.4243164
vt 0.3125 0.3837891
vt 0.3415527 0.4125977
vt 0.3254395 0.3842773
vt 0.3571777 0.4125977
vt 0.3598633 0.4257812
vt 0.3349609 0.385498
vt 0.3505859 0.387207
vt 0.3483887 0.3662109
vt 0.3203125 0.3693848
vt 0.3151855 0.3522949
vt 0.329834 0.3693848
vt 0.3259277 0.3525391
vt 0.3479004 0.3466797
vn -0.9575948 -0.2048624 0.202592
vn -0.8770346 -0.2236089 0.4252168
vn -0.9532923 -0.2526695 0.1655048
vn -0.8294722 -0.1023966 0.5490816
vn -0.9601879 -0.1910434 0.2038174
vn -0.5868893 -0.1195978 0.8007855
vn -0.8130335 -0.1620066 0.5592231
vn -0.9496893 -0.1678661 0.2644069
vn -0.549217 0.04390135 0.8345259
vn -0.4943833 -0.1066964 0.8626708
vn -0.5192834 -0.03279895 0.8539726
vn -0.6968848 -0.2074154 0.6865352
vn -0.3663584 -0.01403216 0.9303681
vn -0.4454035 0.1504012 0.882607
vn -0.4537873 0.2410932 0.8578759
vn -0.5245177 -0.05790195 0.8494284
vn -0.4365999 -0.2518 0.8636998
vn -0.3253919 0.02759931 0.9451763
vn -0.4622032 0.3344024 0.8213058
vn -0 -0.06059772 0.9981623
vn -0.4096957 0.2471974 0.8780906
vn -0 0.452805 0.8916096
vn 0.4622032 0.3344024 0.8213058
vn 0.4365999 -0.2518 0.8636998
vn 0.5245177 -0.05790195 0.8494284
vn -0 0.2819118 0.9594403
vn 0.4537873 0.2410932 0.8578759
vn 0.4943833 -0.1066964 0.8626708
vn -0.3301091 -0.3205914 0.887834
vn -0.5273952 -0.1934982 0.8272924
vn -0.3390123 -0.244209 0.9085332
vn -0 -0.2528045 0.9675174
vn 0.4096957 0.2471974 0.8780906
vn -0.2866116 -0.1744071 0.9420382
vn -0.3892011 -0.5937015 0.7043019
vn 0.3390123 -0.244209 0.9085332
vn 0.3253919 0.02759931 0.9451763
vn -0.3974922 -0.611688 0.6839866
vn -0.3376107 -0.2348074 0.9115287
vn -0.2100953 -0.226095 0.9511787
vn 0.4454035 0.1504012 0.882607
vn -0.333526 -0.00968197 0.9426911
vn -0.6223279 0.04701227 0.7813437
vn -0.7869459 0.08070359 0.6117215
vn -0.7553813 -0.08549787 0.649684
vn -0.9624006 -0.1551356 0.2229751
vn -0.1500055 -0.03233873 0.9881562
vn -0 -0.143703 0.9896208
vn -0 -0.02928897 0.999571
vn 0.1500053 -0.03233873 0.9881562
vn 0.2100953 -0.226095 0.9511787
vn 0.3975194 -0.6117299 0.6839333
vn 0.3376107 -0.2348074 0.9115287
vn 0.3335256 -0.009681998 0.9426914
vn 0.6223274 0.0470122 0.7813441
vn 0.3892011 -0.5937015 0.7043019
vn 0.5273952 -0.1934982 0.8272924
vn 0.7869459 0.08070359 0.6117215
vn 0.7553813 -0.08549787 0.649684
vn 0.2866116 -0.1744071 0.9420382
vn 0.33011 -0.3206097 0.887827
vn 0.3663836 -0.01399938 0.9303586
vn 0.6969118 -0.2074034 0.6865114
vn 0.5192834 -0.03279895 0.8539726
vn 0.9496893 -0.1678661 0.2644069
vn 0.9624006 -0.1551355 0.2229754
vn 0.8130335 -0.1620066 0.5592231
vn 0.9601879 -0.1910434 0.2038174
vn 0.9575948 -0.2048624 0.2025919
vn 0.549217 0.04390135 0.8345259
vn 0.5868893 -0.1195978 0.8007855
vn 0.8294722 -0.1023966 0.5490816
vn 0.8770346 -0.2236089 0.4252168
vn 0.9532923 -0.2526697 0.1655049
g facial_eye_geo_0
f 3/3/3 2/2/2 1/1/1
f 2/2/2 4/4/4 1/1/1
f 5/5/5 1/1/1 4/4/4
f 6/6/6 4/4/4 2/2/2
f 7/7/7 5/5/5 4/4/4
f 8/8/8 5/5/5 7/7/7
f 6/6/6 9/9/9 4/4/4
f 9/9/9 6/6/6 10/10/10
f 7/7/7 4/4/4 11/11/11
f 4/4/4 9/9/9 11/11/11
f 12/12/12 8/8/8 7/7/7
f 11/11/11 12/12/12 7/7/7
f 11/11/11 9/9/9 13/13/13
f 11/11/11 13/13/13 12/12/12
f 14/14/14 9/9/9 10/10/10
f 9/9/9 14/14/14 13/13/13
f 10/10/10 15/15/15 14/14/14
f 10/10/10 16/16/16 15/15/15
f 16/16/16 17/17/17 15/15/15
f 13/13/13 14/14/14 18/18/18
f 14/14/14 15/15/15 18/18/18
f 17/17/17 19/19/19 15/15/15
f 17/17/17 20/20/20 19/19/19
f 15/15/15 19/19/19 21/21/21
f 18/18/18 15/15/15 21/21/21
f 20/20/20 22/22/22 19/19/19
f 21/21/21 19/19/19 22/22/22
f 23/23/23 22/22/22 20/20/20
f 24/24/24 23/23/23 20/20/20
f 23/23/23 24/24/24 25/25/25
f 26/26/26 21/21/21 22/22/22
f 26/26/26 22/22/22 23/23/23
f 27/27/27 23/23/23 25/25/25
f 27/27/27 25/25/25 28/28/28
f 13/13/13 18/18/18 29/29/29
f 12/12/12 13/13/13 29/29/29
f 12/12/12 29/29/29 30/30/30
f 31/31/31 18/18/18 21/21/21
f 31/31/31 21/21/21 26/26/26
f 26/26/26 32/32/32 31/31/31
f 33/33/33 26/26/26 23/23/23
f 23/23/23 27/27/27 33/33/33
f 18/18/18 34/34/34 29/29/29
f 34/34/34 18/18/18 31/31/31
f 29/29/29 34/34/34 35/35/35
f 35/35/35 34/34/34 31/31/31
f 30/30/30 29/29/29 35/35/35
f 26/26/26 33/33/33 36/36/36
f 36/36/36 32/32/32 26/26/26
f 27/27/27 37/37/37 33/33/33
f 33/33/33 37/37/37 36/36/36
f 35/35/35 31/31/31 38/38/38
f 32/32/32 38/38/38 31/31/31
f 39/39/39 35/35/35 38/38/38
f 35/35/35 39/39/39 30/30/30
f 38/38/38 40/40/40 39/39/39
f 40/40/40 38/38/38 32/32/32
f 37/37/37 27/27/27 41/41/41
f 27/27/27 28/28/28 41/41/41
f 30/30/30 39/39/39 42/42/42
f 39/39/39 40/40/40 42/42/42
f 43/43/43 30/30/30 42/42/42
f 30/30/30 43/43/43 44/44/44
f 45/45/45 30/30/30 44/44/44
f 12/12/12 30/30/30 45/45/45
f 45/45/45 8/8/8 12/12/12
f 45/45/45 46/46/46 8/8/8
f 40/40/40 47/47/47 42/42/42
f 47/47/47 40/40/40 48/48/48
f 49/49/49 47/47/47 48/48/48
f 32/32/32 48/48/48 40/40/40
f 49/49/49 48/48/48 50/50/50
f 51/51/51 48/48/48 32/32/32
f 48/48/48 51/51/51 50/50/50
f 32/32/32 52/52/52 51/51/51
f 36/36/36 52/52/52 32/32/32
f 51/51/51 53/53/53 50/50/50
f 53/53/53 51/51/51 52/52/52
f 53/53/53 54/54/54 50/50/50
f 55/55/55 54/54/54 53/53/53
f 36/36/36 56/56/56 52/52/52
f 52/52/52 56/56/56 53/53/53
f 57/57/57 55/55/55 53/53/53
f 57/57/57 53/53/53 56/56/56
f 58/58/58 55/55/55 57/57/57
f 59/59/59 58/58/58 57/57/57
f 36/36/36 60/60/60 56/56/56
f 36/36/36 37/37/37 60/60/60
f 56/56/56 61/61/61 57/57/57
f 60/60/60 61/61/61 56/56/56
f 37/37/37 62/62/62 60/60/60
f 62/62/62 61/61/61 60/60/60
f 62/62/62 37/37/37 41/41/41
f 57/57/57 61/61/61 63/63/63
f 57/57/57 63/63/63 59/59/59
f 62/62/62 63/63/63 61/61/61
f 62/62/62 41/41/41 64/64/64
f 63/63/63 62/62/62 64/64/64
f 65/65/65 59/59/59 63/63/63
f 66/66/66 59/59/59 65/65/65
f 65/65/65 63/63/63 67/67/67
f 63/63/63 64/64/64 67/67/67
f 68/68/68 65/65/65 67/67/67
f 69/69/69 68/68/68 67/67/67
f 41/41/41 70/70/70 64/64/64
f 41/41/41 28/28/28 70/70/70
f 28/28/28 71/71/71 70/70/70
f 72/72/72 67/67/67 64/64/64
f 70/70/70 72/72/72 64/64/64
f 72/72/72 70/70/70 71/71/71
f 72/72/72 69/69/69 67/67/67
f 73/73/73 72/72/72 71/71/71
f 72/72/72 73/73/73 69/69/69
f 73/73/73 74/74/74 69/69/69
