g backface_geo
v 0.009907324 1.182987 0.1373461
v -0 1.191593 0.1387418
v -0 1.183531 0.1375975
v 0.009165955 1.190782 0.138445
v 0.01474972 1.190599 0.1371076
v 0.01540678 1.183888 0.1361573
v 0.01762314 1.202603 0.1378196
v 0.01251757 1.204679 0.1392683
v 0.0247291 1.214338 0.137506
v 0.02076791 1.218264 0.1389044
v 0.03640923 1.222304 0.1356775
v 0.0343663 1.227511 0.1367767
v 0.05062271 1.225021 0.1326406
v 0.05090058 1.230657 0.1332466
v 0.06506305 1.221804 0.1288578
v 0.0676212 1.226883 0.1288631
v 0.07553945 1.213685 0.1254306
v 0.07973675 1.217448 0.1248935
v 0.0817146 1.203189 0.1227323
v 0.0868974 1.205278 0.1217638
v 0.08357767 1.193199 0.1211301
v 0.08900628 1.193672 0.1199063
v 0.08387914 1.185128 0.120157
v 0.08929028 1.184363 0.1187811
v 0.08144833 1.172925 0.1194608
v 0.08633356 1.170386 0.1179851
v 0.07482573 1.162047 0.119916
v 0.0785953 1.157924 0.118521
v 0.0646828 1.148818 0.1208391
v 0.06281932 1.154255 0.1219157
v 0.04852157 1.152259 0.1249371
v 0.04805411 1.14661 0.1243479
v 0.03214183 1.150634 0.1283439
v 0.03472986 1.155851 0.1283849
v 0.02083492 1.159471 0.1319609
v 0.02487869 1.163651 0.1315082
v 0.01288867 1.17089 0.1352002
v 0.01800259 1.173496 0.1343033
v 0.08900628 1.193672 0.1199063
v 0.08929028 1.184363 0.1187811
v 0.1005752 1.185752 0.1135213
v 0.1005738 1.194658 0.113677
v 0.106284 1.191111 0.08337416
v 0.10723 1.2003 0.08438918
v 0.1116535 1.203075 0.01320584
v 0.1126194 1.211979 0.01335187
v 0.115696 1.215679 -0.02896068
v 0.1135637 1.204414 -0.02533891
v -0.009907324 1.182987 0.1373461
v -0 1.183531 0.1375975
v -0 1.191593 0.1387418
v -0.009165955 1.190782 0.138445
v -0.01474972 1.190599 0.1371076
v -0.01540678 1.183888 0.1361573
v -0.01762314 1.202603 0.1378196
v -0.01251757 1.204679 0.1392683
v -0.0247291 1.214338 0.137506
v -0.02076791 1.218264 0.1389044
v -0.03640923 1.222304 0.1356775
v -0.0343663 1.227511 0.1367767
v -0.05062271 1.225021 0.1326406
v -0.05090058 1.230657 0.1332466
v -0.06506305 1.221804 0.1288578
v -0.0676212 1.226883 0.1288631
v -0.07553945 1.213685 0.1254306
v -0.07973675 1.217448 0.1248935
v -0.0817146 1.203189 0.1227323
v -0.0868974 1.205278 0.1217638
v -0.08357767 1.193199 0.1211301
v -0.08900628 1.193672 0.1199063
v -0.08387914 1.185128 0.120157
v -0.08929028 1.184363 0.1187811
v -0.08144833 1.172925 0.1194608
v -0.08633356 1.170386 0.1179851
v -0.07482573 1.162047 0.119916
v -0.0785953 1.157924 0.118521
v -0.0646828 1.148818 0.1208391
v -0.06281932 1.154255 0.1219157
v -0.04852157 1.152259 0.1249371
v -0.04805411 1.14661 0.1243479
v -0.03214183 1.150634 0.1283439
v -0.03472986 1.155851 0.1283849
v -0.02083492 1.159471 0.1319609
v -0.02487869 1.163651 0.1315082
v -0.01288867 1.17089 0.1352002
v -0.01800259 1.173496 0.1343033
v -0.08900628 1.193672 0.1199063
v -0.1005752 1.185752 0.1135213
v -0.08929028 1.184363 0.1187811
v -0.1005738 1.194658 0.113677
v -0.106284 1.191111 0.08337416
v -0.10723 1.2003 0.08438918
v -0.1116535 1.203075 0.01320584
v -0.1126194 1.211979 0.01335187
v -0.115696 1.215679 -0.02896068
v -0.1135637 1.204414 -0.02533891
vt 0.3369141 0.5834961
vt 0.3410645 0.5898438
vt 0.3369141 0.5898438
vt 0.3410645 0.5839844
vt 0.3410645 0.5805664
vt 0.3369141 0.5805664
vt 0.3474121 0.5791016
vt 0.3486328 0.5820312
vt 0.3537598 0.5751953
vt 0.3562012 0.5771484
vt 0.3581543 0.5683594
vt 0.361084 0.5698242
vt 0.359375 0.5605469
vt 0.3625488 0.5605469
vt 0.3574219 0.5522461
vt 0.3601074 0.5507812
vt 0.3525391 0.5463867
vt 0.3547363 0.5439453
vt 0.3466797 0.5429688
vt 0.3476562 0.5400391
vt 0.3410645 0.5419922
vt 0.3410645 0.5385742
vt 0.3369141 0.5419922
vt 0.3369141 0.5385742
vt 0.3303223 0.5429688
vt 0.3288574 0.5400391
vt 0.3242188 0.546875
vt 0.3217773 0.5444336
vt 0.3168945 0.5527344
vt 0.3200684 0.5537109
vt 0.3190918 0.5615234
vt 0.315918 0.5620117
vt 0.3183594 0.5708008
vt 0.3212891 0.5693359
vt 0.3234863 0.5771484
vt 0.3256836 0.5751953
vt 0.329834 0.5820312
vt 0.3312988 0.5791016
vt 0.3410645 0.5385742
vt 0.3369141 0.5385742
vt 0.3369141 0.5317383
vt 0.3410645 0.5317383
vt 0.3369141 0.5151367
vt 0.3410645 0.5151367
vt 0.3369141 0.4758301
vt 0.3410645 0.4755859
vt 0.3410645 0.4521484
vt 0.3369141 0.4521484
vt 0.3369141 0.5834961
vt 0.3369141 0.5898438
vt 0.3410645 0.5898438
vt 0.3410645 0.5839844
vt 0.3410645 0.5805664
vt 0.3369141 0.5805664
vt 0.3474121 0.5791016
vt 0.3486328 0.5820312
vt 0.3537598 0.5751953
vt 0.3562012 0.5771484
vt 0.3581543 0.5683594
vt 0.361084 0.5698242
vt 0.359375 0.5605469
vt 0.3625488 0.5605469
vt 0.3574219 0.5522461
vt 0.3601074 0.5507812
vt 0.3525391 0.5463867
vt 0.3547363 0.5439453
vt 0.3466797 0.5429688
vt 0.3476562 0.5400391
vt 0.3410645 0.5419922
vt 0.3410645 0.5385742
vt 0.3369141 0.5419922
vt 0.3369141 0.5385742
vt 0.3303223 0.5429688
vt 0.3288574 0.5400391
vt 0.3242188 0.546875
vt 0.3217773 0.5444336
vt 0.3168945 0.5527344
vt 0.3200684 0.5537109
vt 0.3190918 0.5615234
vt 0.315918 0.5620117
vt 0.3183594 0.5708008
vt 0.3212891 0.5693359
vt 0.3234863 0.5771484
vt 0.3256836 0.5751953
vt 0.329834 0.5820312
vt 0.3312988 0.5791016
vt 0.3410645 0.5385742
vt 0.3369141 0.5317383
vt 0.3369141 0.5385742
vt 0.3410645 0.5317383
vt 0.3369141 0.5151367
vt 0.3410645 0.5151367
vt 0.3369141 0.4758301
vt 0.3410645 0.4755859
vt 0.3410645 0.4521484
vt 0.3369141 0.4521484
vn -0.1448757 0.1254197 -0.9814688
vn -0.01856791 0.1391877 -0.990092
vn -0.01856791 0.1391876 -0.990092
vn -0.1346145 0.1255305 -0.9829146
vn -0.228157 0.1130637 -0.9670373
vn -0.2280026 0.1151012 -0.9668333
vn -0.2286089 0.1125811 -0.9669868
vn -0.228609 0.1125812 -0.9669867
vn -0.2288582 0.1134264 -0.9668291
vn -0.2288582 0.1134284 -0.9668288
vn -0.2286229 0.1143996 -0.96677
vn -0.2286269 0.1143916 -0.96677
vn -0.2279437 0.1151257 -0.9668442
vn -0.227939 0.1151285 -0.966845
vn -0.2272877 0.1153353 -0.9669737
vn -0.2272801 0.1153338 -0.9669757
vn -0.2270307 0.1151908 -0.9670511
vn -0.2270307 0.1151892 -0.9670514
vn -0.2270854 0.1142283 -0.9671527
vn -0.2270859 0.1142211 -0.9671533
vn -0.2279567 0.1114316 -0.9672738
vn -0.2280161 0.1113016 -0.9672748
vn -0.2322316 0.1057457 -0.9668952
vn -0.2324848 0.1054823 -0.9668632
vn -0.2365212 0.1045631 -0.9659836
vn -0.236792 0.1047271 -0.9658995
vn -0.2361524 0.1090434 -0.9655784
vn -0.236043 0.1091797 -0.9655897
vn -0.2271443 0.1148274 -0.9670678
vn -0.2270941 0.1148492 -0.967077
vn -0.2168945 0.1169892 -0.9691595
vn -0.2168881 0.1169879 -0.9691611
vn -0.2164628 0.1146156 -0.9695396
vn -0.2164607 0.1146166 -0.9695399
vn -0.2238401 0.1140634 -0.9679282
vn -0.2239728 0.1141066 -0.9678925
vn -0.2280541 0.1154012 -0.9667854
vn -0.2280551 0.1154008 -0.9667851
vn -0.4530791 0.05546135 -0.8897434
vn -0.4530791 0.05546136 -0.8897434
vn -0.8824912 0.06678277 -0.4655633
vn -0.9094774 0.06656635 -0.41039
vn -0.9904349 0.09438991 -0.1006441
vn -0.99081 0.09624309 -0.09504024
vn -0.9911108 0.1209051 -0.05551012
vn -0.9908655 0.1230498 -0.05517394
vn -0.9883736 0.1428569 -0.05205248
vn -0.9883736 0.1428569 -0.05205248
vn 0.1448758 0.1254201 -0.9814687
vn 0.01856845 0.1391882 -0.9900919
vn 0.01856845 0.1391882 -0.9900919
vn 0.1346153 0.1255311 -0.9829144
vn 0.2281582 0.1130643 -0.9670369
vn 0.2280024 0.1151015 -0.9668333
vn 0.22861 0.1125813 -0.9669865
vn 0.2286101 0.1125814 -0.9669865
vn 0.2288582 0.1134261 -0.9668291
vn 0.2288582 0.1134281 -0.9668288
vn 0.2286224 0.1143994 -0.9667702
vn 0.2286264 0.1143914 -0.9667702
vn 0.2279438 0.1151258 -0.9668442
vn 0.2279391 0.1151286 -0.966845
vn 0.2272868 0.1153351 -0.9669739
vn 0.2272792 0.1153336 -0.9669759
vn 0.2270294 0.1151901 -0.9670516
vn 0.2270293 0.1151886 -0.9670519
vn 0.2270853 0.1142279 -0.9671527
vn 0.2270858 0.1142206 -0.9671534
vn 0.2279569 0.1114317 -0.9672738
vn 0.2280162 0.1113016 -0.9672747
vn 0.2322309 0.1057457 -0.9668953
vn 0.232484 0.1054824 -0.9668633
vn 0.2365214 0.1045634 -0.9659835
vn 0.2367924 0.1047274 -0.9658993
vn 0.2361517 0.1090432 -0.9655786
vn 0.2360422 0.1091795 -0.9655899
vn 0.2271429 0.114827 -0.9670683
vn 0.2270927 0.1148488 -0.9670774
vn 0.2168953 0.1169896 -0.9691593
vn 0.216889 0.1169883 -0.9691609
vn 0.2164628 0.1146158 -0.9695396
vn 0.2164607 0.1146168 -0.9695399
vn 0.2238405 0.1140637 -0.9679281
vn 0.2239733 0.1141069 -0.9678923
vn 0.228055 0.1154018 -0.966785
vn 0.228056 0.1154015 -0.9667849
vn 0.4530796 0.0554616 -0.8897431
vn 0.8824919 0.06678275 -0.465562
vn 0.4530796 0.05546161 -0.8897431
vn 0.9094778 0.06656629 -0.4103888
vn 0.990435 0.09438951 -0.100644
vn 0.9908102 0.09624267 -0.09504014
vn 0.9911108 0.1209047 -0.05550995
vn 0.9908656 0.1230495 -0.05517377
vn 0.9883736 0.1428567 -0.05205225
vn 0.9883736 0.1428566 -0.05205225
g backface_geo_0
f 3/3/3 2/2/2 1/1/1
f 2/2/2 4/4/4 1/1/1
f 4/4/4 5/5/5 1/1/1
f 5/5/5 6/6/6 1/1/1
f 7/7/7 5/5/5 4/4/4
f 8/8/8 7/7/7 4/4/4
f 9/9/9 7/7/7 8/8/8
f 10/10/10 9/9/9 8/8/8
f 11/11/11 9/9/9 10/10/10
f 12/12/12 11/11/11 10/10/10
f 13/13/13 11/11/11 12/12/12
f 14/14/14 13/13/13 12/12/12
f 15/15/15 13/13/13 14/14/14
f 16/16/16 15/15/15 14/14/14
f 17/17/17 15/15/15 16/16/16
f 18/18/18 17/17/17 16/16/16
f 19/19/19 17/17/17 18/18/18
f 20/20/20 19/19/19 18/18/18
f 21/21/21 19/19/19 20/20/20
f 22/22/22 21/21/21 20/20/20
f 23/23/23 21/21/21 22/22/22
f 24/24/24 23/23/23 22/22/22
f 25/25/25 23/23/23 24/24/24
f 26/26/26 25/25/25 24/24/24
f 27/27/27 25/25/25 26/26/26
f 28/28/28 27/27/27 26/26/26
f 27/27/27 28/28/28 29/29/29
f 30/30/30 27/27/27 29/29/29
f 31/31/31 30/30/30 29/29/29
f 32/32/32 31/31/31 29/29/29
f 32/32/32 33/33/33 31/31/31
f 33/33/33 34/34/34 31/31/31
f 34/34/34 33/33/33 35/35/35
f 36/36/36 34/34/34 35/35/35
f 36/36/36 35/35/35 37/37/37
f 38/38/38 36/36/36 37/37/37
f 6/6/6 38/38/38 37/37/37
f 1/1/1 6/6/6 37/37/37
f 41/41/41 40/40/40 39/39/39
f 42/42/42 41/41/41 39/39/39
f 43/43/43 41/41/41 42/42/42
f 44/44/44 43/43/43 42/42/42
f 45/45/45 43/43/43 44/44/44
f 46/46/46 45/45/45 44/44/44
f 46/46/46 47/47/47 45/45/45
f 47/47/47 48/48/48 45/45/45
f 51/51/51 50/50/50 49/49/49
f 52/52/52 51/51/51 49/49/49
f 53/53/53 52/52/52 49/49/49
f 54/54/54 53/53/53 49/49/49
f 53/53/53 55/55/55 52/52/52
f 55/55/55 56/56/56 52/52/52
f 55/55/55 57/57/57 56/56/56
f 57/57/57 58/58/58 56/56/56
f 57/57/57 59/59/59 58/58/58
f 59/59/59 60/60/60 58/58/58
f 59/59/59 61/61/61 60/60/60
f 61/61/61 62/62/62 60/60/60
f 61/61/61 63/63/63 62/62/62
f 63/63/63 64/64/64 62/62/62
f 63/63/63 65/65/65 64/64/64
f 65/65/65 66/66/66 64/64/64
f 65/65/65 67/67/67 66/66/66
f 67/67/67 68/68/68 66/66/66
f 67/67/67 69/69/69 68/68/68
f 69/69/69 70/70/70 68/68/68
f 69/69/69 71/71/71 70/70/70
f 71/71/71 72/72/72 70/70/70
f 71/71/71 73/73/73 72/72/72
f 73/73/73 74/74/74 72/72/72
f 73/73/73 75/75/75 74/74/74
f 75/75/75 76/76/76 74/74/74
f 76/76/76 75/75/75 77/77/77
f 75/75/75 78/78/78 77/77/77
f 78/78/78 79/79/79 77/77/77
f 79/79/79 80/80/80 77/77/77
f 81/81/81 80/80/80 79/79/79
f 82/82/82 81/81/81 79/79/79
f 81/81/81 82/82/82 83/83/83
f 82/82/82 84/84/84 83/83/83
f 83/83/83 84/84/84 85/85/85
f 84/84/84 86/86/86 85/85/85
f 86/86/86 54/54/54 85/85/85
f 54/54/54 49/49/49 85/85/85
f 89/89/89 88/88/88 87/87/87
f 88/88/88 90/90/90 87/87/87
f 88/88/88 91/91/91 90/90/90
f 91/91/91 92/92/92 90/90/90
f 91/91/91 93/93/93 92/92/92
f 93/93/93 94/94/94 92/92/92
f 95/95/95 94/94/94 93/93/93
f 96/96/96 95/95/95 93/93/93
