g emission_geo
v -0.1012958 1.48513 0.1987973
v -0.09168216 1.416338 0.184232
v -0.1107453 1.427363 0.185295
v -0.06435392 1.493298 0.2056019
v -0.0437487 1.413131 0.1893973
v -0.02193392 1.470817 0.2044656
v -0.02495302 1.417305 0.1927271
v -0.01930255 1.492376 0.1706055
v -3.120875E-09 1.561974 0.1932576
v -3.120875E-09 1.49042 0.1714295
v -0.0661874 1.517663 0.1677689
v -0.03933679 1.560778 0.1947046
v 0.1012958 1.48513 0.1987973
v 0.1107453 1.427363 0.185295
v 0.09168216 1.416338 0.184232
v 0.06435392 1.493298 0.2056019
v 0.0437487 1.413131 0.1893973
v 0.02193391 1.470817 0.2044656
v 0.02495302 1.417305 0.1927271
v 0.01930255 1.492376 0.1706055
v -3.120875E-09 1.49042 0.1714295
v -3.120875E-09 1.561974 0.1932576
v 0.06618739 1.517663 0.1677689
v 0.03933679 1.560778 0.1947046
vt 0.3330078 0.4680176
vt 0.3217773 0.4165039
vt 0.3383789 0.423584
vt 0.3017578 0.4770508
vt 0.2807617 0.4177246
vt 0.2648926 0.4631348
vt 0.2648926 0.4223633
vt 0.1914062 0.5361328
vt 0.192627 0.59375
vt 0.1749268 0.5410156
vt 0.237793 0.5361328
vt 0.2259521 0.5810547
vt 0.3330078 0.4680176
vt 0.3383789 0.423584
vt 0.3217773 0.4165039
vt 0.3017578 0.4770508
vt 0.2807617 0.4177246
vt 0.2648926 0.4631348
vt 0.2648926 0.4223633
vt 0.1914062 0.5361328
vt 0.1749268 0.5410156
vt 0.192627 0.59375
vt 0.237793 0.5361328
vt 0.2259521 0.5810547
vn -0.1106049 -0.2206366 0.9690645
vn -0.1147675 -0.2232447 0.9679826
vn -0.1106049 -0.2206367 0.9690645
vn -0.1086925 -0.2203239 0.9693519
vn -0.1081996 -0.220521 0.9693623
vn -0.09943275 -0.2161111 0.9712924
vn -0.09943276 -0.2161111 0.9712924
vn -0.1064685 -0.3463493 0.9320444
vn -0 -0.3591263 0.9332891
vn 2.44318E-07 -0.2917822 0.9564848
vn -0.1155051 -0.3599924 0.9257775
vn -0.1155051 -0.3599924 0.9257775
vn 0.1106057 -0.220637 0.9690643
vn 0.1106057 -0.220637 0.9690643
vn 0.114768 -0.2232449 0.9679825
vn 0.1086926 -0.2203239 0.9693521
vn 0.1081992 -0.2205208 0.9693625
vn 0.09943197 -0.2161106 0.9712927
vn 0.09943198 -0.2161106 0.9712927
vn 0.1064684 -0.3463491 0.9320444
vn 2.44318E-07 -0.2917822 0.9564848
vn -0 -0.3591263 0.9332891
vn 0.115505 -0.3599924 0.9257775
vn 0.115505 -0.3599924 0.9257775
g emission_geo_0
f 3/3/3 2/2/2 1/1/1
f 2/2/2 4/4/4 1/1/1
f 5/5/5 4/4/4 2/2/2
f 6/6/6 4/4/4 5/5/5
f 7/7/7 6/6/6 5/5/5
f 10/10/10 9/9/9 8/8/8
f 8/8/8 9/9/9 11/11/11
f 9/9/9 12/12/12 11/11/11
f 15/15/15 14/14/14 13/13/13
f 16/16/16 15/15/15 13/13/13
f 16/16/16 17/17/17 15/15/15
f 16/16/16 18/18/18 17/17/17
f 18/18/18 19/19/19 17/17/17
f 22/22/22 21/21/21 20/20/20
f 22/22/22 20/20/20 23/23/23
f 24/24/24 22/22/22 23/23/23
