g facial_eye_geo
v -0.09590793 1.469467 0.1127036
v -0.07504524 1.468828 0.1285021
v -0.08986103 1.442047 0.1039201
v -0.06933707 1.438018 0.1148283
v -0.04507039 1.448572 0.1303997
v -0.04982975 1.463365 0.1374675
v -0.02347889 1.458736 0.1437498
v -0.01958926 1.431734 0.1303252
v -2.900748E-10 1.437222 0.141159
v -0.07662271 1.41503 0.108429
v -0.08589441 1.415607 0.1014733
v -0.04195391 1.434137 0.1256217
v -0.06329694 1.413925 0.1143546
v -0.07386353 1.396569 0.1122443
v -0.08307942 1.396736 0.1036761
v -0.07113375 1.384095 0.1121386
v -0.05981303 1.396262 0.120491
v -0.0408214 1.399718 0.1277185
v -0.03958256 1.415481 0.1208523
v -0.05632154 1.385514 0.1213566
v -0.05218736 1.374299 0.1215655
v -0.03755793 1.378006 0.1301338
v -0.01910317 1.380863 0.1447299
v -0.02016475 1.420445 0.1277408
v -0.02062289 1.40089 0.137538
v -3.25441E-09 1.385212 0.156951
v -3.25441E-09 1.420353 0.1386729
v -2.900748E-10 1.437222 0.141159
v 0.01958926 1.431734 0.1303252
v -3.25441E-09 1.402579 0.1446185
v 0.02062289 1.40089 0.137538
v 0.01910318 1.380863 0.1447299
v 0.04082139 1.399718 0.1277185
v 0.03755794 1.378006 0.1301338
v 0.02016476 1.420445 0.1277408
v 0.05632156 1.385514 0.1213566
v 0.05218738 1.374299 0.1215655
v 0.07113375 1.384095 0.1121386
v 0.07386352 1.396569 0.1122443
v 0.08307941 1.396736 0.1036761
v 0.08589442 1.415607 0.1014733
v 0.03958255 1.415481 0.1208523
v 0.05981304 1.396262 0.120491
v 0.06329694 1.413925 0.1143546
v 0.0766227 1.41503 0.108429
v 0.08986104 1.442047 0.1039201
v 0.06933708 1.438018 0.1148283
v 0.04195391 1.434137 0.1256217
v 0.07504524 1.468832 0.1285057
v 0.09590793 1.469467 0.1127036
v 0.0450704 1.448572 0.1303997
v 0.04982974 1.463365 0.1374675
v 0.02347889 1.458736 0.1437498
v -2.900748E-10 1.437222 0.141159
v -0.02347889 1.458736 0.1437498
v -3.25441E-09 1.456006 0.1460708
v -2.900748E-10 1.437222 0.141159
v 0.02347889 1.458736 0.1437498
vt 0.1582031 0.4355469
vt 0.1800537 0.4365234
vt 0.1584473 0.4125977
vt 0.1801758 0.4072266
vt 0.2059326 0.4177246
vt 0.2033691 0.432373
vt 0.2282715 0.4289551
vt 0.2288818 0.4023438
vt 0.25 0.4089355
vt 0.1733398 0.3845215
vt 0.1634521 0.3852539
vt 0.2075195 0.4042969
vt 0.1866455 0.3840332
vt 0.177124 0.3637695
vt 0.1657715 0.362793
vt 0.1795654 0.3537598
vt 0.192627 0.3662109
vt 0.210083 0.371582
vt 0.2086182 0.3869629
vt 0.1955566 0.3566895
vt 0.1977539 0.3466797
vt 0.2128906 0.3513184
vt 0.2316895 0.3566895
vt 0.227417 0.392334
vt 0.2297363 0.3740234
vt 0.25 0.3630371
vt 0.25 0.3928223
vt 0.25 0.4089355
vt 0.2712402 0.4023438
vt 0.25 0.3764648
vt 0.2702637 0.3740234
vt 0.2683105 0.3566895
vt 0.2900391 0.371582
vt 0.2871094 0.3513184
vt 0.2727051 0.392334
vt 0.3044434 0.3566895
vt 0.3022461 0.3466797
vt 0.3205566 0.3537598
vt 0.3227539 0.3637695
vt 0.3342285 0.362793
vt 0.3364258 0.3852539
vt 0.2915039 0.3869629
vt 0.307373 0.3662109
vt 0.3134766 0.3840332
vt 0.3266602 0.3845215
vt 0.3415527 0.4125977
vt 0.3198242 0.4072266
vt 0.2924805 0.4040527
vt 0.3200684 0.4365234
vt 0.3417969 0.4355469
vt 0.2941895 0.4177246
vt 0.2966309 0.432373
vt 0.2717285 0.4289551
vt 0.25 0.4089355
vt 0.2282715 0.4289551
vt 0.25 0.4265137
vt 0.25 0.4089355
vt 0.2717285 0.4289551
vn -0.569782 -0.3619816 0.737779
vn -0.4495842 -0.4198155 0.7884345
vn -0.5217139 -0.3104756 0.7946191
vn -0.4046831 -0.2928762 0.8662882
vn -0.3273988 -0.4372715 0.8376179
vn -0.3441823 -0.4926031 0.7993001
vn -0.3063456 -0.4634837 0.8314657
vn -0.3322218 -0.3518385 0.8751218
vn -0.3285259 -0.4580066 0.8260149
vn -0.5298792 -0.003913283 0.8480642
vn -0.624842 -0.06121959 0.7783474
vn -0.3037747 -0.2511628 0.919042
vn -0.369479 0.0273084 0.9288378
vn -0.5421581 0.03423113 0.8395789
vn -0.6474136 0.005102851 0.7621219
vn -0.5330242 -0.1226562 0.8371623
vn -0.4064966 0.1505711 0.9011597
vn -0.4306162 0.2305259 0.8725981
vn -0.3360689 0.04695734 0.9406661
vn -0.4596938 -0.0799537 0.8844711
vn -0.4822282 -0.1617249 0.8609884
vn -0.5114471 0.0962822 0.8539037
vn -0.49717 0.2733357 0.823474
vn -0.4021061 0.2137705 0.890288
vn -0.4615093 0.3063264 0.8325703
vn 1.208278E-07 0.4467068 0.8946804
vn 3.79855E-07 0.2587196 0.9659524
vn 2.262745E-07 -0.1458001 0.9893141
vn 0.332222 -0.3518382 0.8751219
vn 2.126647E-07 0.4214307 0.9068606
vn 0.4615103 0.3063274 0.8325694
vn 0.4971719 0.2733372 0.8234724
vn 0.4306152 0.2305259 0.8725986
vn 0.5114464 0.09628264 0.853904
vn 0.4021062 0.21377 0.8902881
vn 0.4596965 -0.07995419 0.8844695
vn 0.4822292 -0.1617255 0.8609878
vn 0.5330274 -0.1226567 0.8371601
vn 0.5421591 0.03423116 0.8395783
vn 0.6474118 0.005102649 0.7621233
vn 0.6248417 -0.06121993 0.7783475
vn 0.3360685 0.04695774 0.9406663
vn 0.4064983 0.1505714 0.9011589
vn 0.369479 0.02730869 0.9288378
vn 0.5298796 -0.003913426 0.8480638
vn 0.521722 -0.3104967 0.7946056
vn 0.4046832 -0.2928993 0.8662803
vn 0.3037745 -0.2511629 0.919042
vn 0.4495827 -0.4198326 0.7884263
vn 0.5698148 -0.3619817 0.7377535
vn 0.3273929 -0.4372787 0.8376164
vn 0.3441728 -0.4926054 0.7993028
vn 0.3063471 -0.4634857 0.831464
vn 0.3285259 -0.4580066 0.8260149
vn -0.1240886 -0.2510296 0.9599928
vn -0 -0.2529856 0.9674701
vn -0 -0.2529856 0.9674701
vn 0.1240893 -0.251031 0.9599923
g facial_eye_geo_0
f 3/3/3 2/2/2 1/1/1
f 3/3/3 4/4/4 2/2/2
f 2/2/2 4/4/4 5/5/5
f 5/5/5 6/6/6 2/2/2
f 7/7/7 6/6/6 5/5/5
f 7/7/7 5/5/5 8/8/8
f 8/8/8 9/9/9 7/7/7
f 4/4/4 3/3/3 10/10/10
f 10/10/10 3/3/3 11/11/11
f 4/4/4 12/12/12 5/5/5
f 5/5/5 12/12/12 8/8/8
f 4/4/4 13/13/13 12/12/12
f 10/10/10 13/13/13 4/4/4
f 14/14/14 10/10/10 11/11/11
f 15/15/15 14/14/14 11/11/11
f 16/16/16 14/14/14 15/15/15
f 14/14/14 17/17/17 10/10/10
f 17/17/17 13/13/13 10/10/10
f 17/17/17 18/18/18 13/13/13
f 13/13/13 19/19/19 12/12/12
f 12/12/12 19/19/19 8/8/8
f 18/18/18 19/19/19 13/13/13
f 16/16/16 20/20/20 14/14/14
f 20/20/20 17/17/17 14/14/14
f 20/20/20 18/18/18 17/17/17
f 16/16/16 21/21/21 20/20/20
f 20/20/20 21/21/21 22/22/22
f 20/20/20 22/22/22 18/18/18
f 18/18/18 22/22/22 23/23/23
f 8/8/8 19/19/19 24/24/24
f 19/19/19 18/18/18 24/24/24
f 25/25/25 18/18/18 23/23/23
f 18/18/18 25/25/25 24/24/24
f 23/23/23 26/26/26 25/25/25
f 8/8/8 24/24/24 27/27/27
f 27/27/27 28/28/28 8/8/8
f 29/29/29 28/28/28 27/27/27
f 25/25/25 30/30/30 24/24/24
f 26/26/26 30/30/30 25/25/25
f 30/30/30 27/27/27 24/24/24
f 30/30/30 26/26/26 31/31/31
f 26/26/26 32/32/32 31/31/31
f 33/33/33 31/31/31 32/32/32
f 34/34/34 33/33/33 32/32/32
f 27/27/27 30/30/30 35/35/35
f 30/30/30 31/31/31 35/35/35
f 27/27/27 35/35/35 29/29/29
f 31/31/31 33/33/33 35/35/35
f 33/33/33 34/34/34 36/36/36
f 34/34/34 37/37/37 36/36/36
f 38/38/38 36/36/36 37/37/37
f 38/38/38 39/39/39 36/36/36
f 40/40/40 39/39/39 38/38/38
f 39/39/39 40/40/40 41/41/41
f 35/35/35 42/42/42 29/29/29
f 33/33/33 42/42/42 35/35/35
f 33/33/33 36/36/36 43/43/43
f 39/39/39 43/43/43 36/36/36
f 33/33/33 43/43/43 44/44/44
f 44/44/44 43/43/43 39/39/39
f 42/42/42 33/33/33 44/44/44
f 45/45/45 39/39/39 41/41/41
f 45/45/45 44/44/44 39/39/39
f 46/46/46 45/45/45 41/41/41
f 47/47/47 44/44/44 45/45/45
f 42/42/42 44/44/44 47/47/47
f 45/45/45 46/46/46 47/47/47
f 29/29/29 42/42/42 48/48/48
f 48/48/48 42/42/42 47/47/47
f 49/49/49 47/47/47 46/46/46
f 49/49/49 46/46/46 50/50/50
f 48/48/48 47/47/47 51/51/51
f 51/51/51 47/47/47 49/49/49
f 29/29/29 48/48/48 51/51/51
f 49/49/49 52/52/52 51/51/51
f 51/51/51 52/52/52 53/53/53
f 29/29/29 51/51/51 53/53/53
f 53/53/53 54/54/54 29/29/29
f 57/57/57 56/56/56 55/55/55
f 58/58/58 56/56/56 57/57/57
