g bf_geo
v -0.1116891 0.9487412 0.05728931
v -0.1026507 0.9766989 0.05527781
v -0.09255522 0.936681 0.08032889
v 0.09527245 0.9240629 0.08363731
v 0.102321 0.9767683 0.05564766
v 0.111568 0.9487482 0.05741941
v 0.1146374 1.158108 -0.01170824
v 0.08563128 1.145073 -0.07614245
v 0.05150096 1.191571 0.01485242
v -0.05150096 1.191571 0.01485242
v -0.08563128 1.145073 -0.07614245
v -0.1146374 1.158108 -0.01170824
v 0.09527245 0.9240629 0.08363731
v 0.1249472 0.9436796 0.07580995
v 0.102321 0.9767683 0.05564766
v 0.1403566 0.9112715 0.08300687
v 0.108251 0.8919469 0.09030785
v -0.1026507 0.9766989 0.05527781
v -0.1251869 0.9562926 0.07172276
v -0.09255522 0.936681 0.08032889
v -0.1182394 0.8656728 0.08832619
v -0.1544058 0.8851297 0.07895277
v -0.13385 0.7670481 0.07457722
v -0.1727582 0.7848833 0.06626873
v -0.1595002 0.7496875 0.06345346
v 0.0934693 0.8830497 0.09366927
v 0.1242834 0.8282002 0.08354713
v 0.108251 0.8919469 0.09030785
v 0.1808881 0.8626143 0.07230846
v 0.1403566 0.9112715 0.08300687
v 0.1507712 0.9175401 0.08063854
v 0.1913611 1.012203 0.06838667
v 0.2230643 1.038151 0.04947855
v 0.1917813 1.070415 0.04348947
v 0.16036 1.043732 0.06236684
v 0.2067559 1.071321 0.02544665
v 0.1905333 1.058801 0.04837201
v 0.2083477 1.040862 0.05206482
v 0.2262236 1.053317 0.02853962
v 0.2206612 1.080221 -0.0006571767
v 0.2412337 1.062846 0.004134279
v 0.2348529 1.074587 -0.00618527
v -0.200959 1.010573 0.04651093
v -0.1693944 1.042083 0.04504742
v -0.1983498 1.069476 0.0234415
v -0.2301927 1.037234 0.02482034
v -0.2111274 1.070986 0.003818685
v -0.2158692 1.039785 0.02917305
v -0.1977042 1.05772 0.02809492
v -0.2308652 1.053013 0.004107705
v -0.2218889 1.080711 -0.02345024
v -0.2429194 1.063324 -0.02158462
v -0.2353566 1.07532 -0.03074807
v -0.258464 0.4131554 0.006219519
v -0.2697263 0.3288566 0.001318099
v -0.2940315 0.3374597 0.07311475
v -0.2214027 0.4022031 0.1017182
v -0.2367795 0.3171244 0.1045242
v -0.2415691 0.4687465 0.01023116
v -0.2133173 0.3216751 0.1784936
v -0.1986841 0.45584 0.09406776
v -0.2229013 0.5299244 0.01411446
v -0.1234413 0.3875175 0.1616234
v -0.1277402 0.3003407 0.1726265
v -0.07774055 0.2924202 0.2356575
v -5.323751E-08 0.3802233 0.1790342
v -5.323752E-08 0.2908433 0.2140863
v 0.07774043 0.2924202 0.2356575
v -0.1848975 0.5167658 0.08888417
v -0.2038561 0.5910391 0.01664343
v -0.1145984 0.4426031 0.152143
v -0.1713214 0.5789254 0.08465596
v -0.1842606 0.6518 0.01718511
v -0.1557537 0.6417223 0.08060062
v -0.1072583 0.5042194 0.1421179
v -0.1005738 0.5660745 0.1330613
v -0.09231823 0.6303304 0.1249986
v -4.176884E-08 0.436227 0.17194
v 0.1234412 0.3875175 0.1616234
v 0.1277401 0.3003407 0.1726265
v 0.2133172 0.3216751 0.1784936
v -3.030017E-08 0.5601125 0.1519751
v -1.88315E-08 0.623379 0.1389205
v 0.09231819 0.6303304 0.1249986
v -3.60345E-08 0.4983092 0.1627966
v 0.1005737 0.5660745 0.1330613
v 0.1557537 0.6417223 0.08060062
v 0.1145984 0.4426031 0.152143
v 0.1072582 0.5042194 0.1421179
v 0.1713213 0.5789254 0.08465596
v 0.1842606 0.6518 0.01718511
v 0.2038561 0.5910391 0.01664343
v 0.1848974 0.5167659 0.08888417
v 0.2229013 0.5299244 0.01411446
v 0.198684 0.45584 0.09406776
v 0.2415691 0.4687465 0.01023116
v 0.2214026 0.4022031 0.1017182
v 0.2367794 0.3171244 0.1045242
v 0.258464 0.4131554 0.006219519
v 0.2940314 0.3374597 0.07311475
v 0.2697263 0.3288566 0.001318099
v 0.3086062 0.3443455 -0.05456116
v 0.258464 0.4131554 0.006219519
v 0.2697263 0.3288566 0.001318099
v 0.2396742 0.4188648 -0.08833739
v 0.2463976 0.336695 -0.1051758
v 0.2490774 0.348775 -0.1683352
v 0.2230637 0.472938 -0.07731313
v 0.2415691 0.4687465 0.01023116
v 0.1789532 0.4198532 -0.159512
v 0.1795749 0.3382195 -0.1840104
v 0.1606463 0.3460433 -0.2418316
v 0.2053438 0.5331092 -0.06496043
v 0.2229013 0.5299244 0.01411446
v 0.1671333 0.4739502 -0.1423509
v 0.08815306 0.4179274 -0.2055671
v 0.0958182 0.3360961 -0.2302641
v 0.0355117 0.3433867 -0.2874274
v -1.6285E-09 0.4152627 -0.2220718
v -1.628496E-09 0.3312296 -0.2567868
v -1.6285E-09 0.4704011 -0.2001292
v 0.08289238 0.4726958 -0.1843845
v -1.6285E-09 0.5304496 -0.1794831
v 0.07546149 0.5316862 -0.164382
v -1.6285E-09 0.5911927 -0.1608615
v 0.1531037 0.5331796 -0.1267238
v 0.0683213 0.5914096 -0.1465369
v -1.6285E-09 0.6513583 -0.1434033
v 0.06363948 0.6507018 -0.1304551
v 0.1385922 0.5929644 -0.1137696
v 0.124614 0.6522955 -0.1029675
v 0.1877732 0.5935892 -0.05421207
v 0.1700488 0.6535242 -0.04668536
v 0.2038561 0.5910391 0.01664343
v 0.1842606 0.6518 0.01718511
v -0.3086062 0.3443455 -0.05456116
v -0.2697263 0.3288566 0.001318099
v -0.258464 0.4131554 0.006219519
v -0.2396742 0.4188648 -0.08833739
v -0.2463976 0.336695 -0.1051758
v -0.2490774 0.348775 -0.1683352
v -0.2230637 0.472938 -0.07731313
v -0.2415691 0.4687465 0.01023116
v -0.1789532 0.4198532 -0.159512
v -0.1795749 0.3382195 -0.1840104
v -0.1606463 0.3460433 -0.2418316
v -0.2053438 0.5331092 -0.06496043
v -0.2229013 0.5299244 0.01411446
v -0.1671333 0.4739502 -0.1423509
v -0.08815306 0.4179274 -0.2055671
v -0.09581821 0.3360961 -0.2302641
v -0.0355117 0.3433867 -0.2874274
v -1.6285E-09 0.4152627 -0.2220718
v -1.628496E-09 0.3312296 -0.2567868
v -1.6285E-09 0.4704011 -0.2001292
v -0.08289238 0.4726958 -0.1843845
v -1.6285E-09 0.5304496 -0.1794831
v -0.07546149 0.5316862 -0.164382
v -1.6285E-09 0.5911927 -0.1608615
v -0.1531037 0.5331796 -0.1267238
v -0.0683213 0.5914096 -0.1465369
v -1.6285E-09 0.6513583 -0.1434033
v -0.06363948 0.6507018 -0.1304551
v -0.1385922 0.5929644 -0.1137696
v -0.124614 0.6522955 -0.1029675
v -0.1877732 0.5935892 -0.05421207
v -0.1700488 0.6535242 -0.04668536
v -0.2038561 0.5910391 0.01664343
v -0.1842606 0.6518 0.01718511
v 0.05150096 1.191571 0.01485242
v 0.08563128 1.145073 -0.07614245
v 0.04739643 1.214673 -0.0150175
v 0.03915233 1.226615 -0.03801995
v 0.02808888 1.235647 -0.05424501
v 7.01164E-13 1.14999 -0.07364333
v 3.232708E-16 1.239315 -0.06219593
v -0.05150096 1.191571 0.01485242
v -0.04739643 1.214673 -0.0150175
v -0.08563128 1.145073 -0.07614245
v -0.03915233 1.226615 -0.03801994
v -0.02808888 1.235647 -0.05424501
v 7.01164E-13 1.14999 -0.07364333
v 3.232708E-16 1.239315 -0.06219593
v 0.1557537 0.6417223 0.08060062
v -7.362834E-09 0.7633711 0.001581198
v 0.09231819 0.6303304 0.1249986
v 0.1842606 0.6518 0.01718511
v -1.88315E-08 0.623379 0.1389205
v 0.1700488 0.6535242 -0.04668536
v -0.09231823 0.6303304 0.1249986
v 0.124614 0.6522955 -0.1029675
v -0.1557537 0.6417223 0.08060062
v 0.06363948 0.6507018 -0.1304551
v -0.1842606 0.6518 0.01718511
v -1.6285E-09 0.6513583 -0.1434033
v -0.1700488 0.6535242 -0.04668536
v -0.06363948 0.6507018 -0.1304551
v -0.124614 0.6522955 -0.1029675
vt 0.6689453 0.005138397
vt 0.6689453 0.03387451
vt 0.6533203 0.006134033
vt 0.6533203 0.006134033
vt 0.6689453 0.005138397
vt 0.6689453 0.03387451
vt 0.5068359 0.8886719
vt 0.5263672 0.8608398
vt 0.4775391 0.8359375
vt 0.4775391 0.8359375
vt 0.5263672 0.8608398
vt 0.5068359 0.8886719
vt 0.173584 0.1689453
vt 0.173584 0.1931152
vt 0.151123 0.1931152
vt 0.1917725 0.1920166
vt 0.1917725 0.1689453
vt 0.6689453 0.03387451
vt 0.652832 0.03289795
vt 0.6533203 0.006134033
vt 0.612793 0.006134033
vt 0.612793 0.03289795
vt 0.5649414 0.006134033
vt 0.5649414 0.03289795
vt 0.543457 0.02064514
vt 0.1934814 0.168335
vt 0.2207031 0.1688232
vt 0.1934814 0.1749268
vt 0.2207031 0.1942139
vt 0.1934814 0.1893311
vt 0.1934814 0.1937256
vt 0.8198242 0.2003174
vt 0.8535156 0.2003174
vt 0.8535156 0.168457
vt 0.8198242 0.168457
vt 0.3908691 0.02326965
vt 0.3693848 0.02326965
vt 0.3693848 0.004840851
vt 0.3908691 0.004840851
vt 0.411377 0.02326965
vt 0.411377 0.004840851
vt 0.4226074 0.01531982
vt 0.8198242 0.2003174
vt 0.8198242 0.168457
vt 0.8535156 0.168457
vt 0.8535156 0.2003174
vt 0.3908691 0.02326965
vt 0.3693848 0.004840851
vt 0.3693848 0.02326965
vt 0.3908691 0.004840851
vt 0.411377 0.02326965
vt 0.411377 0.004840851
vt 0.4226074 0.01531982
vt 0.0501709 0.3937988
vt 0.005756378 0.3835449
vt 0.02615356 0.3361816
vt 0.09143066 0.3344727
vt 0.05392456 0.3029785
vt 0.08184814 0.4135742
vt 0.08740234 0.2675781
vt 0.1226807 0.361084
vt 0.1144409 0.4377441
vt 0.1583252 0.2834473
vt 0.1340332 0.2401123
vt 0.1740723 0.2045898
vt 0.2403564 0.2479248
vt 0.2196045 0.1964111
vt 0.2600098 0.1759033
vt 0.1518555 0.392334
vt 0.1455078 0.4633789
vt 0.1800537 0.3161621
vt 0.1800537 0.423584
vt 0.1755371 0.4897461
vt 0.208374 0.4543457
vt 0.203125 0.3520508
vt 0.2259521 0.3869629
vt 0.25 0.4221191
vt 0.255127 0.2827148
vt 0.3266602 0.229126
vt 0.3137207 0.1804199
vt 0.3659668 0.1776123
vt 0.2890625 0.3571777
vt 0.3068848 0.394043
vt 0.369873 0.380127
vt 0.2719727 0.3203125
vt 0.3581543 0.3427734
vt 0.4250488 0.3774414
vt 0.3352051 0.2661133
vt 0.3464355 0.3051758
vt 0.4196777 0.3427734
vt 0.4763184 0.3796387
vt 0.4763184 0.3496094
vt 0.4135742 0.3076172
vt 0.4763184 0.3210449
vt 0.4082031 0.2712402
vt 0.4763184 0.2929688
vt 0.4084473 0.2352295
vt 0.4111328 0.1873779
vt 0.4763184 0.2678223
vt 0.4470215 0.2034912
vt 0.4763184 0.2420654
vt 0.5087891 0.2138672
vt 0.4926758 0.2678223
vt 0.4926758 0.2420654
vt 0.5625 0.2460938
vt 0.5649414 0.1871338
vt 0.6147461 0.1730957
vt 0.5615234 0.2858887
vt 0.4926758 0.2929688
vt 0.6499023 0.2335205
vt 0.6704102 0.1759033
vt 0.7202148 0.1748047
vt 0.5556641 0.3251953
vt 0.4926758 0.3210449
vt 0.6386719 0.2788086
vt 0.7416992 0.2524414
vt 0.7680664 0.1975098
vt 0.824707 0.2087402
vt 0.8110352 0.2929688
vt 0.8603516 0.2609863
vt 0.7836914 0.3300781
vt 0.7192383 0.2963867
vt 0.7578125 0.3703613
vt 0.6987305 0.3413086
vt 0.7329102 0.4091797
vt 0.6269531 0.3237305
vt 0.6791992 0.3828125
vt 0.7080078 0.4455566
vt 0.6582031 0.4196777
vt 0.6152344 0.3647461
vt 0.6118164 0.4042969
vt 0.5483398 0.3608398
vt 0.5405273 0.3935547
vt 0.4926758 0.3496094
vt 0.4926758 0.3796387
vt 0.5087891 0.2138672
vt 0.4926758 0.2420654
vt 0.4926758 0.2678223
vt 0.5625 0.2460938
vt 0.5649414 0.1871338
vt 0.6147461 0.1730957
vt 0.5615234 0.2858887
vt 0.4926758 0.2929688
vt 0.6499023 0.2335205
vt 0.6704102 0.1759033
vt 0.7202148 0.1748047
vt 0.5556641 0.3251953
vt 0.4926758 0.3210449
vt 0.6386719 0.2788086
vt 0.7416992 0.2524414
vt 0.7680664 0.1975098
vt 0.824707 0.2087402
vt 0.8110352 0.2929688
vt 0.8603516 0.2609863
vt 0.7836914 0.3300781
vt 0.7192383 0.2963867
vt 0.7578125 0.3703613
vt 0.6987305 0.3413086
vt 0.7329102 0.4091797
vt 0.6269531 0.3237305
vt 0.6791992 0.3828125
vt 0.7080078 0.4455566
vt 0.6582031 0.4196777
vt 0.6152344 0.3647461
vt 0.6118164 0.4042969
vt 0.5483398 0.3608398
vt 0.5405273 0.3935547
vt 0.4926758 0.3496094
vt 0.4926758 0.3796387
vt 0.4775391 0.8359375
vt 0.5263672 0.8608398
vt 0.4958496 0.8256836
vt 0.5087891 0.8173828
vt 0.5166016 0.8085938
vt 0.5595703 0.8203125
vt 0.5253906 0.7944336
vt 0.4775391 0.8359375
vt 0.4958496 0.8256836
vt 0.5263672 0.8608398
vt 0.5087891 0.8173828
vt 0.5166016 0.8085938
vt 0.5595703 0.8203125
vt 0.5253906 0.7944336
vt 0.4042969 0.706543
vt 0.3723145 0.6865234
vt 0.3916016 0.7158203
vt 0.4104004 0.6923828
vt 0.371582 0.7172852
vt 0.4077148 0.6787109
vt 0.3515625 0.7148438
vt 0.3986816 0.6650391
vt 0.3393555 0.7050781
vt 0.3859863 0.659668
vt 0.3339844 0.6904297
vt 0.3730469 0.6572266
vt 0.3374023 0.6767578
vt 0.3601074 0.6591797
vt 0.3469238 0.6635742
vn -0.6685135 0.2660878 0.6944687
vn -0.6685135 0.2660878 0.6944687
vn -0.6685135 0.2660878 0.6944687
vn 0.6840904 0.2686392 0.6781248
vn 0.6840904 0.2686392 0.6781247
vn 0.6840904 0.2686392 0.6781248
vn -0.3309761 -0.884804 0.327989
vn -0.330976 -0.884804 0.3279889
vn -0.330976 -0.884804 0.327989
vn 0.3309761 -0.884804 0.327989
vn 0.3309762 -0.884804 0.327989
vn 0.3309762 -0.884804 0.327989
vn -0.04591744 -0.298218 -0.9533927
vn -0.01241273 -0.3460583 -0.9381309
vn 0.08382192 -0.4760937 -0.8753906
vn -0.1911342 -0.0371605 -0.9808602
vn -0.1993365 -0.02140054 -0.9796974
vn -0.1100167 -0.5471784 -0.8297542
vn 0.1130579 -0.2394414 -0.9643058
vn 0.1376374 -0.2014109 -0.9697884
vn 0.231018 -0.005801762 -0.9729321
vn 0.2168844 -0.03902865 -0.9754168
vn 0.2687433 0.09176709 -0.9588304
vn 0.2680836 0.08825137 -0.959345
vn 0.2846182 0.1824921 -0.9411106
vn -0.2450198 0.0411083 -0.9686462
vn -0.2267331 0.03754052 -0.9732332
vn -0.1993365 -0.02140054 -0.9796974
vn -0.2262048 0.03713311 -0.9733717
vn -0.1911342 -0.0371605 -0.9808602
vn -0.23297 0.01971544 -0.972284
vn -0.2185641 -0.3824015 -0.8977744
vn -0.2185641 -0.3824015 -0.8977744
vn -0.2185641 -0.3824015 -0.8977744
vn -0.2185641 -0.3824015 -0.8977744
vn -0.4788715 -0.6419612 -0.5988054
vn -0.4573922 -0.5986021 -0.657623
vn -0.4573922 -0.598602 -0.657623
vn -0.4800142 -0.6443245 -0.5953422
vn -0.4972479 -0.6845295 -0.5330702
vn -0.4972642 -0.6845001 -0.5330929
vn -0.4817234 -0.7114691 -0.5116194
vn 0.3203537 -0.3577277 -0.877157
vn 0.3203537 -0.3577277 -0.877157
vn 0.3203537 -0.3577277 -0.877157
vn 0.3203537 -0.3577277 -0.877157
vn 0.5435979 -0.6272489 -0.5577276
vn 0.5291907 -0.5820981 -0.6173484
vn 0.5291908 -0.5820981 -0.6173484
vn 0.5443255 -0.6297172 -0.5542257
vn 0.5541223 -0.6717899 -0.4915759
vn 0.5541411 -0.6717599 -0.4915956
vn 0.5361473 -0.6992419 -0.472871
vn 0.9007588 -0.4156817 -0.1258662
vn 0.9845334 -0.1243571 -0.1234064
vn 0.8287287 -0.4232077 -0.3662023
vn 0.6625485 -0.4121107 -0.6254552
vn 0.7788848 -0.1607661 -0.6062117
vn 0.9394831 -0.3085107 -0.1489716
vn 0.4208407 -0.4477199 -0.7889488
vn 0.6934491 -0.2649052 -0.67004
vn 0.9463451 -0.2832073 -0.1556424
vn 0.2753881 -0.3544915 -0.8935868
vn 0.4153492 -0.1340422 -0.899732
vn 0.1474293 -0.476602 -0.866669
vn -0 -0.3540782 -0.9352158
vn -0 -0.3650976 -0.9309692
vn -0.1474293 -0.4766019 -0.866669
vn 0.7074619 -0.2138544 -0.6736199
vn 0.9461267 -0.2882277 -0.1475438
vn 0.3294455 -0.1993387 -0.922892
vn 0.710525 -0.215529 -0.6698518
vn 0.7405097 -0.6559398 -0.1462473
vn 0.5608806 -0.5818059 -0.5889947
vn 0.3475006 -0.1772158 -0.9207811
vn 0.3447253 -0.1760377 -0.9220495
vn 0.2618016 -0.5100465 -0.8193367
vn -0 -0.1608845 -0.9869732
vn -0.275388 -0.3544913 -0.8935868
vn -0.4153491 -0.1340423 -0.899732
vn -0.4208408 -0.4477198 -0.7889488
vn -0 -0.1704444 -0.9853673
vn -0 -0.4842673 -0.8749201
vn -0.2618015 -0.5100462 -0.8193368
vn -0 -0.1653482 -0.9862353
vn -0.3447253 -0.1760376 -0.9220495
vn -0.5608808 -0.5818059 -0.5889947
vn -0.3294455 -0.1993386 -0.922892
vn -0.3475006 -0.1772159 -0.9207811
vn -0.710525 -0.2155287 -0.669852
vn -0.7405097 -0.6559398 -0.1462469
vn -0.9461267 -0.2882275 -0.1475441
vn -0.7074619 -0.2138543 -0.67362
vn -0.9463451 -0.2832072 -0.1556429
vn -0.6934488 -0.2649051 -0.6700404
vn -0.939483 -0.3085107 -0.1489722
vn -0.6625484 -0.4121103 -0.6254556
vn -0.7788849 -0.1607656 -0.6062118
vn -0.9007588 -0.4156816 -0.1258667
vn -0.8287287 -0.4232072 -0.3662029
vn -0.9845334 -0.1243571 -0.123407
vn -0.8875927 -0.4391648 0.1389726
vn -0.9007588 -0.4156816 -0.1258667
vn -0.9845334 -0.1243571 -0.123407
vn -0.8156194 -0.4258429 0.3916922
vn -0.8904716 -0.1601437 0.4259277
vn -0.670855 -0.4541464 0.5862631
vn -0.8521405 -0.3333488 0.4034045
vn -0.939483 -0.3085107 -0.1489722
vn -0.535422 -0.4582924 0.7094303
vn -0.6690567 -0.2182965 0.7104293
vn -0.3812018 -0.5022739 0.7761483
vn -0.8527431 -0.3231369 0.4103799
vn -0.9463451 -0.2832072 -0.1556429
vn -0.5713117 -0.3495447 0.7425776
vn -0.2856862 -0.470071 0.8351147
vn -0.3291193 -0.3009571 0.8950448
vn -0.09310579 -0.5431472 0.8344594
vn -0 -0.5240733 0.8516731
vn 0.6802942 -0.279846 0.6774113
vn -0 -0.3538542 0.9353006
vn -0.3011842 -0.3497277 0.8871182
vn -0 -0.3181988 0.948024
vn -0.3033991 -0.316093 0.8989072
vn -0 -0.2898875 0.9570606
vn -0.5753919 -0.3264673 0.7498955
vn -0.3023064 -0.2842825 0.9098319
vn -0 -0.5916181 0.8062182
vn -0.2502949 -0.5907088 0.7670825
vn -0.5820521 -0.2989135 0.7562183
vn -0.4805369 -0.6174303 0.6227873
vn -0.8545706 -0.3107129 0.416133
vn -0.6829312 -0.6533561 0.3266968
vn -0.9461267 -0.2882275 -0.1475441
vn -0.7405097 -0.6559398 -0.1462469
vn 0.8875929 -0.4391646 0.1389725
vn 0.9845334 -0.1243571 -0.1234064
vn 0.9007588 -0.4156817 -0.1258662
vn 0.8156195 -0.4258429 0.3916921
vn 0.8904716 -0.1601436 0.4259277
vn 0.6708551 -0.4541465 0.5862629
vn 0.8521405 -0.3333488 0.4034044
vn 0.9394831 -0.3085107 -0.1489716
vn 0.5354221 -0.4582924 0.7094303
vn 0.6690567 -0.2182964 0.7104294
vn 0.3812019 -0.5022739 0.7761483
vn 0.8527431 -0.323137 0.41038
vn 0.9463451 -0.2832073 -0.1556424
vn 0.5713116 -0.3495446 0.7425777
vn 0.2856862 -0.4700711 0.8351148
vn 0.3291192 -0.3009572 0.8950448
vn 0.09310581 -0.5431471 0.8344594
vn -0 -0.5240733 0.8516731
vn -0.6802942 -0.279846 0.6774113
vn -0 -0.3538542 0.9353006
vn 0.3011842 -0.3497277 0.8871182
vn -0 -0.3181988 0.948024
vn 0.303399 -0.3160929 0.8989072
vn -0 -0.2898875 0.9570606
vn 0.5753919 -0.3264672 0.7498955
vn 0.3023064 -0.2842825 0.9098321
vn -0 -0.5916181 0.8062182
vn 0.250295 -0.5907089 0.7670825
vn 0.5820521 -0.2989134 0.7562184
vn 0.4805367 -0.6174302 0.6227876
vn 0.8545706 -0.3107129 0.416133
vn 0.6829311 -0.6533561 0.3266971
vn 0.9461267 -0.2882277 -0.1475438
vn 0.7405097 -0.6559398 -0.1462473
vn -0.9172705 -0.3660039 -0.1570227
vn -0.3646158 -0.4051182 0.8384119
vn -0.9010589 -0.4266585 -0.07781593
vn -0.345156 -0.4131491 0.842719
vn -0.2034721 -0.2926971 0.9343058
vn -0 -0.3290549 0.9443107
vn -0 -0.1271145 0.9918881
vn 0.9172704 -0.3660041 -0.1570225
vn 0.9010589 -0.4266585 -0.0778158
vn 0.3646157 -0.405118 0.838412
vn 0.345156 -0.413149 0.842719
vn 0.2034722 -0.2926971 0.9343058
vn -0 -0.3290549 0.9443107
vn -0 -0.1271145 0.9918881
vn -0.5608808 -0.5818059 -0.5889947
vn -0 -0.9898873 -0.1418562
vn -0.2618015 -0.5100462 -0.8193368
vn -0.7405097 -0.6559398 -0.1462469
vn -0 -0.4842673 -0.8749201
vn -0.6829312 -0.6533561 0.3266968
vn 0.2618016 -0.5100465 -0.8193367
vn -0.4805369 -0.6174303 0.6227873
vn 0.5608806 -0.5818059 -0.5889947
vn -0.2502949 -0.5907088 0.7670825
vn 0.7405097 -0.6559398 -0.1462473
vn -0 -0.5916181 0.8062182
vn 0.6829311 -0.6533561 0.3266971
vn 0.250295 -0.5907089 0.7670825
vn 0.4805367 -0.6174302 0.6227876
g bf_geo_0
f 3/3/3 2/2/2 1/1/1
f 6/6/6 5/5/5 4/4/4
f 9/9/9 8/8/8 7/7/7
f 12/12/12 11/11/11 10/10/10
f 15/15/15 14/14/14 13/13/13
f 14/14/14 16/16/16 13/13/13
f 16/16/16 17/17/17 13/13/13
f 20/20/20 19/19/19 18/18/18
f 20/20/20 21/21/21 19/19/19
f 21/21/21 22/22/22 19/19/19
f 21/21/21 23/23/23 22/22/22
f 23/23/23 24/24/24 22/22/22
f 23/23/23 25/25/25 24/24/24
f 28/28/28 27/27/27 26/26/26
f 29/29/29 27/27/27 28/28/28
f 30/30/30 29/29/29 28/28/28
f 31/31/31 29/29/29 30/30/30
f 34/34/34 33/33/33 32/32/32
f 35/35/35 34/34/34 32/32/32
f 38/38/38 37/37/37 36/36/36
f 39/39/39 38/38/38 36/36/36
f 39/39/39 36/36/36 40/40/40
f 41/41/41 39/39/39 40/40/40
f 42/42/42 41/41/41 40/40/40
f 45/45/45 44/44/44 43/43/43
f 46/46/46 45/45/45 43/43/43
f 49/49/49 48/48/48 47/47/47
f 48/48/48 50/50/50 47/47/47
f 47/47/47 50/50/50 51/51/51
f 50/50/50 52/52/52 51/51/51
f 52/52/52 53/53/53 51/51/51
f 56/56/56 55/55/55 54/54/54
f 57/57/57 56/56/56 54/54/54
f 57/57/57 58/58/58 56/56/56
f 57/57/57 54/54/54 59/59/59
f 60/60/60 58/58/58 57/57/57
f 61/61/61 57/57/57 59/59/59
f 61/61/61 59/59/59 62/62/62
f 63/63/63 60/60/60 57/57/57
f 63/63/63 57/57/57 61/61/61
f 63/63/63 64/64/64 60/60/60
f 65/65/65 64/64/64 63/63/63
f 66/66/66 65/65/65 63/63/63
f 66/66/66 67/67/67 65/65/65
f 67/67/67 66/66/66 68/68/68
f 69/69/69 61/61/61 62/62/62
f 69/69/69 62/62/62 70/70/70
f 71/71/71 63/63/63 61/61/61
f 66/66/66 63/63/63 71/71/71
f 71/71/71 61/61/61 69/69/69
f 72/72/72 69/69/69 70/70/70
f 72/72/72 70/70/70 73/73/73
f 74/74/74 72/72/72 73/73/73
f 75/75/75 71/71/71 69/69/69
f 75/75/75 69/69/69 72/72/72
f 76/76/76 72/72/72 74/74/74
f 76/76/76 75/75/75 72/72/72
f 77/77/77 76/76/76 74/74/74
f 78/78/78 71/71/71 75/75/75
f 78/78/78 66/66/66 71/71/71
f 68/68/68 66/66/66 79/79/79
f 80/80/80 68/68/68 79/79/79
f 80/80/80 79/79/79 81/81/81
f 82/82/82 76/76/76 77/77/77
f 83/83/83 82/82/82 77/77/77
f 82/82/82 83/83/83 84/84/84
f 85/85/85 75/75/75 76/76/76
f 82/82/82 85/85/85 76/76/76
f 85/85/85 78/78/78 75/75/75
f 86/86/86 82/82/82 84/84/84
f 85/85/85 82/82/82 86/86/86
f 86/86/86 84/84/84 87/87/87
f 66/66/66 78/78/78 88/88/88
f 79/79/79 66/66/66 88/88/88
f 78/78/78 85/85/85 89/89/89
f 89/89/89 85/85/85 86/86/86
f 88/88/88 78/78/78 89/89/89
f 90/90/90 86/86/86 87/87/87
f 89/89/89 86/86/86 90/90/90
f 90/90/90 87/87/87 91/91/91
f 92/92/92 90/90/90 91/91/91
f 93/93/93 89/89/89 90/90/90
f 93/93/93 90/90/90 92/92/92
f 88/88/88 89/89/89 93/93/93
f 94/94/94 93/93/93 92/92/92
f 95/95/95 88/88/88 93/93/93
f 95/95/95 93/93/93 94/94/94
f 79/79/79 88/88/88 95/95/95
f 96/96/96 95/95/95 94/94/94
f 97/97/97 79/79/79 95/95/95
f 97/97/97 95/95/95 96/96/96
f 81/81/81 79/79/79 97/97/97
f 98/98/98 81/81/81 97/97/97
f 99/99/99 97/97/97 96/96/96
f 98/98/98 97/97/97 100/100/100
f 100/100/100 97/97/97 99/99/99
f 101/101/101 100/100/100 99/99/99
f 104/104/104 103/103/103 102/102/102
f 102/102/102 103/103/103 105/105/105
f 106/106/106 102/102/102 105/105/105
f 106/106/106 105/105/105 107/107/107
f 105/105/105 103/103/103 108/108/108
f 103/103/103 109/109/109 108/108/108
f 107/107/107 105/105/105 110/110/110
f 111/111/111 107/107/107 110/110/110
f 111/111/111 110/110/110 112/112/112
f 108/108/108 109/109/109 113/113/113
f 109/109/109 114/114/114 113/113/113
f 105/105/105 108/108/108 115/115/115
f 110/110/110 105/105/105 115/115/115
f 112/112/112 110/110/110 116/116/116
f 117/117/117 112/112/112 116/116/116
f 117/117/117 116/116/116 118/118/118
f 118/118/118 116/116/116 119/119/119
f 120/120/120 118/118/118 119/119/119
f 119/119/119 116/116/116 121/121/121
f 116/116/116 110/110/110 122/122/122
f 116/116/116 122/122/122 121/121/121
f 110/110/110 115/115/115 122/122/122
f 121/121/121 122/122/122 123/123/123
f 122/122/122 124/124/124 123/123/123
f 122/122/122 115/115/115 124/124/124
f 123/123/123 124/124/124 125/125/125
f 115/115/115 108/108/108 126/126/126
f 115/115/115 126/126/126 124/124/124
f 108/108/108 113/113/113 126/126/126
f 124/124/124 127/127/127 125/125/125
f 124/124/124 126/126/126 127/127/127
f 125/125/125 127/127/127 128/128/128
f 127/127/127 129/129/129 128/128/128
f 126/126/126 130/130/130 127/127/127
f 127/127/127 130/130/130 129/129/129
f 126/126/126 113/113/113 130/130/130
f 130/130/130 131/131/131 129/129/129
f 113/113/113 132/132/132 130/130/130
f 130/130/130 132/132/132 131/131/131
f 113/113/113 114/114/114 132/132/132
f 132/132/132 133/133/133 131/131/131
f 114/114/114 134/134/134 132/132/132
f 132/132/132 134/134/134 133/133/133
f 134/134/134 135/135/135 133/133/133
f 138/138/138 137/137/137 136/136/136
f 138/138/138 136/136/136 139/139/139
f 136/136/136 140/140/140 139/139/139
f 139/139/139 140/140/140 141/141/141
f 138/138/138 139/139/139 142/142/142
f 143/143/143 138/138/138 142/142/142
f 139/139/139 141/141/141 144/144/144
f 141/141/141 145/145/145 144/144/144
f 144/144/144 145/145/145 146/146/146
f 143/143/143 142/142/142 147/147/147
f 148/148/148 143/143/143 147/147/147
f 142/142/142 139/139/139 149/149/149
f 139/139/139 144/144/144 149/149/149
f 144/144/144 146/146/146 150/150/150
f 146/146/146 151/151/151 150/150/150
f 150/150/150 151/151/151 152/152/152
f 150/150/150 152/152/152 153/153/153
f 152/152/152 154/154/154 153/153/153
f 150/150/150 153/153/153 155/155/155
f 144/144/144 150/150/150 156/156/156
f 156/156/156 150/150/150 155/155/155
f 149/149/149 144/144/144 156/156/156
f 156/156/156 155/155/155 157/157/157
f 158/158/158 156/156/156 157/157/157
f 149/149/149 156/156/156 158/158/158
f 158/158/158 157/157/157 159/159/159
f 142/142/142 149/149/149 160/160/160
f 160/160/160 149/149/149 158/158/158
f 147/147/147 142/142/142 160/160/160
f 161/161/161 158/158/158 159/159/159
f 160/160/160 158/158/158 161/161/161
f 161/161/161 159/159/159 162/162/162
f 163/163/163 161/161/161 162/162/162
f 164/164/164 160/160/160 161/161/161
f 164/164/164 161/161/161 163/163/163
f 147/147/147 160/160/160 164/164/164
f 165/165/165 164/164/164 163/163/163
f 166/166/166 147/147/147 164/164/164
f 166/166/166 164/164/164 165/165/165
f 148/148/148 147/147/147 166/166/166
f 167/167/167 166/166/166 165/165/165
f 168/168/168 148/148/148 166/166/166
f 168/168/168 166/166/166 167/167/167
f 169/169/169 168/168/168 167/167/167
f 172/172/172 171/171/171 170/170/170
f 171/171/171 172/172/172 173/173/173
f 173/173/173 174/174/174 171/171/171
f 174/174/174 175/175/175 171/171/171
f 176/176/176 175/175/175 174/174/174
f 179/179/179 178/178/178 177/177/177
f 178/178/178 179/179/179 180/180/180
f 181/181/181 180/180/180 179/179/179
f 182/182/182 181/181/181 179/179/179
f 182/182/182 183/183/183 181/181/181
f 186/186/186 185/185/185 184/184/184
f 184/184/184 185/185/185 187/187/187
f 188/188/188 185/185/185 186/186/186
f 187/187/187 185/185/185 189/189/189
f 190/190/190 185/185/185 188/188/188
f 189/189/189 185/185/185 191/191/191
f 192/192/192 185/185/185 190/190/190
f 191/191/191 185/185/185 193/193/193
f 194/194/194 185/185/185 192/192/192
f 193/193/193 185/185/185 195/195/195
f 196/196/196 185/185/185 194/194/194
f 195/195/195 185/185/185 197/197/197
f 198/198/198 185/185/185 196/196/196
f 197/197/197 185/185/185 198/198/198
