g facial_mouth_geo
v 0.08618635 1.310957 0.07428481
v 0.07558873 1.294367 0.09371679
v 0.0774281 1.307469 0.09527636
v 0.08111648 1.292907 0.06826349
v 0.06641166 1.294196 0.104077
v 0.06892484 1.307942 0.1034614
v 0.07250851 1.277634 0.08645079
v 0.07832833 1.278349 0.05972639
v 0.05342579 1.299073 0.1131991
v 0.05639166 1.310038 0.1117516
v 0.03900352 1.31442 0.1192169
v 0.06292925 1.280298 0.1028733
v 0.06819378 1.265464 0.07568236
v 0.05782056 1.267301 0.09782406
v 0.06100332 1.257153 0.0577865
v 0.07292275 1.269186 0.04120175
v 0.06705627 1.260754 0.03435087
v 0.05439857 1.251409 0.050301
v 0.0474539 1.247862 0.07019761
v 0.04214718 1.243143 0.06271707
v 0.05214942 1.25409 0.08704418
v 0.03190313 1.238519 0.08431292
v 0.02840229 1.236343 0.0757563
v 0.04434164 1.263954 0.1069405
v 0.01007034 1.229229 0.09875465
v 0.005131217 1.227826 0.08981059
v -1.906317E-16 1.226634 0.09105213
v 0.04661728 1.276274 0.1118075
v 0.04996351 1.288186 0.1141193
v 0.03609401 1.293241 0.1222577
v 0.03092766 1.283594 0.1225405
v 0.0182478 1.297057 0.1360966
v 0.01969948 1.315935 0.1285633
v 0.02933448 1.271706 0.1194243
v 0.014434 1.268724 0.1236696
v 0.02959194 1.261547 0.1130246
v 0.03204241 1.252705 0.1062504
v 0.01590026 1.281096 0.1276366
v -1.758121E-16 1.278599 0.1312141
v -1.642991E-16 1.301615 0.1476184
v -1.682472E-16 1.317784 0.1352663
v -0.01969948 1.315935 0.1285633
v -0.0182478 1.297057 0.1360966
v -0.03900352 1.31442 0.1192169
v 0.01346902 1.258377 0.1185331
v 0.03153965 1.24327 0.09625635
v 0.01363733 1.242968 0.1086408
v 0.01136773 1.235202 0.1044744
v -1.901084E-16 1.227534 0.1016724
v -1.897293E-16 1.233327 0.1069168
v -6.653491E-10 1.242422 0.1115385
v -1.843544E-16 1.257522 0.1216879
v -0.01007034 1.229229 0.09875451
v -0.005131217 1.227826 0.08981059
v -0.02840229 1.236343 0.07575687
v -0.01136773 1.235202 0.1044744
v -0.01363734 1.242969 0.1086409
v -0.03190313 1.238519 0.08431292
v -0.04214718 1.243143 0.06271707
v -1.841547E-16 1.265935 0.1264892
v -0.014434 1.268724 0.1236696
v -0.03153965 1.24327 0.09625635
v -0.04745391 1.247862 0.07019761
v -0.05439857 1.251409 0.050301
v -0.013469 1.258377 0.1185331
v -0.05214942 1.25409 0.08704418
v -0.03204241 1.252705 0.1062504
v -0.06100332 1.257153 0.0577865
v -0.06705627 1.260754 0.03435087
v -0.07292274 1.269186 0.04120175
v -0.07832833 1.278349 0.05972639
v -0.06819379 1.265464 0.07568236
v -0.02959194 1.261548 0.1130246
v -0.07250851 1.277634 0.08645079
v -0.08111648 1.292907 0.06826349
v -0.04434164 1.263954 0.1069405
v -0.05782056 1.267301 0.09782406
v -0.07558873 1.294367 0.09371679
v -0.08618635 1.310957 0.07428481
v -0.0774281 1.307469 0.09527636
v -0.06292925 1.280298 0.1028733
v -0.06641166 1.294196 0.104077
v -0.06892484 1.307942 0.1034614
v -0.02933448 1.271706 0.1194243
v -0.04661729 1.276274 0.1118075
v -0.05342578 1.299073 0.1131991
v -0.05639166 1.310038 0.1117516
v -0.03092766 1.283594 0.1225405
v -0.04996352 1.288186 0.1141193
v -0.03609401 1.293241 0.1222577
v -0.01590026 1.281096 0.1276366
vt 0.3530273 0.3674316
vt 0.3308105 0.3537598
vt 0.3330078 0.3647461
vt 0.3479004 0.3515625
vt 0.3195801 0.3535156
vt 0.3220215 0.3647461
vt 0.3278809 0.3400879
vt 0.3466797 0.3354492
vt 0.3046875 0.3564453
vt 0.3076172 0.3664551
vt 0.2900391 0.371582
vt 0.3156738 0.3432617
vt 0.3239746 0.326416
vt 0.3098145 0.3334961
vt 0.322998 0.309082
vt 0.3493652 0.3208008
vt 0.3481445 0.3078613
vt 0.3198242 0.2973633
vt 0.3022461 0.3027344
vt 0.2995605 0.2907715
vt 0.3046875 0.3203125
vt 0.2810059 0.2980957
vt 0.2800293 0.2839355
vt 0.2922363 0.3288574
vt 0.2561035 0.2797852
vt 0.2548828 0.2709961
vt 0.25 0.2705078
vt 0.2961426 0.3378906
vt 0.3015137 0.3469238
vt 0.2871094 0.3513184
vt 0.28125 0.3417969
vt 0.2683105 0.3566895
vt 0.2702637 0.3740234
vt 0.2753906 0.3322754
vt 0.2607422 0.3276367
vt 0.2783203 0.324707
vt 0.2807617 0.3171387
vt 0.265625 0.3398438
vt 0.25 0.3378906
vt 0.25 0.3630371
vt 0.25 0.3764648
vt 0.2297363 0.3740234
vt 0.2315674 0.3569336
vt 0.2098389 0.3718262
vt 0.2626953 0.3200684
vt 0.2810059 0.3083496
vt 0.2692871 0.3049316
vt 0.2587891 0.293457
vt 0.25 0.279541
vt 0.25 0.2927246
vt 0.25 0.3012695
vt 0.25 0.3161621
vt 0.2436523 0.2802734
vt 0.2452393 0.2717285
vt 0.2188721 0.2851562
vt 0.2403564 0.2927246
vt 0.2341309 0.3041992
vt 0.2186279 0.2937012
vt 0.1962891 0.2946777
vt 0.25 0.3242188
vt 0.2388916 0.3278809
vt 0.2199707 0.3054199
vt 0.194458 0.3037109
vt 0.1741943 0.3039551
vt 0.2364502 0.3195801
vt 0.1959229 0.3181152
vt 0.2186279 0.3161621
vt 0.1722412 0.3137207
vt 0.145874 0.3168945
vt 0.1472168 0.3273926
vt 0.1518555 0.338623
vt 0.1755371 0.3271484
vt 0.222168 0.324707
vt 0.173584 0.3395996
vt 0.1513672 0.3525391
vt 0.2050781 0.3291016
vt 0.1895752 0.333252
vt 0.1706543 0.3544922
vt 0.1474609 0.3688965
vt 0.1678467 0.3659668
vt 0.1831055 0.3444824
vt 0.1799316 0.354248
vt 0.1777344 0.3654785
vt 0.2246094 0.3322754
vt 0.2025146 0.338623
vt 0.1951904 0.3564453
vt 0.1921387 0.3666992
vt 0.2193604 0.3427734
vt 0.1982422 0.3474121
vt 0.2130127 0.3515625
vt 0.2346191 0.3398438
vn 0.9217761 -0.2972554 0.2489337
vn 0.8774474 -0.2722314 0.3949382
vn 0.8621715 -0.1630564 0.4796593
vn 0.9293452 -0.3035785 0.210137
vn 0.6194417 -0.1454091 0.7714584
vn 0.5967776 -0.06590214 0.7996958
vn 0.8489342 -0.4161389 0.3257897
vn 0.8497879 -0.5154124 0.110502
vn 0.4998112 -0.02714001 0.865709
vn 0.5042417 -0.03153284 0.8629866
vn 0.5113771 0.1310619 0.8493033
vn 0.6501871 -0.3521857 0.6732176
vn 0.7545392 -0.6347022 0.1668049
vn 0.6404219 -0.5752722 0.5088435
vn 0.6847185 -0.7257857 0.06630058
vn 0.7699856 -0.6308481 0.09567079
vn 0.7400521 -0.6666736 0.08870893
vn 0.6139695 -0.7869627 0.06108265
vn 0.5927488 -0.7999185 0.09369735
vn 0.5689351 -0.8193136 0.07097977
vn 0.6211284 -0.7195761 0.3104994
vn 0.5216682 -0.8346598 0.1766504
vn 0.4869836 -0.8714335 0.05874231
vn 0.5161635 -0.5457009 0.6601408
vn 0.4060233 -0.855239 0.3220425
vn 0.278275 -0.9604831 0.005920924
vn 1.784243E-07 -0.9978812 0.06506031
vn 0.4882957 -0.3387019 0.8042688
vn 0.5154118 -0.2190271 0.8284792
vn 0.5189314 0.03810728 0.853966
vn 0.4337707 -0.313997 0.8445407
vn 0.4897493 0.05578272 0.870077
vn 0.5043777 0.2804543 0.8166692
vn 0.3796997 -0.3886441 0.839514
vn 0.3008038 -0.4139277 0.8591746
vn 0.3699582 -0.4870375 0.7911545
vn 0.4519034 -0.5753497 0.6817302
vn 0.3072272 -0.4177131 0.8550597
vn -0 -0.4854877 0.8742436
vn -2.357628E-07 0.1361505 0.9906882
vn -3.320736E-07 0.477663 0.8785431
vn -0.5043777 0.2804543 0.8166692
vn -0.4897495 0.05578268 0.8700768
vn -0.511377 0.1310617 0.8493035
vn 0.2942382 -0.4994487 0.8148465
vn 0.5151868 -0.7214875 0.4626426
vn 0.3261492 -0.5328155 0.7808549
vn 0.4403198 -0.6300758 0.6396273
vn -2.018462E-06 -0.8825879 0.4701473
vn -2.908019E-06 -0.6122333 0.7906772
vn 1.096529E-06 -0.5292798 0.8484473
vn 1.23519E-06 -0.520955 0.8535841
vn -0.4060245 -0.8552409 0.3220359
vn -0.2782742 -0.9604834 0.005913305
vn -0.486985 -0.8714326 0.05874415
vn -0.4403172 -0.6300741 0.6396306
vn -0.3261535 -0.5328117 0.7808557
vn -0.5216702 -0.834658 0.1766532
vn -0.5689362 -0.8193121 0.07098827
vn 4.80765E-07 -0.4315408 0.9020934
vn -0.3008088 -0.4139315 0.8591709
vn -0.5151863 -0.7214872 0.4626439
vn -0.5927491 -0.7999178 0.09370096
vn -0.6139693 -0.7869623 0.06108962
vn -0.2942453 -0.4994488 0.814844
vn -0.6211284 -0.7195763 0.310499
vn -0.4519052 -0.5753427 0.6817349
vn -0.6847184 -0.7257857 0.06630139
vn -0.7400519 -0.6666732 0.08871287
vn -0.7699859 -0.6308477 0.0956709
vn -0.8497881 -0.5154124 0.1105005
vn -0.7545394 -0.6347021 0.1668039
vn -0.3699621 -0.4870397 0.7911513
vn -0.8489344 -0.4161386 0.3257901
vn -0.9293452 -0.3035787 0.2101371
vn -0.5161597 -0.545702 0.6601427
vn -0.6404214 -0.575272 0.5088444
vn -0.8774471 -0.2722312 0.3949389
vn -0.9217758 -0.2972554 0.2489346
vn -0.8621699 -0.1630561 0.4796621
vn -0.6501871 -0.3521855 0.6732177
vn -0.6194419 -0.1454092 0.7714583
vn -0.5967769 -0.06590215 0.7996963
vn -0.3797026 -0.3886522 0.8395091
vn -0.4882958 -0.3387021 0.8042687
vn -0.4998111 -0.02713975 0.8657091
vn -0.5042414 -0.03153282 0.8629868
vn -0.4337713 -0.3139978 0.84454
vn -0.5154114 -0.2190272 0.8284795
vn -0.5189312 0.03810745 0.8539663
vn -0.3072281 -0.4177136 0.8550592
g facial_mouth_geo_0
f 3/3/3 2/2/2 1/1/1
f 2/2/2 4/4/4 1/1/1
f 2/2/2 3/3/3 5/5/5
f 3/3/3 6/6/6 5/5/5
f 2/2/2 7/7/7 4/4/4
f 8/8/8 4/4/4 7/7/7
f 5/5/5 6/6/6 9/9/9
f 6/6/6 10/10/10 9/9/9
f 11/11/11 9/9/9 10/10/10
f 2/2/2 12/12/12 7/7/7
f 2/2/2 5/5/5 12/12/12
f 8/8/8 7/7/7 13/13/13
f 7/7/7 12/12/12 14/14/14
f 13/13/13 7/7/7 14/14/14
f 8/8/8 13/13/13 15/15/15
f 15/15/15 16/16/16 8/8/8
f 17/17/17 16/16/16 15/15/15
f 18/18/18 17/17/17 15/15/15
f 18/18/18 15/15/15 19/19/19
f 19/19/19 15/15/15 13/13/13
f 20/20/20 18/18/18 19/19/19
f 13/13/13 14/14/14 21/21/21
f 13/13/13 21/21/21 19/19/19
f 20/20/20 19/19/19 22/22/22
f 21/21/21 22/22/22 19/19/19
f 23/23/23 20/20/20 22/22/22
f 24/24/24 14/14/14 12/12/12
f 14/14/14 24/24/24 21/21/21
f 25/25/25 23/23/23 22/22/22
f 25/25/25 26/26/26 23/23/23
f 26/26/26 25/25/25 27/27/27
f 12/12/12 28/28/28 24/24/24
f 28/28/28 12/12/12 5/5/5
f 5/5/5 29/29/29 28/28/28
f 5/5/5 9/9/9 29/29/29
f 30/30/30 29/29/29 9/9/9
f 11/11/11 30/30/30 9/9/9
f 28/28/28 29/29/29 31/31/31
f 29/29/29 30/30/30 31/31/31
f 30/30/30 11/11/11 32/32/32
f 32/32/32 31/31/31 30/30/30
f 11/11/11 33/33/33 32/32/32
f 24/24/24 28/28/28 34/34/34
f 28/28/28 31/31/31 34/34/34
f 35/35/35 34/34/34 31/31/31
f 24/24/24 34/34/34 36/36/36
f 36/36/36 34/34/34 35/35/35
f 24/24/24 36/36/36 37/37/37
f 24/24/24 37/37/37 21/21/21
f 32/32/32 38/38/38 31/31/31
f 31/31/31 38/38/38 35/35/35
f 32/32/32 39/39/39 38/38/38
f 38/38/38 39/39/39 35/35/35
f 40/40/40 32/32/32 33/33/33
f 32/32/32 40/40/40 39/39/39
f 41/41/41 40/40/40 33/33/33
f 40/40/40 41/41/41 42/42/42
f 43/43/43 40/40/40 42/42/42
f 40/40/40 43/43/43 39/39/39
f 42/42/42 44/44/44 43/43/43
f 36/36/36 45/45/45 37/37/37
f 45/45/45 36/36/36 35/35/35
f 21/21/21 37/37/37 46/46/46
f 22/22/22 21/21/21 46/46/46
f 46/46/46 37/37/37 47/47/47
f 45/45/45 47/47/47 37/37/37
f 48/48/48 22/22/22 46/46/46
f 46/46/46 47/47/47 48/48/48
f 25/25/25 22/22/22 48/48/48
f 25/25/25 48/48/48 49/49/49
f 25/25/25 49/49/49 27/27/27
f 47/47/47 50/50/50 48/48/48
f 48/48/48 50/50/50 49/49/49
f 47/47/47 45/45/45 51/51/51
f 47/47/47 51/51/51 50/50/50
f 45/45/45 35/35/35 52/52/52
f 45/45/45 52/52/52 51/51/51
f 49/49/49 53/53/53 27/27/27
f 53/53/53 54/54/54 27/27/27
f 54/54/54 53/53/53 55/55/55
f 50/50/50 56/56/56 49/49/49
f 56/56/56 53/53/53 49/49/49
f 50/50/50 51/51/51 57/57/57
f 51/51/51 52/52/52 57/57/57
f 50/50/50 57/57/57 56/56/56
f 55/55/55 53/53/53 58/58/58
f 58/58/58 53/53/53 56/56/56
f 59/59/59 55/55/55 58/58/58
f 35/35/35 60/60/60 52/52/52
f 52/52/52 60/60/60 61/61/61
f 60/60/60 35/35/35 39/39/39
f 61/61/61 60/60/60 39/39/39
f 56/56/56 57/57/57 62/62/62
f 62/62/62 58/58/58 56/56/56
f 63/63/63 59/59/59 58/58/58
f 64/64/64 59/59/59 63/63/63
f 52/52/52 65/65/65 57/57/57
f 65/65/65 52/52/52 61/61/61
f 66/66/66 58/58/58 62/62/62
f 58/58/58 66/66/66 63/63/63
f 57/57/57 67/67/67 62/62/62
f 57/57/57 65/65/65 67/67/67
f 62/62/62 67/67/67 66/66/66
f 68/68/68 64/64/64 63/63/63
f 69/69/69 64/64/64 68/68/68
f 70/70/70 69/69/69 68/68/68
f 71/71/71 70/70/70 68/68/68
f 72/72/72 68/68/68 63/63/63
f 68/68/68 72/72/72 71/71/71
f 63/63/63 66/66/66 72/72/72
f 65/65/65 73/73/73 67/67/67
f 65/65/65 61/61/61 73/73/73
f 74/74/74 71/71/71 72/72/72
f 74/74/74 75/75/75 71/71/71
f 67/67/67 76/76/76 66/66/66
f 73/73/73 76/76/76 67/67/67
f 77/77/77 72/72/72 66/66/66
f 77/77/77 74/74/74 72/72/72
f 76/76/76 77/77/77 66/66/66
f 75/75/75 74/74/74 78/78/78
f 75/75/75 78/78/78 79/79/79
f 78/78/78 80/80/80 79/79/79
f 77/77/77 81/81/81 74/74/74
f 81/81/81 78/78/78 74/74/74
f 81/81/81 77/77/77 76/76/76
f 82/82/82 80/80/80 78/78/78
f 81/81/81 82/82/82 78/78/78
f 82/82/82 83/83/83 80/80/80
f 73/73/73 84/84/84 76/76/76
f 61/61/61 84/84/84 73/73/73
f 76/76/76 85/85/85 81/81/81
f 85/85/85 76/76/76 84/84/84
f 82/82/82 81/81/81 85/85/85
f 82/82/82 86/86/86 83/83/83
f 86/86/86 87/87/87 83/83/83
f 86/86/86 44/44/44 87/87/87
f 88/88/88 84/84/84 61/61/61
f 88/88/88 85/85/85 84/84/84
f 85/85/85 89/89/89 82/82/82
f 82/82/82 89/89/89 86/86/86
f 88/88/88 89/89/89 85/85/85
f 86/86/86 90/90/90 44/44/44
f 86/86/86 89/89/89 90/90/90
f 88/88/88 90/90/90 89/89/89
f 44/44/44 90/90/90 43/43/43
f 88/88/88 43/43/43 90/90/90
f 61/61/61 91/91/91 88/88/88
f 88/88/88 91/91/91 43/43/43
f 61/61/61 39/39/39 91/91/91
f 91/91/91 39/39/39 43/43/43
