g facial_eye_geo
v -0.1218229 1.551993 0.08233394
v -0.1130714 1.527397 0.1023288
v -0.1181401 1.524569 0.07623412
v -0.1125812 1.549715 0.1040944
v -0.1026446 1.52753 0.1224818
v -0.1214935 1.584932 0.0945403
v -0.09994064 1.549318 0.1188748
v -0.08610293 1.527394 0.1338148
v -0.1122259 1.581213 0.1138673
v -0.08363275 1.548252 0.1267551
v -0.05744228 1.531911 0.1438827
v -0.1151531 1.614181 0.1231605
v -0.1240846 1.618492 0.09082375
v -0.1143532 1.637275 0.1245213
v -0.0901208 1.614073 0.1419765
v -0.09013404 1.640856 0.1456657
v -0.08810231 1.576881 0.1269877
v -0.05965014 1.607919 0.15282
v -0.06008338 1.636784 0.1574924
v -0.05522281 1.590059 0.1450407
v -0.05269501 1.57272 0.1399655
v -0.0510805 1.550368 0.1350756
v -0.02789761 1.602682 0.1604721
v -0.02861215 1.629999 0.1641017
v -7.520218E-09 1.625977 0.1662925
v -0.02489843 1.586293 0.153648
v -7.520218E-09 1.577028 0.1582877
v -0.02366222 1.570062 0.1456503
v -0.02461967 1.556549 0.1430496
v -0.02666379 1.533734 0.1554945
v -7.520218E-09 1.536034 0.1638323
v -7.520218E-09 1.556894 0.1560351
v -7.520218E-09 1.599537 0.1633414
v 0.02789761 1.602682 0.1604721
v 0.02861215 1.629999 0.1641017
v 0.06008338 1.636784 0.1574924
v 0.02461966 1.556549 0.1430496
v 0.02666379 1.533734 0.1554945
v 0.05744228 1.531911 0.1438827
v 0.02366222 1.570062 0.1456503
v 0.05965014 1.607919 0.15282
v 0.09013405 1.640856 0.1456657
v 0.02489841 1.586293 0.153648
v 0.05108049 1.550368 0.1350756
v 0.0901208 1.614073 0.1419765
v 0.1143532 1.637275 0.1245213
v 0.05522281 1.590059 0.1450407
v 0.05269501 1.57272 0.1399655
v 0.08810232 1.576881 0.1269877
v 0.08363274 1.548252 0.1267551
v 0.08610293 1.527394 0.1338148
v 0.1026446 1.52753 0.1224818
v 0.1151531 1.614181 0.1231605
v 0.1240846 1.618492 0.09082375
v 0.1214935 1.584932 0.0945403
v 0.1122259 1.581213 0.1138673
v 0.09994064 1.549318 0.1188748
v 0.1125812 1.549715 0.1040944
v 0.1218229 1.551993 0.08233394
v 0.1130714 1.527397 0.1023288
v 0.1181401 1.524569 0.07623412
vt 1.145508 0.3881836
vt 1.162109 0.3720703
vt 1.144531 0.3681641
vt 1.162109 0.3874512
vt 1.177734 0.373291
vt 1.151367 0.4125977
vt 1.175781 0.3879395
vt 1.19043 0.3737793
vt 1.166016 0.4106445
vt 1.188477 0.3881836
vt 1.209961 0.3776855
vt 1.168945 0.4345703
vt 1.149414 0.4372559
vt 1.169922 0.4499512
vt 1.188477 0.4350586
vt 1.188477 0.4521484
vt 1.185547 0.4077148
vt 1.208984 0.4313965
vt 1.208984 0.4494629
vt 1.210938 0.4179688
vt 1.210938 0.40625
vt 1.211914 0.3911133
vt 1.231445 0.4282227
vt 1.230469 0.4455566
vt 1.25 0.4431152
vt 1.232422 0.4162598
vt 1.25 0.4101562
vt 1.231445 0.404541
vt 1.230469 0.395752
vt 1.231445 0.3798828
vt 1.25 0.3818359
vt 1.25 0.3962402
vt 1.25 0.4260254
vt 1.268555 0.4282227
vt 1.269531 0.4455566
vt 1.291016 0.4494629
vt 1.269531 0.395752
vt 1.268555 0.3798828
vt 1.290039 0.3776855
vt 1.268555 0.404541
vt 1.291016 0.4313965
vt 1.311523 0.4519043
vt 1.267578 0.4162598
vt 1.288086 0.3908691
vt 1.311523 0.4350586
vt 1.330078 0.449707
vt 1.289062 0.4179688
vt 1.289062 0.4060059
vt 1.314453 0.4077148
vt 1.311523 0.3879395
vt 1.30957 0.3737793
vt 1.322266 0.3730469
vt 1.331055 0.4345703
vt 1.350586 0.4372559
vt 1.348633 0.4125977
vt 1.333984 0.4106445
vt 1.324219 0.3876953
vt 1.337891 0.387207
vt 1.354492 0.3879395
vt 1.337891 0.3718262
vt 1.355469 0.3679199
vn -0.9880112 -0.09396493 0.1224927
vn -0.9303705 -0.002439534 0.3666127
vn -0.9816398 -0.1516303 0.1157218
vn -0.8952963 -0.07452627 0.439193
vn -0.6860289 0.1526819 0.7113738
vn -0.9755496 -0.0814283 0.2041379
vn -0.6503692 0.05377235 0.7577126
vn -0.4131529 0.2739002 0.8684949
vn -0.727523 -0.2059037 0.6544571
vn -0.3603868 0.1210575 0.9249142
vn -0.3688651 0.3384003 0.8656927
vn -0.7785419 -0.1160673 0.6167664
vn -0.9800845 -0.07823185 0.1825214
vn -0.7999666 0.000302977 0.6000444
vn -0.4743123 -0.1976872 0.8578739
vn -0.5187697 -0.03574906 0.8541663
vn -0.3913774 -0.2304928 0.8908966
vn -0.3146338 -0.2218513 0.9229233
vn -0.2904293 -0.07025428 0.954314
vn -0.3192367 -0.3830366 0.8668166
vn -0.2816491 -0.2035195 0.9376853
vn -0.3144751 0.1167978 0.9420529
vn -0.1947005 -0.1952402 0.961235
vn -0.1618681 -0.06577934 0.9846176
vn -0 -0.06122623 0.9981239
vn -0.3017347 -0.4282753 0.8517842
vn -1.070502E-07 -0.2514694 0.9678652
vn -0.3232629 -0.2798023 0.9039977
vn -0.3677482 0.2721601 0.8892077
vn -0.3897578 0.3905822 0.833987
vn -0 0.4750825 0.8799412
vn -0 0.3056872 0.9521319
vn 1.512174E-07 -0.1539926 0.988072
vn 0.1947007 -0.1952406 0.961235
vn 0.1618679 -0.06577937 0.9846176
vn 0.2904291 -0.07025436 0.9543141
vn 0.3677494 0.2721609 0.8892069
vn 0.389758 0.3905824 0.8339869
vn 0.3688646 0.3384001 0.865693
vn 0.3232628 -0.2798023 0.9039977
vn 0.314634 -0.2218514 0.9229233
vn 0.5187696 -0.03574916 0.8541663
vn 0.3017334 -0.4282739 0.8517855
vn 0.3144751 0.1167981 0.9420528
vn 0.4743127 -0.1976877 0.8578736
vn 0.7999665 0.0003027273 0.6000447
vn 0.3192364 -0.3830364 0.8668167
vn 0.2816486 -0.2035191 0.9376855
vn 0.3913778 -0.230493 0.8908964
vn 0.360386 0.1210571 0.9249146
vn 0.4131529 0.2739006 0.8684948
vn 0.6860299 0.1526819 0.7113728
vn 0.7785419 -0.1160679 0.6167664
vn 0.9800845 -0.07823157 0.1825214
vn 0.9755496 -0.08142825 0.204138
vn 0.7275231 -0.2059036 0.6544569
vn 0.6503689 0.05377229 0.7577128
vn 0.8952963 -0.07452611 0.4391929
vn 0.9880112 -0.09396518 0.1224927
vn 0.9303703 -0.002439264 0.3666129
vn 0.9816399 -0.1516301 0.1157213
g facial_eye_geo_0
f 3/3/3 2/2/2 1/1/1
f 2/2/2 4/4/4 1/1/1
f 2/2/2 5/5/5 4/4/4
f 6/6/6 1/1/1 4/4/4
f 5/5/5 7/7/7 4/4/4
f 5/5/5 8/8/8 7/7/7
f 9/9/9 6/6/6 4/4/4
f 7/7/7 9/9/9 4/4/4
f 8/8/8 10/10/10 7/7/7
f 8/8/8 11/11/11 10/10/10
f 12/12/12 6/6/6 9/9/9
f 12/12/12 13/13/13 6/6/6
f 12/12/12 14/14/14 13/13/13
f 12/12/12 15/15/15 14/14/14
f 9/9/9 15/15/15 12/12/12
f 15/15/15 16/16/16 14/14/14
f 17/17/17 9/9/9 7/7/7
f 7/7/7 10/10/10 17/17/17
f 9/9/9 17/17/17 15/15/15
f 15/15/15 18/18/18 16/16/16
f 18/18/18 19/19/19 16/16/16
f 15/15/15 17/17/17 20/20/20
f 20/20/20 18/18/18 15/15/15
f 17/17/17 10/10/10 21/21/21
f 17/17/17 21/21/21 20/20/20
f 11/11/11 22/22/22 10/10/10
f 10/10/10 22/22/22 21/21/21
f 18/18/18 23/23/23 19/19/19
f 23/23/23 24/24/24 19/19/19
f 25/25/25 24/24/24 23/23/23
f 18/18/18 20/20/20 26/26/26
f 26/26/26 23/23/23 18/18/18
f 23/23/23 26/26/26 27/27/27
f 20/20/20 21/21/21 28/28/28
f 20/20/20 28/28/28 26/26/26
f 21/21/21 22/22/22 28/28/28
f 27/27/27 26/26/26 28/28/28
f 22/22/22 11/11/11 29/29/29
f 28/28/28 22/22/22 29/29/29
f 11/11/11 30/30/30 29/29/29
f 30/30/30 31/31/31 29/29/29
f 28/28/28 29/29/29 32/32/32
f 31/31/31 32/32/32 29/29/29
f 32/32/32 27/27/27 28/28/28
f 33/33/33 25/25/25 23/23/23
f 27/27/27 33/33/33 23/23/23
f 25/25/25 33/33/33 34/34/34
f 34/34/34 33/33/33 27/27/27
f 35/35/35 25/25/25 34/34/34
f 35/35/35 34/34/34 36/36/36
f 32/32/32 31/31/31 37/37/37
f 31/31/31 38/38/38 37/37/37
f 38/38/38 39/39/39 37/37/37
f 40/40/40 27/27/27 32/32/32
f 32/32/32 37/37/37 40/40/40
f 34/34/34 41/41/41 36/36/36
f 36/36/36 41/41/41 42/42/42
f 27/27/27 43/43/43 34/34/34
f 40/40/40 43/43/43 27/27/27
f 41/41/41 34/34/34 43/43/43
f 39/39/39 44/44/44 37/37/37
f 37/37/37 44/44/44 40/40/40
f 41/41/41 45/45/45 42/42/42
f 42/42/42 45/45/45 46/46/46
f 43/43/43 47/47/47 41/41/41
f 40/40/40 47/47/47 43/43/43
f 45/45/45 41/41/41 47/47/47
f 40/40/40 48/48/48 47/47/47
f 40/40/40 44/44/44 48/48/48
f 48/48/48 49/49/49 47/47/47
f 48/48/48 44/44/44 49/49/49
f 47/47/47 49/49/49 45/45/45
f 44/44/44 39/39/39 50/50/50
f 44/44/44 50/50/50 49/49/49
f 39/39/39 51/51/51 50/50/50
f 50/50/50 51/51/51 52/52/52
f 45/45/45 53/53/53 46/46/46
f 54/54/54 46/46/46 53/53/53
f 54/54/54 53/53/53 55/55/55
f 45/45/45 56/56/56 53/53/53
f 45/45/45 49/49/49 56/56/56
f 55/55/55 53/53/53 56/56/56
f 49/49/49 50/50/50 57/57/57
f 57/57/57 50/50/50 52/52/52
f 57/57/57 56/56/56 49/49/49
f 55/55/55 56/56/56 58/58/58
f 56/56/56 57/57/57 58/58/58
f 57/57/57 52/52/52 58/58/58
f 59/59/59 55/55/55 58/58/58
f 52/52/52 60/60/60 58/58/58
f 58/58/58 60/60/60 59/59/59
f 60/60/60 61/61/61 59/59/59
