g head_geo
v -0.04611661 1.478055 -0.07511503
v -7.520218E-09 1.484575 -0.1100347
v -7.520218E-09 1.526136 -0.1357513
v -0.05208526 1.520305 -0.1224966
v -7.520218E-09 1.567946 -0.1722844
v -0.0852047 1.509007 -0.08127111
v -0.1032889 1.491995 -0.02629284
v -0.07896002 1.46415 -0.02746696
v -0.09903646 1.468988 0.02080883
v -0.08610335 1.442175 0.004875358
v -0.08922251 1.448094 0.03962438
v -0.04442541 1.411381 0.03135183
v -0.07866624 1.437408 0.05741382
v -0.06679788 1.428938 0.07336996
v -0.09761579 1.461983 0.04682582
v -0.03920646 1.410543 0.06583761
v -0.04743239 1.417442 0.08957428
v -7.520218E-09 1.396829 0.04913783
v -7.520218E-09 1.400533 0.08018286
v -0.01557102 1.40566 0.08316638
v -0.008350742 1.40849 0.1067472
v -7.520218E-09 1.409418 0.1084137
v 0.008350743 1.40849 0.1067472
v 0.03920646 1.410543 0.06583761
v 0.04442542 1.411381 0.03135183
v 0.01557103 1.40566 0.08316638
v 0.04743239 1.417442 0.08957358
v 0.06679788 1.428938 0.07336996
v 0.07866625 1.437408 0.05741382
v 0.0892225 1.448095 0.03962438
v 0.08610335 1.442175 0.004875358
v 0.09903646 1.468988 0.02080883
v 0.09761579 1.461983 0.04682582
v 0.07896002 1.46415 -0.02746696
v 0.1056227 1.483498 0.03253816
v 0.1061661 1.473812 0.06973479
v 0.1165598 1.515135 0.05454807
v 0.1109241 1.497171 0.07870769
v 0.1181401 1.524569 0.07623412
v 0.1218229 1.551993 0.08233394
v 0.1032889 1.491995 -0.02629284
v 0.04570002 1.481114 -0.08310539
v 0.1167175 1.502166 0.02331741
v 0.1152025 1.505798 -0.004000716
v 0.1250974 1.570232 0.0235083
v 0.122041 1.536225 -0.02316428
v 0.1231571 1.578125 0.05908121
v 0.1214935 1.584932 0.0945403
v 0.1240846 1.618492 0.09082375
v 0.117734 1.537685 -0.07222991
v 0.1270952 1.558535 -0.02317481
v 0.1340446 1.647447 0.04129261
v 0.08520471 1.509007 -0.08127111
v 0.1389742 1.594095 -0.08187047
v 0.1291467 1.578832 -0.008939662
v 0.1493657 1.645447 -0.08013978
v 0.1403331 1.640539 -0.012817
v 0.1280387 1.658762 0.08370205
v 0.1143532 1.637275 0.1245213
v 0.1061156 1.549654 -0.1290994
v 0.05208526 1.520305 -0.1224966
v 0.1327359 1.692425 0.0361917
v 0.142892 1.693985 -0.01359359
v 0.1464029 1.69258 -0.07404799
v 0.1277267 1.696313 -0.1251127
v 0.1217058 1.693194 0.08048531
v 0.1300655 1.651649 -0.1334377
v 0.1227132 1.604916 -0.1355532
v 0.07586993 1.665852 -0.1723325
v 0.1121566 1.667213 0.1238651
v 0.1057371 1.699129 0.1190116
v 0.07909954 1.705753 0.1408038
v 0.08671943 1.668383 0.1477195
v 0.09013405 1.640856 0.1456657
v 0.05839823 1.666272 0.1579064
v 0.06008338 1.636784 0.1574924
v 0.04303809 1.710695 0.1500082
v 0.02861215 1.629999 0.1641017
v 0.02705351 1.662353 0.1642515
v -7.520218E-09 1.709522 0.1556292
v -7.520218E-09 1.625977 0.1662925
v -7.520218E-09 1.659402 0.1662635
v -0.02705351 1.662353 0.1642515
v -0.04303808 1.710695 0.1500082
v -0.02861215 1.629999 0.1641017
v -0.05839824 1.666272 0.1579064
v -0.06008338 1.636784 0.1574924
v -0.09013404 1.640856 0.1456657
v -0.07909954 1.705753 0.1408038
v -0.08671943 1.668383 0.1477195
v -0.1143532 1.637275 0.1245213
v -0.1121566 1.667213 0.1238651
v -0.1057371 1.699129 0.1190116
v -0.1217057 1.693194 0.08048531
v -0.1280387 1.658762 0.08370205
v -0.1240846 1.618492 0.09082375
v -0.1327359 1.692425 0.0361917
v -0.1340447 1.647447 0.04129261
v -0.1231571 1.578125 0.05908121
v -0.1214935 1.584932 0.0945403
v -0.1218229 1.551993 0.08233394
v -0.1165598 1.515135 0.05454807
v -0.1181401 1.524569 0.07623412
v -0.1109241 1.497171 0.07870769
v -0.1061661 1.473812 0.06973479
v -0.1403331 1.640539 -0.012817
v -0.142892 1.693985 -0.01359359
v -0.1493657 1.645447 -0.08013978
v -0.1464029 1.69258 -0.07404799
v -0.1277267 1.696313 -0.1251127
v -0.1300655 1.651649 -0.1334377
v -0.1250974 1.570232 0.0235083
v -0.1291467 1.578832 -0.008939662
v -0.1167175 1.502166 0.02331741
v -0.1056227 1.483498 0.03253816
v -0.1152025 1.505798 -0.004000716
v -0.122041 1.536225 -0.02316428
v -0.117734 1.537685 -0.07222991
v -0.1270952 1.558535 -0.02317481
v -0.1389742 1.594095 -0.08187047
v -0.1061156 1.549654 -0.1290994
v -0.1227132 1.604916 -0.1355532
v -0.07586993 1.665852 -0.1723325
v -0.06552026 1.562086 -0.1620891
v -0.07170961 1.616715 -0.1740308
v -7.520218E-09 1.622396 -0.1876041
v -7.520218E-09 1.677482 -0.1854397
v -0.1291467 1.578832 -0.008939662
v -0.1250974 1.570232 0.0235083
v -0.1462588 1.583784 -0.00365163
v -0.153855 1.577866 -0.0174908
v -0.1270952 1.558535 -0.02317481
v -0.1542965 1.56555 -0.02586606
v -0.122041 1.536225 -0.02316428
v -0.154296 1.571418 -0.01025214
v -0.1480583 1.576691 -0.0006151594
v -0.1250974 1.570232 0.0235083
v -0.1167175 1.502166 0.02331741
v -0.1227438 1.493737 0.004769593
v -0.1463638 1.528837 -0.01183726
v -0.1367109 1.50067 -0.01179637
v -0.1558202 1.561823 -0.01748496
v -0.150137 1.533842 -0.02493473
v -0.1152025 1.505798 -0.004000716
v -0.1227438 1.493737 0.004769593
v -0.1167175 1.502166 0.02331741
v -7.520218E-09 1.526136 -0.1357513
v -7.520218E-09 1.484575 -0.1100347
v -7.520218E-09 1.567946 -0.1722844
v 0.06552027 1.562086 -0.1620891
v 0.07170961 1.616715 -0.1740308
v -7.520218E-09 1.622396 -0.1876041
v -7.520218E-09 1.677482 -0.1854397
v 0.1291467 1.578832 -0.008939662
v 0.1462587 1.583784 -0.00365163
v 0.1250974 1.570232 0.0235083
v 0.153855 1.577866 -0.0174908
v 0.1270952 1.558535 -0.02317481
v 0.1542965 1.56555 -0.02586606
v 0.122041 1.536225 -0.02316428
v 0.154296 1.571418 -0.01025214
v 0.1558202 1.561823 -0.01748496
v 0.1463638 1.528837 -0.01183726
v 0.150137 1.533842 -0.02493473
v 0.1367109 1.50067 -0.01179637
v 0.1152025 1.505798 -0.004000716
v 0.1227438 1.493737 0.004769593
v 0.1167175 1.502166 0.02331741
v 0.1227438 1.493737 0.004769593
v 0.1480583 1.576691 -0.0006151594
v 0.1250974 1.570232 0.0235083
v 0.1167175 1.502166 0.02331741
vt 1.036133 0.3288574
vt 1.005859 0.338623
vt 1.005859 0.3916016
vt 1.03125 0.3894043
vt 1.005859 0.4274902
vt 1.054688 0.3796387
vt 1.081055 0.333252
vt 1.083008 0.2990723
vt 1.124023 0.3110352
vt 1.12793 0.2753906
vt 1.147461 0.2946777
vt 1.182617 0.2485352
vt 1.167969 0.2900391
vt 1.186523 0.2878418
vt 1.144531 0.310791
vt 1.208008 0.2648926
vt 1.208984 0.2834473
vt 1.25 0.2365723
vt 1.25 0.2548828
vt 1.235352 0.269043
vt 1.244141 0.2832031
vt 1.25 0.2841797
vt 1.255859 0.2832031
vt 1.291992 0.2648926
vt 1.317383 0.2485352
vt 1.264648 0.269043
vt 1.291016 0.2834473
vt 1.313477 0.2875977
vt 1.332031 0.2897949
vt 1.352539 0.2946777
vt 1.37207 0.2753906
vt 1.375977 0.310791
vt 1.355469 0.3105469
vt 1.416992 0.2990723
vt 1.374023 0.3283691
vt 1.347656 0.3271484
vt 1.368164 0.3596191
vt 1.348633 0.3474121
vt 1.355469 0.3679199
vt 1.354492 0.3879395
vt 1.418945 0.333252
vt 1.463867 0.3288574
vt 1.385742 0.348877
vt 1.40625 0.3583984
vt 1.400391 0.4035645
vt 1.416016 0.3796387
vt 1.374023 0.4074707
vt 1.348633 0.4125977
vt 1.350586 0.4372559
vt 1.4375 0.4077148
vt 1.417969 0.4035645
vt 1.376953 0.4597168
vt 1.445312 0.3796387
vt 1.432617 0.4504395
vt 1.415039 0.4169922
vt 1.422852 0.4790039
vt 1.405273 0.4638672
vt 1.354492 0.465332
vt 1.330078 0.449707
vt 1.452148 0.4284668
vt 1.46875 0.3894043
vt 1.37207 0.4931641
vt 1.389648 0.4899902
vt 1.412109 0.4870605
vt 1.430664 0.487793
vt 1.355469 0.4926758
vt 1.439453 0.4794922
vt 1.445312 0.4658203
vt 1.461914 0.4746094
vt 1.331055 0.4694824
vt 1.333984 0.4929199
vt 1.3125 0.4934082
vt 1.310547 0.4689941
vt 1.311523 0.4519043
vt 1.291992 0.4667969
vt 1.291016 0.4494629
vt 1.291992 0.4936523
vt 1.269531 0.4455566
vt 1.269531 0.4655762
vt 1.25 0.4934082
vt 1.25 0.4431152
vt 1.25 0.4633789
vt 1.230469 0.4655762
vt 1.208008 0.4936523
vt 1.230469 0.4455566
vt 1.208008 0.4667969
vt 1.208984 0.4494629
vt 1.188477 0.4521484
vt 1.1875 0.4934082
vt 1.189453 0.4689941
vt 1.169922 0.4499512
vt 1.168945 0.4694824
vt 1.166016 0.4929199
vt 1.144531 0.4926758
vt 1.145508 0.4655762
vt 1.149414 0.4372559
vt 1.12793 0.4931641
vt 1.123047 0.4597168
vt 1.125977 0.4077148
vt 1.151367 0.4125977
vt 1.145508 0.3881836
vt 1.131836 0.3601074
vt 1.144531 0.3681641
vt 1.151367 0.3476562
vt 1.152344 0.3273926
vt 1.094727 0.4638672
vt 1.110352 0.4899902
vt 1.077148 0.4790039
vt 1.087891 0.4870605
vt 1.069336 0.487793
vt 1.060547 0.4794922
vt 1.099609 0.4035645
vt 1.084961 0.4169922
vt 1.113281 0.3498535
vt 1.125977 0.3288574
vt 1.09375 0.3583984
vt 1.083984 0.3796387
vt 1.0625 0.4077148
vt 1.082031 0.4035645
vt 1.067383 0.4504395
vt 1.047852 0.4284668
vt 1.054688 0.4658203
vt 1.038086 0.4746094
vt 1.03125 0.4291992
vt 1.033203 0.456543
vt 1.005859 0.4536133
vt 1.005859 0.4724121
vt 1.109375 0.1901855
vt 1.138672 0.1773682
vt 1.111328 0.1777344
vt 1.102539 0.1846924
vt 1.094727 0.1989746
vt 1.094727 0.1916504
vt 1.073242 0.1990967
vt 1.09668 0.1816406
vt 1.102539 0.1765137
vt 1.099609 0.1535645
vt 1.051758 0.1529541
vt 1.042969 0.1678467
vt 1.064453 0.1877441
vt 1.050781 0.1845703
vt 1.09082 0.1867676
vt 1.070312 0.192627
vt 1.036133 0.1881104
vt 1.036133 0.1820068
vt 1.021484 0.1849365
vt 1.494141 0.3916016
vt 1.494141 0.338623
vt 1.494141 0.4274902
vt 1.46875 0.4291992
vt 1.466797 0.456543
vt 1.494141 0.4536133
vt 1.494141 0.4724121
vt 1.109375 0.1901855
vt 1.111328 0.1777344
vt 1.139648 0.1773682
vt 1.103516 0.1846924
vt 1.095703 0.1989746
vt 1.095703 0.1916504
vt 1.074219 0.1990967
vt 1.097656 0.1816406
vt 1.091797 0.1867676
vt 1.06543 0.1831055
vt 1.070312 0.192627
vt 1.047852 0.1800537
vt 1.037109 0.1881104
vt 1.037109 0.1820068
vt 1.021484 0.1849365
vt 1.041992 0.1662598
vt 1.103516 0.1765137
vt 1.100586 0.1535645
vt 1.051758 0.1529541
vn -0.3931396 -0.6973707 -0.5992623
vn -0 -0.7141113 -0.7000321
vn -0 -0.6935571 -0.7204016
vn -0.2010506 -0.7121394 -0.6726337
vn -0 -0.4441516 -0.8959516
vn -0.5435831 -0.6940944 -0.4719643
vn -0.7142031 -0.6012548 -0.3583384
vn -0.6407522 -0.6291034 -0.4400744
vn -0.8779286 -0.455511 -0.1474835
vn -0.8302969 -0.5460452 -0.1115425
vn -0.7353056 -0.6777174 0.004989996
vn -0.5233783 -0.8513861 0.03488367
vn -0.607052 -0.7945469 -0.01353253
vn -0.5440609 -0.8382048 0.0375541
vn -0.8792259 -0.4713168 -0.06944361
vn -0.4381328 -0.8960401 0.07177424
vn -0.417805 -0.9023538 0.1058131
vn -0 -0.9962768 0.08621158
vn -0 -0.9888141 0.1491538
vn -0.2957808 -0.9435551 0.1490551
vn -0.1522444 -0.9362739 0.3165641
vn -6.587179E-07 -0.9125802 0.4088978
vn 0.1522447 -0.9362752 0.3165601
vn 0.4381331 -0.8960404 0.07177133
vn 0.523383 -0.8513834 0.03488109
vn 0.2957802 -0.9435548 0.1490583
vn 0.4178052 -0.9023539 0.1058123
vn 0.5440617 -0.8382045 0.03755211
vn 0.6070597 -0.7945408 -0.01354667
vn 0.7353074 -0.6777154 0.00499199
vn 0.8302981 -0.5460467 -0.1115258
vn 0.8779271 -0.455514 -0.1474823
vn 0.8792216 -0.4713244 -0.06944655
vn 0.6407514 -0.6291031 -0.4400761
vn 0.9146273 -0.4023671 -0.03946593
vn 0.9294477 -0.3644364 -0.05756006
vn 0.9869739 -0.1546777 0.0442423
vn 0.9784499 -0.2064835 -0.0006656139
vn 0.9816399 -0.1516301 0.1157213
vn 0.9880112 -0.09396518 0.1224927
vn 0.7142028 -0.6012546 -0.3583396
vn 0.3931395 -0.6973706 -0.5992626
vn 0.9463962 -0.2736394 0.1716267
vn 0.6823492 -0.6126275 -0.3988572
vn 0.973372 -0.1184617 0.196249
vn 0.7409281 -0.3681951 -0.5616564
vn 0.9888602 -0.1199491 0.08813462
vn 0.9755496 -0.08142825 0.204138
vn 0.9800845 -0.07823157 0.1825214
vn 0.8573617 -0.4510975 -0.2478749
vn 0.8704441 -0.1954909 -0.4517857
vn 0.9885415 -0.07248416 0.1324078
vn 0.5435828 -0.6940942 -0.471965
vn 0.961807 -0.2412471 -0.1293338
vn 0.9942678 -0.08737262 0.0616242
vn 0.9930996 -0.07385652 -0.09109555
vn 0.9886175 -0.09756304 0.1145299
vn 0.9699934 0.05935233 0.2357757
vn 0.7999665 0.0003027273 0.6000447
vn 0.6988636 -0.4362123 -0.5668409
vn 0.2010506 -0.7121395 -0.6726336
vn 0.9869329 0.02152071 0.1596884
vn 0.9923469 -0.00205599 0.1234642
vn 0.9955292 0.04469188 -0.08321225
vn 0.9376132 0.1061484 -0.33108
vn 0.9372723 0.2054592 0.281615
vn 0.8399863 -0.03597819 -0.5414135
vn 0.7698251 -0.2008135 -0.6058409
vn 0.360102 0.000909764 -0.9329125
vn 0.7873448 0.1638929 0.5943294
vn 0.7545354 0.2533317 0.605392
vn 0.4434505 0.2563475 0.8588583
vn 0.4975536 0.1613692 0.8522912
vn 0.5187696 -0.03574916 0.8541663
vn 0.2653777 0.1322307 0.9550339
vn 0.2904291 -0.07025436 0.9543141
vn 0.2082417 0.2448743 0.9469276
vn 0.1618679 -0.06577937 0.9846176
vn 0.1304325 0.1045308 0.9859314
vn 1.133557E-07 0.2370825 0.9714895
vn -0 -0.06122623 0.9981239
vn -0 0.08228438 0.996609
vn -0.1304329 0.1045307 0.9859314
vn -0.2082424 0.244875 0.9469274
vn -0.1618681 -0.06577934 0.9846176
vn -0.2653783 0.1322304 0.9550338
vn -0.2904293 -0.07025428 0.954314
vn -0.5187697 -0.03574906 0.8541663
vn -0.4434497 0.256347 0.8588588
vn -0.4975532 0.1613686 0.8522915
vn -0.7999666 0.000302977 0.6000444
vn -0.7873438 0.1638925 0.5943308
vn -0.7545331 0.2533306 0.6053953
vn -0.9372719 0.2054595 0.2816162
vn -0.9699934 0.05935252 0.2357759
vn -0.9800845 -0.07823185 0.1825214
vn -0.9869329 0.02152117 0.1596884
vn -0.9885415 -0.07248411 0.1324076
vn -0.9888602 -0.1199492 0.08813433
vn -0.9755496 -0.0814283 0.2041379
vn -0.9880112 -0.09396493 0.1224927
vn -0.986974 -0.1546775 0.04424162
vn -0.9816398 -0.1516303 0.1157218
vn -0.9784501 -0.2064823 -0.0006616103
vn -0.9294471 -0.3644377 -0.05756094
vn -0.9886175 -0.09756289 0.1145298
vn -0.9923469 -0.002055651 0.123464
vn -0.9930996 -0.07385638 -0.09109572
vn -0.9955292 0.04469203 -0.08321217
vn -0.9376134 0.1061484 -0.3310794
vn -0.839986 -0.03597818 -0.5414141
vn -0.973372 -0.1184617 0.1962488
vn -0.9942677 -0.08737242 0.06162454
vn -0.9463962 -0.2736394 0.1716269
vn -0.9146276 -0.4023663 -0.03946702
vn -0.6823493 -0.6126281 -0.3988562
vn -0.7409284 -0.3681956 -0.5616556
vn -0.8573618 -0.4510975 -0.2478745
vn -0.8704445 -0.1954914 -0.4517847
vn -0.961807 -0.2412469 -0.1293337
vn -0.698864 -0.4362124 -0.5668404
vn -0.769825 -0.2008135 -0.605841
vn -0.3601017 0.0009098154 -0.9329126
vn -0.2870871 -0.4250386 -0.8584423
vn -0.3555192 -0.1242295 -0.9263763
vn -0 -0.1027853 -0.9947036
vn -0 0.02969312 -0.999559
vn -0.9942677 -0.08737242 0.06162454
vn -0.973372 -0.1184617 0.1962488
vn -0.1294896 0.9791657 0.1564188
vn -0.2945707 0.7255588 -0.6219264
vn -0.8704445 -0.1954914 -0.4517847
vn -0.3330561 0.1048989 -0.9370538
vn -0.7409284 -0.3681956 -0.5616556
vn -0.862855 -0.06786957 0.5008742
vn -0.7843993 -0.04230403 0.6188119
vn -0.973372 -0.1184617 0.1962488
vn -0.9463962 -0.2736394 0.1716269
vn -0.7550922 -0.501752 0.421996
vn -0.8387727 -0.2100478 0.5023348
vn -0.3393649 -0.7422608 -0.5778239
vn -0.9811065 -0.1453004 0.1277407
vn -0.3392602 -0.2132582 -0.9162006
vn -0.6823493 -0.6126281 -0.3988562
vn -0.7550922 -0.501752 0.421996
vn -0.9463962 -0.2736394 0.1716269
vn -0 -0.6935571 -0.7204016
vn -0 -0.7141113 -0.7000321
vn -0 -0.4441516 -0.8959516
vn 0.2870867 -0.4250382 -0.8584427
vn 0.3555189 -0.1242294 -0.9263764
vn -0 -0.1027853 -0.9947036
vn -0 0.02969312 -0.999559
vn 0.9942678 -0.08737262 0.0616242
vn 0.1294902 0.9791664 0.156414
vn 0.973372 -0.1184617 0.196249
vn 0.2945708 0.7255582 -0.6219272
vn 0.8704441 -0.1954909 -0.4517857
vn 0.3330551 0.1048987 -0.9370542
vn 0.7409281 -0.3681951 -0.5616564
vn 0.8628544 -0.06786966 0.5008752
vn 0.9811068 -0.1453003 0.1277395
vn 0.8387733 -0.2100476 0.5023338
vn 0.3392598 -0.2132577 -0.9162008
vn 0.3393641 -0.7422603 -0.5778248
vn 0.6823492 -0.6126275 -0.3988572
vn 0.7550918 -0.5017508 0.4219982
vn 0.9463962 -0.2736394 0.1716267
vn 0.7550918 -0.5017508 0.4219982
vn 0.7843991 -0.04230364 0.6188121
vn 0.973372 -0.1184617 0.196249
vn 0.9463962 -0.2736394 0.1716267
g head_geo_0
f 3/3/3 2/2/2 1/1/1
f 4/4/4 3/3/3 1/1/1
f 5/5/5 3/3/3 4/4/4
f 4/4/4 1/1/1 6/6/6
f 6/6/6 1/1/1 7/7/7
f 1/1/1 8/8/8 7/7/7
f 7/7/7 8/8/8 9/9/9
f 8/8/8 10/10/10 9/9/9
f 10/10/10 11/11/11 9/9/9
f 10/10/10 12/12/12 11/11/11
f 13/13/13 11/11/11 12/12/12
f 14/14/14 13/13/13 12/12/12
f 11/11/11 15/15/15 9/9/9
f 16/16/16 14/14/14 12/12/12
f 14/14/14 16/16/16 17/17/17
f 18/18/18 16/16/16 12/12/12
f 18/18/18 19/19/19 16/16/16
f 16/16/16 20/20/20 17/17/17
f 19/19/19 20/20/20 16/16/16
f 17/17/17 20/20/20 21/21/21
f 20/20/20 19/19/19 21/21/21
f 19/19/19 22/22/22 21/21/21
f 22/22/22 19/19/19 23/23/23
f 19/19/19 18/18/18 24/24/24
f 24/24/24 18/18/18 25/25/25
f 19/19/19 26/26/26 23/23/23
f 26/26/26 19/19/19 24/24/24
f 26/26/26 27/27/27 23/23/23
f 26/26/26 24/24/24 27/27/27
f 24/24/24 28/28/28 27/27/27
f 28/28/28 24/24/24 25/25/25
f 29/29/29 28/28/28 25/25/25
f 30/30/30 29/29/29 25/25/25
f 30/30/30 25/25/25 31/31/31
f 30/30/30 31/31/31 32/32/32
f 33/33/33 30/30/30 32/32/32
f 31/31/31 34/34/34 32/32/32
f 35/35/35 33/33/33 32/32/32
f 36/36/36 33/33/33 35/35/35
f 36/36/36 35/35/35 37/37/37
f 37/37/37 38/38/38 36/36/36
f 39/39/39 38/38/38 37/37/37
f 40/40/40 39/39/39 37/37/37
f 34/34/34 41/41/41 32/32/32
f 34/34/34 42/42/42 41/41/41
f 43/43/43 35/35/35 32/32/32
f 35/35/35 43/43/43 37/37/37
f 44/44/44 43/43/43 32/32/32
f 41/41/41 44/44/44 32/32/32
f 43/43/43 45/45/45 37/37/37
f 46/46/46 44/44/44 41/41/41
f 40/40/40 37/37/37 47/47/47
f 45/45/45 47/47/47 37/37/37
f 48/48/48 40/40/40 47/47/47
f 49/49/49 48/48/48 47/47/47
f 46/46/46 41/41/41 50/50/50
f 50/50/50 51/51/51 46/46/46
f 52/52/52 47/47/47 45/45/45
f 52/52/52 49/49/49 47/47/47
f 41/41/41 53/53/53 50/50/50
f 42/42/42 53/53/53 41/41/41
f 54/54/54 51/51/51 50/50/50
f 55/55/55 51/51/51 54/54/54
f 54/54/54 56/56/56 55/55/55
f 57/57/57 45/45/45 55/55/55
f 57/57/57 52/52/52 45/45/45
f 56/56/56 57/57/57 55/55/55
f 52/52/52 58/58/58 49/49/49
f 49/49/49 58/58/58 59/59/59
f 53/53/53 60/60/60 50/50/50
f 54/54/54 50/50/50 60/60/60
f 42/42/42 61/61/61 53/53/53
f 60/60/60 53/53/53 61/61/61
f 62/62/62 52/52/52 57/57/57
f 58/58/58 52/52/52 62/62/62
f 63/63/63 62/62/62 57/57/57
f 63/63/63 57/57/57 56/56/56
f 64/64/64 63/63/63 56/56/56
f 65/65/65 64/64/64 56/56/56
f 58/58/58 62/62/62 66/66/66
f 67/67/67 65/65/65 56/56/56
f 54/54/54 68/68/68 56/56/56
f 68/68/68 67/67/67 56/56/56
f 68/68/68 54/54/54 60/60/60
f 69/69/69 67/67/67 68/68/68
f 66/66/66 70/70/70 58/58/58
f 66/66/66 71/71/71 70/70/70
f 58/58/58 70/70/70 59/59/59
f 71/71/71 72/72/72 70/70/70
f 59/59/59 70/70/70 73/73/73
f 72/72/72 73/73/73 70/70/70
f 74/74/74 59/59/59 73/73/73
f 73/73/73 72/72/72 75/75/75
f 74/74/74 73/73/73 75/75/75
f 76/76/76 74/74/74 75/75/75
f 72/72/72 77/77/77 75/75/75
f 78/78/78 76/76/76 75/75/75
f 79/79/79 75/75/75 77/77/77
f 79/79/79 78/78/78 75/75/75
f 77/77/77 80/80/80 79/79/79
f 78/78/78 79/79/79 81/81/81
f 82/82/82 79/79/79 80/80/80
f 79/79/79 82/82/82 81/81/81
f 83/83/83 82/82/82 80/80/80
f 82/82/82 83/83/83 81/81/81
f 80/80/80 84/84/84 83/83/83
f 83/83/83 85/85/85 81/81/81
f 86/86/86 83/83/83 84/84/84
f 85/85/85 83/83/83 86/86/86
f 87/87/87 85/85/85 86/86/86
f 88/88/88 87/87/87 86/86/86
f 84/84/84 89/89/89 86/86/86
f 90/90/90 88/88/88 86/86/86
f 89/89/89 90/90/90 86/86/86
f 91/91/91 88/88/88 90/90/90
f 90/90/90 89/89/89 92/92/92
f 92/92/92 91/91/91 90/90/90
f 89/89/89 93/93/93 92/92/92
f 92/92/92 93/93/93 94/94/94
f 92/92/92 95/95/95 91/91/91
f 92/92/92 94/94/94 95/95/95
f 95/95/95 96/96/96 91/91/91
f 97/97/97 95/95/95 94/94/94
f 95/95/95 98/98/98 96/96/96
f 97/97/97 98/98/98 95/95/95
f 96/96/96 98/98/98 99/99/99
f 100/100/100 96/96/96 99/99/99
f 101/101/101 100/100/100 99/99/99
f 102/102/102 101/101/101 99/99/99
f 103/103/103 101/101/101 102/102/102
f 104/104/104 103/103/103 102/102/102
f 104/104/104 102/102/102 105/105/105
f 98/98/98 97/97/97 106/106/106
f 97/97/97 107/107/107 106/106/106
f 106/106/106 107/107/107 108/108/108
f 107/107/107 109/109/109 108/108/108
f 109/109/109 110/110/110 108/108/108
f 110/110/110 111/111/111 108/108/108
f 99/99/99 98/98/98 112/112/112
f 98/98/98 106/106/106 112/112/112
f 99/99/99 112/112/112 102/102/102
f 112/112/112 106/106/106 113/113/113
f 106/106/106 108/108/108 113/113/113
f 112/112/112 114/114/114 102/102/102
f 115/115/115 105/105/105 102/102/102
f 114/114/114 115/115/115 102/102/102
f 15/15/15 105/105/105 115/115/115
f 15/15/15 115/115/115 9/9/9
f 115/115/115 114/114/114 9/9/9
f 114/114/114 116/116/116 9/9/9
f 116/116/116 7/7/7 9/9/9
f 116/116/116 117/117/117 7/7/7
f 7/7/7 117/117/117 118/118/118
f 119/119/119 118/118/118 117/117/117
f 6/6/6 7/7/7 118/118/118
f 119/119/119 113/113/113 120/120/120
f 119/119/119 120/120/120 118/118/118
f 108/108/108 120/120/120 113/113/113
f 121/121/121 6/6/6 118/118/118
f 118/118/118 120/120/120 121/121/121
f 6/6/6 121/121/121 4/4/4
f 122/122/122 120/120/120 108/108/108
f 120/120/120 122/122/122 121/121/121
f 111/111/111 122/122/122 108/108/108
f 111/111/111 123/123/123 122/122/122
f 4/4/4 121/121/121 124/124/124
f 121/121/121 122/122/122 124/124/124
f 124/124/124 5/5/5 4/4/4
f 122/122/122 125/125/125 124/124/124
f 5/5/5 124/124/124 125/125/125
f 123/123/123 125/125/125 122/122/122
f 126/126/126 5/5/5 125/125/125
f 126/126/126 125/125/125 123/123/123
f 127/127/127 126/126/126 123/123/123
f 130/130/130 129/129/129 128/128/128
f 128/128/128 131/131/131 130/130/130
f 132/132/132 131/131/131 128/128/128
f 133/133/133 131/131/131 132/132/132
f 133/133/133 132/132/132 134/134/134
f 131/131/131 135/135/135 130/130/130
f 131/131/131 133/133/133 135/135/135
f 135/135/135 136/136/136 130/130/130
f 136/136/136 137/137/137 130/130/130
f 137/137/137 136/136/136 138/138/138
f 138/138/138 136/136/136 139/139/139
f 139/139/139 136/136/136 135/135/135
f 135/135/135 140/140/140 139/139/139
f 139/139/139 140/140/140 141/141/141
f 133/133/133 142/142/142 135/135/135
f 142/142/142 140/140/140 135/135/135
f 133/133/133 143/143/143 142/142/142
f 143/143/143 140/140/140 142/142/142
f 143/143/143 133/133/133 134/134/134
f 140/140/140 143/143/143 141/141/141
f 141/141/141 143/143/143 134/134/134
f 141/141/141 134/134/134 144/144/144
f 145/145/145 141/141/141 144/144/144
f 144/144/144 146/146/146 145/145/145
f 148/148/148 147/147/147 42/42/42
f 147/147/147 61/61/61 42/42/42
f 147/147/147 149/149/149 61/61/61
f 149/149/149 150/150/150 61/61/61
f 60/60/60 61/61/61 150/150/150
f 68/68/68 60/60/60 150/150/150
f 150/150/150 149/149/149 151/151/151
f 151/151/151 68/68/68 150/150/150
f 149/149/149 152/152/152 151/151/151
f 151/151/151 69/69/69 68/68/68
f 151/151/151 152/152/152 69/69/69
f 152/152/152 153/153/153 69/69/69
f 156/156/156 155/155/155 154/154/154
f 157/157/157 154/154/154 155/155/155
f 157/157/157 158/158/158 154/154/154
f 157/157/157 159/159/159 158/158/158
f 158/158/158 159/159/159 160/160/160
f 161/161/161 157/157/157 155/155/155
f 162/162/162 159/159/159 157/157/157
f 161/161/161 162/162/162 157/157/157
f 162/162/162 163/163/163 159/159/159
f 162/162/162 161/161/161 163/163/163
f 159/159/159 164/164/164 160/160/160
f 163/163/163 164/164/164 159/159/159
f 164/164/164 165/165/165 160/160/160
f 164/164/164 163/163/163 165/165/165
f 160/160/160 165/165/165 166/166/166
f 165/165/165 167/167/167 166/166/166
f 168/168/168 166/166/166 167/167/167
f 163/163/163 169/169/169 165/165/165
f 169/169/169 163/163/163 161/161/161
f 170/170/170 161/161/161 155/155/155
f 161/161/161 170/170/170 169/169/169
f 171/171/171 170/170/170 155/155/155
f 170/170/170 172/172/172 169/169/169
f 171/171/171 172/172/172 170/170/170
