g bf_geo
v 0.1316337 1.209632 -0.1501002
v 0.1332658 1.25874 -0.07488418
v 0.1881209 1.21159 -0.09461816
v 0.1884197 1.163502 -0.1591903
v 0.2307303 1.167353 -0.09745707
v 0.1439471 1.151798 -0.1871555
v 0.1801556 1.060085 -0.2193438
v 0.2775187 1.052639 -0.1565893
v 0.223011 0.958383 -0.2278165
v 0.29751 0.9586256 -0.1805033
v 0.2763412 0.8276209 -0.2333334
v 0.3217624 0.8170926 -0.2071896
v 0.3531089 0.6849936 -0.2342466
vt 0.4672852 0.6894531
vt 0.4387207 0.6533203
vt 0.4675293 0.6391602
vt 0.5019531 0.6582031
vt 0.4953613 0.6240234
vt 0.5019531 0.6894531
vt 0.5517578 0.6777344
vt 0.5561523 0.6240234
vt 0.5991211 0.6645508
vt 0.6000977 0.6240234
vt 0.6582031 0.6474609
vt 0.6640625 0.6240234
vt 0.7089844 0.6240234
vn -0.4490662 -0.6934513 0.5634401
vn -0.4584137 -0.7395886 0.4928139
vn -0.5151078 -0.6995986 0.4952028
vn -0.5470648 -0.5271083 0.6502899
vn -0.6650049 -0.5628427 0.4908937
vn -0.3734154 -0.4791234 0.7943561
vn -0.5149692 -0.3463647 0.7841161
vn -0.5427076 -0.3507532 0.763178
vn -0.5228804 -0.2787484 0.8055403
vn -0.5227057 -0.2729746 0.8076285
vn -0.5224492 -0.2515634 0.8147163
vn -0.5235557 -0.2600293 0.811341
vn -0.5270011 -0.2887702 0.7993007
g bf_geo_0
f 3/3/3 2/2/2 1/1/1
f 3/3/3 1/1/1 4/4/4
f 5/5/5 3/3/3 4/4/4
f 4/4/4 1/1/1 6/6/6
f 4/4/4 6/6/6 7/7/7
f 8/8/8 5/5/5 4/4/4
f 7/7/7 8/8/8 4/4/4
f 8/8/8 7/7/7 9/9/9
f 10/10/10 8/8/8 9/9/9
f 10/10/10 9/9/9 11/11/11
f 12/12/12 10/10/10 11/11/11
f 11/11/11 13/13/13 12/12/12
