g facial_eye_geo
v 0.08221532 1.391909 0.1019892
v 0.06780035 1.384944 0.1248612
v 0.06936054 1.397926 0.1277053
v 0.04552417 1.381651 0.1366562
v 0.08284591 1.404039 0.1079475
v 0.09326238 1.398181 0.07397052
v 0.09455477 1.427645 0.07677366
v 0.08299683 1.441489 0.1112057
v 0.093989 1.463424 0.0815047
v 0.04195084 1.396934 0.1417919
v 0.02825866 1.379659 0.14563
v 0.08078841 1.422501 0.1143131
v 0.01469127 1.406948 0.1473702
v 0.01724691 1.379693 0.155903
v 0.006640688 1.398973 0.1605478
v 0.009937149 1.38041 0.1686901
v -6.525713E-05 1.38039 0.176848
v 0.07713961 1.457231 0.125565
v 0.08450157 1.487406 0.1166908
v 0.09435583 1.485365 0.07899643
v 0.09644809 1.515488 0.07417595
v 0.08248875 1.520273 0.1101824
v 0.06632004 1.522713 0.1320439
v 0.06729516 1.488085 0.1351679
v 0.04785087 1.521956 0.1446917
v 0.07483011 1.441153 0.1291377
v 0.06694047 1.465692 0.1393891
v 0.06736537 1.455791 0.1440714
v 0.04787564 1.4637 0.1580863
v 0.04849529 1.487516 0.1552224
v 0.02609877 1.485988 0.1569118
v 0.02336348 1.519701 0.153806
v -6.525713E-05 1.483475 0.1612627
v -6.525713E-05 1.518571 0.1575432
v -0.023494 1.519701 0.153806
v 0.02486148 1.453241 0.1598333
v -0.02622929 1.485988 0.1569118
v -0.04798139 1.521956 0.1446917
v 0.05353446 1.453583 0.1547456
v 0.06554553 1.444431 0.1423841
v 0.03823837 1.446704 0.1596859
v -0.0486258 1.487516 0.1552224
v -0.024992 1.453241 0.1598333
v -0.06742566 1.488085 0.1351679
v -0.06645056 1.522713 0.1320439
v -0.0846321 1.487406 0.1166908
v -0.08261926 1.520273 0.1101824
v -0.0965786 1.515488 0.07417595
v -0.09448634 1.485365 0.07899643
v -0.09411951 1.463424 0.0815047
v -0.04800615 1.4637 0.1580863
v -0.06707098 1.465692 0.1393891
v -0.07727013 1.457231 0.125565
v -0.06749588 1.455791 0.1440714
v -0.08312736 1.441489 0.1112057
v -0.09468528 1.427645 0.07677366
v -0.07496062 1.441153 0.1291377
v -0.08297642 1.404039 0.1079475
v -0.09339289 1.398181 0.07397052
v -0.08234584 1.391909 0.1019892
v -0.06949106 1.397926 0.1277053
v -0.06793086 1.384944 0.1248612
v -0.04565468 1.381651 0.1366562
v -0.08091892 1.422501 0.1143131
v -0.04208136 1.396934 0.1417919
v -0.02838917 1.379659 0.14563
v -0.01482178 1.406948 0.1473702
v -0.01737743 1.379693 0.155903
v -0.006771202 1.398973 0.1605478
v -0.01006766 1.38041 0.1686901
v -6.525713E-05 1.398385 0.1667828
v -6.525713E-05 1.418233 0.1593629
v -0.007978622 1.414445 0.1573464
v -0.0222446 1.419692 0.1407149
v -0.04461512 1.413994 0.1377037
v 0.007848107 1.414445 0.1573464
v 0.02211408 1.419692 0.1407149
v -0.01240932 1.425921 0.1523756
v 0.01227881 1.425921 0.1523756
v -0.06500066 1.41503 0.1279403
v -0.0696663 1.433679 0.1290253
v -0.05492967 1.434515 0.139148
v -0.03796019 1.431042 0.1443597
v -0.06567604 1.444431 0.1423841
v -0.05348124 1.442329 0.1480499
v -0.05366497 1.453583 0.1547456
v -0.03836889 1.446704 0.1596859
v -0.02221774 1.427475 0.1393698
v -0.03752504 1.43613 0.1526482
v -0.025249 1.441272 0.160512
v -0.02448118 1.432908 0.1537716
v -0.01199739 1.448321 0.1632339
v -0.01118644 1.430969 0.1580285
v -6.525713E-05 1.448256 0.1646417
v -6.525713E-05 1.428022 0.1568401
v -6.525713E-05 1.436914 0.1619674
v 0.01105592 1.430969 0.1580285
v 0.01186688 1.448321 0.1632339
v 0.02511848 1.441272 0.160512
v 0.02435067 1.432908 0.1537716
v 0.03739452 1.43613 0.1526482
v 0.02208723 1.427475 0.1393698
v 0.05335071 1.442329 0.1480499
v 0.03782967 1.431042 0.1443597
v 0.05479916 1.434515 0.139148
v 0.04448461 1.413994 0.1377037
v 0.06953578 1.433679 0.1290253
v 0.06487015 1.41503 0.1279403
vt 0.3312988 0.3376465
vt 0.3105469 0.3483887
vt 0.3186035 0.3571777
vt 0.2912598 0.3503418
vt 0.3310547 0.3554688
vt 0.3557129 0.3398438
vt 0.3605957 0.3662109
vt 0.3344727 0.4047852
vt 0.3591309 0.401123
vt 0.2905273 0.3686523
vt 0.2766113 0.3496094
vt 0.328125 0.3894043
vt 0.2670898 0.3769531
vt 0.2687988 0.3518066
vt 0.2573242 0.3713379
vt 0.2578125 0.3532715
vt 0.2502441 0.3510742
vt 0.3244629 0.4150391
vt 0.3378906 0.4277344
vt 0.3657227 0.4155273
vt 0.3723145 0.4375
vt 0.3474121 0.4521484
vt 0.3251953 0.4584961
vt 0.3193359 0.4331055
vt 0.3007812 0.4621582
vt 0.3203125 0.4055176
vt 0.3122559 0.4216309
vt 0.3083496 0.4165039
vt 0.2902832 0.4211426
vt 0.2988281 0.4360352
vt 0.2744141 0.4367676
vt 0.2749023 0.4638672
vt 0.2502441 0.4353027
vt 0.2502441 0.467041
vt 0.2255859 0.4638672
vt 0.2722168 0.4233398
vt 0.2261963 0.4367676
vt 0.199707 0.4621582
vt 0.2961426 0.4162598
vt 0.3059082 0.4084473
vt 0.2832031 0.4143066
vt 0.2016602 0.4360352
vt 0.2282715 0.4233398
vt 0.1811523 0.4331055
vt 0.175415 0.4584961
vt 0.1625977 0.4277344
vt 0.1530762 0.4521484
vt 0.1280518 0.4375
vt 0.1347656 0.4155273
vt 0.1413574 0.401123
vt 0.2102051 0.4211426
vt 0.1882324 0.4216309
vt 0.1760254 0.4150391
vt 0.1920166 0.4165039
vt 0.1660156 0.4047852
vt 0.1400146 0.3662109
vt 0.1802979 0.4055176
vt 0.1693115 0.3554688
vt 0.1447754 0.3398438
vt 0.1693115 0.3376465
vt 0.1818848 0.3571777
vt 0.1899414 0.3483887
vt 0.2092285 0.3503418
vt 0.1722412 0.3894043
vt 0.2099609 0.3686523
vt 0.2237549 0.3496094
vt 0.2333984 0.3769531
vt 0.2318115 0.3518066
vt 0.2431641 0.3713379
vt 0.2427979 0.3532715
vt 0.2502441 0.3710938
vt 0.2502441 0.3884277
vt 0.2419434 0.3847656
vt 0.2305908 0.3835449
vt 0.2073975 0.3803711
vt 0.2585449 0.3847656
vt 0.2697754 0.3835449
vt 0.2381592 0.3918457
vt 0.2624512 0.3918457
vt 0.1859131 0.3806152
vt 0.1846924 0.4006348
vt 0.1994629 0.4006348
vt 0.2154541 0.3962402
vt 0.1945801 0.4084473
vt 0.2055664 0.4072266
vt 0.2042236 0.4162598
vt 0.2172852 0.4143066
vt 0.2287598 0.3901367
vt 0.2180176 0.4035645
vt 0.2331543 0.4099121
vt 0.2296143 0.4018555
vt 0.2408447 0.4145508
vt 0.2403564 0.3979492
vt 0.2502441 0.4138184
vt 0.2502441 0.3959961
vt 0.2502441 0.4038086
vt 0.2600098 0.3979492
vt 0.2595215 0.4145508
vt 0.2668457 0.4099121
vt 0.270752 0.4018555
vt 0.2824707 0.4035645
vt 0.2717285 0.3901367
vt 0.2949219 0.4072266
vt 0.2851562 0.3962402
vt 0.3010254 0.4006348
vt 0.2929688 0.3803711
vt 0.315918 0.4006348
vt 0.3144531 0.3806152
vn 0.8613007 -0.3290468 0.3871556
vn 0.7046 -0.3100676 0.6382765
vn 0.6526909 -0.0753005 0.753873
vn 0.4873554 -0.1054856 0.8668088
vn 0.9154142 -0.1057201 0.3883816
vn 0.9317391 -0.3186948 0.1740572
vn 0.9832613 -0.04954793 0.1753352
vn 0.9357641 -0.01727539 0.352203
vn 0.953862 0.02872632 0.2988683
vn 0.3552417 0.03855145 0.9339792
vn 0.4861399 0.04281149 0.8728318
vn 0.8237052 -0.07496148 0.5620414
vn 0.549149 0.1523166 0.8217268
vn 0.7235893 0.002808851 0.6902251
vn 0.6702194 0.2864522 0.6846541
vn 0.7078931 0.05609735 0.7040883
vn -0 0.3714332 0.9284598
vn 0.9022823 -0.04669832 0.4286093
vn 0.8961422 0.03932761 0.442021
vn 0.964081 0.04544315 0.2616919
vn 0.9451552 0.1678448 0.2801958
vn 0.842175 0.2161256 0.4939949
vn 0.6535287 0.2184272 0.7246998
vn 0.7125143 0.1295944 0.6895858
vn 0.4402038 0.2058888 0.8739739
vn 0.8237923 -0.188276 0.5347134
vn 0.7302791 0.1094915 0.6743175
vn 0.7082162 0.03005819 0.7053555
vn 0.4720676 0.1138253 0.8741831
vn 0.4640856 0.1563828 0.8718767
vn 0.1577493 0.1305737 0.9788083
vn 0.214353 0.2087466 0.9541896
vn -0 0.1006558 0.9949213
vn -0 0.1688323 0.9856448
vn -0.214353 0.2087466 0.9541895
vn 0.1274686 0.09311292 0.9874623
vn -0.1577491 0.1305734 0.9788084
vn -0.4402041 0.205889 0.8739737
vn 0.5569897 -0.1264656 0.8208342
vn 0.5853761 -0.445866 0.6771545
vn 0.2864046 -0.3267803 0.9006593
vn -0.4640856 0.1563827 0.8718767
vn -0.1274689 0.09311312 0.9874622
vn -0.7125149 0.1295946 0.6895852
vn -0.653529 0.2184274 0.7246993
vn -0.8961425 0.0393279 0.4420202
vn -0.8421751 0.2161255 0.4939947
vn -0.9451553 0.1678446 0.2801956
vn -0.9640812 0.04544305 0.2616917
vn -0.953862 0.02872642 0.2988683
vn -0.4720682 0.1138254 0.8741827
vn -0.730279 0.1094912 0.6743177
vn -0.9022822 -0.04669881 0.4286095
vn -0.708213 0.03005749 0.7053587
vn -0.9357644 -0.01727527 0.3522024
vn -0.9832613 -0.04954793 0.1753351
vn -0.8237937 -0.188276 0.5347111
vn -0.915414 -0.1057203 0.3883818
vn -0.9317392 -0.3186949 0.1740567
vn -0.8613013 -0.329047 0.3871539
vn -0.6526922 -0.07530059 0.7538718
vn -0.7045994 -0.3100673 0.6382773
vn -0.4873556 -0.1054858 0.8668087
vn -0.8237054 -0.07496168 0.5620412
vn -0.3552415 0.03855226 0.9339792
vn -0.4861397 0.04281145 0.8728318
vn -0.5491472 0.1523171 0.8217279
vn -0.7235895 0.002808942 0.6902249
vn -0.6702182 0.2864518 0.6846553
vn -0.7078925 0.05609726 0.704089
vn -1.387505E-07 0.4251654 0.9051157
vn 9.05998E-07 0.2654464 0.9641257
vn -0.6391197 0.1267086 0.758598
vn -0.3375452 0.07927825 0.937965
vn -0.3549373 -0.05072151 0.9335132
vn 0.6391182 0.1267084 0.7585993
vn 0.3375459 0.07927656 0.9379647
vn -0.6129676 -0.3399013 0.7132586
vn 0.6129667 -0.3398991 0.7132605
vn -0.5317152 -0.08555994 0.8425905
vn -0.5399219 -0.2778917 0.7945191
vn -0.4535401 -0.360792 0.8149421
vn -0.1935253 -0.5085235 0.8390185
vn -0.5853766 -0.4458659 0.6771541
vn -0.461087 -0.5008312 0.7325071
vn -0.5569878 -0.1264659 0.8208355
vn -0.286406 -0.3267804 0.9006588
vn -0.3246721 -0.5131637 0.794513
vn -0.3382175 -0.6491446 0.6813372
vn -0.1929098 -0.3750219 0.9067218
vn -0.3181205 -0.7634254 0.5621219
vn -0.1579176 -0.0280259 0.9870545
vn -0.1568332 -0.4476905 0.8803276
vn -0 -0.06945311 0.9975852
vn -1.458562E-07 -0.1887084 0.9820332
vn -0 -0.3013355 0.9535182
vn 0.1568336 -0.4476917 0.8803267
vn 0.1579172 -0.02802579 0.9870545
vn 0.1929095 -0.3750211 0.9067221
vn 0.3181207 -0.7634254 0.5621216
vn 0.3382173 -0.6491449 0.6813369
vn 0.3246728 -0.5131626 0.7945135
vn 0.4610874 -0.5008331 0.7325057
vn 0.1935253 -0.5085227 0.8390189
vn 0.4535393 -0.3607922 0.8149423
vn 0.3549365 -0.05072179 0.9335135
vn 0.5399213 -0.2778919 0.7945193
vn 0.531714 -0.08555969 0.8425911
g facial_eye_geo_0
f 3/3/3 2/2/2 1/1/1
f 2/2/2 3/3/3 4/4/4
f 1/1/1 5/5/5 3/3/3
f 5/5/5 1/1/1 6/6/6
f 5/5/5 6/6/6 7/7/7
f 8/8/8 5/5/5 7/7/7
f 8/8/8 7/7/7 9/9/9
f 3/3/3 10/10/10 4/4/4
f 4/4/4 10/10/10 11/11/11
f 12/12/12 5/5/5 8/8/8
f 3/3/3 5/5/5 12/12/12
f 10/10/10 13/13/13 11/11/11
f 14/14/14 11/11/11 13/13/13
f 15/15/15 14/14/14 13/13/13
f 15/15/15 16/16/16 14/14/14
f 16/16/16 15/15/15 17/17/17
f 18/18/18 8/8/8 9/9/9
f 18/18/18 9/9/9 19/19/19
f 20/20/20 19/19/19 9/9/9
f 20/20/20 21/21/21 19/19/19
f 21/21/21 22/22/22 19/19/19
f 19/19/19 22/22/22 23/23/23
f 24/24/24 19/19/19 23/23/23
f 24/24/24 23/23/23 25/25/25
f 18/18/18 26/26/26 8/8/8
f 8/8/8 26/26/26 12/12/12
f 27/27/27 18/18/18 19/19/19
f 24/24/24 27/27/27 19/19/19
f 27/27/27 28/28/28 18/18/18
f 26/26/26 18/18/18 28/28/28
f 29/29/29 27/27/27 24/24/24
f 27/27/27 29/29/29 28/28/28
f 30/30/30 24/24/24 25/25/25
f 30/30/30 29/29/29 24/24/24
f 31/31/31 30/30/30 25/25/25
f 32/32/32 31/31/31 25/25/25
f 31/31/31 32/32/32 33/33/33
f 32/32/32 34/34/34 33/33/33
f 34/34/34 35/35/35 33/33/33
f 30/30/30 31/31/31 36/36/36
f 36/36/36 29/29/29 30/30/30
f 36/36/36 31/31/31 33/33/33
f 35/35/35 37/37/37 33/33/33
f 37/37/37 35/35/35 38/38/38
f 29/29/29 39/39/39 28/28/28
f 28/28/28 40/40/40 26/26/26
f 28/28/28 39/39/39 40/40/40
f 36/36/36 41/41/41 29/29/29
f 41/41/41 39/39/39 29/29/29
f 42/42/42 37/37/37 38/38/38
f 37/37/37 43/43/43 33/33/33
f 43/43/43 37/37/37 42/42/42
f 44/44/44 42/42/42 38/38/38
f 45/45/45 44/44/44 38/38/38
f 46/46/46 44/44/44 45/45/45
f 47/47/47 46/46/46 45/45/45
f 47/47/47 48/48/48 46/46/46
f 48/48/48 49/49/49 46/46/46
f 46/46/46 49/49/49 50/50/50
f 51/51/51 42/42/42 44/44/44
f 42/42/42 51/51/51 43/43/43
f 52/52/52 44/44/44 46/46/46
f 52/52/52 51/51/51 44/44/44
f 46/46/46 50/50/50 53/53/53
f 53/53/53 52/52/52 46/46/46
f 52/52/52 54/54/54 51/51/51
f 54/54/54 52/52/52 53/53/53
f 50/50/50 55/55/55 53/53/53
f 56/56/56 55/55/55 50/50/50
f 54/54/54 53/53/53 57/57/57
f 57/57/57 53/53/53 55/55/55
f 56/56/56 58/58/58 55/55/55
f 59/59/59 58/58/58 56/56/56
f 59/59/59 60/60/60 58/58/58
f 61/61/61 58/58/58 60/60/60
f 60/60/60 62/62/62 61/61/61
f 61/61/61 62/62/62 63/63/63
f 58/58/58 64/64/64 55/55/55
f 57/57/57 55/55/55 64/64/64
f 58/58/58 61/61/61 64/64/64
f 65/65/65 61/61/61 63/63/63
f 65/65/65 63/63/63 66/66/66
f 67/67/67 65/65/65 66/66/66
f 66/66/66 68/68/68 67/67/67
f 68/68/68 69/69/69 67/67/67
f 68/68/68 70/70/70 69/69/69
f 69/69/69 70/70/70 17/17/17
f 71/71/71 69/69/69 17/17/17
f 71/71/71 72/72/72 69/69/69
f 15/15/15 71/71/71 17/17/17
f 72/72/72 71/71/71 15/15/15
f 69/69/69 73/73/73 67/67/67
f 72/72/72 73/73/73 69/69/69
f 65/65/65 67/67/67 74/74/74
f 67/67/67 73/73/73 74/74/74
f 75/75/75 61/61/61 65/65/65
f 75/75/75 65/65/65 74/74/74
f 76/76/76 72/72/72 15/15/15
f 76/76/76 15/15/15 13/13/13
f 76/76/76 13/13/13 77/77/77
f 13/13/13 10/10/10 77/77/77
f 73/73/73 78/78/78 74/74/74
f 73/73/73 72/72/72 78/78/78
f 72/72/72 76/76/76 79/79/79
f 79/79/79 76/76/76 77/77/77
f 80/80/80 61/61/61 75/75/75
f 61/61/61 80/80/80 64/64/64
f 80/80/80 81/81/81 64/64/64
f 81/81/81 80/80/80 75/75/75
f 64/64/64 81/81/81 57/57/57
f 82/82/82 81/81/81 75/75/75
f 81/81/81 82/82/82 57/57/57
f 75/75/75 74/74/74 83/83/83
f 83/83/83 82/82/82 75/75/75
f 84/84/84 57/57/57 82/82/82
f 57/57/57 84/84/84 54/54/54
f 84/84/84 82/82/82 85/85/85
f 85/85/85 82/82/82 83/83/83
f 86/86/86 54/54/54 84/84/84
f 85/85/85 86/86/86 84/84/84
f 54/54/54 86/86/86 51/51/51
f 86/86/86 87/87/87 51/51/51
f 86/86/86 85/85/85 87/87/87
f 87/87/87 43/43/43 51/51/51
f 74/74/74 88/88/88 83/83/83
f 88/88/88 74/74/74 78/78/78
f 85/85/85 83/83/83 89/89/89
f 85/85/85 89/89/89 87/87/87
f 83/83/83 88/88/88 89/89/89
f 87/87/87 90/90/90 43/43/43
f 90/90/90 87/87/87 89/89/89
f 91/91/91 89/89/89 88/88/88
f 88/88/88 78/78/78 91/91/91
f 91/91/91 90/90/90 89/89/89
f 90/90/90 92/92/92 43/43/43
f 92/92/92 33/33/33 43/43/43
f 93/93/93 90/90/90 91/91/91
f 91/91/91 78/78/78 93/93/93
f 90/90/90 93/93/93 92/92/92
f 33/33/33 92/92/92 94/94/94
f 94/94/94 92/92/92 93/93/93
f 95/95/95 93/93/93 78/78/78
f 72/72/72 95/95/95 78/78/78
f 95/95/95 72/72/72 79/79/79
f 96/96/96 93/93/93 95/95/95
f 96/96/96 94/94/94 93/93/93
f 97/97/97 96/96/96 95/95/95
f 94/94/94 96/96/96 97/97/97
f 97/97/97 95/95/95 79/79/79
f 98/98/98 33/33/33 94/94/94
f 98/98/98 94/94/94 97/97/97
f 33/33/33 98/98/98 36/36/36
f 98/98/98 99/99/99 36/36/36
f 98/98/98 97/97/97 99/99/99
f 36/36/36 99/99/99 41/41/41
f 79/79/79 100/100/100 97/97/97
f 99/99/99 97/97/97 100/100/100
f 41/41/41 99/99/99 101/101/101
f 99/99/99 100/100/100 101/101/101
f 41/41/41 101/101/101 39/39/39
f 79/79/79 102/102/102 100/100/100
f 101/101/101 100/100/100 102/102/102
f 77/77/77 102/102/102 79/79/79
f 101/101/101 103/103/103 39/39/39
f 39/39/39 103/103/103 40/40/40
f 102/102/102 104/104/104 101/101/101
f 102/102/102 77/77/77 104/104/104
f 104/104/104 103/103/103 101/101/101
f 105/105/105 40/40/40 103/103/103
f 105/105/105 103/103/103 104/104/104
f 26/26/26 40/40/40 105/105/105
f 77/77/77 106/106/106 104/104/104
f 105/105/105 104/104/104 106/106/106
f 10/10/10 106/106/106 77/77/77
f 3/3/3 106/106/106 10/10/10
f 105/105/105 107/107/107 26/26/26
f 107/107/107 105/105/105 106/106/106
f 107/107/107 12/12/12 26/26/26
f 3/3/3 108/108/108 106/106/106
f 108/108/108 3/3/3 12/12/12
f 107/107/107 108/108/108 12/12/12
f 108/108/108 107/107/107 106/106/106
