g facial_eye_geo
v -0.0951654 1.421829 0.08173738
v -0.08214577 1.396827 0.09974252
v -0.09120434 1.400477 0.077767
v -0.08533002 1.41913 0.09751206
v -0.07289305 1.397321 0.1083113
v -0.09879865 1.448778 0.08329013
v -0.07599677 1.418568 0.1044619
v -0.05916985 1.399516 0.11699
v -0.09270474 1.448719 0.1008484
v -0.06269731 1.4178 0.1104838
v -0.04083182 1.404103 0.1248052
v -0.09594344 1.473394 0.1073772
v -0.1040778 1.477023 0.08016225
v -0.09624074 1.49283 0.1085225
v -0.1077586 1.510913 0.07416855
v -0.09439208 1.518027 0.1079702
v -0.07298391 1.519011 0.1280463
v -0.07504523 1.473303 0.1232129
v -0.07585768 1.495844 0.1263178
v -0.04914852 1.517234 0.1366197
v -0.06933707 1.461205 0.1137254
v -0.03958256 1.419689 0.117405
v -0.04016263 1.449125 0.1223542
v -0.04030725 1.456464 0.1257917
v -0.04982975 1.468124 0.1323389
v -0.05056675 1.492417 0.1362712
v -0.02016475 1.424891 0.124116
v -0.0206229 1.405689 0.1345898
v -0 1.407625 0.141607
v -0.0227368 1.441733 0.1230363
v -0.02408026 1.486707 0.1418336
v -0.02276849 1.513936 0.1419598
v -0 1.483322 0.1436775
v -0 1.511453 0.1436531
v 0.02276849 1.513936 0.1419598
v -0.02347889 1.459766 0.1385903
v -0.02090353 1.449923 0.1314763
v -0 1.442126 0.1369405
v -0 1.425181 0.1350447
v 0.02016475 1.424891 0.124116
v 0.0206229 1.405689 0.1345898
v 0.04083182 1.404103 0.1248052
v 0.0227368 1.441733 0.1230363
v 0.03958256 1.419689 0.117405
v -0 1.461069 0.1411938
v 0.02347889 1.459766 0.1385903
v 0.06269731 1.4178 0.1104838
v 0.05916985 1.399516 0.11699
v 0.07289305 1.397321 0.1083113
v 0.02090353 1.449923 0.1314763
v 0.02408026 1.486707 0.1418336
v 0.04914852 1.517234 0.1366197
v 0.05056675 1.492417 0.1362712
v 0.04982975 1.468124 0.1323389
v 0.07585768 1.495844 0.1263178
v 0.07298391 1.519011 0.1280463
v 0.04030725 1.456464 0.1257917
v 0.09624074 1.49283 0.1085225
v 0.09439208 1.518027 0.1079702
v 0.1077586 1.510913 0.07416855
v 0.1040778 1.477023 0.08016225
v 0.07504523 1.473303 0.1232129
v 0.09594344 1.473394 0.1073772
v 0.09879865 1.448778 0.08329013
v 0.04016263 1.449125 0.1223542
v 0.06933707 1.461205 0.1137254
v 0.09270474 1.448719 0.1008484
v 0.08533002 1.41913 0.09751206
v 0.0951654 1.421829 0.08173738
v 0.07599677 1.418568 0.1044619
v 0.08214577 1.396827 0.09974252
v 0.09120434 1.400477 0.077767
vt 0.1420898 0.3886719
vt 0.1657715 0.362793
vt 0.144165 0.3664551
vt 0.1634521 0.3852539
vt 0.177124 0.3637695
vt 0.1429443 0.4125977
vt 0.1745605 0.3842773
vt 0.192627 0.3662109
vt 0.1584473 0.4125977
vt 0.1876221 0.3837891
vt 0.210083 0.3706055
vt 0.1582031 0.4355469
vt 0.1375732 0.4387207
vt 0.1577148 0.4533691
vt 0.1328125 0.4702148
vt 0.15979 0.4768066
vt 0.1804199 0.4777832
vt 0.1799316 0.439209
vt 0.1787109 0.4562988
vt 0.2025146 0.4760742
vt 0.1828613 0.4240723
vt 0.2086182 0.385498
vt 0.2094727 0.4133301
vt 0.2097168 0.420166
vt 0.2034912 0.4350586
vt 0.2019043 0.453125
vt 0.2277832 0.3908691
vt 0.2290039 0.3740234
vt 0.25 0.3769531
vt 0.2252197 0.4052734
vt 0.2268066 0.4477539
vt 0.2280273 0.4731445
vt 0.25 0.4445801
vt 0.25 0.4707031
vt 0.2719727 0.4731445
vt 0.2280273 0.4267578
vt 0.2285156 0.4125977
vt 0.25 0.4060059
vt 0.25 0.3911133
vt 0.2722168 0.3908691
vt 0.2709961 0.3740234
vt 0.2897949 0.3706055
vt 0.2746582 0.4052734
vt 0.2915039 0.385498
vt 0.25 0.4240723
vt 0.2719727 0.4267578
vt 0.3125 0.3837891
vt 0.307373 0.3662109
vt 0.3227539 0.3637695
vt 0.2714844 0.4125977
vt 0.2731934 0.4477539
vt 0.2976074 0.4760742
vt 0.2980957 0.453125
vt 0.2963867 0.4350586
vt 0.3212891 0.4562988
vt 0.3195801 0.4777832
vt 0.2902832 0.420166
vt 0.3422852 0.4533691
vt 0.3400879 0.4768066
vt 0.3671875 0.4702148
vt 0.3623047 0.4387207
vt 0.3200684 0.439209
vt 0.3417969 0.4355469
vt 0.3571777 0.4125977
vt 0.2905273 0.4133301
vt 0.3171387 0.4240723
vt 0.3415527 0.4125977
vt 0.3364258 0.3852539
vt 0.3579102 0.3886719
vt 0.3254395 0.3842773
vt 0.3342285 0.362793
vt 0.355957 0.3664551
vn -0.9497948 -0.1670361 0.264554
vn -0.8397738 -0.1030544 0.5330665
vn -0.9427214 -0.2247767 0.2464791
vn -0.8160017 -0.1514218 0.5578644
vn -0.5654827 0.02729353 0.8243085
vn -0.945959 -0.1816639 0.2686261
vn -0.5320625 -0.02139681 0.8464346
vn -0.4552005 0.1259533 0.8814353
vn -0.6874644 -0.2377442 0.6862
vn -0.3740608 -0.005497403 0.927388
vn -0.4480081 0.2521242 0.8577424
vn -0.7803873 -0.1485107 0.6074045
vn -0.9718288 -0.1083274 0.2093181
vn -0.801119 -0.01359815 0.5983506
vn -0.9638045 -0.02885241 0.2650446
vn -0.7867146 0.05953203 0.6144397
vn -0.5150535 0.01843124 0.8569599
vn -0.4708679 -0.2451277 0.8474643
vn -0.5211617 -0.042519 0.8523983
vn -0.2762952 -0.003453906 0.9610665
vn -0.3301046 -0.3205923 0.8878353
vn -0.3274721 0.03131249 0.9443419
vn -0.2866112 -0.1744171 0.9420364
vn -0.3892056 -0.5936812 0.7043165
vn -0.3247308 -0.2520121 0.9116139
vn -0.2924443 -0.07218257 0.9535544
vn -0.4097354 0.247183 0.878076
vn -0.4529282 0.3456782 0.8218045
vn -0 0.4514554 0.8922937
vn -0.3390434 -0.2442043 0.9085229
vn -0.1635853 -0.06539799 0.9843591
vn -0.1440849 0.0008744186 0.9895649
vn -0 -0.06065838 0.9981586
vn -0 -4.752503E-05 1
vn 0.144085 0.0008744176 0.9895649
vn -0.2101202 -0.2261096 0.9511698
vn -0.3975615 -0.6116751 0.6839579
vn -1.700621E-07 -0.2527708 0.9675262
vn 7.019314E-07 0.2819113 0.9594405
vn 0.4097363 0.2471836 0.8780754
vn 0.452923 0.3456843 0.8218048
vn 0.4480053 0.2521384 0.8577397
vn 0.3390436 -0.2442046 0.9085227
vn 0.3274719 0.03131204 0.9443419
vn -0 -0.1436445 0.9896293
vn 0.2101207 -0.2261102 0.9511696
vn 0.3740612 -0.005497796 0.9273878
vn 0.4552004 0.1259532 0.8814355
vn 0.5654815 0.02729361 0.8243093
vn 0.3975613 -0.611675 0.6839581
vn 0.1635856 -0.06539813 0.9843591
vn 0.2762951 -0.003453891 0.9610667
vn 0.2924441 -0.07218254 0.9535544
vn 0.3247304 -0.2520115 0.9116142
vn 0.5211616 -0.04251893 0.8523983
vn 0.5150538 0.01843132 0.8569597
vn 0.3892057 -0.593682 0.7043157
vn 0.8011191 -0.01359815 0.5983504
vn 0.7867149 0.05953205 0.6144392
vn 0.9638045 -0.02885245 0.2650444
vn 0.9718288 -0.1083274 0.209318
vn 0.4708676 -0.2451275 0.8474645
vn 0.7803875 -0.1485108 0.6074042
vn 0.9459591 -0.1816639 0.2686255
vn 0.2866113 -0.1744171 0.9420364
vn 0.330105 -0.3205923 0.8878352
vn 0.6874651 -0.2377444 0.6861993
vn 0.8160021 -0.1514218 0.5578639
vn 0.9497949 -0.167036 0.2645537
vn 0.5320634 -0.02139723 0.8464341
vn 0.8397738 -0.1030544 0.5330665
vn 0.9427214 -0.2247766 0.2464791
g facial_eye_geo_0
f 3/3/3 2/2/2 1/1/1
f 2/2/2 4/4/4 1/1/1
f 2/2/2 5/5/5 4/4/4
f 6/6/6 1/1/1 4/4/4
f 5/5/5 7/7/7 4/4/4
f 5/5/5 8/8/8 7/7/7
f 9/9/9 6/6/6 4/4/4
f 7/7/7 9/9/9 4/4/4
f 8/8/8 10/10/10 7/7/7
f 7/7/7 10/10/10 9/9/9
f 8/8/8 11/11/11 10/10/10
f 12/12/12 6/6/6 9/9/9
f 12/12/12 13/13/13 6/6/6
f 12/12/12 14/14/14 13/13/13
f 15/15/15 13/13/13 14/14/14
f 16/16/16 15/15/15 14/14/14
f 16/16/16 14/14/14 17/17/17
f 9/9/9 18/18/18 12/12/12
f 12/12/12 18/18/18 14/14/14
f 14/14/14 19/19/19 17/17/17
f 18/18/18 19/19/19 14/14/14
f 17/17/17 19/19/19 20/20/20
f 9/9/9 10/10/10 21/21/21
f 9/9/9 21/21/21 18/18/18
f 11/11/11 22/22/22 10/10/10
f 21/21/21 10/10/10 23/23/23
f 10/10/10 22/22/22 23/23/23
f 18/18/18 21/21/21 24/24/24
f 21/21/21 23/23/23 24/24/24
f 18/18/18 25/25/25 19/19/19
f 24/24/24 25/25/25 18/18/18
f 19/19/19 26/26/26 20/20/20
f 25/25/25 26/26/26 19/19/19
f 22/22/22 11/11/11 27/27/27
f 11/11/11 28/28/28 27/27/27
f 28/28/28 29/29/29 27/27/27
f 23/23/23 22/22/22 30/30/30
f 24/24/24 23/23/23 30/30/30
f 30/30/30 22/22/22 27/27/27
f 26/26/26 31/31/31 20/20/20
f 31/31/31 32/32/32 20/20/20
f 32/32/32 31/31/31 33/33/33
f 34/34/34 32/32/32 33/33/33
f 35/35/35 34/34/34 33/33/33
f 36/36/36 31/31/31 26/26/26
f 33/33/33 31/31/31 36/36/36
f 25/25/25 36/36/36 26/26/26
f 25/25/25 24/24/24 37/37/37
f 24/24/24 30/30/30 37/37/37
f 37/37/37 36/36/36 25/25/25
f 38/38/38 37/37/37 30/30/30
f 36/36/36 37/37/37 38/38/38
f 30/30/30 27/27/27 39/39/39
f 39/39/39 38/38/38 30/30/30
f 29/29/29 39/39/39 27/27/27
f 39/39/39 29/29/29 40/40/40
f 29/29/29 41/41/41 40/40/40
f 41/41/41 42/42/42 40/40/40
f 39/39/39 40/40/40 43/43/43
f 43/43/43 38/38/38 39/39/39
f 42/42/42 44/44/44 40/40/40
f 40/40/40 44/44/44 43/43/43
f 45/45/45 33/33/33 36/36/36
f 38/38/38 45/45/45 36/36/36
f 33/33/33 45/45/45 46/46/46
f 46/46/46 45/45/45 38/38/38
f 44/44/44 42/42/42 47/47/47
f 42/42/42 48/48/48 47/47/47
f 47/47/47 48/48/48 49/49/49
f 43/43/43 50/50/50 38/38/38
f 38/38/38 50/50/50 46/46/46
f 51/51/51 33/33/33 46/46/46
f 51/51/51 35/35/35 33/33/33
f 35/35/35 51/51/51 52/52/52
f 51/51/51 46/46/46 53/53/53
f 51/51/51 53/53/53 52/52/52
f 54/54/54 46/46/46 50/50/50
f 46/46/46 54/54/54 53/53/53
f 53/53/53 55/55/55 52/52/52
f 53/53/53 54/54/54 55/55/55
f 55/55/55 56/56/56 52/52/52
f 43/43/43 57/57/57 50/50/50
f 50/50/50 57/57/57 54/54/54
f 55/55/55 58/58/58 56/56/56
f 58/58/58 59/59/59 56/56/56
f 60/60/60 59/59/59 58/58/58
f 61/61/61 60/60/60 58/58/58
f 54/54/54 62/62/62 55/55/55
f 55/55/55 62/62/62 58/58/58
f 62/62/62 54/54/54 57/57/57
f 61/61/61 58/58/58 63/63/63
f 62/62/62 63/63/63 58/58/58
f 61/61/61 63/63/63 64/64/64
f 43/43/43 65/65/65 57/57/57
f 43/43/43 44/44/44 65/65/65
f 65/65/65 66/66/66 57/57/57
f 65/65/65 44/44/44 66/66/66
f 57/57/57 66/66/66 62/62/62
f 44/44/44 47/47/47 66/66/66
f 62/62/62 67/67/67 63/63/63
f 62/62/62 66/66/66 67/67/67
f 64/64/64 63/63/63 67/67/67
f 47/47/47 67/67/67 66/66/66
f 64/64/64 67/67/67 68/68/68
f 69/69/69 64/64/64 68/68/68
f 67/67/67 47/47/47 70/70/70
f 67/67/67 70/70/70 68/68/68
f 70/70/70 47/47/47 49/49/49
f 70/70/70 49/49/49 68/68/68
f 49/49/49 71/71/71 68/68/68
f 68/68/68 71/71/71 69/69/69
f 71/71/71 72/72/72 69/69/69
