g head_geo
v -0.03881217 1.358829 -0.05949344
v -0 1.364316 -0.07970995
v -0 1.399295 -0.1105255
v -0.04383545 1.394387 -0.09937027
v -0.0717091 1.384879 -0.06400087
v -0.08512331 1.373571 -0.01840422
v -0.05559103 1.34854 -0.01939238
v -0.08177062 1.35868 0.021237
v -0.05346809 1.342315 0.00975381
v -0.09908605 1.409015 -0.06173613
v -0.07248205 1.346611 0.03596113
v -0.03052817 1.329883 0.03523373
v -0.1021632 1.408348 -0.0157712
v -0.1090664 1.431198 -0.01564987
v -0.09386315 1.386002 0.00035705
v -0.116962 1.45649 -0.06517889
v -0.1088617 1.446406 -0.00836237
v -0.1181057 1.495577 -0.00706282
v -0.1050757 1.436575 0.0235089
v -0.09425832 1.385277 0.02334824
v -0.09465368 1.396602 0.04973213
v -0.1128133 1.501391 0.03847636
v -0.08750297 1.367357 0.03112192
v -0.1025134 1.443093 0.05344741
v -0.07896127 1.355604 0.04313315
v -0.08462024 1.365923 0.06252615
v -0.086925 1.381571 0.07146343
v -0.09120434 1.400477 0.077767
v -0.0951654 1.421829 0.08173738
v -0.09879865 1.448778 0.08329013
v -0.1040778 1.477023 0.08016225
v -0.1077586 1.510913 0.07416855
v -0.06539394 1.343399 0.06049532
v -0.05817311 1.337304 0.05265894
v -0.05015931 1.334285 0.07348821
v -0.04436328 1.329313 0.06565701
v -0.03384657 1.324644 0.08826517
v -0.02448139 1.326512 0.05913366
v -0 1.316053 0.05196837
v -0 1.317328 0.07124166
v -0.03012108 1.322366 0.07930805
v -0.01639179 1.314918 0.1033837
v -0.01194398 1.319658 0.07385293
v -0.00835223 1.31345 0.09402055
v -1E-08 1.312202 0.09532028
v -1E-08 1.313144 0.1064383
v 0.01639177 1.314918 0.1033839
v 0.00835222 1.31345 0.09402055
v 0.02448139 1.326512 0.05913366
v 0.03052817 1.329883 0.03523373
v 0.03012108 1.322366 0.07930746
v 0.03384658 1.324644 0.08826517
v 0.01194396 1.319658 0.07385293
v 0.04436329 1.329313 0.06565701
v 0.05015931 1.334285 0.07348821
v 0.05817311 1.337304 0.05265894
v 0.06539394 1.343399 0.06049532
v 0.07248205 1.346611 0.03596113
v 0.05346809 1.342315 0.00975381
v 0.08177062 1.35868 0.021237
v 0.07896127 1.355604 0.04313315
v 0.05559103 1.34854 -0.01939238
v 0.08750297 1.367357 0.03112192
v 0.08462024 1.365923 0.06252615
v 0.09465368 1.396602 0.04973213
v 0.086925 1.381571 0.07146343
v 0.09120434 1.400477 0.077767
v 0.0951654 1.421829 0.08173738
v 0.08512331 1.373571 -0.01840422
v 0.03881217 1.358829 -0.05949344
v 0.09425832 1.385277 0.02334824
v 0.09386315 1.386002 0.00035705
v 0.1050757 1.436575 0.0235089
v 0.1021632 1.408348 -0.0157712
v 0.1025134 1.443093 0.05344741
v 0.09879865 1.448778 0.08329013
v 0.1040778 1.477023 0.08016225
v 0.1128133 1.501391 0.03847636
v 0.1077586 1.510913 0.07416855
v 0.1181057 1.495577 -0.00706282
v 0.1088617 1.446406 -0.00836237
v 0.116962 1.45649 -0.06517889
v 0.1090664 1.431198 -0.01564987
v 0.09908605 1.409015 -0.06173613
v 0.0717091 1.384879 -0.06400087
v 0.04383545 1.394387 -0.09937027
v -0 1.399295 -0.1105255
v -0 1.364316 -0.07970995
v -0.1088617 1.446406 -0.00836237
v -0.1050757 1.436575 0.0235089
v -0.1230928 1.447812 0.00065084
v -0.1294859 1.442831 -0.01099634
v -0.1090664 1.431198 -0.01564987
v -0.1298574 1.432466 -0.01804503
v -0.1021632 1.408348 -0.0157712
v -0.129857 1.437404 -0.00490421
v -0.1246073 1.441842 0.00320636
v -0.1050757 1.436575 0.0235089
v -0.09425832 1.385277 0.02334824
v -0.100529 1.375381 0.00773823
v -0.1231143 1.401634 -0.00623826
v -0.1138622 1.379319 -0.00620384
v -0.1311398 1.429329 -0.01099142
v -0.1263568 1.40578 -0.01726121
v -0.09386315 1.386002 0.00035705
v -0.100529 1.375381 0.00773823
v -0.09425832 1.385277 0.02334824
v 0.1088617 1.446406 -0.00836237
v 0.1230928 1.447812 0.00065084
v 0.1050757 1.436575 0.0235089
v 0.1294859 1.442831 -0.01099634
v 0.1090664 1.431198 -0.01564987
v 0.1298574 1.432466 -0.01804503
v 0.1021632 1.408348 -0.0157712
v 0.129857 1.437404 -0.00490421
v 0.1311398 1.429329 -0.01099142
v 0.1231143 1.401634 -0.00623826
v 0.1263568 1.40578 -0.01726121
v 0.1138622 1.379319 -0.00620384
v 0.09386315 1.386002 0.00035705
v 0.100529 1.375381 0.00773823
v 0.09425832 1.385277 0.02334824
v 0.100529 1.375381 0.00773823
v 0.1246073 1.441842 0.00320636
v 0.1050757 1.436575 0.0235089
v 0.09425832 1.385277 0.02334824
vt 0.04367065 0.3288574
vt 0.005477905 0.338623
vt 0.005477905 0.3916016
vt 0.03128052 0.3894043
vt 0.05453491 0.3796387
vt 0.08135986 0.333252
vt 0.08294678 0.2990723
vt 0.1264648 0.3186035
vt 0.1281738 0.2753906
vt 0.06234741 0.4077148
vt 0.1575928 0.3034668
vt 0.1824951 0.2485352
vt 0.08374023 0.3796387
vt 0.08184814 0.4035645
vt 0.09362793 0.3583984
vt 0.06768799 0.4504395
vt 0.08453369 0.4169922
vt 0.09515381 0.4638672
vt 0.09991455 0.4035645
vt 0.1069336 0.3588867
vt 0.1326904 0.3620605
vt 0.1192627 0.4614258
vt 0.1345215 0.3310547
vt 0.1280518 0.4074707
vt 0.1561279 0.3166504
vt 0.1513672 0.3320312
vt 0.1480713 0.3464355
vt 0.144165 0.3664551
vt 0.1420898 0.3886719
vt 0.1429443 0.4125977
vt 0.1375732 0.4387207
vt 0.1328125 0.4702148
vt 0.1832275 0.309082
vt 0.1835938 0.2941895
vt 0.2004395 0.3032227
vt 0.2020264 0.2890625
vt 0.2188721 0.2980957
vt 0.2103271 0.2600098
vt 0.25 0.2365723
vt 0.25 0.2548828
vt 0.2198486 0.2839355
vt 0.2440186 0.2797852
vt 0.2351074 0.2624512
vt 0.2451172 0.2709961
vt 0.25 0.2705078
vt 0.25 0.279541
vt 0.2561035 0.2797852
vt 0.2548828 0.2709961
vt 0.2895508 0.2600098
vt 0.3173828 0.2485352
vt 0.2800293 0.2839355
vt 0.2810059 0.2980957
vt 0.2648926 0.2624512
vt 0.2978516 0.2890625
vt 0.2995605 0.3032227
vt 0.3164062 0.2941895
vt 0.3166504 0.309082
vt 0.3425293 0.3034668
vt 0.3718262 0.2753906
vt 0.3735352 0.3186035
vt 0.34375 0.3166504
vt 0.4169922 0.2990723
vt 0.3654785 0.3310547
vt 0.3486328 0.3320312
vt 0.3674316 0.3620605
vt 0.3518066 0.3464355
vt 0.355957 0.3664551
vt 0.3579102 0.3886719
vt 0.4187012 0.333252
vt 0.4562988 0.3288574
vt 0.3930664 0.3588867
vt 0.4064941 0.3583984
vt 0.4001465 0.4035645
vt 0.4162598 0.3796387
vt 0.3720703 0.4074707
vt 0.3571777 0.4125977
vt 0.3623047 0.4387207
vt 0.3806152 0.4614258
vt 0.3671875 0.4702148
vt 0.4047852 0.4638672
vt 0.4155273 0.4169922
vt 0.432373 0.4504395
vt 0.4182129 0.4035645
vt 0.4377441 0.4077148
vt 0.4455566 0.3796387
vt 0.46875 0.3894043
vt 0.4946289 0.3916016
vt 0.4946289 0.338623
vt 0.1091309 0.1901855
vt 0.1391602 0.1773682
vt 0.1109009 0.1777344
vt 0.1028442 0.1846924
vt 0.09509277 0.1989746
vt 0.09484863 0.1916504
vt 0.07324219 0.1990967
vt 0.09680176 0.1816406
vt 0.1025391 0.1765137
vt 0.09985352 0.1535645
vt 0.05126953 0.1529541
vt 0.0428772 0.1678467
vt 0.06451416 0.1877441
vt 0.05056763 0.1845703
vt 0.09100342 0.1867676
vt 0.06982422 0.192627
vt 0.03604126 0.1881104
vt 0.03607178 0.1820068
vt 0.02125549 0.1849365
vt 0.3908691 0.1901855
vt 0.3891602 0.1777344
vt 0.3608398 0.1773682
vt 0.3972168 0.1846924
vt 0.4050293 0.1989746
vt 0.4052734 0.1916504
vt 0.4267578 0.1990967
vt 0.4033203 0.1816406
vt 0.4089355 0.1867676
vt 0.4355469 0.1831055
vt 0.4301758 0.192627
vt 0.4528809 0.1800537
vt 0.4638672 0.1881104
vt 0.4638672 0.1820068
vt 0.4787598 0.1849365
vt 0.458252 0.1663818
vt 0.3974609 0.1765137
vt 0.4001465 0.1535645
vt 0.4487305 0.1529541
vn -0.4051348 -0.7312374 -0.5487782
vn -0 -0.714112 -0.7000314
vn -0 -0.714112 -0.7000314
vn -0.2279456 -0.7060525 -0.6704705
vn -0.5660056 -0.7106266 -0.4179086
vn -0.6891208 -0.6667069 -0.2839269
vn -0.5822294 -0.7403845 -0.3359162
vn -0.7433201 -0.6514741 -0.1518448
vn -0.4707643 -0.8700925 -0.1460139
vn -0.8714031 -0.471332 -0.136025
vn -0.5325982 -0.8369821 -0.1256984
vn -0.334022 -0.9343925 -0.1238547
vn -0.7289221 -0.4162769 -0.5434945
vn -0.8571671 -0.1888082 -0.4791828
vn -0.6702148 -0.6497268 -0.3587023
vn -0.9638378 -0.2634932 0.03984884
vn -0.9969801 -0.05402061 0.05578829
vn -0.9802012 -0.1615602 0.1144723
vn -0.9666014 -0.1518291 0.206469
vn -0.9325932 -0.2935482 0.2099985
vn -0.9724126 -0.20776 0.1060634
vn -0.9818396 -0.1393549 0.1287284
vn -0.9176279 -0.3972831 0.01119585
vn -0.9798285 -0.1591381 0.120877
vn -0.7952018 -0.6015074 0.07643934
vn -0.89288 -0.4352776 0.115321
vn -0.9536203 -0.2517401 0.1650311
vn -0.9427214 -0.2247767 0.2464791
vn -0.9497948 -0.1670361 0.264554
vn -0.945959 -0.1816639 0.2686261
vn -0.9718288 -0.1083274 0.2093181
vn -0.9638045 -0.02885241 0.2650446
vn -0.6497422 -0.7540374 0.09624209
vn -0.4076698 -0.9087273 -0.08955484
vn -0.575073 -0.8109372 0.1080361
vn -0.3579125 -0.9291648 -0.0924741
vn -0.5597025 -0.8066292 0.1899533
vn -0.2963219 -0.9455385 -0.1347231
vn -0 -0.9995124 -0.0312217
vn -0 -0.994742 -0.1024118
vn -0.3325022 -0.9321926 -0.1430358
vn -0.3429459 -0.9095891 0.2345969
vn -0.26166 -0.9520509 -0.1585342
vn -0.2031898 -0.9697753 -0.1350915
vn -0 -0.9939275 -0.1100366
vn -9.728823E-07 -0.9085463 0.4177843
vn 0.3429455 -0.9095875 0.2346038
vn 0.2031893 -0.9697757 -0.1350902
vn 0.2963218 -0.9455383 -0.1347241
vn 0.3340219 -0.9343923 -0.1238563
vn 0.3325011 -0.9321928 -0.1430375
vn 0.5597017 -0.8066292 0.1899562
vn 0.2616587 -0.9520512 -0.1585348
vn 0.3579136 -0.9291644 -0.09247361
vn 0.5750728 -0.8109376 0.1080346
vn 0.4076698 -0.9087273 -0.08955463
vn 0.6497421 -0.7540374 0.09624369
vn 0.5325981 -0.8369818 -0.1257003
vn 0.4707642 -0.8700922 -0.1460164
vn 0.7433201 -0.6514741 -0.1518449
vn 0.7952018 -0.6015072 0.07644015
vn 0.5822297 -0.7403846 -0.3359155
vn 0.9176279 -0.3972831 0.01119595
vn 0.8928798 -0.4352775 0.1153217
vn 0.9724126 -0.20776 0.1060635
vn 0.9536203 -0.2517399 0.1650313
vn 0.9427214 -0.2247766 0.2464791
vn 0.9497949 -0.167036 0.2645537
vn 0.6891209 -0.666707 -0.2839262
vn 0.4051349 -0.7312375 -0.5487781
vn 0.9325932 -0.2935482 0.2099987
vn 0.670215 -0.6497266 -0.3587024
vn 0.9666016 -0.1518291 0.2064687
vn 0.7289221 -0.4162769 -0.5434943
vn 0.9798285 -0.159138 0.1208769
vn 0.9459591 -0.1816639 0.2686255
vn 0.9718288 -0.1083274 0.209318
vn 0.9818397 -0.1393549 0.1287283
vn 0.9638045 -0.02885245 0.2650444
vn 0.9802012 -0.1615602 0.1144721
vn 0.9969801 -0.05402057 0.05578826
vn 0.9638378 -0.2634933 0.03984885
vn 0.8571671 -0.1888082 -0.4791828
vn 0.8714031 -0.4713321 -0.136025
vn 0.5660056 -0.7106267 -0.4179082
vn 0.2279456 -0.7060525 -0.6704704
vn -0 -0.714112 -0.7000314
vn -0 -0.714112 -0.7000314
vn -0.9969801 -0.05402061 0.05578829
vn -0.9666014 -0.1518291 0.206469
vn -0.1498682 0.9612299 0.231466
vn -0.4825528 0.677267 -0.5553849
vn -0.8571671 -0.1888082 -0.4791828
vn -0.308457 0.07392594 -0.9483613
vn -0.7289221 -0.4162769 -0.5434945
vn -0.848821 -0.08604396 0.5216314
vn -0.7781111 -0.08035997 0.622965
vn -0.9666014 -0.1518291 0.206469
vn -0.9325932 -0.2935482 0.2099985
vn -0.6588638 -0.5418558 0.521815
vn -0.7916605 -0.2174954 0.5709373
vn -0.2793517 -0.791362 -0.5437912
vn -0.980586 -0.1463439 0.1305171
vn -0.3186835 -0.2063753 -0.9251217
vn -0.6702148 -0.6497268 -0.3587023
vn -0.6588638 -0.5418558 0.521815
vn -0.9325932 -0.2935482 0.2099985
vn 0.9969801 -0.05402057 0.05578826
vn 0.1498694 0.9612296 0.231467
vn 0.9666016 -0.1518291 0.2064687
vn 0.4825529 0.6772675 -0.555384
vn 0.8571671 -0.1888082 -0.4791828
vn 0.3084571 0.07392587 -0.9483612
vn 0.7289221 -0.4162769 -0.5434943
vn 0.8488211 -0.08604366 0.5216314
vn 0.980586 -0.146344 0.1305171
vn 0.7916608 -0.2174956 0.5709369
vn 0.3186835 -0.2063754 -0.9251217
vn 0.2793515 -0.7913617 -0.5437918
vn 0.670215 -0.6497266 -0.3587024
vn 0.6588644 -0.5418553 0.5218146
vn 0.9325932 -0.2935482 0.2099987
vn 0.6588644 -0.5418553 0.5218146
vn 0.7781116 -0.08035927 0.6229645
vn 0.9666016 -0.1518291 0.2064687
vn 0.9325932 -0.2935482 0.2099987
g head_geo_0
f 3/3/3 2/2/2 1/1/1
f 4/4/4 3/3/3 1/1/1
f 4/4/4 1/1/1 5/5/5
f 5/5/5 1/1/1 6/6/6
f 1/1/1 7/7/7 6/6/6
f 6/6/6 7/7/7 8/8/8
f 7/7/7 9/9/9 8/8/8
f 5/5/5 6/6/6 10/10/10
f 9/9/9 11/11/11 8/8/8
f 9/9/9 12/12/12 11/11/11
f 6/6/6 13/13/13 10/10/10
f 14/14/14 10/10/10 13/13/13
f 15/15/15 13/13/13 6/6/6
f 15/15/15 6/6/6 8/8/8
f 14/14/14 16/16/16 10/10/10
f 14/14/14 17/17/17 16/16/16
f 18/18/18 16/16/16 17/17/17
f 19/19/19 18/18/18 17/17/17
f 20/20/20 15/15/15 8/8/8
f 19/19/19 20/20/20 21/21/21
f 22/22/22 18/18/18 19/19/19
f 23/23/23 20/20/20 8/8/8
f 20/20/20 23/23/23 21/21/21
f 24/24/24 22/22/22 19/19/19
f 24/24/24 19/19/19 21/21/21
f 25/25/25 23/23/23 8/8/8
f 11/11/11 25/25/25 8/8/8
f 25/25/25 26/26/26 23/23/23
f 23/23/23 26/26/26 21/21/21
f 27/27/27 21/21/21 26/26/26
f 27/27/27 28/28/28 21/21/21
f 28/28/28 29/29/29 21/21/21
f 21/21/21 29/29/29 24/24/24
f 29/29/29 30/30/30 24/24/24
f 30/30/30 31/31/31 24/24/24
f 31/31/31 22/22/22 24/24/24
f 32/32/32 22/22/22 31/31/31
f 25/25/25 11/11/11 33/33/33
f 11/11/11 34/34/34 33/33/33
f 33/33/33 34/34/34 35/35/35
f 34/34/34 11/11/11 12/12/12
f 34/34/34 36/36/36 35/35/35
f 36/36/36 34/34/34 12/12/12
f 35/35/35 36/36/36 37/37/37
f 38/38/38 36/36/36 12/12/12
f 39/39/39 38/38/38 12/12/12
f 39/39/39 40/40/40 38/38/38
f 36/36/36 41/41/41 37/37/37
f 36/36/36 38/38/38 41/41/41
f 41/41/41 42/42/42 37/37/37
f 38/38/38 43/43/43 41/41/41
f 40/40/40 43/43/43 38/38/38
f 41/41/41 43/43/43 44/44/44
f 44/44/44 42/42/42 41/41/41
f 43/43/43 40/40/40 44/44/44
f 42/42/42 44/44/44 45/45/45
f 40/40/40 45/45/45 44/44/44
f 46/46/46 42/42/42 45/45/45
f 47/47/47 46/46/46 45/45/45
f 48/48/48 47/47/47 45/45/45
f 45/45/45 40/40/40 48/48/48
f 40/40/40 39/39/39 49/49/49
f 49/49/49 39/39/39 50/50/50
f 47/47/47 48/48/48 51/51/51
f 47/47/47 51/51/51 52/52/52
f 40/40/40 53/53/53 48/48/48
f 53/53/53 40/40/40 49/49/49
f 53/53/53 51/51/51 48/48/48
f 53/53/53 49/49/49 51/51/51
f 51/51/51 54/54/54 52/52/52
f 49/49/49 54/54/54 51/51/51
f 54/54/54 49/49/49 50/50/50
f 54/54/54 55/55/55 52/52/52
f 54/54/54 56/56/56 55/55/55
f 56/56/56 54/54/54 50/50/50
f 56/56/56 57/57/57 55/55/55
f 58/58/58 56/56/56 50/50/50
f 56/56/56 58/58/58 57/57/57
f 58/58/58 50/50/50 59/59/59
f 58/58/58 59/59/59 60/60/60
f 58/58/58 61/61/61 57/57/57
f 61/61/61 58/58/58 60/60/60
f 59/59/59 62/62/62 60/60/60
f 63/63/63 61/61/61 60/60/60
f 64/64/64 61/61/61 63/63/63
f 64/64/64 63/63/63 65/65/65
f 65/65/65 66/66/66 64/64/64
f 67/67/67 66/66/66 65/65/65
f 68/68/68 67/67/67 65/65/65
f 62/62/62 69/69/69 60/60/60
f 62/62/62 70/70/70 69/69/69
f 71/71/71 63/63/63 60/60/60
f 63/63/63 71/71/71 65/65/65
f 72/72/72 71/71/71 60/60/60
f 69/69/69 72/72/72 60/60/60
f 71/71/71 73/73/73 65/65/65
f 74/74/74 72/72/72 69/69/69
f 68/68/68 65/65/65 75/75/75
f 73/73/73 75/75/75 65/65/65
f 76/76/76 68/68/68 75/75/75
f 77/77/77 76/76/76 75/75/75
f 78/78/78 77/77/77 75/75/75
f 78/78/78 75/75/75 73/73/73
f 78/78/78 79/79/79 77/77/77
f 80/80/80 78/78/78 73/73/73
f 80/80/80 73/73/73 81/81/81
f 82/82/82 80/80/80 81/81/81
f 81/81/81 83/83/83 82/82/82
f 82/82/82 83/83/83 84/84/84
f 84/84/84 83/83/83 74/74/74
f 74/74/74 69/69/69 84/84/84
f 69/69/69 85/85/85 84/84/84
f 70/70/70 85/85/85 69/69/69
f 70/70/70 86/86/86 85/85/85
f 87/87/87 86/86/86 70/70/70
f 88/88/88 87/87/87 70/70/70
f 91/91/91 90/90/90 89/89/89
f 89/89/89 92/92/92 91/91/91
f 93/93/93 92/92/92 89/89/89
f 94/94/94 92/92/92 93/93/93
f 94/94/94 93/93/93 95/95/95
f 92/92/92 96/96/96 91/91/91
f 92/92/92 94/94/94 96/96/96
f 96/96/96 97/97/97 91/91/91
f 97/97/97 98/98/98 91/91/91
f 98/98/98 97/97/97 99/99/99
f 99/99/99 97/97/97 100/100/100
f 100/100/100 97/97/97 96/96/96
f 96/96/96 101/101/101 100/100/100
f 100/100/100 101/101/101 102/102/102
f 94/94/94 103/103/103 96/96/96
f 103/103/103 101/101/101 96/96/96
f 94/94/94 104/104/104 103/103/103
f 104/104/104 101/101/101 103/103/103
f 104/104/104 94/94/94 95/95/95
f 101/101/101 104/104/104 102/102/102
f 102/102/102 104/104/104 95/95/95
f 102/102/102 95/95/95 105/105/105
f 106/106/106 102/102/102 105/105/105
f 105/105/105 107/107/107 106/106/106
f 110/110/110 109/109/109 108/108/108
f 111/111/111 108/108/108 109/109/109
f 111/111/111 112/112/112 108/108/108
f 111/111/111 113/113/113 112/112/112
f 112/112/112 113/113/113 114/114/114
f 115/115/115 111/111/111 109/109/109
f 116/116/116 113/113/113 111/111/111
f 115/115/115 116/116/116 111/111/111
f 116/116/116 117/117/117 113/113/113
f 116/116/116 115/115/115 117/117/117
f 113/113/113 118/118/118 114/114/114
f 117/117/117 118/118/118 113/113/113
f 118/118/118 119/119/119 114/114/114
f 118/118/118 117/117/117 119/119/119
f 114/114/114 119/119/119 120/120/120
f 119/119/119 121/121/121 120/120/120
f 122/122/122 120/120/120 121/121/121
f 117/117/117 123/123/123 119/119/119
f 123/123/123 117/117/117 115/115/115
f 124/124/124 115/115/115 109/109/109
f 115/115/115 124/124/124 123/123/123
f 125/125/125 124/124/124 109/109/109
f 124/124/124 126/126/126 123/123/123
f 125/125/125 126/126/126 124/124/124
