g bf_geo
v -0.1578469 0.7900072 -0.06007212
v -0.1680409 0.8302441 -0.01206064
v -0.1678898 0.8194959 -0.1016819
v -0.1645073 0.8475277 -0.02114466
v -0.1429044 0.8532712 -0.07437108
v 0.1444952 0.7943032 -0.0679795
v 0.15704 0.8367642 -0.000656967
v 0.1628893 0.7979532 -0.001683835
v 0.1375121 0.8369106 -0.06294513
v 0.1511907 0.8755752 0.0003699009
v 0.08627708 0.7918742 -0.117758
v 0.1310783 0.8761657 -0.05830685
v 0.08429556 0.8391339 -0.1087605
v 0.0314469 0.7843445 -0.1317453
v 0.08273351 0.8763892 -0.1016676
v 0.0314758 0.8376461 -0.1183589
v 2.982429E-18 0.7849117 -0.1319061
v 0.03149553 0.874035 -0.10922
v 3.108473E-18 0.8377549 -0.1185056
v -0.0314469 0.7843445 -0.1317453
v 3.194128E-18 0.8736652 -0.109399
v -0.03147588 0.8377936 -0.1183218
v -0.08627708 0.7918742 -0.117758
v -0.03149553 0.874035 -0.10922
v -0.08429702 0.8390988 -0.1087671
v -0.1444952 0.7943032 -0.0679795
v -0.08273351 0.8763892 -0.1016676
v -0.1374236 0.8374504 -0.06288135
v -0.1310783 0.8761657 -0.05830685
v 0.02548641 0.6091523 -0.1525407
v -0.02548644 0.6091522 -0.1525407
v -0.02548643 0.6617591 -0.1525407
v 0.02548637 0.6617591 -0.1525407
v -0.04083218 1.053382 -0.1481606
v -0.04171771 1.102537 -0.1506536
v -1.473259E-08 1.104823 -0.1512234
v -1.464879E-08 1.054174 -0.1509629
v -1.444679E-08 1.000663 -0.1518462
v -0.04024732 1.000493 -0.1486548
v -1.43599E-08 0.9285868 -0.149892
v -0.04192449 0.9280211 -0.1488071
v -0.04425668 0.8615729 -0.1488071
v 0.04083216 1.053382 -0.1481606
v 0.04171768 1.102537 -0.1506536
v 0.04024729 1.000493 -0.1486548
v 0.04192447 0.9280211 -0.1488071
v 0.04425665 0.8615729 -0.1488071
v -1.432327E-08 0.8616846 -0.149892
v -0.0472284 0.8014882 -0.1488071
v 0.04722837 0.8014882 -0.1488071
v -1.430511E-08 0.8012701 -0.149892
v -0.05729102 0.7427322 -0.1488071
v 0.057291 0.7427322 -0.1488071
v -1.430511E-08 0.7426069 -0.149892
v -0.07503862 0.6786165 -0.1488071
v 0.0750386 0.6786165 -0.1488071
v -1.430511E-08 0.6711016 -0.149892
v -1.430511E-08 0.604634 -0.149892
v -0.1064485 0.2788693 -0.1413397
v -0.1126552 0.2034878 -0.1509793
v -0.1951248 0.2087452 -0.160055
v -0.1885064 0.2839929 -0.1491914
v -1.907349E-08 0.6369244 -0.1708098
v -1.907349E-08 0.6833176 -0.1708098
v -1.907349E-08 0.6833176 -0.1390916
v -1.907349E-08 0.6369244 -0.1390916
v 0.1064485 0.2788693 -0.1413397
v 0.1885064 0.2839929 -0.1491914
v 0.1951248 0.2087452 -0.160055
v 0.1126552 0.2034878 -0.1509793
v 5.707835E-18 1.245503 0.04995859
v 0.02727907 1.27094 0.03578372
v 5.686478E-18 1.270754 0.04603279
v 0.02956126 1.24538 0.04094041
v 0.04488378 1.274502 0.02167049
v 0.04856993 1.250433 0.02221096
v 0.05237928 1.27953 0.001523722
v 0.05651813 1.259068 0.001926675
v 0.050691 1.280661 -0.030854
v 5.707835E-18 1.245503 0.04995859
v 5.686478E-18 1.270754 0.04603279
v -0.02727907 1.27094 0.03578372
v -0.02956126 1.24538 0.04094041
v -0.04488378 1.274502 0.02167049
v -0.04856993 1.250433 0.02221096
v -0.05237928 1.27953 0.001523722
v -0.05651813 1.259068 0.001926675
v -0.050691 1.280661 -0.030854
v 0.15704 0.8367642 -0.000656967
v 0.1511907 0.8755752 0.0003699009
v 0.1345188 0.8759149 0.05294444
v 0.1390224 0.836216 0.05170836
v 0.1628893 0.7979532 -0.001683835
v 0.09268094 0.8672298 0.09030173
v 0.143526 0.796517 0.05047226
v 0.09538844 0.827545 0.08948234
v 0.09809594 0.7878602 0.08866294
v 0.04731662 0.8599194 0.1015281
v 0.04815899 0.8201427 0.1000665
v 0.04900135 0.7803661 0.09860482
v 6.028623E-18 0.8177281 0.1014228
v 6.198578E-18 0.8576679 0.1032933
v 5.858667E-18 0.7777882 0.09955218
v -0.04731662 0.8599194 0.1015281
v -0.04815899 0.8201427 0.1000665
v -0.04900135 0.7803661 0.09860482
v -0.09268094 0.8672298 0.09030173
v -0.09538844 0.827545 0.08948234
v -0.09809594 0.7878602 0.08866294
v -0.1345188 0.8759149 0.05294444
v -0.1390224 0.836216 0.05170836
v -0.143526 0.796517 0.05047226
v -0.1511907 0.8755752 0.0003699009
v -0.15704 0.8367642 -0.000656967
v -0.1628893 0.7979532 -0.001683835
v -0.1310783 0.8761657 -0.05830685
v -0.1444952 0.7943032 -0.0679795
v -0.1374236 0.8374504 -0.06288135
vt 0.07989502 0.6777344
vt 0.1289062 0.7055664
vt 0.04910278 0.7124023
vt 0.1258545 0.7231445
vt 0.07952881 0.7446289
vt 1.003906 0.3984375
vt 1.027344 0.3557129
vt 1.003906 0.3557129
vt 1.02832 0.3984375
vt 1.050781 0.3557129
vt 1.003906 0.4431152
vt 1.050781 0.3984375
vt 1.030273 0.4431152
vt 1.003906 0.4782715
vt 1.050781 0.4431152
vt 1.032227 0.4782715
vt 1.003906 0.498291
vt 1.050781 0.4782715
vt 1.032227 0.498291
vt 1.003906 0.5180664
vt 1.050781 0.498291
vt 1.032227 0.5180664
vt 1.003906 0.5532227
vt 1.050781 0.5180664
vt 1.030273 0.5532227
vt 1.003906 0.6015625
vt 1.050781 0.5532227
vt 1.02832 0.6015625
vt 1.050781 0.6015625
vt 0.949707 0.1936035
vt 0.9916992 0.1936035
vt 0.9916992 0.2373047
vt 0.949707 0.2373047
vt 0.84375 0.3317871
vt 0.8442383 0.3676758
vt 0.8154297 0.3676758
vt 0.8149414 0.3325195
vt 0.8149414 0.2941895
vt 0.84375 0.2939453
vt 0.8144531 0.2424316
vt 0.8447266 0.2419434
vt 0.8461914 0.1942139
vt 0.7861328 0.3320312
vt 0.7861328 0.3676758
vt 0.7861328 0.2941895
vt 0.784668 0.2421875
vt 0.7827148 0.1945801
vt 0.8144531 0.194458
vt 0.8481445 0.151123
vt 0.7802734 0.1514893
vt 0.8144531 0.151123
vt 0.8549805 0.1090088
vt 0.7729492 0.109314
vt 0.8139648 0.1090698
vt 0.8676758 0.06292725
vt 0.7602539 0.06341553
vt 0.8139648 0.05776978
vt 0.8134766 0.01010132
vt 0.9458008 0.9946289
vt 0.9458008 0.9482422
vt 0.9946289 0.9482422
vt 0.9946289 0.9946289
vt 0.9541016 0.050354
vt 0.9873047 0.050354
vt 0.9873047 0.07434082
vt 0.9541016 0.07434082
vt 0.9458008 0.9946289
vt 0.9946289 0.9946289
vt 0.9946289 0.9482422
vt 0.9458008 0.9482422
vt 1.408203 0.671875
vt 1.428711 0.6982422
vt 1.428711 0.671875
vt 1.408203 0.6982422
vt 1.428711 0.7231445
vt 1.408203 0.7231445
vt 1.428711 0.7387695
vt 1.408203 0.7387695
vt 1.428711 0.7602539
vt 0.4086914 0.671875
vt 0.4284668 0.671875
vt 0.4284668 0.6982422
vt 0.4086914 0.6982422
vt 0.4284668 0.7231445
vt 0.4086914 0.7231445
vt 0.4284668 0.7387695
vt 0.4086914 0.7387695
vt 0.4284668 0.7602539
vt 0.02734375 0.3557129
vt 0.05123901 0.3557129
vt 0.05123901 0.3933105
vt 0.02734375 0.3933105
vt 0.003458023 0.3557129
vt 0.05123901 0.4326172
vt 0.003458023 0.3933105
vt 0.02734375 0.4326172
vt 0.003458023 0.4326172
vt 0.05123901 0.4655762
vt 0.02734375 0.4655762
vt 0.003458023 0.4655762
vt 0.02734375 0.4980469
vt 0.05123901 0.4980469
vt 0.003458023 0.4980469
vt 0.05123901 0.5307617
vt 0.02734375 0.5307617
vt 0.003458023 0.5307617
vt 0.05123901 0.5634766
vt 0.02734375 0.5634766
vt 0.003458023 0.5634766
vt 0.05123901 0.6015625
vt 0.02734375 0.6015625
vt 0.003458023 0.6015625
vt 0.05123901 0.640625
vt 0.02734375 0.640625
vt 0.003458023 0.640625
vt 0.05123901 0.6831055
vt 0.003458023 0.6831055
vt 0.02864075 0.6831055
vn 0.9590794 0.2813095 -0.03212081
vn 0.9388695 -0.3277129 0.1054912
vn 0.969376 -0.2306034 0.08445206
vn 0.8405059 -0.5216828 0.1462764
vn 0.8405059 -0.5216827 0.1462764
vn -0.8032252 -0.1828849 0.566906
vn -0.9882528 -0.1521517 0.01436425
vn -0.9880271 -0.1531725 0.01845245
vn -0.8132185 -0.182265 0.5526799
vn -0.9883284 -0.151515 0.01581544
vn -0.4299848 -0.2050018 0.8792538
vn -0.8190129 -0.1816133 0.5442744
vn -0.4512269 -0.2034762 0.8689027
vn -0.1172104 -0.2290901 0.9663226
vn -0.4626204 -0.2029592 0.8630121
vn -0.1127352 -0.2277872 0.9671627
vn 3.762505E-06 -0.244689 0.9696017
vn -0.09867527 -0.2267152 0.9689497
vn 4.186027E-06 -0.2446892 0.9696016
vn 0.1171795 -0.2291166 0.9663202
vn -5.694393E-06 -0.2446895 0.9696015
vn 0.1127161 -0.2277859 0.9671654
vn 0.4304795 -0.205025 0.8790063
vn 0.09867531 -0.2266725 0.9689596
vn 0.451287 -0.2034701 0.8688728
vn 0.8032953 -0.1829787 0.5667764
vn 0.4619912 -0.2029306 0.8633559
vn 0.8132405 -0.1822661 0.5526472
vn 0.8190024 -0.1814927 0.5443303
vn -0 0 1
vn -0 0 1
vn -0 0 1
vn -0 0 1
vn 0.05730438 0.007146422 0.9983312
vn 0.03976058 0.02791014 0.9988193
vn -0 0.02793224 0.9996099
vn -0 0.007482349 0.999972
vn -0 0.001559909 0.9999988
vn 0.06106984 0.001665012 0.9981322
vn -0 0.01186198 0.9999297
vn 0.05186233 0.01184601 0.998584
vn 0.02443628 -0.0005130534 0.9997012
vn -0.05730454 0.007146426 0.9983311
vn -0.03976079 0.02791017 0.9988193
vn -0.06106986 0.001665015 0.9981322
vn -0.05186229 0.01184601 0.998584
vn -0.02443633 -0.0005130523 0.9997012
vn -0 -0.0005110403 0.9999999
vn 0.02205615 -0.001251656 0.9997559
vn -0.02205617 -0.001251656 0.9997559
vn -0 -0.001215574 0.9999993
vn 0.01780057 -0.002009525 0.9998395
vn -0.01780058 -0.002009525 0.9998395
vn -0 -0.001987945 0.9999981
vn 0.01588922 -0.001680366 0.9998723
vn -0.01588925 -0.001680365 0.9998723
vn -0 -0.001309346 0.9999992
vn -0 0 1
vn -0.1093391 -0.1249192 0.9861238
vn -0.1093391 -0.1249192 0.9861238
vn -0.1093391 -0.1249192 0.9861238
vn -0.1093391 -0.1249192 0.9861238
vn -1 0 0
vn -1 0 0
vn -1 0 0
vn -1 0 0
vn 0.1093391 -0.1249192 0.9861238
vn 0.1093391 -0.1249192 0.9861238
vn 0.1093391 -0.1249192 0.9861238
vn 0.1093391 -0.1249192 0.9861238
vn 1.906936E-07 -0.1904175 -0.9817031
vn -0.4763044 -0.1753333 -0.8616219
vn 1.98721E-07 -0.1904175 -0.9817031
vn -0.453339 -0.1764709 -0.8736943
vn -0.783496 -0.1690283 -0.5979662
vn -0.7525929 -0.168336 -0.6366058
vn -0.96035 -0.1850433 -0.2085353
vn -0.9395935 -0.1781154 -0.2922995
vn -0.979362 -0.1972274 0.04417793
vn 1.906936E-07 -0.1904175 -0.9817031
vn 1.98721E-07 -0.1904175 -0.9817031
vn 0.4763046 -0.1753334 -0.8616219
vn 0.4533392 -0.176471 -0.8736942
vn 0.7834959 -0.1690283 -0.5979661
vn 0.752593 -0.168336 -0.6366056
vn 0.9603497 -0.1850432 -0.2085363
vn 0.9395933 -0.1781153 -0.2923003
vn 0.979362 -0.1972273 0.04417681
vn -0.9882528 -0.1521517 0.01436425
vn -0.9883284 -0.151515 0.01581544
vn -0.8245026 -0.07938873 -0.5602613
vn -0.8192528 -0.07862621 -0.5680164
vn -0.9880271 -0.1531725 0.01845245
vn -0.4883369 -0.01586059 -0.872511
vn -0.8127463 -0.07758234 -0.5774291
vn -0.4686869 -0.01362485 -0.8832592
vn -0.4494327 -0.01150545 -0.8932401
vn -0.1385071 0.02906461 -0.9899349
vn -0.1264353 0.02986988 -0.991525
vn -0.1151477 0.03065827 -0.9928751
vn -0 0.04144695 -0.9991407
vn -0 0.04139814 -0.9991428
vn -0 0.04149203 -0.9991388
vn 0.1385071 0.0290646 -0.9899349
vn 0.1264353 0.02986987 -0.991525
vn 0.1151477 0.03065828 -0.9928751
vn 0.4883369 -0.01586062 -0.872511
vn 0.4686867 -0.01362486 -0.8832594
vn 0.4494323 -0.01150543 -0.8932403
vn 0.8245028 -0.07938875 -0.5602612
vn 0.8192527 -0.07862626 -0.5680165
vn 0.8127462 -0.07758241 -0.5774293
vn 0.9883717 -0.1513443 0.01470926
vn 0.9882515 -0.1521571 0.01438995
vn 0.9879819 -0.1533325 0.01952213
vn 0.8190024 -0.1814927 0.5443303
vn 0.8032953 -0.1829787 0.5667764
vn 0.8132405 -0.1822661 0.5526472
g bf_geo_0
f 3/3/3 2/2/2 1/1/1
f 4/4/4 2/2/2 3/3/3
f 5/5/5 4/4/4 3/3/3
f 8/8/8 7/7/7 6/6/6
f 7/7/7 9/9/9 6/6/6
f 7/7/7 10/10/10 9/9/9
f 6/6/6 9/9/9 11/11/11
f 10/10/10 12/12/12 9/9/9
f 9/9/9 13/13/13 11/11/11
f 9/9/9 12/12/12 13/13/13
f 11/11/11 13/13/13 14/14/14
f 12/12/12 15/15/15 13/13/13
f 13/13/13 16/16/16 14/14/14
f 13/13/13 15/15/15 16/16/16
f 14/14/14 16/16/16 17/17/17
f 15/15/15 18/18/18 16/16/16
f 16/16/16 19/19/19 17/17/17
f 16/16/16 18/18/18 19/19/19
f 17/17/17 19/19/19 20/20/20
f 18/18/18 21/21/21 19/19/19
f 19/19/19 22/22/22 20/20/20
f 19/19/19 21/21/21 22/22/22
f 20/20/20 22/22/22 23/23/23
f 21/21/21 24/24/24 22/22/22
f 22/22/22 25/25/25 23/23/23
f 22/22/22 24/24/24 25/25/25
f 23/23/23 25/25/25 26/26/26
f 24/24/24 27/27/27 25/25/25
f 25/25/25 28/28/28 26/26/26
f 25/25/25 27/27/27 28/28/28
f 27/27/27 29/29/29 28/28/28
f 32/32/32 31/31/31 30/30/30
f 33/33/33 32/32/32 30/30/30
f 36/36/36 35/35/35 34/34/34
f 37/37/37 36/36/36 34/34/34
f 37/37/37 34/34/34 38/38/38
f 34/34/34 39/39/39 38/38/38
f 40/40/40 38/38/38 39/39/39
f 41/41/41 40/40/40 39/39/39
f 41/41/41 42/42/42 40/40/40
f 36/36/36 37/37/37 43/43/43
f 43/43/43 37/37/37 38/38/38
f 44/44/44 36/36/36 43/43/43
f 45/45/45 43/43/43 38/38/38
f 38/38/38 40/40/40 45/45/45
f 40/40/40 46/46/46 45/45/45
f 47/47/47 46/46/46 40/40/40
f 42/42/42 48/48/48 40/40/40
f 48/48/48 47/47/47 40/40/40
f 42/42/42 49/49/49 48/48/48
f 50/50/50 47/47/47 48/48/48
f 49/49/49 51/51/51 48/48/48
f 51/51/51 50/50/50 48/48/48
f 49/49/49 52/52/52 51/51/51
f 53/53/53 50/50/50 51/51/51
f 52/52/52 54/54/54 51/51/51
f 54/54/54 53/53/53 51/51/51
f 52/52/52 55/55/55 54/54/54
f 56/56/56 53/53/53 54/54/54
f 55/55/55 57/57/57 54/54/54
f 57/57/57 56/56/56 54/54/54
f 55/55/55 58/58/58 57/57/57
f 58/58/58 56/56/56 57/57/57
f 61/61/61 60/60/60 59/59/59
f 62/62/62 61/61/61 59/59/59
f 65/65/65 64/64/64 63/63/63
f 66/66/66 65/65/65 63/63/63
f 69/69/69 68/68/68 67/67/67
f 70/70/70 69/69/69 67/67/67
f 73/73/73 72/72/72 71/71/71
f 72/72/72 74/74/74 71/71/71
f 72/72/72 75/75/75 74/74/74
f 75/75/75 76/76/76 74/74/74
f 75/75/75 77/77/77 76/76/76
f 77/77/77 78/78/78 76/76/76
f 77/77/77 79/79/79 78/78/78
f 82/82/82 81/81/81 80/80/80
f 83/83/83 82/82/82 80/80/80
f 84/84/84 82/82/82 83/83/83
f 85/85/85 84/84/84 83/83/83
f 86/86/86 84/84/84 85/85/85
f 87/87/87 86/86/86 85/85/85
f 88/88/88 86/86/86 87/87/87
f 91/91/91 90/90/90 89/89/89
f 92/92/92 91/91/91 89/89/89
f 92/92/92 89/89/89 93/93/93
f 94/94/94 91/91/91 92/92/92
f 95/95/95 92/92/92 93/93/93
f 96/96/96 94/94/94 92/92/92
f 96/96/96 92/92/92 95/95/95
f 97/97/97 96/96/96 95/95/95
f 98/98/98 94/94/94 96/96/96
f 99/99/99 96/96/96 97/97/97
f 99/99/99 98/98/98 96/96/96
f 100/100/100 99/99/99 97/97/97
f 99/99/99 101/101/101 98/98/98
f 99/99/99 100/100/100 101/101/101
f 101/101/101 102/102/102 98/98/98
f 100/100/100 103/103/103 101/101/101
f 104/104/104 102/102/102 101/101/101
f 105/105/105 101/101/101 103/103/103
f 105/105/105 104/104/104 101/101/101
f 106/106/106 105/105/105 103/103/103
f 107/107/107 104/104/104 105/105/105
f 108/108/108 105/105/105 106/106/106
f 108/108/108 107/107/107 105/105/105
f 109/109/109 108/108/108 106/106/106
f 110/110/110 107/107/107 108/108/108
f 111/111/111 108/108/108 109/109/109
f 111/111/111 110/110/110 108/108/108
f 112/112/112 111/111/111 109/109/109
f 113/113/113 110/110/110 111/111/111
f 114/114/114 111/111/111 112/112/112
f 114/114/114 113/113/113 111/111/111
f 115/115/115 114/114/114 112/112/112
f 116/116/116 113/113/113 114/114/114
f 115/115/115 117/117/117 114/114/114
f 118/118/118 116/116/116 114/114/114
f 117/117/117 118/118/118 114/114/114
