g body_emission_01_geo
v 0.3914553 1.806633 -0.1271915
v 0.2419326 1.659391 -0.3329918
v 0.3914553 1.659391 -0.1271915
v 0.2419326 1.806633 -0.3329918
v -7.568697E-10 1.659391 -0.4116005
v -7.568697E-10 1.806633 -0.4116005
v -0.2419326 1.659391 -0.3329917
v -0.2419326 1.806633 -0.3329917
v -0.3914553 1.659391 -0.1271915
v -0.3914553 1.806633 -0.1271915
v -0.3914553 1.659391 0.1271915
v -0.3914553 1.806633 0.1271915
v -0.2419326 1.659391 0.3329916
v -0.2419326 1.806633 0.3329916
v -1.302351E-08 1.659391 0.4116003
v -1.302351E-08 1.806633 0.4116003
v 0.2419325 1.659391 0.3329916
v 0.2419325 1.806633 0.3329916
v 0.3914551 1.659391 0.1271914
v 0.3914551 1.806633 0.1271914
v 0.3914553 1.659391 -0.1271915
v 0.3914553 1.806633 -0.1271915
v 0.4128242 1.49428 -0.1304094
v 0.2595187 1.343313 -0.3414164
v 0.4128242 1.343313 -0.1304094
v 0.2595187 1.49428 -0.3414164
v -0 1.343313 -0.4220138
v -0 1.49428 -0.4220138
v -0.2595186 1.343313 -0.3414162
v -0.2595186 1.49428 -0.3414162
v -0.412824 1.343313 -0.1304094
v -0.412824 1.49428 -0.1304094
v -0.412824 1.343313 0.1304094
v -0.412824 1.49428 0.1304094
v -0.2595186 1.343313 0.3414162
v -0.2595186 1.49428 0.3414162
v -1.462712E-08 1.343313 0.4220136
v -1.462712E-08 1.49428 0.4220136
v 0.2595185 1.343313 0.3414162
v 0.2595185 1.49428 0.3414162
v 0.4128239 1.343313 0.1304093
v 0.4128239 1.49428 0.1304093
v 0.4128242 1.343313 -0.1304094
v 0.4128242 1.49428 -0.1304094
v 0.3412077 1.63974 -0.1062255
v 0.216332 1.50812 -0.2781018
v 0.3412075 1.50812 -0.1062255
v 0.216332 1.63974 -0.2781018
v -6.699705E-09 1.50812 -0.3437528
v 8.277476E-09 1.63974 -0.3437528
v -0.216332 1.50812 -0.2781018
v -0.2163319 1.63974 -0.2781018
v -0.3412074 1.50812 -0.1062254
v -0.3412074 1.63974 -0.1062254
v -0.3412074 1.50812 0.1062254
v -0.3412074 1.63974 0.1062254
v -0.2163319 1.50812 0.2781018
v -0.2163319 1.63974 0.2781018
v -0.1205046 1.50812 0.3269282
v -0.1205046 1.63974 0.3269282
v -1.540148E-08 1.50812 0.3437527
v -1.455539E-08 1.63974 0.3437527
v 0.1205045 1.50812 0.3269282
v 0.1205045 1.63974 0.3269282
v 0.2163319 1.50812 0.2781017
v 0.2163319 1.63974 0.2781017
v 0.3412074 1.50812 0.1062254
v 0.3412073 1.63974 0.1062254
v 0.3412075 1.50812 -0.1062255
v 0.3412077 1.63974 -0.1062255
v 8.277476E-09 1.63974 -4.096513E-09
v 0.3412073 1.63974 0.1062254
v 0.2163319 1.63974 0.2781017
v 0.1205045 1.63974 0.3269282
v 0.3412077 1.63974 -0.1062255
v -1.455539E-08 1.63974 0.3437527
v 0.216332 1.63974 -0.2781018
v -0.1205046 1.63974 0.3269282
v 8.277476E-09 1.63974 -0.3437528
v -0.2163319 1.63974 0.2781018
v -0.2163319 1.63974 -0.2781018
v -0.3412074 1.63974 0.1062254
v -0.3412074 1.63974 -0.1062254
v 0.3412074 1.50812 0.1062254
v -6.699705E-09 1.50812 -4.096513E-09
v 0.2163319 1.50812 0.2781017
v 0.3412075 1.50812 -0.1062255
v 0.1205045 1.50812 0.3269282
v 0.216332 1.50812 -0.2781018
v -1.540148E-08 1.50812 0.3437527
v -6.699705E-09 1.50812 -0.3437528
v -0.1205046 1.50812 0.3269282
v -0.216332 1.50812 -0.2781018
v -0.2163319 1.50812 0.2781018
v -0.3412074 1.50812 -0.1062254
v -0.3412074 1.50812 0.1062254
v -0 1.49428 -4.128434E-09
v 0.4128239 1.49428 0.1304093
v 0.2595185 1.49428 0.3414162
v -1.462712E-08 1.49428 0.4220136
v 0.4128242 1.49428 -0.1304094
v -0.2595186 1.49428 0.3414162
v 0.2595187 1.49428 -0.3414164
v -0.412824 1.49428 0.1304094
v -0 1.49428 -0.4220138
v -0.412824 1.49428 -0.1304094
v -0.2595186 1.49428 -0.3414162
v -7.568697E-10 1.806633 -2.270609E-09
v 0.3914551 1.806633 0.1271914
v 0.2419325 1.806633 0.3329916
v -1.302351E-08 1.806633 0.4116003
v 0.3914553 1.806633 -0.1271915
v -0.2419326 1.806633 0.3329916
v 0.2419326 1.806633 -0.3329918
v -0.3914553 1.806633 0.1271915
v -7.568697E-10 1.806633 -0.4116005
v -0.3914553 1.806633 -0.1271915
v -0.2419326 1.806633 -0.3329917
v 0.3914551 1.659391 0.1271914
v -7.568697E-10 1.659391 -2.270609E-09
v 0.2419325 1.659391 0.3329916
v 0.3914553 1.659391 -0.1271915
v -1.302351E-08 1.659391 0.4116003
v 0.2419326 1.659391 -0.3329918
v -0.2419326 1.659391 0.3329916
v -7.568697E-10 1.659391 -0.4116005
v -0.3914553 1.659391 0.1271915
v -0.2419326 1.659391 -0.3329917
v -0.3914553 1.659391 -0.1271915
vt 0.02186584 0.8789062
vt 0.05029297 0.8583984
vt 0.02186584 0.8583984
vt 0.05029297 0.8789062
vt 0.07867432 0.8583984
vt 0.07867432 0.8789062
vt 0.1071167 0.8583984
vt 0.1071167 0.8789062
vt 0.135498 0.8583984
vt 0.135498 0.8789062
vt 0.1639404 0.8583984
vt 0.1639404 0.8789062
vt 0.1923828 0.8583984
vt 0.1923828 0.8789062
vt 0.2208252 0.8583984
vt 0.2208252 0.8789062
vt 0.2491455 0.8583984
vt 0.2491455 0.8789062
vt 0.2775879 0.8583984
vt 0.2775879 0.8789062
vt 0.3059082 0.8583984
vt 0.3059082 0.8789062
vt 0.02186584 0.8789062
vt 0.05029297 0.8583984
vt 0.02186584 0.8583984
vt 0.05029297 0.8789062
vt 0.07867432 0.8583984
vt 0.07867432 0.8789062
vt 0.1071167 0.8583984
vt 0.1071167 0.8789062
vt 0.135498 0.8583984
vt 0.135498 0.8789062
vt 0.1639404 0.8583984
vt 0.1639404 0.8789062
vt 0.1923828 0.8583984
vt 0.1923828 0.8789062
vt 0.2208252 0.8583984
vt 0.2208252 0.8789062
vt 0.2491455 0.8583984
vt 0.2491455 0.8789062
vt 0.2775879 0.8583984
vt 0.2775879 0.8789062
vt 0.3059082 0.8583984
vt 0.3059082 0.8789062
vt 0.3059082 0.8789062
vt 0.2775879 0.8583984
vt 0.3059082 0.8583984
vt 0.2775879 0.8789062
vt 0.2491455 0.8583984
vt 0.2491455 0.8789062
vt 0.2208252 0.8583984
vt 0.2208252 0.8789062
vt 0.1923828 0.8583984
vt 0.1923828 0.8789062
vt 0.1639404 0.8583984
vt 0.1639404 0.8789062
vt 0.135498 0.8583984
vt 0.135498 0.8789062
vt 0.1213379 0.8583984
vt 0.1213379 0.8789062
vt 0.1071167 0.8583984
vt 0.1071167 0.8789062
vt 0.09289551 0.8583984
vt 0.09289551 0.8789062
vt 0.07867432 0.8583984
vt 0.07867432 0.8789062
vt 0.05029297 0.8583984
vt 0.05029297 0.8789062
vt 0.02186584 0.8583984
vt 0.02186584 0.8789062
vt 0.2568359 0.8364258
vt 0.2687988 0.8325195
vt 0.2641602 0.8261719
vt 0.2607422 0.824707
vt 0.2687988 0.8408203
vt 0.2568359 0.8237305
vt 0.2641602 0.847168
vt 0.2526855 0.824707
vt 0.2568359 0.8496094
vt 0.2491455 0.8261719
vt 0.2491455 0.847168
vt 0.2445068 0.8325195
vt 0.2445068 0.8408203
vt 0.2402344 0.8413086
vt 0.2280273 0.8369141
vt 0.2355957 0.8476562
vt 0.2402344 0.8334961
vt 0.2320557 0.8496094
vt 0.2355957 0.8266602
vt 0.2280273 0.8500977
vt 0.2280273 0.8242188
vt 0.2241211 0.8496094
vt 0.220459 0.8266602
vt 0.220459 0.8476562
vt 0.2158203 0.8334961
vt 0.2158203 0.8413086
vt 0.2568359 0.8364258
vt 0.2687988 0.8325195
vt 0.2641602 0.8261719
vt 0.2568359 0.8237305
vt 0.2687988 0.8408203
vt 0.2491455 0.8261719
vt 0.2641602 0.847168
vt 0.2445068 0.8325195
vt 0.2568359 0.8496094
vt 0.2445068 0.8408203
vt 0.2491455 0.847168
vt 0.2568359 0.8364258
vt 0.2687988 0.8325195
vt 0.2641602 0.8261719
vt 0.2568359 0.8237305
vt 0.2687988 0.8408203
vt 0.2491455 0.8261719
vt 0.2641602 0.847168
vt 0.2445068 0.8325195
vt 0.2568359 0.8496094
vt 0.2445068 0.8408203
vt 0.2491455 0.847168
vt 0.2402344 0.8413086
vt 0.2280273 0.8369141
vt 0.2355957 0.8476562
vt 0.2402344 0.8334961
vt 0.2280273 0.8500977
vt 0.2355957 0.8266602
vt 0.220459 0.8476562
vt 0.2280273 0.8242188
vt 0.2158203 0.8413086
vt 0.220459 0.8266602
vt 0.2158203 0.8334961
vn 0.9510568 0 -0.3090162
vn 0.5877852 0 -0.8090171
vn 0.9510568 0 -0.3090162
vn 0.5877852 0 -0.8090171
vn -0 0 -1
vn -0 0 -1
vn -0.5877855 0 -0.8090168
vn -0.5877855 0 -0.8090168
vn -0.9510565 0 -0.3090168
vn -0.9510565 0 -0.3090168
vn -0.9510565 0 0.3090168
vn -0.9510565 0 0.3090168
vn -0.5877851 0 0.8090171
vn -0.5877851 0 0.8090171
vn -0 0 1
vn -0 0 1
vn 0.5877854 0 0.8090169
vn 0.5877854 0 0.8090169
vn 0.9510565 0 0.3090171
vn 0.9510565 0 0.3090171
vn 0.9510568 0 -0.3090162
vn 0.9510568 0 -0.3090162
vn 0.9510568 0 -0.309016
vn 0.5877849 0 -0.8090172
vn 0.9510568 0 -0.309016
vn 0.5877849 0 -0.8090172
vn -0 0 -1
vn -0 0 -1
vn -0.5877853 0 -0.8090169
vn -0.5877853 0 -0.8090169
vn -0.9510565 0 -0.3090169
vn -0.9510565 0 -0.3090169
vn -0.9510565 0 0.309017
vn -0.9510565 0 0.309017
vn -0.5877852 0 0.809017
vn -0.5877852 0 0.809017
vn -0 0 1
vn -0 0 1
vn 0.5877853 0 0.8090169
vn 0.5877853 0 0.8090169
vn 0.9510565 0 0.3090171
vn 0.9510565 0 0.3090171
vn 0.9510568 0 -0.309016
vn 0.9510568 0 -0.309016
vn 0.9510568 0 -0.3090163
vn 0.5877852 0 -0.809017
vn 0.9510568 0 -0.3090163
vn 0.5877852 0 -0.809017
vn -3.700295E-07 0 -1
vn -3.700295E-07 0 -1
vn -0.5877855 0 -0.8090168
vn -0.5877855 0 -0.8090168
vn -0.9510565 0 -0.3090169
vn -0.9510565 0 -0.3090169
vn -0.9510565 0 0.3090169
vn -0.9510565 0 0.3090169
vn -0.5877852 0 0.809017
vn -0.5877852 0 0.809017
vn -0.3090169 0 0.9510565
vn -0.3090169 0 0.9510565
vn -0 0 1
vn -0 0 1
vn 0.3090171 0 0.9510565
vn 0.3090171 0 0.9510565
vn 0.5877854 0 0.809017
vn 0.5877854 0 0.809017
vn 0.9510565 0 0.3090172
vn 0.9510565 0 0.3090172
vn 0.9510568 0 -0.3090163
vn 0.9510568 0 -0.3090163
vn -0 1 0
vn -0 1 0
vn -0 1 2.792814E-07
vn -0 1 -4.116747E-07
vn -0 1 0
vn -0 1 -4.116747E-07
vn -0 1 -5.585624E-07
vn -0 1 -2.792815E-07
vn -0 1 0
vn -0 1 0
vn -0 1 5.585627E-07
vn -0 1 0
vn -0 1 0
vn -0 -1 0
vn -0 -1 0
vn -0 -1 0
vn -0 -1 0
vn -0 -1 2.792816E-07
vn -0 -1 0
vn -0 -1 3.892428E-07
vn -0 -1 0
vn -0 -1 1.099613E-07
vn -0 -1 -1.117125E-06
vn -0 -1 5.585629E-07
vn -0 -1 1.117126E-06
vn -0 -1 -1.117126E-06
vn -0 1 0
vn -0 1 0
vn -0 1 0
vn -0 1 0
vn -0 1 0
vn -0 1 0
vn -0 1 3.910862E-07
vn -0 1 0
vn -0 1 0
vn -0 1 0
vn -0 1 0
vn -0 1 0
vn -0 1 0
vn -0 1 -4.314764E-07
vn -0 1 0
vn -0 1 8.629538E-07
vn -0 1 -8.629536E-07
vn -0 1 0
vn -0 1 8.629532E-07
vn -0 1 0
vn -0 1 0
vn -0 1 4.314762E-07
vn -0 -1 8.629536E-07
vn -0 -1 0
vn -0 -1 0
vn -0 -1 0
vn -0 -1 0
vn -0 -1 4.314763E-07
vn -0 -1 -4.314767E-07
vn -0 -1 0
vn -0 -1 0
vn -0 -1 -8.62953E-07
vn -0 -1 0
g body_emission_01_geo_0
f 3/3/3 2/2/2 1/1/1
f 2/2/2 4/4/4 1/1/1
f 2/2/2 5/5/5 4/4/4
f 5/5/5 6/6/6 4/4/4
f 5/5/5 7/7/7 6/6/6
f 7/7/7 8/8/8 6/6/6
f 7/7/7 9/9/9 8/8/8
f 9/9/9 10/10/10 8/8/8
f 9/9/9 11/11/11 10/10/10
f 11/11/11 12/12/12 10/10/10
f 11/11/11 13/13/13 12/12/12
f 13/13/13 14/14/14 12/12/12
f 13/13/13 15/15/15 14/14/14
f 15/15/15 16/16/16 14/14/14
f 15/15/15 17/17/17 16/16/16
f 17/17/17 18/18/18 16/16/16
f 17/17/17 19/19/19 18/18/18
f 19/19/19 20/20/20 18/18/18
f 19/19/19 21/21/21 20/20/20
f 21/21/21 22/22/22 20/20/20
f 25/25/25 24/24/24 23/23/23
f 24/24/24 26/26/26 23/23/23
f 24/24/24 27/27/27 26/26/26
f 27/27/27 28/28/28 26/26/26
f 27/27/27 29/29/29 28/28/28
f 29/29/29 30/30/30 28/28/28
f 29/29/29 31/31/31 30/30/30
f 31/31/31 32/32/32 30/30/30
f 31/31/31 33/33/33 32/32/32
f 33/33/33 34/34/34 32/32/32
f 33/33/33 35/35/35 34/34/34
f 35/35/35 36/36/36 34/34/34
f 35/35/35 37/37/37 36/36/36
f 37/37/37 38/38/38 36/36/36
f 37/37/37 39/39/39 38/38/38
f 39/39/39 40/40/40 38/38/38
f 39/39/39 41/41/41 40/40/40
f 41/41/41 42/42/42 40/40/40
f 41/41/41 43/43/43 42/42/42
f 43/43/43 44/44/44 42/42/42
f 47/47/47 46/46/46 45/45/45
f 46/46/46 48/48/48 45/45/45
f 46/46/46 49/49/49 48/48/48
f 49/49/49 50/50/50 48/48/48
f 49/49/49 51/51/51 50/50/50
f 51/51/51 52/52/52 50/50/50
f 51/51/51 53/53/53 52/52/52
f 53/53/53 54/54/54 52/52/52
f 53/53/53 55/55/55 54/54/54
f 55/55/55 56/56/56 54/54/54
f 55/55/55 57/57/57 56/56/56
f 57/57/57 58/58/58 56/56/56
f 58/58/58 57/57/57 59/59/59
f 60/60/60 58/58/58 59/59/59
f 60/60/60 59/59/59 61/61/61
f 61/61/61 62/62/62 60/60/60
f 62/62/62 61/61/61 63/63/63
f 64/64/64 62/62/62 63/63/63
f 64/64/64 63/63/63 65/65/65
f 65/65/65 66/66/66 64/64/64
f 65/65/65 67/67/67 66/66/66
f 67/67/67 68/68/68 66/66/66
f 67/67/67 69/69/69 68/68/68
f 69/69/69 70/70/70 68/68/68
f 73/73/73 72/72/72 71/71/71
f 73/73/73 71/71/71 74/74/74
f 72/72/72 75/75/75 71/71/71
f 74/74/74 71/71/71 76/76/76
f 75/75/75 77/77/77 71/71/71
f 76/76/76 71/71/71 78/78/78
f 77/77/77 79/79/79 71/71/71
f 78/78/78 71/71/71 80/80/80
f 79/79/79 81/81/81 71/71/71
f 82/82/82 80/80/80 71/71/71
f 81/81/81 83/83/83 71/71/71
f 83/83/83 82/82/82 71/71/71
f 86/86/86 85/85/85 84/84/84
f 84/84/84 85/85/85 87/87/87
f 88/88/88 85/85/85 86/86/86
f 87/87/87 85/85/85 89/89/89
f 90/90/90 85/85/85 88/88/88
f 89/89/89 85/85/85 91/91/91
f 92/92/92 85/85/85 90/90/90
f 91/91/91 85/85/85 93/93/93
f 94/94/94 85/85/85 92/92/92
f 93/93/93 85/85/85 95/95/95
f 96/96/96 85/85/85 94/94/94
f 95/95/95 85/85/85 96/96/96
f 99/99/99 98/98/98 97/97/97
f 100/100/100 99/99/99 97/97/97
f 98/98/98 101/101/101 97/97/97
f 102/102/102 100/100/100 97/97/97
f 101/101/101 103/103/103 97/97/97
f 104/104/104 102/102/102 97/97/97
f 103/103/103 105/105/105 97/97/97
f 106/106/106 104/104/104 97/97/97
f 105/105/105 107/107/107 97/97/97
f 107/107/107 106/106/106 97/97/97
f 110/110/110 109/109/109 108/108/108
f 111/111/111 110/110/110 108/108/108
f 109/109/109 112/112/112 108/108/108
f 113/113/113 111/111/111 108/108/108
f 112/112/112 114/114/114 108/108/108
f 115/115/115 113/113/113 108/108/108
f 114/114/114 116/116/116 108/108/108
f 117/117/117 115/115/115 108/108/108
f 116/116/116 118/118/118 108/108/108
f 118/118/118 117/117/117 108/108/108
f 121/121/121 120/120/120 119/119/119
f 119/119/119 120/120/120 122/122/122
f 123/123/123 120/120/120 121/121/121
f 122/122/122 120/120/120 124/124/124
f 125/125/125 120/120/120 123/123/123
f 124/124/124 120/120/120 126/126/126
f 127/127/127 120/120/120 125/125/125
f 126/126/126 120/120/120 128/128/128
f 129/129/129 120/120/120 127/127/127
f 128/128/128 120/120/120 129/129/129
