g body_emission_03_geo
v 2.134052E-08 0.6761093 1.167096
v 0.3171974 0.9229189 0.9100938
v 0.3854863 0.6761093 1.109243
v 7.160241E-09 0.9229189 0.9576986
v -0.3854862 0.6761093 1.109243
v -0.3171974 0.9229189 0.9100942
v 0.2352903 1.139594 0.6712301
v -1.316267E-08 1.139594 0.7065423
v -0.2352903 1.139594 0.6712302
v -3.565385E-08 1.295074 0.4388745
v 0.2815097 1.295074 0.3522033
v -0.2815098 1.295074 0.3522033
vt 0.7338867 0.7875977
vt 0.7607422 0.8164062
vt 0.7646484 0.793457
vt 0.7333984 0.8125
vt 0.7026367 0.793457
vt 0.706543 0.8164062
vt 0.7539062 0.8398438
vt 0.7333984 0.8374023
vt 0.7133789 0.8398438
vt 0.7333984 0.859375
vt 0.7568359 0.8657227
vt 0.7104492 0.8657227
vn 4.191103E-07 0.6469478 0.7625343
vn 0.2110596 0.6962629 0.6860553
vn 0.2254006 0.6488135 0.7267981
vn 3.61967E-07 0.6945499 0.7194445
vn -0.2254004 0.6488138 0.7267981
vn -0.2110594 0.696263 0.6860552
vn 0.1787855 0.7924856 0.5830973
vn 2.140418E-07 0.7870473 0.6168927
vn -0.1787854 0.7924855 0.5830973
vn 1.088201E-07 0.8827343 0.4698725
vn 0.2604955 0.8863798 0.3827179
vn -0.2604955 0.8863799 0.3827178
g body_emission_03_geo_0
f 3/3/3 2/2/2 1/1/1
f 2/2/2 4/4/4 1/1/1
f 1/1/1 4/4/4 5/5/5
f 4/4/4 6/6/6 5/5/5
f 2/2/2 7/7/7 4/4/4
f 4/4/4 8/8/8 6/6/6
f 7/7/7 8/8/8 4/4/4
f 8/8/8 9/9/9 6/6/6
f 8/8/8 7/7/7 10/10/10
f 9/9/9 8/8/8 10/10/10
f 10/10/10 7/7/7 11/11/11
f 9/9/9 10/10/10 12/12/12
