g bf_geo
v -0.01533822 0.4641908 -0.02141219
v -0.01232002 0.4367992 -0.04789016
v -0.01731783 0.4906029 -0.04896149
v -0.01429961 0.4632114 -0.07543947
v -0.0414242 0.4914449 0.07743536
v -0.02518657 0.4705606 0.007023978
v -0.02639464 0.48993 0.005926974
v -0.04170139 0.4738065 0.07984462
v -0.1444848 0.5071693 0.1210814
v -0.1499677 0.4883416 0.1247914
v -0.2193156 0.5208635 0.05355741
v -0.2264085 0.5023525 0.05566205
v -0.2552691 0.5277023 -0.04342824
v -0.262367 0.5088601 -0.04649244
v -0.2327071 0.5294228 -0.1456324
v -0.2394235 0.5119102 -0.1501859
v -0.1214026 0.5076455 -0.1691168
v -0.1264456 0.4881044 -0.1741897
v -0.03154508 0.4902771 -0.1253726
v -0.03294244 0.4700128 -0.1284797
v -0.01781681 0.488768 -0.04572535
v -0.01614114 0.4695773 -0.05047877
v -0.2819473 0.1548199 -0.01969091
v -0.266141 0.1990028 -0.06976077
v -0.2806541 0.1031737 -0.06485691
v -0.2648478 0.1473566 -0.1149268
v -0.09655125 0.1484258 -0.01889704
v -0.0932397 0.09709686 -0.06432106
v -0.09690483 0.1938892 -0.07029662
v -0.09359325 0.1425603 -0.1157207
v 0.2819473 0.1548199 -0.01969091
v 0.2806541 0.1031737 -0.06485691
v 0.266141 0.1990028 -0.06976077
v 0.2648478 0.1473566 -0.1149268
v 0.09655125 0.1484258 -0.01889704
v 0.09690483 0.1938892 -0.07029662
v 0.0932397 0.09709686 -0.06432106
v 0.09359325 0.1425603 -0.1157207
v -0.1996481 1.265039 0.01878723
v -0.2008699 1.267582 -0.02648196
v -0.2309995 1.259618 -0.02693949
v -0.2315464 1.259618 0.02049119
v -0.2363658 1.250426 -0.02699288
v -0.2366393 1.250426 0.02064773
v -0.2253231 1.246704 -0.02704628
v -0.2253231 1.246704 0.02080428
v -0.2008699 1.267582 -0.02648196
v -0.1996481 1.265039 0.01878722
v 0.1996481 1.265039 0.01878723
v 0.2309995 1.259618 -0.02693949
v 0.2008699 1.267582 -0.02648196
v 0.2315464 1.259618 0.02049119
v 0.2363658 1.250426 -0.02699288
v 0.2366393 1.250426 0.02064773
v 0.2253231 1.246704 -0.02704628
v 0.2253231 1.246704 0.02080428
v 0.2008699 1.267582 -0.02648196
v 0.1996481 1.265039 0.01878722
v 0.056951 1.056519 0.1336981
v 0.05163243 1.056568 0.1346494
v 0.05163243 1.043322 0.1346494
v 0.056951 1.043273 0.1336981
v 0.07338759 1.034941 0.1299843
v 0.05422916 1.054549 0.133411
v 0.05408601 1.015478 0.1334366
v 0.03492757 1.035087 0.1368634
v -0.08849826 0.8133965 0.1266856
v -0.09361885 0.7117361 0.131027
v -0.0686432 0.7117361 0.131027
v -0.06355657 0.8127222 0.1266856
v -0.05970359 0.8871134 0.1116023
v -0.08455124 0.8890052 0.1116023
v -0.05604516 0.9519523 0.09638399
v -0.0809098 0.9539188 0.09482068
v -0.05529022 0.9698497 0.0952815
v -0.07924521 0.9939026 0.08841983
v -0.05381067 1.004925 0.09312083
v -0.07909068 1.005053 0.0880029
v 0.2924975 0.9574345 0.05727534
v 0.3236486 0.9793161 0.05914946
v 0.311942 0.9955191 0.0591795
v 0.280279 0.9727384 0.05770532
v 0.2672577 0.9375437 0.04126946
v 0.253757 0.9520297 0.03846117
v 0.2574716 0.9227388 -0.003493698
v 0.2436001 0.9374234 -0.003493751
v 0.2603437 0.9409347 -0.04733155
v 0.2730744 0.9263045 -0.04647912
v 0.295133 0.9638792 -0.06688736
v 0.3079002 0.948209 -0.06572359
v 0.3354636 0.969979 -0.06218056
v 0.3255447 0.9871435 -0.06674359
v 0.3561311 1.015206 -0.03184872
v 0.3634442 0.9965153 -0.02777071
v 0.3578028 1.001253 0.02553539
v 0.3503027 1.019401 0.02686558
v 0.311942 0.9955191 0.0591795
v 0.3236486 0.9793161 0.05914946
v 0.3124625 0.9299623 0.05905152
v 0.3423969 0.9507537 0.05797413
v 0.3306902 0.9669566 0.05800252
v 0.3002439 0.9452662 0.05672074
v 0.2872247 0.9085713 0.0402384
v 0.273724 0.9230573 0.03758357
v 0.2789488 0.8956541 -0.00207863
v 0.2650773 0.9103387 -0.002078681
v 0.2791781 0.9119623 -0.04352092
v 0.2919087 0.897332 -0.04271507
v 0.3138779 0.9354349 -0.06294163
v 0.3269726 0.9201227 -0.06105819
v 0.3546733 0.9405271 -0.05655114
v 0.3439255 0.9574325 -0.05983002
v 0.3684793 0.9835789 -0.02607638
v 0.3787695 0.9665838 -0.02368275
v 0.3735343 0.9705482 0.03146712
v 0.3646965 0.9879743 0.03194982
v 0.3306902 0.9669566 0.05800252
v 0.3423969 0.9507537 0.05797413
v 0.3528985 0.8836116 0.06278889
v 0.3761488 0.8995491 0.05761464
v 0.3644421 0.9157521 0.05644068
v 0.34068 0.8989156 0.06045811
v 0.3285618 0.8628146 0.04910674
v 0.3150612 0.8773006 0.04645192
v 0.3202859 0.8498974 0.00678971
v 0.3064145 0.8645819 0.006789659
v 0.3231914 0.849421 -0.01869143
v 0.3236115 0.869481 -0.05278879
v 0.3374948 0.8540808 -0.05263189
v 0.3551152 0.8886792 -0.0633966
v 0.3666377 0.8721293 -0.06171858
v 0.3850622 0.887832 -0.04910465
v 0.3738168 0.9048318 -0.05057372
v 0.3999394 0.9276586 -0.01839037
v 0.4102296 0.9106634 -0.01599674
v 0.4001543 0.9117996 0.0299486
v 0.3896443 0.9282656 0.02930768
v 0.3644421 0.9157521 0.05644068
v 0.3761488 0.8995491 0.05761464
v -0.05698536 1.104381 0.1253701
v -0.05881622 1.05299 0.1327041
v -0.04977191 1.05299 0.1347661
v -0.04794106 1.104381 0.1274321
v -0.05500427 1.143199 0.1240896
v -0.04595997 1.143199 0.1261516
v -0.04456965 1.203506 0.1029844
v -0.05361396 1.203506 0.1009224
v -0.05210723 1.235912 0.07617553
v -0.04306293 1.235912 0.07823753
v -0.05032647 1.256666 0.06125315
v -0.04257606 1.253417 0.06872978
v -0.04783174 1.289112 0.06584451
v -0.04008133 1.286667 0.07238541
v -0.04685423 1.321161 0.07089365
v -0.03910382 1.318335 0.07745384
v 0.01533822 0.4641908 -0.02141219
v 0.01731783 0.4906029 -0.04896149
v 0.01232002 0.4367992 -0.04789016
v 0.01429961 0.4632114 -0.07543947
v 0.0414242 0.4914449 0.07743536
v 0.02639464 0.48993 0.005926974
v 0.02518657 0.4705606 0.007023978
v 0.04170139 0.4738065 0.07984462
v 0.1444848 0.5071693 0.1210814
v 0.1499677 0.4883416 0.1247914
v 0.2193156 0.5208635 0.05355741
v 0.2264085 0.5023525 0.05566205
v 0.2552691 0.5277023 -0.04342824
v 0.262367 0.5088601 -0.04649244
v 0.2327071 0.5294228 -0.1456324
v 0.2394235 0.5119102 -0.1501859
v 0.1214026 0.5076455 -0.1691168
v 0.1264456 0.4881044 -0.1741897
v 0.03154508 0.4902771 -0.1253726
v 0.03294244 0.4700128 -0.1284797
v 0.01781681 0.488768 -0.04572535
v 0.01614114 0.4695773 -0.05047877
v 0.05698536 1.104381 0.1253701
v 0.04977191 1.05299 0.1347661
v 0.05881622 1.05299 0.1327041
v 0.04794106 1.104381 0.1274321
v 0.05500427 1.143199 0.1240896
v 0.04595997 1.143199 0.1261516
v 0.04456965 1.203506 0.1029844
v 0.05361396 1.203506 0.1009224
v 0.05210723 1.235912 0.07617553
v 0.04306293 1.235912 0.07823753
v 0.05032647 1.256666 0.06125315
v 0.04257606 1.253417 0.06872978
v 0.04783174 1.289112 0.06584451
v 0.04008133 1.286667 0.07238541
v 0.04685423 1.321161 0.07089365
v 0.03910382 1.318335 0.07745384
vt 0.1495361 0.6181641
vt 0.1739502 0.59375
vt 0.1739502 0.6425781
vt 0.1984863 0.6181641
vt 0.3000488 0.6640625
vt 0.3334961 0.6518555
vt 0.3334961 0.6640625
vt 0.3000488 0.6518555
vt 0.253418 0.6640625
vt 0.253418 0.6518555
vt 0.2132568 0.6640625
vt 0.2132568 0.6518555
vt 0.1748047 0.6640625
vt 0.1748047 0.6518555
vt 0.1274414 0.6640625
vt 0.1274414 0.6518555
vt 0.08392334 0.6640625
vt 0.08392334 0.6518555
vt 0.04421997 0.6640625
vt 0.04421997 0.6518555
vt 0.007148743 0.6640625
vt 0.007148743 0.6518555
vt 0.1495361 0.6181641
vt 0.1739502 0.6425781
vt 0.1739502 0.59375
vt 0.1984863 0.6181641
vt 0.1495361 0.6181641
vt 0.1739502 0.59375
vt 0.1739502 0.6425781
vt 0.1984863 0.6181641
vt 0.1495361 0.6181641
vt 0.1739502 0.59375
vt 0.1739502 0.6425781
vt 0.1984863 0.6181641
vt 0.1495361 0.6181641
vt 0.1739502 0.6425781
vt 0.1739502 0.59375
vt 0.1984863 0.6181641
vt 0.7333984 0.7143555
vt 0.7626953 0.7143555
vt 0.7626953 0.734375
vt 0.7333984 0.734375
vt 0.7626953 0.7412109
vt 0.7333984 0.7412109
vt 0.7626953 0.7490234
vt 0.7333984 0.7490234
vt 0.7626953 0.769043
vt 0.7333984 0.769043
vt 0.7333984 0.7143555
vt 0.7626953 0.734375
vt 0.7626953 0.7143555
vt 0.7333984 0.734375
vt 0.7626953 0.7412109
vt 0.7333984 0.7412109
vt 0.7626953 0.7490234
vt 0.7333984 0.7490234
vt 0.7626953 0.769043
vt 0.7333984 0.769043
vt 0.2819824 0.6088867
vt 0.2897949 0.6088867
vt 0.2897949 0.5917969
vt 0.2819824 0.5917969
vt 0.1495361 0.6181641
vt 0.1739502 0.6425781
vt 0.1739502 0.59375
vt 0.1984863 0.6181641
vt 0.7617188 0.550293
vt 0.7617188 0.472168
vt 0.7807617 0.472168
vt 0.7807617 0.550293
vt 0.7807617 0.609375
vt 0.7617188 0.609375
vt 0.7807617 0.6606445
vt 0.7617188 0.6606445
vt 0.7807617 0.6733398
vt 0.7617188 0.6918945
vt 0.7807617 0.7006836
vt 0.7617188 0.7006836
vt 0.2512207 0.4584961
vt 0.2783203 0.4584961
vt 0.2783203 0.4736328
vt 0.2512207 0.4736328
vt 0.2276611 0.4584961
vt 0.2276611 0.4736328
vt 0.1929932 0.4584961
vt 0.1929932 0.4736328
vt 0.1586914 0.4736328
vt 0.1586914 0.4584961
vt 0.1254883 0.4736328
vt 0.1254883 0.4584961
vt 0.09277344 0.4584961
vt 0.09277344 0.4736328
vt 0.0647583 0.4736328
vt 0.0647583 0.4584961
vt 0.03460693 0.4584961
vt 0.03460693 0.4736328
vt 0.003303528 0.4736328
vt 0.003303528 0.4584961
vt 0.2512207 0.4584961
vt 0.2783203 0.4584961
vt 0.2783203 0.4736328
vt 0.2512207 0.4736328
vt 0.2276611 0.4584961
vt 0.2276611 0.4736328
vt 0.1929932 0.4584961
vt 0.1929932 0.4736328
vt 0.1586914 0.4736328
vt 0.1586914 0.4584961
vt 0.1254883 0.4736328
vt 0.1254883 0.4584961
vt 0.09277344 0.4584961
vt 0.09277344 0.4736328
vt 0.0647583 0.4736328
vt 0.0647583 0.4584961
vt 0.03170776 0.4584961
vt 0.03170776 0.4736328
vt 0.003303528 0.4736328
vt 0.003303528 0.4584961
vt 0.2548828 0.4584961
vt 0.2783203 0.4584961
vt 0.2783203 0.4736328
vt 0.2548828 0.4736328
vt 0.2276611 0.4584961
vt 0.2276611 0.4736328
vt 0.1929932 0.4584961
vt 0.1929932 0.4736328
vt 0.1776123 0.4584961
vt 0.1541748 0.4736328
vt 0.1541748 0.4584961
vt 0.1209717 0.4736328
vt 0.1209717 0.4584961
vt 0.09277344 0.4584961
vt 0.09277344 0.4736328
vt 0.0647583 0.4736328
vt 0.0647583 0.4584961
vt 0.02978516 0.4584961
vt 0.02978516 0.4736328
vt 0.003303528 0.4736328
vt 0.003303528 0.4584961
vt 0.7924805 0.5097656
vt 0.7924805 0.4711914
vt 0.800293 0.4711914
vt 0.800293 0.5097656
vt 0.7924805 0.5371094
vt 0.800293 0.5371094
vt 0.800293 0.5830078
vt 0.7924805 0.5830078
vt 0.7924805 0.6113281
vt 0.800293 0.6113281
vt 0.7924805 0.6274414
vt 0.800293 0.6245117
vt 0.7924805 0.6508789
vt 0.800293 0.6508789
vt 0.7924805 0.6728516
vt 0.800293 0.6728516
vt 0.1495361 0.6181641
vt 0.1739502 0.6425781
vt 0.1739502 0.59375
vt 0.1984863 0.6181641
vt 0.3000488 0.6640625
vt 0.3334961 0.6640625
vt 0.3334961 0.6518555
vt 0.3000488 0.6518555
vt 0.253418 0.6640625
vt 0.253418 0.6518555
vt 0.2132568 0.6640625
vt 0.2132568 0.6518555
vt 0.1748047 0.6640625
vt 0.1748047 0.6518555
vt 0.1274414 0.6640625
vt 0.1274414 0.6518555
vt 0.08392334 0.6640625
vt 0.08392334 0.6518555
vt 0.04421997 0.6640625
vt 0.04421997 0.6518555
vt 0.007148743 0.6640625
vt 0.007148743 0.6518555
vt 0.7924805 0.5097656
vt 0.800293 0.4711914
vt 0.7924805 0.4711914
vt 0.800293 0.5097656
vt 0.7924805 0.5371094
vt 0.800293 0.5371094
vt 0.800293 0.5830078
vt 0.7924805 0.5830078
vt 0.7924805 0.6113281
vt 0.800293 0.6113281
vt 0.7924805 0.6274414
vt 0.800293 0.6245117
vt 0.7924805 0.6508789
vt 0.800293 0.6508789
vt 0.7924805 0.6728516
vt 0.800293 0.6728516
vn -0.9955297 -0.09282202 -0.01745464
vn -0.9955297 -0.09282203 -0.0174551
vn -0.9955297 -0.09282203 -0.01745509
vn -0.9955297 -0.09282203 -0.01745555
vn -0.6985801 -0.08103446 -0.7109284
vn -0.9762716 -0.0446328 -0.2118999
vn -0.9762716 -0.0446328 -0.2118999
vn -0.6898355 -0.0815414 -0.7193595
vn 0.08129854 -0.2295737 -0.9698899
vn 0.1385021 -0.2426794 -0.9601687
vn 0.7658037 -0.3314472 -0.5510784
vn 0.7684948 -0.3315303 -0.547269
vn 0.9252549 -0.3655776 -0.1012735
vn 0.9271437 -0.3703927 -0.05668996
vn 0.5968524 -0.3970209 0.6972386
vn 0.5891616 -0.3959572 0.7043483
vn -0.1649759 -0.209832 0.9637187
vn -0.1331055 -0.2194647 0.9664978
vn -0.7622599 -0.08919665 0.6410956
vn -0.7408396 -0.09136388 0.6654393
vn -0.9808836 -0.04465327 0.1894026
vn -0.9808836 -0.04465327 0.1894026
vn 0.9729277 -0.1378564 0.1854916
vn 0.9729277 -0.1378559 0.1854921
vn 0.9729277 -0.1378559 0.1854921
vn 0.9729277 -0.1378555 0.1854925
vn -0.9988216 -0.03955697 -0.02811778
vn -0.9988216 -0.03955704 -0.02811806
vn -0.9988216 -0.03955703 -0.02811806
vn -0.9988216 -0.0395571 -0.02811835
vn -0.9729277 -0.1378564 0.1854916
vn -0.9729277 -0.137856 0.1854921
vn -0.9729277 -0.1378561 0.1854921
vn -0.9729277 -0.1378558 0.1854925
vn 0.9988216 -0.03955697 -0.02811778
vn 0.9988216 -0.03955702 -0.02811806
vn 0.9988216 -0.03955702 -0.02811806
vn 0.9988216 -0.03955707 -0.02811835
vn 0.2103024 -0.9772255 -0.02834391
vn 0.2103025 -0.9772255 -0.02834392
vn 0.4049001 -0.9141299 -0.02055315
vn 0.4128352 -0.9105816 -0.02020116
vn 0.9051172 0.4251158 0.006289514
vn 0.9029292 0.4297436 0.006265171
vn -0.3946039 0.9185407 0.02388854
vn -0.3899452 0.9205315 0.02375913
vn -0.6153332 0.7877117 0.02958598
vn -0.6153332 0.7877117 0.02958598
vn -0.2103024 -0.9772255 -0.02834346
vn -0.4049002 -0.9141299 -0.02055275
vn -0.2103025 -0.9772255 -0.02834346
vn -0.4128353 -0.9105816 -0.02020076
vn -0.9051169 0.4251164 0.006288734
vn -0.902929 0.429744 0.006264386
vn 0.3946039 0.9185407 0.02388821
vn 0.3899452 0.9205316 0.02375879
vn 0.6153332 0.7877117 0.02958598
vn 0.6153332 0.7877117 0.02958598
vn -0.1760696 0 -0.9843777
vn -0.1760696 0 -0.9843777
vn -0.1760696 0 -0.9843777
vn -0.1760696 0 -0.9843777
vn -0.1760672 2.498959E-07 -0.9843782
vn -0.1760681 2.315932E-07 -0.9843779
vn -0.1760681 2.315933E-07 -0.9843779
vn -0.1760691 2.132906E-07 -0.9843778
vn -0.004627872 -0.1080853 -0.9941308
vn -0.0005777165 -0.04277879 -0.9990845
vn -0.0005777165 -0.0427788 -0.9990845
vn -0.004770728 -0.1103861 -0.9938774
vn -1.155456E-05 -0.2166647 -0.9762461
vn 0.0002871038 -0.2172536 -0.9761152
vn 0.03789067 -0.2086434 -0.9772575
vn 0.03980996 -0.2063065 -0.9776773
vn 0.124167 -0.1163844 -0.9854122
vn 0.1752607 -0.08302043 -0.9810154
vn 0.2072238 -0.0617674 -0.9763417
vn 0.2072238 -0.0617674 -0.9763417
vn 0.2077934 0.1508655 -0.9664686
vn -0.3309653 -0.1566217 -0.9305544
vn -0.3202995 -0.1508487 -0.9352288
vn 0.2139271 0.1547749 -0.9645103
vn 0.5892482 0.4832222 -0.6475204
vn 0.6070969 0.5041137 -0.6142498
vn 0.7414419 0.6709843 -0.006619507
vn 0.7407655 0.6682734 -0.06838994
vn 0.5597024 0.533326 0.6342685
vn 0.5266508 0.5059111 0.6831492
vn 0.1175424 0.219879 0.9684199
vn 0.1032807 0.2123233 0.9717262
vn -0.4751685 -0.0589266 0.8779196
vn -0.499736 -0.0699326 0.8633502
vn -0.8921862 -0.2997979 0.337824
vn -0.8878347 -0.2957333 0.3525497
vn -0.8182625 -0.3600703 -0.4481024
vn -0.8072115 -0.3571202 -0.4699732
vn -0.3202995 -0.1508487 -0.9352288
vn -0.3309653 -0.1566217 -0.9305544
vn 0.2441927 0.09634843 -0.9649284
vn -0.2732866 -0.1901835 -0.9429448
vn -0.2617045 -0.1849152 -0.9472682
vn 0.2568277 0.1051183 -0.9607235
vn 0.6122467 0.4643575 -0.6399423
vn 0.6250886 0.4840506 -0.6123392
vn 0.7406584 0.6715158 -0.02217675
vn 0.7394243 0.6689108 -0.07622346
vn 0.554766 0.5440391 0.6294889
vn 0.5179549 0.5157255 0.6824588
vn 0.09620545 0.2093067 0.9731059
vn 0.07405309 0.1951925 0.9779652
vn -0.4577669 -0.1497203 0.8763751
vn -0.4766479 -0.1624699 0.8639504
vn -0.8415332 -0.4318897 0.3244892
vn -0.8345182 -0.4252891 0.3502978
vn -0.7866204 -0.4453706 -0.4276368
vn -0.778506 -0.4411598 -0.4464376
vn -0.2617045 -0.1849152 -0.9472682
vn -0.2732866 -0.1901835 -0.9429448
vn 0.1703613 0.01238946 -0.9853039
vn -0.3818152 -0.3341474 -0.8617208
vn -0.3693549 -0.327701 -0.8695913
vn 0.1794994 0.01925204 -0.9835697
vn 0.596417 0.4494839 -0.6650196
vn 0.6109548 0.4703677 -0.6367797
vn 0.7185182 0.6516461 -0.243082
vn 0.7614487 0.6347372 -0.1315474
vn 0.7863733 0.5373626 0.304727
vn 0.6247131 0.4513451 0.6371979
vn 0.5620494 0.4185783 0.7133671
vn -0.08245347 0.02941417 0.9961607
vn -0.07875872 0.0318657 0.9963843
vn -0.5537813 -0.2759579 0.7856039
vn -0.5613827 -0.2801151 0.7787074
vn -0.8238807 -0.4797919 0.3016956
vn -0.8196837 -0.4753807 0.3195806
vn -0.7530897 -0.5096664 -0.4160481
vn -0.7412111 -0.5050669 -0.4421691
vn -0.3693549 -0.327701 -0.8695913
vn -0.3818152 -0.3341474 -0.8617208
vn 0.2211103 -0.1026942 -0.9698269
vn 0.2199201 -0.1454949 -0.9646069
vn 0.2199201 -0.1454949 -0.9646069
vn 0.2211431 -0.1012513 -0.9699711
vn 0.2157081 -0.241469 -0.9461304
vn 0.2157924 -0.2399391 -0.9465003
vn 0.198638 -0.4488354 -0.8712575
vn 0.1972641 -0.460935 -0.8652317
vn 0.2414958 -0.573437 -0.7828472
vn 0.2330974 -0.5774398 -0.7824506
vn 0.6210967 -0.101591 -0.7771217
vn 0.5506767 -0.236761 -0.800437
vn 0.6699998 0.07012474 -0.7390419
vn 0.6711052 0.06633782 -0.7383882
vn 0.6615998 0.09775309 -0.7434582
vn 0.6615997 0.09775309 -0.7434582
vn 0.9955297 -0.09282207 -0.01745464
vn 0.9955297 -0.09282203 -0.01745509
vn 0.9955297 -0.09282204 -0.0174551
vn 0.9955297 -0.09282201 -0.01745555
vn 0.6985802 -0.08103447 -0.7109284
vn 0.9762716 -0.04463274 -0.2118999
vn 0.9762716 -0.04463274 -0.2118999
vn 0.6898355 -0.08154143 -0.7193595
vn -0.08129804 -0.2295737 -0.9698899
vn -0.1385016 -0.2426794 -0.9601687
vn -0.7658037 -0.3314472 -0.5510785
vn -0.7684948 -0.3315303 -0.5472689
vn -0.9252549 -0.3655776 -0.1012734
vn -0.9271437 -0.3703927 -0.05668987
vn -0.5968523 -0.3970209 0.6972387
vn -0.5891615 -0.3959572 0.7043484
vn 0.1649758 -0.2098321 0.9637185
vn 0.1331054 -0.2194649 0.9664978
vn 0.7622599 -0.08919667 0.6410956
vn 0.7408394 -0.09136391 0.6654394
vn 0.9808836 -0.04465322 0.1894026
vn 0.9808836 -0.04465322 0.1894026
vn -0.2211103 -0.1026943 -0.9698268
vn -0.2199203 -0.145495 -0.9646068
vn -0.2199203 -0.145495 -0.9646068
vn -0.2211432 -0.1012514 -0.969971
vn -0.2157081 -0.2414691 -0.9461304
vn -0.2157924 -0.2399391 -0.9465003
vn -0.198638 -0.4488358 -0.8712574
vn -0.1972642 -0.4609354 -0.8652314
vn -0.2414958 -0.573437 -0.7828472
vn -0.2330975 -0.57744 -0.7824504
vn -0.6210964 -0.1015909 -0.777122
vn -0.5506764 -0.2367607 -0.8004373
vn -0.6699998 0.07012476 -0.7390417
vn -0.6711053 0.06633781 -0.7383881
vn -0.6616 0.09775315 -0.743458
vn -0.6616 0.09775314 -0.743458
g bf_geo_0
f 3/3/3 2/2/2 1/1/1
f 3/3/3 4/4/4 2/2/2
f 7/7/7 6/6/6 5/5/5
f 6/6/6 8/8/8 5/5/5
f 5/5/5 8/8/8 9/9/9
f 8/8/8 10/10/10 9/9/9
f 9/9/9 10/10/10 11/11/11
f 10/10/10 12/12/12 11/11/11
f 11/11/11 12/12/12 13/13/13
f 12/12/12 14/14/14 13/13/13
f 13/13/13 14/14/14 15/15/15
f 14/14/14 16/16/16 15/15/15
f 15/15/15 16/16/16 17/17/17
f 16/16/16 18/18/18 17/17/17
f 17/17/17 18/18/18 19/19/19
f 18/18/18 20/20/20 19/19/19
f 19/19/19 20/20/20 21/21/21
f 20/20/20 22/22/22 21/21/21
f 25/25/25 24/24/24 23/23/23
f 26/26/26 24/24/24 25/25/25
f 29/29/29 28/28/28 27/27/27
f 29/29/29 30/30/30 28/28/28
f 33/33/33 32/32/32 31/31/31
f 33/33/33 34/34/34 32/32/32
f 37/37/37 36/36/36 35/35/35
f 38/38/38 36/36/36 37/37/37
f 41/41/41 40/40/40 39/39/39
f 42/42/42 41/41/41 39/39/39
f 43/43/43 41/41/41 42/42/42
f 44/44/44 43/43/43 42/42/42
f 45/45/45 43/43/43 44/44/44
f 46/46/46 45/45/45 44/44/44
f 47/47/47 45/45/45 46/46/46
f 48/48/48 47/47/47 46/46/46
f 51/51/51 50/50/50 49/49/49
f 50/50/50 52/52/52 49/49/49
f 50/50/50 53/53/53 52/52/52
f 53/53/53 54/54/54 52/52/52
f 53/53/53 55/55/55 54/54/54
f 55/55/55 56/56/56 54/54/54
f 55/55/55 57/57/57 56/56/56
f 57/57/57 58/58/58 56/56/56
f 61/61/61 60/60/60 59/59/59
f 62/62/62 61/61/61 59/59/59
f 65/65/65 64/64/64 63/63/63
f 66/66/66 64/64/64 65/65/65
f 69/69/69 68/68/68 67/67/67
f 70/70/70 69/69/69 67/67/67
f 71/71/71 70/70/70 67/67/67
f 72/72/72 71/71/71 67/67/67
f 73/73/73 71/71/71 72/72/72
f 74/74/74 73/73/73 72/72/72
f 75/75/75 73/73/73 74/74/74
f 76/76/76 75/75/75 74/74/74
f 77/77/77 75/75/75 76/76/76
f 78/78/78 77/77/77 76/76/76
f 81/81/81 80/80/80 79/79/79
f 82/82/82 81/81/81 79/79/79
f 82/82/82 79/79/79 83/83/83
f 84/84/84 82/82/82 83/83/83
f 84/84/84 83/83/83 85/85/85
f 86/86/86 84/84/84 85/85/85
f 86/86/86 85/85/85 87/87/87
f 85/85/85 88/88/88 87/87/87
f 87/87/87 88/88/88 89/89/89
f 88/88/88 90/90/90 89/89/89
f 89/89/89 90/90/90 91/91/91
f 92/92/92 89/89/89 91/91/91
f 92/92/92 91/91/91 93/93/93
f 91/91/91 94/94/94 93/93/93
f 93/93/93 94/94/94 95/95/95
f 96/96/96 93/93/93 95/95/95
f 96/96/96 95/95/95 97/97/97
f 95/95/95 98/98/98 97/97/97
f 101/101/101 100/100/100 99/99/99
f 102/102/102 101/101/101 99/99/99
f 102/102/102 99/99/99 103/103/103
f 104/104/104 102/102/102 103/103/103
f 104/104/104 103/103/103 105/105/105
f 106/106/106 104/104/104 105/105/105
f 106/106/106 105/105/105 107/107/107
f 105/105/105 108/108/108 107/107/107
f 107/107/107 108/108/108 109/109/109
f 108/108/108 110/110/110 109/109/109
f 109/109/109 110/110/110 111/111/111
f 112/112/112 109/109/109 111/111/111
f 112/112/112 111/111/111 113/113/113
f 111/111/111 114/114/114 113/113/113
f 113/113/113 114/114/114 115/115/115
f 116/116/116 113/113/113 115/115/115
f 116/116/116 115/115/115 117/117/117
f 115/115/115 118/118/118 117/117/117
f 121/121/121 120/120/120 119/119/119
f 122/122/122 121/121/121 119/119/119
f 122/122/122 119/119/119 123/123/123
f 124/124/124 122/122/122 123/123/123
f 124/124/124 123/123/123 125/125/125
f 126/126/126 124/124/124 125/125/125
f 125/125/125 127/127/127 126/126/126
f 126/126/126 127/127/127 128/128/128
f 127/127/127 129/129/129 128/128/128
f 128/128/128 129/129/129 130/130/130
f 129/129/129 131/131/131 130/130/130
f 130/130/130 131/131/131 132/132/132
f 133/133/133 130/130/130 132/132/132
f 133/133/133 132/132/132 134/134/134
f 132/132/132 135/135/135 134/134/134
f 134/134/134 135/135/135 136/136/136
f 137/137/137 134/134/134 136/136/136
f 137/137/137 136/136/136 138/138/138
f 136/136/136 139/139/139 138/138/138
f 142/142/142 141/141/141 140/140/140
f 143/143/143 142/142/142 140/140/140
f 143/143/143 140/140/140 144/144/144
f 145/145/145 143/143/143 144/144/144
f 145/145/145 144/144/144 146/146/146
f 144/144/144 147/147/147 146/146/146
f 146/146/146 147/147/147 148/148/148
f 149/149/149 146/146/146 148/148/148
f 149/149/149 148/148/148 150/150/150
f 151/151/151 149/149/149 150/150/150
f 151/151/151 150/150/150 152/152/152
f 153/153/153 151/151/151 152/152/152
f 153/153/153 152/152/152 154/154/154
f 155/155/155 153/153/153 154/154/154
f 158/158/158 157/157/157 156/156/156
f 159/159/159 157/157/157 158/158/158
f 162/162/162 161/161/161 160/160/160
f 163/163/163 162/162/162 160/160/160
f 163/163/163 160/160/160 164/164/164
f 165/165/165 163/163/163 164/164/164
f 165/165/165 164/164/164 166/166/166
f 167/167/167 165/165/165 166/166/166
f 167/167/167 166/166/166 168/168/168
f 169/169/169 167/167/167 168/168/168
f 169/169/169 168/168/168 170/170/170
f 171/171/171 169/169/169 170/170/170
f 171/171/171 170/170/170 172/172/172
f 173/173/173 171/171/171 172/172/172
f 173/173/173 172/172/172 174/174/174
f 175/175/175 173/173/173 174/174/174
f 175/175/175 174/174/174 176/176/176
f 177/177/177 175/175/175 176/176/176
f 180/180/180 179/179/179 178/178/178
f 179/179/179 181/181/181 178/178/178
f 178/178/178 181/181/181 182/182/182
f 181/181/181 183/183/183 182/182/182
f 182/182/182 183/183/183 184/184/184
f 185/185/185 182/182/182 184/184/184
f 185/185/185 184/184/184 186/186/186
f 184/184/184 187/187/187 186/186/186
f 186/186/186 187/187/187 188/188/188
f 187/187/187 189/189/189 188/188/188
f 188/188/188 189/189/189 190/190/190
f 189/189/189 191/191/191 190/190/190
f 190/190/190 191/191/191 192/192/192
f 191/191/191 193/193/193 192/192/192
