g facial_mouth_geo
v 0.08604181 1.321179 0.07336503
v 0.07648021 1.304371 0.09255641
v 0.07749598 1.317719 0.09409666
v 0.08200471 1.30275 0.06741827
v 0.0669419 1.304437 0.1027884
v 0.06876702 1.318225 0.1021804
v 0.07408265 1.286834 0.08538037
v 0.07983039 1.287534 0.05898687
v 0.05309404 1.309466 0.1117975
v 0.0558206 1.320296 0.1103679
v 0.03852058 1.324624 0.1177407
v 0.06390231 1.290205 0.1015995
v 0.06925885 1.274164 0.07474528
v 0.05870178 1.276788 0.09661281
v 0.06169239 1.266088 0.05707099
v 0.07449175 1.278419 0.04069159
v 0.06837928 1.270201 0.03392554
v 0.05488029 1.260974 0.04967818
v 0.04678588 1.257093 0.06932844
v 0.04139224 1.252886 0.06194052
v 0.05219213 1.263077 0.08596642
v 0.02889629 1.246078 0.08326898
v 0.02600565 1.244364 0.0748183
v 0.04421912 1.273671 0.1056163
v 0.00741421 1.236102 0.09753189
v 0.007507091 1.234825 0.08869859
v -2.010113E-17 1.233551 0.08992473
v 0.04652436 1.286623 0.1104231
v 0.04978702 1.298682 0.1127063
v 0.0356471 1.303706 0.1207439
v 0.03054472 1.294011 0.1210232
v 0.01802186 1.307475 0.1344114
v 0.01945556 1.32612 0.1269714
v 0.02897126 1.281615 0.1179456
v 0.01425528 1.278139 0.1221383
v 0.02922554 1.270758 0.1116251
v 0.03145431 1.261356 0.1049349
v 0.01570339 1.291288 0.1260562
v 1.975666E-18 1.288664 0.1295894
v 6.982908E-18 1.311977 0.1457906
v -6.41672E-18 1.327946 0.1335914
v -0.01945556 1.32612 0.1269714
v -0.01802186 1.307475 0.1344114
v -0.03852058 1.324624 0.1177407
v 0.01330224 1.266895 0.1170654
v 0.0293032 1.250908 0.09506451
v 0.01241757 1.250296 0.1072957
v 0.00910354 1.24215 0.1031808
v 3.39947E-18 1.234228 0.1004135
v 3.797456E-18 1.240065 0.1055929
v 4.225475E-18 1.249518 0.1101575
v 1.598804E-18 1.265908 0.1201812
v -0.00741421 1.236102 0.09753189
v -0.007507091 1.234825 0.08869859
v -0.02600565 1.244364 0.0748183
v -0.00910354 1.24215 0.1031808
v -0.02889629 1.246078 0.08326898
v -0.04139224 1.252886 0.06194052
v -0.01241757 1.250296 0.1072957
v 1.695847E-18 1.275109 0.124923
v -0.01425528 1.278139 0.1221383
v -0.01330224 1.266895 0.1170654
v -0.0293032 1.251046 0.09506451
v -0.04678588 1.257082 0.06932844
v -0.05488029 1.260974 0.04967818
v -0.03145431 1.261418 0.1049349
v -0.05219213 1.263136 0.08596642
v -0.06169239 1.266088 0.05707099
v -0.06837928 1.270201 0.03392554
v -0.07449175 1.278419 0.04069159
v -0.07983039 1.287534 0.05898687
v -0.06925885 1.274164 0.07474528
v -0.02922554 1.270762 0.1116251
v -0.07408265 1.286834 0.08538037
v -0.08200471 1.30275 0.06741827
v -0.04421912 1.273714 0.1056163
v -0.05870178 1.276805 0.09661281
v -0.07648021 1.304371 0.09255641
v -0.08604181 1.321179 0.07336503
v -0.07749598 1.317719 0.09409666
v -0.06390231 1.290205 0.1015995
v -0.0669419 1.304437 0.1027884
v -0.06876702 1.318225 0.1021804
v -0.02897126 1.281615 0.1179456
v -0.04652436 1.286636 0.1104231
v -0.05309404 1.309466 0.1117975
v -0.0558206 1.320296 0.1103679
v -0.03054472 1.294011 0.1210232
v -0.04978702 1.298682 0.1127063
v -0.0356471 1.303706 0.1207439
v -0.01570339 1.291283 0.1260562
vt 0.355957 0.3664551
vt 0.3320312 0.3527832
vt 0.3342285 0.362793
vt 0.3518066 0.3464355
vt 0.3205566 0.3527832
vt 0.3227539 0.3637695
vt 0.3300781 0.3427734
vt 0.3486328 0.3320312
vt 0.3044434 0.3566895
vt 0.307373 0.3662109
vt 0.2900391 0.371582
vt 0.3181152 0.3425293
vt 0.3239746 0.326416
vt 0.3093262 0.3300781
vt 0.3166504 0.3068848
vt 0.34375 0.3166504
vt 0.3425293 0.3034668
vt 0.3164062 0.2941895
vt 0.3010254 0.2988281
vt 0.2978516 0.2890625
vt 0.3022461 0.3139648
vt 0.2792969 0.2910156
vt 0.2800293 0.2839355
vt 0.2927246 0.3261719
vt 0.2583008 0.2817383
vt 0.2585449 0.2773438
vt 0.25 0.2770996
vt 0.2958984 0.3378906
vt 0.3000488 0.3466797
vt 0.2871094 0.3513184
vt 0.28125 0.3417969
vt 0.2683105 0.3564453
vt 0.2702637 0.3740234
vt 0.2790527 0.3322754
vt 0.2636719 0.3276367
vt 0.2785645 0.3205566
vt 0.2792969 0.3122559
vt 0.265625 0.3398438
vt 0.25 0.3378906
vt 0.25 0.3618164
vt 0.25 0.3764648
vt 0.2297363 0.3740234
vt 0.2316895 0.3564453
vt 0.210083 0.371582
vt 0.2626953 0.3168945
vt 0.2773438 0.3000488
vt 0.260498 0.2993164
vt 0.2578125 0.2890625
vt 0.25 0.2814941
vt 0.25 0.2885742
vt 0.25 0.2990723
vt 0.25 0.3161621
vt 0.2415771 0.2817383
vt 0.2415771 0.2773438
vt 0.2198486 0.2839355
vt 0.2420654 0.2890625
vt 0.2203369 0.2910156
vt 0.2020264 0.2890625
vt 0.2393799 0.2990723
vt 0.25 0.3242188
vt 0.2363281 0.3276367
vt 0.2373047 0.3168945
vt 0.222168 0.3000488
vt 0.1977539 0.298584
vt 0.1835938 0.2941895
vt 0.220459 0.3122559
vt 0.1967773 0.3137207
vt 0.1779785 0.3066406
vt 0.1575928 0.3034668
vt 0.1561279 0.3166504
vt 0.1513672 0.3320312
vt 0.1744385 0.3251953
vt 0.2214355 0.3205566
vt 0.1699219 0.3427734
vt 0.1480713 0.3464355
vt 0.2070312 0.3261719
vt 0.1901855 0.329834
vt 0.1678467 0.3527832
vt 0.144165 0.3664551
vt 0.1657715 0.362793
vt 0.1818848 0.3425293
vt 0.1795654 0.3527832
vt 0.177124 0.3637695
vt 0.2209473 0.3322754
vt 0.2042236 0.3378906
vt 0.1955566 0.3566895
vt 0.192627 0.3662109
vt 0.2186279 0.3417969
vt 0.1999512 0.3466797
vt 0.2128906 0.3513184
vt 0.234375 0.3398438
vn 0.9435695 -0.2202892 0.2472841
vn 0.8827024 -0.2257911 0.4121348
vn 0.8399891 -0.1011007 0.5331013
vn 0.9487182 -0.2492369 0.1944599
vn 0.5994951 -0.1196871 0.791379
vn 0.5655257 0.02745829 0.8242735
vn 0.8499656 -0.3999188 0.3429628
vn 0.898584 -0.4264447 0.1034008
vn 0.4869356 -0.01466233 0.8733148
vn 0.4553045 0.1259945 0.8813757
vn 0.448032 0.2519443 0.8577829
vn 0.624673 -0.330099 0.7076851
vn 0.7351025 -0.6561245 0.1706602
vn 0.6120168 -0.5790114 0.5386847
vn 0.6519666 -0.7554171 0.06545654
vn 0.7982017 -0.599915 0.05455188
vn 0.5645227 -0.8135253 -0.1396087
vn 0.4418386 -0.8943816 -0.06971493
vn 0.5633812 -0.8223143 0.08000483
vn 0.396704 -0.9147035 -0.07709372
vn 0.5978426 -0.737455 0.3142365
vn 0.5228829 -0.8383515 0.1541437
vn 0.3672587 -0.9199668 -0.137048
vn 0.5058821 -0.5273252 0.6826503
vn 0.4614839 -0.8094246 0.3631315
vn 0.2881927 -0.935558 -0.2041476
vn -0 -0.9841177 -0.1775165
vn 0.470636 -0.3226618 0.8212132
vn 0.499282 -0.2085498 0.8409663
vn 0.5160211 0.03845429 0.8557122
vn 0.4327964 -0.3036238 0.8488226
vn 0.4902085 0.05498254 0.8698693
vn 0.4529942 0.3455823 0.8218085
vn 0.3864619 -0.3651059 0.8469623
vn 0.3093116 -0.3858386 0.8691691
vn 0.3826476 -0.461911 0.8001368
vn 0.4634148 -0.5619742 0.6851509
vn 0.3117935 -0.4014815 0.8611605
vn 2.214822E-05 -0.4676391 0.8839195
vn 2.223842E-07 0.1340293 0.9909774
vn -1.430174E-07 0.4514387 0.8923021
vn -0.4529935 0.3455821 0.8218089
vn -0.4902027 0.05497982 0.8698727
vn -0.448031 0.2519443 0.8577834
vn 0.3117551 -0.4705308 0.8254753
vn 0.5178831 -0.7284074 0.4485752
vn 0.3462962 -0.520155 0.7807162
vn 0.4890054 -0.6356946 0.5972991
vn -0 -0.8857809 0.4641038
vn 1.548317E-07 -0.6074478 0.7943596
vn -0 -0.5028356 0.8643821
vn 2.048208E-07 -0.4888002 0.8723958
vn -0.4614846 -0.8094252 0.3631292
vn -0.2881927 -0.9355577 -0.2041486
vn -0.3670716 -0.9200234 -0.137169
vn -0.4901951 -0.63507 0.5969882
vn -0.5236829 -0.8372577 0.1573396
vn -0.3965687 -0.9147455 -0.07729167
vn -0.3473358 -0.5205482 0.7799919
vn 2.127816E-07 -0.4009785 0.9160875
vn -0.3093303 -0.3858861 0.8691413
vn -0.3120697 -0.4707303 0.8252427
vn -0.5188093 -0.7267147 0.4502472
vn -0.5634972 -0.822145 0.08092327
vn -0.4418036 -0.8943855 -0.06988726
vn -0.4638269 -0.563118 0.6839318
vn -0.5970404 -0.737535 0.3155708
vn -0.6520244 -0.755382 0.06528532
vn -0.5645229 -0.8135256 -0.1396066
vn -0.7982017 -0.5999151 0.0545504
vn -0.898584 -0.4264448 0.1034001
vn -0.734866 -0.6563135 0.1709522
vn -0.383334 -0.4623277 0.7995675
vn -0.8499113 -0.3999997 0.3430027
vn -0.9487182 -0.2492369 0.1944601
vn -0.5057227 -0.5280002 0.6822466
vn -0.611223 -0.5798026 0.538735
vn -0.8827024 -0.225791 0.4121344
vn -0.9435694 -0.2202891 0.2472844
vn -0.8399889 -0.1011005 0.5331016
vn -0.6245301 -0.3302932 0.7077206
vn -0.5994807 -0.1196881 0.7913897
vn -0.5655259 0.02745834 0.8242733
vn -0.3866312 -0.3652183 0.8468364
vn -0.4706514 -0.3230621 0.8210469
vn -0.4869358 -0.01466239 0.8733146
vn -0.4553046 0.1259945 0.8813757
vn -0.4328625 -0.3036591 0.8487764
vn -0.4993069 -0.2086822 0.8409187
vn -0.5160204 0.0384541 0.8557127
vn -0.3117879 -0.4014657 0.8611699
g facial_mouth_geo_0
f 3/3/3 2/2/2 1/1/1
f 2/2/2 4/4/4 1/1/1
f 2/2/2 3/3/3 5/5/5
f 3/3/3 6/6/6 5/5/5
f 2/2/2 7/7/7 4/4/4
f 8/8/8 4/4/4 7/7/7
f 5/5/5 6/6/6 9/9/9
f 6/6/6 10/10/10 9/9/9
f 11/11/11 9/9/9 10/10/10
f 2/2/2 12/12/12 7/7/7
f 2/2/2 5/5/5 12/12/12
f 8/8/8 7/7/7 13/13/13
f 7/7/7 12/12/12 14/14/14
f 13/13/13 7/7/7 14/14/14
f 8/8/8 13/13/13 15/15/15
f 15/15/15 16/16/16 8/8/8
f 17/17/17 16/16/16 15/15/15
f 18/18/18 17/17/17 15/15/15
f 18/18/18 15/15/15 19/19/19
f 19/19/19 15/15/15 13/13/13
f 20/20/20 18/18/18 19/19/19
f 13/13/13 14/14/14 21/21/21
f 13/13/13 21/21/21 19/19/19
f 20/20/20 19/19/19 22/22/22
f 21/21/21 22/22/22 19/19/19
f 23/23/23 20/20/20 22/22/22
f 24/24/24 14/14/14 12/12/12
f 14/14/14 24/24/24 21/21/21
f 25/25/25 23/23/23 22/22/22
f 25/25/25 26/26/26 23/23/23
f 26/26/26 25/25/25 27/27/27
f 12/12/12 28/28/28 24/24/24
f 28/28/28 12/12/12 5/5/5
f 5/5/5 29/29/29 28/28/28
f 5/5/5 9/9/9 29/29/29
f 30/30/30 29/29/29 9/9/9
f 11/11/11 30/30/30 9/9/9
f 28/28/28 29/29/29 31/31/31
f 29/29/29 30/30/30 31/31/31
f 30/30/30 11/11/11 32/32/32
f 32/32/32 31/31/31 30/30/30
f 11/11/11 33/33/33 32/32/32
f 24/24/24 28/28/28 34/34/34
f 28/28/28 31/31/31 34/34/34
f 35/35/35 34/34/34 31/31/31
f 24/24/24 34/34/34 36/36/36
f 36/36/36 34/34/34 35/35/35
f 24/24/24 36/36/36 37/37/37
f 24/24/24 37/37/37 21/21/21
f 32/32/32 38/38/38 31/31/31
f 31/31/31 38/38/38 35/35/35
f 32/32/32 39/39/39 38/38/38
f 38/38/38 39/39/39 35/35/35
f 40/40/40 32/32/32 33/33/33
f 32/32/32 40/40/40 39/39/39
f 41/41/41 40/40/40 33/33/33
f 40/40/40 41/41/41 42/42/42
f 43/43/43 40/40/40 42/42/42
f 40/40/40 43/43/43 39/39/39
f 42/42/42 44/44/44 43/43/43
f 36/36/36 45/45/45 37/37/37
f 45/45/45 36/36/36 35/35/35
f 21/21/21 37/37/37 46/46/46
f 22/22/22 21/21/21 46/46/46
f 46/46/46 37/37/37 47/47/47
f 45/45/45 47/47/47 37/37/37
f 48/48/48 22/22/22 46/46/46
f 46/46/46 47/47/47 48/48/48
f 25/25/25 22/22/22 48/48/48
f 25/25/25 48/48/48 49/49/49
f 25/25/25 49/49/49 27/27/27
f 47/47/47 50/50/50 48/48/48
f 48/48/48 50/50/50 49/49/49
f 47/47/47 45/45/45 51/51/51
f 47/47/47 51/51/51 50/50/50
f 45/45/45 35/35/35 52/52/52
f 45/45/45 52/52/52 51/51/51
f 49/49/49 53/53/53 27/27/27
f 53/53/53 54/54/54 27/27/27
f 54/54/54 53/53/53 55/55/55
f 50/50/50 56/56/56 49/49/49
f 56/56/56 53/53/53 49/49/49
f 55/55/55 53/53/53 57/57/57
f 57/57/57 53/53/53 56/56/56
f 58/58/58 55/55/55 57/57/57
f 51/51/51 59/59/59 50/50/50
f 50/50/50 59/59/59 56/56/56
f 35/35/35 60/60/60 52/52/52
f 60/60/60 61/61/61 52/52/52
f 60/60/60 35/35/35 39/39/39
f 61/61/61 60/60/60 39/39/39
f 52/52/52 62/62/62 51/51/51
f 62/62/62 59/59/59 51/51/51
f 61/61/61 62/62/62 52/52/52
f 59/59/59 63/63/63 56/56/56
f 57/57/57 56/56/56 63/63/63
f 64/64/64 58/58/58 57/57/57
f 65/65/65 58/58/58 64/64/64
f 59/59/59 62/62/62 66/66/66
f 66/66/66 63/63/63 59/59/59
f 67/67/67 57/57/57 63/63/63
f 57/57/57 67/67/67 64/64/64
f 66/66/66 67/67/67 63/63/63
f 68/68/68 65/65/65 64/64/64
f 69/69/69 65/65/65 68/68/68
f 70/70/70 69/69/69 68/68/68
f 70/70/70 68/68/68 71/71/71
f 68/68/68 64/64/64 72/72/72
f 72/72/72 71/71/71 68/68/68
f 67/67/67 72/72/72 64/64/64
f 62/62/62 73/73/73 66/66/66
f 73/73/73 62/62/62 61/61/61
f 74/74/74 71/71/71 72/72/72
f 75/75/75 71/71/71 74/74/74
f 66/66/66 76/76/76 67/67/67
f 73/73/73 76/76/76 66/66/66
f 77/77/77 72/72/72 67/67/67
f 74/74/74 72/72/72 77/77/77
f 76/76/76 77/77/77 67/67/67
f 74/74/74 78/78/78 75/75/75
f 75/75/75 78/78/78 79/79/79
f 78/78/78 80/80/80 79/79/79
f 81/81/81 74/74/74 77/77/77
f 81/81/81 78/78/78 74/74/74
f 77/77/77 76/76/76 81/81/81
f 80/80/80 78/78/78 82/82/82
f 82/82/82 78/78/78 81/81/81
f 83/83/83 80/80/80 82/82/82
f 84/84/84 76/76/76 73/73/73
f 84/84/84 73/73/73 61/61/61
f 85/85/85 81/81/81 76/76/76
f 85/85/85 76/76/76 84/84/84
f 81/81/81 85/85/85 82/82/82
f 83/83/83 82/82/82 86/86/86
f 87/87/87 83/83/83 86/86/86
f 86/86/86 44/44/44 87/87/87
f 84/84/84 61/61/61 88/88/88
f 88/88/88 85/85/85 84/84/84
f 89/89/89 82/82/82 85/85/85
f 86/86/86 82/82/82 89/89/89
f 89/89/89 85/85/85 88/88/88
f 90/90/90 44/44/44 86/86/86
f 89/89/89 90/90/90 86/86/86
f 90/90/90 89/89/89 88/88/88
f 44/44/44 90/90/90 43/43/43
f 88/88/88 43/43/43 90/90/90
f 91/91/91 88/88/88 61/61/61
f 91/91/91 43/43/43 88/88/88
f 39/39/39 91/91/91 61/61/61
f 39/39/39 43/43/43 91/91/91
