g facial_mouth_geo
v 0.1257915 1.513676 0.1018026
v 0.1244277 1.497107 0.1213529
v 0.1198337 1.517614 0.1247722
v 0.1257193 1.495165 0.09065074
v 0.1129726 1.4922 0.1455185
v 0.1106174 1.514347 0.144837
v 0.09647526 1.487075 0.1594648
v 0.09076228 1.510122 0.1615807
v 0.06058338 1.502661 0.1701209
v 0.1138352 1.473419 0.1395917
v 0.1169427 1.478037 0.1164727
v 0.1130222 1.450115 0.119604
v 0.101347 1.466351 0.1462602
v 0.1256959 1.461103 0.09958462
v 0.1307184 1.467165 0.08148988
v 0.127404 1.443266 0.09581859
v 0.1310573 1.452272 0.07318627
v 0.1260051 1.427968 0.08522764
v 0.1302894 1.434483 0.06498944
v 0.1174844 1.415551 0.07797351
v 0.120453 1.418992 0.04990836
v 0.1125298 1.421775 0.1020283
v 0.1155045 1.432733 0.1095647
v 0.1111013 1.403122 0.06612651
v 0.09352807 1.389744 0.07740359
v 0.09709175 1.392568 0.08556332
v 0.07429806 1.385377 0.09980249
v 0.06798913 1.385839 0.08844921
v 0.1008396 1.394616 0.09514984
v 0.1022216 1.401291 0.1072365
v 0.05234958 1.368145 0.1126643
v 0.03544333 1.362387 0.09786879
v 0.08059859 1.389131 0.1099886
v 0.1000638 1.411948 0.1178079
v 0.08183433 1.395422 0.1223761
v 0.02496425 1.36271 0.1131321
v -0 1.355269 0.09542923
v 0.05789861 1.378381 0.1280523
v 0.02903534 1.36062 0.1247713
v -0 1.355653 0.1253434
v -0 1.359225 0.1146316
v -0.02496425 1.36271 0.1131321
v -0.03544333 1.362387 0.09786879
v 0.05736162 1.387916 0.137444
v -0.05234958 1.368145 0.1126643
v -0.06798913 1.385839 0.08844921
v -0.02903534 1.36062 0.1247713
v 0.0811238 1.407012 0.1297882
v 0.07643337 1.415235 0.1305733
v 0.02665809 1.369159 0.1366817
v -0.07429806 1.385377 0.09980249
v -0.09352807 1.389744 0.07740359
v 0.09840962 1.420063 0.1234795
v 0.1115009 1.433497 0.1189696
v 0.09564036 1.427376 0.1323626
v 0.1059612 1.43703 0.1234745
v 0.09425083 1.445224 0.1341684
v 0.08462821 1.462687 0.1512867
v 0.07230524 1.481073 0.1655856
v 0.05245041 1.476846 0.1616995
v 0.03804718 1.499547 0.1683684
v 0.03280286 1.497066 0.1660879
v 0.070043 1.458595 0.1504822
v 0.08387754 1.441657 0.1383375
v 0.04815048 1.475298 0.1605826
v 0.07658373 1.420631 0.1351979
v 0.04908811 1.392023 0.1456018
v 0.03750746 1.474582 0.1621163
v 0.04835396 1.456025 0.1585019
v 0.01666301 1.483045 0.1676121
v 0.06606472 1.458671 0.1470051
v 0.02274141 1.472309 0.1704013
v -0 1.482388 0.1732806
v 0.05599449 1.43867 0.1548285
v 0.05052905 1.390508 0.1392216
v 0.02530723 1.377437 0.1370787
v 0.05785999 1.410755 0.1515621
v 0.03194736 1.408414 0.1702498
v 0.03477817 1.437673 0.1668384
v 0.03152367 1.454183 0.1707157
v -0 1.472215 0.1759483
v -0 1.454023 0.177103
v -0.02274141 1.472309 0.1704013
v -0.01666301 1.483045 0.1676121
v -0 1.438512 0.1726066
v -0.03152367 1.454183 0.1707157
v -0.04835396 1.456025 0.1585019
v -0.03750746 1.474582 0.1621163
v -0.03280286 1.497066 0.1660879
v -0.03477817 1.437673 0.1668384
v -0.04815048 1.475298 0.1605826
v -0.05245041 1.476846 0.1616995
v -0.03804718 1.499547 0.1683684
v -0.06058338 1.502661 0.1701209
v -0 1.407297 0.1737988
v -0.03194736 1.408414 0.1702498
v -0.05599449 1.43867 0.1548285
v 0.02968212 1.390357 0.1593919
v 0.02735518 1.378046 0.1470442
v -0.06606472 1.458671 0.1470051
v -0.070043 1.458595 0.1504822
v -0.08387754 1.441657 0.1383375
v -0 1.389406 0.1649053
v -0 1.372996 0.1485739
v -0.02968212 1.390357 0.1593919
v -0.04908811 1.392023 0.1456018
v -0 1.372375 0.137201
v -0.02735518 1.378046 0.1470442
v -0.05785999 1.410755 0.1515621
v -0.07658373 1.420631 0.1351979
v -0.07643337 1.415235 0.1305733
v -0 1.366084 0.13558
v -0.02530723 1.377437 0.1370787
v -0.02665809 1.369159 0.1366817
v -0.05052905 1.390508 0.1392216
v -0.05736162 1.387916 0.137444
v -0.09564036 1.427376 0.1323626
v -0.05789861 1.378381 0.1280523
v -0.08059859 1.389131 0.1099886
v -0.08183433 1.395422 0.1223761
v -0.09425083 1.445224 0.1341684
v -0.0811238 1.407012 0.1297882
v -0.1000638 1.411948 0.1178079
v -0.1022216 1.401291 0.1072365
v -0.1008396 1.394616 0.09514984
v -0.1174844 1.415551 0.07797351
v -0.09709175 1.392568 0.08556332
v -0.1111013 1.403122 0.06612651
v -0.120453 1.418992 0.04990836
v -0.1302894 1.434483 0.06498944
v -0.1125298 1.421775 0.1020283
v -0.1260051 1.427968 0.08522764
v -0.1310573 1.452272 0.07318627
v -0.127404 1.443266 0.09581859
v -0.1307184 1.467165 0.08148988
v -0.1155045 1.432733 0.1095647
v -0.1130222 1.450115 0.119604
v -0.1256959 1.461103 0.09958462
v -0.1257193 1.495165 0.09065074
v -0.09840962 1.420063 0.1234795
v -0.1115009 1.433497 0.1189696
v -0.1059612 1.43703 0.1234745
v -0.1169427 1.478037 0.1164727
v -0.1244277 1.497107 0.1213529
v -0.1257915 1.513676 0.1018026
v -0.1198337 1.517614 0.1247722
v -0.1138352 1.473419 0.1395917
v -0.1129726 1.4922 0.1455185
v -0.09647526 1.487075 0.1594648
v -0.1106174 1.514347 0.144837
v -0.09076227 1.510122 0.1615807
v -0.101347 1.466351 0.1462602
v -0.08462821 1.462687 0.1512867
v -0.07230524 1.481073 0.1655856
vt 0.3347168 0.4086914
vt 0.3239746 0.4008789
vt 0.3222656 0.4125977
vt 0.3398438 0.3962402
vt 0.3105469 0.3999023
vt 0.3112793 0.4116211
vt 0.300293 0.3986816
vt 0.2983398 0.4101562
vt 0.2827148 0.4060059
vt 0.3115234 0.3901367
vt 0.3234863 0.3894043
vt 0.3171387 0.375
vt 0.3046875 0.3867188
vt 0.3308105 0.3779297
vt 0.3410645 0.3786621
vt 0.3293457 0.3679199
vt 0.3417969 0.3686523
vt 0.329834 0.3579102
vt 0.340332 0.3566895
vt 0.3276367 0.3486328
vt 0.3405762 0.342041
vt 0.3183594 0.3574219
vt 0.3190918 0.3642578
vt 0.3271484 0.338623
vt 0.3132324 0.3325195
vt 0.3125 0.3374023
vt 0.2958984 0.3352051
vt 0.296875 0.3278809
vt 0.310791 0.342041
vt 0.3085938 0.3481445
vt 0.2797852 0.3293457
vt 0.2736816 0.3171387
vt 0.2963867 0.3408203
vt 0.3066406 0.3549805
vt 0.2944336 0.3476562
vt 0.2651367 0.3225098
vt 0.25 0.310791
vt 0.2810059 0.3395996
vt 0.265625 0.3283691
vt 0.25 0.3261719
vt 0.25 0.3210449
vt 0.2349854 0.3225098
vt 0.2263184 0.3171387
vt 0.2805176 0.3464355
vt 0.2202148 0.3293457
vt 0.2032471 0.3278809
vt 0.234375 0.3283691
vt 0.2941895 0.354248
vt 0.293457 0.3581543
vt 0.263916 0.3354492
vt 0.2041016 0.3352051
vt 0.1867676 0.3325195
vt 0.3059082 0.359375
vt 0.3149414 0.3659668
vt 0.3044434 0.3640137
vt 0.3120117 0.3681641
vt 0.3046875 0.373291
vt 0.2963867 0.3842773
vt 0.2883301 0.3950195
vt 0.2788086 0.3911133
vt 0.2705078 0.4033203
vt 0.2695312 0.4020996
vt 0.2900391 0.3815918
vt 0.2993164 0.3718262
vt 0.2770996 0.3901367
vt 0.2944336 0.3608398
vt 0.2756348 0.3481445
vt 0.2719727 0.3898926
vt 0.2780762 0.3803711
vt 0.260498 0.3937988
vt 0.2888184 0.3808594
vt 0.2629395 0.388916
vt 0.25 0.3928223
vt 0.2822266 0.3730469
vt 0.2770996 0.3457031
vt 0.2636719 0.338623
vt 0.2807617 0.3579102
vt 0.2658691 0.3588867
vt 0.2695312 0.3713379
vt 0.2670898 0.3793945
vt 0.25 0.3886719
vt 0.25 0.3798828
vt 0.2370605 0.388916
vt 0.239502 0.3937988
vt 0.25 0.3720703
vt 0.2329102 0.3793945
vt 0.2219238 0.3803711
vt 0.2280273 0.3898926
vt 0.2304688 0.4020996
vt 0.2305908 0.3713379
vt 0.2229004 0.3901367
vt 0.2211914 0.3911133
vt 0.2294922 0.4033203
vt 0.2174072 0.4060059
vt 0.25 0.3588867
vt 0.2342529 0.3588867
vt 0.2178955 0.3730469
vt 0.2644043 0.3503418
vt 0.2636719 0.3432617
vt 0.2110596 0.3808594
vt 0.2099609 0.3815918
vt 0.2008057 0.3718262
vt 0.25 0.3505859
vt 0.25 0.3413086
vt 0.2355957 0.3503418
vt 0.2244873 0.3481445
vt 0.25 0.3364258
vt 0.2364502 0.3432617
vt 0.2193604 0.3579102
vt 0.2056885 0.3608398
vt 0.206543 0.3581543
vt 0.25 0.3337402
vt 0.2364502 0.338623
vt 0.236084 0.3354492
vt 0.2229004 0.3457031
vt 0.2196045 0.3464355
vt 0.1956787 0.3640137
vt 0.2191162 0.3395996
vt 0.2036133 0.3408203
vt 0.2055664 0.3476562
vt 0.1954346 0.373291
vt 0.2058105 0.354248
vt 0.1934814 0.3549805
vt 0.1914062 0.3481445
vt 0.1890869 0.342041
vt 0.1724854 0.3486328
vt 0.1875 0.3374023
vt 0.1729736 0.338623
vt 0.1594238 0.342041
vt 0.159668 0.3566895
vt 0.1817627 0.3574219
vt 0.1702881 0.3579102
vt 0.1582031 0.3686523
vt 0.1706543 0.3679199
vt 0.1590576 0.3786621
vt 0.1810303 0.3642578
vt 0.1829834 0.375
vt 0.1691895 0.3779297
vt 0.1602783 0.3962402
vt 0.1939697 0.359375
vt 0.1851807 0.3659668
vt 0.1878662 0.3681641
vt 0.1765137 0.3894043
vt 0.1760254 0.4008789
vt 0.1652832 0.4086914
vt 0.1776123 0.4125977
vt 0.1884766 0.3901367
vt 0.1893311 0.3999023
vt 0.199707 0.3986816
vt 0.1887207 0.4116211
vt 0.2017822 0.4101562
vt 0.1954346 0.3867188
vt 0.2036133 0.3842773
vt 0.2116699 0.3950195
vn 0.9807845 0.1156161 0.1571446
vn 0.960139 -0.08209264 0.2671964
vn 0.8903974 0.2431324 0.3848106
vn 0.9813028 -0.021564 0.1912584
vn 0.8072547 -0.05741657 0.5874038
vn 0.7165073 0.2939466 0.6326238
vn 0.46898 -0.1081641 0.8765605
vn 0.401199 0.21736 0.8898281
vn 0.1254911 0.09831603 0.9872112
vn 0.8384655 -0.2883159 0.4624388
vn 0.9536133 -0.1477191 0.2622989
vn 0.8281945 -0.2272653 0.5122933
vn 0.5403944 -0.428586 0.7240772
vn 0.914878 0.02526442 0.402939
vn 0.9790438 0.04200393 0.1992708
vn 0.9347253 -0.1583795 0.3181265
vn 0.9970499 -0.07056419 0.03020098
vn 0.9121056 -0.3531113 0.2082685
vn 0.9651883 -0.2562884 -0.05222803
vn 0.8247296 -0.5491557 0.1350897
vn 0.8484265 -0.5214728 -0.09076756
vn 0.8226646 -0.4125876 0.391145
vn 0.8157126 -0.3441583 0.4649388
vn 0.6921272 -0.7106499 -0.1262405
vn 0.5886605 -0.7992935 0.120866
vn 0.5255257 -0.8479975 0.06872241
vn 0.4442223 -0.8862172 -0.1314742
vn 0.5237942 -0.8291949 0.1951296
vn 0.5814384 -0.7965213 0.1657806
vn 0.6830322 -0.5886885 0.4323343
vn 0.5116639 -0.8591841 -0.001610628
vn 0.29953 -0.9539497 0.01618344
vn 0.5187352 -0.817838 0.2491079
vn 0.6698129 -0.3793471 0.6383153
vn 0.5790715 -0.6251494 0.5233206
vn 0.169842 -0.9843626 -0.04673279
vn -0 -0.9961004 0.08822604
vn 0.5102898 -0.6969901 0.5037946
vn 0.2563678 -0.8903897 0.3761406
vn 1.418331E-07 -0.9595602 0.2815034
vn -0 -0.9971787 -0.07506555
vn -0.169842 -0.9843626 -0.04673402
vn -0.2995299 -0.9539497 0.01618371
vn 0.4043313 -0.386832 0.8287806
vn -0.5116638 -0.8591842 -0.001609375
vn -0.5237941 -0.829195 0.1951298
vn -0.2563676 -0.89039 0.3761399
vn 0.4908665 -0.2908589 0.8212497
vn 0.5327163 -0.3393194 0.7752907
vn 0.2012648 -0.5936214 0.7791702
vn -0.4442225 -0.8862177 -0.1314707
vn -0.5886606 -0.799294 0.1208629
vn 0.6323969 -0.3654963 0.6829983
vn 0.7687916 -0.3277808 0.5491076
vn 0.4863001 -0.3176987 0.81399
vn 0.658771 -0.1758475 0.7315041
vn 0.4828172 -0.4217336 0.7674819
vn 0.2211791 -0.5178916 0.8263584
vn 0.1384773 -0.2834733 0.9489293
vn -0.07464124 -0.4301222 0.8996797
vn -0.1216267 -0.1486938 0.9813751
vn 0.201864 -0.1503837 0.9677994
vn 0.02184951 -0.5918865 0.8057251
vn 0.4582753 -0.2347543 0.857248
vn 0.2540866 -0.2313351 0.9391081
vn 0.5944406 -0.2795646 0.7539788
vn 0.5903922 -0.5983672 0.5416585
vn 0.4092117 0.05615184 0.9107101
vn 0.5027002 0.02684095 0.8640441
vn 0.3902538 -0.4390421 0.8092862
vn 0.3958945 -0.1034511 0.9124503
vn 0.3168935 0.1838081 0.9304799
vn 3.106352E-07 -0.4447918 0.8956339
vn 0.5550777 -0.03361718 0.8311188
vn 0.4507287 -0.4679431 0.7601795
vn 0.220141 -0.7334487 0.6431104
vn 0.6006247 -0.2378537 0.7633319
vn 0.3265218 -0.1718752 0.9294313
vn 0.3500515 -0.02054689 0.936505
vn 0.3460819 -0.01861348 0.9380196
vn 1.555906E-07 0.1620418 0.9867839
vn 1.096029E-07 -0.07882819 0.9968882
vn -0.3168943 0.1838087 0.9304796
vn -0.390253 -0.4390419 0.8092867
vn -0 -0.0419497 0.9991197
vn -0.3460826 -0.01861309 0.9380194
vn -0.502701 0.0268412 0.8640435
vn -0.4092125 0.05615278 0.9107096
vn -0.201863 -0.1503834 0.9677997
vn -0.3500514 -0.02054676 0.9365051
vn -0.2540863 -0.2313346 0.9391084
vn 0.07464152 -0.4301215 0.89968
vn 0.1216271 -0.1486941 0.981375
vn -0.1254913 0.09831659 0.9872111
vn -0 -0.1533575 0.9881709
vn -0.3265213 -0.1718747 0.9294315
vn -0.5550774 -0.03361703 0.8311191
vn 0.3072947 -0.5750898 0.7581832
vn 0.2789599 -0.8373888 0.4700653
vn -0.3958949 -0.1034509 0.9124501
vn -0.02184917 -0.5918851 0.8057261
vn -0.4582746 -0.2347534 0.8572486
vn -0 -0.5959491 0.8030223
vn -0 -0.8599789 0.5103296
vn -0.3072943 -0.5750892 0.7581838
vn -0.5903927 -0.5983672 0.5416577
vn -0 -0.80822 0.5888807
vn -0.2789607 -0.8373906 0.4700616
vn -0.600624 -0.2378533 0.7633325
vn -0.5944399 -0.2795642 0.7539794
vn -0.5327159 -0.3393194 0.775291
vn 1.264859E-07 -0.6067073 0.7949253
vn -0.2201422 -0.7334523 0.6431057
vn -0.2012645 -0.5936214 0.7791702
vn -0.4507302 -0.4679445 0.7601778
vn -0.4043314 -0.3868323 0.8287804
vn -0.4862987 -0.3176974 0.8139913
vn -0.5102899 -0.6969902 0.5037944
vn -0.5187351 -0.8178379 0.2491086
vn -0.5790724 -0.6251499 0.5233189
vn -0.4828176 -0.421733 0.7674819
vn -0.4908675 -0.2908599 0.8212489
vn -0.6698135 -0.3793478 0.6383144
vn -0.683033 -0.5886892 0.4323321
vn -0.5814385 -0.7965212 0.1657809
vn -0.8247295 -0.5491554 0.1350912
vn -0.5255258 -0.8479975 0.06872316
vn -0.6921275 -0.7106501 -0.1262378
vn -0.8484265 -0.5214729 -0.09076749
vn -0.9651883 -0.2562885 -0.05222785
vn -0.8226645 -0.4125873 0.3911455
vn -0.9121056 -0.3531111 0.2082689
vn -0.9970499 -0.07056408 0.03020112
vn -0.9347253 -0.1583794 0.3181269
vn -0.9790438 0.04200413 0.1992708
vn -0.8157127 -0.3441582 0.4649388
vn -0.8281944 -0.2272651 0.5122933
vn -0.9148777 0.0252645 0.4029397
vn -0.9813029 -0.02156404 0.1912583
vn -0.6323956 -0.3654956 0.6829998
vn -0.7687908 -0.3277804 0.549109
vn -0.6587704 -0.1758469 0.7315049
vn -0.9536132 -0.1477192 0.2622994
vn -0.9601389 -0.08209264 0.2671965
vn -0.9807845 0.115616 0.1571447
vn -0.8903972 0.2431323 0.384811
vn -0.8384653 -0.2883157 0.4624391
vn -0.807254 -0.05741664 0.5874047
vn -0.4689786 -0.1081639 0.8765613
vn -0.7165073 0.2939472 0.6326233
vn -0.4011987 0.2173611 0.8898279
vn -0.5403945 -0.4285859 0.7240772
vn -0.2211789 -0.5178903 0.8263592
vn -0.138477 -0.2834718 0.9489298
g facial_mouth_geo_0
f 3/3/3 2/2/2 1/1/1
f 2/2/2 4/4/4 1/1/1
f 5/5/5 2/2/2 3/3/3
f 6/6/6 5/5/5 3/3/3
f 7/7/7 5/5/5 6/6/6
f 8/8/8 7/7/7 6/6/6
f 8/8/8 9/9/9 7/7/7
f 2/2/2 5/5/5 10/10/10
f 5/5/5 7/7/7 10/10/10
f 4/4/4 2/2/2 11/11/11
f 11/11/11 2/2/2 10/10/10
f 11/11/11 10/10/10 12/12/12
f 13/13/13 12/12/12 10/10/10
f 7/7/7 13/13/13 10/10/10
f 4/4/4 11/11/11 14/14/14
f 11/11/11 12/12/12 14/14/14
f 4/4/4 14/14/14 15/15/15
f 14/14/14 16/16/16 15/15/15
f 12/12/12 16/16/16 14/14/14
f 16/16/16 17/17/17 15/15/15
f 16/16/16 18/18/18 17/17/17
f 18/18/18 19/19/19 17/17/17
f 19/19/19 18/18/18 20/20/20
f 20/20/20 21/21/21 19/19/19
f 22/22/22 18/18/18 16/16/16
f 20/20/20 18/18/18 22/22/22
f 12/12/12 23/23/23 16/16/16
f 23/23/23 22/22/22 16/16/16
f 24/24/24 21/21/21 20/20/20
f 24/24/24 25/25/25 21/21/21
f 24/24/24 26/26/26 25/25/25
f 24/24/24 20/20/20 26/26/26
f 27/27/27 25/25/25 26/26/26
f 27/27/27 28/28/28 25/25/25
f 20/20/20 29/29/29 26/26/26
f 27/27/27 26/26/26 29/29/29
f 22/22/22 30/30/30 20/20/20
f 30/30/30 29/29/29 20/20/20
f 27/27/27 31/31/31 28/28/28
f 31/31/31 32/32/32 28/28/28
f 33/33/33 27/27/27 29/29/29
f 33/33/33 29/29/29 30/30/30
f 27/27/27 33/33/33 31/31/31
f 30/30/30 22/22/22 34/34/34
f 34/34/34 22/22/22 23/23/23
f 35/35/35 33/33/33 30/30/30
f 30/30/30 34/34/34 35/35/35
f 36/36/36 32/32/32 31/31/31
f 37/37/37 32/32/32 36/36/36
f 38/38/38 31/31/31 33/33/33
f 35/35/35 38/38/38 33/33/33
f 39/39/39 31/31/31 38/38/38
f 39/39/39 36/36/36 31/31/31
f 39/39/39 40/40/40 36/36/36
f 36/36/36 41/41/41 37/37/37
f 40/40/40 41/41/41 36/36/36
f 41/41/41 42/42/42 37/37/37
f 41/41/41 40/40/40 42/42/42
f 43/43/43 37/37/37 42/42/42
f 44/44/44 38/38/38 35/35/35
f 39/39/39 38/38/38 44/44/44
f 43/43/43 42/42/42 45/45/45
f 43/43/43 45/45/45 46/46/46
f 40/40/40 47/47/47 42/42/42
f 42/42/42 47/47/47 45/45/45
f 48/48/48 44/44/44 35/35/35
f 48/48/48 49/49/49 44/44/44
f 34/34/34 48/48/48 35/35/35
f 49/49/49 48/48/48 34/34/34
f 50/50/50 39/39/39 44/44/44
f 39/39/39 50/50/50 40/40/40
f 45/45/45 51/51/51 46/46/46
f 46/46/46 51/51/51 52/52/52
f 53/53/53 49/49/49 34/34/34
f 53/53/53 34/34/34 23/23/23
f 54/54/54 53/53/53 23/23/23
f 54/54/54 23/23/23 12/12/12
f 53/53/53 54/54/54 55/55/55
f 53/53/53 55/55/55 49/49/49
f 54/54/54 12/12/12 56/56/56
f 54/54/54 56/56/56 55/55/55
f 56/56/56 12/12/12 57/57/57
f 56/56/56 57/57/57 55/55/55
f 13/13/13 57/57/57 12/12/12
f 13/13/13 58/58/58 57/57/57
f 7/7/7 58/58/58 13/13/13
f 7/7/7 59/59/59 58/58/58
f 9/9/9 59/59/59 7/7/7
f 59/59/59 9/9/9 60/60/60
f 59/59/59 60/60/60 58/58/58
f 9/9/9 61/61/61 60/60/60
f 60/60/60 61/61/61 62/62/62
f 57/57/57 58/58/58 63/63/63
f 60/60/60 63/63/63 58/58/58
f 55/55/55 57/57/57 64/64/64
f 64/64/64 57/57/57 63/63/63
f 60/60/60 62/62/62 65/65/65
f 63/63/63 60/60/60 65/65/65
f 64/64/64 66/66/66 55/55/55
f 66/66/66 49/49/49 55/55/55
f 66/66/66 67/67/67 49/49/49
f 62/62/62 68/68/68 65/65/65
f 68/68/68 69/69/69 65/65/65
f 68/68/68 62/62/62 70/70/70
f 71/71/71 63/63/63 65/65/65
f 64/64/64 63/63/63 71/71/71
f 69/69/69 71/71/71 65/65/65
f 64/64/64 71/71/71 69/69/69
f 70/70/70 72/72/72 68/68/68
f 68/68/68 72/72/72 69/69/69
f 72/72/72 70/70/70 73/73/73
f 66/66/66 64/64/64 74/74/74
f 74/74/74 64/64/64 69/69/69
f 67/67/67 75/75/75 49/49/49
f 49/49/49 75/75/75 44/44/44
f 50/50/50 44/44/44 75/75/75
f 76/76/76 50/50/50 75/75/75
f 76/76/76 75/75/75 67/67/67
f 66/66/66 77/77/77 67/67/67
f 77/77/77 66/66/66 74/74/74
f 78/78/78 77/77/77 74/74/74
f 67/67/67 77/77/77 78/78/78
f 79/79/79 74/74/74 69/69/69
f 79/79/79 78/78/78 74/74/74
f 72/72/72 80/80/80 69/69/69
f 80/80/80 79/79/79 69/69/69
f 72/72/72 81/81/81 80/80/80
f 81/81/81 72/72/72 73/73/73
f 79/79/79 80/80/80 82/82/82
f 81/81/81 82/82/82 80/80/80
f 83/83/83 81/81/81 73/73/73
f 84/84/84 83/83/83 73/73/73
f 79/79/79 85/85/85 78/78/78
f 85/85/85 79/79/79 82/82/82
f 82/82/82 81/81/81 86/86/86
f 81/81/81 83/83/83 86/86/86
f 86/86/86 83/83/83 87/87/87
f 83/83/83 84/84/84 88/88/88
f 83/83/83 88/88/88 87/87/87
f 89/89/89 88/88/88 84/84/84
f 86/86/86 90/90/90 82/82/82
f 90/90/90 85/85/85 82/82/82
f 90/90/90 86/86/86 87/87/87
f 88/88/88 89/89/89 91/91/91
f 87/87/87 88/88/88 91/91/91
f 89/89/89 92/92/92 91/91/91
f 93/93/93 92/92/92 89/89/89
f 93/93/93 94/94/94 92/92/92
f 85/85/85 95/95/95 78/78/78
f 85/85/85 90/90/90 96/96/96
f 95/95/95 85/85/85 96/96/96
f 97/97/97 90/90/90 87/87/87
f 96/96/96 90/90/90 97/97/97
f 78/78/78 95/95/95 98/98/98
f 98/98/98 67/67/67 78/78/78
f 98/98/98 99/99/99 67/67/67
f 99/99/99 76/76/76 67/67/67
f 100/100/100 87/87/87 91/91/91
f 101/101/101 100/100/100 91/91/91
f 92/92/92 101/101/101 91/91/91
f 100/100/100 102/102/102 87/87/87
f 102/102/102 97/97/97 87/87/87
f 101/101/101 102/102/102 100/100/100
f 95/95/95 103/103/103 98/98/98
f 99/99/99 98/98/98 104/104/104
f 98/98/98 103/103/103 104/104/104
f 103/103/103 95/95/95 105/105/105
f 103/103/103 105/105/105 104/104/104
f 95/95/95 96/96/96 105/105/105
f 106/106/106 105/105/105 96/96/96
f 76/76/76 99/99/99 107/107/107
f 99/99/99 104/104/104 107/107/107
f 105/105/105 108/108/108 104/104/104
f 108/108/108 105/105/105 106/106/106
f 104/104/104 108/108/108 107/107/107
f 109/109/109 96/96/96 97/97/97
f 109/109/109 106/106/106 96/96/96
f 110/110/110 109/109/109 97/97/97
f 102/102/102 110/110/110 97/97/97
f 109/109/109 110/110/110 106/106/106
f 106/106/106 110/110/110 111/111/111
f 76/76/76 107/107/107 112/112/112
f 50/50/50 76/76/76 112/112/112
f 50/50/50 112/112/112 40/40/40
f 108/108/108 113/113/113 107/107/107
f 113/113/113 108/108/108 106/106/106
f 107/107/107 113/113/113 112/112/112
f 112/112/112 114/114/114 40/40/40
f 113/113/113 114/114/114 112/112/112
f 114/114/114 47/47/47 40/40/40
f 115/115/115 113/113/113 106/106/106
f 114/114/114 113/113/113 115/115/115
f 115/115/115 106/106/106 111/111/111
f 116/116/116 114/114/114 115/115/115
f 47/47/47 114/114/114 116/116/116
f 115/115/115 111/111/111 116/116/116
f 110/110/110 102/102/102 117/117/117
f 111/111/111 110/110/110 117/117/117
f 118/118/118 47/47/47 116/116/116
f 45/45/45 47/47/47 118/118/118
f 45/45/45 118/118/118 119/119/119
f 119/119/119 51/51/51 45/45/45
f 118/118/118 116/116/116 120/120/120
f 118/118/118 120/120/120 119/119/119
f 121/121/121 117/117/117 102/102/102
f 121/121/121 102/102/102 101/101/101
f 111/111/111 122/122/122 116/116/116
f 116/116/116 122/122/122 120/120/120
f 122/122/122 111/111/111 123/123/123
f 122/122/122 123/123/123 120/120/120
f 119/119/119 120/120/120 124/124/124
f 123/123/123 124/124/124 120/120/120
f 51/51/51 119/119/119 125/125/125
f 125/125/125 119/119/119 124/124/124
f 125/125/125 124/124/124 126/126/126
f 127/127/127 51/51/51 125/125/125
f 125/125/125 126/126/126 127/127/127
f 52/52/52 51/51/51 127/127/127
f 127/127/127 128/128/128 52/52/52
f 126/126/126 128/128/128 127/127/127
f 52/52/52 128/128/128 129/129/129
f 129/129/129 128/128/128 126/126/126
f 129/129/129 126/126/126 130/130/130
f 124/124/124 131/131/131 126/126/126
f 131/131/131 124/124/124 123/123/123
f 132/132/132 130/130/130 126/126/126
f 132/132/132 126/126/126 131/131/131
f 130/130/130 132/132/132 133/133/133
f 132/132/132 134/134/134 133/133/133
f 132/132/132 131/131/131 134/134/134
f 133/133/133 134/134/134 135/135/135
f 131/131/131 123/123/123 136/136/136
f 131/131/131 136/136/136 134/134/134
f 136/136/136 137/137/137 134/134/134
f 134/134/134 137/137/137 138/138/138
f 134/134/134 138/138/138 135/135/135
f 138/138/138 139/139/139 135/135/135
f 123/123/123 140/140/140 136/136/136
f 111/111/111 140/140/140 123/123/123
f 117/117/117 140/140/140 111/111/111
f 140/140/140 141/141/141 136/136/136
f 141/141/141 140/140/140 117/117/117
f 136/136/136 141/141/141 137/137/137
f 142/142/142 141/141/141 117/117/117
f 137/137/137 141/141/141 142/142/142
f 121/121/121 142/142/142 117/117/117
f 137/137/137 142/142/142 121/121/121
f 143/143/143 139/139/139 138/138/138
f 137/137/137 143/143/143 138/138/138
f 144/144/144 139/139/139 143/143/143
f 139/139/139 144/144/144 145/145/145
f 144/144/144 146/146/146 145/145/145
f 147/147/147 143/143/143 137/137/137
f 144/144/144 143/143/143 147/147/147
f 144/144/144 148/148/148 146/146/146
f 148/148/148 144/144/144 147/147/147
f 149/149/149 148/148/148 147/147/147
f 148/148/148 150/150/150 146/146/146
f 148/148/148 149/149/149 150/150/150
f 149/149/149 151/151/151 150/150/150
f 94/94/94 151/151/151 149/149/149
f 137/137/137 152/152/152 147/147/147
f 121/121/121 152/152/152 137/137/137
f 152/152/152 149/149/149 147/147/147
f 153/153/153 152/152/152 121/121/121
f 153/153/153 149/149/149 152/152/152
f 153/153/153 121/121/121 101/101/101
f 101/101/101 92/92/92 153/153/153
f 94/94/94 154/154/154 92/92/92
f 154/154/154 94/94/94 149/149/149
f 92/92/92 154/154/154 153/153/153
f 154/154/154 149/149/149 153/153/153
