g facial_eye_geo
v -0.1198488 1.541497 0.100505
v -0.1198337 1.517614 0.1247722
v -0.1257915 1.513676 0.1018026
v -0.1123817 1.536976 0.1228039
v -0.1137365 1.56454 0.09674665
v -0.1106174 1.514347 0.144837
v -0.1071998 1.561122 0.1209481
v -0.105802 1.577807 0.1183359
v -0.1111328 1.597211 0.09425662
v -0.1015914 1.530594 0.1400533
v -0.08353488 1.526122 0.1558876
v -0.09076229 1.510122 0.1615807
v -0.06058338 1.502661 0.1701209
v -0.08876884 1.541652 0.1426407
v -0.05652663 1.52496 0.1644637
v -0.02800056 1.524971 0.16661
v -0.03804718 1.499547 0.1683684
v -0.03280286 1.497066 0.1660879
v -0.05521531 1.536058 0.1509114
v -0.09093235 1.563033 0.1405678
v -0.09232828 1.581392 0.1488875
v -0.05552888 1.567514 0.1520011
v -0.02375498 1.513073 0.1724874
v -0.02598288 1.493883 0.1711457
v -0.01666301 1.483045 0.1676121
v -0.02469415 1.542002 0.1556552
v -0.02434826 1.553301 0.1550286
v -0.01467105 1.523293 0.1776878
v -0.01555776 1.488855 0.1828177
v -0.0162619 1.500243 0.1875246
v -0 1.499767 0.1971887
v -0 1.486345 0.1883008
v -0 1.482388 0.1732806
v 0.01666301 1.483045 0.1676121
v -0.0151588 1.510927 0.1863563
v 0.01555776 1.488855 0.1828177
v 0.02598288 1.493883 0.1711457
v 0.03280286 1.497066 0.1660879
v 0.0162619 1.500243 0.1875246
v 0.02375498 1.513073 0.1724874
v 0.02800056 1.524971 0.16661
v 0.03804718 1.499547 0.1683684
v 0.06058338 1.502661 0.1701209
v 0.0151588 1.510927 0.1863563
v -0 1.512081 0.1946696
v -0 1.524766 0.1818321
v 0.01467105 1.523293 0.1776878
v -0 1.551165 0.1652641
v -0.0108366 1.54877 0.1643518
v -0.01439518 1.557429 0.1613589
v -0 1.559974 0.1611439
v -0 1.567424 0.1632699
v -0.02956124 1.565793 0.1619294
v 0.0108366 1.54877 0.1643518
v -0.05733917 1.578327 0.1611599
v 0.02469415 1.542002 0.1556552
v 0.01439518 1.557429 0.1613589
v -0.02748073 1.589529 0.1664981
v -0.05844491 1.598032 0.160102
v -0.08812337 1.597355 0.1446602
v -0.1019328 1.59771 0.1157453
v -0.09839695 1.619738 0.1141274
v -0.1052642 1.623379 0.0939348
v -0.09807447 1.636922 0.107993
v -0.08228357 1.618824 0.1376183
v -0.07944867 1.641191 0.1263534
v -0.05575379 1.640244 0.1418713
v -0.05543468 1.6168 0.1526491
v -0.02855127 1.612941 0.159953
v -0 1.61208 0.163221
v -0.02934412 1.637055 0.1509974
v -0 1.635682 0.1529257
v 0.02934412 1.637055 0.1509974
v -0 1.590201 0.1678708
v 0.02855127 1.612941 0.159953
v 0.05575379 1.640244 0.1418713
v 0.02748073 1.589529 0.1664981
v 0.02956124 1.565793 0.1619294
v 0.02434826 1.553301 0.1550286
v 0.05521531 1.536058 0.1509114
v 0.05552888 1.567514 0.1520011
v 0.05733917 1.578327 0.1611599
v 0.05844491 1.598032 0.160102
v 0.05543468 1.6168 0.1526491
v 0.09232828 1.581392 0.1488875
v 0.08228357 1.618824 0.1376183
v 0.07944867 1.641191 0.1263534
v 0.09807447 1.636922 0.107993
v 0.08812337 1.597355 0.1446602
v 0.09839695 1.619738 0.1141274
v 0.1052642 1.623379 0.0939348
v 0.1111328 1.597211 0.09425662
v 0.1019328 1.59771 0.1157453
v 0.105802 1.577807 0.1183359
v 0.1137365 1.56454 0.09674665
v 0.1071998 1.561122 0.1209481
v 0.09093235 1.563033 0.1405678
v 0.08876884 1.541652 0.1426407
v 0.1123817 1.536976 0.1228039
v 0.1198488 1.541497 0.100505
v 0.1198337 1.517614 0.1247722
v 0.1257915 1.513676 0.1018026
v 0.1106174 1.514347 0.144837
v 0.1015914 1.530594 0.1400533
v 0.08353488 1.526122 0.1558876
v 0.09076228 1.510122 0.1615807
v 0.05652663 1.52496 0.1644637
vt 0.1656494 0.4257812
vt 0.1776123 0.4125977
vt 0.1652832 0.4086914
vt 0.1790771 0.4248047
vt 0.1652832 0.440918
vt 0.1887207 0.4116211
vt 0.1798096 0.4387207
vt 0.1795654 0.4489746
vt 0.1671143 0.4589844
vt 0.1901855 0.4213867
vt 0.2032471 0.4189453
vt 0.2017822 0.4101562
vt 0.2174072 0.4060059
vt 0.1971436 0.4282227
vt 0.2185059 0.4182129
vt 0.2335205 0.420166
vt 0.2294922 0.4033203
vt 0.2304688 0.4020996
vt 0.217041 0.4267578
vt 0.1960449 0.4399414
vt 0.1984863 0.4504395
vt 0.2174072 0.4423828
vt 0.2348633 0.4123535
vt 0.2351074 0.4008789
vt 0.239502 0.3937988
vt 0.2341309 0.4294434
vt 0.2348633 0.4345703
vt 0.2415771 0.4162598
vt 0.2424316 0.3999023
vt 0.2424316 0.4050293
vt 0.25 0.4050293
vt 0.25 0.3989258
vt 0.25 0.3928223
vt 0.260498 0.3937988
vt 0.2423096 0.4094238
vt 0.2575684 0.3999023
vt 0.2648926 0.4008789
vt 0.2695312 0.4020996
vt 0.2575684 0.4050293
vt 0.2651367 0.4123535
vt 0.2666016 0.420166
vt 0.2705078 0.4033203
vt 0.2827148 0.4060059
vt 0.2578125 0.4094238
vt 0.25 0.4089355
vt 0.25 0.4160156
vt 0.2585449 0.4162598
vt 0.25 0.4313965
vt 0.2435303 0.4313965
vt 0.2416992 0.4362793
vt 0.25 0.4365234
vt 0.25 0.440918
vt 0.2333984 0.4416504
vt 0.2565918 0.4313965
vt 0.2185059 0.4494629
vt 0.2658691 0.4294434
vt 0.2583008 0.4362793
vt 0.2353516 0.454834
vt 0.2182617 0.4599609
vt 0.1998291 0.4594727
vt 0.1818848 0.4614258
vt 0.1854248 0.4743652
vt 0.1744385 0.479248
vt 0.1860352 0.4855957
vt 0.2016602 0.472168
vt 0.2017822 0.4863281
vt 0.2180176 0.4851074
vt 0.2191162 0.4707031
vt 0.2346191 0.46875
vt 0.25 0.467041
vt 0.2337646 0.4836426
vt 0.25 0.4833984
vt 0.2661133 0.4836426
vt 0.25 0.4536133
vt 0.2653809 0.46875
vt 0.2819824 0.4851074
vt 0.2646484 0.454834
vt 0.2666016 0.4416504
vt 0.2651367 0.4345703
vt 0.282959 0.4267578
vt 0.2824707 0.4423828
vt 0.2814941 0.4494629
vt 0.2817383 0.4599609
vt 0.2810059 0.4707031
vt 0.3015137 0.4504395
vt 0.2983398 0.472168
vt 0.2983398 0.4863281
vt 0.3139648 0.4855957
vt 0.300293 0.4594727
vt 0.3144531 0.4743652
vt 0.3256836 0.479248
vt 0.3330078 0.4589844
vt 0.3181152 0.4614258
vt 0.3205566 0.4489746
vt 0.3347168 0.440918
vt 0.3203125 0.4387207
vt 0.3039551 0.4399414
vt 0.3029785 0.4282227
vt 0.3210449 0.4248047
vt 0.3344727 0.4257812
vt 0.3222656 0.4125977
vt 0.3347168 0.4086914
vt 0.3112793 0.4116211
vt 0.3098145 0.4213867
vt 0.296875 0.4189453
vt 0.2983398 0.4101562
vt 0.2814941 0.4182129
vn -0.9446831 0.2581044 0.2023761
vn -0.8903972 0.2431323 0.384811
vn -0.9807845 0.115616 0.1571447
vn -0.8491183 0.3081015 0.4290355
vn -0.9427235 0.1692062 0.2874747
vn -0.7165073 0.2939472 0.6326233
vn -0.8775499 0.1644737 0.4503937
vn -0.914498 0.1907666 0.3567933
vn -0.928083 0.1536003 0.3392179
vn -0.6158907 0.4809718 0.623975
vn -0.3012866 0.4737264 0.8275323
vn -0.4011987 0.2173611 0.8898279
vn -0.1254913 0.09831659 0.9872111
vn -0.3840048 0.1594761 0.9094546
vn -0.1663109 0.4921477 0.8544772
vn -0.3245772 0.4995565 0.8031767
vn 0.1216271 -0.1486941 0.981375
vn -0.201863 -0.1503834 0.9677997
vn -0.2069225 0.3071288 0.9288999
vn -0.4267538 -0.1987748 0.8822526
vn -0.6112582 -0.04772067 0.7899913
vn -0.2606429 -0.2521199 0.931934
vn -0.7469893 0.1456878 0.6486772
vn -0.783103 -0.2868097 0.5518061
vn -0.390253 -0.4390419 0.8092867
vn -0.3577976 0.4885429 0.7958057
vn -0.2415894 -0.166672 0.9559577
vn -0.4344521 0.5064093 0.7448497
vn -0.4297695 -0.7082502 0.5600711
vn -0.6129289 -0.1364124 0.7782737
vn 3.396146E-07 -0.1820156 0.9832956
vn -0 -0.7571027 0.6532959
vn 3.106352E-07 -0.4447918 0.8956339
vn 0.3902538 -0.4390421 0.8092862
vn -0.5274071 0.3965286 0.7514033
vn 0.4297696 -0.7082506 0.5600705
vn 0.7831041 -0.2868097 0.5518045
vn 0.201864 -0.1503837 0.9677994
vn 0.6129293 -0.1364125 0.7782732
vn 0.7469906 0.1456881 0.6486756
vn 0.3245772 0.4995563 0.8031769
vn -0.1216267 -0.1486938 0.9813751
vn 0.1254911 0.09831603 0.9872112
vn 0.5274068 0.3965281 0.7514038
vn 1.827438E-07 0.4432859 0.8963802
vn 3.371854E-07 0.5753308 0.8179208
vn 0.4344527 0.5064092 0.7448494
vn 4.641216E-07 0.4716122 0.8818061
vn -0.3719619 0.4513494 0.8111277
vn -0.1928868 -0.0415968 0.9803389
vn -0 0.1389985 0.9902925
vn -0 -0.1919053 0.9814135
vn -0.1318641 -0.2964682 0.9458956
vn 0.3719623 0.4513494 0.8111275
vn -0.2987849 -0.2040507 0.9322504
vn 0.3577973 0.4885425 0.7958061
vn 0.1928862 -0.04159678 0.980339
vn -0.09471026 0.06467015 0.9934021
vn -0.3099324 0.2717656 0.9110902
vn -0.661041 0.2903751 0.6918866
vn -0.8699325 0.2527841 0.4234591
vn -0.824039 0.2709999 0.4975126
vn -0.9155157 0.1691446 0.3649946
vn -0.8095595 0.2868496 0.5121823
vn -0.6165373 0.3614136 0.6994726
vn -0.5696745 0.4279204 0.7016802
vn -0.3765707 0.4208789 0.8252608
vn -0.3183413 0.3743386 0.870936
vn -0.1293222 0.3275633 0.9359369
vn -0 0.3081091 0.951351
vn -0.1613549 0.3873746 0.9076924
vn -0 0.3764526 0.9264359
vn 0.161355 0.3873747 0.9076924
vn -0 0.02356162 0.9997223
vn 0.1293223 0.3275635 0.9359369
vn 0.376571 0.4208794 0.8252604
vn 0.09471016 0.06466986 0.9934022
vn 0.1318641 -0.296468 0.9458957
vn 0.2415892 -0.166672 0.9559577
vn 0.2069224 0.3071284 0.9289
vn 0.260643 -0.2521197 0.931934
vn 0.2987856 -0.2040503 0.9322503
vn 0.3099326 0.2717656 0.9110902
vn 0.3183412 0.3743388 0.8709359
vn 0.6112579 -0.04772032 0.7899914
vn 0.6165366 0.3614133 0.6994734
vn 0.5696747 0.4279206 0.7016799
vn 0.8095593 0.2868493 0.5121828
vn 0.6610399 0.2903747 0.6918877
vn 0.8240383 0.2709996 0.497514
vn 0.915516 0.1691446 0.3649938
vn 0.9280831 0.1536004 0.3392178
vn 0.8699316 0.2527839 0.4234611
vn 0.9144972 0.1907665 0.3567953
vn 0.9427234 0.1692062 0.287475
vn 0.8775499 0.1644737 0.4503937
vn 0.426754 -0.1987747 0.8822525
vn 0.384005 0.1594761 0.9094546
vn 0.8491182 0.3081017 0.4290356
vn 0.944683 0.2581044 0.2023763
vn 0.8903974 0.2431324 0.3848106
vn 0.9807845 0.1156161 0.1571446
vn 0.7165073 0.2939466 0.6326238
vn 0.61589 0.4809708 0.6239765
vn 0.3012855 0.4737251 0.8275334
vn 0.401199 0.21736 0.8898281
vn 0.1663106 0.492147 0.8544778
g facial_eye_geo_0
f 3/3/3 2/2/2 1/1/1
f 2/2/2 4/4/4 1/1/1
f 1/1/1 4/4/4 5/5/5
f 4/4/4 2/2/2 6/6/6
f 4/4/4 7/7/7 5/5/5
f 7/7/7 8/8/8 5/5/5
f 5/5/5 8/8/8 9/9/9
f 10/10/10 4/4/4 6/6/6
f 10/10/10 6/6/6 11/11/11
f 6/6/6 12/12/12 11/11/11
f 11/11/11 12/12/12 13/13/13
f 14/14/14 4/4/4 10/10/10
f 7/7/7 4/4/4 14/14/14
f 10/10/10 11/11/11 14/14/14
f 15/15/15 11/11/11 13/13/13
f 15/15/15 13/13/13 16/16/16
f 13/13/13 17/17/17 16/16/16
f 16/16/16 17/17/17 18/18/18
f 11/11/11 15/15/15 19/19/19
f 14/14/14 11/11/11 19/19/19
f 19/19/19 15/15/15 16/16/16
f 14/14/14 20/20/20 7/7/7
f 20/20/20 21/21/21 7/7/7
f 8/8/8 7/7/7 21/21/21
f 22/22/22 20/20/20 14/14/14
f 19/19/19 22/22/22 14/14/14
f 21/21/21 20/20/20 22/22/22
f 23/23/23 16/16/16 18/18/18
f 24/24/24 23/23/23 18/18/18
f 24/24/24 18/18/18 25/25/25
f 26/26/26 19/19/19 16/16/16
f 22/22/22 19/19/19 27/27/27
f 19/19/19 26/26/26 27/27/27
f 23/23/23 28/28/28 16/16/16
f 26/26/26 16/16/16 28/28/28
f 29/29/29 24/24/24 25/25/25
f 30/30/30 23/23/23 24/24/24
f 29/29/29 30/30/30 24/24/24
f 31/31/31 30/30/30 29/29/29
f 32/32/32 29/29/29 25/25/25
f 32/32/32 31/31/31 29/29/29
f 33/33/33 32/32/32 25/25/25
f 32/32/32 33/33/33 34/34/34
f 35/35/35 23/23/23 30/30/30
f 23/23/23 35/35/35 28/28/28
f 35/35/35 30/30/30 31/31/31
f 36/36/36 32/32/32 34/34/34
f 31/31/31 32/32/32 36/36/36
f 37/37/37 36/36/36 34/34/34
f 38/38/38 37/37/37 34/34/34
f 39/39/39 36/36/36 37/37/37
f 39/39/39 31/31/31 36/36/36
f 40/40/40 37/37/37 38/38/38
f 40/40/40 39/39/39 37/37/37
f 41/41/41 40/40/40 38/38/38
f 42/42/42 41/41/41 38/38/38
f 42/42/42 43/43/43 41/41/41
f 39/39/39 44/44/44 31/31/31
f 40/40/40 44/44/44 39/39/39
f 45/45/45 35/35/35 31/31/31
f 44/44/44 45/45/45 31/31/31
f 45/45/45 46/46/46 35/35/35
f 46/46/46 45/45/45 44/44/44
f 46/46/46 28/28/28 35/35/35
f 44/44/44 40/40/40 47/47/47
f 47/47/47 46/46/46 44/44/44
f 47/47/47 40/40/40 41/41/41
f 28/28/28 46/46/46 48/48/48
f 46/46/46 47/47/47 48/48/48
f 49/49/49 28/28/28 48/48/48
f 49/49/49 26/26/26 28/28/28
f 49/49/49 50/50/50 26/26/26
f 26/26/26 50/50/50 27/27/27
f 48/48/48 51/51/51 49/49/49
f 51/51/51 50/50/50 49/49/49
f 51/51/51 52/52/52 50/50/50
f 53/53/53 27/27/27 50/50/50
f 52/52/52 53/53/53 50/50/50
f 27/27/27 53/53/53 22/22/22
f 47/47/47 54/54/54 48/48/48
f 51/51/51 48/48/48 54/54/54
f 22/22/22 53/53/53 55/55/55
f 55/55/55 21/21/21 22/22/22
f 56/56/56 54/54/54 47/47/47
f 41/41/41 56/56/56 47/47/47
f 57/57/57 51/51/51 54/54/54
f 52/52/52 51/51/51 57/57/57
f 57/57/57 54/54/54 56/56/56
f 55/55/55 53/53/53 58/58/58
f 58/58/58 53/53/53 52/52/52
f 55/55/55 59/59/59 21/21/21
f 59/59/59 55/55/55 58/58/58
f 59/59/59 60/60/60 21/21/21
f 8/8/8 21/21/21 60/60/60
f 61/61/61 8/8/8 60/60/60
f 61/61/61 9/9/9 8/8/8
f 61/61/61 62/62/62 9/9/9
f 61/61/61 60/60/60 62/62/62
f 63/63/63 9/9/9 62/62/62
f 63/63/63 62/62/62 64/64/64
f 62/62/62 65/65/65 64/64/64
f 60/60/60 65/65/65 62/62/62
f 65/65/65 66/66/66 64/64/64
f 66/66/66 65/65/65 67/67/67
f 68/68/68 65/65/65 60/60/60
f 59/59/59 68/68/68 60/60/60
f 65/65/65 68/68/68 67/67/67
f 68/68/68 59/59/59 69/69/69
f 68/68/68 69/69/69 67/67/67
f 59/59/59 58/58/58 69/69/69
f 70/70/70 69/69/69 58/58/58
f 69/69/69 71/71/71 67/67/67
f 71/71/71 69/69/69 70/70/70
f 72/72/72 71/71/71 70/70/70
f 73/73/73 72/72/72 70/70/70
f 74/74/74 70/70/70 58/58/58
f 74/74/74 58/58/58 52/52/52
f 75/75/75 73/73/73 70/70/70
f 73/73/73 75/75/75 76/76/76
f 70/70/70 74/74/74 77/77/77
f 77/77/77 74/74/74 52/52/52
f 75/75/75 70/70/70 77/77/77
f 78/78/78 77/77/77 52/52/52
f 78/78/78 52/52/52 57/57/57
f 79/79/79 78/78/78 57/57/57
f 57/57/57 56/56/56 79/79/79
f 56/56/56 80/80/80 79/79/79
f 80/80/80 56/56/56 41/41/41
f 78/78/78 79/79/79 81/81/81
f 80/80/80 81/81/81 79/79/79
f 78/78/78 82/82/82 77/77/77
f 78/78/78 81/81/81 82/82/82
f 77/77/77 83/83/83 75/75/75
f 82/82/82 83/83/83 77/77/77
f 75/75/75 84/84/84 76/76/76
f 83/83/83 84/84/84 75/75/75
f 83/83/83 82/82/82 85/85/85
f 85/85/85 82/82/82 81/81/81
f 84/84/84 86/86/86 76/76/76
f 86/86/86 87/87/87 76/76/76
f 87/87/87 86/86/86 88/88/88
f 84/84/84 83/83/83 89/89/89
f 86/86/86 84/84/84 89/89/89
f 89/89/89 83/83/83 85/85/85
f 86/86/86 90/90/90 88/88/88
f 86/86/86 89/89/89 90/90/90
f 90/90/90 91/91/91 88/88/88
f 92/92/92 91/91/91 90/90/90
f 89/89/89 93/93/93 90/90/90
f 90/90/90 93/93/93 92/92/92
f 94/94/94 93/93/93 89/89/89
f 92/92/92 93/93/93 94/94/94
f 85/85/85 94/94/94 89/89/89
f 94/94/94 95/95/95 92/92/92
f 96/96/96 94/94/94 85/85/85
f 94/94/94 96/96/96 95/95/95
f 85/85/85 97/97/97 96/96/96
f 97/97/97 85/85/85 81/81/81
f 97/97/97 81/81/81 98/98/98
f 97/97/97 98/98/98 96/96/96
f 81/81/81 80/80/80 98/98/98
f 96/96/96 99/99/99 95/95/95
f 99/99/99 96/96/96 98/98/98
f 99/99/99 100/100/100 95/95/95
f 99/99/99 101/101/101 100/100/100
f 101/101/101 102/102/102 100/100/100
f 101/101/101 99/99/99 103/103/103
f 99/99/99 98/98/98 104/104/104
f 99/99/99 104/104/104 103/103/103
f 105/105/105 104/104/104 98/98/98
f 103/103/103 104/104/104 105/105/105
f 105/105/105 98/98/98 80/80/80
f 106/106/106 103/103/103 105/105/105
f 106/106/106 105/105/105 43/43/43
f 107/107/107 105/105/105 80/80/80
f 105/105/105 107/107/107 43/43/43
f 107/107/107 80/80/80 41/41/41
f 43/43/43 107/107/107 41/41/41
