g facial_eye_geo
v -0.09458351 1.420589 0.0818385
v -0.08151097 1.399314 0.1008934
v -0.088927 1.395995 0.07812494
v -0.08542988 1.418833 0.09803333
v -0.07298008 1.39987 0.1094622
v -0.09879865 1.448778 0.08329006
v -0.076441 1.418675 0.1050049
v -0.05960759 1.400298 0.1177146
v -0.08986103 1.445648 0.09955586
v -0.06329485 1.417899 0.1109655
v -0.0408214 1.404175 0.1248171
v -0.09594344 1.473394 0.1073771
v -0.1040778 1.477023 0.08016218
v -0.06933706 1.442002 0.1105981
v -0.09624074 1.49283 0.1085224
v -0.1077586 1.510913 0.07416847
v -0.09439208 1.518027 0.1079701
v -0.07298391 1.519011 0.1280462
v -0.07504523 1.473303 0.1232128
v -0.07585768 1.495844 0.1263177
v -0.04914851 1.517234 0.1366196
v -0.03958256 1.419689 0.117352
v -0.04195391 1.438501 0.1209479
v -0.0450704 1.453093 0.1257917
v -0.04982974 1.468124 0.1323388
v -0.05056675 1.492417 0.1362712
v -0.02016475 1.424891 0.119054
v -0.0206229 1.405689 0.1345897
v -0 1.407625 0.1416069
v -0.01958925 1.436263 0.1211937
v -0.02408026 1.486707 0.1418336
v -0.02276849 1.513936 0.1419597
v 1.148406E-16 1.483322 0.1436774
v 1.148406E-16 1.511453 0.143653
v 0.02276849 1.513936 0.1419597
v -0.02347889 1.463717 0.1410712
v -0.02090354 1.449923 0.132949
v 1.148406E-16 1.442126 0.139852
v -0 1.425181 0.1396907
v 0.02016475 1.424891 0.119054
v 0.0206229 1.405689 0.1345897
v 0.0408214 1.404175 0.1248171
v 0.01958925 1.436263 0.1211937
v 0.03958256 1.419689 0.117352
v 1.154632E-16 1.461069 0.144666
v 0.02347889 1.463717 0.1410712
v 0.06329485 1.417899 0.1109655
v 0.05960759 1.400298 0.1177146
v 0.07298008 1.39987 0.1094622
v 0.02090354 1.449923 0.132949
v 0.02408026 1.486707 0.1418336
v 0.04914851 1.517234 0.1366196
v 0.05056675 1.492417 0.1362712
v 0.04982974 1.468124 0.1323388
v 0.07585768 1.495844 0.1263177
v 0.07298391 1.519011 0.1280462
v 0.0450704 1.453093 0.1257917
v 0.09624074 1.49283 0.1085224
v 0.09439208 1.518027 0.1079701
v 0.1077586 1.510913 0.07416847
v 0.1040778 1.477023 0.08016218
v 0.07504523 1.473303 0.1232128
v 0.09594344 1.473394 0.1073771
v 0.09879865 1.448778 0.08329006
v 0.04195391 1.438501 0.1209479
v 0.06933706 1.442002 0.1105981
v 0.08986103 1.445648 0.09955586
v 0.076441 1.418675 0.1050049
v 0.08542988 1.418833 0.09803333
v 0.09458351 1.420589 0.0818385
v 0.08151097 1.399314 0.1008934
v 0.088927 1.395995 0.07812494
vt 0.1420898 0.3886719
vt 0.1657715 0.362793
vt 0.144165 0.3664551
vt 0.1634521 0.3852539
vt 0.177124 0.3637695
vt 0.1429443 0.4125977
vt 0.1733398 0.3845215
vt 0.192627 0.3662109
vt 0.1584473 0.4125977
vt 0.1866455 0.3840332
vt 0.210083 0.371582
vt 0.1582031 0.4355469
vt 0.1375732 0.4387207
vt 0.1801758 0.4072266
vt 0.1577148 0.4533691
vt 0.1328125 0.4702148
vt 0.15979 0.4768066
vt 0.1804199 0.4777832
vt 0.1800537 0.4365234
vt 0.1787109 0.4562988
vt 0.2025146 0.4760742
vt 0.2086182 0.3869629
vt 0.2075195 0.4042969
vt 0.2059326 0.4177246
vt 0.2033691 0.432373
vt 0.2019043 0.453125
vt 0.227417 0.392334
vt 0.2297363 0.3740234
vt 0.25 0.3764648
vt 0.2288818 0.4023438
vt 0.2276611 0.4494629
vt 0.2280273 0.4731445
vt 0.25 0.4462891
vt 0.25 0.4707031
vt 0.2719727 0.4731445
vt 0.2282715 0.4289551
vt 0.2293701 0.4157715
vt 0.25 0.4089355
vt 0.25 0.3928223
vt 0.2727051 0.392334
vt 0.2702637 0.3740234
vt 0.2900391 0.371582
vt 0.2712402 0.4023438
vt 0.2915039 0.3869629
vt 0.25 0.4265137
vt 0.2717285 0.4289551
vt 0.3134766 0.3840332
vt 0.307373 0.3662109
vt 0.3227539 0.3637695
vt 0.2705078 0.4157715
vt 0.2722168 0.4494629
vt 0.2976074 0.4760742
vt 0.2980957 0.453125
vt 0.2966309 0.432373
vt 0.3212891 0.4562988
vt 0.3195801 0.4777832
vt 0.2941895 0.4177246
vt 0.3422852 0.4533691
vt 0.3400879 0.4768066
vt 0.3671875 0.4702148
vt 0.3623047 0.4387207
vt 0.3200684 0.4365234
vt 0.3417969 0.4355469
vt 0.3571777 0.4125977
vt 0.2924805 0.4040527
vt 0.3198242 0.4072266
vt 0.3415527 0.4125977
vt 0.3266602 0.3845215
vt 0.3364258 0.3852539
vt 0.3579102 0.3886719
vt 0.3342285 0.362793
vt 0.355957 0.3664551
vn -0.948154 -0.1842084 0.258981
vn -0.8467619 -0.1956493 0.4946874
vn -0.917188 -0.2801059 0.2833847
vn -0.8333472 -0.1541174 0.5308298
vn -0.5701558 -0.002755253 0.821532
vn -0.9333344 -0.1871915 0.3063434
vn -0.5434863 0.006158309 0.8393954
vn -0.433454 0.1123912 0.8941398
vn -0.7059784 -0.2714228 0.6541591
vn -0.3692928 0.06021797 0.9273599
vn -0.4227886 0.2789448 0.8622295
vn -0.7715551 -0.174835 0.6116661
vn -0.9718246 -0.1067368 0.2101532
vn -0.4018007 -0.2612333 0.877675
vn -0.8011189 -0.01359819 0.5983507
vn -0.9677922 0.04679029 0.2473639
vn -0.787004 0.1722871 0.5924035
vn -0.5010362 0.1387995 0.8542233
vn -0.4798647 -0.2236375 0.8483608
vn -0.5211612 -0.04251886 0.8523984
vn -0.2665111 0.1206486 0.9562508
vn -0.2759054 0.09284564 0.9566901
vn -0.2390635 -0.213036 0.9473459
vn -0.3187201 -0.4350091 0.842131
vn -0.3352848 -0.2172768 0.9167196
vn -0.2986788 -0.06273601 0.9522894
vn -0.4686655 0.2604896 0.8440959
vn -0.5016789 0.3593335 0.7868911
vn -0 0.4555722 0.8901988
vn -0.4033917 -0.3504309 0.8452652
vn -0.1738267 -0.02899143 0.9843494
vn -0.1257472 0.137564 0.9824784
vn -0 0.001708926 0.9999986
vn -0 0.1043254 0.9945432
vn 0.1257472 0.137564 0.9824784
vn -0.2372596 -0.1646684 0.9573882
vn -0.3764329 -0.5703717 0.7300509
vn 1.719196E-07 -0.3087742 0.9511353
vn -4.384174E-07 0.3192105 0.9476838
vn 0.4686635 0.2604886 0.8440973
vn 0.5016783 0.3593332 0.7868916
vn 0.4227886 0.2789448 0.8622295
vn 0.403391 -0.35043 0.845266
vn 0.2759056 0.09284616 0.9566899
vn -0 -0.07836033 0.9969251
vn 0.2372594 -0.164668 0.9573883
vn 0.3692934 0.0602187 0.9273598
vn 0.4334554 0.1123916 0.894139
vn 0.5701569 -0.002754948 0.8215312
vn 0.3764325 -0.5703706 0.730052
vn 0.1738266 -0.02899139 0.9843494
vn 0.2665113 0.1206485 0.9562508
vn 0.2986793 -0.0627361 0.9522893
vn 0.3352854 -0.2172775 0.9167193
vn 0.5211617 -0.04251892 0.8523982
vn 0.5010365 0.1387995 0.8542231
vn 0.3187208 -0.4350098 0.8421304
vn 0.8011192 -0.01359816 0.5983503
vn 0.7870042 0.1722871 0.5924032
vn 0.9677922 0.04679022 0.247364
vn 0.9718246 -0.1067367 0.2101529
vn 0.4798651 -0.2236378 0.8483605
vn 0.7715554 -0.1748352 0.6116657
vn 0.9333343 -0.1871914 0.3063436
vn 0.2390634 -0.2130356 0.947346
vn 0.4018013 -0.2612336 0.8776746
vn 0.7059788 -0.271423 0.6541587
vn 0.5434872 0.006158466 0.8393948
vn 0.8333474 -0.1541175 0.5308294
vn 0.948154 -0.1842083 0.2589811
vn 0.8467629 -0.1956496 0.4946856
vn 0.9171879 -0.2801059 0.2833852
g facial_eye_geo_0
f 3/3/3 2/2/2 1/1/1
f 2/2/2 4/4/4 1/1/1
f 2/2/2 5/5/5 4/4/4
f 6/6/6 1/1/1 4/4/4
f 5/5/5 7/7/7 4/4/4
f 5/5/5 8/8/8 7/7/7
f 9/9/9 6/6/6 4/4/4
f 7/7/7 9/9/9 4/4/4
f 8/8/8 10/10/10 7/7/7
f 8/8/8 11/11/11 10/10/10
f 12/12/12 6/6/6 9/9/9
f 12/12/12 13/13/13 6/6/6
f 14/14/14 9/9/9 7/7/7
f 7/7/7 10/10/10 14/14/14
f 12/12/12 15/15/15 13/13/13
f 16/16/16 13/13/13 15/15/15
f 17/17/17 16/16/16 15/15/15
f 17/17/17 15/15/15 18/18/18
f 9/9/9 19/19/19 12/12/12
f 12/12/12 19/19/19 15/15/15
f 9/9/9 14/14/14 19/19/19
f 15/15/15 20/20/20 18/18/18
f 19/19/19 20/20/20 15/15/15
f 18/18/18 20/20/20 21/21/21
f 11/11/11 22/22/22 10/10/10
f 14/14/14 10/10/10 23/23/23
f 10/10/10 22/22/22 23/23/23
f 19/19/19 14/14/14 24/24/24
f 14/14/14 23/23/23 24/24/24
f 19/19/19 25/25/25 20/20/20
f 24/24/24 25/25/25 19/19/19
f 20/20/20 26/26/26 21/21/21
f 25/25/25 26/26/26 20/20/20
f 22/22/22 11/11/11 27/27/27
f 11/11/11 28/28/28 27/27/27
f 28/28/28 29/29/29 27/27/27
f 23/23/23 22/22/22 30/30/30
f 24/24/24 23/23/23 30/30/30
f 30/30/30 22/22/22 27/27/27
f 26/26/26 31/31/31 21/21/21
f 31/31/31 32/32/32 21/21/21
f 32/32/32 31/31/31 33/33/33
f 34/34/34 32/32/32 33/33/33
f 35/35/35 34/34/34 33/33/33
f 36/36/36 31/31/31 26/26/26
f 33/33/33 31/31/31 36/36/36
f 25/25/25 36/36/36 26/26/26
f 25/25/25 24/24/24 37/37/37
f 24/24/24 30/30/30 37/37/37
f 37/37/37 36/36/36 25/25/25
f 38/38/38 37/37/37 30/30/30
f 36/36/36 37/37/37 38/38/38
f 30/30/30 27/27/27 39/39/39
f 39/39/39 38/38/38 30/30/30
f 29/29/29 39/39/39 27/27/27
f 39/39/39 29/29/29 40/40/40
f 29/29/29 41/41/41 40/40/40
f 41/41/41 42/42/42 40/40/40
f 39/39/39 40/40/40 43/43/43
f 43/43/43 38/38/38 39/39/39
f 42/42/42 44/44/44 40/40/40
f 40/40/40 44/44/44 43/43/43
f 45/45/45 33/33/33 36/36/36
f 38/38/38 45/45/45 36/36/36
f 33/33/33 45/45/45 46/46/46
f 46/46/46 45/45/45 38/38/38
f 44/44/44 42/42/42 47/47/47
f 42/42/42 48/48/48 47/47/47
f 47/47/47 48/48/48 49/49/49
f 43/43/43 50/50/50 38/38/38
f 38/38/38 50/50/50 46/46/46
f 51/51/51 33/33/33 46/46/46
f 51/51/51 35/35/35 33/33/33
f 35/35/35 51/51/51 52/52/52
f 51/51/51 46/46/46 53/53/53
f 51/51/51 53/53/53 52/52/52
f 54/54/54 46/46/46 50/50/50
f 46/46/46 54/54/54 53/53/53
f 53/53/53 55/55/55 52/52/52
f 53/53/53 54/54/54 55/55/55
f 55/55/55 56/56/56 52/52/52
f 43/43/43 57/57/57 50/50/50
f 50/50/50 57/57/57 54/54/54
f 55/55/55 58/58/58 56/56/56
f 58/58/58 59/59/59 56/56/56
f 60/60/60 59/59/59 58/58/58
f 61/61/61 60/60/60 58/58/58
f 54/54/54 62/62/62 55/55/55
f 55/55/55 62/62/62 58/58/58
f 62/62/62 54/54/54 57/57/57
f 61/61/61 58/58/58 63/63/63
f 62/62/62 63/63/63 58/58/58
f 61/61/61 63/63/63 64/64/64
f 43/43/43 65/65/65 57/57/57
f 43/43/43 44/44/44 65/65/65
f 65/65/65 66/66/66 57/57/57
f 65/65/65 44/44/44 66/66/66
f 57/57/57 66/66/66 62/62/62
f 44/44/44 47/47/47 66/66/66
f 62/62/62 67/67/67 63/63/63
f 64/64/64 63/63/63 67/67/67
f 62/62/62 66/66/66 67/67/67
f 66/66/66 47/47/47 68/68/68
f 68/68/68 67/67/67 66/66/66
f 68/68/68 47/47/47 49/49/49
f 64/64/64 67/67/67 69/69/69
f 67/67/67 68/68/68 69/69/69
f 68/68/68 49/49/49 69/69/69
f 70/70/70 64/64/64 69/69/69
f 49/49/49 71/71/71 69/69/69
f 69/69/69 71/71/71 70/70/70
f 71/71/71 72/72/72 70/70/70
