g backface_geo
v -0.248393 1.577546 -0.06406191
v -0.2398713 1.593252 -0.09567213
v -0.2448043 1.584586 -0.1333402
v 0.248393 1.577546 -0.06406191
v 0.2448043 1.584586 -0.1333402
v 0.2398713 1.593252 -0.09567213
v -0.2937793 1.550514 -0.06898265
v -0.248393 1.577546 -0.06406191
v -0.2448043 1.584586 -0.1333402
v -0.2887482 1.555968 -0.1402599
v -0.3604222 1.544231 -0.07422684
v -0.3586276 1.549575 -0.144756
v -0.4284947 1.53972 -0.07591438
v -0.4295422 1.546353 -0.1445307
v -0.4429934 1.52693 -0.07689184
v -0.4443939 1.533702 -0.1453016
v -0.4359983 1.516214 -0.1454429
v -0.4342448 1.509302 -0.07723978
v 0.2937793 1.550514 -0.06898265
v 0.2448043 1.584586 -0.1333402
v 0.248393 1.577546 -0.06406191
v 0.2887482 1.555968 -0.1402599
v 0.3604222 1.544231 -0.07422684
v 0.3586276 1.549575 -0.144756
v 0.4284947 1.53972 -0.07591438
v 0.4295422 1.546353 -0.1445307
v 0.4429934 1.52693 -0.07689184
v 0.4443939 1.533702 -0.1453016
v 0.4359983 1.516214 -0.1454429
v 0.4342448 1.509302 -0.07723978
v -0.4057145 1.028145 -0.1283027
v -0.3412845 1.099029 -0.2379513
v -0.3358813 1.074913 -0.1347818
v -0.4103119 1.055469 -0.2524542
v -0.4352833 1.102066 -0.3058321
v -0.3549278 1.140354 -0.2852897
v -0.4578894 1.164266 -0.3412128
v -0.3749759 1.195517 -0.3166672
v -0.4796771 1.25558 -0.3649572
v -0.3920694 1.276498 -0.3377251
v -0.490619 1.349535 -0.3577479
v -0.4002452 1.359823 -0.3313314
v -0.4983044 1.43998 -0.315607
v -0.4084444 1.440034 -0.2939587
v -0.5051039 1.500324 -0.2418434
v -0.4159864 1.493551 -0.2285411
v -0.5081371 1.527308 -0.1477438
v -0.4193994 1.517481 -0.1450884
v -0.5095347 1.519645 -0.07212703
v -0.420173 1.510686 -0.07802746
v -0.4149763 1.459004 0.01516447
v -0.505679 1.461375 0.03294412
v -0.397781 1.381219 0.06841566
v -0.4874699 1.373661 0.09299953
v -0.4757816 1.30826 0.1075544
v -0.3883447 1.323218 0.0813237
v -0.4671229 1.233801 0.1164057
v -0.3813334 1.257184 0.08917349
v -0.4544414 1.161544 0.1072389
v -0.3715337 1.193102 0.08104393
v -0.4350755 1.091148 0.06849992
v -0.3564136 1.130672 0.04668811
v -0.4147221 1.048462 0.007644926
v -0.3464144 1.092815 -0.007281393
v -0.4057145 1.028145 -0.1283027
v -0.3358813 1.074913 -0.1347818
v 0.4103119 1.055469 -0.2524542
v 0.4057145 1.028145 -0.1283027
v 0.3358813 1.074913 -0.1347818
v 0.3412845 1.099029 -0.2379513
v 0.4352833 1.102066 -0.3058321
v 0.3549278 1.140354 -0.2852897
v 0.4578894 1.164266 -0.3412128
v 0.3749759 1.195517 -0.3166672
v 0.4796771 1.25558 -0.3649572
v 0.3920694 1.276498 -0.3377251
v 0.490619 1.349535 -0.3577479
v 0.4002452 1.359823 -0.3313314
v 0.4983044 1.43998 -0.315607
v 0.4084444 1.440034 -0.2939587
v 0.5051039 1.500324 -0.2418434
v 0.4159864 1.493551 -0.2285411
v 0.5081371 1.527308 -0.1477438
v 0.4193994 1.517481 -0.1450884
v 0.5095347 1.519645 -0.07212703
v 0.420173 1.510686 -0.07802746
v 0.505679 1.461375 0.03294412
v 0.4149763 1.459004 0.01516448
v 0.4874699 1.373661 0.09299953
v 0.397781 1.381219 0.06841566
v 0.4757816 1.30826 0.1075544
v 0.3883447 1.323218 0.0813237
v 0.4671229 1.233801 0.1164057
v 0.3813334 1.257184 0.08917349
v 0.4544414 1.161544 0.1072389
v 0.3715337 1.193102 0.08104393
v 0.4350755 1.091148 0.06849992
v 0.3564136 1.130672 0.04668811
v 0.4147221 1.048462 0.007644926
v 0.3464144 1.092815 -0.007281393
v 0.4057145 1.028145 -0.1283027
v 0.3358813 1.074913 -0.1347818
vt 0.1722412 0.9174805
vt 0.1633301 0.9321289
vt 0.1722412 0.949707
vt 0.1722412 0.9174805
vt 0.1722412 0.949707
vt 0.1633301 0.9321289
vt 0.2042236 0.9174805
vt 0.1722412 0.9174805
vt 0.1722412 0.949707
vt 0.2042236 0.949707
vt 0.2423096 0.9174805
vt 0.2423096 0.949707
vt 0.2775879 0.9174805
vt 0.2775879 0.949707
vt 0.2866211 0.9174805
vt 0.2866211 0.949707
vt 0.2954102 0.949707
vt 0.2954102 0.9174805
vt 0.2042236 0.9174805
vt 0.1722412 0.949707
vt 0.1722412 0.9174805
vt 0.2042236 0.949707
vt 0.2423096 0.9174805
vt 0.2423096 0.949707
vt 0.2775879 0.9174805
vt 0.2775879 0.949707
vt 0.2866211 0.9174805
vt 0.2866211 0.949707
vt 0.2954102 0.949707
vt 0.2954102 0.9174805
vt 0.1634521 0.9619141
vt 0.2374268 0.9951172
vt 0.1634521 0.9951172
vt 0.2374268 0.9619141
vt 0.2653809 0.9619141
vt 0.2653809 0.9951172
vt 0.2941895 0.9619141
vt 0.2941895 0.9951172
vt 0.3320312 0.9619141
vt 0.3320312 0.9951172
vt 0.3693848 0.9619141
vt 0.3693848 0.9951172
vt 0.4084473 0.9619141
vt 0.4084473 0.9951172
vt 0.4458008 0.9619141
vt 0.4458008 0.9951172
vt 0.4836426 0.9619141
vt 0.4836426 0.9951172
vt 0.5126953 0.9619141
vt 0.5126953 0.9951172
vt 0.5595703 0.9951172
vt 0.5595703 0.9619141
vt 0.6015625 0.9951172
vt 0.6015625 0.9619141
vt 0.628418 0.9619141
vt 0.628418 0.9951172
vt 0.6582031 0.9619141
vt 0.6582031 0.9951172
vt 0.6870117 0.9619141
vt 0.6870117 0.9951172
vt 0.71875 0.9619141
vt 0.71875 0.9951172
vt 0.7475586 0.9619141
vt 0.7475586 0.9951172
vt 0.7773438 0.9619141
vt 0.7773438 0.9951172
vt 0.2374268 0.9619141
vt 0.1634521 0.9619141
vt 0.1634521 0.9951172
vt 0.2374268 0.9951172
vt 0.2653809 0.9619141
vt 0.2653809 0.9951172
vt 0.2941895 0.9619141
vt 0.2941895 0.9951172
vt 0.3320312 0.9619141
vt 0.3320312 0.9951172
vt 0.3693848 0.9619141
vt 0.3693848 0.9951172
vt 0.4084473 0.9619141
vt 0.4084473 0.9951172
vt 0.4458008 0.9619141
vt 0.4458008 0.9951172
vt 0.4836426 0.9619141
vt 0.4836426 0.9951172
vt 0.5126953 0.9619141
vt 0.5126953 0.9951172
vt 0.5595703 0.9619141
vt 0.5595703 0.9951172
vt 0.6015625 0.9619141
vt 0.6015625 0.9951172
vt 0.628418 0.9619141
vt 0.628418 0.9951172
vt 0.6582031 0.9619141
vt 0.6582031 0.9951172
vt 0.6870117 0.9619141
vt 0.6870117 0.9951172
vt 0.71875 0.9619141
vt 0.71875 0.9951172
vt 0.7475586 0.9619141
vt 0.7475586 0.9951172
vt 0.7773438 0.9619141
vt 0.7773438 0.9951172
vn 0.8758404 -0.4825868 -0.003668476
vn 0.8758404 -0.4825868 -0.003668477
vn 0.8758404 -0.4825868 -0.003668477
vn -0.8758405 -0.4825867 -0.003668476
vn -0.8758404 -0.4825868 -0.003668475
vn -0.8758405 -0.4825867 -0.003668476
vn 0.2931609 -0.954165 -0.06021455
vn 0.5323341 -0.8454665 -0.04250745
vn 0.5323341 -0.8454664 -0.04250746
vn 0.2923111 -0.9544224 -0.06026777
vn 0.07707748 -0.9939673 -0.07802665
vn 0.07682252 -0.9939799 -0.07811628
vn 0.1904347 -0.9777082 -0.08843885
vn 0.1923217 -0.9773358 -0.08847152
vn 0.9831845 -0.1787398 -0.03741899
vn 0.9742789 -0.2215259 -0.04131316
vn 0.8985032 0.4383554 0.02316347
vn 0.8985032 0.4383554 0.02316347
vn -0.2931609 -0.954165 -0.06021535
vn -0.5323341 -0.8454665 -0.04250785
vn -0.5323341 -0.8454665 -0.04250786
vn -0.2923111 -0.9544222 -0.06026854
vn -0.07707747 -0.9939672 -0.07802718
vn -0.07682253 -0.9939799 -0.07811682
vn -0.1904346 -0.9777082 -0.08843877
vn -0.1923217 -0.9773358 -0.08847144
vn -0.9831845 -0.1787404 -0.03741871
vn -0.9742788 -0.2215264 -0.04131285
vn -0.8985035 0.4383548 0.02316348
vn -0.8985035 0.4383548 0.02316348
vn -0.561936 0.8271801 -0.0009612853
vn -0.5328232 0.7472495 0.3971367
vn -0.5607782 0.8275838 0.02515782
vn -0.5308942 0.7394521 0.4139589
vn -0.4269863 0.4505372 0.7840273
vn -0.431633 0.4624352 0.7744976
vn -0.3562114 0.2439164 0.9020078
vn -0.357076 0.2469121 0.9008503
vn -0.3053841 0.03562125 0.9515628
vn -0.3037028 0.0283527 0.9523449
vn -0.2446245 -0.264715 0.9327833
vn -0.2413938 -0.2819377 0.9285689
vn -0.1864168 -0.6017537 0.7766216
vn -0.1840723 -0.6153922 0.7664266
vn -0.1345395 -0.8794258 0.4566282
vn -0.1336756 -0.8838294 0.448304
vn -0.1122202 -0.9876927 0.1089487
vn -0.1122418 -0.9875487 0.1102236
vn -0.115423 -0.9323631 -0.3426025
vn -0.1153117 -0.9340001 -0.3381525
vn -0.1460334 -0.7509533 -0.6440058
vn -0.146595 -0.7479227 -0.6473959
vn -0.1991981 -0.4615841 -0.8644422
vn -0.199664 -0.4594408 -0.8654758
vn -0.2517705 -0.1916375 -0.9486235
vn -0.2505624 -0.1967517 -0.9478962
vn -0.2956294 -0.03111912 -0.9547957
vn -0.291085 -0.0474991 -0.9555174
vn -0.3722717 0.2269174 -0.8999569
vn -0.3691306 0.2162189 -0.9038761
vn -0.4608841 0.4906573 -0.7394872
vn -0.4630843 0.4966033 -0.7341241
vn -0.5542204 0.7628109 -0.3331054
vn -0.5561631 0.7710369 -0.3101364
vn -0.561936 0.8271801 -0.0009612853
vn -0.5607782 0.8275838 0.02515782
vn 0.5308943 0.7394521 0.4139588
vn 0.561936 0.8271802 -0.0009612608
vn 0.5607781 0.8275838 0.02515785
vn 0.5328234 0.7472495 0.3971366
vn 0.4269866 0.4505375 0.784027
vn 0.4316333 0.4624355 0.7744973
vn 0.3562118 0.2439167 0.9020076
vn 0.3570763 0.2469124 0.90085
vn 0.3053843 0.03562127 0.9515626
vn 0.303703 0.02835271 0.9523448
vn 0.2446245 -0.264715 0.9327834
vn 0.2413936 -0.2819376 0.9285689
vn 0.1864167 -0.6017537 0.7766217
vn 0.1840722 -0.6153922 0.7664266
vn 0.1345395 -0.8794259 0.4566281
vn 0.1336756 -0.8838294 0.448304
vn 0.1122202 -0.9876927 0.1089491
vn 0.1122417 -0.9875487 0.110224
vn 0.115423 -0.9323633 -0.3426022
vn 0.1153116 -0.9340002 -0.3381522
vn 0.146595 -0.7479227 -0.647396
vn 0.1460333 -0.750953 -0.644006
vn 0.1996638 -0.4594406 -0.865476
vn 0.1991979 -0.4615838 -0.8644423
vn 0.2517701 -0.1916374 -0.9486237
vn 0.2505621 -0.1967516 -0.9478964
vn 0.2956291 -0.03111903 -0.9547958
vn 0.2910847 -0.047499 -0.9555174
vn 0.3722717 0.2269173 -0.8999569
vn 0.3691306 0.2162188 -0.9038762
vn 0.4608842 0.4906573 -0.7394871
vn 0.4630844 0.4966033 -0.734124
vn 0.5542204 0.762811 -0.3331053
vn 0.556163 0.771037 -0.3101363
vn 0.561936 0.8271802 -0.0009612608
vn 0.5607781 0.8275838 0.02515785
g backface_geo_0
f 3/3/3 2/2/2 1/1/1
f 6/6/6 5/5/5 4/4/4
f 9/9/9 8/8/8 7/7/7
f 10/10/10 9/9/9 7/7/7
f 10/10/10 7/7/7 11/11/11
f 12/12/12 10/10/10 11/11/11
f 12/12/12 11/11/11 13/13/13
f 14/14/14 12/12/12 13/13/13
f 14/14/14 13/13/13 15/15/15
f 16/16/16 14/14/14 15/15/15
f 16/16/16 15/15/15 17/17/17
f 15/15/15 18/18/18 17/17/17
f 21/21/21 20/20/20 19/19/19
f 20/20/20 22/22/22 19/19/19
f 19/19/19 22/22/22 23/23/23
f 22/22/22 24/24/24 23/23/23
f 23/23/23 24/24/24 25/25/25
f 24/24/24 26/26/26 25/25/25
f 25/25/25 26/26/26 27/27/27
f 26/26/26 28/28/28 27/27/27
f 27/27/27 28/28/28 29/29/29
f 30/30/30 27/27/27 29/29/29
f 33/33/33 32/32/32 31/31/31
f 32/32/32 34/34/34 31/31/31
f 35/35/35 34/34/34 32/32/32
f 36/36/36 35/35/35 32/32/32
f 37/37/37 35/35/35 36/36/36
f 38/38/38 37/37/37 36/36/36
f 39/39/39 37/37/37 38/38/38
f 40/40/40 39/39/39 38/38/38
f 41/41/41 39/39/39 40/40/40
f 42/42/42 41/41/41 40/40/40
f 43/43/43 41/41/41 42/42/42
f 44/44/44 43/43/43 42/42/42
f 45/45/45 43/43/43 44/44/44
f 46/46/46 45/45/45 44/44/44
f 47/47/47 45/45/45 46/46/46
f 48/48/48 47/47/47 46/46/46
f 49/49/49 47/47/47 48/48/48
f 50/50/50 49/49/49 48/48/48
f 50/50/50 51/51/51 49/49/49
f 51/51/51 52/52/52 49/49/49
f 51/51/51 53/53/53 52/52/52
f 53/53/53 54/54/54 52/52/52
f 55/55/55 54/54/54 53/53/53
f 56/56/56 55/55/55 53/53/53
f 57/57/57 55/55/55 56/56/56
f 58/58/58 57/57/57 56/56/56
f 59/59/59 57/57/57 58/58/58
f 60/60/60 59/59/59 58/58/58
f 61/61/61 59/59/59 60/60/60
f 62/62/62 61/61/61 60/60/60
f 63/63/63 61/61/61 62/62/62
f 64/64/64 63/63/63 62/62/62
f 65/65/65 63/63/63 64/64/64
f 66/66/66 65/65/65 64/64/64
f 69/69/69 68/68/68 67/67/67
f 70/70/70 69/69/69 67/67/67
f 67/67/67 71/71/71 70/70/70
f 71/71/71 72/72/72 70/70/70
f 71/71/71 73/73/73 72/72/72
f 73/73/73 74/74/74 72/72/72
f 73/73/73 75/75/75 74/74/74
f 75/75/75 76/76/76 74/74/74
f 75/75/75 77/77/77 76/76/76
f 77/77/77 78/78/78 76/76/76
f 77/77/77 79/79/79 78/78/78
f 79/79/79 80/80/80 78/78/78
f 79/79/79 81/81/81 80/80/80
f 81/81/81 82/82/82 80/80/80
f 81/81/81 83/83/83 82/82/82
f 83/83/83 84/84/84 82/82/82
f 83/83/83 85/85/85 84/84/84
f 85/85/85 86/86/86 84/84/84
f 86/86/86 85/85/85 87/87/87
f 88/88/88 86/86/86 87/87/87
f 88/88/88 87/87/87 89/89/89
f 90/90/90 88/88/88 89/89/89
f 89/89/89 91/91/91 90/90/90
f 91/91/91 92/92/92 90/90/90
f 91/91/91 93/93/93 92/92/92
f 93/93/93 94/94/94 92/92/92
f 93/93/93 95/95/95 94/94/94
f 95/95/95 96/96/96 94/94/94
f 95/95/95 97/97/97 96/96/96
f 97/97/97 98/98/98 96/96/96
f 97/97/97 99/99/99 98/98/98
f 99/99/99 100/100/100 98/98/98
f 99/99/99 101/101/101 100/100/100
f 101/101/101 102/102/102 100/100/100
