g bf_geo
v 0.2485733 0.6399935 0.01970672
v 0.2681671 0.6119677 0.01891477
v 0.2743263 0.6179909 -0.03022422
v 0.2547325 0.6460167 -0.02943225
v 0.161487 0.7888783 -0.09613945
v 0.1887484 0.7253901 -0.1092018
v 0.148081 0.7158802 -0.1364888
v 0.1208196 0.7793684 -0.1234265
v 0.1178902 0.6944678 0.1349918
v 0.147331 0.6306936 0.1420114
v 0.1857781 0.6464097 0.1143767
v 0.1563373 0.7101837 0.1073571
v 0.08684226 0.7768928 0.1273008
v 0.09686938 0.7445437 0.1320962
v 0.1387608 0.7540526 0.106728
v 0.1287336 0.7864016 0.1019326
v 0.2917305 0.5751284 0.01411496
v 0.3304795 0.5165756 0.01029027
v 0.3362609 0.526113 -0.03833549
v 0.2975118 0.5846659 -0.0345108
v 0.2617968 1.051537 0.0325096
v 0.2753891 1.059669 0.009866279
v 0.2615085 1.082618 0.01166188
v 0.2343145 1.063007 0.05843097
v 0.239605 0.4115933 -0.05975081
v 0.2125806 0.4108013 -0.1019093
v 0.2085011 0.4453128 -0.09885148
v 0.2443966 0.4471282 -0.03248915
v 0.2690122 0.6128951 0.008150869
v 0.299676 0.5689964 0.003828547
v 0.3028377 0.5752825 -0.02555062
v 0.2729335 0.6167655 -0.02138522
v 0.2494831 0.6408532 0.01090365
v 0.2529838 0.6444396 -0.01860641
v 0.221783 0.680509 0.0148082
v 0.2256694 0.6823298 -0.01480174
v 0.1848282 0.7447982 0.003438072
v 0.1795598 0.7396911 0.02058228
v 0.1837017 0.7473536 -0.01527648
v 0.2231983 0.2234046 -0.01117364
v 0.2295691 0.1961777 0.01860208
v 0.2728297 0.1652178 -0.01699819
v 0.2824403 0.1850499 -0.06114558
v 0.2442881 0.1768169 0.04886702
v 0.2522048 0.1554604 0.08061508
v 0.2931376 0.1296422 0.04971372
v 0.3089196 0.1390479 0.004775714
v 0.2464064 0.3407828 -0.07265422
v 0.2164277 0.3410489 -0.1073861
v 0.2126523 0.3773645 -0.1047571
v 0.2560062 0.3773745 -0.05429118
v 0.09227345 0.7770169 0.1218772
v 0.1285587 0.688933 0.1319407
v 0.1553358 0.6990784 0.1128679
v 0.1195344 0.7841414 0.1051436
v 0.07221775 0.8623893 0.11437
v 0.09904923 0.865309 0.09911422
v -0.2485733 0.6399935 0.01970672
v -0.2547325 0.6460167 -0.02943225
v -0.2743263 0.6179909 -0.03022422
v -0.2681671 0.6119677 0.01891477
v -0.161487 0.7888783 -0.09613945
v -0.1208196 0.7793684 -0.1234265
v -0.148081 0.7158802 -0.1364888
v -0.1887484 0.7253901 -0.1092018
v -0.1178902 0.6944678 0.1349918
v -0.1563373 0.7101837 0.1073571
v -0.1857781 0.6464097 0.1143767
v -0.147331 0.6306936 0.1420114
v -0.08684226 0.7768928 0.1273008
v -0.1287336 0.7864016 0.1019326
v -0.1387608 0.7540526 0.106728
v -0.09686938 0.7445437 0.1320962
v -0.2917305 0.5751284 0.01411496
v -0.2975118 0.5846659 -0.0345108
v -0.3362609 0.526113 -0.03833549
v -0.3304795 0.5165756 0.01029027
v -0.2617968 1.051537 0.0325096
v -0.2343145 1.063007 0.05843097
v -0.2615085 1.082618 0.01166188
v -0.2753891 1.059669 0.009866279
v -0.239605 0.4115933 -0.05975081
v -0.2443966 0.4471282 -0.03248915
v -0.2085011 0.4453128 -0.09885148
v -0.2125806 0.4108013 -0.1019093
v -0.2231983 0.2234046 -0.01117364
v -0.2824403 0.1850499 -0.06114558
v -0.2728297 0.1652178 -0.01699819
v -0.2295691 0.1961777 0.01860208
v -0.2442881 0.1768169 0.04886702
v -0.3089196 0.1390479 0.004775714
v -0.2931376 0.1296422 0.04971372
v -0.2522048 0.1554604 0.08061508
v -0.2464064 0.3407828 -0.07265422
v -0.2560062 0.3773745 -0.05429118
v -0.2126523 0.3773645 -0.1047571
v -0.2164277 0.3410489 -0.1073861
v -0.09227345 0.7770169 0.1218772
v -0.1553358 0.6990784 0.1128679
v -0.1285587 0.688933 0.1319407
v -0.1195344 0.7841414 0.1051436
v -0.07221775 0.8623893 0.11437
v -0.09904923 0.865309 0.09911422
v -0.1795598 0.7396911 0.02058228
v -0.1848282 0.7447982 0.003438072
v -0.221783 0.680509 0.0148082
v -0.2256694 0.6823298 -0.01480174
v -0.1837017 0.7473536 -0.01527648
v -0.2529838 0.6444395 -0.01860641
v -0.2494831 0.6408532 0.01090365
v -0.2690122 0.6128951 0.008150869
v -0.2729335 0.6167654 -0.02138522
v -0.299676 0.5689964 0.003828547
v -0.3028377 0.5752825 -0.02555062
v 0.07843594 0.9167166 -0.08206014
v 0.09076351 0.9378812 -0.07153199
v 0.1106115 0.9126486 -0.07010006
v 0.0868801 0.9061896 -0.08427812
v 0.128059 0.8563497 -0.08848603
v 0.1055906 0.8514904 -0.09934488
v 0.1580122 0.7778459 -0.1031353
v 0.1330317 0.7727395 -0.11961
v 0.09076351 0.9378812 -0.07153199
v 0.07843594 0.9167166 -0.08206014
v 0.06693952 0.9231296 -0.08107582
v 0.06288193 0.9528037 -0.0757218
v -0.07843594 0.9167166 -0.08206014
v -0.1106115 0.9126486 -0.07010006
v -0.09076351 0.9378812 -0.07153199
v -0.0868801 0.9061896 -0.08427812
v -0.128059 0.8563497 -0.08848603
v -0.1055906 0.8514904 -0.09934488
v -0.1580122 0.7778459 -0.1031353
v -0.1330317 0.7727395 -0.11961
v -0.09076351 0.9378812 -0.07153199
v -0.06288193 0.9528037 -0.0757218
v -0.06693952 0.9231296 -0.08107582
v -0.07843594 0.9167166 -0.08206014
vt 0.06240845 0.02764893
vt 0.06240845 0.008735657
vt 0.09454346 0.008735657
vt 0.09454346 0.02764893
vt 0.00510025 0.1480713
vt 0.00510025 0.08789062
vt 0.05532837 0.08789062
vt 0.05532837 0.1480713
vt 0.00510025 0.1480713
vt 0.00510025 0.08789062
vt 0.05532837 0.08789062
vt 0.05532837 0.1480713
vt 0.06240845 0.02764893
vt 0.06240845 0.008735657
vt 0.09454346 0.008735657
vt 0.09454346 0.02764893
vt 0.00510025 0.1480713
vt 0.00510025 0.08789062
vt 0.05532837 0.08789062
vt 0.05532837 0.1480713
vt 0.3613281 0.0758667
vt 0.3613281 0.09423828
vt 0.3393555 0.09423828
vt 0.3393555 0.05981445
vt 0.3166504 0.0737915
vt 0.3166504 0.09783936
vt 0.2937012 0.09783936
vt 0.2937012 0.06063843
vt 0.8334961 0.5795898
vt 0.8334961 0.5478516
vt 0.8496094 0.5478516
vt 0.8496094 0.5791016
vt 0.8334961 0.5996094
vt 0.8496094 0.5996094
vt 0.8334961 0.628418
vt 0.8496094 0.628418
vt 0.8413086 0.6762695
vt 0.8334961 0.6762695
vt 0.8496094 0.6762695
vt 0.3393555 0.09423828
vt 0.3613281 0.09423828
vt 0.3613281 0.0758667
vt 0.3393555 0.05981445
vt 0.3393555 0.09423828
vt 0.3613281 0.09423828
vt 0.3613281 0.0758667
vt 0.3393555 0.05981445
vt 0.3166504 0.0737915
vt 0.3166504 0.09783936
vt 0.2937012 0.09783936
vt 0.2937012 0.06063843
vt 0.5112305 0.5419922
vt 0.5112305 0.4943848
vt 0.5283203 0.4943848
vt 0.5283203 0.5419922
vt 0.5112305 0.5898438
vt 0.5283203 0.5898438
vt 0.06240845 0.02764893
vt 0.09454346 0.02764893
vt 0.09454346 0.008735657
vt 0.06240845 0.008735657
vt 0.00510025 0.1480713
vt 0.05532837 0.1480713
vt 0.05532837 0.08789062
vt 0.00510025 0.08789062
vt 0.00510025 0.1480713
vt 0.05532837 0.1480713
vt 0.05532837 0.08789062
vt 0.00510025 0.08789062
vt 0.06240845 0.02764893
vt 0.09454346 0.02764893
vt 0.09454346 0.008735657
vt 0.06240845 0.008735657
vt 0.00510025 0.1480713
vt 0.05532837 0.1480713
vt 0.05532837 0.08789062
vt 0.00510025 0.08789062
vt 0.3613281 0.0758667
vt 0.3393555 0.05981445
vt 0.3393555 0.09423828
vt 0.3613281 0.09423828
vt 0.3166504 0.0737915
vt 0.2937012 0.06063843
vt 0.2937012 0.09783936
vt 0.3166504 0.09783936
vt 0.3393555 0.09423828
vt 0.3393555 0.05981445
vt 0.3613281 0.0758667
vt 0.3613281 0.09423828
vt 0.3393555 0.09423828
vt 0.3393555 0.05981445
vt 0.3613281 0.0758667
vt 0.3613281 0.09423828
vt 0.3166504 0.0737915
vt 0.2937012 0.06063843
vt 0.2937012 0.09783936
vt 0.3166504 0.09783936
vt 0.5112305 0.5419922
vt 0.5283203 0.4943848
vt 0.5112305 0.4943848
vt 0.5283203 0.5419922
vt 0.5112305 0.5898438
vt 0.5283203 0.5898438
vt 0.8334961 0.6762695
vt 0.8413086 0.6762695
vt 0.8334961 0.628418
vt 0.8496094 0.628418
vt 0.8496094 0.6762695
vt 0.8496094 0.5996094
vt 0.8334961 0.5996094
vt 0.8334961 0.5795898
vt 0.8496094 0.5791016
vt 0.8334961 0.5478516
vt 0.8496094 0.5478516
vt 0.8496094 0.8178711
vt 0.8334961 0.8183594
vt 0.8334961 0.8037109
vt 0.8496094 0.8076172
vt 0.8334961 0.7680664
vt 0.8496094 0.7670898
vt 0.8334961 0.715332
vt 0.8496094 0.7148438
vt 0.8334961 0.8183594
vt 0.8496094 0.8178711
vt 0.8496094 0.8271484
vt 0.8334961 0.831543
vt 0.8496094 0.8178711
vt 0.8334961 0.8037109
vt 0.8334961 0.8183594
vt 0.8496094 0.8076172
vt 0.8334961 0.7680664
vt 0.8496094 0.7670898
vt 0.8334961 0.715332
vt 0.8496094 0.7148438
vt 0.8334961 0.8183594
vt 0.8334961 0.831543
vt 0.8496094 0.8271484
vt 0.8496094 0.8178711
vn -0.8098453 -0.5613755 -0.1703176
vn -0.8098453 -0.5613756 -0.1703176
vn -0.8098453 -0.5613756 -0.1703176
vn -0.8098453 -0.5613755 -0.1703176
vn -0.4588401 -0.3638043 0.8106245
vn -0.4588402 -0.3638044 0.8106245
vn -0.4588401 -0.3638043 0.8106245
vn -0.4588402 -0.3638044 0.8106245
vn -0.4691871 -0.3077074 -0.8277558
vn -0.4691871 -0.3077074 -0.8277557
vn -0.4691871 -0.3077074 -0.8277558
vn -0.4691871 -0.3077074 -0.8277557
vn -0.4541897 -0.2667902 -0.8500205
vn -0.4541897 -0.2667902 -0.8500205
vn -0.4541897 -0.2667902 -0.8500205
vn -0.4541897 -0.2667902 -0.8500205
vn -0.8227527 -0.5312841 -0.2020276
vn -0.8227527 -0.5312841 -0.2020276
vn -0.8227527 -0.5312841 -0.2020276
vn -0.8227527 -0.5312841 -0.2020276
vn -0.7149261 -0.3940541 -0.577583
vn -0.714926 -0.3940541 -0.577583
vn -0.7149261 -0.3940541 -0.577583
vn -0.714926 -0.3940541 -0.577583
vn -0.8444956 -0.2054887 0.4945721
vn -0.8444956 -0.2054887 0.4945722
vn -0.8444955 -0.2054888 0.4945722
vn -0.8444956 -0.2054888 0.4945722
vn -0.8101299 -0.5564212 -0.1846209
vn -0.8092453 -0.5548813 -0.1929478
vn -0.8092452 -0.5548813 -0.1929478
vn -0.8100661 -0.5563079 -0.1852416
vn -0.8124219 -0.5604373 -0.160875
vn -0.812367 -0.5603433 -0.1614786
vn -0.8265597 -0.5398042 -0.1594068
vn -0.8272117 -0.5432276 -0.1436124
vn -0.8261309 -0.5323697 -0.1846351
vn -0.7678074 -0.5099473 -0.3878474
vn -0.8398878 -0.5422516 -0.02348756
vn -0.7178227 -0.5726386 -0.3959994
vn -0.7178227 -0.5726386 -0.3959994
vn -0.7178227 -0.5726386 -0.3959994
vn -0.7178227 -0.5726386 -0.3959994
vn -0.6504047 -0.6795844 -0.3393211
vn -0.6504047 -0.6795844 -0.3393212
vn -0.6504047 -0.6795844 -0.3393211
vn -0.6504047 -0.6795844 -0.3393211
vn -0.7520387 -0.1261906 0.6469263
vn -0.7520386 -0.1261906 0.6469264
vn -0.7520386 -0.1261906 0.6469263
vn -0.7520386 -0.1261906 0.6469263
vn -0.4706653 -0.2366367 -0.8499866
vn -0.4663426 -0.2803468 -0.8390055
vn -0.4663425 -0.2803468 -0.8390055
vn -0.4706251 -0.2370972 -0.8498806
vn -0.4744638 -0.185443 -0.8605202
vn -0.4744638 -0.185443 -0.8605202
vn 0.8098456 -0.561375 -0.1703178
vn 0.8098456 -0.561375 -0.1703178
vn 0.8098456 -0.561375 -0.1703178
vn 0.8098456 -0.561375 -0.1703178
vn 0.4588399 -0.3638043 0.8106247
vn 0.4588399 -0.3638043 0.8106247
vn 0.4588399 -0.3638043 0.8106247
vn 0.4588399 -0.3638043 0.8106247
vn 0.4691873 -0.3077076 -0.8277556
vn 0.4691873 -0.3077076 -0.8277556
vn 0.4691873 -0.3077076 -0.8277556
vn 0.4691872 -0.3077076 -0.8277556
vn 0.4541894 -0.26679 -0.8500206
vn 0.4541894 -0.26679 -0.8500206
vn 0.4541894 -0.26679 -0.8500206
vn 0.4541894 -0.26679 -0.8500206
vn 0.8227528 -0.5312842 -0.2020275
vn 0.8227528 -0.5312842 -0.2020275
vn 0.8227528 -0.5312842 -0.2020275
vn 0.8227527 -0.5312842 -0.2020275
vn 0.7149266 -0.3940544 -0.5775821
vn 0.7149266 -0.3940544 -0.5775821
vn 0.7149265 -0.3940544 -0.5775821
vn 0.7149266 -0.3940544 -0.5775821
vn 0.8444955 -0.205489 0.494572
vn 0.8444956 -0.205489 0.494572
vn 0.8444956 -0.205489 0.494572
vn 0.8444955 -0.205489 0.494572
vn 0.7178229 -0.5726383 -0.3959995
vn 0.7178229 -0.5726383 -0.3959995
vn 0.7178228 -0.5726384 -0.3959994
vn 0.7178228 -0.5726384 -0.3959994
vn 0.6504047 -0.6795844 -0.3393212
vn 0.6504047 -0.6795845 -0.3393211
vn 0.6504047 -0.6795845 -0.3393211
vn 0.6504047 -0.6795845 -0.3393211
vn 0.7520389 -0.1261905 0.6469262
vn 0.7520388 -0.1261905 0.6469262
vn 0.7520388 -0.1261905 0.6469262
vn 0.7520388 -0.1261905 0.6469262
vn 0.4706652 -0.2366367 -0.8499867
vn 0.4663427 -0.2803468 -0.8390055
vn 0.4663427 -0.2803468 -0.8390055
vn 0.4706249 -0.2370972 -0.8498806
vn 0.4744635 -0.1854429 -0.8605204
vn 0.4744636 -0.1854429 -0.8605204
vn 0.7678067 -0.5099468 -0.3878492
vn 0.8261309 -0.5323695 -0.1846359
vn 0.8265598 -0.539804 -0.159407
vn 0.8272117 -0.5432274 -0.1436126
vn 0.8398877 -0.5422516 -0.02348782
vn 0.8123674 -0.5603427 -0.1614784
vn 0.8124222 -0.5604368 -0.1608749
vn 0.8101299 -0.556421 -0.1846215
vn 0.810066 -0.5563077 -0.1852423
vn 0.8092446 -0.5548815 -0.1929497
vn 0.8092446 -0.5548815 -0.1929497
vn -0.3654515 -0.308442 0.8782419
vn -0.3654515 -0.308442 0.8782419
vn -0.3679807 -0.3607638 0.8569946
vn -0.3678337 -0.3569311 0.8586609
vn -0.3964334 -0.3542143 0.8469786
vn -0.3963659 -0.3542686 0.8469875
vn -0.4151492 -0.3389633 0.8442482
vn -0.4151492 -0.3389633 0.8442481
vn -0.2168364 -0.2587855 0.9412822
vn -0.2168364 -0.2587854 0.9412822
vn -0.2168364 -0.2587855 0.9412822
vn -0.2168364 -0.2587855 0.9412822
vn 0.3654511 -0.3084415 0.8782423
vn 0.3679803 -0.3607635 0.8569948
vn 0.3654511 -0.3084415 0.8782423
vn 0.3678334 -0.3569309 0.8586611
vn 0.3964331 -0.3542141 0.8469788
vn 0.3963656 -0.3542683 0.8469877
vn 0.415149 -0.3389631 0.8442484
vn 0.415149 -0.3389631 0.8442484
vn 0.2168363 -0.2587851 0.9412822
vn 0.2168363 -0.2587851 0.9412823
vn 0.2168363 -0.2587851 0.9412822
vn 0.2168363 -0.2587851 0.9412822
g bf_geo_0
f 3/3/3 2/2/2 1/1/1
f 4/4/4 3/3/3 1/1/1
f 7/7/7 6/6/6 5/5/5
f 8/8/8 7/7/7 5/5/5
f 11/11/11 10/10/10 9/9/9
f 12/12/12 11/11/11 9/9/9
f 15/15/15 14/14/14 13/13/13
f 16/16/16 15/15/15 13/13/13
f 19/19/19 18/18/18 17/17/17
f 20/20/20 19/19/19 17/17/17
f 23/23/23 22/22/22 21/21/21
f 24/24/24 23/23/23 21/21/21
f 27/27/27 26/26/26 25/25/25
f 28/28/28 27/27/27 25/25/25
f 31/31/31 30/30/30 29/29/29
f 32/32/32 31/31/31 29/29/29
f 32/32/32 29/29/29 33/33/33
f 34/34/34 32/32/32 33/33/33
f 34/34/34 33/33/33 35/35/35
f 36/36/36 34/34/34 35/35/35
f 37/37/37 36/36/36 35/35/35
f 37/37/37 35/35/35 38/38/38
f 39/39/39 36/36/36 37/37/37
f 42/42/42 41/41/41 40/40/40
f 43/43/43 42/42/42 40/40/40
f 46/46/46 45/45/45 44/44/44
f 47/47/47 46/46/46 44/44/44
f 50/50/50 49/49/49 48/48/48
f 51/51/51 50/50/50 48/48/48
f 54/54/54 53/53/53 52/52/52
f 55/55/55 54/54/54 52/52/52
f 55/55/55 52/52/52 56/56/56
f 57/57/57 55/55/55 56/56/56
f 60/60/60 59/59/59 58/58/58
f 61/61/61 60/60/60 58/58/58
f 64/64/64 63/63/63 62/62/62
f 65/65/65 64/64/64 62/62/62
f 68/68/68 67/67/67 66/66/66
f 69/69/69 68/68/68 66/66/66
f 72/72/72 71/71/71 70/70/70
f 73/73/73 72/72/72 70/70/70
f 76/76/76 75/75/75 74/74/74
f 77/77/77 76/76/76 74/74/74
f 80/80/80 79/79/79 78/78/78
f 81/81/81 80/80/80 78/78/78
f 84/84/84 83/83/83 82/82/82
f 85/85/85 84/84/84 82/82/82
f 88/88/88 87/87/87 86/86/86
f 89/89/89 88/88/88 86/86/86
f 92/92/92 91/91/91 90/90/90
f 93/93/93 92/92/92 90/90/90
f 96/96/96 95/95/95 94/94/94
f 97/97/97 96/96/96 94/94/94
f 100/100/100 99/99/99 98/98/98
f 99/99/99 101/101/101 98/98/98
f 98/98/98 101/101/101 102/102/102
f 101/101/101 103/103/103 102/102/102
f 106/106/106 105/105/105 104/104/104
f 107/107/107 105/105/105 106/106/106
f 107/107/107 108/108/108 105/105/105
f 109/109/109 107/107/107 106/106/106
f 110/110/110 109/109/109 106/106/106
f 110/110/110 111/111/111 109/109/109
f 111/111/111 112/112/112 109/109/109
f 111/111/111 113/113/113 112/112/112
f 113/113/113 114/114/114 112/112/112
f 117/117/117 116/116/116 115/115/115
f 118/118/118 117/117/117 115/115/115
f 119/119/119 117/117/117 118/118/118
f 120/120/120 119/119/119 118/118/118
f 121/121/121 119/119/119 120/120/120
f 122/122/122 121/121/121 120/120/120
f 125/125/125 124/124/124 123/123/123
f 126/126/126 125/125/125 123/123/123
f 129/129/129 128/128/128 127/127/127
f 128/128/128 130/130/130 127/127/127
f 128/128/128 131/131/131 130/130/130
f 131/131/131 132/132/132 130/130/130
f 131/131/131 133/133/133 132/132/132
f 133/133/133 134/134/134 132/132/132
f 137/137/137 136/136/136 135/135/135
f 138/138/138 137/137/137 135/135/135
