g facial_mouth_geo
v -0.06539278 1.343399 0.0599807
v -0.07895978 1.355604 0.0426187
v -0.08461878 1.365923 0.0620117
v -0.07341278 1.352695 0.0787157
v -0.05003878 1.334285 0.0729737
v -0.07852678 1.365593 0.08998869
v -0.08692378 1.381571 0.0709487
v -0.08106778 1.38311 0.0975957
v -0.05550778 1.340945 0.0906097
v -0.03339778 1.324644 0.0877507
v -0.06773478 1.368382 0.1071807
v -0.07095677 1.382931 0.1084417
v -0.06222278 1.354775 0.1018957
v -0.04931478 1.364169 0.1165337
v -0.05452578 1.382338 0.1184727
v -0.04687078 1.351272 0.1114387
v -0.03237578 1.371832 0.1277707
v -0.03778478 1.381931 0.1274747
v -0.01910178 1.385926 0.1419617
v -0.03070878 1.359386 0.1245077
v -0.03301678 1.329618 0.1002537
v -0.03354278 1.339495 0.1107167
v -0.01554478 1.31963 0.1099677
v -0.01418678 1.31446 0.1028697
v 1.220703E-06 1.313144 0.1059237
v -0.01424978 1.333249 0.1147327
v 1.220703E-06 1.318125 0.1125247
v 0.01418922 1.31446 0.1028697
v -0.03097778 1.348753 0.1178087
v -0.01409878 1.345433 0.1235747
v -0.01510978 1.356265 0.1289527
v 1.220703E-06 1.332629 0.1178047
v 0.01554722 1.31963 0.1099677
v 0.03340022 1.324644 0.0877507
v 0.01425222 1.333249 0.1147327
v 1.220703E-06 1.344538 0.1268777
v 0.03301922 1.329618 0.1002537
v 0.01410122 1.345433 0.1235747
v 0.01511222 1.356265 0.1289527
v 0.05551022 1.340945 0.0906097
v 0.05004122 1.334285 0.0729737
v 0.03354522 1.339495 0.1107167
v 0.03098022 1.348752 0.1178087
v 0.04687322 1.351272 0.1114387
v 0.07341522 1.352695 0.0787157
v 0.06539522 1.343399 0.0599807
v 1.220703E-06 1.353345 0.1319037
v 1.220703E-06 1.366603 0.1368507
v 0.03071122 1.359386 0.1245077
v 0.06222522 1.354775 0.1018957
v 0.08462122 1.365923 0.0620117
v 0.07896222 1.355604 0.0426187
v 0.07852922 1.365593 0.08998869
v 0.08692622 1.381571 0.0709487
v 0.08107022 1.38311 0.0975957
v 0.06773722 1.368382 0.1071807
v 0.07095922 1.382931 0.1084417
v 0.04931722 1.364169 0.1165337
v 0.05452822 1.382338 0.1184727
v 0.03237822 1.371832 0.1277707
v 0.03778722 1.381931 0.1274747
v 0.01910422 1.385926 0.1419617
v 0.01664722 1.369217 0.1331057
v 1.220703E-06 1.390698 0.1540237
v -0.01664478 1.369217 0.1331057
vt 0.1687012 0.3015137
vt 0.1433105 0.3146973
vt 0.1518555 0.3303223
vt 0.1740723 0.3186035
vt 0.1905518 0.2905273
vt 0.1746826 0.3352051
vt 0.1520996 0.3466797
vt 0.1740723 0.3525391
vt 0.1942139 0.3063965
vt 0.21521 0.2849121
vt 0.1896973 0.3398438
vt 0.1849365 0.3522949
vt 0.1938477 0.3256836
vt 0.2061768 0.3347168
vt 0.1993408 0.3510742
vt 0.2080078 0.3225098
vt 0.2211914 0.3417969
vt 0.2143555 0.3508301
vt 0.2316895 0.3566895
vt 0.2246094 0.3317871
vt 0.2174072 0.2954102
vt 0.2181396 0.3105469
vt 0.2412109 0.293457
vt 0.2440186 0.2797852
vt 0.25 0.279541
vt 0.2307129 0.3049316
vt 0.25 0.2927246
vt 0.2561035 0.2797852
vt 0.2220459 0.3212891
vt 0.2373047 0.3198242
vt 0.2393799 0.3276367
vt 0.25 0.3012695
vt 0.2587891 0.293457
vt 0.2849121 0.2849121
vt 0.2692871 0.3049316
vt 0.25 0.3161621
vt 0.2827148 0.2954102
vt 0.2626953 0.3198242
vt 0.260498 0.3276367
vt 0.3059082 0.3063965
vt 0.3095703 0.2905273
vt 0.2819824 0.3105469
vt 0.2780762 0.3212891
vt 0.2919922 0.3225098
vt 0.3259277 0.3190918
vt 0.3312988 0.3015137
vt 0.25 0.3242188
vt 0.25 0.3378906
vt 0.2753906 0.3317871
vt 0.3061523 0.3256836
vt 0.3481445 0.3303223
vt 0.3566895 0.3146973
vt 0.3251953 0.3352051
vt 0.3479004 0.3466797
vt 0.3259277 0.3525391
vt 0.3103027 0.3398438
vt 0.3151855 0.3522949
vt 0.2937012 0.3347168
vt 0.3007812 0.3510742
vt 0.2788086 0.3417969
vt 0.2856445 0.3508301
vt 0.2683105 0.3566895
vt 0.265625 0.3398438
vt 0.25 0.3630371
vt 0.2342529 0.3398438
vn -0.6887261 -0.718579 0.09643972
vn -0.7486523 -0.6505492 0.1276932
vn -0.8434445 -0.5217294 0.1280619
vn -0.7311985 -0.6585947 0.1777687
vn -0.5875155 -0.799282 0.1263874
vn -0.8461872 -0.4130319 0.3367073
vn -0.945974 -0.2474243 0.2095576
vn -0.8712243 -0.2757441 0.40612
vn -0.5967795 -0.7382159 0.3144703
vn -0.5714353 -0.7770431 0.2639427
vn -0.6275214 -0.3436362 0.6986638
vn -0.6005095 -0.2145419 0.7702987
vn -0.6132329 -0.5926352 0.5222347
vn -0.4737293 -0.3066472 0.8255592
vn -0.4930913 -0.2308972 0.8387774
vn -0.4973461 -0.5526261 0.6687685
vn -0.4394291 -0.3034374 0.8454748
vn -0.5076592 -0.2477137 0.8251789
vn -0.3561167 -0.498901 0.790113
vn -0.3759943 -0.388957 0.8410355
vn -0.5472878 -0.6788496 0.4895297
vn -0.4333243 -0.601307 0.6713121
vn -0.4377956 -0.548752 0.7121842
vn -0.4224256 -0.7629842 0.4892972
vn -0 -0.8122419 0.5833208
vn -0.3270154 -0.48573 0.810634
vn -0 -0.6123744 0.7905679
vn 0.4224261 -0.7629847 0.4892959
vn -0.3604944 -0.5000435 0.7874009
vn -0.2904812 -0.5185759 0.8041764
vn -0.3007984 -0.413957 0.8591624
vn -2.931125E-07 -0.5185097 0.8550717
vn 0.4377954 -0.5487521 0.7121843
vn 0.5714353 -0.777043 0.2639428
vn 0.3270096 -0.485734 0.8106339
vn -0 -0.5434744 0.8394257
vn 0.5472869 -0.6788485 0.4895324
vn 0.2904731 -0.5185763 0.804179
vn 0.3007942 -0.4139528 0.8591658
vn 0.5967795 -0.7382159 0.3144702
vn 0.5875157 -0.7992823 0.1263843
vn 0.4333223 -0.6013151 0.671306
vn 0.360492 -0.500043 0.7874023
vn 0.4973492 -0.5526242 0.6687677
vn 0.7311985 -0.6585947 0.1777691
vn 0.6887263 -0.7185789 0.09643848
vn 4.528216E-07 -0.4315726 0.9020783
vn 4.215104E-07 -0.4854814 0.874247
vn 0.3759918 -0.3889483 0.8410407
vn 0.6132327 -0.5926348 0.5222353
vn 0.8434446 -0.5217295 0.1280613
vn 0.7486525 -0.6505495 0.1276905
vn 0.8461872 -0.4130321 0.3367071
vn 0.9459742 -0.2474244 0.2095566
vn 0.871224 -0.2757444 0.4061201
vn 0.6275214 -0.3436361 0.6986638
vn 0.6005089 -0.2145417 0.7702993
vn 0.4737295 -0.3066471 0.8255591
vn 0.4930919 -0.2308972 0.838777
vn 0.4394288 -0.3034369 0.8454752
vn 0.5076593 -0.2477139 0.8251787
vn 0.3561166 -0.4989013 0.790113
vn 0.3072258 -0.4176939 0.8550697
vn -0 -0.5803909 0.8143381
vn -0.307225 -0.4176927 0.8550707
g facial_mouth_geo_0
f 3/3/3 2/2/2 1/1/1
f 1/1/1 4/4/4 3/3/3
f 4/4/4 1/1/1 5/5/5
f 6/6/6 3/3/3 4/4/4
f 6/6/6 7/7/7 3/3/3
f 7/7/7 6/6/6 8/8/8
f 5/5/5 9/9/9 4/4/4
f 10/10/10 9/9/9 5/5/5
f 11/11/11 8/8/8 6/6/6
f 11/11/11 12/12/12 8/8/8
f 13/13/13 6/6/6 4/4/4
f 13/13/13 4/4/4 9/9/9
f 13/13/13 11/11/11 6/6/6
f 12/12/12 11/11/11 14/14/14
f 14/14/14 15/15/15 12/12/12
f 11/11/11 13/13/13 16/16/16
f 16/16/16 13/13/13 9/9/9
f 16/16/16 14/14/14 11/11/11
f 17/17/17 15/15/15 14/14/14
f 17/17/17 18/18/18 15/15/15
f 17/17/17 19/19/19 18/18/18
f 14/14/14 16/16/16 20/20/20
f 17/17/17 14/14/14 20/20/20
f 9/9/9 10/10/10 21/21/21
f 22/22/22 16/16/16 9/9/9
f 21/21/21 22/22/22 9/9/9
f 21/21/21 10/10/10 23/23/23
f 10/10/10 24/24/24 23/23/23
f 24/24/24 25/25/25 23/23/23
f 23/23/23 26/26/26 21/21/21
f 26/26/26 22/22/22 21/21/21
f 25/25/25 27/27/27 23/23/23
f 27/27/27 26/26/26 23/23/23
f 27/27/27 25/25/25 28/28/28
f 29/29/29 16/16/16 22/22/22
f 29/29/29 20/20/20 16/16/16
f 29/29/29 22/22/22 30/30/30
f 22/22/22 26/26/26 30/30/30
f 29/29/29 30/30/30 20/20/20
f 17/17/17 20/20/20 31/31/31
f 30/30/30 31/31/31 20/20/20
f 30/30/30 26/26/26 32/32/32
f 27/27/27 32/32/32 26/26/26
f 33/33/33 27/27/27 28/28/28
f 28/28/28 34/34/34 33/33/33
f 35/35/35 27/27/27 33/33/33
f 35/35/35 32/32/32 27/27/27
f 36/36/36 30/30/30 32/32/32
f 31/31/31 30/30/30 36/36/36
f 33/33/33 34/34/34 37/37/37
f 37/37/37 35/35/35 33/33/33
f 32/32/32 35/35/35 38/38/38
f 36/36/36 32/32/32 38/38/38
f 36/36/36 38/38/38 39/39/39
f 34/34/34 40/40/40 37/37/37
f 40/40/40 34/34/34 41/41/41
f 37/37/37 42/42/42 35/35/35
f 35/35/35 42/42/42 38/38/38
f 40/40/40 42/42/42 37/37/37
f 42/42/42 43/43/43 38/38/38
f 39/39/39 38/38/38 43/43/43
f 44/44/44 43/43/43 42/42/42
f 44/44/44 42/42/42 40/40/40
f 45/45/45 40/40/40 41/41/41
f 41/41/41 46/46/46 45/45/45
f 47/47/47 31/31/31 36/36/36
f 47/47/47 36/36/36 39/39/39
f 31/31/31 47/47/47 48/48/48
f 47/47/47 39/39/39 48/48/48
f 44/44/44 49/49/49 43/43/43
f 49/49/49 39/39/39 43/43/43
f 50/50/50 44/44/44 40/40/40
f 45/45/45 50/50/50 40/40/40
f 51/51/51 45/45/45 46/46/46
f 46/46/46 52/52/52 51/51/51
f 51/51/51 53/53/53 45/45/45
f 45/45/45 53/53/53 50/50/50
f 51/51/51 54/54/54 53/53/53
f 55/55/55 53/53/53 54/54/54
f 53/53/53 56/56/56 50/50/50
f 55/55/55 56/56/56 53/53/53
f 44/44/44 50/50/50 56/56/56
f 55/55/55 57/57/57 56/56/56
f 56/56/56 58/58/58 44/44/44
f 58/58/58 56/56/56 57/57/57
f 44/44/44 58/58/58 49/49/49
f 57/57/57 59/59/59 58/58/58
f 58/58/58 60/60/60 49/49/49
f 58/58/58 59/59/59 60/60/60
f 59/59/59 61/61/61 60/60/60
f 39/39/39 49/49/49 60/60/60
f 62/62/62 60/60/60 61/61/61
f 60/60/60 63/63/63 39/39/39
f 62/62/62 63/63/63 60/60/60
f 63/63/63 48/48/48 39/39/39
f 62/62/62 48/48/48 63/63/63
f 62/62/62 64/64/64 48/48/48
f 64/64/64 19/19/19 48/48/48
f 65/65/65 48/48/48 19/19/19
f 17/17/17 65/65/65 19/19/19
f 31/31/31 48/48/48 65/65/65
f 31/31/31 65/65/65 17/17/17
