g facial_mouth_geo
v -0.05353429 1.13941 0.1147881
v -0.0575996 1.157492 0.1115604
v -0.0389324 1.162842 0.1199409
v -0.07039933 1.154429 0.1025692
v -0.06970954 1.138584 0.1030665
v -0.08129154 1.154468 0.0905585
v -0.08080282 1.138852 0.09016902
v -0.08856168 1.159272 0.07270242
v -0.08595102 1.14069 0.0668598
v -0.0772633 1.122923 0.08748029
v -0.08238956 1.125119 0.05697881
v -0.06645579 1.122476 0.101123
v -0.07214841 1.111103 0.0819787
v -0.07620291 1.1148 0.03552287
v -0.04970443 1.121592 0.1132641
v -0.0615566 1.112616 0.0981273
v -0.06181585 1.101371 0.05759159
v -0.06535411 1.105808 0.02805693
v -0.05321064 1.096501 0.04344904
v -0.04828037 1.11096 0.1071588
v -0.06124477 1.101972 0.08380429
v -0.04584358 1.091513 0.0726814
v -0.04140395 1.088633 0.05897812
v -0.0490151 1.102476 0.09928391
v -0.04944728 1.095736 0.08745992
v -0.03068156 1.083416 0.08433966
v -0.02590673 1.080198 0.0750552
v -0.03314507 1.088843 0.09645716
v -0.01102688 1.076459 0.09845379
v -0.005551341 1.075091 0.08895674
v -2.792064E-18 1.073805 0.0903262
v -0.03213758 1.096513 0.1053712
v -0.01237973 1.08258 0.1044804
v 1.223588E-17 1.074684 0.1016618
v 0.01102688 1.076459 0.09845379
v 0.005551341 1.075091 0.08895674
v 0.02590673 1.080198 0.0750552
v 0.03068156 1.083416 0.08433966
v 0.04140395 1.088633 0.05897812
v 0.04584358 1.091513 0.0726814
v 0.05321064 1.096501 0.04344904
v 0.06181585 1.101371 0.05759159
v 0.06535411 1.105808 0.02805693
v 0.07620291 1.1148 0.03552287
v 0.04944728 1.095736 0.08745992
v 0.03314507 1.088843 0.09645716
v 0.01237973 1.08258 0.1044804
v 2.111329E-17 1.080634 0.1071526
v 0.07214841 1.111103 0.0819787
v 0.08238956 1.125119 0.05697881
v 0.06124477 1.101972 0.08380429
v 0.0490151 1.102476 0.09928391
v 0.03213758 1.096513 0.1053712
v 0.0772633 1.122923 0.08748029
v 0.08595102 1.14069 0.0668598
v 0.0615566 1.112616 0.0981273
v 0.08080282 1.138852 0.09016902
v 0.08856168 1.159272 0.07270242
v 0.08129154 1.154468 0.0905585
v 0.04828037 1.11096 0.1071588
v 0.06645579 1.122476 0.101123
v 0.06970954 1.138584 0.1030665
v 0.07039933 1.154429 0.1025692
v 0.04970443 1.121592 0.1132641
v 0.05353429 1.13941 0.1147881
v 0.0575996 1.157492 0.1115604
v 0.0389324 1.162842 0.1199409
v 0.03038566 1.118274 0.1202857
v 0.03207408 1.130852 0.1235341
v 0.0150926 1.115629 0.1247002
v 0.03054848 1.107733 0.1136094
v 0.034727 1.141811 0.1266795
v 0.01910383 1.144929 0.1369266
v 0.0206226 1.164886 0.1298241
v 0.01405852 1.105378 0.1193202
v 0.01663853 1.128414 0.1288539
v -2.036485E-18 1.125799 0.1325991
v 7.458745E-18 1.149895 0.1497724
v 1.32846E-17 1.166821 0.1368413
v -0.0206226 1.164886 0.1298241
v -0.01910383 1.144929 0.1369266
v 0.01286167 1.091171 0.1099822
v 2.359769E-19 1.089376 0.1123995
v -1.601444E-17 1.104457 0.1226231
v -0.01286167 1.091171 0.1099822
v -0.01405852 1.105378 0.1193202
v -0.0150926 1.115629 0.1247002
v -4.997501E-18 1.112766 0.1276518
v -0.03054848 1.107733 0.1136094
v -0.03038566 1.118274 0.1202857
v -0.03207408 1.130852 0.1235341
v -0.01663853 1.128414 0.1288539
v -0.034727 1.141811 0.1266795
vt 0.2005615 0.3522949
vt 0.192627 0.3662109
vt 0.210083 0.3706055
vt 0.1767578 0.3632812
vt 0.1828613 0.3513184
vt 0.1617432 0.3642578
vt 0.1679688 0.3505859
vt 0.144165 0.3664551
vt 0.1472168 0.3464355
vt 0.1748047 0.3374023
vt 0.1505127 0.3317871
vt 0.1890869 0.3383789
vt 0.1798096 0.326416
vt 0.1540527 0.3161621
vt 0.206665 0.3376465
vt 0.194458 0.3295898
vt 0.1810303 0.3068848
vt 0.1575928 0.3034668
vt 0.1802979 0.2954102
vt 0.208252 0.3278809
vt 0.1922607 0.317627
vt 0.2023926 0.2995605
vt 0.2004395 0.2885742
vt 0.2069092 0.3193359
vt 0.2042236 0.3105469
vt 0.2205811 0.2915039
vt 0.2215576 0.2814941
vt 0.2211914 0.3017578
vt 0.2416992 0.2844238
vt 0.2451172 0.2722168
vt 0.25 0.2719727
vt 0.2229004 0.3120117
vt 0.2401123 0.2937012
vt 0.25 0.2797852
vt 0.2583008 0.2844238
vt 0.2548828 0.2722168
vt 0.2785645 0.2814941
vt 0.279541 0.2915039
vt 0.2995605 0.2885742
vt 0.2976074 0.2995605
vt 0.3195801 0.2954102
vt 0.3190918 0.3068848
vt 0.3425293 0.3034668
vt 0.3459473 0.3161621
vt 0.2956543 0.3105469
vt 0.2788086 0.3017578
vt 0.2597656 0.2937012
vt 0.25 0.2927246
vt 0.3200684 0.326416
vt 0.3493652 0.3317871
vt 0.3078613 0.317627
vt 0.2929688 0.3193359
vt 0.2770996 0.3120117
vt 0.3251953 0.3374023
vt 0.3527832 0.3464355
vt 0.3054199 0.3295898
vt 0.3320312 0.3505859
vt 0.355957 0.3664551
vt 0.3383789 0.3642578
vt 0.291748 0.3278809
vt 0.310791 0.3383789
vt 0.3171387 0.3513184
vt 0.3232422 0.3632812
vt 0.2932129 0.3376465
vt 0.2993164 0.3522949
vt 0.307373 0.3662109
vt 0.2897949 0.3706055
vt 0.2756348 0.333252
vt 0.277832 0.3442383
vt 0.262207 0.3291016
vt 0.2756348 0.322998
vt 0.2805176 0.3540039
vt 0.2658691 0.3574219
vt 0.2709961 0.3740234
vt 0.2614746 0.3188477
vt 0.2641602 0.3413086
vt 0.25 0.3378906
vt 0.25 0.3630371
vt 0.25 0.3769531
vt 0.2290039 0.3740234
vt 0.2340088 0.3574219
vt 0.260498 0.3037109
vt 0.25 0.3012695
vt 0.25 0.3161621
vt 0.2393799 0.3037109
vt 0.2385254 0.3188477
vt 0.2376709 0.3291016
vt 0.25 0.3242188
vt 0.2243652 0.322998
vt 0.2244873 0.333252
vt 0.222168 0.3442383
vt 0.2359619 0.3413086
vt 0.2193604 0.3540039
vn -0.5332775 -0.04058861 0.844966
vn -0.4919913 0.1430626 0.8587652
vn -0.47394 0.2387351 0.8475768
vn -0.6323956 0.01395775 0.7745198
vn -0.665512 -0.1233635 0.7361218
vn -0.8636726 -0.1060022 0.4927811
vn -0.9000657 -0.1903261 0.3919919
vn -0.9491792 -0.168262 0.2659829
vn -0.9586421 -0.2381582 0.1558399
vn -0.8673646 -0.355204 0.348581
vn -0.9138908 -0.3991815 0.07387684
vn -0.6500566 -0.336958 0.6810917
vn -0.7450745 -0.6254438 0.231698
vn -0.727483 -0.6852896 -0.03386205
vn -0.4890473 -0.3326491 0.8063359
vn -0.6041355 -0.5637532 0.5632074
vn -0.607591 -0.7942421 -0.003564274
vn -0.5462162 -0.8250738 -0.1445717
vn -0.4629211 -0.8792235 -0.1125609
vn -0.4422264 -0.5141898 0.7348773
vn -0.5884611 -0.776209 0.2263029
vn -0.5203899 -0.8517514 0.06094266
vn -0.3698196 -0.9232547 -0.1040882
vn -0.5022966 -0.6381186 0.5835261
vn -0.5299674 -0.814935 0.2345542
vn -0.460367 -0.8735683 0.157926
vn -0.296906 -0.9482653 -0.1124262
vn -0.4873948 -0.7518586 0.4440213
vn -0.373917 -0.8818677 0.2872199
vn -0.2157447 -0.9725514 -0.08716557
vn -0 -0.9921089 -0.1253792
vn -0.4094446 -0.5937713 0.6926693
vn -0.3902091 -0.6808171 0.6198589
vn -0 -0.889262 0.4573984
vn 0.373917 -0.8818676 0.2872206
vn 0.2157447 -0.9725514 -0.08716591
vn 0.2969061 -0.9482651 -0.1124282
vn 0.4603671 -0.8735684 0.1579252
vn 0.3698195 -0.9232545 -0.1040887
vn 0.52039 -0.8517514 0.06094239
vn 0.4629211 -0.8792235 -0.1125613
vn 0.6075911 -0.794242 -0.00356463
vn 0.5462162 -0.8250738 -0.1445719
vn 0.727483 -0.6852895 -0.03386305
vn 0.5299674 -0.8149348 0.2345546
vn 0.487395 -0.7518587 0.4440211
vn 0.3902091 -0.6808169 0.6198589
vn 1.112801E-07 -0.6113883 0.7913307
vn 0.7450747 -0.6254439 0.2316975
vn 0.9138908 -0.3991815 0.07387669
vn 0.5884612 -0.7762089 0.2263032
vn 0.5022965 -0.6381186 0.5835264
vn 0.4094445 -0.5937714 0.6926693
vn 0.8673646 -0.3552041 0.3485809
vn 0.9586421 -0.2381582 0.1558399
vn 0.6041355 -0.5637534 0.5632072
vn 0.9000656 -0.190326 0.391992
vn 0.9491792 -0.168262 0.2659828
vn 0.8636726 -0.1060023 0.4927812
vn 0.4422266 -0.51419 0.734877
vn 0.6500562 -0.336958 0.6810921
vn 0.6655114 -0.1233633 0.7361223
vn 0.6323952 0.01395776 0.7745202
vn 0.4890467 -0.3326492 0.8063361
vn 0.5332769 -0.04058829 0.8449665
vn 0.4919908 0.1430624 0.8587655
vn 0.4739396 0.2387349 0.847577
vn 0.352571 -0.4050762 0.843568
vn 0.3946098 -0.331108 0.8571176
vn 0.2922025 -0.3961384 0.8704551
vn 0.3622204 -0.5170698 0.7755225
vn 0.4989271 -0.01348426 0.866539
vn 0.4685265 -0.06103987 0.8813382
vn 0.455884 0.3235621 0.8291425
vn 0.290181 -0.5177785 0.8047984
vn 0.3355289 -0.4229684 0.8417351
vn -1.503886E-07 -0.4787419 0.8779556
vn -0 0.02111074 0.9997771
vn -0 0.4161599 0.9092914
vn -0.4558842 0.3235622 0.8291423
vn -0.4685265 -0.06103996 0.8813382
vn 0.3102432 -0.5564356 0.7707974
vn -0 -0.5513769 0.8342562
vn 1.32372E-07 -0.5363816 0.8439755
vn -0.3102432 -0.5564354 0.7707976
vn -0.2901807 -0.5177782 0.8047987
vn -0.2922023 -0.3961379 0.8704554
vn 2.048272E-07 -0.4157693 0.9094701
vn -0.3622201 -0.5170695 0.7755229
vn -0.3525704 -0.4050754 0.8435687
vn -0.3946093 -0.3311074 0.8571181
vn -0.3355291 -0.4229685 0.8417351
vn -0.4989266 -0.01348403 0.8665393
g facial_mouth_geo_0
f 3/3/3 2/2/2 1/1/1
f 2/2/2 4/4/4 1/1/1
f 4/4/4 5/5/5 1/1/1
f 4/4/4 6/6/6 5/5/5
f 6/6/6 7/7/7 5/5/5
f 7/7/7 6/6/6 8/8/8
f 9/9/9 7/7/7 8/8/8
f 10/10/10 7/7/7 9/9/9
f 11/11/11 10/10/10 9/9/9
f 5/5/5 7/7/7 12/12/12
f 7/7/7 10/10/10 12/12/12
f 10/10/10 11/11/11 13/13/13
f 11/11/11 14/14/14 13/13/13
f 1/1/1 5/5/5 15/15/15
f 5/5/5 12/12/12 15/15/15
f 16/16/16 12/12/12 10/10/10
f 13/13/13 16/16/16 10/10/10
f 17/17/17 13/13/13 14/14/14
f 14/14/14 18/18/18 17/17/17
f 18/18/18 19/19/19 17/17/17
f 20/20/20 15/15/15 12/12/12
f 16/16/16 20/20/20 12/12/12
f 13/13/13 21/21/21 16/16/16
f 21/21/21 13/13/13 17/17/17
f 17/17/17 19/19/19 22/22/22
f 19/19/19 23/23/23 22/22/22
f 21/21/21 24/24/24 16/16/16
f 16/16/16 24/24/24 20/20/20
f 25/25/25 21/21/21 17/17/17
f 22/22/22 25/25/25 17/17/17
f 25/25/25 24/24/24 21/21/21
f 22/22/22 23/23/23 26/26/26
f 22/22/22 26/26/26 25/25/25
f 23/23/23 27/27/27 26/26/26
f 24/24/24 25/25/25 28/28/28
f 26/26/26 28/28/28 25/25/25
f 29/29/29 26/26/26 27/27/27
f 28/28/28 26/26/26 29/29/29
f 30/30/30 29/29/29 27/27/27
f 29/29/29 30/30/30 31/31/31
f 32/32/32 24/24/24 28/28/28
f 20/20/20 24/24/24 32/32/32
f 33/33/33 28/28/28 29/29/29
f 28/28/28 33/33/33 32/32/32
f 34/34/34 29/29/29 31/31/31
f 33/33/33 29/29/29 34/34/34
f 35/35/35 34/34/34 31/31/31
f 36/36/36 35/35/35 31/31/31
f 35/35/35 36/36/36 37/37/37
f 38/38/38 35/35/35 37/37/37
f 37/37/37 39/39/39 38/38/38
f 39/39/39 40/40/40 38/38/38
f 39/39/39 41/41/41 40/40/40
f 41/41/41 42/42/42 40/40/40
f 41/41/41 43/43/43 42/42/42
f 43/43/43 44/44/44 42/42/42
f 38/38/38 40/40/40 45/45/45
f 45/45/45 40/40/40 42/42/42
f 38/38/38 46/46/46 35/35/35
f 46/46/46 38/38/38 45/45/45
f 35/35/35 47/47/47 34/34/34
f 46/46/46 47/47/47 35/35/35
f 48/48/48 33/33/33 34/34/34
f 47/47/47 48/48/48 34/34/34
f 49/49/49 42/42/42 44/44/44
f 44/44/44 50/50/50 49/49/49
f 51/51/51 45/45/45 42/42/42
f 49/49/49 51/51/51 42/42/42
f 45/45/45 52/52/52 46/46/46
f 52/52/52 45/45/45 51/51/51
f 47/47/47 46/46/46 53/53/53
f 52/52/52 53/53/53 46/46/46
f 50/50/50 54/54/54 49/49/49
f 54/54/54 50/50/50 55/55/55
f 51/51/51 49/49/49 56/56/56
f 52/52/52 51/51/51 56/56/56
f 56/56/56 49/49/49 54/54/54
f 57/57/57 54/54/54 55/55/55
f 57/57/57 55/55/55 58/58/58
f 59/59/59 57/57/57 58/58/58
f 52/52/52 56/56/56 60/60/60
f 52/52/52 60/60/60 53/53/53
f 61/61/61 56/56/56 54/54/54
f 54/54/54 57/57/57 61/61/61
f 60/60/60 56/56/56 61/61/61
f 57/57/57 59/59/59 62/62/62
f 57/57/57 62/62/62 61/61/61
f 59/59/59 63/63/63 62/62/62
f 61/61/61 62/62/62 64/64/64
f 64/64/64 60/60/60 61/61/61
f 62/62/62 63/63/63 65/65/65
f 62/62/62 65/65/65 64/64/64
f 63/63/63 66/66/66 65/65/65
f 66/66/66 67/67/67 65/65/65
f 64/64/64 68/68/68 60/60/60
f 64/64/64 65/65/65 69/69/69
f 64/64/64 69/69/69 68/68/68
f 68/68/68 69/69/69 70/70/70
f 68/68/68 71/71/71 60/60/60
f 71/71/71 68/68/68 70/70/70
f 60/60/60 71/71/71 53/53/53
f 67/67/67 72/72/72 65/65/65
f 65/65/65 72/72/72 69/69/69
f 72/72/72 67/67/67 73/73/73
f 69/69/69 72/72/72 73/73/73
f 67/67/67 74/74/74 73/73/73
f 71/71/71 75/75/75 53/53/53
f 75/75/75 71/71/71 70/70/70
f 76/76/76 69/69/69 73/73/73
f 69/69/69 76/76/76 70/70/70
f 77/77/77 76/76/76 73/73/73
f 70/70/70 76/76/76 77/77/77
f 78/78/78 73/73/73 74/74/74
f 78/78/78 77/77/77 73/73/73
f 79/79/79 78/78/78 74/74/74
f 78/78/78 79/79/79 80/80/80
f 81/81/81 78/78/78 80/80/80
f 77/77/77 78/78/78 81/81/81
f 80/80/80 3/3/3 81/81/81
f 75/75/75 82/82/82 53/53/53
f 82/82/82 47/47/47 53/53/53
f 48/48/48 47/47/47 82/82/82
f 82/82/82 75/75/75 83/83/83
f 83/83/83 48/48/48 82/82/82
f 75/75/75 70/70/70 84/84/84
f 75/75/75 84/84/84 83/83/83
f 48/48/48 83/83/83 85/85/85
f 33/33/33 48/48/48 85/85/85
f 33/33/33 85/85/85 32/32/32
f 86/86/86 85/85/85 83/83/83
f 85/85/85 86/86/86 32/32/32
f 84/84/84 86/86/86 83/83/83
f 87/87/87 86/86/86 84/84/84
f 70/70/70 88/88/88 84/84/84
f 88/88/88 87/87/87 84/84/84
f 88/88/88 70/70/70 77/77/77
f 87/87/87 88/88/88 77/77/77
f 86/86/86 89/89/89 32/32/32
f 89/89/89 86/86/86 87/87/87
f 89/89/89 20/20/20 32/32/32
f 89/89/89 90/90/90 20/20/20
f 90/90/90 89/89/89 87/87/87
f 90/90/90 15/15/15 20/20/20
f 91/91/91 15/15/15 90/90/90
f 91/91/91 90/90/90 87/87/87
f 1/1/1 15/15/15 91/91/91
f 92/92/92 87/87/87 77/77/77
f 92/92/92 91/91/91 87/87/87
f 92/92/92 77/77/77 81/81/81
f 91/91/91 92/92/92 81/81/81
f 93/93/93 1/1/1 91/91/91
f 93/93/93 91/91/91 81/81/81
f 93/93/93 3/3/3 1/1/1
f 3/3/3 93/93/93 81/81/81
