g bf_geo
v 1.792847E-18 1.111016 -0.1245281
v 0.06930937 1.035843 -0.1137211
v 3.845259E-18 1.035843 -0.1127474
v 0.06993355 1.11049 -0.1239489
v 1.437148E-18 1.167904 -0.1265081
v 0.1238924 1.040251 -0.1100047
v 0.0697208 1.166799 -0.1246867
v 6.522952E-18 1.223618 -0.1199618
v 0.1283955 1.11171 -0.1178916
v 0.06950806 1.221934 -0.1168982
v -1.8057E-18 1.261324 -0.1040915
v 0.1703076 1.116217 -0.1099579
v 0.1681229 1.063013 -0.1024608
v 0.1300791 1.165479 -0.1173593
v 0.1712525 1.165693 -0.1090708
v 0.1299726 1.218366 -0.1085592
v 0.1729238 1.214669 -0.09989686
v 0.1688832 1.241857 -0.07126916
v 0.0484833 1.263289 -0.09642313
v -1.363622E-17 1.281355 -0.09095791
v 0.03807051 1.283771 -0.08138916
v 0.08901931 1.266153 -0.08161609
v 0.06302929 1.285317 -0.05790107
v 0.1020571 1.273462 -0.03051425
v 0.0702735 1.280596 -0.02941412
v 0.07022534 1.271725 0.01219584
v 0.128839 1.256238 -0.07501463
v 0.1664501 1.255337 -0.03281245
v 0.1343381 1.265915 -0.03162088
v 0.1299369 1.258233 0.01408535
v 0.158985 1.24702 0.01397573
v 0.1384004 1.217287 0.04495468
v 0.09967944 1.265236 0.01320092
v 0.06138116 1.247171 0.04339657
v 0.09006257 1.222143 0.05617382
v 0.108557 1.187356 0.07606704
v 0.05307018 1.22398 0.06621152
v 0.0804308 1.187094 0.0826366
v 0.03950944 1.185387 0.08700478
v 0.06898917 1.142661 0.1046867
v 0.0259805 1.159333 0.101342
v 0.02483488 1.121141 0.1185727
v -6.983617E-19 1.14274 0.1123998
v -8.626136E-19 1.111816 0.1254442
v 1.792847E-18 1.111016 -0.1245281
v 3.845259E-18 1.035843 -0.1127474
v -0.06930937 1.035843 -0.1137211
v -0.06993355 1.11049 -0.1239489
v 1.437148E-18 1.167904 -0.1265081
v -0.1238924 1.040251 -0.1100047
v -0.0697208 1.166799 -0.1246867
v 6.522952E-18 1.223618 -0.1199618
v -0.1283955 1.11171 -0.1178916
v -0.06950806 1.221934 -0.1168982
v -1.8057E-18 1.261324 -0.1040915
v -0.1703076 1.116217 -0.1099579
v -0.1681229 1.063013 -0.1024608
v -0.1300791 1.165479 -0.1173593
v -0.1712525 1.165693 -0.1090708
v -0.1299726 1.218366 -0.1085592
v -0.1729238 1.214669 -0.09989686
v -0.1688832 1.241857 -0.07126916
v -0.0484833 1.263289 -0.09642313
v -1.363622E-17 1.281355 -0.09095791
v -0.03807051 1.283771 -0.08138916
v -0.08901931 1.266153 -0.08161609
v -0.06302929 1.285317 -0.05790107
v -0.1020571 1.273462 -0.03051425
v -0.0702735 1.280596 -0.02941412
v -0.07022534 1.271725 0.01219584
v -0.128839 1.256238 -0.07501463
v -0.1664501 1.255337 -0.03281245
v -0.1343381 1.265915 -0.03162088
v -0.1299369 1.258233 0.01408535
v -0.158985 1.24702 0.01397573
v -0.1384004 1.217287 0.04495468
v -0.09967944 1.265236 0.01320092
v -0.06138116 1.247171 0.04339657
v -0.09006257 1.222143 0.05617382
v -0.108557 1.187356 0.07606704
v -0.05307018 1.22398 0.06621152
v -0.0804308 1.187094 0.0826366
v -0.03950944 1.185387 0.08700478
v -0.06898917 1.142661 0.1046867
v -0.0259805 1.159333 0.101342
v -0.02483488 1.121141 0.1185727
v -6.983617E-19 1.14274 0.1123998
v -8.626136E-19 1.111816 0.1254442
v 0.09650873 1.447045 0.1190622
v 0.110204 1.447059 0.02290048
v 0.110556 1.455761 0.02282848
v 0.09650873 1.455462 0.1189972
v 0.09419551 1.446885 0.1417639
v 0.09419551 1.455622 0.1416789
v 0.07556076 1.448675 0.1458991
v 0.08577886 1.4054 0.1397016
v 0.07556076 1.458236 0.1458825
v 0.07287674 1.399018 0.1414968
v 0.03174746 1.458236 0.1522638
v 0.03044246 1.399284 0.1471385
v 0.03174746 1.448149 0.1522038
v 0.02169752 1.446877 0.1533866
v 0.01755245 1.405084 0.1485626
v 0.02169752 1.455613 0.1534946
v 0.01280254 1.44065 0.153013
v 0.01280254 1.449387 0.153148
v -3.121656E-18 1.44065 0.157504
v -3.110289E-18 1.449387 0.157504
v 0.110556 1.455761 0.02282848
v 0.110204 1.447059 0.02290048
v 0.1101622 1.420546 0.006847718
v 0.110369 1.424577 0.002677487
v -0.09650873 1.447045 0.1190622
v -0.110556 1.455761 0.02282848
v -0.110204 1.447059 0.02290048
v -0.09650873 1.455462 0.1189972
v -0.09419551 1.446885 0.1417639
v -0.09419551 1.455622 0.1416789
v -0.07556076 1.448675 0.1458991
v -0.08577886 1.4054 0.1397016
v -0.07556076 1.458236 0.1458825
v -0.07287674 1.399018 0.1414968
v -0.03174746 1.458236 0.1522638
v -0.03044246 1.399284 0.1471385
v -0.03174746 1.448149 0.1522038
v -0.02169752 1.446877 0.1533866
v -0.01755245 1.405084 0.1485626
v -0.02169752 1.455613 0.1534946
v -0.01280254 1.44065 0.153013
v -0.01280254 1.449387 0.153148
v -3.121656E-18 1.44065 0.157504
v -3.110289E-18 1.449387 0.157504
v -0.110556 1.455761 0.02282848
v -0.110369 1.424577 0.002677487
v -0.1101622 1.420546 0.006847718
v -0.110204 1.447059 0.02290048
vt 0.2666016 0.6640625
vt 0.3149414 0.7124023
vt 0.2661133 0.7133789
vt 0.3144531 0.6625977
vt 0.2668457 0.6274414
vt 0.3530273 0.7075195
vt 0.3137207 0.6264648
vt 0.2670898 0.5922852
vt 0.354248 0.6591797
vt 0.3127441 0.590332
vt 0.2670898 0.5668945
vt 0.385498 0.6533203
vt 0.3845215 0.6899414
vt 0.3562012 0.6230469
vt 0.3869629 0.6186523
vt 0.3571777 0.5864258
vt 0.388916 0.5830078
vt 0.3913574 0.5546875
vt 0.2980957 0.5620117
vt 0.2670898 0.5522461
vt 0.2902832 0.5473633
vt 0.3244629 0.5522461
vt 0.3066406 0.5327148
vt 0.3361816 0.5195312
vt 0.3149414 0.515625
vt 0.3200684 0.4899902
vt 0.3603516 0.5522461
vt 0.394043 0.5263672
vt 0.3601074 0.5219727
vt 0.3598633 0.489502
vt 0.387207 0.4902344
vt 0.3713379 0.4555664
vt 0.3381348 0.4897461
vt 0.3149414 0.465332
vt 0.3337402 0.4484863
vt 0.3466797 0.4221191
vt 0.3078613 0.4450684
vt 0.3244629 0.4191895
vt 0.296875 0.4274902
vt 0.314209 0.3986816
vt 0.2858887 0.4123535
vt 0.2822266 0.3830566
vt 0.265625 0.3979492
vt 0.2653809 0.3757324
vt 0.2666016 0.6640625
vt 0.2661133 0.7133789
vt 0.3149414 0.7124023
vt 0.3144531 0.6625977
vt 0.2668457 0.6274414
vt 0.3530273 0.7075195
vt 0.3137207 0.6264648
vt 0.2670898 0.5922852
vt 0.354248 0.6591797
vt 0.3127441 0.590332
vt 0.2670898 0.5668945
vt 0.385498 0.6533203
vt 0.3845215 0.6899414
vt 0.3562012 0.6230469
vt 0.3869629 0.6186523
vt 0.3571777 0.5864258
vt 0.388916 0.5830078
vt 0.3913574 0.5546875
vt 0.2980957 0.5620117
vt 0.2670898 0.5522461
vt 0.2902832 0.5473633
vt 0.3244629 0.5522461
vt 0.3066406 0.5327148
vt 0.3361816 0.5195312
vt 0.3149414 0.515625
vt 0.3200684 0.4899902
vt 0.3603516 0.5522461
vt 0.394043 0.5263672
vt 0.3601074 0.5219727
vt 0.3598633 0.489502
vt 0.387207 0.4902344
vt 0.3713379 0.4555664
vt 0.3381348 0.4897461
vt 0.3149414 0.465332
vt 0.3337402 0.4484863
vt 0.3466797 0.4221191
vt 0.3078613 0.4450684
vt 0.3244629 0.4191895
vt 0.296875 0.4274902
vt 0.314209 0.3986816
vt 0.2858887 0.4123535
vt 0.2822266 0.3830566
vt 0.265625 0.3979492
vt 0.2653809 0.3757324
vt 0.4985352 0.9746094
vt 0.5942383 0.9741211
vt 0.597168 0.9833984
vt 0.4985352 0.9833984
vt 0.4753418 0.9746094
vt 0.4753418 0.9833984
vt 0.4558105 0.9765625
vt 0.4667969 0.9321289
vt 0.4560547 0.9863281
vt 0.4533691 0.9257812
vt 0.4108887 0.9868164
vt 0.4099121 0.9262695
vt 0.4108887 0.9765625
vt 0.4006348 0.9750977
vt 0.3967285 0.9321289
vt 0.4006348 0.9838867
vt 0.3916016 0.96875
vt 0.3916016 0.9775391
vt 0.3779297 0.96875
vt 0.3779297 0.9775391
vt 0.597168 0.9833984
vt 0.5942383 0.9741211
vt 0.6132812 0.9472656
vt 0.6176758 0.9511719
vt 0.4985352 0.9746094
vt 0.597168 0.9833984
vt 0.5942383 0.9741211
vt 0.4985352 0.9833984
vt 0.4753418 0.9746094
vt 0.4753418 0.9833984
vt 0.4558105 0.9765625
vt 0.4667969 0.9321289
vt 0.4560547 0.9863281
vt 0.4533691 0.9257812
vt 0.4108887 0.9868164
vt 0.4099121 0.9262695
vt 0.4108887 0.9765625
vt 0.4006348 0.9750977
vt 0.3967285 0.9321289
vt 0.4006348 0.9838867
vt 0.3916016 0.96875
vt 0.3916016 0.9775391
vt 0.3779297 0.96875
vt 0.3779297 0.9775391
vt 0.597168 0.9833984
vt 0.6176758 0.9511719
vt 0.6132812 0.9472656
vt 0.5942383 0.9741211
vn -0 0.09317631 0.9956496
vn -0.03732176 0.1370868 0.9898556
vn -0 0.145326 0.9893838
vn -0.04811156 0.08429106 0.995279
vn -0 -0.05243222 0.9986244
vn -0.1276344 0.1274239 0.9836019
vn -0.07088768 -0.06206246 0.9955516
vn -0 -0.2554089 0.9668332
vn -0.1436021 0.07189327 0.9870207
vn -0.1122426 -0.2949812 0.9488876
vn -0 -0.4796198 0.8774765
vn -0.2041636 0.06367119 0.9768639
vn -0.215334 0.1309734 0.9677175
vn -0.1526708 -0.07964567 0.9850625
vn -0.1971087 -0.09144342 0.9761077
vn -0.1935026 -0.3890494 0.9006649
vn -0.2343307 -0.4206199 0.8764519
vn -0.2886895 -0.7945775 0.5341395
vn -0.1575395 -0.558216 0.8146019
vn -0 -0.5932169 0.8050427
vn -0.2056549 -0.7029858 0.6808209
vn -0.2577548 -0.7703179 0.5832434
vn -0.3337117 -0.8875688 0.3175818
vn -0.2626867 -0.9648588 0.006571039
vn -0.3010287 -0.9533018 -0.02443987
vn -0.1972791 -0.9189633 -0.3414492
vn -0.2547388 -0.7965484 0.5482872
vn -0.3366524 -0.939328 0.0657862
vn -0.2901078 -0.9562287 0.03826454
vn -0.2613758 -0.8665273 -0.4252212
vn -0.3196558 -0.8705016 -0.3742289
vn -0.2301744 -0.5983081 -0.7674941
vn -0.2082028 -0.8911617 -0.403091
vn -0.23177 -0.667055 -0.7080398
vn -0.2070711 -0.580803 -0.787267
vn -0.2174316 -0.5476913 -0.8079342
vn -0.1717874 -0.523908 -0.8342718
vn -0.1720025 -0.4888317 -0.8552535
vn -0.1274078 -0.479995 -0.8679701
vn -0.1039586 -0.4154979 -0.9036338
vn -0.09621468 -0.4141091 -0.9051278
vn -0.1085329 -0.4002912 -0.9099383
vn -0 -0.3995643 -0.9167051
vn -0 -0.3995644 -0.9167051
vn -0 0.09317631 0.9956496
vn -0 0.145326 0.9893838
vn 0.03732178 0.1370868 0.9898556
vn 0.04811155 0.08429108 0.995279
vn -0 -0.05243222 0.9986244
vn 0.1276343 0.1274239 0.9836019
vn 0.07088768 -0.06206248 0.9955516
vn -0 -0.2554089 0.9668332
vn 0.1436021 0.07189327 0.9870207
vn 0.1122426 -0.2949812 0.9488876
vn -0 -0.4796198 0.8774765
vn 0.2041636 0.06367117 0.9768639
vn 0.215334 0.1309734 0.9677176
vn 0.1526709 -0.07964572 0.9850625
vn 0.1971088 -0.09144344 0.9761077
vn 0.1935027 -0.3890496 0.9006649
vn 0.234331 -0.4206205 0.8764516
vn 0.2886896 -0.7945778 0.5341389
vn 0.1575396 -0.5582163 0.8146017
vn -0 -0.5932169 0.8050427
vn 0.2056552 -0.7029865 0.6808201
vn 0.2577547 -0.7703179 0.5832433
vn 0.3337117 -0.8875692 0.3175805
vn 0.2626867 -0.9648588 0.006570609
vn 0.3010287 -0.9533018 -0.02444085
vn 0.1972791 -0.918963 -0.3414498
vn 0.2547388 -0.7965484 0.5482871
vn 0.3366524 -0.9393281 0.06578644
vn 0.2901078 -0.9562287 0.03826462
vn 0.2613758 -0.8665272 -0.4252214
vn 0.3196557 -0.8705015 -0.3742292
vn 0.2301744 -0.5983083 -0.7674938
vn 0.2082028 -0.8911616 -0.4030913
vn 0.2317701 -0.6670554 -0.7080394
vn 0.2070712 -0.5808033 -0.7872668
vn 0.2174316 -0.5476913 -0.8079342
vn 0.1717876 -0.5239084 -0.8342716
vn 0.1720025 -0.4888317 -0.8552535
vn 0.127408 -0.4799953 -0.8679699
vn 0.1039586 -0.4154982 -0.9036337
vn 0.09621476 -0.4141093 -0.9051278
vn 0.108533 -0.4002914 -0.9099382
vn -0 -0.3995643 -0.9167051
vn -0 -0.3995644 -0.9167051
vn -0.9907573 0.01533813 -0.1347773
vn -0.9895783 0.01920577 -0.1427092
vn -0.9895783 0.01920577 -0.1427092
vn -0.9907375 0.01540486 -0.1349142
vn -0.393657 0.06774688 -0.9167576
vn -0.7557713 -0.003836689 -0.6548243
vn -0.1546178 0.08052228 -0.9846875
vn -0.1970978 0.0932278 -0.9759411
vn -0.1637051 0.0001471481 -0.9865093
vn -0.1479181 0.09898255 -0.9840338
vn -0.1398187 0.003225659 -0.9901718
vn -0.1295599 0.1022966 -0.9862808
vn -0.1302173 0.08616181 -0.9877346
vn -0.07342121 0.09179762 -0.9930673
vn -0.08821884 0.1135548 -0.9896074
vn -0.07551041 0.01040018 -0.9970908
vn -0.119619 0.07336736 -0.9901053
vn -0.1589808 0.01061916 -0.9872246
vn -0.3265646 0.007302092 -0.9451467
vn -0.3265646 0.007302092 -0.9451467
vn -0.998688 0.02999984 -0.04149906
vn -0.998688 0.02999984 -0.04149906
vn -0.998688 0.02999984 -0.04149906
vn -0.998688 0.02999984 -0.04149906
vn 0.9907573 0.01533832 -0.1347773
vn 0.9895783 0.01920608 -0.1427092
vn 0.9895783 0.01920608 -0.1427092
vn 0.9907375 0.01540505 -0.1349142
vn 0.3936565 0.06774686 -0.9167578
vn 0.7557714 -0.00383689 -0.6548243
vn 0.1546177 0.08052237 -0.9846875
vn 0.197097 0.09322779 -0.9759412
vn 0.1637051 0.0001471545 -0.9865093
vn 0.1479181 0.09898267 -0.9840338
vn 0.1398184 0.003225659 -0.990172
vn 0.12956 0.1022967 -0.9862807
vn 0.1302173 0.08616189 -0.9877346
vn 0.07342091 0.09179755 -0.9930673
vn 0.08821878 0.1135547 -0.9896074
vn 0.07550925 0.01040017 -0.9970908
vn 0.1196188 0.07336721 -0.9901053
vn 0.1589802 0.01061916 -0.9872247
vn 0.3265646 0.007302092 -0.9451467
vn 0.3265646 0.007302092 -0.9451467
vn 0.998688 0.02999976 -0.04149892
vn 0.998688 0.02999976 -0.04149893
vn 0.998688 0.02999976 -0.04149892
vn 0.998688 0.02999976 -0.04149892
g bf_geo_0
f 3/3/3 2/2/2 1/1/1
f 2/2/2 4/4/4 1/1/1
f 1/1/1 4/4/4 5/5/5
f 2/2/2 6/6/6 4/4/4
f 4/4/4 7/7/7 5/5/5
f 5/5/5 7/7/7 8/8/8
f 6/6/6 9/9/9 4/4/4
f 4/4/4 9/9/9 7/7/7
f 7/7/7 10/10/10 8/8/8
f 8/8/8 10/10/10 11/11/11
f 12/12/12 9/9/9 6/6/6
f 13/13/13 12/12/12 6/6/6
f 9/9/9 14/14/14 7/7/7
f 14/14/14 9/9/9 12/12/12
f 7/7/7 14/14/14 10/10/10
f 15/15/15 14/14/14 12/12/12
f 16/16/16 14/14/14 15/15/15
f 14/14/14 16/16/16 10/10/10
f 17/17/17 16/16/16 15/15/15
f 17/17/17 18/18/18 16/16/16
f 10/10/10 19/19/19 11/11/11
f 11/11/11 19/19/19 20/20/20
f 19/19/19 21/21/21 20/20/20
f 19/19/19 10/10/10 22/22/22
f 19/19/19 22/22/22 21/21/21
f 10/10/10 16/16/16 22/22/22
f 22/22/22 23/23/23 21/21/21
f 23/23/23 22/22/22 24/24/24
f 25/25/25 23/23/23 24/24/24
f 25/25/25 24/24/24 26/26/26
f 18/18/18 27/27/27 16/16/16
f 16/16/16 27/27/27 22/22/22
f 24/24/24 22/22/22 27/27/27
f 18/18/18 28/28/28 27/27/27
f 28/28/28 29/29/29 27/27/27
f 29/29/29 24/24/24 27/27/27
f 30/30/30 29/29/29 28/28/28
f 29/29/29 30/30/30 24/24/24
f 31/31/31 30/30/30 28/28/28
f 30/30/30 31/31/31 32/32/32
f 24/24/24 33/33/33 26/26/26
f 30/30/30 33/33/33 24/24/24
f 34/34/34 26/26/26 33/33/33
f 32/32/32 35/35/35 30/30/30
f 35/35/35 33/33/33 30/30/30
f 35/35/35 34/34/34 33/33/33
f 35/35/35 32/32/32 36/36/36
f 34/34/34 35/35/35 37/37/37
f 38/38/38 35/35/35 36/36/36
f 35/35/35 38/38/38 37/37/37
f 38/38/38 39/39/39 37/37/37
f 36/36/36 40/40/40 38/38/38
f 41/41/41 39/39/39 38/38/38
f 40/40/40 41/41/41 38/38/38
f 42/42/42 41/41/41 40/40/40
f 43/43/43 41/41/41 42/42/42
f 44/44/44 43/43/43 42/42/42
f 47/47/47 46/46/46 45/45/45
f 48/48/48 47/47/47 45/45/45
f 48/48/48 45/45/45 49/49/49
f 50/50/50 47/47/47 48/48/48
f 51/51/51 48/48/48 49/49/49
f 51/51/51 49/49/49 52/52/52
f 53/53/53 50/50/50 48/48/48
f 53/53/53 48/48/48 51/51/51
f 54/54/54 51/51/51 52/52/52
f 54/54/54 52/52/52 55/55/55
f 53/53/53 56/56/56 50/50/50
f 56/56/56 57/57/57 50/50/50
f 58/58/58 53/53/53 51/51/51
f 53/53/53 58/58/58 56/56/56
f 58/58/58 51/51/51 54/54/54
f 58/58/58 59/59/59 56/56/56
f 58/58/58 60/60/60 59/59/59
f 60/60/60 58/58/58 54/54/54
f 60/60/60 61/61/61 59/59/59
f 62/62/62 61/61/61 60/60/60
f 63/63/63 54/54/54 55/55/55
f 63/63/63 55/55/55 64/64/64
f 65/65/65 63/63/63 64/64/64
f 54/54/54 63/63/63 66/66/66
f 66/66/66 63/63/63 65/65/65
f 60/60/60 54/54/54 66/66/66
f 67/67/67 66/66/66 65/65/65
f 66/66/66 67/67/67 68/68/68
f 67/67/67 69/69/69 68/68/68
f 68/68/68 69/69/69 70/70/70
f 71/71/71 62/62/62 60/60/60
f 71/71/71 60/60/60 66/66/66
f 66/66/66 68/68/68 71/71/71
f 72/72/72 62/62/62 71/71/71
f 73/73/73 72/72/72 71/71/71
f 68/68/68 73/73/73 71/71/71
f 73/73/73 74/74/74 72/72/72
f 74/74/74 73/73/73 68/68/68
f 74/74/74 75/75/75 72/72/72
f 75/75/75 74/74/74 76/76/76
f 77/77/77 68/68/68 70/70/70
f 77/77/77 74/74/74 68/68/68
f 70/70/70 78/78/78 77/77/77
f 79/79/79 76/76/76 74/74/74
f 77/77/77 79/79/79 74/74/74
f 78/78/78 79/79/79 77/77/77
f 76/76/76 79/79/79 80/80/80
f 79/79/79 78/78/78 81/81/81
f 79/79/79 82/82/82 80/80/80
f 82/82/82 79/79/79 81/81/81
f 83/83/83 82/82/82 81/81/81
f 84/84/84 80/80/80 82/82/82
f 85/85/85 82/82/82 83/83/83
f 85/85/85 84/84/84 82/82/82
f 85/85/85 86/86/86 84/84/84
f 85/85/85 87/87/87 86/86/86
f 87/87/87 88/88/88 86/86/86
f 91/91/91 90/90/90 89/89/89
f 92/92/92 91/91/91 89/89/89
f 89/89/89 93/93/93 92/92/92
f 93/93/93 94/94/94 92/92/92
f 94/94/94 93/93/93 95/95/95
f 93/93/93 96/96/96 95/95/95
f 97/97/97 94/94/94 95/95/95
f 96/96/96 98/98/98 95/95/95
f 97/97/97 95/95/95 99/99/99
f 98/98/98 100/100/100 95/95/95
f 95/95/95 101/101/101 99/99/99
f 100/100/100 101/101/101 95/95/95
f 99/99/99 101/101/101 102/102/102
f 102/102/102 101/101/101 100/100/100
f 103/103/103 102/102/102 100/100/100
f 104/104/104 99/99/99 102/102/102
f 105/105/105 102/102/102 103/103/103
f 102/102/102 105/105/105 104/104/104
f 105/105/105 106/106/106 104/104/104
f 106/106/106 105/105/105 107/107/107
f 108/108/108 106/106/106 107/107/107
f 111/111/111 110/110/110 109/109/109
f 112/112/112 111/111/111 109/109/109
f 115/115/115 114/114/114 113/113/113
f 114/114/114 116/116/116 113/113/113
f 117/117/117 113/113/113 116/116/116
f 118/118/118 117/117/117 116/116/116
f 117/117/117 118/118/118 119/119/119
f 120/120/120 117/117/117 119/119/119
f 118/118/118 121/121/121 119/119/119
f 122/122/122 120/120/120 119/119/119
f 119/119/119 121/121/121 123/123/123
f 124/124/124 122/122/122 119/119/119
f 125/125/125 119/119/119 123/123/123
f 125/125/125 124/124/124 119/119/119
f 125/125/125 123/123/123 126/126/126
f 125/125/125 126/126/126 124/124/124
f 126/126/126 127/127/127 124/124/124
f 123/123/123 128/128/128 126/126/126
f 126/126/126 129/129/129 127/127/127
f 129/129/129 126/126/126 128/128/128
f 130/130/130 129/129/129 128/128/128
f 129/129/129 130/130/130 131/131/131
f 130/130/130 132/132/132 131/131/131
f 135/135/135 134/134/134 133/133/133
f 136/136/136 135/135/135 133/133/133
