g facial_mouth_geo
v -0.02757191 1.276807 0.1108444
v -0.04292737 1.276765 0.1002328
v -0.06538229 1.26464 0.1198816
v -0.05200518 1.310527 0.1114323
v -0.04992633 1.285294 0.08822387
v -0.05854713 1.304159 0.09619856
v -0.06033486 1.298076 0.06938881
v -0.07218728 1.320323 0.07903751
v -0.07317614 1.310477 0.04271027
v -0.07960174 1.330646 0.05758698
v -0.07974957 1.349158 0.06701824
v -0.07974957 1.349158 0.06701824
v -0.08809993 1.329778 0.0769593
v -0.07218728 1.320323 0.07903751
v -0.07549109 1.298963 0.09081357
v -0.05854713 1.304159 0.09619856
v -0.1095493 1.286164 0.09594417
v -0.05200518 1.310527 0.1114323
v -0.06424377 1.301863 0.1087717
v -0.07974957 1.349158 0.06701824
v -0.07997459 1.368598 0.07402977
v -0.08809993 1.329778 0.0769593
v -0.09104194 1.332692 0.09638371
v -0.1095493 1.286164 0.09594417
v -0.07175729 1.365563 0.09758911
v -0.0836888 1.3821 0.08408701
v -0.07656959 1.37947 0.1047844
v -0.08077482 1.328675 0.1109768
v -0.05960102 1.363589 0.1198584
v -0.06306329 1.377242 0.1232333
v -0.06565025 1.319368 0.11666
v -0.06424377 1.301863 0.1087717
v -0.05200518 1.310527 0.1114323
v -0.04351521 1.323162 0.1215701
v -0.05780115 1.348986 0.1177352
v -0.04277541 1.361257 0.1299804
v -0.04315145 1.378528 0.1316489
v -0.02198567 1.379408 0.1415603
v -0.03733759 1.344326 0.1275708
v -0.02784221 1.361726 0.1366444
v -0.01132769 1.376369 0.1650985
v -0.01099985 1.383228 0.1649335
v -0 1.382338 0.1726192
v -0.0482251 1.304543 0.1218155
v -0.06538229 1.26464 0.1198816
v -0.04002471 1.296968 0.1254381
v -0.01397031 1.361104 0.1424704
v -0 1.346258 0.1435802
v -0.03143576 1.328987 0.1272666
v -0 1.360296 0.145186
v -0 1.373911 0.1677905
v 0.01132769 1.376369 0.1650985
v 0.01099985 1.383228 0.1649335
v 0.02198567 1.379408 0.1415603
v 0.01397031 1.361104 0.1424704
v 0.02784221 1.361726 0.1366444
v 0.04277541 1.361257 0.1299804
v 0.04315145 1.378528 0.1316489
v 0.06306329 1.377242 0.1232333
v 0.03733759 1.344326 0.1275708
v 0.05960102 1.363589 0.1198584
v 0.07656959 1.37947 0.1047844
v 0.05780115 1.348986 0.1177352
v 0.04351521 1.323162 0.1215701
v 0.07175729 1.365563 0.09758911
v 0.0836888 1.3821 0.08408701
v 0.07997459 1.368598 0.07402977
v 0.03143576 1.328987 0.1272666
v -0 1.328914 0.1395398
v 0.08077482 1.328675 0.1109768
v 0.09104194 1.332692 0.09638371
v 0.08809993 1.329778 0.0769593
v 0.07974957 1.349158 0.06701824
v 0.1095493 1.286164 0.09594417
v 0.06565025 1.319368 0.11666
v 0.06424377 1.301863 0.1087717
v 0.05200518 1.310527 0.1114323
v 0.0482251 1.304543 0.1218155
v 0.06538229 1.26464 0.1198816
v 0.04002471 1.296968 0.1254381
v 0.03002963 1.309381 0.1268738
v 0.01790883 1.302562 0.1297575
v 0.02506349 1.28894 0.1203911
v 0.02757191 1.276807 0.1108444
v 0.01232094 1.281628 0.132768
v 0.01578526 1.260785 0.1165721
v -0 1.240867 0.1332417
v -0 1.298703 0.132914
v -0 1.281694 0.1346204
v -0.01232094 1.281628 0.132768
v -0.01578526 1.260785 0.1165721
v -0.02757191 1.276807 0.1108444
v -0.01790883 1.302562 0.1297575
v -0.02506349 1.28894 0.1203911
v -0.03002963 1.309381 0.1268738
v 0.02757191 1.276807 0.1108444
v 0.06538229 1.26464 0.1198816
v 0.04292737 1.276765 0.1002328
v 0.05200518 1.310527 0.1114323
v 0.04992633 1.285294 0.08822387
v 0.05854713 1.304159 0.09619856
v 0.06033486 1.298076 0.06938881
v 0.07218728 1.320323 0.07903751
v 0.07317614 1.310477 0.04271027
v 0.07960174 1.330646 0.05758698
v 0.07974957 1.349158 0.06701824
v 0.07974957 1.349158 0.06701824
v 0.07218728 1.320323 0.07903751
v 0.08809993 1.329778 0.0769593
v 0.07549109 1.298963 0.09081357
v 0.05854713 1.304159 0.09619856
v 0.1095493 1.286164 0.09594417
v 0.05200518 1.310527 0.1114323
v 0.06424377 1.301863 0.1087717
vt 0.1513672 0.1813965
vt 0.1607666 0.1916504
vt 0.1817627 0.1798096
vt 0.1745605 0.215332
vt 0.1530762 0.2010498
vt 0.161377 0.215332
vt 0.1407471 0.2150879
vt 0.1506348 0.232666
vt 0.1226196 0.2307129
vt 0.1362305 0.2445068
vt 0.1463623 0.2563477
vt 0.2426758 0.2058105
vt 0.225708 0.2012939
vt 0.2199707 0.2142334
vt 0.2015381 0.213623
vt 0.2034912 0.227417
vt 0.1875 0.1895752
vt 0.1954346 0.2382812
vt 0.192627 0.2270508
vt 0.1418457 0.3178711
vt 0.1419678 0.3325195
vt 0.1451416 0.3037109
vt 0.15271 0.3012695
vt 0.1544189 0.2578125
vt 0.1644287 0.333252
vt 0.1435547 0.3483887
vt 0.1662598 0.3457031
vt 0.1688232 0.2978516
vt 0.1882324 0.3320312
vt 0.1872559 0.3442383
vt 0.1834717 0.2910156
vt 0.1827393 0.2734375
vt 0.1933594 0.2817383
vt 0.2047119 0.2937012
vt 0.1890869 0.3181152
vt 0.2064209 0.329834
vt 0.2030029 0.3442383
vt 0.21875 0.3457031
vt 0.2113037 0.314209
vt 0.2211914 0.3320312
vt 0.2412109 0.3447266
vt 0.2412109 0.3537598
vt 0.2502441 0.3540039
vt 0.2016602 0.2758789
vt 0.1826172 0.2426758
vt 0.2089844 0.269043
vt 0.2355957 0.3244629
vt 0.2502441 0.314209
vt 0.2171631 0.2995605
vt 0.2502441 0.3256836
vt 0.2502441 0.3430176
vt 0.2595215 0.3447266
vt 0.2595215 0.3537598
vt 0.2819824 0.3457031
vt 0.2651367 0.3244629
vt 0.279541 0.3320312
vt 0.2941895 0.329834
vt 0.2978516 0.3442383
vt 0.3134766 0.3442383
vt 0.2895508 0.314209
vt 0.3125 0.3320312
vt 0.3344727 0.3457031
vt 0.3115234 0.3181152
vt 0.2958984 0.2937012
vt 0.3361816 0.333252
vt 0.3571777 0.3483887
vt 0.3586426 0.3325195
vt 0.2834473 0.2995605
vt 0.2502441 0.2990723
vt 0.3317871 0.2978516
vt 0.3479004 0.3012695
vt 0.3554688 0.3037109
vt 0.3588867 0.3178711
vt 0.3461914 0.2578125
vt 0.3171387 0.2910156
vt 0.3178711 0.2734375
vt 0.307373 0.2817383
vt 0.2990723 0.2758789
vt 0.3181152 0.2426758
vt 0.291748 0.269043
vt 0.2814941 0.2807617
vt 0.2695312 0.2746582
vt 0.2790527 0.2597656
vt 0.2836914 0.2459717
vt 0.2626953 0.2558594
vt 0.2731934 0.2333984
vt 0.2502441 0.2183838
vt 0.2502441 0.2719727
vt 0.2502441 0.2558594
vt 0.2380371 0.2558594
vt 0.2275391 0.2333984
vt 0.2169189 0.2459717
vt 0.2312012 0.2746582
vt 0.2215576 0.2597656
vt 0.2191162 0.2807617
vt 0.3493652 0.1813965
vt 0.3188477 0.1798096
vt 0.3398438 0.1916504
vt 0.3261719 0.215332
vt 0.3476562 0.2010498
vt 0.3393555 0.215332
vt 0.3598633 0.2150879
vt 0.3500977 0.232666
vt 0.3781738 0.2307129
vt 0.364502 0.2445068
vt 0.354248 0.2563477
vt 0.2580566 0.2058105
vt 0.2807617 0.2142334
vt 0.2749023 0.2012939
vt 0.2990723 0.213623
vt 0.2973633 0.227417
vt 0.3132324 0.1895752
vt 0.3051758 0.2382812
vt 0.3081055 0.2270508
vn -0.5793477 -0.8134525 -0.05148938
vn -0.5987661 -0.8004848 -0.0265169
vn -0.5793477 -0.8134525 -0.05148938
vn -0.8479175 -0.4946536 -0.1906666
vn -0.5953361 -0.8028986 -0.03047789
vn -0.6704212 -0.7213731 0.1736555
vn -0.5503523 -0.8290236 -0.09915659
vn -0.8177461 -0.5604709 -0.1310101
vn -0.5774595 -0.7745146 -0.2582009
vn -0.9299789 -0.3028875 0.2083226
vn -0.9368128 -0.2327271 0.2611893
vn -0.9368128 -0.2327271 0.2611893
vn -0.0601263 -0.4153627 -0.9076666
vn -0.8177461 -0.5604709 -0.1310101
vn 0.2140384 -0.7164866 -0.6639538
vn -0.6704212 -0.7213731 0.1736555
vn 0.0969976 -0.5818095 -0.8075204
vn -0.8479175 -0.4946536 -0.1906666
vn 0.3965684 -0.9179968 -0.00392234
vn -0.9368128 -0.2327271 0.2611893
vn -0.9315738 -0.2574578 0.2566819
vn -0.9409188 0.2727803 -0.2006558
vn -0.8990993 0.3599717 0.2490801
vn -0.7408289 0.09426193 0.6650469
vn -0.8592975 0.09306174 0.5029388
vn -0.9431655 -0.2291228 0.2407108
vn -0.8393154 -0.2854726 0.4626608
vn -0.5606571 0.1817404 0.8078576
vn -0.6824355 -0.2793089 0.6754763
vn -0.567352 -0.2880816 0.7714407
vn -0.2446351 -0.1638867 0.9556646
vn -0.08628421 -0.4150802 0.905684
vn -0.556454 -0.1156219 0.8227943
vn -0.343091 -0.05551471 0.9376603
vn -0.5352967 0.0889421 0.8399683
vn -0.4410232 -0.1982689 0.8753216
vn -0.3731027 -0.2115226 0.9033563
vn -0.676101 0.09384242 0.7308085
vn -0.3997386 -0.1974642 0.8951072
vn -0.5375697 -0.2173326 0.8147302
vn -0.6737512 -0.4053685 0.6178476
vn -0.7385167 0.2265826 0.6350223
vn 1.014967E-07 -0.06176621 0.9980906
vn -0.562657 0.1998842 0.8021616
vn -0.5793477 -0.8134525 -0.05148938
vn -0.1064315 -0.1290345 0.9859119
vn -0.3097096 -0.5835647 0.7506878
vn -1.517133E-07 -0.2192973 0.9756581
vn -0.3673448 -0.1492675 0.9180288
vn 1.039958E-07 -0.7265748 0.6870873
vn -0 -0.7993448 0.6008726
vn 0.6737513 -0.4053689 0.6178472
vn 0.7385167 0.2265826 0.6350223
vn 0.676101 0.09384242 0.7308085
vn 0.3097098 -0.5835652 0.7506873
vn 0.5375697 -0.2173329 0.8147302
vn 0.4410234 -0.1982688 0.8753216
vn 0.3731027 -0.2115226 0.9033563
vn 0.567352 -0.2880816 0.7714407
vn 0.3997378 -0.1974638 0.8951077
vn 0.6824344 -0.2793087 0.6754776
vn 0.8393154 -0.2854726 0.4626608
vn 0.5352952 0.08894213 0.8399692
vn 0.3430909 -0.05551469 0.9376603
vn 0.8592964 0.09306154 0.5029405
vn 0.9431655 -0.2291228 0.2407108
vn 0.9315738 -0.2574578 0.2566819
vn 0.3673449 -0.1492675 0.9180288
vn -1.434484E-07 -0.1786084 0.9839203
vn 0.5606569 0.1817402 0.8078579
vn 0.8990992 0.3599718 0.2490801
vn 0.9409186 0.2727802 -0.2006573
vn 0.9368128 -0.2327271 0.2611893
vn 0.7408289 0.09426171 0.6650468
vn 0.2446351 -0.163887 0.9556645
vn 0.08628428 -0.41508 0.9056841
vn 0.5564541 -0.1156227 0.8227941
vn 0.5626565 0.1998841 0.8021621
vn 0.5793477 -0.8134525 -0.05148938
vn 0.1064318 -0.1290344 0.9859119
vn 0.2289758 -0.09534862 0.9687511
vn 0.2857403 -0.149999 0.946495
vn 0.3163579 -0.3917812 0.863959
vn 0.5793477 -0.8134525 -0.05148938
vn 0.5901509 -0.1743347 0.7882444
vn 0.2901871 -0.9530763 0.08623745
vn -0 -0.971279 0.2379438
vn 1.62936E-07 -0.08491144 0.9963886
vn -0 0.005680684 0.9999839
vn -0.5901509 -0.1743348 0.7882444
vn -0.2901871 -0.9530763 0.08623745
vn -0.5793477 -0.8134525 -0.05148938
vn -0.2857399 -0.1499985 0.9464952
vn -0.3163577 -0.3917811 0.8639591
vn -0.2289751 -0.09534813 0.9687514
vn 0.5793477 -0.8134525 -0.05148938
vn 0.5793477 -0.8134525 -0.05148938
vn 0.5987661 -0.8004848 -0.0265169
vn 0.8479177 -0.4946534 -0.1906659
vn 0.5953361 -0.8028986 -0.03047789
vn 0.6704211 -0.7213732 0.1736555
vn 0.5503523 -0.8290236 -0.09915659
vn 0.817746 -0.5604711 -0.1310101
vn 0.5774595 -0.7745146 -0.2582009
vn 0.9299789 -0.3028875 0.2083226
vn 0.9368128 -0.2327271 0.2611893
vn 0.9368128 -0.2327271 0.2611893
vn 0.817746 -0.5604711 -0.1310101
vn 0.06012623 -0.415363 -0.9076664
vn -0.2140378 -0.7164853 -0.6639553
vn 0.6704211 -0.7213732 0.1736555
vn -0.09699727 -0.581809 -0.8075207
vn 0.8479177 -0.4946534 -0.1906659
vn -0.3965684 -0.9179968 -0.003925207
g facial_mouth_geo_0
f 3/3/3 2/2/2 1/1/1
f 3/3/3 4/4/4 2/2/2
f 5/5/5 2/2/2 4/4/4
f 6/6/6 5/5/5 4/4/4
f 7/7/7 5/5/5 6/6/6
f 8/8/8 7/7/7 6/6/6
f 9/9/9 7/7/7 8/8/8
f 10/10/10 9/9/9 8/8/8
f 10/10/10 8/8/8 11/11/11
f 14/14/14 13/13/13 12/12/12
f 13/13/13 14/14/14 15/15/15
f 15/15/15 14/14/14 16/16/16
f 17/17/17 13/13/13 15/15/15
f 16/16/16 18/18/18 15/15/15
f 15/15/15 19/19/19 17/17/17
f 18/18/18 19/19/19 15/15/15
f 22/22/22 21/21/21 20/20/20
f 21/21/21 22/22/22 23/23/23
f 24/24/24 23/23/23 22/22/22
f 25/25/25 21/21/21 23/23/23
f 21/21/21 25/25/25 26/26/26
f 25/25/25 27/27/27 26/26/26
f 28/28/28 23/23/23 24/24/24
f 25/25/25 23/23/23 28/28/28
f 27/27/27 25/25/25 29/29/29
f 30/30/30 27/27/27 29/29/29
f 24/24/24 31/31/31 28/28/28
f 24/24/24 32/32/32 31/31/31
f 32/32/32 33/33/33 31/31/31
f 31/31/31 33/33/33 34/34/34
f 35/35/35 25/25/25 28/28/28
f 28/28/28 31/31/31 35/35/35
f 35/35/35 29/29/29 25/25/25
f 31/31/31 34/34/34 35/35/35
f 30/30/30 29/29/29 36/36/36
f 36/36/36 29/29/29 35/35/35
f 37/37/37 30/30/30 36/36/36
f 37/37/37 36/36/36 38/38/38
f 39/39/39 36/36/36 35/35/35
f 34/34/34 39/39/39 35/35/35
f 40/40/40 38/38/38 36/36/36
f 40/40/40 36/36/36 39/39/39
f 40/40/40 41/41/41 38/38/38
f 41/41/41 42/42/42 38/38/38
f 43/43/43 42/42/42 41/41/41
f 44/44/44 34/34/34 33/33/33
f 45/45/45 44/44/44 33/33/33
f 45/45/45 46/46/46 44/44/44
f 34/34/34 44/44/44 46/46/46
f 39/39/39 47/47/47 40/40/40
f 40/40/40 47/47/47 41/41/41
f 48/48/48 47/47/47 39/39/39
f 34/34/34 49/49/49 39/39/39
f 39/39/39 49/49/49 48/48/48
f 47/47/47 50/50/50 41/41/41
f 50/50/50 47/47/47 48/48/48
f 51/51/51 43/43/43 41/41/41
f 50/50/50 51/51/51 41/41/41
f 43/43/43 51/51/51 52/52/52
f 51/51/51 50/50/50 52/52/52
f 53/53/53 43/43/43 52/52/52
f 53/53/53 52/52/52 54/54/54
f 50/50/50 55/55/55 52/52/52
f 55/55/55 50/50/50 48/48/48
f 52/52/52 56/56/56 54/54/54
f 55/55/55 56/56/56 52/52/52
f 54/54/54 56/56/56 57/57/57
f 57/57/57 58/58/58 54/54/54
f 59/59/59 58/58/58 57/57/57
f 55/55/55 60/60/60 56/56/56
f 55/55/55 48/48/48 60/60/60
f 57/57/57 56/56/56 60/60/60
f 61/61/61 59/59/59 57/57/57
f 62/62/62 59/59/59 61/61/61
f 61/61/61 57/57/57 63/63/63
f 57/57/57 60/60/60 63/63/63
f 60/60/60 64/64/64 63/63/63
f 65/65/65 62/62/62 61/61/61
f 61/61/61 63/63/63 65/65/65
f 62/62/62 65/65/65 66/66/66
f 65/65/65 67/67/67 66/66/66
f 68/68/68 60/60/60 48/48/48
f 68/68/68 64/64/64 60/60/60
f 69/69/69 68/68/68 48/48/48
f 49/49/49 69/69/69 48/48/48
f 65/65/65 63/63/63 70/70/70
f 67/67/67 65/65/65 71/71/71
f 71/71/71 65/65/65 70/70/70
f 72/72/72 67/67/67 71/71/71
f 67/67/67 72/72/72 73/73/73
f 71/71/71 74/74/74 72/72/72
f 71/71/71 70/70/70 74/74/74
f 75/75/75 70/70/70 63/63/63
f 75/75/75 74/74/74 70/70/70
f 64/64/64 75/75/75 63/63/63
f 76/76/76 74/74/74 75/75/75
f 77/77/77 76/76/76 75/75/75
f 77/77/77 75/75/75 64/64/64
f 64/64/64 78/78/78 77/77/77
f 78/78/78 79/79/79 77/77/77
f 78/78/78 64/64/64 80/80/80
f 80/80/80 79/79/79 78/78/78
f 64/64/64 81/81/81 80/80/80
f 68/68/68 81/81/81 64/64/64
f 68/68/68 82/82/82 81/81/81
f 81/81/81 82/82/82 80/80/80
f 69/69/69 82/82/82 68/68/68
f 83/83/83 79/79/79 80/80/80
f 82/82/82 83/83/83 80/80/80
f 84/84/84 79/79/79 83/83/83
f 84/84/84 83/83/83 85/85/85
f 85/85/85 83/83/83 82/82/82
f 86/86/86 84/84/84 85/85/85
f 86/86/86 85/85/85 87/87/87
f 69/69/69 88/88/88 82/82/82
f 88/88/88 85/85/85 82/82/82
f 85/85/85 89/89/89 87/87/87
f 88/88/88 89/89/89 85/85/85
f 89/89/89 90/90/90 87/87/87
f 89/89/89 88/88/88 90/90/90
f 90/90/90 91/91/91 87/87/87
f 92/92/92 91/91/91 90/90/90
f 88/88/88 69/69/69 93/93/93
f 90/90/90 88/88/88 93/93/93
f 93/93/93 69/69/69 49/49/49
f 94/94/94 92/92/92 90/90/90
f 94/94/94 90/90/90 93/93/93
f 45/45/45 92/92/92 94/94/94
f 45/45/45 94/94/94 46/46/46
f 94/94/94 93/93/93 46/46/46
f 93/93/93 49/49/49 95/95/95
f 93/93/93 95/95/95 46/46/46
f 95/95/95 49/49/49 34/34/34
f 95/95/95 34/34/34 46/46/46
f 98/98/98 97/97/97 96/96/96
f 99/99/99 97/97/97 98/98/98
f 98/98/98 100/100/100 99/99/99
f 100/100/100 101/101/101 99/99/99
f 100/100/100 102/102/102 101/101/101
f 102/102/102 103/103/103 101/101/101
f 102/102/102 104/104/104 103/103/103
f 104/104/104 105/105/105 103/103/103
f 103/103/103 105/105/105 106/106/106
f 109/109/109 108/108/108 107/107/107
f 108/108/108 109/109/109 110/110/110
f 108/108/108 110/110/110 111/111/111
f 109/109/109 112/112/112 110/110/110
f 113/113/113 111/111/111 110/110/110
f 114/114/114 110/110/110 112/112/112
f 114/114/114 113/113/113 110/110/110
