g head_geo
v 0.08871283 1.480189 0.09656917
v 0.09407225 1.479729 0.0832948
v 0.0923076 1.454022 0.08573097
v 0.08472464 1.496958 0.1056837
v 0.09649041 1.510606 0.08500863
v 0.08506417 1.514989 0.1045641
v 0.07090721 1.517264 0.1234501
v 0.07108938 1.49666 0.1221184
v 0.05098374 1.49492 0.1375112
v 0.04432626 1.519818 0.1384363
v 0.0240767 1.493075 0.1427626
v 4.624618E-10 1.520741 0.1445661
v -0 1.49007 0.1446069
v -0.0240767 1.493075 0.1427626
v -0.04432626 1.519818 0.1384363
v -0.05098374 1.49492 0.1375112
v -0.07090721 1.517264 0.1234501
v -0.07108938 1.49666 0.1221184
v -0.08472464 1.496958 0.1056837
v -0.08506417 1.514989 0.1045641
v -0.09649041 1.510606 0.08500863
v -0.09407225 1.479729 0.0832948
v -0.08871283 1.480189 0.09656917
v -0.0923076 1.454022 0.08573097
v -0 1.364316 -0.0757851
v 0.02754733 1.382313 -0.06976953
v -0 1.385818 -0.0766264
v 0.03881217 1.358829 -0.0551259
v 0.05029335 1.377964 -0.05655517
v 0.0576191 1.371528 -0.03720573
v 0.05559103 1.34854 -0.01939222
v 0.07542307 1.365316 -0.008653699
v 0.08143374 1.333654 0.01790218
v 0.05340442 1.321962 0.004140968
v 0.07934046 1.377542 -0.005031471
v 0.07317614 1.310477 0.04271027
v 0.09308711 1.380328 0.01525841
v 0.08478159 1.340925 0.04262413
v 0.07960174 1.330646 0.05758698
v 0.09269855 1.373226 0.03705833
v 0.08603188 1.359871 0.04741405
v 0.07974957 1.349158 0.06701825
v 0.07997459 1.368598 0.07402977
v 0.09137208 1.384155 0.06796411
v 0.0836888 1.3821 0.08408703
v 0.0896805 1.404815 0.09015995
v 0.09285345 1.374036 0.03934832
v 0.09365492 1.379888 0.03849602
v 0.09600411 1.407772 0.03899154
v 0.09625471 1.41056 0.06606205
v 0.09352559 1.43942 0.03542229
v 0.0862044 1.421801 0.09036003
v 0.08756911 1.441374 0.09082779
v 0.0923076 1.454022 0.08573097
v 0.05340442 1.321962 0.004140968
v 0.02504627 1.302358 0.02995772
v 0.07317614 1.310477 0.04271027
v 0.05360159 1.299639 0.05783836
v 0.06033486 1.298076 0.06938881
v 0.03796062 1.298338 0.06296574
v 0.04992633 1.285294 0.08822387
v 0.04292737 1.276765 0.1002328
v 0.01457377 1.292038 0.06670582
v -1.844877E-17 1.294636 0.04559203
v 0.02479519 1.286752 0.08583443
v 0.02757191 1.276807 0.1108444
v -9.693341E-18 1.278313 0.0873529
v 0.01578526 1.260785 0.1165721
v -1.84939E-17 1.240867 0.1332417
v -0.01578526 1.260785 0.1165721
v -0.02757191 1.276807 0.1108444
v -2.393214E-17 1.288575 0.06630146
v -0.02479519 1.286752 0.08583443
v -0.04292737 1.276765 0.1002328
v -0.01457377 1.292038 0.06670582
v -0.02504627 1.302358 0.02995772
v -0.03796062 1.298338 0.06296574
v -0.04992633 1.285294 0.08822387
v -0.06033486 1.298076 0.06938881
v -0.05360159 1.299639 0.05783836
v -0.07317614 1.310477 0.04271027
v -0.05340442 1.321962 0.004140968
v 0.09847653 1.443091 0.02664432
v 0.106595 1.448312 0.02960091
v 0.09352559 1.43942 0.03542229
v 0.09808426 1.431888 0.01660572
v 0.1147846 1.452307 0.0169844
v 0.1197438 1.440227 0.006396294
v 0.09632307 1.411394 0.010453
v 0.1163732 1.443236 0.02051784
v 0.1212486 1.435355 0.01276386
v 0.1101279 1.442292 0.02945312
v 0.09352559 1.43942 0.03542229
v 0.09600411 1.407772 0.03899154
v 0.1060056 1.411623 0.02570835
v 0.09365492 1.379888 0.03849602
v 0.1176992 1.414437 0.008393821
v 0.1176101 1.415262 0.0009894943
v 0.1040807 1.380767 0.02227417
v 0.105948 1.382388 0.01261921
v 0.09308711 1.380328 0.01525841
v 0.1011633 1.371937 0.02150345
v 0.09269855 1.373226 0.03705833
v 0.1011633 1.371937 0.02150345
v 0.09269855 1.373226 0.03705833
v -0 1.364316 -0.0757851
v -0 1.385818 -0.0766264
v -0.02754733 1.382313 -0.06976953
v -0.03881217 1.358829 -0.0551259
v -0.05029335 1.377964 -0.05655517
v -0.0576191 1.371528 -0.03720573
v -0.05559103 1.34854 -0.01939222
v -0.07542307 1.365316 -0.008653699
v -0.08143374 1.333654 0.01790218
v -0.05340442 1.321962 0.004140968
v -0.07934046 1.377542 -0.005031471
v -0.07317614 1.310477 0.04271027
v -0.09308711 1.380328 0.01525841
v -0.08478159 1.340925 0.04262413
v -0.07960174 1.330646 0.05758698
v -0.09269855 1.373226 0.03705833
v -0.08603188 1.359871 0.04741405
v -0.07974957 1.349158 0.06701825
v -0.07997459 1.368598 0.07402977
v -0.09137208 1.384155 0.06796411
v -0.08368881 1.3821 0.08408703
v -0.0896805 1.404815 0.09015995
v -0.09285345 1.374036 0.03934832
v -0.09365492 1.379888 0.03849602
v -0.09600411 1.407772 0.03899154
v -0.0962547 1.41056 0.06606205
v -0.09352559 1.43942 0.03542229
v -0.0862044 1.421801 0.09036003
v -0.08756911 1.441374 0.09082779
v -0.0923076 1.454022 0.08573097
v -0.09847653 1.443091 0.02664432
v -0.09352559 1.43942 0.03542229
v -0.106595 1.448312 0.02960091
v -0.09808426 1.431888 0.01660572
v -0.1147846 1.452307 0.0169844
v -0.1197438 1.440227 0.006396294
v -0.09632307 1.411394 0.010453
v -0.1163732 1.443236 0.02051784
v -0.1212486 1.435355 0.01276386
v -0.1101279 1.442292 0.02945312
v -0.09352559 1.43942 0.03542229
v -0.09600411 1.407772 0.03899154
v -0.1060056 1.411623 0.02570835
v -0.09365492 1.379888 0.03849602
v -0.1176992 1.414437 0.008393821
v -0.1176101 1.415262 0.0009894943
v -0.1040807 1.380767 0.02227417
v -0.105948 1.382388 0.01261921
v -0.09308711 1.380328 0.01525841
v -0.1011633 1.371937 0.02150345
v -0.09269855 1.373226 0.03705833
v -0.1011633 1.371937 0.02150345
v -0.09269855 1.373226 0.03705833
v 0.09649041 1.510606 0.08500863
v 0.08506417 1.514989 0.1045641
v 0.08300129 1.528006 0.1020574
v 0.07052874 1.527779 0.1212541
v 0.07090721 1.517264 0.1234501
v 0.06939165 1.537978 0.1156714
v 0.04432626 1.519818 0.1384363
v 0.03935632 1.53832 0.1367946
v 0.03223556 1.556366 0.1309824
v 4.624618E-10 1.520741 0.1445661
v 2.337285E-10 1.54532 0.1425629
v 2.207985E-17 1.567627 0.1320745
v -0.04432626 1.519818 0.1384363
v -0.03935632 1.53832 0.1367946
v -0.03223556 1.556366 0.1309824
v -0.07090721 1.517264 0.1234501
v -0.07052874 1.527779 0.1212541
v -0.06939165 1.537978 0.1156714
v -0.08506417 1.514989 0.1045641
v -0.08300129 1.528006 0.1020574
v -0.09649041 1.510606 0.08500863
vt 0.3625488 0.4562988
vt 0.3771973 0.4560547
vt 0.3679199 0.439209
vt 0.3469238 0.4719238
vt 0.3776855 0.4812012
vt 0.3618164 0.4926758
vt 0.3327637 0.4970703
vt 0.328125 0.4726562
vt 0.3024902 0.4719238
vt 0.291748 0.4956055
vt 0.2756348 0.4699707
vt 0.2502441 0.4926758
vt 0.2502441 0.467041
vt 0.2248535 0.4699707
vt 0.2088623 0.4958496
vt 0.1981201 0.4719238
vt 0.1677246 0.4970703
vt 0.1723633 0.4724121
vt 0.1536865 0.4716797
vt 0.1385498 0.4924316
vt 0.1226807 0.4804688
vt 0.1238403 0.4543457
vt 0.1379395 0.4562988
vt 0.1328125 0.439209
vt 0.4191895 0.2056885
vt 0.4274902 0.2233887
vt 0.4238281 0.2059326
vt 0.4030762 0.2314453
vt 0.4208984 0.2338867
vt 0.4101562 0.2471924
vt 0.387207 0.2459717
vt 0.3981934 0.2626953
vt 0.373291 0.2775879
vt 0.3647461 0.2490234
vt 0.4094238 0.2790527
vt 0.3525391 0.2763672
vt 0.4067383 0.3015137
vt 0.375 0.2983398
vt 0.3579102 0.3005371
vt 0.3989258 0.3225098
vt 0.3815918 0.3195801
vt 0.3588867 0.3178711
vt 0.3586426 0.3325195
vt 0.3779297 0.34375
vt 0.3571777 0.3483887
vt 0.3630371 0.3730469
vt 0.3962402 0.3251953
vt 0.4040527 0.3325195
vt 0.4133301 0.3630371
vt 0.3869629 0.3776855
vt 0.4067383 0.3977051
vt 0.3630371 0.3916016
vt 0.3635254 0.4196777
vt 0.3679199 0.439209
vt 0.3647461 0.1472168
vt 0.3232422 0.1329346
vt 0.3525391 0.1745605
vt 0.3254395 0.1586914
vt 0.3261719 0.1694336
vt 0.3005371 0.1478271
vt 0.3049316 0.163208
vt 0.2897949 0.1611328
vt 0.2695312 0.1241455
vt 0.2502441 0.1021729
vt 0.276123 0.1469727
vt 0.2739258 0.1599121
vt 0.2502441 0.1414795
vt 0.2597656 0.1604004
vt 0.2502441 0.1630859
vt 0.2410889 0.1604004
vt 0.2266846 0.1599121
vt 0.2502441 0.1213379
vt 0.2246094 0.1469727
vt 0.2108154 0.1611328
vt 0.2310791 0.1241455
vt 0.1773682 0.1329346
vt 0.2001953 0.1479492
vt 0.1958008 0.163208
vt 0.1744385 0.1695557
vt 0.175293 0.1586914
vt 0.1481934 0.1745605
vt 0.1358643 0.1472168
vt 0.3908691 0.1901855
vt 0.3891602 0.1777344
vt 0.3608398 0.1773682
vt 0.4050293 0.1989746
vt 0.3972168 0.1846924
vt 0.4052734 0.1916504
vt 0.4267578 0.1990967
vt 0.4033203 0.1816406
vt 0.4089355 0.1867676
vt 0.3974609 0.1765137
vt 0.4001465 0.1535645
vt 0.4196777 0.1530762
vt 0.4221191 0.1729736
vt 0.4428711 0.1530762
vt 0.4355469 0.1877441
vt 0.4301758 0.192627
vt 0.4482422 0.1693115
vt 0.4528809 0.1800537
vt 0.4638672 0.1881104
vt 0.4638672 0.1820068
vt 0.4787598 0.1849365
vt 0.458252 0.1663818
vt 0.4487305 0.1529541
vt 0.0814209 0.2056885
vt 0.07672119 0.2060547
vt 0.07318115 0.2235107
vt 0.09759521 0.2315674
vt 0.07965088 0.2338867
vt 0.0904541 0.2471924
vt 0.1134033 0.2459717
vt 0.102417 0.2629395
vt 0.1271973 0.2775879
vt 0.1357422 0.2490234
vt 0.09124756 0.2790527
vt 0.1481934 0.2763672
vt 0.09381104 0.3015137
vt 0.1256104 0.298584
vt 0.1427002 0.3005371
vt 0.1016846 0.3225098
vt 0.1189575 0.3195801
vt 0.1418457 0.3178711
vt 0.1419678 0.3325195
vt 0.1226807 0.34375
vt 0.1435547 0.3483887
vt 0.1376953 0.3730469
vt 0.1043091 0.3251953
vt 0.09661865 0.3325195
vt 0.08752441 0.3630371
vt 0.1137085 0.3776855
vt 0.09399414 0.3977051
vt 0.1375732 0.3913574
vt 0.137207 0.4194336
vt 0.1328125 0.439209
vt 0.1092529 0.1901855
vt 0.1392822 0.1773682
vt 0.1110229 0.1777344
vt 0.09521484 0.1989746
vt 0.1029663 0.1846924
vt 0.0949707 0.1916504
vt 0.07336426 0.1990967
vt 0.09692383 0.1816406
vt 0.09112549 0.1867676
vt 0.1026611 0.1765137
vt 0.09997559 0.1535645
vt 0.08044434 0.1530762
vt 0.07788086 0.1729736
vt 0.05737305 0.1530762
vt 0.06463623 0.1877441
vt 0.06994629 0.192627
vt 0.05200195 0.1693115
vt 0.04730225 0.1800537
vt 0.03616333 0.1881104
vt 0.03619385 0.1820068
vt 0.02137756 0.1849365
vt 0.04190063 0.1663818
vt 0.0513916 0.1529541
vt 0.3776855 0.02761841
vt 0.3618164 0.03903198
vt 0.3554688 0.05392456
vt 0.3327637 0.05535889
vt 0.3327637 0.04330444
vt 0.3325195 0.06610107
vt 0.291748 0.04202271
vt 0.2871094 0.0607605
vt 0.2807617 0.078125
vt 0.2504883 0.03900146
vt 0.2504883 0.06469727
vt 0.2504883 0.0871582
vt 0.2088623 0.04211426
vt 0.2139893 0.0604248
vt 0.2202148 0.07781982
vt 0.1677246 0.04333496
vt 0.168335 0.05471802
vt 0.168335 0.06542969
vt 0.1385498 0.03887939
vt 0.145752 0.05310059
vt 0.1226807 0.02690125
vn 0.951946 0.1378972 0.2734651
vn 0.9100791 -0.05696718 0.4105009
vn 0.9258252 -0.06110612 0.3729794
vn 0.8600953 0.1561669 0.4856419
vn 0.8863429 -0.02898328 0.4621214
vn 0.8381352 0.3224015 0.4399848
vn 0.6094376 0.3020073 0.7330602
vn 0.6798185 0.1808295 0.7107374
vn 0.4201707 0.1761993 0.8901744
vn 0.3238524 0.2773764 0.904534
vn 0.1714898 0.1608486 0.9719666
vn -0 0.1554735 0.9878401
vn 1.365694E-07 0.06879973 0.9976305
vn -0.1714893 0.1608483 0.9719667
vn -0.3238525 0.2773767 0.904534
vn -0.420171 0.1761993 0.8901743
vn -0.6094375 0.3020073 0.7330603
vn -0.6798189 0.1808295 0.7107369
vn -0.8600953 0.1561668 0.4856419
vn -0.8381347 0.3224011 0.4399861
vn -0.8863432 -0.02898333 0.4621209
vn -0.9100789 -0.05696717 0.410501
vn -0.9519458 0.1378968 0.2734661
vn -0.9258255 -0.0611062 0.3729787
vn 7.590013E-06 -0.3457035 -0.9383438
vn 0.3982586 -0.3022648 -0.8660405
vn -0 -0.03909682 -0.9992354
vn 0.5913265 -0.2584802 -0.7638854
vn 0.5137672 -0.3800568 -0.7691554
vn 0.7304068 -0.4615025 -0.503509
vn 0.8526427 -0.2625119 -0.451761
vn 0.7572808 -0.3701698 -0.5380522
vn 0.7951696 -0.4727031 -0.379812
vn 0.8069302 -0.5568671 -0.1968818
vn 0.8384945 -0.2204146 -0.4983415
vn 0.5774595 -0.7745146 -0.2582009
vn 0.7848172 -0.3437325 -0.5156645
vn 0.9683502 -0.24022 0.06776613
vn 0.9299789 -0.3028875 0.2083226
vn 0.9486377 -0.285176 0.1369711
vn 0.9519964 -0.2449171 0.1836255
vn 0.9368128 -0.2327271 0.2611893
vn 0.9315738 -0.2574578 0.2566819
vn 0.9600701 -0.219571 0.1733605
vn 0.9431655 -0.2291228 0.2407108
vn 0.9557009 -0.01406063 0.2940037
vn 0.9444529 -0.2957723 0.1432737
vn 0.948567 -0.1376616 0.2850786
vn 0.9398896 -0.06670944 0.3348992
vn 0.9894243 -0.08144622 0.1200259
vn 0.7458877 0.03492524 0.6651554
vn 0.9173065 0.06754541 0.392411
vn 0.9079869 -0.1421306 0.3941557
vn 0.9258252 -0.06110612 0.3729794
vn 0.8069302 -0.5568671 -0.1968818
vn 0.6529904 -0.7053712 0.2757807
vn 0.5774595 -0.7745146 -0.2582009
vn 0.1899673 -0.9431641 -0.272679
vn 0.5503523 -0.8290236 -0.09915659
vn 0.1217222 -0.9479243 -0.2943179
vn 0.5953361 -0.8028986 -0.03047789
vn 0.5987661 -0.8004848 -0.0265169
vn 0.2130191 -0.9324704 -0.2917565
vn 9.81546E-06 -0.9256957 0.3782691
vn 0.1936574 -0.8561813 -0.4790096
vn 0.5793477 -0.8134525 -0.05148938
vn -0 -0.8512963 -0.5246853
vn 0.2901871 -0.9530763 0.08623745
vn -0 -0.971279 0.2379438
vn -0.290187 -0.9530763 0.08623867
vn -0.5793476 -0.8134528 -0.05148819
vn -0 -0.9230281 -0.3847326
vn -0.1936575 -0.8561819 -0.4790087
vn -0.5987663 -0.8004848 -0.0265171
vn -0.2130191 -0.9324703 -0.2917568
vn -0.6529691 -0.7054108 0.27573
vn -0.1217222 -0.9479242 -0.2943184
vn -0.5953361 -0.8028986 -0.03047803
vn -0.5503523 -0.8290236 -0.09915671
vn -0.1899674 -0.9431641 -0.2726791
vn -0.5774595 -0.7745147 -0.2582005
vn -0.8069953 -0.5567995 -0.1968066
vn -0.6215665 0.698788 -0.3540485
vn -0.3413917 0.9398909 -0.007534885
vn 0.7458877 0.03492524 0.6651554
vn -0.5033339 0.3419617 -0.7935472
vn -0.1540876 0.8652837 -0.4770128
vn -0.1002041 0.3887609 -0.9158734
vn -0.4221418 0.06903394 -0.9038975
vn 0.8648314 0.1032867 0.4913233
vn 0.9596475 -0.05937846 0.2748654
vn 0.6676539 0.01870099 0.7442369
vn 0.7458877 0.03492524 0.6651554
vn 0.9398896 -0.06670944 0.3348992
vn 0.7507793 -0.08675431 0.6548313
vn 0.948567 -0.1376616 0.2850786
vn 0.9437758 -0.2365392 0.2309469
vn -0.01308321 0.03931345 -0.9991412
vn 0.8757678 -0.1818689 0.4471628
vn 0.5731677 -0.4479876 -0.6861384
vn 0.7848172 -0.3437325 -0.5156645
vn 0.3655045 -0.9303466 0.02935281
vn 0.9486377 -0.285176 0.1369711
vn 0.3655045 -0.9303466 0.02935281
vn 0.9486377 -0.285176 0.1369711
vn 7.590013E-06 -0.3457035 -0.9383438
vn -0 -0.03909682 -0.9992354
vn -0.3982585 -0.3022648 -0.8660405
vn -0.5948355 -0.2776574 -0.7543719
vn -0.5137672 -0.3800568 -0.7691556
vn -0.7304068 -0.4615025 -0.503509
vn -0.85268 -0.2624357 -0.4517347
vn -0.7572809 -0.3701698 -0.5380519
vn -0.7951694 -0.4727027 -0.3798127
vn -0.8069953 -0.5567995 -0.1968066
vn -0.8384945 -0.2204147 -0.4983416
vn -0.5774595 -0.7745147 -0.2582005
vn -0.784817 -0.3437328 -0.5156648
vn -0.9683502 -0.2402199 0.06776635
vn -0.9299789 -0.3028875 0.208323
vn -0.9486377 -0.285176 0.1369713
vn -0.9519964 -0.2449171 0.1836255
vn -0.9368129 -0.2327271 0.2611888
vn -0.931574 -0.2574578 0.2566815
vn -0.96007 -0.2195709 0.1733612
vn -0.9431655 -0.2291226 0.2407107
vn -0.9557011 -0.01406051 0.2940031
vn -0.9444529 -0.2957722 0.1432746
vn -0.9485668 -0.1376614 0.2850795
vn -0.9398894 -0.06670921 0.3348998
vn -0.9894242 -0.08144594 0.1200269
vn -0.7458873 0.03492531 0.6651558
vn -0.9173062 0.06754565 0.3924115
vn -0.9079869 -0.1421306 0.3941557
vn -0.9258255 -0.0611062 0.3729787
vn 0.6215665 0.6987879 -0.3540491
vn -0.7458873 0.03492531 0.6651558
vn 0.3413952 0.9398896 -0.00753358
vn 0.5033339 0.3419617 -0.7935473
vn 0.1540897 0.8652847 -0.4770101
vn 0.1002054 0.3887616 -0.915873
vn 0.4221424 0.069034 -0.9038972
vn -0.8648297 0.103286 0.4913262
vn -0.9596468 -0.05937854 0.2748675
vn -0.6676528 0.01870037 0.7442379
vn -0.7458873 0.03492531 0.6651558
vn -0.9398894 -0.06670921 0.3348998
vn -0.7507791 -0.08675434 0.6548317
vn -0.9485668 -0.1376614 0.2850795
vn -0.9437756 -0.2365392 0.2309474
vn 0.01308469 0.03931382 -0.9991412
vn -0.8757674 -0.1818688 0.4471636
vn -0.5731676 -0.4479887 -0.6861378
vn -0.784817 -0.3437328 -0.5156648
vn -0.3655023 -0.9303474 0.02935497
vn -0.9486377 -0.285176 0.1369713
vn -0.3655023 -0.9303474 0.02935497
vn -0.9486377 -0.285176 0.1369713
vn 0.8863429 -0.02898328 0.4621214
vn 0.8381352 0.3224015 0.4399848
vn 0.8142982 0.2785069 0.5092666
vn 0.5999635 0.3124856 0.7364757
vn 0.6094376 0.3020073 0.7330602
vn 0.6020687 0.410974 0.6845536
vn 0.3238524 0.2773764 0.904534
vn 0.3074601 0.2723855 0.9117425
vn 0.2723623 0.4138517 0.8686459
vn -0 0.1554735 0.9878401
vn -0 0.255197 0.9668891
vn -0 0.4032636 0.9150839
vn -0.3238525 0.2773767 0.904534
vn -0.3074605 0.2723855 0.9117424
vn -0.2723625 0.4138511 0.8686461
vn -0.6094375 0.3020073 0.7330603
vn -0.5999635 0.3124858 0.7364756
vn -0.6020687 0.4109743 0.6845536
vn -0.8381347 0.3224011 0.4399861
vn -0.8142977 0.2785067 0.5092675
vn -0.8863432 -0.02898333 0.4621209
g head_geo_0
f 3/3/3 2/2/2 1/1/1
f 1/1/1 2/2/2 4/4/4
f 5/5/5 4/4/4 2/2/2
f 5/5/5 6/6/6 4/4/4
f 6/6/6 7/7/7 4/4/4
f 7/7/7 8/8/8 4/4/4
f 8/8/8 7/7/7 9/9/9
f 7/7/7 10/10/10 9/9/9
f 9/9/9 10/10/10 11/11/11
f 10/10/10 12/12/12 11/11/11
f 12/12/12 13/13/13 11/11/11
f 13/13/13 12/12/12 14/14/14
f 14/14/14 12/12/12 15/15/15
f 16/16/16 14/14/14 15/15/15
f 15/15/15 17/17/17 16/16/16
f 17/17/17 18/18/18 16/16/16
f 18/18/18 17/17/17 19/19/19
f 17/17/17 20/20/20 19/19/19
f 20/20/20 21/21/21 19/19/19
f 19/19/19 21/21/21 22/22/22
f 22/22/22 23/23/23 19/19/19
f 22/22/22 24/24/24 23/23/23
f 27/27/27 26/26/26 25/25/25
f 28/28/28 25/25/25 26/26/26
f 29/29/29 28/28/28 26/26/26
f 29/29/29 30/30/30 28/28/28
f 31/31/31 28/28/28 30/30/30
f 32/32/32 31/31/31 30/30/30
f 32/32/32 33/33/33 31/31/31
f 33/33/33 34/34/34 31/31/31
f 32/32/32 35/35/35 33/33/33
f 36/36/36 34/34/34 33/33/33
f 35/35/35 37/37/37 33/33/33
f 36/36/36 33/33/33 38/38/38
f 37/37/37 38/38/38 33/33/33
f 36/36/36 38/38/38 39/39/39
f 38/38/38 37/37/37 40/40/40
f 39/39/39 38/38/38 41/41/41
f 41/41/41 38/38/38 40/40/40
f 42/42/42 39/39/39 41/41/41
f 43/43/43 42/42/42 41/41/41
f 44/44/44 43/43/43 41/41/41
f 45/45/45 43/43/43 44/44/44
f 46/46/46 45/45/45 44/44/44
f 41/41/41 40/40/40 47/47/47
f 41/41/41 47/47/47 44/44/44
f 47/47/47 40/40/40 48/48/48
f 47/47/47 48/48/48 44/44/44
f 48/48/48 49/49/49 44/44/44
f 46/46/46 44/44/44 50/50/50
f 49/49/49 50/50/50 44/44/44
f 49/49/49 51/51/51 50/50/50
f 46/46/46 50/50/50 52/52/52
f 53/53/53 52/52/52 50/50/50
f 54/54/54 53/53/53 50/50/50
f 57/57/57 56/56/56 55/55/55
f 57/57/57 58/58/58 56/56/56
f 57/57/57 59/59/59 58/58/58
f 60/60/60 58/58/58 59/59/59
f 60/60/60 56/56/56 58/58/58
f 60/60/60 59/59/59 61/61/61
f 61/61/61 62/62/62 60/60/60
f 60/60/60 63/63/63 56/56/56
f 63/63/63 64/64/64 56/56/56
f 62/62/62 65/65/65 60/60/60
f 60/60/60 65/65/65 63/63/63
f 66/66/66 65/65/65 62/62/62
f 67/67/67 65/65/65 66/66/66
f 68/68/68 67/67/67 66/66/66
f 68/68/68 69/69/69 67/67/67
f 69/69/69 70/70/70 67/67/67
f 67/67/67 70/70/70 71/71/71
f 63/63/63 65/65/65 72/72/72
f 63/63/63 72/72/72 64/64/64
f 65/65/65 67/67/67 72/72/72
f 73/73/73 67/67/67 71/71/71
f 67/67/67 73/73/73 72/72/72
f 73/73/73 71/71/71 74/74/74
f 72/72/72 75/75/75 64/64/64
f 73/73/73 75/75/75 72/72/72
f 64/64/64 75/75/75 76/76/76
f 73/73/73 74/74/74 77/77/77
f 73/73/73 77/77/77 75/75/75
f 75/75/75 77/77/77 76/76/76
f 74/74/74 78/78/78 77/77/77
f 79/79/79 77/77/77 78/78/78
f 80/80/80 77/77/77 79/79/79
f 80/80/80 76/76/76 77/77/77
f 80/80/80 79/79/79 81/81/81
f 80/80/80 81/81/81 76/76/76
f 76/76/76 81/81/81 82/82/82
f 85/85/85 84/84/84 83/83/83
f 83/83/83 84/84/84 86/86/86
f 84/84/84 87/87/87 86/86/86
f 87/87/87 88/88/88 86/86/86
f 86/86/86 88/88/88 89/89/89
f 90/90/90 87/87/87 84/84/84
f 91/91/91 88/88/88 87/87/87
f 90/90/90 91/91/91 87/87/87
f 92/92/92 90/90/90 84/84/84
f 92/92/92 84/84/84 93/93/93
f 92/92/92 93/93/93 94/94/94
f 90/90/90 92/92/92 95/95/95
f 95/95/95 92/92/92 94/94/94
f 91/91/91 90/90/90 95/95/95
f 95/95/95 94/94/94 96/96/96
f 91/91/91 97/97/97 88/88/88
f 91/91/91 95/95/95 97/97/97
f 88/88/88 98/98/98 89/89/89
f 97/97/97 98/98/98 88/88/88
f 97/97/97 95/95/95 99/99/99
f 99/99/99 95/95/95 96/96/96
f 98/98/98 97/97/97 99/99/99
f 98/98/98 100/100/100 89/89/89
f 100/100/100 98/98/98 99/99/99
f 89/89/89 100/100/100 101/101/101
f 100/100/100 102/102/102 101/101/101
f 103/103/103 101/101/101 102/102/102
f 99/99/99 104/104/104 100/100/100
f 99/99/99 96/96/96 104/104/104
f 96/96/96 105/105/105 104/104/104
f 108/108/108 107/107/107 106/106/106
f 106/106/106 109/109/109 108/108/108
f 109/109/109 110/110/110 108/108/108
f 111/111/111 110/110/110 109/109/109
f 109/109/109 112/112/112 111/111/111
f 112/112/112 113/113/113 111/111/111
f 114/114/114 113/113/113 112/112/112
f 115/115/115 114/114/114 112/112/112
f 116/116/116 113/113/113 114/114/114
f 115/115/115 117/117/117 114/114/114
f 118/118/118 116/116/116 114/114/114
f 119/119/119 114/114/114 117/117/117
f 119/119/119 118/118/118 114/114/114
f 119/119/119 117/117/117 120/120/120
f 118/118/118 119/119/119 121/121/121
f 119/119/119 120/120/120 122/122/122
f 119/119/119 122/122/122 121/121/121
f 120/120/120 123/123/123 122/122/122
f 123/123/123 124/124/124 122/122/122
f 124/124/124 125/125/125 122/122/122
f 124/124/124 126/126/126 125/125/125
f 126/126/126 127/127/127 125/125/125
f 128/128/128 121/121/121 122/122/122
f 128/128/128 122/122/122 125/125/125
f 129/129/129 121/121/121 128/128/128
f 129/129/129 128/128/128 125/125/125
f 130/130/130 129/129/129 125/125/125
f 125/125/125 127/127/127 131/131/131
f 131/131/131 130/130/130 125/125/125
f 132/132/132 130/130/130 131/131/131
f 131/131/131 127/127/127 133/133/133
f 131/131/131 133/133/133 134/134/134
f 131/131/131 134/134/134 135/135/135
f 138/138/138 137/137/137 136/136/136
f 138/138/138 136/136/136 139/139/139
f 140/140/140 138/138/138 139/139/139
f 141/141/141 140/140/140 139/139/139
f 141/141/141 139/139/139 142/142/142
f 140/140/140 143/143/143 138/138/138
f 141/141/141 144/144/144 140/140/140
f 144/144/144 143/143/143 140/140/140
f 143/143/143 145/145/145 138/138/138
f 138/138/138 145/145/145 146/146/146
f 146/146/146 145/145/145 147/147/147
f 145/145/145 143/143/143 148/148/148
f 145/145/145 148/148/148 147/147/147
f 143/143/143 144/144/144 148/148/148
f 147/147/147 148/148/148 149/149/149
f 150/150/150 144/144/144 141/141/141
f 148/148/148 144/144/144 150/150/150
f 151/151/151 141/141/141 142/142/142
f 151/151/151 150/150/150 141/141/141
f 148/148/148 150/150/150 152/152/152
f 148/148/148 152/152/152 149/149/149
f 150/150/150 151/151/151 152/152/152
f 153/153/153 151/151/151 142/142/142
f 151/151/151 153/153/153 152/152/152
f 153/153/153 142/142/142 154/154/154
f 155/155/155 153/153/153 154/154/154
f 154/154/154 156/156/156 155/155/155
f 157/157/157 152/152/152 153/153/153
f 149/149/149 152/152/152 157/157/157
f 158/158/158 149/149/149 157/157/157
f 161/161/161 160/160/160 159/159/159
f 162/162/162 160/160/160 161/161/161
f 162/162/162 163/163/163 160/160/160
f 164/164/164 162/162/162 161/161/161
f 165/165/165 163/163/163 162/162/162
f 166/166/166 162/162/162 164/164/164
f 166/166/166 165/165/165 162/162/162
f 167/167/167 166/166/166 164/164/164
f 165/165/165 166/166/166 168/168/168
f 169/169/169 166/166/166 167/167/167
f 166/166/166 169/169/169 168/168/168
f 170/170/170 169/169/169 167/167/167
f 171/171/171 168/168/168 169/169/169
f 172/172/172 169/169/169 170/170/170
f 172/172/172 171/171/171 169/169/169
f 173/173/173 172/172/172 170/170/170
f 174/174/174 171/171/171 172/172/172
f 175/175/175 172/172/172 173/173/173
f 175/175/175 174/174/174 172/172/172
f 176/176/176 175/175/175 173/173/173
f 177/177/177 174/174/174 175/175/175
f 177/177/177 175/175/175 176/176/176
f 178/178/178 177/177/177 176/176/176
f 179/179/179 177/177/177 178/178/178
