g body_geo_alpha
v -0.6686478 0.867868 0.06033199
v -0.7391216 0.8709043 0.1355409
v -0.7779275 0.8524474 0.06456903
v -0.7439178 0.8648826 -0.01007865
v -0.7439178 0.8648826 -0.01007865
v -0.6722361 0.8478844 -0.04845361
v -0.6686478 0.867868 0.06033199
v -0.5981739 0.8648317 -0.01487689
v -0.7391216 0.8709043 0.1355409
v -0.6686478 0.867868 0.06033199
v -0.665028 0.8569342 0.1703951
v -0.5933777 0.8708535 0.1307426
v -0.5981739 0.8648317 -0.01487689
v -0.5593367 0.8523712 0.05737244
v -0.6686478 0.867868 0.06033199
v -0.5933777 0.8708535 0.1307426
v -0.4689388 0.8682435 0.06991641
v -0.4019906 0.8682435 0.1385841
v -0.4702283 0.8538533 0.1716167
v -0.5376065 0.8682435 0.1368646
v -0.5376065 0.8682435 0.1368646
v -0.5708461 0.8538533 0.06862429
v -0.4689388 0.8682435 0.06991641
v -0.5358871 0.8682435 0.001248703
v -0.4019906 0.8682435 0.1385841
v -0.4689388 0.8682435 0.06991641
v -0.3670315 0.8538533 0.07120851
v -0.4002711 0.8682435 0.00296813
v -0.5358871 0.8682435 0.001248703
v -0.4676495 0.8538533 -0.03178396
v -0.4689388 0.8682435 0.06991641
v -0.4002711 0.8682435 0.00296813
v -0.3842538 0.918403 -0.03927236
v -0.3818896 0.918403 0.05729248
v -0.4504201 0.9473629 0.03480637
v -0.4639352 0.9729688 -0.03732151
v -0.4639352 0.9729688 -0.03732151
v -0.4540912 0.9474461 -0.1101687
v -0.3842538 0.918403 -0.03927236
v -0.386618 0.918403 -0.1358372
v -0.3818896 0.918403 0.05729248
v -0.3842538 0.918403 -0.03927236
v -0.3307864 0.8654404 0.03202477
v -0.3045723 0.8638372 -0.04122324
v -0.386618 0.918403 -0.1358372
v -0.3344575 0.8655236 -0.1129503
v -0.3842538 0.918403 -0.03927236
v -0.3045723 0.8638372 -0.04122324
v -0.4835377 0.8726775 -0.1260695
v -0.4809746 0.8726775 -0.02138225
v -0.560122 0.8569645 -0.04564094
v -0.5882249 0.8726775 -0.1235064
v -0.5882249 0.8726775 -0.1235064
v -0.5641298 0.8569645 -0.2028097
v -0.4835377 0.8726775 -0.1260695
v -0.4861008 0.8726775 -0.2307568
v -0.4809746 0.8726775 -0.02138225
v -0.4835377 0.8726775 -0.1260695
v -0.4029454 0.8569645 -0.04932932
v -0.3788504 0.8726775 -0.1286326
v -0.4861008 0.8726775 -0.2307568
v -0.4069533 0.8569645 -0.2064981
v -0.4835377 0.8726775 -0.1260695
v -0.3788504 0.8726775 -0.1286326
v -0.682653 0.8729306 -0.1418311
v -0.7906803 0.8729306 -0.1380613
v -0.7664913 0.8567114 -0.2200154
v -0.6864226 0.8729306 -0.2498584
v -0.6864226 0.8729306 -0.2498584
v -0.6043095 0.8567114 -0.2258399
v -0.682653 0.8729306 -0.1418311
v -0.5746256 0.8729306 -0.1456008
v -0.7906803 0.8729306 -0.1380613
v -0.682653 0.8729306 -0.1418311
v -0.7609964 0.8567114 -0.05782223
v -0.6788833 0.8729306 -0.03380369
v -0.5746256 0.8729306 -0.1456008
v -0.5988147 0.8567114 -0.06364677
v -0.682653 0.8729306 -0.1418311
v -0.6788833 0.8729306 -0.03380369
v -0.01231447 0.9231903 0.03220886
v -0.1425149 0.9333489 0.157195
v -0.2036826 0.9079549 0.02829869
v -0.1373006 0.9333489 -0.09799164
v -0.1373006 0.9333489 -0.09799164
v -0.008396073 0.9079549 -0.1595487
v -0.01231447 0.9231903 0.03220886
v 0.1178861 0.9333489 -0.09277725
v -0.1425149 0.9333489 0.157195
v -0.01231447 0.9231903 0.03220886
v -0.01623281 0.9079549 0.2239664
v 0.1126716 0.9333489 0.1624094
v 0.1178861 0.9333489 -0.09277725
v 0.1790537 0.9079549 0.03611908
v -0.01231447 0.9231903 0.03220886
v 0.1126716 0.9333489 0.1624094
vt 0.5922852 0.7299805
vt 0.5922852 0.5825195
vt 0.7045898 0.6181641
vt 0.7402344 0.7299805
vt 0.7402344 0.7299805
vt 0.7045898 0.6181641
vt 0.5922852 0.7299805
vt 0.5922852 0.5825195
vt 0.5922852 0.5825195
vt 0.5922852 0.7299805
vt 0.7045898 0.6181641
vt 0.7402344 0.7299805
vt 0.5922852 0.5825195
vt 0.7045898 0.6181641
vt 0.5922852 0.7299805
vt 0.7402344 0.7299805
vt 0.5922852 0.7299805
vt 0.5922852 0.5825195
vt 0.7045898 0.6181641
vt 0.7402344 0.7299805
vt 0.7402344 0.7299805
vt 0.7045898 0.6181641
vt 0.5922852 0.7299805
vt 0.5922852 0.5825195
vt 0.5922852 0.5825195
vt 0.5922852 0.7299805
vt 0.7045898 0.6181641
vt 0.7402344 0.7299805
vt 0.5922852 0.5825195
vt 0.7045898 0.6181641
vt 0.5922852 0.7299805
vt 0.7402344 0.7299805
vt 0.5922852 0.7299805
vt 0.5922852 0.5825195
vt 0.7045898 0.6181641
vt 0.7402344 0.7299805
vt 0.7402344 0.7299805
vt 0.7045898 0.6181641
vt 0.5922852 0.7299805
vt 0.5922852 0.5825195
vt 0.5922852 0.5825195
vt 0.5922852 0.7299805
vt 0.7045898 0.6181641
vt 0.7402344 0.7299805
vt 0.5922852 0.5825195
vt 0.7045898 0.6181641
vt 0.5922852 0.7299805
vt 0.7402344 0.7299805
vt 0.5922852 0.7299805
vt 0.5922852 0.5825195
vt 0.7045898 0.6181641
vt 0.7402344 0.7299805
vt 0.7402344 0.7299805
vt 0.7045898 0.6181641
vt 0.5922852 0.7299805
vt 0.5922852 0.5825195
vt 0.5922852 0.5825195
vt 0.5922852 0.7299805
vt 0.7045898 0.6181641
vt 0.7402344 0.7299805
vt 0.5922852 0.5825195
vt 0.7045898 0.6181641
vt 0.5922852 0.7299805
vt 0.7402344 0.7299805
vt 0.5922852 0.7299805
vt 0.5922852 0.5825195
vt 0.7045898 0.6181641
vt 0.7402344 0.7299805
vt 0.7402344 0.7299805
vt 0.7045898 0.6181641
vt 0.5922852 0.7299805
vt 0.5922852 0.5825195
vt 0.5922852 0.5825195
vt 0.5922852 0.7299805
vt 0.7045898 0.6181641
vt 0.7402344 0.7299805
vt 0.5922852 0.5825195
vt 0.7045898 0.6181641
vt 0.5922852 0.7299805
vt 0.7402344 0.7299805
vt 0.5922852 0.7299805
vt 0.5922852 0.5825195
vt 0.7045898 0.6181641
vt 0.7402344 0.7299805
vt 0.7402344 0.7299805
vt 0.7045898 0.6181641
vt 0.5922852 0.7299805
vt 0.5922852 0.5825195
vt 0.5922852 0.5825195
vt 0.5922852 0.7299805
vt 0.7045898 0.6181641
vt 0.7402344 0.7299805
vt 0.5922852 0.5825195
vt 0.7045898 0.6181641
vt 0.5922852 0.7299805
vt 0.7402344 0.7299805
vn -0.001010895 0.9990234 -0.04129028
vn -0.000872612 0.9990234 -0.04116821
vn -0.1409912 0.9892578 -0.03625488
vn -0.0008811951 0.9990234 -0.04141235
vn -0.0008811951 0.9990234 -0.04141235
vn -0.005599976 0.9833984 -0.180542
vn -0.001010895 0.9990234 -0.04129028
vn -0.001149178 0.9990234 -0.04141235
vn -0.000872612 0.9990234 -0.04116821
vn -0.001010895 0.9990234 -0.04129028
vn 0.00359726 0.9951172 0.09875488
vn -0.001140594 0.9990234 -0.0411377
vn -0.001149178 0.9990234 -0.04141235
vn 0.1390381 0.9892578 -0.04547119
vn -0.001010895 0.9990234 -0.04129028
vn -0.001140594 0.9990234 -0.0411377
vn -0 1 0
vn 0.000135541 1 -0.0001322031
vn -0.001775742 0.9902344 0.1401367
vn -0.0001320839 1 -0.000135541
vn -0.0001320839 1 -0.000135541
vn -0.1397705 0.9902344 -0.001771927
vn -0 1 0
vn -0.000135541 1 0.0001325607
vn 0.000135541 1 -0.0001322031
vn -0 1 0
vn 0.1397705 0.9902344 0.001772881
vn 0.0001320839 1 0.0001354218
vn -0.000135541 1 0.0001325607
vn 0.001775742 0.9902344 -0.1401367
vn -0 1 0
vn 0.0001320839 1 0.0001354218
vn 0.5649414 0.8251953 -0.01382446
vn 0.5649414 0.8251953 -0.01383209
vn 0.4799805 0.8730469 0.08734131
vn 0.5649414 0.8251953 -0.0140152
vn 0.5649414 0.8251953 -0.0140152
vn 0.4750977 0.8730469 -0.1105347
vn 0.5649414 0.8251953 -0.01382446
vn 0.5644531 0.8251953 -0.01382446
vn 0.5649414 0.8251953 -0.01383209
vn 0.5649414 0.8251953 -0.01382446
vn 0.6430664 0.7612305 0.08312988
vn 0.5649414 0.8251953 -0.01363373
vn 0.5644531 0.8251953 -0.01382446
vn 0.6386719 0.7612305 -0.1147461
vn 0.5649414 0.8251953 -0.01382446
vn 0.5649414 0.8251953 -0.01363373
vn -0 1 0
vn 0.0001891851 1 -4.649162E-06
vn -0.09661865 0.9902344 0.1014404
vn -4.649162E-06 1 -0.0001893044
vn -4.649162E-06 1 -0.0001893044
vn -0.1012573 0.9902344 -0.09643555
vn -0 1 0
vn -0.0001890659 1 4.649162E-06
vn 0.0001891851 1 -4.649162E-06
vn -0 1 0
vn 0.1012573 0.9902344 0.09643555
vn 4.649162E-06 1 0.000189662
vn -0.0001890659 1 4.649162E-06
vn 0.09661865 0.9902344 -0.1014404
vn -0 1 0
vn 4.649162E-06 1 0.000189662
vn -0 1 0
vn 6.616116E-06 1 0.0001884699
vn -0.102478 0.9902344 -0.09552002
vn 0.0001890659 1 -6.616116E-06
vn 0.0001890659 1 -6.616116E-06
vn 0.09533691 0.9902344 -0.1022339
vn -0 1 0
vn -6.556511E-06 1 -0.0001894236
vn 6.616116E-06 1 0.0001884699
vn -0 1 0
vn -0.09533691 0.9902344 0.1022339
vn -0.0001890659 1 7.152557E-06
vn -6.556511E-06 1 -0.0001894236
vn 0.102478 0.9902344 0.09552002
vn -0 1 0
vn -0.0001890659 1 7.152557E-06
vn -0 1 0
vn 0.04067993 0.9985352 -0.03875732
vn -0.0793457 0.9970703 -0.001621246
vn 0.0390625 0.9985352 0.04037476
vn 0.0390625 0.9985352 0.04037476
vn 0.001617432 0.9970703 -0.0791626
vn -0 1 0
vn -0.04067993 0.9985352 0.03875732
vn 0.04067993 0.9985352 -0.03875732
vn -0 1 0
vn -0.001617432 0.9970703 0.0791626
vn -0.0390625 0.9985352 -0.04037476
vn -0.04067993 0.9985352 0.03875732
vn 0.0793457 0.9970703 0.001621246
vn -0 1 0
vn -0.0390625 0.9985352 -0.04037476
g body_geo_alpha_0
f 3/3/3 2/2/2 1/1/1
f 1/1/1 4/4/4 3/3/3
f 7/7/7 6/6/6 5/5/5
f 7/7/7 8/8/8 6/6/6
f 11/11/11 10/10/10 9/9/9
f 11/11/11 12/12/12 10/10/10
f 15/15/15 14/14/14 13/13/13
f 15/15/15 16/16/16 14/14/14
f 19/19/19 18/18/18 17/17/17
f 17/17/17 20/20/20 19/19/19
f 23/23/23 22/22/22 21/21/21
f 23/23/23 24/24/24 22/22/22
f 27/27/27 26/26/26 25/25/25
f 27/27/27 28/28/28 26/26/26
f 31/31/31 30/30/30 29/29/29
f 31/31/31 32/32/32 30/30/30
f 35/35/35 34/34/34 33/33/33
f 33/33/33 36/36/36 35/35/35
f 39/39/39 38/38/38 37/37/37
f 39/39/39 40/40/40 38/38/38
f 43/43/43 42/42/42 41/41/41
f 43/43/43 44/44/44 42/42/42
f 47/47/47 46/46/46 45/45/45
f 47/47/47 48/48/48 46/46/46
f 51/51/51 50/50/50 49/49/49
f 49/49/49 52/52/52 51/51/51
f 55/55/55 54/54/54 53/53/53
f 55/55/55 56/56/56 54/54/54
f 59/59/59 58/58/58 57/57/57
f 59/59/59 60/60/60 58/58/58
f 63/63/63 62/62/62 61/61/61
f 63/63/63 64/64/64 62/62/62
f 67/67/67 66/66/66 65/65/65
f 65/65/65 68/68/68 67/67/67
f 71/71/71 70/70/70 69/69/69
f 71/71/71 72/72/72 70/70/70
f 75/75/75 74/74/74 73/73/73
f 75/75/75 76/76/76 74/74/74
f 79/79/79 78/78/78 77/77/77
f 79/79/79 80/80/80 78/78/78
f 83/83/83 82/82/82 81/81/81
f 81/81/81 84/84/84 83/83/83
f 87/87/87 86/86/86 85/85/85
f 87/87/87 88/88/88 86/86/86
f 91/91/91 90/90/90 89/89/89
f 91/91/91 92/92/92 90/90/90
f 95/95/95 94/94/94 93/93/93
f 95/95/95 96/96/96 94/94/94
