g facial_mouth_geo
v 0.09263759 1.144714 0.07878884
v 0.08215977 1.129373 0.09954807
v 0.08437643 1.142657 0.1006157
v 0.0877341 1.12623 0.07328568
v 0.07280014 1.1308 0.1106454
v 0.07542004 1.144289 0.1093532
v 0.07696898 1.111178 0.09282188
v 0.08168469 1.110426 0.06499235
v 0.05897999 1.137597 0.1204533
v 0.0619496 1.14793 0.1183223
v 0.04372127 1.153985 0.1263932
v 0.06838901 1.11657 0.1101685
v 0.0691704 1.097853 0.08104645
v 0.06135641 1.102753 0.104629
v 0.06016085 1.08916 0.06243701
v 0.07496434 1.101348 0.0457058
v 0.06816725 1.093529 0.03842751
v 0.05324863 1.08497 0.05472976
v 0.04642114 1.081975 0.07517135
v 0.03972929 1.078842 0.06744063
v 0.05123148 1.08886 0.09272829
v 0.03067756 1.075569 0.08940122
v 0.0275462 1.0737 0.08066376
v 0.04806615 1.101543 0.1145157
v 0.009083862 1.069108 0.1018903
v 0.00847696 1.067533 0.09289647
v 4.952763E-18 1.065851 0.09643684
v 0.05138157 1.115045 0.1204981
v 0.05525992 1.127199 0.1220925
v 0.04079908 1.133811 0.1307097
v 0.03545333 1.124457 0.1317229
v 0.02217454 1.138954 0.1447547
v 0.02367561 1.156944 0.1362273
v 0.03366253 1.111935 0.128659
v 0.0183263 1.109663 0.1330028
v 0.03371331 1.100821 0.1211673
v 0.0343205 1.089906 0.1106422
v 0.01990159 1.122649 0.1373791
v 9.993298E-18 1.120327 0.1411891
v 1.102299E-17 1.143743 0.1559517
v 1.199039E-17 1.159268 0.1429749
v -0.02367561 1.156944 0.1362273
v -0.02217454 1.138954 0.1447547
v -0.04372127 1.153985 0.1263932
v 0.01742931 1.098957 0.1267892
v 0.03222597 1.081912 0.1014679
v 0.01514943 1.082931 0.1150464
v 0.01218272 1.074827 0.1076156
v 4.884947E-18 1.067304 0.1062156
v 5.213181E-18 1.073055 0.1121999
v 4.96821E-18 1.081914 0.1180214
v 1.051426E-17 1.098649 0.1299416
v -0.009083914 1.069108 0.1018903
v -0.008477024 1.067533 0.09289645
v -0.02754636 1.0737 0.08066373
v -0.01218275 1.074827 0.1076156
v -0.03067767 1.075569 0.08940119
v -0.03972938 1.078842 0.06744061
v -0.01514942 1.082931 0.1150464
v 1.032729E-17 1.10718 0.1356082
v -0.0183263 1.109663 0.1330028
v -0.01742931 1.098957 0.1267892
v -0.03222593 1.082048 0.1014844
v -0.04642124 1.081964 0.07517021
v -0.05324862 1.08497 0.05472976
v -0.03432101 1.089969 0.1106519
v -0.05123301 1.088919 0.09273544
v -0.06016074 1.08916 0.06243703
v -0.06816721 1.093529 0.03842752
v -0.07496423 1.101348 0.04570582
v -0.08168454 1.110426 0.06499239
v -0.06917019 1.097854 0.08104649
v -0.03371344 1.100825 0.1211678
v -0.07696877 1.111178 0.09282193
v -0.087734 1.12623 0.0732857
v -0.04806816 1.101584 0.1145216
v -0.06135796 1.102772 0.1046315
v -0.08215974 1.129373 0.09954807
v -0.09263758 1.144714 0.07878884
v -0.0843764 1.142657 0.1006157
v -0.06838887 1.116571 0.1101686
v -0.07280011 1.1308 0.1106454
v -0.07542001 1.144289 0.1093532
v -0.03366252 1.111935 0.128659
v -0.05138198 1.115059 0.1204982
v -0.05897997 1.137597 0.1204533
v -0.06194958 1.14793 0.1183223
v -0.03545333 1.124457 0.1317229
v -0.0552599 1.127199 0.1220925
v -0.04079907 1.133811 0.1307097
v -0.01990157 1.122644 0.1373791
vt 0.355957 0.3664551
vt 0.329834 0.3520508
vt 0.3342285 0.362793
vt 0.3518066 0.3464355
vt 0.3171387 0.3535156
vt 0.3227539 0.3637695
vt 0.3254395 0.3361816
vt 0.3486328 0.3320312
vt 0.3029785 0.3581543
vt 0.307373 0.3662109
vt 0.2900391 0.371582
vt 0.3112793 0.342041
vt 0.3220215 0.3212891
vt 0.3054199 0.3288574
vt 0.3205566 0.3044434
vt 0.34375 0.3166504
vt 0.3425293 0.3034668
vt 0.3164062 0.2941895
vt 0.3005371 0.2971191
vt 0.2978516 0.2890625
vt 0.2993164 0.3112793
vt 0.2802734 0.2905273
vt 0.2800293 0.2839355
vt 0.2910156 0.3266602
vt 0.2568359 0.2851562
vt 0.2548828 0.2780762
vt 0.25 0.2780762
vt 0.2937012 0.3393555
vt 0.2980957 0.3496094
vt 0.2849121 0.3547363
vt 0.2792969 0.3466797
vt 0.2668457 0.3588867
vt 0.2702637 0.3740234
vt 0.2773438 0.3354492
vt 0.2644043 0.3325195
vt 0.277832 0.3244629
vt 0.279541 0.3139648
vt 0.2658691 0.3442383
vt 0.25 0.3417969
vt 0.25 0.3618164
vt 0.25 0.3764648
vt 0.2297363 0.3740234
vt 0.2331543 0.3588867
vt 0.210083 0.371582
vt 0.2636719 0.3212891
vt 0.2788086 0.3007812
vt 0.2629395 0.3022461
vt 0.2592773 0.2915039
vt 0.25 0.2851562
vt 0.25 0.2915039
vt 0.25 0.3022461
vt 0.25 0.3210449
vt 0.2431641 0.2851562
vt 0.2451172 0.2780762
vt 0.2198486 0.2839355
vt 0.2406006 0.2915039
vt 0.2198486 0.2905273
vt 0.2020264 0.2890625
vt 0.2371826 0.3022461
vt 0.25 0.3300781
vt 0.2354736 0.3325195
vt 0.2364502 0.3212891
vt 0.2213135 0.3007812
vt 0.1993408 0.2971191
vt 0.1835938 0.2941895
vt 0.220459 0.3139648
vt 0.2005615 0.3112793
vt 0.1794434 0.3044434
vt 0.1575928 0.3034668
vt 0.1561279 0.3166504
vt 0.1513672 0.3320312
vt 0.1778564 0.3212891
vt 0.22229 0.3244629
vt 0.1745605 0.3361816
vt 0.1480713 0.3464355
vt 0.2089844 0.3266602
vt 0.194458 0.3288574
vt 0.1700439 0.3520508
vt 0.144165 0.3664551
vt 0.1657715 0.362793
vt 0.1887207 0.342041
vt 0.1827393 0.3535156
vt 0.177124 0.3637695
vt 0.2226562 0.3354492
vt 0.2062988 0.3393555
vt 0.1970215 0.3581543
vt 0.192627 0.3662109
vt 0.2207031 0.3466797
vt 0.2019043 0.3496094
vt 0.21521 0.3547363
vt 0.2340088 0.3442383
vn 0.9435695 -0.2202893 0.2472841
vn 0.8686701 -0.3003392 0.3939654
vn 0.8399891 -0.1011007 0.5331013
vn 0.9487183 -0.2492367 0.1944598
vn 0.6255165 -0.1273423 0.7697487
vn 0.565527 0.02745843 0.8242725
vn 0.8016352 -0.5104317 0.3111922
vn 0.8985839 -0.4264447 0.1034008
vn 0.5173627 0.01319652 0.8556645
vn 0.4553058 0.1259945 0.881375
vn 0.4480318 0.2519443 0.857783
vn 0.6353486 -0.3848557 0.6694911
vn 0.6699865 -0.723576 0.1659991
vn 0.5710313 -0.6629389 0.4841851
vn 0.5879165 -0.8068783 0.05745871
vn 0.7982017 -0.5999151 0.05455186
vn 0.5645227 -0.8135253 -0.1396088
vn 0.4423623 -0.8944309 -0.06564277
vn 0.4840268 -0.8695873 0.09765224
vn 0.4017267 -0.9137767 -0.06023106
vn 0.5241175 -0.7874243 0.3244436
vn 0.4293094 -0.8807323 0.20001
vn 0.3869065 -0.9184214 -0.08249477
vn 0.4592825 -0.6168903 0.6391447
vn 0.3808165 -0.8527949 0.3573788
vn 0.2801623 -0.952545 -0.1190256
vn -0 -0.9955997 -0.09370793
vn 0.4807448 -0.3570795 0.8008611
vn 0.5185518 -0.1856401 0.8346508
vn 0.5266898 0.08804432 0.8454857
vn 0.4318712 -0.2805346 0.8571975
vn 0.4520704 0.1245755 0.8832402
vn 0.4529942 0.3455825 0.8218083
vn 0.3620613 -0.4118213 0.8362504
vn 0.2547648 -0.4524283 0.8546364
vn 0.3485622 -0.5752955 0.7399591
vn 0.404938 -0.6723399 0.6196647
vn 0.2794592 -0.3902252 0.8772838
vn 1.464816E-05 -0.4603504 0.8877373
vn 3.701995E-07 0.1757886 0.984428
vn -1.16723E-07 0.4514386 0.8923021
vn -0.4529936 0.3455823 0.8218088
vn -0.4520637 0.1245699 0.8832445
vn -0.448031 0.2519443 0.8577833
vn 0.258687 -0.5692786 0.7803864
vn 0.4431801 -0.7734891 0.4531072
vn 0.2859969 -0.6234738 0.727658
vn 0.4126817 -0.7292869 0.5457422
vn 2.010734E-06 -0.8819127 0.4714129
vn 3.831938E-07 -0.6989353 0.7151849
vn -0 -0.5854592 0.8107019
vn -1.338274E-07 -0.5687139 0.8225355
vn -0.3808149 -0.8527945 0.3573815
vn -0.2801624 -0.9525448 -0.1190267
vn -0.3867254 -0.9184866 -0.08261792
vn -0.4141071 -0.7285902 0.545593
vn -0.4302965 -0.8795865 0.20291
vn -0.4015933 -0.9138223 -0.06043032
vn -0.2868073 -0.6237911 0.7270669
vn -1.491167E-07 -0.4797667 0.8773961
vn -0.2547717 -0.4524768 0.8546087
vn -0.2589277 -0.5694479 0.780183
vn -0.4440723 -0.7721148 0.4545751
vn -0.4841391 -0.8694327 0.09846989
vn -0.4423276 -0.8944354 -0.06581569
vn -0.4051529 -0.6733712 0.618403
vn -0.5232799 -0.7874048 0.3258402
vn -0.5879872 -0.8068386 0.05729375
vn -0.5645227 -0.8135256 -0.1396074
vn -0.7982019 -0.5999149 0.05455039
vn -0.898584 -0.4264448 0.1034001
vn -0.6697094 -0.7237531 0.1663455
vn -0.3491845 -0.5756775 0.7393684
vn -0.801562 -0.510518 0.3112391
vn -0.9487182 -0.2492368 0.1944601
vn -0.4590616 -0.6174132 0.6387985
vn -0.570199 -0.6635705 0.4843009
vn -0.8686682 -0.300345 0.3939651
vn -0.9435694 -0.2202893 0.2472844
vn -0.8399889 -0.1011006 0.5331016
vn -0.6352078 -0.3849942 0.669545
vn -0.6255044 -0.1273457 0.7697579
vn -0.5655269 0.02745834 0.8242726
vn -0.3621889 -0.4118989 0.8361569
vn -0.4807292 -0.3572834 0.8007796
vn -0.5173631 0.01319639 0.8556641
vn -0.4553057 0.1259946 0.8813751
vn -0.4319249 -0.2805682 0.8571596
vn -0.518562 -0.185749 0.8346201
vn -0.5266903 0.08804436 0.8454853
vn -0.2794556 -0.3902147 0.8772896
g facial_mouth_geo_0
f 3/3/3 2/2/2 1/1/1
f 2/2/2 4/4/4 1/1/1
f 2/2/2 3/3/3 5/5/5
f 3/3/3 6/6/6 5/5/5
f 2/2/2 7/7/7 4/4/4
f 8/8/8 4/4/4 7/7/7
f 5/5/5 6/6/6 9/9/9
f 6/6/6 10/10/10 9/9/9
f 11/11/11 9/9/9 10/10/10
f 2/2/2 12/12/12 7/7/7
f 2/2/2 5/5/5 12/12/12
f 8/8/8 7/7/7 13/13/13
f 7/7/7 12/12/12 14/14/14
f 13/13/13 7/7/7 14/14/14
f 8/8/8 13/13/13 15/15/15
f 15/15/15 16/16/16 8/8/8
f 17/17/17 16/16/16 15/15/15
f 18/18/18 17/17/17 15/15/15
f 18/18/18 15/15/15 19/19/19
f 19/19/19 15/15/15 13/13/13
f 20/20/20 18/18/18 19/19/19
f 13/13/13 14/14/14 21/21/21
f 13/13/13 21/21/21 19/19/19
f 20/20/20 19/19/19 22/22/22
f 21/21/21 22/22/22 19/19/19
f 23/23/23 20/20/20 22/22/22
f 24/24/24 14/14/14 12/12/12
f 14/14/14 24/24/24 21/21/21
f 25/25/25 23/23/23 22/22/22
f 25/25/25 26/26/26 23/23/23
f 26/26/26 25/25/25 27/27/27
f 12/12/12 28/28/28 24/24/24
f 28/28/28 12/12/12 5/5/5
f 5/5/5 29/29/29 28/28/28
f 5/5/5 9/9/9 29/29/29
f 30/30/30 29/29/29 9/9/9
f 11/11/11 30/30/30 9/9/9
f 28/28/28 29/29/29 31/31/31
f 29/29/29 30/30/30 31/31/31
f 30/30/30 11/11/11 32/32/32
f 32/32/32 31/31/31 30/30/30
f 11/11/11 33/33/33 32/32/32
f 24/24/24 28/28/28 34/34/34
f 28/28/28 31/31/31 34/34/34
f 35/35/35 34/34/34 31/31/31
f 24/24/24 34/34/34 36/36/36
f 36/36/36 34/34/34 35/35/35
f 24/24/24 36/36/36 37/37/37
f 24/24/24 37/37/37 21/21/21
f 32/32/32 38/38/38 31/31/31
f 31/31/31 38/38/38 35/35/35
f 32/32/32 39/39/39 38/38/38
f 38/38/38 39/39/39 35/35/35
f 40/40/40 32/32/32 33/33/33
f 32/32/32 40/40/40 39/39/39
f 41/41/41 40/40/40 33/33/33
f 40/40/40 41/41/41 42/42/42
f 43/43/43 40/40/40 42/42/42
f 40/40/40 43/43/43 39/39/39
f 42/42/42 44/44/44 43/43/43
f 36/36/36 45/45/45 37/37/37
f 45/45/45 36/36/36 35/35/35
f 21/21/21 37/37/37 46/46/46
f 22/22/22 21/21/21 46/46/46
f 46/46/46 37/37/37 47/47/47
f 45/45/45 47/47/47 37/37/37
f 48/48/48 22/22/22 46/46/46
f 46/46/46 47/47/47 48/48/48
f 25/25/25 22/22/22 48/48/48
f 25/25/25 48/48/48 49/49/49
f 25/25/25 49/49/49 27/27/27
f 47/47/47 50/50/50 48/48/48
f 48/48/48 50/50/50 49/49/49
f 47/47/47 45/45/45 51/51/51
f 47/47/47 51/51/51 50/50/50
f 45/45/45 35/35/35 52/52/52
f 45/45/45 52/52/52 51/51/51
f 49/49/49 53/53/53 27/27/27
f 53/53/53 54/54/54 27/27/27
f 54/54/54 53/53/53 55/55/55
f 50/50/50 56/56/56 49/49/49
f 56/56/56 53/53/53 49/49/49
f 55/55/55 53/53/53 57/57/57
f 57/57/57 53/53/53 56/56/56
f 58/58/58 55/55/55 57/57/57
f 51/51/51 59/59/59 50/50/50
f 50/50/50 59/59/59 56/56/56
f 35/35/35 60/60/60 52/52/52
f 60/60/60 61/61/61 52/52/52
f 60/60/60 35/35/35 39/39/39
f 61/61/61 60/60/60 39/39/39
f 52/52/52 62/62/62 51/51/51
f 62/62/62 59/59/59 51/51/51
f 61/61/61 62/62/62 52/52/52
f 59/59/59 63/63/63 56/56/56
f 57/57/57 56/56/56 63/63/63
f 64/64/64 58/58/58 57/57/57
f 65/65/65 58/58/58 64/64/64
f 59/59/59 62/62/62 66/66/66
f 66/66/66 63/63/63 59/59/59
f 67/67/67 57/57/57 63/63/63
f 57/57/57 67/67/67 64/64/64
f 66/66/66 67/67/67 63/63/63
f 68/68/68 65/65/65 64/64/64
f 69/69/69 65/65/65 68/68/68
f 70/70/70 69/69/69 68/68/68
f 70/70/70 68/68/68 71/71/71
f 68/68/68 64/64/64 72/72/72
f 72/72/72 71/71/71 68/68/68
f 67/67/67 72/72/72 64/64/64
f 62/62/62 73/73/73 66/66/66
f 73/73/73 62/62/62 61/61/61
f 74/74/74 71/71/71 72/72/72
f 75/75/75 71/71/71 74/74/74
f 66/66/66 76/76/76 67/67/67
f 73/73/73 76/76/76 66/66/66
f 77/77/77 72/72/72 67/67/67
f 74/74/74 72/72/72 77/77/77
f 76/76/76 77/77/77 67/67/67
f 74/74/74 78/78/78 75/75/75
f 75/75/75 78/78/78 79/79/79
f 78/78/78 80/80/80 79/79/79
f 81/81/81 74/74/74 77/77/77
f 81/81/81 78/78/78 74/74/74
f 77/77/77 76/76/76 81/81/81
f 80/80/80 78/78/78 82/82/82
f 82/82/82 78/78/78 81/81/81
f 83/83/83 80/80/80 82/82/82
f 84/84/84 76/76/76 73/73/73
f 84/84/84 73/73/73 61/61/61
f 85/85/85 81/81/81 76/76/76
f 85/85/85 76/76/76 84/84/84
f 81/81/81 85/85/85 82/82/82
f 83/83/83 82/82/82 86/86/86
f 87/87/87 83/83/83 86/86/86
f 86/86/86 44/44/44 87/87/87
f 84/84/84 61/61/61 88/88/88
f 88/88/88 85/85/85 84/84/84
f 89/89/89 82/82/82 85/85/85
f 86/86/86 82/82/82 89/89/89
f 89/89/89 85/85/85 88/88/88
f 90/90/90 44/44/44 86/86/86
f 89/89/89 90/90/90 86/86/86
f 90/90/90 89/89/89 88/88/88
f 44/44/44 90/90/90 43/43/43
f 88/88/88 43/43/43 90/90/90
f 91/91/91 88/88/88 61/61/61
f 91/91/91 43/43/43 88/88/88
f 39/39/39 91/91/91 61/61/61
f 39/39/39 43/43/43 91/91/91
