g facial_eye_geo
v -0.09366298 1.164485 0.08207694
v -0.08415358 1.142657 0.1006157
v -0.09263757 1.144714 0.07878884
v -0.08690815 1.166774 0.09885951
v -0.09714588 1.190318 0.08356544
v -0.07521354 1.144289 0.1093532
v -0.09071325 1.191029 0.1004844
v -0.0780421 1.16708 0.1055722
v -0.06527704 1.167358 0.1113351
v -0.06180408 1.14793 0.1183223
v -0.04371553 1.153985 0.1263932
v -0.07121835 1.189188 0.1111815
v -0.09574301 1.216034 0.1074845
v -0.1012047 1.217395 0.08056699
v -0.09548567 1.233692 0.1082456
v -0.07577053 1.217033 0.122703
v -0.04278242 1.170356 0.1177613
v -0.07589602 1.237098 0.1252736
v -0.07263728 1.258161 0.1266176
v -0.04975299 1.256911 0.1348145
v -0.02363316 1.175644 0.1238625
v -0.02367561 1.156944 0.1362273
v 1.199039E-17 1.159268 0.1429749
v -0.04741634 1.200495 0.1254116
v -0.05157453 1.213563 0.1314367
v -0.05161477 1.234812 0.1347925
v -0.0447555 1.187546 0.1215199
v -0.02288006 1.186032 0.1258356
v 5.229061E-17 1.175745 0.1339516
v 5.581713E-17 1.191139 0.135628
v -0.02385281 1.198259 0.1321097
v -0.02601824 1.210332 0.1374267
v -0.02608426 1.23031 0.1400379
v 7.037188E-17 1.227328 0.1416589
v -0.02438403 1.254254 0.1398837
v 6.518959E-17 1.252075 0.1414555
v 0.02438403 1.254254 0.1398837
v 0.02363316 1.175644 0.1238625
v 0.02367561 1.156944 0.1362273
v 0.04371553 1.153985 0.1263932
v 0.02288006 1.186032 0.1258356
v 0.04278242 1.170356 0.1177613
v 7.407987E-17 1.207905 0.1395008
v 0.02608426 1.23031 0.1400379
v 0.04975299 1.256911 0.1348145
v 0.02601824 1.210332 0.1374267
v 0.05161477 1.234812 0.1347925
v 0.02385281 1.198259 0.1321097
v 0.07589602 1.237098 0.1252736
v 0.07263728 1.258161 0.1266176
v 0.09548567 1.233692 0.1082456
v 0.05157453 1.213563 0.1314367
v 0.04741634 1.200495 0.1254116
v 0.07577053 1.217033 0.122703
v 0.0447555 1.187546 0.1215199
v 0.07121835 1.189188 0.1111815
v 0.09574301 1.216034 0.1074845
v 0.1012047 1.217395 0.08056699
v 0.09714588 1.190318 0.08356544
v 0.09071325 1.191029 0.1004844
v 0.06527704 1.167358 0.1113351
v 0.06180408 1.14793 0.1183223
v 0.07521354 1.144289 0.1093532
v 0.0780421 1.16708 0.1055722
v 0.08690815 1.166774 0.09885951
v 0.09366298 1.164485 0.08207694
v 0.08415358 1.142657 0.1006157
v 0.09263757 1.144714 0.07878884
vt 0.1420898 0.3886719
vt 0.1658936 0.362793
vt 0.144165 0.3664551
vt 0.1623535 0.3852539
vt 0.1429443 0.4125977
vt 0.1772461 0.3637695
vt 0.1584473 0.4125977
vt 0.1729736 0.3845215
vt 0.1871338 0.3840332
vt 0.192627 0.3662109
vt 0.210083 0.371582
vt 0.1802979 0.4072266
vt 0.1582031 0.4355469
vt 0.1375732 0.4387207
vt 0.1577148 0.4533691
vt 0.1800537 0.4365234
vt 0.2086182 0.3869629
vt 0.1787109 0.4562988
vt 0.1804199 0.4777832
vt 0.2025146 0.4760742
vt 0.227417 0.392334
vt 0.2297363 0.3740234
vt 0.25 0.3764648
vt 0.2059326 0.4177246
vt 0.2034912 0.432373
vt 0.2019043 0.453125
vt 0.2075195 0.4040527
vt 0.2288818 0.4023438
vt 0.25 0.3928223
vt 0.25 0.4089355
vt 0.2293701 0.4157715
vt 0.2282715 0.4289551
vt 0.2276611 0.4494629
vt 0.25 0.4462891
vt 0.2280273 0.4731445
vt 0.25 0.4707031
vt 0.2719727 0.4731445
vt 0.2727051 0.392334
vt 0.2702637 0.3740234
vt 0.2900391 0.371582
vt 0.2712402 0.4023438
vt 0.2915039 0.3869629
vt 0.25 0.4265137
vt 0.2722168 0.4494629
vt 0.2976074 0.4760742
vt 0.2717285 0.4289551
vt 0.2980957 0.453125
vt 0.2705078 0.4157715
vt 0.3212891 0.4562988
vt 0.3195801 0.4777832
vt 0.3422852 0.4533691
vt 0.2966309 0.432373
vt 0.2941895 0.4177246
vt 0.3200684 0.4365234
vt 0.2924805 0.4040527
vt 0.3198242 0.4072266
vt 0.3417969 0.4355469
vt 0.3623047 0.4387207
vt 0.3571777 0.4125977
vt 0.3415527 0.4125977
vt 0.3127441 0.3840332
vt 0.307373 0.3662109
vt 0.3227539 0.3637695
vt 0.3269043 0.3845215
vt 0.3376465 0.3852539
vt 0.3579102 0.3886719
vt 0.3342285 0.362793
vt 0.355957 0.3664551
vn -0.9498169 -0.1669582 0.2645236
vn -0.8399889 -0.1011006 0.5331016
vn -0.9435694 -0.2202893 0.2472844
vn -0.8426421 -0.09151231 0.5306408
vn -0.9382147 -0.1734587 0.2994418
vn -0.5655269 0.02745834 0.8242726
vn -0.7315518 -0.2652461 0.6280738
vn -0.5524927 0.009926151 0.8334587
vn -0.4016169 0.06605729 0.9134223
vn -0.4553057 0.1259946 0.8813751
vn -0.448031 0.2519443 0.8577833
vn -0.3909122 -0.2662049 0.8810917
vn -0.7951418 -0.151361 0.5872301
vn -0.9720727 -0.1077747 0.2084691
vn -0.7059992 -0.02471807 0.7077811
vn -0.4729869 -0.2110188 0.8554265
vn -0.3511066 0.09967207 0.9310154
vn -0.4814928 -0.04256326 0.875416
vn -0.5010378 0.1387997 0.8542223
vn -0.2665111 0.1206485 0.9562509
vn -0.3574982 0.327343 0.8746666
vn -0.4529936 0.3455823 0.8218088
vn -1.16723E-07 0.4514386 0.8923021
vn -0.3098475 -0.4153479 0.8552665
vn -0.3060928 -0.2240196 0.9252689
vn -0.2850663 -0.05657709 0.9568365
vn -0.2886502 -0.2233094 0.9310284
vn -0.2923324 -0.2948266 0.9097357
vn -2.712802E-07 0.3841774 0.9232594
vn -0 -0.2407438 0.9705887
vn -0.2664737 -0.4449776 0.8549775
vn -0.1737609 -0.194999 0.9652888
vn -0.1452116 -0.05528447 0.9878548
vn -0 -0.05435323 0.9985217
vn -0.1257471 0.1375645 0.9824783
vn -0 0.1043253 0.9945432
vn 0.1257472 0.1375645 0.9824783
vn 0.3574978 0.3273427 0.8746669
vn 0.4529942 0.3455825 0.8218083
vn 0.4480318 0.2519443 0.857783
vn 0.2923319 -0.2948265 0.9097359
vn 0.3511068 0.0996721 0.9310153
vn -0 -0.1543994 0.9880085
vn 0.1452117 -0.05528449 0.9878548
vn 0.2665108 0.1206483 0.9562509
vn 0.1737607 -0.1949988 0.9652889
vn 0.2850664 -0.05657719 0.9568365
vn 0.2664741 -0.4449782 0.8549771
vn 0.481493 -0.04256342 0.8754158
vn 0.5010373 0.1387995 0.8542227
vn 0.7059987 -0.02471809 0.7077816
vn 0.3060931 -0.2240197 0.9252687
vn 0.3098468 -0.4153472 0.8552669
vn 0.4729872 -0.2110188 0.8554263
vn 0.2886502 -0.223309 0.9310285
vn 0.3909123 -0.2662048 0.8810917
vn 0.7951418 -0.1513609 0.5872301
vn 0.9720727 -0.1077748 0.2084691
vn 0.9382143 -0.1734586 0.2994428
vn 0.7315521 -0.265246 0.6280733
vn 0.401617 0.06605736 0.9134223
vn 0.4553058 0.1259945 0.881375
vn 0.565527 0.02745843 0.8242725
vn 0.5524934 0.009926189 0.8334582
vn 0.8426424 -0.09151239 0.5306404
vn 0.9498168 -0.1669581 0.2645243
vn 0.8399891 -0.1011007 0.5331013
vn 0.9435695 -0.2202893 0.2472841
g facial_eye_geo_0
f 3/3/3 2/2/2 1/1/1
f 2/2/2 4/4/4 1/1/1
f 5/5/5 1/1/1 4/4/4
f 2/2/2 6/6/6 4/4/4
f 7/7/7 5/5/5 4/4/4
f 6/6/6 8/8/8 4/4/4
f 8/8/8 7/7/7 4/4/4
f 9/9/9 8/8/8 6/6/6
f 10/10/10 9/9/9 6/6/6
f 10/10/10 11/11/11 9/9/9
f 9/9/9 12/12/12 8/8/8
f 7/7/7 8/8/8 12/12/12
f 13/13/13 5/5/5 7/7/7
f 13/13/13 14/14/14 5/5/5
f 15/15/15 14/14/14 13/13/13
f 7/7/7 16/16/16 13/13/13
f 13/13/13 16/16/16 15/15/15
f 12/12/12 16/16/16 7/7/7
f 11/11/11 17/17/17 9/9/9
f 9/9/9 17/17/17 12/12/12
f 16/16/16 18/18/18 15/15/15
f 15/15/15 18/18/18 19/19/19
f 19/19/19 18/18/18 20/20/20
f 17/17/17 11/11/11 21/21/21
f 11/11/11 22/22/22 21/21/21
f 22/22/22 23/23/23 21/21/21
f 12/12/12 24/24/24 16/16/16
f 16/16/16 25/25/25 18/18/18
f 25/25/25 16/16/16 24/24/24
f 18/18/18 26/26/26 20/20/20
f 25/25/25 26/26/26 18/18/18
f 17/17/17 27/27/27 12/12/12
f 12/12/12 27/27/27 24/24/24
f 17/17/17 28/28/28 27/27/27
f 17/17/17 21/21/21 28/28/28
f 27/27/27 28/28/28 24/24/24
f 23/23/23 29/29/29 21/21/21
f 21/21/21 29/29/29 28/28/28
f 30/30/30 28/28/28 29/29/29
f 24/24/24 28/28/28 31/31/31
f 24/24/24 31/31/31 25/25/25
f 31/31/31 28/28/28 30/30/30
f 32/32/32 25/25/25 31/31/31
f 25/25/25 32/32/32 26/26/26
f 31/31/31 30/30/30 32/32/32
f 26/26/26 33/33/33 20/20/20
f 32/32/32 33/33/33 26/26/26
f 34/34/34 33/33/33 32/32/32
f 33/33/33 35/35/35 20/20/20
f 35/35/35 33/33/33 34/34/34
f 36/36/36 35/35/35 34/34/34
f 37/37/37 36/36/36 34/34/34
f 29/29/29 23/23/23 38/38/38
f 23/23/23 39/39/39 38/38/38
f 39/39/39 40/40/40 38/38/38
f 29/29/29 38/38/38 41/41/41
f 41/41/41 30/30/30 29/29/29
f 40/40/40 42/42/42 38/38/38
f 38/38/38 42/42/42 41/41/41
f 43/43/43 32/32/32 30/30/30
f 43/43/43 34/34/34 32/32/32
f 44/44/44 37/37/37 34/34/34
f 37/37/37 44/44/44 45/45/45
f 34/34/34 43/43/43 46/46/46
f 46/46/46 43/43/43 30/30/30
f 44/44/44 34/34/34 46/46/46
f 44/44/44 47/47/47 45/45/45
f 44/44/44 46/46/46 47/47/47
f 30/30/30 48/48/48 46/46/46
f 41/41/41 48/48/48 30/30/30
f 47/47/47 49/49/49 45/45/45
f 49/49/49 50/50/50 45/45/45
f 49/49/49 51/51/51 50/50/50
f 46/46/46 52/52/52 47/47/47
f 52/52/52 46/46/46 48/48/48
f 47/47/47 52/52/52 49/49/49
f 41/41/41 53/53/53 48/48/48
f 48/48/48 53/53/53 52/52/52
f 52/52/52 54/54/54 49/49/49
f 49/49/49 54/54/54 51/51/51
f 54/54/54 52/52/52 53/53/53
f 41/41/41 55/55/55 53/53/53
f 41/41/41 42/42/42 55/55/55
f 55/55/55 56/56/56 53/53/53
f 55/55/55 42/42/42 56/56/56
f 53/53/53 56/56/56 54/54/54
f 54/54/54 57/57/57 51/51/51
f 58/58/58 51/51/51 57/57/57
f 58/58/58 57/57/57 59/59/59
f 54/54/54 60/60/60 57/57/57
f 59/59/59 57/57/57 60/60/60
f 54/54/54 56/56/56 60/60/60
f 42/42/42 61/61/61 56/56/56
f 42/42/42 40/40/40 61/61/61
f 40/40/40 62/62/62 61/61/61
f 61/61/61 62/62/62 63/63/63
f 56/56/56 61/61/61 64/64/64
f 64/64/64 60/60/60 56/56/56
f 64/64/64 61/61/61 63/63/63
f 59/59/59 60/60/60 65/65/65
f 60/60/60 64/64/64 65/65/65
f 64/64/64 63/63/63 65/65/65
f 66/66/66 59/59/59 65/65/65
f 63/63/63 67/67/67 65/65/65
f 65/65/65 67/67/67 66/66/66
f 67/67/67 68/68/68 66/66/66
