g bf_geo
v 0.1518037 0.5351101 0.7151157
v 0.1788762 0.4640725 0.6843884
v 0.1835895 0.4980781 0.6099247
v 0.156517 0.5691157 0.6406521
v -0.1638542 0.5530177 0.7078087
v -0.1681798 0.5842261 0.6394704
v -0.1930254 0.5190319 0.6112705
v -0.1886998 0.4878236 0.6796091
v -0.1549357 0.5303876 0.7329358
v -0.1469526 0.5643932 0.6587514
v -0.1684221 0.4933555 0.6238779
v -0.1764051 0.45935 0.6980624
v 0.1561675 0.6430212 0.6103319
v 0.1133204 0.6263772 0.6512349
v 0.1298823 0.6074668 0.6405174
v 0.1082094 0.5860454 0.6658785
v 0.08609705 0.5767051 0.6925029
v 0.09289544 0.6113365 0.6862177
v 0.107292 0.6447749 0.6705207
v 0.1382112 0.6642347 0.6229014
v 0.1733366 0.6823505 0.591579
v 0.1307882 0.6849353 0.6440395
v 0.1799105 0.7193904 0.585714
v 0.156289 0.7105046 0.6142209
v -0.1561675 0.6430212 0.6103319
v -0.1298823 0.6074668 0.6405174
v -0.1133204 0.6263772 0.6512349
v -0.1082094 0.5860454 0.6658785
v -0.08609705 0.5767051 0.6925029
v -0.09289544 0.6113365 0.6862177
v -0.107292 0.6447749 0.6705207
v -0.1382112 0.6642347 0.6229014
v -0.1733366 0.6823505 0.591579
v -0.1307882 0.6849353 0.6440395
v -0.1799105 0.7193904 0.585714
v -0.156289 0.7105046 0.6142209
vt 0.9296875 0.5673828
vt 0.996582 0.5673828
vt 0.996582 0.6342773
vt 0.9296875 0.6342773
vt 0.9296875 0.5673828
vt 0.9296875 0.6342773
vt 0.996582 0.6342773
vt 0.996582 0.5673828
vt 0.9296875 0.5673828
vt 0.9296875 0.6342773
vt 0.996582 0.6342773
vt 0.996582 0.5673828
vt 0.40625 0.2359619
vt 0.4284668 0.2038574
vt 0.4362793 0.2194824
vt 0.4560547 0.2036133
vt 0.4685059 0.1846924
vt 0.4458008 0.1826172
vt 0.4211426 0.1881104
vt 0.3979492 0.2185059
vt 0.3771973 0.2427979
vt 0.3896484 0.2011719
vt 0.3532715 0.2399902
vt 0.3662109 0.2196045
vt 0.40625 0.2359619
vt 0.4362793 0.2194824
vt 0.4284668 0.2038574
vt 0.4560547 0.2036133
vt 0.4685059 0.1846924
vt 0.4458008 0.1826172
vt 0.4211426 0.1881104
vt 0.3979492 0.2185059
vt 0.3771973 0.2427979
vt 0.3896484 0.2011719
vt 0.3532715 0.2399902
vt 0.3662109 0.2196045
vn -0.9421707 -0.2782944 -0.1867262
vn -0.9421707 -0.2782944 -0.1867262
vn -0.9421707 -0.2782944 -0.1867262
vn -0.9421707 -0.2782944 -0.1867262
vn 0.9421707 -0.2782946 -0.1867259
vn 0.9421707 -0.2782946 -0.1867259
vn 0.9421707 -0.2782946 -0.1867259
vn 0.9421707 -0.2782945 -0.1867259
vn 0.9601898 -0.2782944 -0.02424128
vn 0.9601898 -0.2782944 -0.02424128
vn 0.9601898 -0.2782944 -0.02424128
vn 0.9601898 -0.2782944 -0.02424128
vn -0.6513288 -0.1202438 -0.7492077
vn -0.7860602 0.02087011 -0.6177976
vn -0.6595172 -0.1436541 -0.737835
vn -0.7220803 -0.1534223 -0.6745825
vn -0.8167036 -0.03112348 -0.5762175
vn -0.8776833 0.1035592 -0.4679181
vn -0.8626276 0.1917824 -0.4680739
vn -0.7686122 0.04763389 -0.6379392
vn -0.6603187 -0.0177802 -0.750775
vn -0.8488418 0.2059499 -0.4868802
vn -0.7319825 0.09889997 -0.674107
vn -0.793687 0.2024756 -0.5736414
vn 0.651329 -0.120244 -0.7492076
vn 0.6595176 -0.1436542 -0.7378346
vn 0.7860606 0.02086991 -0.617797
vn 0.7220793 -0.1534225 -0.6745836
vn 0.8167031 -0.0311236 -0.5762182
vn 0.8776833 0.1035592 -0.4679181
vn 0.8626282 0.1917822 -0.4680728
vn 0.7686126 0.04763363 -0.6379387
vn 0.6603182 -0.01778027 -0.7507753
vn 0.8488423 0.2059495 -0.4868792
vn 0.7319827 0.09889995 -0.674107
vn 0.7936876 0.2024755 -0.5736408
g bf_geo_0
f 3/3/3 2/2/2 1/1/1
f 4/4/4 3/3/3 1/1/1
f 7/7/7 6/6/6 5/5/5
f 8/8/8 7/7/7 5/5/5
f 11/11/11 10/10/10 9/9/9
f 12/12/12 11/11/11 9/9/9
f 15/15/15 14/14/14 13/13/13
f 16/16/16 14/14/14 15/15/15
f 17/17/17 14/14/14 16/16/16
f 17/17/17 18/18/18 14/14/14
f 18/18/18 19/19/19 14/14/14
f 14/14/14 20/20/20 13/13/13
f 14/14/14 19/19/19 20/20/20
f 13/13/13 20/20/20 21/21/21
f 19/19/19 22/22/22 20/20/20
f 21/21/21 20/20/20 23/23/23
f 20/20/20 22/22/22 24/24/24
f 23/23/23 20/20/20 24/24/24
f 27/27/27 26/26/26 25/25/25
f 27/27/27 28/28/28 26/26/26
f 27/27/27 29/29/29 28/28/28
f 30/30/30 29/29/29 27/27/27
f 31/31/31 30/30/30 27/27/27
f 32/32/32 27/27/27 25/25/25
f 31/31/31 27/27/27 32/32/32
f 32/32/32 25/25/25 33/33/33
f 34/34/34 31/31/31 32/32/32
f 32/32/32 33/33/33 35/35/35
f 34/34/34 32/32/32 36/36/36
f 32/32/32 35/35/35 36/36/36
