g bf_geo
v 0.001730472 0.7389184 0.1197059
v 0.004096122 0.6773913 0.1225892
v 0.01194185 0.6698096 0.1193344
v 0.007833527 0.7389184 0.1189928
v -7.369159E-09 0.7818437 0.116626
v 0.004413933 0.7821009 0.1163671
v -7.354316E-09 0.8137349 0.113544
v 0.009164348 0.7828146 0.1157266
v 0.01154032 0.7389421 0.1185588
v 0.00253643 0.8174402 0.1128007
v 0.01758337 0.7426662 0.1174081
v 0.01722525 0.7350088 0.1167763
v 0.02577564 0.7389519 0.1168956
v 0.02738156 0.7495213 0.1171581
v 0.03290673 0.7467488 0.1172695
v 0.03884014 0.7574252 0.1173868
v 0.03265801 0.761914 0.1176211
v 0.03882363 0.7669923 0.1167603
v 0.02480916 0.7894012 0.1154037
v 0.01971671 0.7852986 0.1164888
v 0.00503188 0.8210312 0.1120802
v -7.18435E-09 0.8203766 0.1127511
v 0.004806748 0.8269257 0.111359
v -7.051636E-09 0.8270479 0.1119544
v -7.439299E-09 0.8297622 0.1116305
v 0.02226159 0.8466955 0.1074228
v 0.01374174 0.8466955 0.1086668
v -0.001730486 0.7389184 0.1197059
v -0.01194187 0.6698096 0.1193344
v -0.004096137 0.6773913 0.1225892
v -0.007833542 0.7389184 0.1189928
v -7.369159E-09 0.7818437 0.116626
v -0.004413948 0.7821009 0.1163671
v -7.354316E-09 0.8137349 0.113544
v -0.009164363 0.7828146 0.1157266
v -0.01154033 0.7389421 0.1185588
v -0.002536445 0.8174402 0.1128007
v -0.01758325 0.7426659 0.1174081
v -0.01722506 0.7350084 0.1167763
v -0.02577938 0.7389507 0.1168958
v -0.0273844 0.7504222 0.1171582
v -0.03084947 0.7461033 0.1172696
v -0.03884166 0.7574249 0.1173867
v -0.03223682 0.761914 0.117621
v -0.03882495 0.7669926 0.1167602
v -0.02480949 0.7894015 0.1154036
v -0.01971703 0.7852989 0.1164887
v -0.005031894 0.8210312 0.1120802
v -7.18435E-09 0.8203766 0.1127511
v -0.004806762 0.8269257 0.111359
v -7.051636E-09 0.8270479 0.1119544
v -7.439299E-09 0.8297622 0.1116305
v -0.0222616 0.8466955 0.1074228
v -0.01374175 0.8466955 0.1086668
vt 0.7050781 0.7617188
vt 0.7075195 0.6953125
vt 0.7158203 0.6870117
vt 0.7109375 0.7617188
vt 0.703125 0.8081055
vt 0.7075195 0.8061523
vt 0.703125 0.8383789
vt 0.7124023 0.8066406
vt 0.7148438 0.7612305
vt 0.7060547 0.8422852
vt 0.7211914 0.7651367
vt 0.7207031 0.7568359
vt 0.7294922 0.7612305
vt 0.7314453 0.7729492
vt 0.7348633 0.7680664
vt 0.7431641 0.7797852
vt 0.7363281 0.784668
vt 0.7431641 0.7895508
vt 0.7290039 0.8129883
vt 0.7236328 0.809082
vt 0.7084961 0.8461914
vt 0.703125 0.8452148
vt 0.7084961 0.8520508
vt 0.703125 0.8520508
vt 0.703125 0.8549805
vt 0.7280273 0.8725586
vt 0.7182617 0.8725586
vt 0.7050781 0.7617188
vt 0.7158203 0.6870117
vt 0.7075195 0.6953125
vt 0.7109375 0.7617188
vt 0.703125 0.8081055
vt 0.7075195 0.8061523
vt 0.703125 0.8383789
vt 0.7124023 0.8066406
vt 0.7148438 0.7612305
vt 0.7060547 0.8422852
vt 0.7211914 0.7651367
vt 0.7207031 0.7568359
vt 0.7294922 0.7612305
vt 0.7314453 0.7729492
vt 0.7348633 0.7680664
vt 0.7431641 0.7797852
vt 0.7363281 0.784668
vt 0.7431641 0.7895508
vt 0.7290039 0.8129883
vt 0.7236328 0.809082
vt 0.7084961 0.8461914
vt 0.703125 0.8452148
vt 0.7084961 0.8520508
vt 0.703125 0.8520508
vt 0.703125 0.8549805
vt 0.7280273 0.8725586
vt 0.7182617 0.8725586
vn -0.2250047 -0.04955047 -0.9730969
vn -0.292505 -0.03808348 -0.9555054
vn -0.292505 -0.03808347 -0.9555054
vn -0.2304871 -0.04863539 -0.9718593
vn -0 -0.07711996 -0.9970217
vn -0.1090202 -0.08056276 -0.9907696
vn 5.316751E-07 -0.1067908 -0.9942815
vn -0.1307635 -0.08313414 -0.9879218
vn -0.1437915 -0.05763425 -0.9879283
vn -0.08927795 -0.1425305 -0.9857557
vn -0.1135736 -0.03310134 -0.992978
vn -0.08202037 0.06145987 -0.9947338
vn -0.03157068 0.04985345 -0.9982575
vn -0.002759859 0.03046794 -0.999532
vn 0.00980031 0.02256916 -0.9996972
vn -0.01022906 0.009194629 -0.9999055
vn -0.06100335 -0.06540453 -0.9959924
vn -0.08596896 -0.1016034 -0.9911034
vn -0.08194494 -0.1313488 -0.9879435
vn -0.08271346 -0.1263422 -0.9885323
vn -0.08711279 -0.146907 -0.9853069
vn 1.025707E-06 -0.121109 -0.9926393
vn -0.1273152 -0.08420926 -0.9882812
vn 1.136048E-06 -0.1214287 -0.9926002
vn -0 -0.07846168 -0.9969171
vn -0.1287131 -0.07647381 -0.9887289
vn -0.1287131 -0.07647381 -0.9887289
vn 0.2250051 -0.04955056 -0.9730968
vn 0.2925053 -0.0380835 -0.9555053
vn 0.2925052 -0.0380835 -0.9555053
vn 0.2304875 -0.04863547 -0.9718592
vn -0 -0.07711996 -0.9970217
vn 0.1090224 -0.08056291 -0.9907693
vn 5.316751E-07 -0.1067908 -0.9942815
vn 0.1307676 -0.08313432 -0.9879214
vn 0.1437967 -0.05763426 -0.9879275
vn 0.08927786 -0.1425309 -0.9857557
vn 0.1124187 -0.03209819 -0.9931424
vn 0.08127028 0.05925037 -0.9949294
vn 0.03398265 0.04861667 -0.9982393
vn 0.001156144 0.0282449 -0.9996004
vn -0.0193172 0.01994786 -0.9996144
vn 0.009587629 0.005238342 -0.9999404
vn 0.05929453 -0.06563609 -0.9960803
vn 0.08397824 -0.09971457 -0.9914659
vn 0.08120846 -0.1303029 -0.9881428
vn 0.08181723 -0.125022 -0.9887748
vn 0.08711264 -0.1469078 -0.9853069
vn 1.025707E-06 -0.121109 -0.9926393
vn 0.1273154 -0.08420931 -0.9882811
vn 1.136048E-06 -0.1214287 -0.9926002
vn -0 -0.07846168 -0.9969171
vn 0.1287131 -0.07647381 -0.9887289
vn 0.1287131 -0.07647381 -0.9887289
g bf_geo_0
f 3/3/3 2/2/2 1/1/1
f 4/4/4 3/3/3 1/1/1
f 4/4/4 1/1/1 5/5/5
f 6/6/6 4/4/4 5/5/5
f 7/7/7 6/6/6 5/5/5
f 8/8/8 6/6/6 7/7/7
f 9/9/9 6/6/6 8/8/8
f 10/10/10 8/8/8 7/7/7
f 11/11/11 9/9/9 8/8/8
f 11/11/11 12/12/12 9/9/9
f 13/13/13 12/12/12 11/11/11
f 14/14/14 13/13/13 11/11/11
f 15/15/15 13/13/13 14/14/14
f 16/16/16 15/15/15 14/14/14
f 17/17/17 16/16/16 14/14/14
f 18/18/18 16/16/16 17/17/17
f 19/19/19 18/18/18 17/17/17
f 20/20/20 19/19/19 17/17/17
f 21/21/21 19/19/19 20/20/20
f 10/10/10 21/21/21 20/20/20
f 22/22/22 10/10/10 7/7/7
f 21/21/21 10/10/10 22/22/22
f 23/23/23 21/21/21 22/22/22
f 24/24/24 23/23/23 22/22/22
f 25/25/25 23/23/23 24/24/24
f 26/26/26 23/23/23 25/25/25
f 27/27/27 26/26/26 25/25/25
f 30/30/30 29/29/29 28/28/28
f 29/29/29 31/31/31 28/28/28
f 28/28/28 31/31/31 32/32/32
f 31/31/31 33/33/33 32/32/32
f 33/33/33 34/34/34 32/32/32
f 33/33/33 35/35/35 34/34/34
f 33/33/33 36/36/36 35/35/35
f 35/35/35 37/37/37 34/34/34
f 36/36/36 38/38/38 35/35/35
f 39/39/39 38/38/38 36/36/36
f 39/39/39 40/40/40 38/38/38
f 40/40/40 41/41/41 38/38/38
f 40/40/40 42/42/42 41/41/41
f 42/42/42 43/43/43 41/41/41
f 43/43/43 44/44/44 41/41/41
f 43/43/43 45/45/45 44/44/44
f 45/45/45 46/46/46 44/44/44
f 46/46/46 47/47/47 44/44/44
f 46/46/46 48/48/48 47/47/47
f 48/48/48 37/37/37 47/47/47
f 37/37/37 49/49/49 34/34/34
f 37/37/37 48/48/48 49/49/49
f 48/48/48 50/50/50 49/49/49
f 50/50/50 51/51/51 49/49/49
f 50/50/50 52/52/52 51/51/51
f 50/50/50 53/53/53 52/52/52
f 53/53/53 54/54/54 52/52/52
