g bf_geo
v 0.008869778 0.8356971 0.1104951
v 0.005147326 0.8492295 0.1108822
v 0.0004571675 0.8485844 0.1108847
v 0.004178137 0.8350537 0.110506
v 0.01300072 0.8182681 0.1103577
v 0.008307019 0.8176264 0.1103574
v 0.01631662 0.7969511 0.1111261
v 0.01162292 0.7963097 0.111128
v 0.01902542 0.7743853 0.1136994
v 0.01433262 0.7737423 0.1137179
v 0.02075838 0.7513468 0.1169862
v 0.01606813 0.7507027 0.1170214
v 0.003929913 0.8511531 0.1122382
v -0.0003211618 0.8472292 0.1123445
v 0.01038144 0.8367809 0.1119945
v 0.01427934 0.8408852 0.1118894
v 0.02103608 0.8292152 0.1114644
v 0.01858685 0.8242345 0.1115927
v 0.03057892 0.8216158 0.1120092
v 0.02992309 0.8152611 0.1121871
v 0.03992894 0.819587 0.1123873
v 0.04171518 0.8134043 0.1125192
v 0.04437609 0.8247678 0.1122032
v 0.04985503 0.8227167 0.1122032
v 0.04455511 0.8333786 0.1120333
v 0.04995238 0.8359576 0.1120332
v 0.03777162 0.8397655 0.1123953
v 0.04127913 0.8448414 0.1123947
v 0.02657696 0.8467664 0.1126692
v 0.02812919 0.8525115 0.1126574
v 0.01414623 0.8505509 0.1127665
v 0.01338973 0.8562874 0.1127665
v 0.003920183 0.8503069 0.1127665
v 0.00316369 0.8560434 0.1127665
v -0.008869778 0.8356971 0.1104951
v -0.0004571678 0.8485844 0.1108847
v -0.005147326 0.8492295 0.1108822
v -0.004178137 0.8350537 0.110506
v -0.01300072 0.8182681 0.1103577
v -0.008307018 0.8176264 0.1103574
v -0.01631662 0.7969511 0.1111261
v -0.01162292 0.7963097 0.111128
v -0.01902542 0.7743853 0.1136994
v -0.01433262 0.7737423 0.1137179
v -0.02075838 0.7513468 0.1169862
v -0.01606813 0.7507027 0.1170214
v -0.003929914 0.8511531 0.1122382
v -0.01038144 0.8367809 0.1119945
v 0.0003211608 0.8472292 0.1123445
v -0.01427934 0.8408852 0.1118894
v -0.02103608 0.8292152 0.1114644
v -0.01858685 0.8242345 0.1115927
v -0.03057892 0.8216158 0.1120092
v -0.02992309 0.8152611 0.1121871
v -0.03992894 0.819587 0.1123873
v -0.04171518 0.8134043 0.1125192
v -0.04437609 0.8247678 0.1122032
v -0.04985503 0.8227167 0.1122032
v -0.04455511 0.8333786 0.1120333
v -0.04995238 0.8359576 0.1120332
v -0.03777161 0.8397655 0.1123953
v -0.04127913 0.8448414 0.1123947
v -0.02657696 0.8467664 0.1126692
v -0.02812919 0.8525115 0.1126574
v -0.01414623 0.8505509 0.1127665
v -0.01338973 0.8562874 0.1127665
v -0.003920183 0.8503069 0.1127665
v -0.00316369 0.8560434 0.1127665
v -0.006020772 0.8462492 0.1133881
v 0.006020772 0.8462492 0.1133881
v 0.006020772 0.8582907 0.1133881
v -0.006020772 0.8582907 0.1133881
vt 0.5859375 0.02815247
vt 0.565918 0.02815247
vt 0.565918 0.03494263
vt 0.5859375 0.03494263
vt 0.6118164 0.02815247
vt 0.6118164 0.03494263
vt 0.6425781 0.02815247
vt 0.6425781 0.03494263
vt 0.6757812 0.02815247
vt 0.6757812 0.03494263
vt 0.7089844 0.02815247
vt 0.7089844 0.03494263
vt 0.5493164 0.0177002
vt 0.5493164 0.009719849
vt 0.5698242 0.009719849
vt 0.5698242 0.0177002
vt 0.5913086 0.0177002
vt 0.5913086 0.009719849
vt 0.6108398 0.0177002
vt 0.6108398 0.009719849
vt 0.6235352 0.0177002
vt 0.6235352 0.009719849
vt 0.6352539 0.0177002
vt 0.6352539 0.009719849
vt 0.6503906 0.0177002
vt 0.6503906 0.009719849
vt 0.6655273 0.0177002
vt 0.6655273 0.009719849
vt 0.6860352 0.0177002
vt 0.6860352 0.009719849
vt 0.7080078 0.0177002
vt 0.7080078 0.009719849
vt 0.7236328 0.0177002
vt 0.7236328 0.009719849
vt 0.5859375 0.02815247
vt 0.565918 0.03494263
vt 0.565918 0.02815247
vt 0.5859375 0.03494263
vt 0.6118164 0.02815247
vt 0.6118164 0.03494263
vt 0.6425781 0.02815247
vt 0.6425781 0.03494263
vt 0.6757812 0.02815247
vt 0.6757812 0.03494263
vt 0.7089844 0.02815247
vt 0.7089844 0.03494263
vt 0.5493164 0.0177002
vt 0.5698242 0.009719849
vt 0.5493164 0.009719849
vt 0.5698242 0.0177002
vt 0.5913086 0.0177002
vt 0.5913086 0.009719849
vt 0.6108398 0.0177002
vt 0.6108398 0.009719849
vt 0.6235352 0.0177002
vt 0.6235352 0.009719849
vt 0.6352539 0.0177002
vt 0.6352539 0.009719849
vt 0.6503906 0.0177002
vt 0.6503906 0.009719849
vt 0.6655273 0.0177002
vt 0.6655273 0.009719849
vt 0.6860352 0.0177002
vt 0.6860352 0.009719849
vt 0.7080078 0.0177002
vt 0.7080078 0.009719849
vt 0.7236328 0.0177002
vt 0.7236328 0.009719849
vt 0.6279297 0.04760742
vt 0.6420898 0.04760742
vt 0.6420898 0.06170654
vt 0.6279297 0.06170654
vn -0.003356962 0.01541251 -0.9998755
vn -0.005111517 0.0268787 -0.9996257
vn -0.005111517 0.0268787 -0.9996257
vn -0.00356736 0.01678743 -0.9998527
vn 0.001699866 -0.01668698 -0.9998593
vn 0.001451 -0.01512154 -0.9998846
vn 0.009056981 -0.0749115 -0.9971491
vn 0.009050984 -0.07485746 -0.9971532
vn 0.01339647 -0.1261071 -0.9919261
vn 0.0134073 -0.1268145 -0.9918358
vn 0.01361656 -0.1405661 -0.9899776
vn 0.01361656 -0.1405661 -0.9899776
vn -0.02956227 0.003679752 -0.9995561
vn -0.02956227 0.003679752 -0.9995561
vn -0.03744823 0.004865002 -0.9992867
vn -0.03603954 0.004653274 -0.9993395
vn -0.01751069 -0.009506724 -0.9998015
vn 0.0004138854 -0.01950383 -0.9998097
vn 0.02807773 -0.02969698 -0.9991645
vn 0.02857518 -0.02705895 -0.9992254
vn 0.01129885 -0.02353614 -0.9996591
vn 0.01293245 -0.0234016 -0.9996425
vn -0.004562103 -0.02015366 -0.9997866
vn -0.004520969 -0.02011809 -0.9997874
vn -0.01065117 0.00505955 -0.9999305
vn -0.01152452 0.006640724 -0.9999115
vn -0.01955204 0.01521447 -0.999693
vn -0.01940868 0.01457749 -0.9997054
vn -0.0133618 0.003804096 -0.9999036
vn -0.01244497 0.003104309 -0.9999177
vn -0.005011962 -0.0003197529 -0.9999874
vn -0.003780019 -0.0002411273 -0.9999928
vn 1.924536E-06 2.452035E-07 -1
vn 1.924536E-06 2.452035E-07 -1
vn 0.003357008 0.01541257 -0.9998755
vn 0.005111018 0.02687894 -0.9996257
vn 0.005111018 0.02687893 -0.9996257
vn 0.00356734 0.01678752 -0.9998527
vn -0.001699808 -0.01668693 -0.9998593
vn -0.001450918 -0.01512149 -0.9998846
vn -0.009056681 -0.0749116 -0.9971491
vn -0.009050686 -0.07485757 -0.9971532
vn -0.01339638 -0.1261074 -0.9919261
vn -0.01340724 -0.1268148 -0.9918358
vn -0.01361719 -0.1405666 -0.9899776
vn -0.01361719 -0.1405666 -0.9899776
vn 0.0295631 0.003679784 -0.9995561
vn 0.03744889 0.004865015 -0.9992867
vn 0.0295631 0.003679784 -0.9995561
vn 0.03604024 0.004653291 -0.9993395
vn 0.01751099 -0.009506709 -0.9998015
vn -0.0004136867 -0.01950381 -0.9998097
vn -0.02807819 -0.029697 -0.9991645
vn -0.02857589 -0.02705899 -0.9992254
vn -0.01129906 -0.0235362 -0.9996591
vn -0.01293275 -0.02340166 -0.9996425
vn 0.004562749 -0.02015366 -0.9997866
vn 0.004521612 -0.0201181 -0.9997874
vn 0.01065138 0.005059571 -0.9999305
vn 0.01152471 0.006640746 -0.9999115
vn 0.01955196 0.01521439 -0.999693
vn 0.01940861 0.01457743 -0.9997054
vn 0.01336176 0.003804097 -0.9999036
vn 0.01244494 0.003104314 -0.9999177
vn 0.005012058 -0.0003197516 -0.9999874
vn 0.003780168 -0.0002411265 -0.9999928
vn -1.620665E-06 2.452041E-07 -1
vn -1.620666E-06 2.452041E-07 -1
vn -0 0 -1
vn -0 0 -1
vn -0 0 -1
vn -0 0 -1
g bf_geo_0
f 3/3/3 2/2/2 1/1/1
f 4/4/4 3/3/3 1/1/1
f 4/4/4 1/1/1 5/5/5
f 6/6/6 4/4/4 5/5/5
f 6/6/6 5/5/5 7/7/7
f 8/8/8 6/6/6 7/7/7
f 8/8/8 7/7/7 9/9/9
f 10/10/10 8/8/8 9/9/9
f 10/10/10 9/9/9 11/11/11
f 12/12/12 10/10/10 11/11/11
f 15/15/15 14/14/14 13/13/13
f 16/16/16 15/15/15 13/13/13
f 16/16/16 17/17/17 15/15/15
f 17/17/17 18/18/18 15/15/15
f 17/17/17 19/19/19 18/18/18
f 19/19/19 20/20/20 18/18/18
f 19/19/19 21/21/21 20/20/20
f 21/21/21 22/22/22 20/20/20
f 21/21/21 23/23/23 22/22/22
f 23/23/23 24/24/24 22/22/22
f 23/23/23 25/25/25 24/24/24
f 25/25/25 26/26/26 24/24/24
f 25/25/25 27/27/27 26/26/26
f 27/27/27 28/28/28 26/26/26
f 27/27/27 29/29/29 28/28/28
f 29/29/29 30/30/30 28/28/28
f 29/29/29 31/31/31 30/30/30
f 31/31/31 32/32/32 30/30/30
f 31/31/31 33/33/33 32/32/32
f 33/33/33 34/34/34 32/32/32
f 37/37/37 36/36/36 35/35/35
f 36/36/36 38/38/38 35/35/35
f 35/35/35 38/38/38 39/39/39
f 38/38/38 40/40/40 39/39/39
f 39/39/39 40/40/40 41/41/41
f 40/40/40 42/42/42 41/41/41
f 41/41/41 42/42/42 43/43/43
f 42/42/42 44/44/44 43/43/43
f 43/43/43 44/44/44 45/45/45
f 44/44/44 46/46/46 45/45/45
f 49/49/49 48/48/48 47/47/47
f 48/48/48 50/50/50 47/47/47
f 51/51/51 50/50/50 48/48/48
f 52/52/52 51/51/51 48/48/48
f 53/53/53 51/51/51 52/52/52
f 54/54/54 53/53/53 52/52/52
f 55/55/55 53/53/53 54/54/54
f 56/56/56 55/55/55 54/54/54
f 57/57/57 55/55/55 56/56/56
f 58/58/58 57/57/57 56/56/56
f 59/59/59 57/57/57 58/58/58
f 60/60/60 59/59/59 58/58/58
f 61/61/61 59/59/59 60/60/60
f 62/62/62 61/61/61 60/60/60
f 63/63/63 61/61/61 62/62/62
f 64/64/64 63/63/63 62/62/62
f 65/65/65 63/63/63 64/64/64
f 66/66/66 65/65/65 64/64/64
f 67/67/67 65/65/65 66/66/66
f 68/68/68 67/67/67 66/66/66
f 71/71/71 70/70/70 69/69/69
f 72/72/72 71/71/71 69/69/69
