g facial_eye_geo
v -0.09645613 1.419212 0.08235078
v -0.08491367 1.394244 0.1025919
v -0.0936259 1.393937 0.0792472
v -0.0872854 1.41581 0.09895826
v -0.0756772 1.393827 0.1113133
v -0.09924453 1.44875 0.08329766
v -0.07803844 1.41493 0.1060817
v -0.06140283 1.394014 0.1195086
v -0.09047844 1.445253 0.09966556
v -0.06460175 1.413839 0.1120962
v -0.04183847 1.399849 0.1260193
v -0.09602088 1.473394 0.1073771
v -0.1041051 1.477023 0.08016218
v -0.07002106 1.441057 0.1108607
v -0.09624074 1.49283 0.1085224
v -0.1077586 1.510913 0.07416847
v -0.09439208 1.518027 0.1079701
v -0.07298391 1.519011 0.1280462
v -0.07509787 1.473303 0.1232128
v -0.07585768 1.495844 0.1263177
v -0.04914851 1.517234 0.1366196
v -0.04033779 1.41725 0.1180826
v -0.04234695 1.437878 0.1216933
v -0.04523338 1.453093 0.1257917
v -0.04985409 1.468124 0.1323388
v -0.05056675 1.492417 0.1362712
v -0.02040436 1.424304 0.124279
v -0.01848018 1.404019 0.1350539
v 4.399497E-17 1.407555 0.1416264
v -0.01969771 1.436186 0.1263262
v -0.02408026 1.486707 0.1418336
v -0.02276849 1.513936 0.1419597
v 1.018637E-16 1.483322 0.1436774
v 1.187695E-16 1.511453 0.143653
v 0.02276849 1.513936 0.1419597
v -0.02347889 1.463717 0.1387789
v -0.02091821 1.449923 0.1330357
v 6.488509E-17 1.442126 0.1369405
v 5.147001E-17 1.425181 0.1350446
v 0.02040435 1.424304 0.124279
v 0.01848017 1.404019 0.1350539
v 0.04183846 1.399849 0.1260193
v 0.01969793 1.436182 0.1263272
v 0.04033779 1.41725 0.1180826
v 8.422354E-17 1.461069 0.1411937
v 0.02347889 1.463717 0.1387789
v 0.06460174 1.413839 0.1120962
v 0.06140283 1.394014 0.1195086
v 0.07567719 1.393827 0.1113133
v 0.02091821 1.449923 0.1330357
v 0.02408026 1.486707 0.1418336
v 0.04914851 1.517234 0.1366196
v 0.05056675 1.492417 0.1362712
v 0.0498541 1.468124 0.1323388
v 0.07585768 1.495844 0.1263177
v 0.07298391 1.519011 0.1280462
v 0.04523338 1.453093 0.1257917
v 0.09624074 1.49283 0.1085224
v 0.09439208 1.518027 0.1079701
v 0.1077586 1.510913 0.07416847
v 0.1041051 1.477023 0.08016218
v 0.07509787 1.473303 0.1232128
v 0.09602088 1.473394 0.1073771
v 0.09924453 1.44875 0.08329766
v 0.04234695 1.437878 0.1216933
v 0.07002106 1.441057 0.1108607
v 0.09047844 1.445253 0.09966556
v 0.07803844 1.41493 0.1060817
v 0.0872854 1.41581 0.09895826
v 0.09645615 1.419212 0.08235078
v 0.08491369 1.394244 0.1025919
v 0.0936259 1.393937 0.0792472
vt 0.1420898 0.3886719
vt 0.1657715 0.362793
vt 0.144165 0.3664551
vt 0.1634521 0.3852539
vt 0.177124 0.3637695
vt 0.1429443 0.4125977
vt 0.1733398 0.3845215
vt 0.192627 0.3662109
vt 0.1584473 0.4125977
vt 0.1866455 0.3840332
vt 0.210083 0.371582
vt 0.1582031 0.4355469
vt 0.1375732 0.4387207
vt 0.1801758 0.4072266
vt 0.1577148 0.4533691
vt 0.1328125 0.4702148
vt 0.15979 0.4768066
vt 0.1804199 0.4777832
vt 0.1800537 0.4365234
vt 0.1787109 0.4562988
vt 0.2025146 0.4760742
vt 0.2086182 0.3869629
vt 0.2075195 0.4042969
vt 0.2059326 0.4177246
vt 0.2033691 0.432373
vt 0.2019043 0.453125
vt 0.227417 0.392334
vt 0.2297363 0.3740234
vt 0.25 0.3764648
vt 0.2288818 0.4023438
vt 0.2276611 0.4494629
vt 0.2280273 0.4731445
vt 0.25 0.4462891
vt 0.25 0.4707031
vt 0.2719727 0.4731445
vt 0.2282715 0.4289551
vt 0.2293701 0.4157715
vt 0.25 0.4089355
vt 0.25 0.3928223
vt 0.2727051 0.392334
vt 0.2702637 0.3740234
vt 0.2900391 0.371582
vt 0.2712402 0.4023438
vt 0.2915039 0.3869629
vt 0.25 0.4265137
vt 0.2717285 0.4289551
vt 0.3134766 0.3840332
vt 0.307373 0.3662109
vt 0.3227539 0.3637695
vt 0.2705078 0.4157715
vt 0.2722168 0.4494629
vt 0.2976074 0.4760742
vt 0.2980957 0.453125
vt 0.2966309 0.432373
vt 0.3212891 0.4562988
vt 0.3195801 0.4777832
vt 0.2941895 0.4177246
vt 0.3422852 0.4533691
vt 0.3400879 0.4768066
vt 0.3671875 0.4702148
vt 0.3623047 0.4387207
vt 0.3200684 0.4365234
vt 0.3417969 0.4355469
vt 0.3571777 0.4125977
vt 0.2924805 0.4040527
vt 0.3198242 0.4072266
vt 0.3415527 0.4125977
vt 0.3266602 0.3845215
vt 0.3364258 0.3852539
vt 0.3579102 0.3886719
vt 0.3342285 0.362793
vt 0.355957 0.3664551
vn -0.8991228 -0.09724329 0.4267575
vn -0.8298123 -0.02537281 0.5574654
vn -0.9112315 -0.09666597 0.4003907
vn -0.8378991 -0.06681722 0.5417199
vn -0.5199505 0.16574 0.8379629
vn -0.9110642 -0.1657432 0.37748
vn -0.5305471 0.06385309 0.8452471
vn -0.3676493 0.2991971 0.8805197
vn -0.7160608 -0.2275648 0.6599025
vn -0.3601842 0.09970772 0.9275374
vn -0.3466878 0.366102 0.8635837
vn -0.7725784 -0.1660616 0.6128182
vn -0.9562005 -0.07905762 0.2818342
vn -0.400083 -0.2163298 0.8905812
vn -0.8010007 -0.01255518 0.5985317
vn -0.9486548 -0.003345435 0.3162954
vn -0.786714 0.059532 0.6144404
vn -0.5150543 0.01843129 0.8569593
vn -0.4785733 -0.2170561 0.8507963
vn -0.5209855 -0.04203144 0.85253
vn -0.2762962 -0.00345386 0.9610664
vn -0.3263382 0.1032217 0.9396003
vn -0.2890621 -0.1740414 0.9413568
vn -0.3290986 -0.392611 0.8588077
vn -0.3183543 -0.2288282 0.9199392
vn -0.2919026 -0.07250403 0.953696
vn -0.3983899 0.225169 0.8891482
vn -0.4056637 0.376732 0.8327724
vn -6.006455E-07 0.3971192 0.917767
vn -0.3254878 -0.2681186 0.906736
vn -0.1622207 -0.06611687 0.9845369
vn -0.1440849 0.0008744412 0.9895649
vn -0 -0.06122611 0.9981239
vn -0 -4.75193E-05 1
vn 0.1440848 0.0008744414 0.9895649
vn -0.1956037 -0.1957997 0.960938
vn -0.307672 -0.4297727 0.8489013
vn -1.711267E-05 -0.2527497 0.9675317
vn -1.191281E-05 0.2645403 0.9643747
vn 0.3983899 0.2251656 0.889149
vn 0.4056626 0.3767308 0.8327734
vn 0.3466873 0.3661012 0.8635843
vn 0.3254829 -0.2681042 0.906742
vn 0.326343 0.1032188 0.939599
vn -0 -0.1539927 0.988072
vn 0.1956037 -0.1957997 0.960938
vn 0.3601834 0.09970722 0.9275378
vn 0.3676492 0.2991965 0.88052
vn 0.5199513 0.1657404 0.8379623
vn 0.3076678 -0.4297086 0.8489353
vn 0.1622206 -0.06611682 0.9845369
vn 0.2762969 -0.003453868 0.9610661
vn 0.2919035 -0.07250416 0.9536957
vn 0.3183549 -0.2288283 0.9199391
vn 0.5209864 -0.04203134 0.8525295
vn 0.5150557 0.01843139 0.8569586
vn 0.3291061 -0.3926035 0.8588083
vn 0.8010011 -0.0125548 0.5985311
vn 0.7867147 0.05953203 0.6144395
vn 0.9486548 -0.003345505 0.3162955
vn 0.9562006 -0.07905745 0.2818338
vn 0.4785732 -0.2170563 0.8507963
vn 0.7725777 -0.1660614 0.6128191
vn 0.9110647 -0.1657436 0.3774789
vn 0.289085 -0.174043 0.9413494
vn 0.4000829 -0.2163299 0.8905812
vn 0.7160603 -0.2275651 0.6599028
vn 0.5305473 0.06385329 0.8452469
vn 0.8378994 -0.0668175 0.5417195
vn 0.8991238 -0.09724383 0.4267553
vn 0.8298135 -0.02537319 0.5574636
vn 0.9112318 -0.09666672 0.40039
g facial_eye_geo_0
f 3/3/3 2/2/2 1/1/1
f 2/2/2 4/4/4 1/1/1
f 2/2/2 5/5/5 4/4/4
f 6/6/6 1/1/1 4/4/4
f 5/5/5 7/7/7 4/4/4
f 5/5/5 8/8/8 7/7/7
f 9/9/9 6/6/6 4/4/4
f 7/7/7 9/9/9 4/4/4
f 8/8/8 10/10/10 7/7/7
f 8/8/8 11/11/11 10/10/10
f 12/12/12 6/6/6 9/9/9
f 12/12/12 13/13/13 6/6/6
f 14/14/14 9/9/9 7/7/7
f 7/7/7 10/10/10 14/14/14
f 12/12/12 15/15/15 13/13/13
f 16/16/16 13/13/13 15/15/15
f 17/17/17 16/16/16 15/15/15
f 17/17/17 15/15/15 18/18/18
f 9/9/9 19/19/19 12/12/12
f 12/12/12 19/19/19 15/15/15
f 9/9/9 14/14/14 19/19/19
f 15/15/15 20/20/20 18/18/18
f 19/19/19 20/20/20 15/15/15
f 18/18/18 20/20/20 21/21/21
f 11/11/11 22/22/22 10/10/10
f 14/14/14 10/10/10 23/23/23
f 10/10/10 22/22/22 23/23/23
f 19/19/19 14/14/14 24/24/24
f 14/14/14 23/23/23 24/24/24
f 19/19/19 25/25/25 20/20/20
f 24/24/24 25/25/25 19/19/19
f 20/20/20 26/26/26 21/21/21
f 25/25/25 26/26/26 20/20/20
f 22/22/22 11/11/11 27/27/27
f 11/11/11 28/28/28 27/27/27
f 28/28/28 29/29/29 27/27/27
f 23/23/23 22/22/22 30/30/30
f 24/24/24 23/23/23 30/30/30
f 30/30/30 22/22/22 27/27/27
f 26/26/26 31/31/31 21/21/21
f 31/31/31 32/32/32 21/21/21
f 32/32/32 31/31/31 33/33/33
f 34/34/34 32/32/32 33/33/33
f 35/35/35 34/34/34 33/33/33
f 36/36/36 31/31/31 26/26/26
f 33/33/33 31/31/31 36/36/36
f 25/25/25 36/36/36 26/26/26
f 25/25/25 24/24/24 37/37/37
f 24/24/24 30/30/30 37/37/37
f 37/37/37 36/36/36 25/25/25
f 38/38/38 37/37/37 30/30/30
f 36/36/36 37/37/37 38/38/38
f 30/30/30 27/27/27 39/39/39
f 39/39/39 38/38/38 30/30/30
f 29/29/29 39/39/39 27/27/27
f 39/39/39 29/29/29 40/40/40
f 29/29/29 41/41/41 40/40/40
f 41/41/41 42/42/42 40/40/40
f 39/39/39 40/40/40 43/43/43
f 43/43/43 38/38/38 39/39/39
f 42/42/42 44/44/44 40/40/40
f 40/40/40 44/44/44 43/43/43
f 45/45/45 33/33/33 36/36/36
f 38/38/38 45/45/45 36/36/36
f 33/33/33 45/45/45 46/46/46
f 46/46/46 45/45/45 38/38/38
f 44/44/44 42/42/42 47/47/47
f 42/42/42 48/48/48 47/47/47
f 47/47/47 48/48/48 49/49/49
f 43/43/43 50/50/50 38/38/38
f 38/38/38 50/50/50 46/46/46
f 51/51/51 33/33/33 46/46/46
f 51/51/51 35/35/35 33/33/33
f 35/35/35 51/51/51 52/52/52
f 51/51/51 46/46/46 53/53/53
f 51/51/51 53/53/53 52/52/52
f 54/54/54 46/46/46 50/50/50
f 46/46/46 54/54/54 53/53/53
f 53/53/53 55/55/55 52/52/52
f 53/53/53 54/54/54 55/55/55
f 55/55/55 56/56/56 52/52/52
f 43/43/43 57/57/57 50/50/50
f 50/50/50 57/57/57 54/54/54
f 55/55/55 58/58/58 56/56/56
f 58/58/58 59/59/59 56/56/56
f 60/60/60 59/59/59 58/58/58
f 61/61/61 60/60/60 58/58/58
f 54/54/54 62/62/62 55/55/55
f 55/55/55 62/62/62 58/58/58
f 62/62/62 54/54/54 57/57/57
f 61/61/61 58/58/58 63/63/63
f 62/62/62 63/63/63 58/58/58
f 61/61/61 63/63/63 64/64/64
f 43/43/43 65/65/65 57/57/57
f 43/43/43 44/44/44 65/65/65
f 65/65/65 66/66/66 57/57/57
f 65/65/65 44/44/44 66/66/66
f 57/57/57 66/66/66 62/62/62
f 44/44/44 47/47/47 66/66/66
f 62/62/62 67/67/67 63/63/63
f 64/64/64 63/63/63 67/67/67
f 62/62/62 66/66/66 67/67/67
f 66/66/66 47/47/47 68/68/68
f 68/68/68 67/67/67 66/66/66
f 68/68/68 47/47/47 49/49/49
f 64/64/64 67/67/67 69/69/69
f 67/67/67 68/68/68 69/69/69
f 68/68/68 49/49/49 69/69/69
f 70/70/70 64/64/64 69/69/69
f 49/49/49 71/71/71 69/69/69
f 69/69/69 71/71/71 70/70/70
f 71/71/71 72/72/72 70/70/70
