g facial_eye_geo
v -0.09458351 1.420589 0.0818385
v -0.08151097 1.399314 0.1008934
v -0.088927 1.395995 0.07812493
v -0.08542988 1.418833 0.09803333
v -0.07298007 1.39987 0.1094622
v -0.09879865 1.448778 0.08329006
v -0.07644101 1.418675 0.1050049
v -0.05960759 1.400298 0.1177146
v -0.08986103 1.445648 0.09955586
v -0.06329485 1.417899 0.1109655
v -0.04082139 1.404175 0.1248171
v -0.09594344 1.473394 0.1073771
v -0.1040778 1.477023 0.08533077
v -0.09624074 1.49283 0.1085224
v -0.1049223 1.484798 0.07878707
v -0.1029205 1.513488 0.0864032
v -0.09439208 1.518027 0.1079701
v -0.0729839 1.519011 0.1280462
v -0.06933707 1.442002 0.1105981
v -0.07504523 1.473303 0.1232128
v -0.07585768 1.495844 0.1263177
v -0.04914852 1.517234 0.1366196
v -0.04195391 1.438501 0.1209479
v -0.0450704 1.453093 0.1257917
v -0.04982975 1.468124 0.1323388
v -0.05056675 1.492417 0.1362712
v -0.03958256 1.419689 0.117352
v -0.01958925 1.436263 0.1211937
v -0.02016475 1.424891 0.119054
v -0.0206229 1.405689 0.1345897
v -0 1.407625 0.1416069
v -0.02408026 1.486707 0.1418336
v -0.02276849 1.513936 0.1419597
v -0 1.483322 0.1436774
v -0 1.511453 0.143653
v 0.02276849 1.513936 0.1419597
v -0.02347889 1.463717 0.1410712
v -0 1.425181 0.1396907
v -0 1.442126 0.139852
v 0.02016475 1.424891 0.119054
v 0.0206229 1.405689 0.1345897
v 0.04082139 1.404175 0.1248171
v 0.01958925 1.436263 0.1211937
v 0.03958256 1.419689 0.117352
v 0.02408026 1.486707 0.1418336
v 0.04914852 1.517234 0.1366196
v -0.02090353 1.449923 0.132949
v -0 1.461069 0.144666
v 0.02347889 1.463717 0.1410712
v 0.05056675 1.492417 0.1362712
v 0.02090353 1.449923 0.132949
v 0.07585768 1.495844 0.1263177
v 0.0729839 1.519011 0.1280462
v 0.09624074 1.49283 0.1085224
v 0.09439208 1.518027 0.1079701
v 0.1029205 1.513488 0.0864032
v 0.1049223 1.484798 0.07878707
v 0.1040778 1.477023 0.08533077
v 0.04982975 1.468124 0.1323388
v 0.0450704 1.453093 0.1257917
v 0.07504523 1.473303 0.1232128
v 0.09594344 1.473394 0.1073771
v 0.09879865 1.448778 0.08329006
v 0.04195391 1.438501 0.1209479
v 0.06933707 1.442002 0.1105981
v 0.08986103 1.445648 0.09955586
v 0.06329485 1.417899 0.1109655
v 0.05960759 1.400298 0.1177146
v 0.07298007 1.39987 0.1094622
v 0.07644101 1.418675 0.1050049
v 0.08542988 1.418833 0.09803333
v 0.09458351 1.420589 0.0818385
v 0.08151097 1.399314 0.1008934
v 0.088927 1.395995 0.07812493
vt 0.1420898 0.3886719
vt 0.1657715 0.362793
vt 0.144165 0.3664551
vt 0.1634521 0.3852539
vt 0.177124 0.3637695
vt 0.1429443 0.4125977
vt 0.1733398 0.3845215
vt 0.192627 0.3662109
vt 0.1595459 0.4108887
vt 0.1866455 0.3840332
vt 0.210083 0.371582
vt 0.1580811 0.4365234
vt 0.1375732 0.4387207
vt 0.1577148 0.4533691
vt 0.1358643 0.4458008
vt 0.1439209 0.4726562
vt 0.15979 0.4768066
vt 0.1804199 0.4777832
vt 0.180542 0.4064941
vt 0.1801758 0.4365234
vt 0.1787109 0.4562988
vt 0.2025146 0.4760742
vt 0.2075195 0.4042969
vt 0.2059326 0.4160156
vt 0.2033691 0.432373
vt 0.2019043 0.453125
vt 0.2086182 0.3869629
vt 0.2288818 0.4023438
vt 0.227417 0.392334
vt 0.2297363 0.3740234
vt 0.25 0.3764648
vt 0.2276611 0.4494629
vt 0.2280273 0.4731445
vt 0.25 0.4462891
vt 0.25 0.4707031
vt 0.2719727 0.4731445
vt 0.2282715 0.4289551
vt 0.25 0.3928223
vt 0.25 0.4089355
vt 0.2727051 0.392334
vt 0.2702637 0.3740234
vt 0.2900391 0.371582
vt 0.2712402 0.4023438
vt 0.2915039 0.3869629
vt 0.2722168 0.4494629
vt 0.2976074 0.4760742
vt 0.2293701 0.4157715
vt 0.25 0.4265137
vt 0.2717285 0.4289551
vt 0.2980957 0.453125
vt 0.2705078 0.4157715
vt 0.3212891 0.4562988
vt 0.3195801 0.4777832
vt 0.3422852 0.4533691
vt 0.3400879 0.4768066
vt 0.355957 0.4726562
vt 0.3642578 0.4458008
vt 0.3623047 0.4387207
vt 0.2966309 0.432373
vt 0.2941895 0.4160156
vt 0.3198242 0.4365234
vt 0.342041 0.4365234
vt 0.3571777 0.4125977
vt 0.2924805 0.4040527
vt 0.3195801 0.40625
vt 0.3405762 0.4108887
vt 0.3134766 0.3840332
vt 0.307373 0.3662109
vt 0.3227539 0.3637695
vt 0.3266602 0.3845215
vt 0.3364258 0.3852539
vt 0.3579102 0.3886719
vt 0.3342285 0.362793
vt 0.355957 0.3664551
vn -0.948154 -0.1842083 0.258981
vn -0.8467618 -0.1956496 0.4946874
vn -0.917188 -0.2801057 0.2833847
vn -0.8333476 -0.1541175 0.5308291
vn -0.5701545 -0.002754423 0.821533
vn -0.9232071 -0.2056396 0.3246549
vn -0.5434883 0.0061584 0.8393942
vn -0.4334534 0.1123917 0.8941399
vn -0.705978 -0.2714225 0.6541597
vn -0.3692924 0.06021852 0.9273601
vn -0.4227874 0.2789448 0.8622301
vn -0.7464637 -0.1860083 0.6388997
vn -0.9720772 -0.09424035 0.2149063
vn -0.7956055 -0.005751092 0.6057877
vn -0.9866595 -0.03996271 0.1578164
vn -0.9535661 0.03880409 0.2986737
vn -0.7755225 0.2071288 0.5963744
vn -0.5395614 0.1822371 0.8219873
vn -0.4018006 -0.2612332 0.8776751
vn -0.4798648 -0.2236378 0.8483607
vn -0.5211626 -0.04251898 0.8523976
vn -0.260697 0.1477941 0.9540409
vn -0.2390635 -0.2130355 0.947346
vn -0.318722 -0.4350112 0.8421292
vn -0.3352856 -0.2172775 0.9167193
vn -0.2986792 -0.06273623 0.9522893
vn -0.2759056 0.09284719 0.9566899
vn -0.4033904 -0.3504301 0.8452662
vn -0.4686631 0.260489 0.8440973
vn -0.5016778 0.3593329 0.7868921
vn 3.569181E-07 0.4555726 0.8901986
vn -0.1738264 -0.02899139 0.9843495
vn -0.1262904 0.2034524 0.9709057
vn -0 0.00170892 0.9999986
vn -0 0.1202853 0.9927394
vn 0.1262905 0.2034528 0.9709056
vn -0.2372588 -0.1646679 0.9573885
vn 5.554367E-07 0.3192101 0.947684
vn -0 -0.3087764 0.9511346
vn 0.4686643 0.2604889 0.8440967
vn 0.5016787 0.3593337 0.7868913
vn 0.4227879 0.278945 0.8622297
vn 0.4033909 -0.3504303 0.845266
vn 0.2759053 0.0928455 0.9566901
vn 0.1738265 -0.02899144 0.9843494
vn 0.2606969 0.1477941 0.9540409
vn -0.3764318 -0.5703699 0.7300531
vn -0 -0.07836066 0.9969251
vn 0.237259 -0.1646676 0.9573885
vn 0.2986792 -0.06273612 0.9522893
vn 0.3764322 -0.57037 0.7300526
vn 0.5211622 -0.04251891 0.8523979
vn 0.539561 0.1822372 0.8219875
vn 0.7956053 -0.005751133 0.605788
vn 0.7755224 0.2071288 0.5963747
vn 0.9271798 0.1793382 0.3289004
vn 0.9866595 -0.03996271 0.1578159
vn 0.9720773 -0.09424035 0.214906
vn 0.3352857 -0.2172773 0.9167193
vn 0.3187221 -0.4350115 0.842129
vn 0.4798652 -0.2236377 0.8483605
vn 0.746464 -0.1860084 0.6388994
vn 0.9232071 -0.2056396 0.3246552
vn 0.2390639 -0.2130369 0.9473456
vn 0.4018013 -0.2612334 0.8776746
vn 0.7059784 -0.2714229 0.6541592
vn 0.3692932 0.06021814 0.9273599
vn 0.433454 0.1123917 0.8941398
vn 0.5701546 -0.002754436 0.8215328
vn 0.5434887 0.006158195 0.8393938
vn 0.8333477 -0.1541176 0.5308288
vn 0.948154 -0.1842083 0.258981
vn 0.8467621 -0.1956497 0.494687
vn 0.9171879 -0.2801058 0.2833852
g facial_eye_geo_0
f 3/3/3 2/2/2 1/1/1
f 2/2/2 4/4/4 1/1/1
f 2/2/2 5/5/5 4/4/4
f 6/6/6 1/1/1 4/4/4
f 5/5/5 7/7/7 4/4/4
f 5/5/5 8/8/8 7/7/7
f 9/9/9 6/6/6 4/4/4
f 7/7/7 9/9/9 4/4/4
f 8/8/8 10/10/10 7/7/7
f 8/8/8 11/11/11 10/10/10
f 12/12/12 6/6/6 9/9/9
f 12/12/12 13/13/13 6/6/6
f 12/12/12 14/14/14 13/13/13
f 15/15/15 13/13/13 14/14/14
f 16/16/16 15/15/15 14/14/14
f 17/17/17 16/16/16 14/14/14
f 17/17/17 14/14/14 18/18/18
f 19/19/19 9/9/9 7/7/7
f 7/7/7 10/10/10 19/19/19
f 9/9/9 20/20/20 12/12/12
f 12/12/12 20/20/20 14/14/14
f 9/9/9 19/19/19 20/20/20
f 14/14/14 21/21/21 18/18/18
f 20/20/20 21/21/21 14/14/14
f 18/18/18 21/21/21 22/22/22
f 19/19/19 10/10/10 23/23/23
f 20/20/20 19/19/19 24/24/24
f 19/19/19 23/23/23 24/24/24
f 20/20/20 25/25/25 21/21/21
f 24/24/24 25/25/25 20/20/20
f 21/21/21 26/26/26 22/22/22
f 25/25/25 26/26/26 21/21/21
f 10/10/10 27/27/27 23/23/23
f 11/11/11 27/27/27 10/10/10
f 24/24/24 23/23/23 28/28/28
f 23/23/23 27/27/27 28/28/28
f 27/27/27 11/11/11 29/29/29
f 28/28/28 27/27/27 29/29/29
f 11/11/11 30/30/30 29/29/29
f 30/30/30 31/31/31 29/29/29
f 26/26/26 32/32/32 22/22/22
f 32/32/32 33/33/33 22/22/22
f 33/33/33 32/32/32 34/34/34
f 35/35/35 33/33/33 34/34/34
f 36/36/36 35/35/35 34/34/34
f 37/37/37 32/32/32 26/26/26
f 34/34/34 32/32/32 37/37/37
f 25/25/25 37/37/37 26/26/26
f 31/31/31 38/38/38 29/29/29
f 28/28/28 29/29/29 38/38/38
f 38/38/38 39/39/39 28/28/28
f 38/38/38 31/31/31 40/40/40
f 31/31/31 41/41/41 40/40/40
f 41/41/41 42/42/42 40/40/40
f 38/38/38 40/40/40 43/43/43
f 43/43/43 39/39/39 38/38/38
f 42/42/42 44/44/44 40/40/40
f 40/40/40 44/44/44 43/43/43
f 45/45/45 36/36/36 34/34/34
f 36/36/36 45/45/45 46/46/46
f 47/47/47 37/37/37 25/25/25
f 39/39/39 47/47/47 28/28/28
f 37/37/37 47/47/47 39/39/39
f 25/25/25 24/24/24 47/47/47
f 24/24/24 28/28/28 47/47/47
f 48/48/48 34/34/34 37/37/37
f 39/39/39 48/48/48 37/37/37
f 34/34/34 48/48/48 49/49/49
f 45/45/45 34/34/34 49/49/49
f 49/49/49 48/48/48 39/39/39
f 45/45/45 50/50/50 46/46/46
f 45/45/45 49/49/49 50/50/50
f 39/39/39 51/51/51 49/49/49
f 43/43/43 51/51/51 39/39/39
f 50/50/50 52/52/52 46/46/46
f 52/52/52 53/53/53 46/46/46
f 52/52/52 54/54/54 53/53/53
f 54/54/54 55/55/55 53/53/53
f 56/56/56 55/55/55 54/54/54
f 57/57/57 56/56/56 54/54/54
f 58/58/58 57/57/57 54/54/54
f 49/49/49 59/59/59 50/50/50
f 59/59/59 49/49/49 51/51/51
f 50/50/50 59/59/59 52/52/52
f 43/43/43 60/60/60 51/51/51
f 51/51/51 60/60/60 59/59/59
f 59/59/59 61/61/61 52/52/52
f 52/52/52 61/61/61 54/54/54
f 61/61/61 59/59/59 60/60/60
f 58/58/58 54/54/54 62/62/62
f 61/61/61 62/62/62 54/54/54
f 58/58/58 62/62/62 63/63/63
f 43/43/43 64/64/64 60/60/60
f 43/43/43 44/44/44 64/64/64
f 64/64/64 65/65/65 60/60/60
f 60/60/60 65/65/65 61/61/61
f 64/64/64 44/44/44 65/65/65
f 61/61/61 66/66/66 62/62/62
f 63/63/63 62/62/62 66/66/66
f 61/61/61 65/65/65 66/66/66
f 44/44/44 67/67/67 65/65/65
f 44/44/44 42/42/42 67/67/67
f 42/42/42 68/68/68 67/67/67
f 67/67/67 68/68/68 69/69/69
f 65/65/65 67/67/67 70/70/70
f 70/70/70 66/66/66 65/65/65
f 70/70/70 67/67/67 69/69/69
f 63/63/63 66/66/66 71/71/71
f 66/66/66 70/70/70 71/71/71
f 70/70/70 69/69/69 71/71/71
f 72/72/72 63/63/63 71/71/71
f 69/69/69 73/73/73 71/71/71
f 71/71/71 73/73/73 72/72/72
f 73/73/73 74/74/74 72/72/72
