g body_tp_geo
v -0.01747491 -0.09018856 0.4001021
v -0.01792753 -0.1308257 0.3060545
v 0.02159304 -0.1308257 0.3060546
v 0.02114044 -0.09018856 0.4001021
v 0.02114044 -0.09018856 0.4001021
v 0.02124676 -0.1196554 0.422602
v -0.01758127 -0.1196554 0.422602
v -0.01747491 -0.09018856 0.4001021
v 0.02124676 -0.1010608 0.4592489
v 0.02124677 -0.08034395 0.4549346
v -0.01758126 -0.08034395 0.4549346
v -0.01758127 -0.1010608 0.4592489
v 0.02124681 -0.1021585 1.161264
v 0.02090049 -0.1417081 1.31525
v -0.01723493 -0.1417081 1.31525
v -0.01758124 -0.1021585 1.161264
v 0.02124682 -0.1514823 1.04612
v 0.02124677 -0.1529873 1.10341
v -0.01758128 -0.1529873 1.10341
v -0.01758123 -0.1514823 1.04612
v 0.02124677 -0.09065864 1.022786
v -0.01758128 -0.09065864 1.022786
v -0.01758124 -0.051964 0.993622
v 0.02124682 -0.051964 0.993622
v 0.02124674 -0.07882952 0.4471932
v 0.02124677 0.02199032 0.4463719
v -0.01758126 0.02199032 0.446372
v -0.01758127 -0.07882952 0.4471932
v 0.02124677 -0.08034395 0.4549346
v 0.02124674 -0.07882952 0.4471932
v -0.01758127 -0.07882952 0.4471932
v -0.01758126 -0.08034395 0.4549346
v 0.02124682 -0.1325389 1.023912
v 0.02124682 -0.1514823 1.04612
v -0.01758123 -0.1514823 1.04612
v -0.01758124 -0.1325389 1.023912
v 0.0212468 -0.1244862 1.029284
v 0.02124682 -0.1325389 1.023912
v -0.01758124 -0.1325389 1.023912
v -0.01758125 -0.1244862 1.029284
v 0.02124676 -0.1018235 1.014032
v 0.0212468 -0.1244862 1.029284
v -0.01758125 -0.1244862 1.029284
v -0.01758129 -0.1018235 1.014032
v 0.02124677 -0.09065864 1.022786
v 0.02124676 -0.1018235 1.014032
v -0.01758129 -0.1018235 1.014032
v -0.01758128 -0.09065864 1.022786
v 0.02124677 -0.1529873 1.10341
v 0.02124681 -0.1021585 1.161264
v -0.01758124 -0.1021585 1.161264
v -0.01758128 -0.1529873 1.10341
v 0.02124681 -0.1021585 1.161264
v 0.02090047 -0.1986076 1.273762
v 0.02090049 -0.1417081 1.31525
v 0.02124677 -0.1529873 1.10341
v 0.0209005 -0.2470502 1.233756
v 0.0209005 -0.2848812 1.197263
v 0.02090046 -0.3036715 1.174701
v 0.0209005 -0.3190182 1.148742
v 0.02124682 -0.1514823 1.04612
v 0.0209005 -0.3213148 0.5686073
v 0.02124674 -0.05196388 0.6334826
v 0.02124682 -0.1325389 1.023912
v 0.02124677 0.02199029 0.6352028
v 0.02090048 -0.3145846 0.5214869
v 0.02124676 -0.1018235 1.014032
v 0.0212468 -0.1244862 1.029284
v 0.02124682 -0.051964 0.993622
v 0.02124677 -0.09065864 1.022786
v 0.02124676 -0.1010608 0.4592489
v 0.02090046 -0.2978405 0.4650434
v 0.02124677 -0.08034395 0.4549346
v 0.02124674 -0.07882952 0.4471932
v 0.02124677 0.02199032 0.4463719
v 0.02124676 -0.1105232 0.4514869
v 0.02090049 -0.2492027 0.3893144
v 0.02124675 -0.1190999 0.4351161
v 0.02124676 -0.1196554 0.422602
v 0.02090048 -0.1778891 0.3362961
v 0.02114044 -0.09018856 0.4001021
v 0.02159304 -0.1308257 0.3060546
v -0.01758127 -0.1196554 0.422602
v 0.02124676 -0.1196554 0.422602
v 0.02124675 -0.1190999 0.4351161
v -0.01758126 -0.1190999 0.4351161
v -0.01758127 -0.1105232 0.4514869
v 0.02124676 -0.1105232 0.4514869
v 0.02124676 -0.1010608 0.4592489
v -0.01758127 -0.1010608 0.4592489
v -0.01758124 -0.1021585 1.161264
v -0.01723493 -0.1417081 1.31525
v -0.01723496 -0.1986076 1.273762
v -0.01758128 -0.1529873 1.10341
v -0.01723493 -0.2470502 1.233756
v -0.01723493 -0.2848812 1.197263
v -0.01723497 -0.3036715 1.174701
v -0.01723492 -0.3190182 1.148742
v -0.01758123 -0.1514823 1.04612
v -0.01723497 -0.3213148 0.5686073
v -0.01758127 -0.05196388 0.6334826
v -0.01758124 -0.1325389 1.023912
v -0.01758123 0.02199029 0.6352028
v -0.01723499 -0.3145846 0.5214869
v -0.01758129 -0.1018235 1.014032
v -0.01758125 -0.1244862 1.029284
v -0.01758124 -0.051964 0.993622
v -0.01758128 -0.09065864 1.022786
v -0.01758127 -0.1010608 0.4592489
v -0.01723499 -0.2978405 0.4650434
v -0.01758126 -0.08034395 0.4549346
v -0.01758127 -0.07882952 0.4471932
v -0.01758126 0.02199032 0.446372
v -0.01758127 -0.1105232 0.4514869
v -0.01723495 -0.2492027 0.3893144
v -0.01758126 -0.1190999 0.4351161
v -0.01758127 -0.1196554 0.422602
v -0.01723497 -0.1778891 0.3362961
v -0.01747491 -0.09018856 0.4001021
v -0.01792753 -0.1308257 0.3060545
vt 0.840332 0.2814941
vt 0.7412109 0.2814941
vt 0.7412109 0.298584
vt 0.840332 0.298584
vt 0.6474609 0.08331299
vt 0.6025391 0.08331299
vt 0.6025391 0.1009521
vt 0.6474609 0.1009521
vt 0.5566406 0.08331299
vt 0.5366211 0.08331299
vt 0.5366211 0.1009521
vt 0.5566406 0.1009521
vt 0.7299805 0.02081299
vt 0.8989258 0.02081299
vt 0.8989258 0.004310608
vt 0.7299805 0.004310608
vt 0.5932617 0.02081299
vt 0.6499023 0.02081299
vt 0.6499023 0.004310608
vt 0.5932617 0.004310608
vt 0.5209961 0.02081299
vt 0.5209961 0.004310608
vt 0.4824219 0.004310608
vt 0.4824219 0.02081299
vt 0.53125 0.08331299
vt 0.453125 0.08331299
vt 0.453125 0.1009521
vt 0.53125 0.1009521
vt 0.5366211 0.08331299
vt 0.53125 0.08331299
vt 0.53125 0.1009521
vt 0.5366211 0.1009521
vt 0.5649414 0.02081299
vt 0.5932617 0.02081299
vt 0.5932617 0.004310608
vt 0.5649414 0.004310608
vt 0.5556641 0.02081299
vt 0.5649414 0.02081299
vt 0.5649414 0.004310608
vt 0.5556641 0.004310608
vt 0.5322266 0.02081299
vt 0.5556641 0.02081299
vt 0.5556641 0.004310608
vt 0.5322266 0.004310608
vt 0.5209961 0.02081299
vt 0.5322266 0.02081299
vt 0.5322266 0.004310608
vt 0.5209961 0.004310608
vt 0.6499023 0.02081299
vt 0.7299805 0.02081299
vt 0.7299805 0.004310608
vt 0.6499023 0.004310608
vt 0.3798828 0.2406006
vt 0.4411621 0.1687012
vt 0.4052734 0.1416016
vt 0.411377 0.2792969
vt 0.4726562 0.1948242
vt 0.4970703 0.2186279
vt 0.5092773 0.2332764
vt 0.519043 0.2502441
vt 0.411377 0.3164062
vt 0.519043 0.6274414
vt 0.3447266 0.5839844
vt 0.3981934 0.3317871
vt 0.2958984 0.5839844
vt 0.5146484 0.6582031
vt 0.3776855 0.338623
vt 0.3920898 0.3291016
vt 0.3447266 0.3486328
vt 0.3708496 0.3327637
vt 0.3764648 0.6967773
vt 0.503418 0.6948242
vt 0.3615723 0.7006836
vt 0.3605957 0.7050781
vt 0.2958984 0.7050781
vt 0.3825684 0.7026367
vt 0.4716797 0.7436523
vt 0.3884277 0.7133789
vt 0.3886719 0.7216797
vt 0.425293 0.777832
vt 0.3706055 0.7363281
vt 0.3952637 0.7973633
vt 0.6025391 0.1009521
vt 0.6025391 0.08331299
vt 0.5883789 0.08331299
vt 0.5883789 0.1009521
vt 0.5688477 0.1009521
vt 0.5688477 0.08331299
vt 0.5566406 0.08331299
vt 0.5566406 0.1009521
vt 0.3798828 0.2406006
vt 0.4052734 0.1416016
vt 0.4411621 0.1687012
vt 0.411377 0.2792969
vt 0.4726562 0.1948242
vt 0.4970703 0.2186279
vt 0.5092773 0.2332764
vt 0.519043 0.2502441
vt 0.411377 0.3164062
vt 0.519043 0.6274414
vt 0.3447266 0.5839844
vt 0.3981934 0.3317871
vt 0.2958984 0.5839844
vt 0.5146484 0.6582031
vt 0.3776855 0.338623
vt 0.3920898 0.3291016
vt 0.3447266 0.3486328
vt 0.3708496 0.3327637
vt 0.3764648 0.6967773
vt 0.503418 0.6948242
vt 0.3615723 0.7006836
vt 0.3605957 0.7050781
vt 0.2958984 0.7050781
vt 0.3825684 0.7026367
vt 0.4716797 0.7436523
vt 0.3884277 0.7133789
vt 0.3886719 0.7216797
vt 0.425293 0.777832
vt 0.3706055 0.7363281
vt 0.3952637 0.7973633
vn -0 0.9179688 -0.3967285
vn -0 0.9179688 -0.3967285
vn -0 0.9179688 -0.3967285
vn -0 0.9179688 -0.3967285
vn 5.364418E-07 0.6069336 0.7949219
vn 5.364418E-07 0.6069336 0.7949219
vn 5.364418E-07 0.6069336 0.7949219
vn 5.364418E-07 0.6069336 0.7949219
vn -0 -0.2038574 -0.9790039
vn -0 -0.2038574 -0.9790039
vn -0 -0.2038574 -0.9790039
vn -0 -0.2038574 -0.9790039
vn -0 0.96875 0.2487793
vn -0 0.96875 0.2487793
vn -0 0.96875 0.2487793
vn -0 0.96875 0.2487793
vn -0 0.9995117 0.02626038
vn -0 0.9995117 0.02626038
vn -0 0.9995117 0.02626038
vn -0 0.9995117 0.02626038
vn -0 0.6020508 0.7983398
vn -0 0.6020508 0.7983398
vn -0 0.6020508 0.7983398
vn -0 0.6020508 0.7983398
vn -0 -0.008148193 -1
vn -0 -0.008148193 -1
vn -0 -0.008148193 -1
vn -0 -0.008148193 -1
vn -0 -0.9814453 -0.1920166
vn -0 -0.9814453 -0.1920166
vn -0 -0.9814453 -0.1920166
vn -0 -0.9814453 -0.1920166
vn -0 0.7607422 0.6489258
vn -0 0.7607422 0.6489258
vn -0 0.7607422 0.6489258
vn -0 0.7607422 0.6489258
vn -0 -0.5546875 0.8320312
vn -0 -0.5546875 0.8320312
vn -0 -0.5546875 0.8320312
vn -0 -0.5546875 0.8320312
vn -1.430511E-06 0.5581055 0.8295898
vn -1.430511E-06 0.5581055 0.8295898
vn -1.430511E-06 0.5581055 0.8295898
vn -1.430511E-06 0.5581055 0.8295898
vn -1.370907E-06 -0.6171875 0.7871094
vn -1.370907E-06 -0.6171875 0.7871094
vn -1.370907E-06 -0.6171875 0.7871094
vn -1.370907E-06 -0.6171875 0.7871094
vn -0 0.7514648 -0.6601562
vn -0 0.7514648 -0.6601562
vn -0 0.7514648 -0.6601562
vn -0 0.7514648 -0.6601562
vn 1 -0.001562119 0.001641273
vn 1 -0.001521111 0.00169754
vn 1 -0.001381874 0.001893997
vn 1 -0.001778603 0.0009946823
vn 1 -0.001566887 0.001597404
vn 1 -0.001566887 0.001487732
vn 1 -0.001923561 0.0005469322
vn 1 -0.0020504 6.872416E-05
vn 1 -0.001690865 -9.447336E-05
vn 1 -0.00124073 -0.000423193
vn 1 -0.001049042 -0.0005226135
vn 1 -0.001084328 -0.0002617836
vn 1 -0.0009479523 0.0004057884
vn 1 -0.001160622 -0.0002746582
vn 1 0 0
vn 1 1.728535E-06 1.788139E-07
vn 1 -1.192093E-06 -2.384186E-07
vn 1 -1.192093E-06 -2.384186E-07
vn 1 -0.00129509 0.0008635521
vn 1 -0.00190258 -0.0006761551
vn 1 0 -1.192093E-07
vn 1 0 -1.788139E-07
vn 1 0 -1.788139E-07
vn 1 -0.00202179 -0.0003859997
vn 1 -0.002067566 -0.001309395
vn 1 -0.002120972 -0.00085783
vn 1 -0.004032135 0.001346588
vn 1 -0.003662109 0.0004687309
vn 1 -0.005264282 0.003475189
vn 1 -0.005264282 0.003475189
vn -0 0.9990234 -0.04434204
vn -0 0.9990234 -0.04434204
vn -3.576279E-07 0.9536133 -0.3015137
vn -3.576279E-07 0.9536133 -0.3015137
vn -2.980232E-07 0.8007812 -0.5986328
vn -2.980232E-07 0.8007812 -0.5986328
vn -0 0.6342773 -0.7729492
vn -0 0.6342773 -0.7729492
vn -1 -0.001562119 0.001641273
vn -1 -0.00138092 0.001893997
vn -1 -0.001521111 0.001698494
vn -1 -0.001778603 0.0009946823
vn -1 -0.001566887 0.001597404
vn -1 -0.001565933 0.001489639
vn -1 -0.001924515 0.0005459785
vn -1 -0.0020504 6.842613E-05
vn -1 -0.001690865 -9.447336E-05
vn -1 -0.00124073 -0.000423193
vn -1 -0.001049042 -0.0005226135
vn -1 -0.001085281 -0.0002615452
vn -1 -0.0009479523 0.0004057884
vn -1 -0.001159668 -0.0002746582
vn -1 0 0
vn -1 -1.847744E-06 -2.980232E-07
vn -1 1.132488E-06 0
vn -1 1.132488E-06 0
vn -1 -0.001294136 0.0008640289
vn -1 -0.00190258 -0.0006761551
vn -1 0 1.192093E-07
vn -1 0 1.788139E-07
vn -1 0 1.788139E-07
vn -1 -0.00202179 -0.0003864765
vn -1 -0.002067566 -0.001309395
vn -1 -0.002119064 -0.0008583069
vn -1 -0.004032135 0.001346588
vn -1 -0.003662109 0.0004687309
vn -1 -0.005264282 0.003475189
vn -1 -0.005264282 0.003475189
g body_tp_geo_0
f 3/3/3 2/2/2 1/1/1
f 4/4/4 3/3/3 1/1/1
f 7/7/7 6/6/6 5/5/5
f 8/8/8 7/7/7 5/5/5
f 11/11/11 10/10/10 9/9/9
f 12/12/12 11/11/11 9/9/9
f 15/15/15 14/14/14 13/13/13
f 16/16/16 15/15/15 13/13/13
f 19/19/19 18/18/18 17/17/17
f 20/20/20 19/19/19 17/17/17
f 23/23/23 22/22/22 21/21/21
f 24/24/24 23/23/23 21/21/21
f 27/27/27 26/26/26 25/25/25
f 28/28/28 27/27/27 25/25/25
f 31/31/31 30/30/30 29/29/29
f 32/32/32 31/31/31 29/29/29
f 35/35/35 34/34/34 33/33/33
f 36/36/36 35/35/35 33/33/33
f 39/39/39 38/38/38 37/37/37
f 40/40/40 39/39/39 37/37/37
f 43/43/43 42/42/42 41/41/41
f 44/44/44 43/43/43 41/41/41
f 47/47/47 46/46/46 45/45/45
f 48/48/48 47/47/47 45/45/45
f 51/51/51 50/50/50 49/49/49
f 52/52/52 51/51/51 49/49/49
f 55/55/55 54/54/54 53/53/53
f 53/53/53 54/54/54 56/56/56
f 54/54/54 57/57/57 56/56/56
f 57/57/57 58/58/58 56/56/56
f 58/58/58 59/59/59 56/56/56
f 56/56/56 59/59/59 60/60/60
f 61/61/61 56/56/56 60/60/60
f 61/61/61 60/60/60 62/62/62
f 61/61/61 62/62/62 63/63/63
f 64/64/64 61/61/61 63/63/63
f 63/63/63 62/62/62 65/65/65
f 62/62/62 66/66/66 65/65/65
f 63/63/63 67/67/67 64/64/64
f 67/67/67 68/68/68 64/64/64
f 63/63/63 69/69/69 67/67/67
f 69/69/69 70/70/70 67/67/67
f 66/66/66 71/71/71 65/65/65
f 72/72/72 71/71/71 66/66/66
f 71/71/71 73/73/73 65/65/65
f 73/73/73 74/74/74 65/65/65
f 74/74/74 75/75/75 65/65/65
f 72/72/72 76/76/76 71/71/71
f 76/76/76 72/72/72 77/77/77
f 78/78/78 76/76/76 77/77/77
f 78/78/78 77/77/77 79/79/79
f 77/77/77 80/80/80 79/79/79
f 79/79/79 80/80/80 81/81/81
f 80/80/80 82/82/82 81/81/81
f 85/85/85 84/84/84 83/83/83
f 86/86/86 85/85/85 83/83/83
f 86/86/86 87/87/87 85/85/85
f 87/87/87 88/88/88 85/85/85
f 89/89/89 88/88/88 87/87/87
f 90/90/90 89/89/89 87/87/87
f 93/93/93 92/92/92 91/91/91
f 93/93/93 91/91/91 94/94/94
f 95/95/95 93/93/93 94/94/94
f 96/96/96 95/95/95 94/94/94
f 97/97/97 96/96/96 94/94/94
f 97/97/97 94/94/94 98/98/98
f 94/94/94 99/99/99 98/98/98
f 98/98/98 99/99/99 100/100/100
f 100/100/100 99/99/99 101/101/101
f 99/99/99 102/102/102 101/101/101
f 100/100/100 101/101/101 103/103/103
f 104/104/104 100/100/100 103/103/103
f 105/105/105 101/101/101 102/102/102
f 106/106/106 105/105/105 102/102/102
f 107/107/107 101/101/101 105/105/105
f 108/108/108 107/107/107 105/105/105
f 109/109/109 104/104/104 103/103/103
f 109/109/109 110/110/110 104/104/104
f 111/111/111 109/109/109 103/103/103
f 112/112/112 111/111/111 103/103/103
f 113/113/113 112/112/112 103/103/103
f 114/114/114 110/110/110 109/109/109
f 110/110/110 114/114/114 115/115/115
f 114/114/114 116/116/116 115/115/115
f 115/115/115 116/116/116 117/117/117
f 118/118/118 115/115/115 117/117/117
f 118/118/118 117/117/117 119/119/119
f 120/120/120 118/118/118 119/119/119
