g facial_eye_geo
v 0.1017746 1.36781 0.06875764
v 0.09240223 1.336745 0.05915349
v 0.09218628 1.349241 0.08406538
v 0.09669297 1.375881 0.0820366
v 0.08172563 1.358142 0.0995889
v 0.1039132 1.395896 0.06897449
v 0.08532253 1.379389 0.09623753
v 0.06898689 1.361379 0.1098487
v 0.09385267 1.397294 0.08531135
v 0.09564296 1.422491 0.08669337
v 0.1075793 1.436203 0.07327553
v 0.07724503 1.397007 0.09737718
v 0.06949789 1.380897 0.1052533
v 0.0475428 1.381015 0.1135101
v 0.04596012 1.362951 0.1175115
v 0.0253919 1.386091 0.1222203
v 0.0180321 1.352029 0.1377741
v 0.1011738 1.439408 0.08875282
v 0.0823692 1.431509 0.1021942
v 0.09793026 1.461755 0.09122542
v 0.1074294 1.466094 0.07128282
v 0.08519332 1.444861 0.1093444
v 0.0680347 1.429064 0.110854
v 0.06579721 1.391909 0.1033843
v 0.04877163 1.392836 0.1076787
v 0.0948671 1.482553 0.09025087
v 0.1075312 1.498712 0.0668204
v 0.09510856 1.50301 0.0849373
v 0.0772357 1.504846 0.100813
v 0.08087352 1.455267 0.1087765
v 0.07835922 1.473508 0.109091
v 0.0567547 1.502749 0.1130181
v 0.05853571 1.469047 0.1199926
v 0.05872692 1.451273 0.1247073
v 0.05850412 1.437549 0.1248526
v 0.03130475 1.464895 0.132581
v 0.02870098 1.499513 0.1259793
v 0.03250576 1.445876 0.1341878
v 1.497994E-10 1.439955 0.139004
v 1.497994E-10 1.462445 0.1374399
v 1.497994E-10 1.49769 0.1302981
v -0.02870098 1.499513 0.1259793
v -0.03130475 1.464895 0.132581
v -0.0567547 1.502749 0.1130181
v 0.0534731 1.425478 0.116269
v 0.03150078 1.427888 0.1349335
v 1.497994E-10 1.416226 0.1356266
v 0.02755299 1.414585 0.122868
v 0.01488922 1.410196 0.1297525
v 0.02291165 1.398163 0.1164018
v 0.01133079 1.400248 0.1277275
v 0.01282652 1.378051 0.132973
v 1.497994E-10 1.399985 0.1321415
v 1.497994E-10 1.360693 0.1554905
v 1.497994E-10 1.353928 0.1542627
v -0.0180321 1.352029 0.1377741
v 1.497994E-10 1.377398 0.1455467
v -0.01282652 1.378051 0.132973
v -0.0253919 1.386091 0.1222203
v -0.04596012 1.362951 0.1175115
v -0.01133079 1.400248 0.1277275
v -0.0475428 1.381015 0.1135101
v -0.06898688 1.361379 0.1098487
v -0.02291165 1.398163 0.1164018
v -0.01488922 1.410196 0.1297525
v -0.02755299 1.414585 0.122868
v -0.03150078 1.427888 0.1349335
v -0.04877163 1.392836 0.1076787
v -0.06949789 1.380897 0.1052533
v -0.03250576 1.445876 0.1341878
v -0.0534731 1.425478 0.116269
v -0.05850412 1.437549 0.1248526
v -0.05853571 1.469047 0.1199926
v -0.0680347 1.429064 0.110854
v -0.05872692 1.451273 0.1247073
v -0.07835922 1.473508 0.109091
v -0.0772357 1.504846 0.100813
v -0.08519332 1.444861 0.1093444
v -0.08087352 1.455267 0.1087765
v -0.0948671 1.482553 0.09025087
v -0.09510856 1.50301 0.0849373
v -0.1075312 1.498712 0.0668204
v -0.1074294 1.466094 0.07128282
v -0.09793026 1.461755 0.09122542
v -0.1075793 1.436203 0.07327553
v -0.1011738 1.439408 0.08875282
v -0.0823692 1.431509 0.1021942
v -0.09564296 1.422491 0.08669337
v -0.1039132 1.395896 0.06897449
v -0.07724503 1.397007 0.09737718
v -0.09385267 1.397294 0.08531135
v -0.09669297 1.375881 0.0820366
v -0.1017746 1.36781 0.06875764
v -0.09218628 1.349241 0.08406538
v -0.09240223 1.336745 0.05915349
v -0.08172561 1.358142 0.0995889
v -0.08532253 1.379389 0.09623753
v -0.06579721 1.391909 0.1033843
v -0.1075312 1.498712 0.0668204
v -0.09462617 1.518927 0.07997255
v -0.09510856 1.50301 0.0849373
v -0.07657039 1.523466 0.09411968
v -0.0772357 1.504846 0.100813
v -0.0567547 1.502749 0.1130181
v -0.05268105 1.524028 0.1092043
v -0.02870098 1.499513 0.1259793
v -0.02650234 1.522113 0.1187499
v 1.497994E-10 1.49769 0.1302981
v 1.497994E-10 1.520905 0.1239744
v 0.02650234 1.522113 0.1187499
v 0.02870098 1.499513 0.1259793
v 0.05268105 1.524028 0.1092043
v 0.0567547 1.502749 0.1130181
v 0.0765704 1.523466 0.09411968
v 0.0772357 1.504846 0.100813
v 0.09510856 1.50301 0.0849373
v 0.09462617 1.518927 0.07997255
v 0.1075312 1.498712 0.0668204
vt 0.3391113 0.3696289
vt 0.3371582 0.345459
vt 0.3251953 0.3552246
vt 0.3291016 0.3757324
vt 0.3134766 0.3620605
vt 0.340332 0.3913574
vt 0.3161621 0.378418
vt 0.3034668 0.364502
vt 0.3254395 0.392334
vt 0.3291016 0.4118652
vt 0.3422852 0.4226074
vt 0.3100586 0.3916016
vt 0.3039551 0.3796387
vt 0.2868652 0.3798828
vt 0.2856445 0.3657227
vt 0.2697754 0.3837891
vt 0.263916 0.3571777
vt 0.3303223 0.4250488
vt 0.3139648 0.4204102
vt 0.3291016 0.4421387
vt 0.345459 0.4458008
vt 0.3161621 0.4318848
vt 0.3039551 0.4189453
vt 0.3022461 0.387207
vt 0.2878418 0.3881836
vt 0.3278809 0.458252
vt 0.3476562 0.4711914
vt 0.3303223 0.4743652
vt 0.3100586 0.4758301
vt 0.3127441 0.4387207
vt 0.310791 0.4511719
vt 0.2939453 0.4743652
vt 0.2954102 0.4487305
vt 0.2956543 0.4367676
vt 0.2954102 0.4262695
vt 0.2744141 0.4455566
vt 0.2722168 0.4716797
vt 0.2751465 0.4326172
vt 0.25 0.4287109
vt 0.25 0.4428711
vt 0.25 0.4702148
vt 0.2277832 0.4716797
vt 0.225708 0.4455566
vt 0.2059326 0.4743652
vt 0.2915039 0.416748
vt 0.2744141 0.420166
vt 0.25 0.4111328
vt 0.2719727 0.407959
vt 0.2614746 0.4040527
vt 0.2678223 0.3930664
vt 0.2607422 0.3947754
vt 0.262207 0.3774414
vt 0.25 0.3945312
vt 0.25 0.3640137
vt 0.25 0.3586426
vt 0.2359619 0.3571777
vt 0.25 0.3769531
vt 0.2376709 0.3774414
vt 0.2303467 0.3837891
vt 0.2143555 0.3657227
vt 0.2393799 0.3947754
vt 0.2131348 0.3798828
vt 0.1964111 0.364502
vt 0.2321777 0.3930664
vt 0.2384033 0.4040527
vt 0.2280273 0.407959
vt 0.2255859 0.420166
vt 0.2121582 0.3881836
vt 0.1960449 0.3796387
vt 0.2247314 0.4326172
vt 0.2084961 0.416748
vt 0.2045898 0.4262695
vt 0.2045898 0.4487305
vt 0.1959229 0.4189453
vt 0.2044678 0.4367676
vt 0.189209 0.4511719
vt 0.1900635 0.4758301
vt 0.1838379 0.4318848
vt 0.1872559 0.4387207
vt 0.1721191 0.458252
vt 0.1696777 0.4743652
vt 0.1523438 0.4711914
vt 0.154541 0.4458008
vt 0.1710205 0.4421387
vt 0.1578369 0.4226074
vt 0.1696777 0.4250488
vt 0.1860352 0.4204102
vt 0.1708984 0.4118652
vt 0.1595459 0.3913574
vt 0.1900635 0.3916016
vt 0.1744385 0.392334
vt 0.1708984 0.3757324
vt 0.1608887 0.3696289
vt 0.1748047 0.3552246
vt 0.1627197 0.345459
vt 0.1865234 0.3620605
vt 0.1838379 0.378418
vt 0.197876 0.387207
vt 0.1379395 0.002216339
vt 0.1461182 0.009315491
vt 0.1470947 0.002216339
vt 0.1563721 0.01210022
vt 0.1586914 0.002216339
vt 0.1722412 0.002216339
vt 0.171875 0.01470184
vt 0.1905518 0.002216339
vt 0.1888428 0.01608276
vt 0.2078857 0.002216339
vt 0.2078857 0.01774597
vt 0.2269287 0.01608276
vt 0.2252197 0.002216339
vt 0.2438965 0.01470184
vt 0.2435303 0.002216339
vt 0.2592773 0.01210022
vt 0.2570801 0.002216339
vt 0.2685547 0.002216339
vt 0.2697754 0.009315491
vt 0.277832 0.002216339
vn 0.9191729 -0.1488594 0.3646397
vn 0.9262276 -0.3336767 0.1753916
vn 0.9022371 -0.2229203 0.3691541
vn 0.8597299 -0.03987732 0.5091899
vn 0.675401 0.02777498 0.7369274
vn 0.8648881 -0.05686961 0.4987329
vn 0.6334988 0.09343971 0.768081
vn 0.4818046 0.1392392 0.8651455
vn 0.778363 -0.02699524 0.6272338
vn 0.7425808 -0.1818088 0.644608
vn 0.8688791 -0.0848639 0.4876958
vn 0.5526256 -0.07255454 0.8302655
vn 0.4447871 0.197126 0.8736737
vn 0.3517762 0.2643786 0.8979741
vn 0.4292978 0.2271397 0.8741344
vn 0.4967331 0.3031069 0.8132542
vn 0.6115506 0.2605911 0.7470596
vn 0.831772 -0.1140491 0.5432755
vn 0.594429 -0.2823783 0.7529387
vn 0.8001366 0.1011178 0.5912331
vn 0.8802044 0.06887621 0.4695704
vn 0.6328077 -0.07527363 0.7706414
vn 0.4513643 -0.3030552 0.8393019
vn 0.4026166 -0.04643813 0.9141899
vn 0.3271278 -0.06978934 0.9423995
vn 0.7452411 0.1501918 0.64966
vn 0.8468535 0.1063958 0.5210751
vn 0.7162016 0.2076744 0.6662781
vn 0.5646662 0.2382044 0.7901966
vn 0.5905363 0.1417452 0.7944653
vn 0.5743335 0.1777484 0.7990911
vn 0.4182763 0.2382068 0.8765287
vn 0.4226843 0.191304 0.885856
vn 0.4224513 0.1188385 0.8985613
vn 0.4588054 -0.2334288 0.8573264
vn 0.2490731 0.1721195 0.9530674
vn 0.2587878 0.231869 0.9376917
vn 0.2456242 0.07937878 0.9661096
vn -0 0.01033701 0.9999466
vn -0 0.1495174 0.9887592
vn -0 0.2307932 0.9730029
vn -0.2587878 0.2318691 0.9376916
vn -0.2490731 0.1721196 0.9530674
vn -0.4182765 0.238207 0.8765284
vn 0.3807107 -0.4340464 0.8164944
vn 0.3411627 -0.3317263 0.879526
vn -1.488239E-07 -0.2220783 0.9750289
vn 0.4189534 -0.5054885 0.754294
vn 0.3179294 -0.4275898 0.8462197
vn 0.460246 -0.09331909 0.8828733
vn 0.4925672 0.002894532 0.8702696
vn 0.6044632 0.2928707 0.7408448
vn -0 0.1650338 0.9862878
vn 6.15531E-07 0.312376 0.9499586
vn 1.35945E-07 -0.1786101 0.9839199
vn -0.6115519 0.2605918 0.7470584
vn -0 0.5109895 0.8595869
vn -0.6044635 0.292871 0.7408445
vn -0.4967341 0.3031074 0.8132534
vn -0.4292991 0.2271404 0.8741336
vn -0.4925673 0.002894914 0.8702695
vn -0.3517763 0.2643784 0.8979742
vn -0.4818055 0.1392395 0.865145
vn -0.4602456 -0.09331924 0.8828735
vn -0.317929 -0.4275905 0.8462195
vn -0.4189533 -0.5054886 0.754294
vn -0.341163 -0.331727 0.8795255
vn -0.3271278 -0.06978983 0.9423995
vn -0.4447871 0.1971259 0.8736737
vn -0.2456241 0.07937869 0.9661096
vn -0.3807113 -0.4340473 0.8164937
vn -0.4588059 -0.2334293 0.857326
vn -0.4226842 0.1913041 0.885856
vn -0.4513643 -0.3030553 0.8393019
vn -0.422451 0.1188385 0.8985614
vn -0.5743333 0.1777484 0.7990912
vn -0.5646669 0.238205 0.7901959
vn -0.6328081 -0.07527351 0.7706411
vn -0.5905358 0.1417451 0.7944657
vn -0.7452412 0.1501918 0.6496599
vn -0.7162029 0.207675 0.6662766
vn -0.8468533 0.1063954 0.5210755
vn -0.8802043 0.06887614 0.4695706
vn -0.8001364 0.1011178 0.5912334
vn -0.8688794 -0.08486406 0.4876952
vn -0.8317727 -0.1140495 0.5432743
vn -0.5944292 -0.2823785 0.7529384
vn -0.7425817 -0.1818092 0.6446066
vn -0.8648881 -0.0568698 0.4987328
vn -0.5526248 -0.07255449 0.830266
vn -0.7783625 -0.0269951 0.6272345
vn -0.8597295 -0.03987741 0.5091904
vn -0.9191726 -0.1488594 0.3646404
vn -0.9022368 -0.2229199 0.3691551
vn -0.9262274 -0.3336765 0.1753937
vn -0.6754017 0.02777501 0.7369268
vn -0.6334988 0.09343943 0.768081
vn -0.4026163 -0.0464387 0.9141901
vn -0.8468533 0.1063954 0.5210755
vn -0.6880409 0.2495879 0.6813997
vn -0.7162029 0.207675 0.6662766
vn -0.5683067 0.2711345 0.7768614
vn -0.5646669 0.238205 0.7901959
vn -0.4182765 0.238207 0.8765284
vn -0.4114347 0.2763783 0.8685256
vn -0.2587878 0.2318691 0.9376916
vn -0.2513355 0.2824374 0.9257751
vn -0 0.2307932 0.9730029
vn -0 0.2902585 0.9569483
vn 0.2513354 0.2824373 0.9257753
vn 0.2587878 0.231869 0.9376917
vn 0.4114348 0.2763781 0.8685256
vn 0.4182763 0.2382068 0.8765287
vn 0.5683051 0.2711335 0.7768629
vn 0.5646662 0.2382044 0.7901966
vn 0.7162016 0.2076744 0.6662781
vn 0.6880375 0.2495866 0.6814036
vn 0.8468535 0.1063958 0.5210751
g facial_eye_geo_0
f 3/3/3 2/2/2 1/1/1
f 4/4/4 3/3/3 1/1/1
f 3/3/3 4/4/4 5/5/5
f 4/4/4 1/1/1 6/6/6
f 4/4/4 7/7/7 5/5/5
f 5/5/5 7/7/7 8/8/8
f 9/9/9 4/4/4 6/6/6
f 7/7/7 4/4/4 9/9/9
f 10/10/10 9/9/9 6/6/6
f 10/10/10 6/6/6 11/11/11
f 7/7/7 9/9/9 12/12/12
f 9/9/9 10/10/10 12/12/12
f 7/7/7 13/13/13 8/8/8
f 7/7/7 12/12/12 13/13/13
f 14/14/14 8/8/8 13/13/13
f 14/14/14 15/15/15 8/8/8
f 15/15/15 14/14/14 16/16/16
f 16/16/16 17/17/17 15/15/15
f 11/11/11 18/18/18 10/10/10
f 12/12/12 10/10/10 19/19/19
f 10/10/10 18/18/18 19/19/19
f 11/11/11 20/20/20 18/18/18
f 21/21/21 20/20/20 11/11/11
f 22/22/22 19/19/19 18/18/18
f 22/22/22 18/18/18 20/20/20
f 19/19/19 23/23/23 12/12/12
f 23/23/23 19/19/19 22/22/22
f 12/12/12 24/24/24 13/13/13
f 23/23/23 24/24/24 12/12/12
f 24/24/24 25/25/25 13/13/13
f 25/25/25 14/14/14 13/13/13
f 25/25/25 24/24/24 23/23/23
f 21/21/21 26/26/26 20/20/20
f 21/21/21 27/27/27 26/26/26
f 27/27/27 28/28/28 26/26/26
f 26/26/26 28/28/28 29/29/29
f 30/30/30 20/20/20 26/26/26
f 30/30/30 22/22/22 20/20/20
f 31/31/31 26/26/26 29/29/29
f 31/31/31 30/30/30 26/26/26
f 31/31/31 29/29/29 32/32/32
f 31/31/31 33/33/33 30/30/30
f 33/33/33 31/31/31 32/32/32
f 30/30/30 34/34/34 22/22/22
f 33/33/33 34/34/34 30/30/30
f 23/23/23 22/22/22 35/35/35
f 34/34/34 35/35/35 22/22/22
f 36/36/36 33/33/33 32/32/32
f 37/37/37 36/36/36 32/32/32
f 38/38/38 34/34/34 33/33/33
f 34/34/34 38/38/38 35/35/35
f 36/36/36 38/38/38 33/33/33
f 38/38/38 36/36/36 39/39/39
f 36/36/36 37/37/37 40/40/40
f 36/36/36 40/40/40 39/39/39
f 37/37/37 41/41/41 40/40/40
f 41/41/41 42/42/42 40/40/40
f 42/42/42 43/43/43 40/40/40
f 40/40/40 43/43/43 39/39/39
f 43/43/43 42/42/42 44/44/44
f 23/23/23 35/35/35 45/45/45
f 45/45/45 25/25/25 23/23/23
f 38/38/38 46/46/46 35/35/35
f 45/45/45 35/35/35 46/46/46
f 38/38/38 39/39/39 46/46/46
f 46/46/46 39/39/39 47/47/47
f 48/48/48 25/25/25 45/45/45
f 48/48/48 45/45/45 46/46/46
f 46/46/46 47/47/47 49/49/49
f 49/49/49 48/48/48 46/46/46
f 48/48/48 50/50/50 25/25/25
f 14/14/14 25/25/25 50/50/50
f 50/50/50 16/16/16 14/14/14
f 51/51/51 48/48/48 49/49/49
f 50/50/50 48/48/48 51/51/51
f 50/50/50 51/51/51 16/16/16
f 51/51/51 49/49/49 47/47/47
f 52/52/52 16/16/16 51/51/51
f 16/16/16 52/52/52 17/17/17
f 47/47/47 53/53/53 51/51/51
f 53/53/53 52/52/52 51/51/51
f 54/54/54 17/17/17 52/52/52
f 54/54/54 55/55/55 17/17/17
f 55/55/55 54/54/54 56/56/56
f 57/57/57 54/54/54 52/52/52
f 53/53/53 57/57/57 52/52/52
f 54/54/54 57/57/57 58/58/58
f 56/56/56 54/54/54 58/58/58
f 57/57/57 53/53/53 58/58/58
f 58/58/58 59/59/59 56/56/56
f 56/56/56 59/59/59 60/60/60
f 58/58/58 53/53/53 61/61/61
f 53/53/53 47/47/47 61/61/61
f 59/59/59 58/58/58 61/61/61
f 62/62/62 60/60/60 59/59/59
f 60/60/60 62/62/62 63/63/63
f 61/61/61 64/64/64 59/59/59
f 59/59/59 64/64/64 62/62/62
f 65/65/65 61/61/61 47/47/47
f 66/66/66 64/64/64 61/61/61
f 66/66/66 61/61/61 65/65/65
f 65/65/65 47/47/47 67/67/67
f 67/67/67 66/66/66 65/65/65
f 39/39/39 67/67/67 47/47/47
f 68/68/68 62/62/62 64/64/64
f 64/64/64 66/66/66 68/68/68
f 63/63/63 62/62/62 69/69/69
f 62/62/62 68/68/68 69/69/69
f 39/39/39 70/70/70 67/67/67
f 43/43/43 70/70/70 39/39/39
f 71/71/71 66/66/66 67/67/67
f 68/68/68 66/66/66 71/71/71
f 72/72/72 71/71/71 67/67/67
f 67/67/67 70/70/70 72/72/72
f 70/70/70 43/43/43 73/73/73
f 73/73/73 43/43/43 44/44/44
f 68/68/68 71/71/71 74/74/74
f 72/72/72 74/74/74 71/71/71
f 70/70/70 75/75/75 72/72/72
f 75/75/75 70/70/70 73/73/73
f 76/76/76 73/73/73 44/44/44
f 77/77/77 76/76/76 44/44/44
f 72/72/72 75/75/75 78/78/78
f 72/72/72 78/78/78 74/74/74
f 75/75/75 73/73/73 79/79/79
f 73/73/73 76/76/76 79/79/79
f 75/75/75 79/79/79 78/78/78
f 80/80/80 76/76/76 77/77/77
f 79/79/79 76/76/76 80/80/80
f 81/81/81 80/80/80 77/77/77
f 81/81/81 82/82/82 80/80/80
f 82/82/82 83/83/83 80/80/80
f 84/84/84 79/79/79 80/80/80
f 80/80/80 83/83/83 84/84/84
f 78/78/78 79/79/79 84/84/84
f 84/84/84 83/83/83 85/85/85
f 86/86/86 78/78/78 84/84/84
f 84/84/84 85/85/85 86/86/86
f 87/87/87 78/78/78 86/86/86
f 78/78/78 87/87/87 74/74/74
f 86/86/86 85/85/85 88/88/88
f 86/86/86 88/88/88 87/87/87
f 89/89/89 88/88/88 85/85/85
f 74/74/74 87/87/87 90/90/90
f 88/88/88 90/90/90 87/87/87
f 91/91/91 88/88/88 89/89/89
f 88/88/88 91/91/91 90/90/90
f 92/92/92 91/91/91 89/89/89
f 93/93/93 92/92/92 89/89/89
f 94/94/94 92/92/92 93/93/93
f 95/95/95 94/94/94 93/93/93
f 92/92/92 94/94/94 96/96/96
f 92/92/92 97/97/97 91/91/91
f 97/97/97 92/92/92 96/96/96
f 91/91/91 97/97/97 90/90/90
f 97/97/97 96/96/96 63/63/63
f 69/69/69 97/97/97 63/63/63
f 90/90/90 97/97/97 69/69/69
f 98/98/98 74/74/74 90/90/90
f 98/98/98 90/90/90 69/69/69
f 98/98/98 68/68/68 74/74/74
f 68/68/68 98/98/98 69/69/69
f 101/101/101 100/100/100 99/99/99
f 102/102/102 100/100/100 101/101/101
f 103/103/103 102/102/102 101/101/101
f 102/102/102 103/103/103 104/104/104
f 105/105/105 102/102/102 104/104/104
f 104/104/104 106/106/106 105/105/105
f 106/106/106 107/107/107 105/105/105
f 106/106/106 108/108/108 107/107/107
f 108/108/108 109/109/109 107/107/107
f 109/109/109 108/108/108 110/110/110
f 108/108/108 111/111/111 110/110/110
f 110/110/110 111/111/111 112/112/112
f 111/111/111 113/113/113 112/112/112
f 114/114/114 112/112/112 113/113/113
f 115/115/115 114/114/114 113/113/113
f 114/114/114 115/115/115 116/116/116
f 117/117/117 114/114/114 116/116/116
f 117/117/117 116/116/116 118/118/118
