g facial_mouth_geo
v 0.05811472 1.315623 0.08245654
v 0.07335278 1.330646 0.05758698
v 0.07108659 1.320878 0.04560863
v 0.05642112 1.306022 0.06938881
v 0.0488141 1.30646 0.1038154
v 0.04665112 1.29753 0.08822387
v 0.08213215 1.368598 0.0735475
v 0.03951241 1.294057 0.1002328
v 0.06570086 1.344617 0.08851904
v 0.07322046 1.365563 0.09758911
v 0.0836888 1.3821 0.08408703
v 0.07656959 1.37947 0.1047844
v 0.03470601 1.298774 0.1247221
v 0.02365907 1.291143 0.1112646
v 0.05299229 1.330521 0.1089689
v 0.05960102 1.363589 0.1198584
v 0.06306329 1.377242 0.1232333
v 0.04396258 1.325016 0.1174191
v 0.05392522 1.348986 0.1177352
v 0.04277541 1.361257 0.1299804
v 0.04315145 1.378528 0.1316489
v 0.02198567 1.379408 0.1415603
v 0.01783852 1.295292 0.1319009
v 7.489569E-18 1.289537 0.1141782
v 0.03733759 1.344445 0.1275708
v 0.02784221 1.361726 0.1366444
v 0.01790883 1.310549 0.1297575
v 0.01132769 1.376369 0.1650985
v 0.01099985 1.383228 0.1649335
v -7.929576E-18 1.382338 0.1726192
v 0.01397031 1.361104 0.1424704
v 1.333228E-18 1.346258 0.1435802
v 0.03143576 1.330381 0.1272666
v -2.447119E-18 1.360296 0.145186
v -4.931041E-18 1.373911 0.1677905
v -0.01132769 1.376369 0.1650985
v -0.01099985 1.383228 0.1649335
v -0.02198567 1.379408 0.1415603
v -2.031151E-18 1.330233 0.1395398
v -0.01397031 1.361104 0.1424704
v -0.02784221 1.361726 0.1366444
v -0.03733759 1.344445 0.1275708
v -0.04277541 1.361257 0.1299804
v -0.04315145 1.378528 0.1316489
v -0.06306329 1.377242 0.1232333
v -0.05960102 1.363589 0.1198584
v -0.07656959 1.37947 0.1047844
v -0.05392522 1.348986 0.1177352
v -0.07322046 1.365563 0.09758911
v -0.0836888 1.3821 0.08408703
v -0.08213215 1.368598 0.0735475
v -0.03143576 1.330381 0.1272666
v -0.04396258 1.325016 0.1174191
v -0.05299229 1.330521 0.1089689
v -0.0488141 1.30646 0.1038154
v -0.06570086 1.344617 0.08851904
v -0.05811472 1.315623 0.08245654
v -0.07335278 1.330646 0.05758698
v -0.07108659 1.320878 0.04560863
v -0.05642112 1.306022 0.06938881
v -0.04665112 1.29753 0.08822387
v -0.03951241 1.294057 0.1002328
v -0.03470601 1.298774 0.1247221
v -0.02365907 1.291143 0.1112646
v -0.01790883 1.310549 0.1297575
v -0.01783852 1.295292 0.1319009
v 1.437695E-18 1.30718 0.132914
v 6.224084E-18 1.294157 0.1334399
vt 0.3117676 0.2756348
vt 0.3344727 0.277832
vt 0.3337402 0.2597656
vt 0.3112793 0.2602539
vt 0.2949219 0.2756348
vt 0.2941895 0.2617188
vt 0.3483887 0.326416
vt 0.282959 0.2619629
vt 0.322998 0.3071289
vt 0.3291016 0.3317871
vt 0.3500977 0.3491211
vt 0.3310547 0.3479004
vt 0.2780762 0.2768555
vt 0.2695312 0.262207
vt 0.3005371 0.3007812
vt 0.3071289 0.3342285
vt 0.3110352 0.3464355
vt 0.2895508 0.2976074
vt 0.3010254 0.3208008
vt 0.2897949 0.333252
vt 0.2922363 0.347168
vt 0.2717285 0.3493652
vt 0.2648926 0.2768555
vt 0.2502441 0.2609863
vt 0.2844238 0.3188477
vt 0.2753906 0.3347168
vt 0.265625 0.2893066
vt 0.2546387 0.3483887
vt 0.2543945 0.3518066
vt 0.2502441 0.3510742
vt 0.2624512 0.3339844
vt 0.2502441 0.3186035
vt 0.2780762 0.3056641
vt 0.2502441 0.3334961
vt 0.2502441 0.3466797
vt 0.2459717 0.3483887
vt 0.2463379 0.3518066
vt 0.2288818 0.3493652
vt 0.2502441 0.3051758
vt 0.2381592 0.3339844
vt 0.2253418 0.3347168
vt 0.2163086 0.3188477
vt 0.2109375 0.333252
vt 0.208374 0.347168
vt 0.1895752 0.3464355
vt 0.1934814 0.3342285
vt 0.1695557 0.3479004
vt 0.199707 0.3208008
vt 0.1715088 0.3317871
vt 0.1506348 0.3491211
vt 0.1522217 0.326416
vt 0.2226562 0.3056641
vt 0.2111816 0.2976074
vt 0.2000732 0.3007812
vt 0.2058105 0.2756348
vt 0.1777344 0.3071289
vt 0.1889648 0.2756348
vt 0.1662598 0.277832
vt 0.1669922 0.2597656
vt 0.1893311 0.2602539
vt 0.206543 0.2617188
vt 0.2176514 0.2619629
vt 0.2225342 0.2768555
vt 0.2310791 0.262207
vt 0.2351074 0.2893066
vt 0.2357178 0.2768555
vt 0.2502441 0.2875977
vt 0.2502441 0.2756348
vn 0.8782972 -0.3997966 0.2622153
vn 0.8713064 -0.3964026 0.2892925
vn 0.72312 -0.68812 -0.05990414
vn 0.6552322 -0.7546924 -0.03331783
vn 0.8587369 -0.3766191 0.3474606
vn 0.5981433 -0.8006112 0.03530272
vn 0.8762286 -0.3584185 0.3221174
vn 0.4798758 -0.868872 0.1215752
vn 0.8719741 -0.3530465 0.3391451
vn 0.8468252 -0.3848557 0.3671147
vn 0.8870145 -0.3322372 0.3206612
vn 0.8406898 -0.3418662 0.4199619
vn 0.592806 -0.3722673 0.7141415
vn 0.1629926 -0.9804113 0.1105754
vn 0.8390973 -0.2879355 0.4615286
vn 0.67055 -0.3230401 0.6678381
vn 0.6080599 -0.2778291 0.7436895
vn 0.6586416 -0.179875 0.7306409
vn 0.7084572 -0.3040623 0.6368945
vn 0.4527185 -0.2110408 0.8663185
vn 0.3963075 -0.1530631 0.9052691
vn 0.7026158 0.1110834 0.7028453
vn 0.242836 -0.6712361 0.7003376
vn -0 -0.992627 0.1212088
vn 0.4331619 -0.2354936 0.8700078
vn 0.5379093 -0.2179064 0.8143528
vn 0.3310466 -0.04406183 0.9425851
vn 0.6737513 -0.4053689 0.6178472
vn 0.7795889 0.2854819 0.5574417
vn -1.014967E-07 -0.06176621 0.9980906
vn 0.3098355 -0.5840728 0.7502406
vn 7.39577E-07 -0.231757 0.9727737
vn 0.4139324 -0.2057277 0.886756
vn 1.039958E-07 -0.7265748 0.6870873
vn -0 -0.7993448 0.6008726
vn -0.6737512 -0.4053685 0.6178476
vn -0.7795889 0.2854819 0.5574417
vn -0.702616 0.1110836 0.702845
vn 3.828156E-07 -0.2104648 0.9776014
vn -0.3098342 -0.5840715 0.7502421
vn -0.5379091 -0.2179061 0.814353
vn -0.433161 -0.235493 0.8700083
vn -0.4527174 -0.2110403 0.8663192
vn -0.3963073 -0.1530631 0.9052691
vn -0.6080602 -0.2778291 0.7436893
vn -0.6705495 -0.3230398 0.6678388
vn -0.8406899 -0.3418663 0.4199618
vn -0.7084562 -0.3040618 0.6368958
vn -0.8468247 -0.3848555 0.3671162
vn -0.8870148 -0.3322372 0.3206606
vn -0.8762285 -0.3584184 0.322118
vn -0.413933 -0.205728 0.8867556
vn -0.6586419 -0.1798751 0.7306407
vn -0.8390968 -0.2879352 0.4615297
vn -0.8587371 -0.3766191 0.3474604
vn -0.8719735 -0.3530463 0.3391468
vn -0.878297 -0.3997965 0.262216
vn -0.8713061 -0.3964025 0.2892932
vn -0.72312 -0.6881199 -0.05990444
vn -0.6552322 -0.7546924 -0.03331751
vn -0.5981433 -0.8006112 0.03530078
vn -0.4798759 -0.8688723 0.1215733
vn -0.5928061 -0.3722676 0.7141413
vn -0.1629926 -0.9804115 0.1105739
vn -0.3310468 -0.0440621 0.9425851
vn -0.2428361 -0.6712373 0.7003364
vn -0 -0.1264406 0.9919742
vn 1.511975E-07 -0.7276689 0.6859285
g facial_mouth_geo_0
f 3/3/3 2/2/2 1/1/1
f 4/4/4 3/3/3 1/1/1
f 4/4/4 1/1/1 5/5/5
f 6/6/6 4/4/4 5/5/5
f 1/1/1 2/2/2 7/7/7
f 8/8/8 6/6/6 5/5/5
f 1/1/1 7/7/7 9/9/9
f 1/1/1 9/9/9 5/5/5
f 7/7/7 10/10/10 9/9/9
f 10/10/10 7/7/7 11/11/11
f 12/12/12 10/10/10 11/11/11
f 5/5/5 13/13/13 8/8/8
f 8/8/8 13/13/13 14/14/14
f 9/9/9 15/15/15 5/5/5
f 9/9/9 10/10/10 15/15/15
f 10/10/10 12/12/12 16/16/16
f 12/12/12 17/17/17 16/16/16
f 5/5/5 15/15/15 18/18/18
f 18/18/18 13/13/13 5/5/5
f 10/10/10 19/19/19 15/15/15
f 16/16/16 19/19/19 10/10/10
f 18/18/18 15/15/15 19/19/19
f 16/16/16 17/17/17 20/20/20
f 16/16/16 20/20/20 19/19/19
f 17/17/17 21/21/21 20/20/20
f 20/20/20 21/21/21 22/22/22
f 13/13/13 23/23/23 14/14/14
f 23/23/23 24/24/24 14/14/14
f 20/20/20 25/25/25 19/19/19
f 25/25/25 18/18/18 19/19/19
f 22/22/22 26/26/26 20/20/20
f 20/20/20 26/26/26 25/25/25
f 18/18/18 27/27/27 13/13/13
f 23/23/23 13/13/13 27/27/27
f 28/28/28 26/26/26 22/22/22
f 29/29/29 28/28/28 22/22/22
f 29/29/29 30/30/30 28/28/28
f 31/31/31 25/25/25 26/26/26
f 31/31/31 26/26/26 28/28/28
f 31/31/31 32/32/32 25/25/25
f 33/33/33 18/18/18 25/25/25
f 33/33/33 27/27/27 18/18/18
f 33/33/33 25/25/25 32/32/32
f 34/34/34 31/31/31 28/28/28
f 31/31/31 34/34/34 32/32/32
f 30/30/30 35/35/35 28/28/28
f 35/35/35 34/34/34 28/28/28
f 35/35/35 30/30/30 36/36/36
f 34/34/34 35/35/35 36/36/36
f 30/30/30 37/37/37 36/36/36
f 36/36/36 37/37/37 38/38/38
f 39/39/39 27/27/27 33/33/33
f 39/39/39 33/33/33 32/32/32
f 40/40/40 34/34/34 36/36/36
f 34/34/34 40/40/40 32/32/32
f 41/41/41 36/36/36 38/38/38
f 41/41/41 40/40/40 36/36/36
f 32/32/32 40/40/40 42/42/42
f 42/42/42 40/40/40 41/41/41
f 41/41/41 38/38/38 43/43/43
f 41/41/41 43/43/43 42/42/42
f 44/44/44 43/43/43 38/38/38
f 44/44/44 45/45/45 43/43/43
f 45/45/45 46/46/46 43/43/43
f 45/45/45 47/47/47 46/46/46
f 43/43/43 46/46/46 48/48/48
f 42/42/42 43/43/43 48/48/48
f 47/47/47 49/49/49 46/46/46
f 48/48/48 46/46/46 49/49/49
f 49/49/49 47/47/47 50/50/50
f 51/51/51 49/49/49 50/50/50
f 42/42/42 52/52/52 32/32/32
f 52/52/52 39/39/39 32/32/32
f 53/53/53 42/42/42 48/48/48
f 53/53/53 52/52/52 42/42/42
f 48/48/48 49/49/49 54/54/54
f 54/54/54 53/53/53 48/48/48
f 54/54/54 55/55/55 53/53/53
f 49/49/49 56/56/56 54/54/54
f 49/49/49 51/51/51 56/56/56
f 54/54/54 56/56/56 55/55/55
f 51/51/51 57/57/57 56/56/56
f 56/56/56 57/57/57 55/55/55
f 58/58/58 57/57/57 51/51/51
f 58/58/58 59/59/59 57/57/57
f 59/59/59 60/60/60 57/57/57
f 57/57/57 60/60/60 55/55/55
f 60/60/60 61/61/61 55/55/55
f 61/61/61 62/62/62 55/55/55
f 63/63/63 55/55/55 62/62/62
f 63/63/63 53/53/53 55/55/55
f 63/63/63 62/62/62 64/64/64
f 65/65/65 52/52/52 53/53/53
f 65/65/65 53/53/53 63/63/63
f 65/65/65 39/39/39 52/52/52
f 66/66/66 63/63/63 64/64/64
f 63/63/63 66/66/66 65/65/65
f 24/24/24 66/66/66 64/64/64
f 67/67/67 39/39/39 65/65/65
f 66/66/66 67/67/67 65/65/65
f 39/39/39 67/67/67 27/27/27
f 67/67/67 23/23/23 27/27/27
f 68/68/68 66/66/66 24/24/24
f 23/23/23 68/68/68 24/24/24
f 68/68/68 67/67/67 66/66/66
f 67/67/67 68/68/68 23/23/23
