g facial_eye_geo
v 0.0896805 1.404815 0.09015995
v 0.0836888 1.3821 0.08408703
v 0.07656959 1.37947 0.1047844
v 0.08087258 1.402737 0.1128415
v 0.0862044 1.421801 0.09036003
v 0.06306329 1.377242 0.1232333
v 0.0774496 1.422695 0.1100025
v 0.08756911 1.441374 0.09082779
v 0.06933549 1.398057 0.1257405
v 0.04315145 1.378528 0.1316489
v 0.04275586 1.396265 0.1338919
v 0.02198567 1.379408 0.1415603
v 0.07989343 1.435167 0.1091057
v 0.08405162 1.461923 0.1130368
v 0.0923076 1.454022 0.08573097
v 0.08148648 1.47247 0.10998
v 0.08871283 1.480189 0.09656917
v 0.08472464 1.496958 0.1056837
v 0.07108938 1.49666 0.1221184
v 0.07221805 1.472216 0.1218233
v 0.05098374 1.49492 0.1374871
v 0.07595984 1.464111 0.1267491
v 0.07538195 1.449328 0.1263506
v 0.0659925 1.436968 0.1192858
v 0.07311734 1.442279 0.1236336
v 0.06286765 1.415268 0.1219423
v 0.04315883 1.415305 0.1299085
v 0.05210234 1.435974 0.1279577
v 0.06249811 1.444407 0.1314383
v 0.0660242 1.450172 0.1345904
v 0.05293062 1.463614 0.1423282
v 0.05302088 1.44782 0.1425652
v 0.04957469 1.439719 0.139454
v 0.03574513 1.433232 0.1342238
v 0.019505 1.421523 0.1362065
v 0.03613597 1.435879 0.1437723
v 0.05255633 1.472578 0.1372005
v 0.03742138 1.445366 0.1476019
v 0.025111 1.471126 0.1447081
v 0.0240767 1.493075 0.1427626
v 0.02509383 1.461003 0.1498799
v -2.807628E-18 1.459591 0.1524251
v 1.357211E-18 1.469049 0.1480365
v 1.581447E-18 1.49007 0.1446069
v -0.0240767 1.493075 0.1427626
v -0.025111 1.471126 0.1447081
v -0.05098374 1.49492 0.1374871
v 0.02388836 1.443858 0.150885
v 0.01067109 1.443325 0.1521208
v 0.02303701 1.433044 0.1451077
v 0.0208564 1.429867 0.1353412
v 0.01101093 1.42774 0.142687
v 0.01024541 1.433143 0.148521
v -5.977622E-18 1.445537 0.1545444
v -0.05255633 1.472578 0.1372005
v -0.02509383 1.461003 0.1498799
v -0.07221805 1.472216 0.1218233
v -0.07108938 1.49666 0.1221184
v -0.01067109 1.443325 0.1521208
v -0.05293062 1.463614 0.1423282
v -0.08148648 1.47247 0.10998
v -0.08472464 1.496958 0.1056837
v -0.08871283 1.480189 0.09656917
v -0.0923076 1.454022 0.08573097
v -0.07595984 1.464111 0.1267491
v -0.08405162 1.461923 0.1130368
v -0.08756911 1.441374 0.09082779
v -0.07538195 1.449328 0.1263506
v -0.07989343 1.435167 0.1091057
v -0.0660242 1.450172 0.1345904
v -0.0774496 1.422695 0.1100025
v -0.0862044 1.421801 0.09036003
v -0.08087258 1.402737 0.1128415
v -0.0896805 1.404815 0.09015995
v -0.07656959 1.37947 0.1047844
v -0.0836888 1.3821 0.08408703
v -0.06306329 1.377242 0.1232333
v -0.06933549 1.398057 0.1257405
v -0.04315145 1.378528 0.1316489
v -0.04275586 1.396265 0.1338919
v -0.02198567 1.379408 0.1415603
v -0.06249811 1.444407 0.1314383
v -0.07311734 1.442279 0.1236336
v -0.0659925 1.436968 0.1192858
v -0.06286765 1.415268 0.1219423
v -0.04315883 1.415305 0.1299085
v -0.05210234 1.435974 0.1279577
v -0.05302088 1.44782 0.1425652
v -0.04957469 1.439719 0.139454
v -0.03574513 1.433232 0.1342238
v -0.019505 1.421523 0.1362065
v -0.03742138 1.445366 0.1476019
v -0.03613597 1.435879 0.1437723
v -0.02388836 1.443858 0.150885
v -0.0208564 1.429867 0.1353412
v -0.02303701 1.433044 0.1451077
v -0.01024541 1.433143 0.148521
v -0.01101093 1.42774 0.142687
v -2.904391E-18 1.436731 0.1529939
v -3.422999E-18 1.423965 0.1499898
v -3.08298E-17 1.401043 0.1602477
v -0.01005996 1.401502 0.1530051
v 0.01005996 1.401502 0.1530051
v -0.0173679 1.403007 0.1411459
v -0.01099985 1.383228 0.1649335
v -3.35518E-17 1.382338 0.1726192
v 0.01099985 1.383228 0.1649335
v 0.0173679 1.403007 0.1411459
vt 0.3476562 0.3701172
vt 0.3500977 0.3491211
vt 0.3310547 0.3479004
vt 0.3271484 0.3686523
vt 0.3474121 0.3859863
vt 0.3110352 0.3464355
vt 0.3269043 0.3862305
vt 0.3469238 0.4052734
vt 0.3134766 0.3642578
vt 0.2922363 0.347168
vt 0.2910156 0.3623047
vt 0.2717285 0.3493652
vt 0.328125 0.3984375
vt 0.3251953 0.4211426
vt 0.3491211 0.4177246
vt 0.3254395 0.4299316
vt 0.3359375 0.4370117
vt 0.3293457 0.4484863
vt 0.3134766 0.4484863
vt 0.3139648 0.4294434
vt 0.2932129 0.4475098
vt 0.3134766 0.421875
vt 0.3137207 0.4111328
vt 0.3125 0.3974609
vt 0.3144531 0.4050293
vt 0.3100586 0.3791504
vt 0.2919922 0.3781738
vt 0.2988281 0.395752
vt 0.3037109 0.4057617
vt 0.3044434 0.411377
vt 0.2929688 0.4213867
vt 0.2929688 0.409668
vt 0.291748 0.402832
vt 0.2844238 0.3925781
vt 0.2719727 0.3828125
vt 0.28125 0.3996582
vt 0.2941895 0.4294434
vt 0.2807617 0.4072266
vt 0.2712402 0.4279785
vt 0.2705078 0.4460449
vt 0.270752 0.4189453
vt 0.2502441 0.4172363
vt 0.2502441 0.4257812
vt 0.2502441 0.4436035
vt 0.2301025 0.4460449
vt 0.2294922 0.4279785
vt 0.2075195 0.4475098
vt 0.2700195 0.4055176
vt 0.2592773 0.4040527
vt 0.2712402 0.3959961
vt 0.2731934 0.3886719
vt 0.2626953 0.3879395
vt 0.2600098 0.3945312
vt 0.2502441 0.4055176
vt 0.2064209 0.4294434
vt 0.2299805 0.4189453
vt 0.1867676 0.4294434
vt 0.1872559 0.4484863
vt 0.241333 0.4040527
vt 0.2077637 0.4213867
vt 0.1751709 0.4299316
vt 0.1712646 0.4484863
vt 0.1647949 0.4370117
vt 0.1514893 0.4177246
vt 0.1871338 0.421875
vt 0.175415 0.4211426
vt 0.1538086 0.4052734
vt 0.1870117 0.4111328
vt 0.1726074 0.3984375
vt 0.1962891 0.411377
vt 0.1738281 0.3862305
vt 0.1533203 0.3859863
vt 0.1734619 0.3686523
vt 0.1529541 0.3701172
vt 0.1695557 0.3479004
vt 0.1506348 0.3491211
vt 0.1895752 0.3464355
vt 0.1871338 0.3642578
vt 0.208374 0.347168
vt 0.2095947 0.3623047
vt 0.2288818 0.3493652
vt 0.1968994 0.4057617
vt 0.1861572 0.4050293
vt 0.1882324 0.3974609
vt 0.1905518 0.3791504
vt 0.2086182 0.3781738
vt 0.2019043 0.395752
vt 0.2076416 0.409668
vt 0.2088623 0.402832
vt 0.2163086 0.3925781
vt 0.2286377 0.3828125
vt 0.2198486 0.4072266
vt 0.2194824 0.3996582
vt 0.2305908 0.4055176
vt 0.2275391 0.3886719
vt 0.2293701 0.3959961
vt 0.2406006 0.3945312
vt 0.237915 0.3879395
vt 0.2502441 0.3979492
vt 0.2502441 0.3845215
vt 0.2502441 0.3632812
vt 0.241333 0.3647461
vt 0.2592773 0.3647461
vt 0.2310791 0.3674316
vt 0.2463379 0.3518066
vt 0.2502441 0.3510742
vt 0.2543945 0.3518066
vt 0.2695312 0.3674316
vn 0.9453187 -0.071476 0.3182197
vn 0.8870145 -0.3322372 0.3206612
vn 0.8406898 -0.3418662 0.4199619
vn 0.8785557 -0.1138014 0.4638847
vn 0.9172801 0.06224074 0.393349
vn 0.6080599 -0.2778291 0.7436895
vn 0.8265287 0.1195575 0.5500514
vn 0.9085258 -0.1511052 0.3895489
vn 0.5937104 -0.1212045 0.7954983
vn 0.3963075 -0.1530631 0.9052691
vn 0.325253 0.008158043 0.9455918
vn 0.7026158 0.1110834 0.7028453
vn 0.8701018 -0.2044577 0.448464
vn 0.9352344 0.01774275 0.3535844
vn 0.9424164 -0.09487506 0.3207023
vn 0.8581989 0.04281943 0.5115284
vn 0.889906 -0.05033017 0.4533587
vn 0.8505513 0.01468096 0.5256871
vn 0.6488632 0.02160522 0.7605982
vn 0.6683891 0.1606698 0.7262514
vn 0.4339165 0.03565929 0.9002471
vn 0.6492717 0.31192 0.6936513
vn 0.7814015 -0.2438345 0.5744184
vn 0.4970628 -0.2383651 0.8343325
vn 0.4789023 -0.6368545 0.6042093
vn 0.4635247 0.1395949 0.8750188
vn 0.3427178 0.07882581 0.9361256
vn 0.4562846 -0.2350777 0.8582207
vn 0.4742266 -0.6162905 0.6287251
vn 0.5713271 -0.199 0.7962313
vn 0.3617598 0.3387384 0.8685541
vn 0.4527091 -0.2562674 0.8540384
vn 0.4202861 -0.6430334 0.6402091
vn 0.3208786 -0.4486647 0.8341085
vn 0.4490153 0.1264139 0.8845365
vn 0.2996638 -0.6306044 0.7159188
vn 0.4183845 0.1958502 0.8869031
vn 0.2846372 -0.176759 0.9421984
vn 0.1597267 0.2144826 0.9635791
vn 0.146796 0.05404337 0.9876894
vn 0.1577513 0.3010007 0.9404855
vn -0 0.2947302 0.9555806
vn -0 0.2456329 0.9693629
vn -1.083071E-07 0.06393488 0.997954
vn -0.1467962 0.05404336 0.9876893
vn -0.1597268 0.2144823 0.9635791
vn -0.4339166 0.03565929 0.900247
vn 0.1841613 -0.2299172 0.9556268
vn 0.1625852 -0.147098 0.9756681
vn 0.232456 -0.6260551 0.7443246
vn 0.3383818 -0.556963 0.7584788
vn 0.6184684 -0.03555472 0.7850049
vn 0.2587783 -0.413908 0.8727622
vn -1.015478E-07 -0.0656299 0.9978441
vn -0.4183846 0.19585 0.886903
vn -0.1577513 0.3010004 0.9404857
vn -0.6683896 0.1606699 0.726251
vn -0.6488636 0.02160524 0.760598
vn -0.1625852 -0.1470984 0.9756681
vn -0.36176 0.3387381 0.8685542
vn -0.8581993 0.04281931 0.5115277
vn -0.8505517 0.01468098 0.5256865
vn -0.8899063 -0.05033011 0.4533581
vn -0.9424165 -0.09487507 0.3207021
vn -0.6492715 0.31192 0.6936514
vn -0.9352344 0.01774246 0.3535842
vn -0.9085256 -0.1511054 0.3895488
vn -0.781402 -0.2438349 0.5744176
vn -0.8701025 -0.2044581 0.4484625
vn -0.5713283 -0.1990011 0.7962301
vn -0.826529 0.1195573 0.5500507
vn -0.9172801 0.06224054 0.3933488
vn -0.8785562 -0.1138017 0.4638838
vn -0.9453186 -0.07147618 0.3182198
vn -0.8406899 -0.3418663 0.4199618
vn -0.8870148 -0.3322372 0.3206606
vn -0.6080602 -0.2778291 0.7436893
vn -0.5937114 -0.121205 0.7954974
vn -0.3963073 -0.1530631 0.9052691
vn -0.3252536 0.008157732 0.9455916
vn -0.702616 0.1110836 0.702845
vn -0.4742281 -0.6162921 0.6287224
vn -0.478903 -0.6368559 0.6042074
vn -0.4970628 -0.2383648 0.8343325
vn -0.4635251 0.1395948 0.8750188
vn -0.3427182 0.07882594 0.9361253
vn -0.4562846 -0.2350772 0.8582209
vn -0.4527087 -0.2562667 0.8540387
vn -0.4202845 -0.6430314 0.6402123
vn -0.3208778 -0.4486641 0.8341091
vn -0.4490141 0.1264135 0.8845372
vn -0.2846358 -0.1767566 0.9421993
vn -0.2996622 -0.6306037 0.7159201
vn -0.1841608 -0.2299167 0.9556271
vn -0.3383815 -0.5569627 0.758479
vn -0.2324558 -0.6260552 0.7443246
vn -0.258779 -0.4139084 0.8727618
vn -0.618467 -0.03555461 0.785006
vn -0 -0.2562696 0.9666053
vn -3.945606E-07 0.24498 0.9695282
vn 6.219298E-07 0.5055408 0.8628026
vn -0.7018303 0.3162311 0.6383041
vn 0.7018307 0.3162312 0.6383035
vn -0.5498857 0.1418241 0.8231109
vn -0.7795889 0.2854819 0.5574417
vn -1.014967E-07 -0.06176621 0.9980906
vn 0.7795889 0.2854819 0.5574417
vn 0.5498861 0.1418242 0.8231106
g facial_eye_geo_0
f 3/3/3 2/2/2 1/1/1
f 4/4/4 3/3/3 1/1/1
f 4/4/4 1/1/1 5/5/5
f 3/3/3 4/4/4 6/6/6
f 7/7/7 4/4/4 5/5/5
f 5/5/5 8/8/8 7/7/7
f 4/4/4 9/9/9 6/6/6
f 9/9/9 4/4/4 7/7/7
f 6/6/6 9/9/9 10/10/10
f 9/9/9 11/11/11 10/10/10
f 10/10/10 11/11/11 12/12/12
f 8/8/8 13/13/13 7/7/7
f 8/8/8 14/14/14 13/13/13
f 15/15/15 14/14/14 8/8/8
f 15/15/15 16/16/16 14/14/14
f 15/15/15 17/17/17 16/16/16
f 17/17/17 18/18/18 16/16/16
f 16/16/16 18/18/18 19/19/19
f 20/20/20 16/16/16 19/19/19
f 20/20/20 19/19/19 21/21/21
f 14/14/14 16/16/16 22/22/22
f 16/16/16 20/20/20 22/22/22
f 13/13/13 14/14/14 23/23/23
f 23/23/23 14/14/14 22/22/22
f 7/7/7 13/13/13 24/24/24
f 23/23/23 25/25/25 13/13/13
f 25/25/25 24/24/24 13/13/13
f 24/24/24 26/26/26 7/7/7
f 26/26/26 9/9/9 7/7/7
f 9/9/9 26/26/26 27/27/27
f 26/26/26 24/24/24 27/27/27
f 9/9/9 27/27/27 11/11/11
f 28/28/28 24/24/24 25/25/25
f 24/24/24 28/28/28 27/27/27
f 29/29/29 25/25/25 23/23/23
f 25/25/25 29/29/29 28/28/28
f 30/30/30 23/23/23 22/22/22
f 30/30/30 29/29/29 23/23/23
f 31/31/31 22/22/22 20/20/20
f 30/30/30 22/22/22 31/31/31
f 30/30/30 32/32/32 29/29/29
f 30/30/30 31/31/31 32/32/32
f 28/28/28 29/29/29 33/33/33
f 32/32/32 33/33/33 29/29/29
f 28/28/28 34/34/34 27/27/27
f 28/28/28 33/33/33 34/34/34
f 11/11/11 27/27/27 35/35/35
f 35/35/35 27/27/27 34/34/34
f 36/36/36 33/33/33 32/32/32
f 34/34/34 33/33/33 36/36/36
f 37/37/37 31/31/31 20/20/20
f 37/37/37 20/20/20 21/21/21
f 38/38/38 32/32/32 31/31/31
f 38/38/38 36/36/36 32/32/32
f 39/39/39 37/37/37 21/21/21
f 40/40/40 39/39/39 21/21/21
f 41/41/41 31/31/31 37/37/37
f 41/41/41 38/38/38 31/31/31
f 39/39/39 41/41/41 37/37/37
f 41/41/41 39/39/39 42/42/42
f 39/39/39 40/40/40 43/43/43
f 39/39/39 43/43/43 42/42/42
f 40/40/40 44/44/44 43/43/43
f 44/44/44 45/45/45 43/43/43
f 45/45/45 46/46/46 43/43/43
f 43/43/43 46/46/46 42/42/42
f 46/46/46 45/45/45 47/47/47
f 41/41/41 48/48/48 38/38/38
f 38/38/38 48/48/48 36/36/36
f 49/49/49 48/48/48 41/41/41
f 49/49/49 41/41/41 42/42/42
f 48/48/48 50/50/50 36/36/36
f 48/48/48 49/49/49 50/50/50
f 36/36/36 50/50/50 51/51/51
f 51/51/51 34/34/34 36/36/36
f 51/51/51 35/35/35 34/34/34
f 52/52/52 51/51/51 50/50/50
f 35/35/35 51/51/51 52/52/52
f 49/49/49 53/53/53 50/50/50
f 52/52/52 50/50/50 53/53/53
f 49/49/49 42/42/42 54/54/54
f 49/49/49 54/54/54 53/53/53
f 55/55/55 46/46/46 47/47/47
f 46/46/46 56/56/56 42/42/42
f 56/56/56 46/46/46 55/55/55
f 57/57/57 55/55/55 47/47/47
f 58/58/58 57/57/57 47/47/47
f 42/42/42 59/59/59 54/54/54
f 56/56/56 59/59/59 42/42/42
f 60/60/60 55/55/55 57/57/57
f 60/60/60 56/56/56 55/55/55
f 61/61/61 57/57/57 58/58/58
f 62/62/62 61/61/61 58/58/58
f 62/62/62 63/63/63 61/61/61
f 63/63/63 64/64/64 61/61/61
f 57/57/57 61/61/61 65/65/65
f 65/65/65 60/60/60 57/57/57
f 61/61/61 64/64/64 66/66/66
f 61/61/61 66/66/66 65/65/65
f 66/66/66 64/64/64 67/67/67
f 66/66/66 68/68/68 65/65/65
f 66/66/66 67/67/67 69/69/69
f 66/66/66 69/69/69 68/68/68
f 65/65/65 70/70/70 60/60/60
f 68/68/68 70/70/70 65/65/65
f 69/69/69 67/67/67 71/71/71
f 67/67/67 72/72/72 71/71/71
f 73/73/73 71/71/71 72/72/72
f 74/74/74 73/73/73 72/72/72
f 75/75/75 73/73/73 74/74/74
f 76/76/76 75/75/75 74/74/74
f 73/73/73 75/75/75 77/77/77
f 78/78/78 73/73/73 77/77/77
f 73/73/73 78/78/78 71/71/71
f 78/78/78 77/77/77 79/79/79
f 80/80/80 78/78/78 79/79/79
f 80/80/80 79/79/79 81/81/81
f 82/82/82 70/70/70 68/68/68
f 83/83/83 68/68/68 69/69/69
f 83/83/83 82/82/82 68/68/68
f 69/69/69 71/71/71 84/84/84
f 84/84/84 83/83/83 69/69/69
f 78/78/78 85/85/85 71/71/71
f 85/85/85 84/84/84 71/71/71
f 85/85/85 78/78/78 86/86/86
f 84/84/84 85/85/85 86/86/86
f 86/86/86 78/78/78 80/80/80
f 84/84/84 87/87/87 83/83/83
f 82/82/82 83/83/83 87/87/87
f 87/87/87 84/84/84 86/86/86
f 88/88/88 70/70/70 82/82/82
f 60/60/60 70/70/70 88/88/88
f 82/82/82 87/87/87 89/89/89
f 89/89/89 88/88/88 82/82/82
f 90/90/90 87/87/87 86/86/86
f 89/89/89 87/87/87 90/90/90
f 86/86/86 80/80/80 91/91/91
f 86/86/86 91/91/91 90/90/90
f 88/88/88 92/92/92 60/60/60
f 92/92/92 56/56/56 60/60/60
f 89/89/89 93/93/93 88/88/88
f 89/89/89 90/90/90 93/93/93
f 93/93/93 92/92/92 88/88/88
f 94/94/94 56/56/56 92/92/92
f 94/94/94 92/92/92 93/93/93
f 94/94/94 59/59/59 56/56/56
f 90/90/90 95/95/95 93/93/93
f 91/91/91 95/95/95 90/90/90
f 96/96/96 94/94/94 93/93/93
f 59/59/59 94/94/94 96/96/96
f 96/96/96 93/93/93 95/95/95
f 97/97/97 59/59/59 96/96/96
f 54/54/54 59/59/59 97/97/97
f 95/95/95 98/98/98 96/96/96
f 95/95/95 91/91/91 98/98/98
f 96/96/96 98/98/98 97/97/97
f 99/99/99 54/54/54 97/97/97
f 54/54/54 99/99/99 53/53/53
f 99/99/99 97/97/97 100/100/100
f 53/53/53 99/99/99 100/100/100
f 100/100/100 97/97/97 98/98/98
f 53/53/53 100/100/100 52/52/52
f 101/101/101 100/100/100 98/98/98
f 100/100/100 101/101/101 52/52/52
f 102/102/102 98/98/98 91/91/91
f 102/102/102 101/101/101 98/98/98
f 101/101/101 103/103/103 52/52/52
f 52/52/52 103/103/103 35/35/35
f 104/104/104 102/102/102 91/91/91
f 80/80/80 104/104/104 91/91/91
f 104/104/104 80/80/80 81/81/81
f 102/102/102 104/104/104 81/81/81
f 105/105/105 102/102/102 81/81/81
f 102/102/102 105/105/105 106/106/106
f 101/101/101 102/102/102 106/106/106
f 103/103/103 101/101/101 106/106/106
f 107/107/107 103/103/103 106/106/106
f 103/103/103 107/107/107 12/12/12
f 103/103/103 108/108/108 35/35/35
f 108/108/108 103/103/103 12/12/12
f 108/108/108 11/11/11 35/35/35
f 11/11/11 108/108/108 12/12/12
