g head_geo
v 0.1082534 1.443091 0.02664432
v 0.1163719 1.448312 0.02960091
v 0.1034905 1.43942 0.03542229
v 0.1050018 1.431888 0.01660572
v 0.1245615 1.447834 0.0169844
v 0.1267132 1.440227 0.006396294
v 0.1038999 1.411394 0.010453
v 0.1262803 1.443236 0.02051784
v 0.1298157 1.435355 0.01276386
v 0.1199568 1.442292 0.02945312
v 0.1034905 1.43942 0.03542229
v 0.1004667 1.407772 0.03899154
v 0.1113901 1.411623 0.02570835
v 0.09404552 1.379888 0.03849602
v 0.1235434 1.414437 0.008393821
v 0.1225719 1.415262 0.0009894943
v 0.1042195 1.380767 0.02227417
v 0.1060008 1.382388 0.01261921
v 0.0930871 1.380328 0.01525841
v 0.1011633 1.371937 0.02150345
v 0.09270927 1.373226 0.03705833
v 0.1011633 1.371937 0.02150345
v 0.09270927 1.373226 0.03705833
v -0.1082534 1.443091 0.02664432
v -0.1034905 1.43942 0.03542229
v -0.1163719 1.448312 0.02960091
v -0.1050018 1.431888 0.01660572
v -0.1245615 1.447834 0.0169844
v -0.1267132 1.440227 0.006396294
v -0.1038999 1.411394 0.010453
v -0.1262803 1.443236 0.02051784
v -0.1298157 1.435355 0.01276386
v -0.1199568 1.442292 0.02945312
v -0.1034905 1.43942 0.03542229
v -0.1004667 1.407772 0.03899154
v -0.1113901 1.411623 0.02570835
v -0.09404552 1.379888 0.03849602
v -0.1235434 1.414437 0.008393821
v -0.1225719 1.415262 0.0009894943
v -0.1042195 1.380767 0.02227417
v -0.1060008 1.382388 0.01261921
v -0.0930871 1.380328 0.01525841
v -0.1011633 1.371937 0.02150345
v -0.09270927 1.373226 0.03705833
v -0.1011633 1.371937 0.02150345
v -0.09270927 1.373226 0.03705833
v -0.09137208 1.384155 0.06796411
v -0.09404552 1.379888 0.03849602
v -0.1004667 1.407772 0.03899154
v -0.09270927 1.373226 0.03705833
v -0.09672186 1.41056 0.06606205
v -0.1034905 1.43942 0.03542229
v -0.08772143 1.347677 0.03559908
v -0.0930871 1.380328 0.01525841
v -0.0923076 1.454022 0.08573097
v -0.1093872 1.48236 0.04282434
v -0.08756911 1.441374 0.09082779
v -0.0862044 1.421801 0.09036003
v -0.0896805 1.404815 0.09015995
v -0.0836888 1.3821 0.08408703
v -0.08213215 1.368598 0.0735475
v -0.07335278 1.330646 0.05758698
v -0.07108659 1.320878 0.04560863
v -0.08661323 1.339113 0.02271738
v -0.09279362 1.371286 -0.00503147
v -0.09547707 1.479729 0.0832948
v -0.08871283 1.480189 0.09656917
v -0.1093126 1.520215 0.03893296
v -0.09649041 1.510607 0.08242495
v -0.08472464 1.496958 0.1056837
v -0.08403272 1.521497 0.1033107
v -0.07123996 1.339113 0.01383893
v -0.07283636 1.362844 -0.01699139
v -0.05559103 1.335728 -0.01939222
v -0.05340442 1.321962 0.004140968
v -0.07090721 1.517264 0.1234501
v -0.07108938 1.49666 0.1221184
v -0.06996019 1.532879 0.1184628
v -0.05098374 1.49492 0.1374871
v -0.06191508 1.318694 0.03758642
v -0.05642112 1.306022 0.06938881
v -0.02504627 1.302358 0.02995772
v -0.04432626 1.519818 0.1384363
v -0.03579593 1.546192 0.1288023
v -1.028566E-18 1.520741 0.1445661
v -0.0240767 1.493075 0.1427626
v -6.506331E-18 1.555322 0.1322325
v 1.512753E-18 1.49007 0.1446069
v 0.03579593 1.546192 0.1288023
v 0.0240767 1.493075 0.1427626
v 0.04432626 1.519818 0.1384363
v 0.06996019 1.532879 0.1184628
v 0.05098374 1.49492 0.1374871
v 0.07090721 1.517264 0.1234501
v 0.07108938 1.49666 0.1221184
v 0.08403272 1.521497 0.1033107
v 0.08472464 1.496958 0.1056837
v 0.09649041 1.510607 0.08242495
v 0.09547707 1.479729 0.0832948
v 0.1093126 1.520215 0.03893296
v 0.08871283 1.480189 0.09656917
v 0.1093872 1.48236 0.04282434
v 0.0923076 1.454022 0.08573097
v 0.1034905 1.43942 0.03542229
v 0.09672186 1.41056 0.06606205
v 0.08756911 1.441374 0.09082779
v 0.0862044 1.421801 0.09036003
v 0.1004667 1.407772 0.03899154
v 0.09137208 1.384155 0.06796411
v 0.09404552 1.379888 0.03849602
v 0.0896805 1.404815 0.09015995
v 0.0836888 1.3821 0.08408703
v 0.08213215 1.368598 0.0735475
v 0.09270927 1.373226 0.03705833
v 0.07335278 1.330646 0.05758698
v 0.08772143 1.347677 0.03559908
v 0.0930871 1.380328 0.01525841
v 0.07108659 1.320878 0.04560863
v 0.08661323 1.339113 0.02271738
v 0.09279362 1.371286 -0.00503147
v 0.07123996 1.339113 0.01383893
v 0.07283636 1.362844 -0.01699139
v 0.05559103 1.335728 -0.01939222
v 0.05340442 1.321962 0.004140968
v 0.06191508 1.318694 0.03758642
v 0.05642112 1.306022 0.06938881
v 0.02504627 1.302358 0.02995772
v 0.05060591 1.305354 0.05491583
v 0.03710882 1.297188 0.07092439
v 0.04665112 1.29753 0.08822387
v 0.01909542 1.293794 0.06958213
v -2.386126E-17 1.294636 0.04559203
v 0.02479519 1.292881 0.08892227
v 0.03951241 1.294057 0.1002328
v 0.02365907 1.291143 0.1112646
v -8.455114E-18 1.292079 0.06859961
v -1.171422E-18 1.291608 0.09650702
v 9.710015E-18 1.289537 0.1141782
v -0.02365907 1.291143 0.1112646
v -0.02479519 1.292881 0.08892227
v -0.03951241 1.294057 0.1002328
v -0.04665112 1.29753 0.08822387
v -0.01909542 1.293794 0.06958213
v -0.03710882 1.297188 0.07092439
v -0.05060591 1.305354 0.05491583
vt 0.354248 0.1973877
vt 0.3579102 0.1871338
vt 0.3457031 0.1959229
vt 0.3652344 0.2139893
vt 0.364502 0.1933594
vt 0.3718262 0.1976318
vt 0.3920898 0.2131348
vt 0.3664551 0.1895752
vt 0.3737793 0.192627
vt 0.3635254 0.1843262
vt 0.3630371 0.1696777
vt 0.3955078 0.1634521
vt 0.3908691 0.177124
vt 0.4216309 0.1685791
vt 0.3874512 0.1945801
vt 0.3864746 0.2008057
vt 0.4169922 0.1849365
vt 0.4143066 0.1943359
vt 0.4226074 0.2023926
vt 0.4267578 0.1917725
vt 0.4416504 0.196167
vt 0.4250488 0.1861572
vt 0.4272461 0.1706543
vt 0.1463623 0.1973877
vt 0.1549072 0.1959229
vt 0.1428223 0.1871338
vt 0.135376 0.2139893
vt 0.1361084 0.1933594
vt 0.1289062 0.1976318
vt 0.1084595 0.2131348
vt 0.1341553 0.1895752
vt 0.1269531 0.192627
vt 0.1369629 0.1843262
vt 0.1376953 0.1696777
vt 0.1052246 0.1634521
vt 0.1099243 0.177124
vt 0.07910156 0.1685791
vt 0.1133423 0.1945801
vt 0.1141968 0.2008057
vt 0.0836792 0.1849365
vt 0.08624268 0.1943359
vt 0.07794189 0.2023926
vt 0.07385254 0.1917725
vt 0.05905151 0.196167
vt 0.07568359 0.1861572
vt 0.07336426 0.1706543
vt 0.1361084 0.3486328
vt 0.1149902 0.3288574
vt 0.1049194 0.3647461
vt 0.117981 0.3115234
vt 0.1296387 0.3718262
vt 0.1018066 0.3952637
vt 0.1369629 0.2841797
vt 0.1003418 0.2961426
vt 0.1514893 0.4177246
vt 0.1065063 0.4360352
vt 0.1538086 0.4052734
vt 0.1533203 0.3859863
vt 0.1529541 0.3701172
vt 0.1506348 0.3491211
vt 0.1522217 0.326416
vt 0.1662598 0.277832
vt 0.1669922 0.2597656
vt 0.1378174 0.2619629
vt 0.09906006 0.2729492
vt 0.1485596 0.4367676
vt 0.1647949 0.4370117
vt 0.09881592 0.4707031
vt 0.1445312 0.4638672
vt 0.1712646 0.4484863
vt 0.1663818 0.4709473
vt 0.1401367 0.2507324
vt 0.1062622 0.251709
vt 0.1289062 0.2246094
vt 0.1544189 0.2246094
vt 0.1872559 0.4663086
vt 0.1872559 0.4484863
vt 0.1846924 0.4807129
vt 0.2075195 0.4475098
vt 0.1699219 0.2437744
vt 0.1893311 0.2602539
vt 0.2064209 0.2246094
vt 0.2124023 0.4682617
vt 0.2161865 0.4958496
vt 0.2502441 0.4694824
vt 0.2301025 0.4460449
vt 0.2502441 0.4958496
vt 0.2502441 0.4436035
vt 0.2844238 0.4958496
vt 0.2705078 0.4460449
vt 0.2883301 0.4682617
vt 0.315918 0.4807129
vt 0.2932129 0.4475098
vt 0.3134766 0.4663086
vt 0.3134766 0.4484863
vt 0.3342285 0.4709473
vt 0.3293457 0.4484863
vt 0.3562012 0.4638672
vt 0.3520508 0.4367676
vt 0.4018555 0.4707031
vt 0.3359375 0.4370117
vt 0.394043 0.4360352
vt 0.3491211 0.4177246
vt 0.3989258 0.3952637
vt 0.3710938 0.3718262
vt 0.3469238 0.4052734
vt 0.3474121 0.3859863
vt 0.395752 0.3647461
vt 0.364502 0.3486328
vt 0.3857422 0.3288574
vt 0.3476562 0.3701172
vt 0.3500977 0.3491211
vt 0.3483887 0.326416
vt 0.3828125 0.3115234
vt 0.3344727 0.277832
vt 0.3637695 0.2841797
vt 0.4003906 0.2961426
vt 0.3337402 0.2597656
vt 0.362793 0.2619629
vt 0.4016113 0.2729492
vt 0.3605957 0.2507324
vt 0.3942871 0.251709
vt 0.3718262 0.2246094
vt 0.3461914 0.2246094
vt 0.3308105 0.2437744
vt 0.3112793 0.2602539
vt 0.2941895 0.2246094
vt 0.3093262 0.2437744
vt 0.2873535 0.2437744
vt 0.2941895 0.2617188
vt 0.2692871 0.237793
vt 0.2502441 0.2246094
vt 0.2712402 0.2437744
vt 0.282959 0.2619629
vt 0.2695312 0.262207
vt 0.2502441 0.2329102
vt 0.2502441 0.2437744
vt 0.2502441 0.2609863
vt 0.2310791 0.262207
vt 0.2294922 0.2437744
vt 0.2176514 0.2619629
vt 0.206543 0.2617188
vt 0.2313232 0.237793
vt 0.2132568 0.2437744
vt 0.1914062 0.2437744
vn -0.513921 0.754525 -0.4081388
vn -0.2862499 0.9484078 -0.1363218
vn 0.9061494 -0.09606058 0.4119048
vn -0.5026654 0.3749439 -0.7789381
vn -0.08318692 0.9007218 -0.4263569
vn -0.1163308 0.4009778 -0.9086715
vn -0.4582305 0.1110882 -0.8818641
vn 0.8835779 0.04766869 0.4658517
vn 0.9725522 -0.1522875 0.1759283
vn 0.6758903 -0.06412397 0.7342074
vn 0.9061494 -0.09606058 0.4119048
vn 0.9066778 -0.1795115 0.381721
vn 0.7369435 -0.2010085 0.6453757
vn 0.9226953 -0.2279887 0.310893
vn 0.9183999 -0.3631924 0.1569482
vn 0.001749572 0.009781128 -0.9999506
vn 0.8558691 -0.2982159 0.4225582
vn 0.5481409 -0.5054064 -0.6664127
vn 0.8927231 -0.331413 -0.3053044
vn 0.35924 -0.9329678 0.02275403
vn 0.9605761 -0.2537647 0.1135657
vn 0.35924 -0.9329678 0.02275403
vn 0.9605761 -0.2537647 0.1135657
vn 0.5139217 0.7545257 -0.4081365
vn -0.9061496 -0.09606055 0.4119044
vn 0.2862491 0.948408 -0.1363219
vn 0.5026656 0.3749442 -0.7789378
vn 0.08318619 0.9007217 -0.4263572
vn 0.1163312 0.4009779 -0.9086715
vn 0.4582301 0.1110885 -0.8818643
vn -0.8835802 0.04766899 0.4658473
vn -0.9725525 -0.1522879 0.1759259
vn -0.6758911 -0.06412358 0.7342066
vn -0.9061496 -0.09606055 0.4119044
vn -0.9066781 -0.1795116 0.3817202
vn -0.7369443 -0.2010088 0.6453747
vn -0.9226955 -0.2279889 0.3108921
vn -0.9184002 -0.3631928 0.1569458
vn -0.001749315 0.009781376 -0.9999506
vn -0.8558701 -0.2982163 0.4225559
vn -0.5481398 -0.5054059 -0.6664141
vn -0.8927231 -0.3314133 -0.3053039
vn -0.3592391 -0.9329682 0.02275385
vn -0.9605759 -0.2537649 0.113566
vn -0.3592391 -0.9329682 0.02275385
vn -0.9605759 -0.2537649 0.113566
vn -0.9329712 -0.2725893 0.2350741
vn -0.9226955 -0.2279889 0.3108921
vn -0.9066781 -0.1795116 0.3817202
vn -0.9605759 -0.2537649 0.113566
vn -0.9745166 -0.09806189 0.2017457
vn -0.9061496 -0.09606055 0.4119044
vn -0.9147195 -0.3379189 0.221583
vn -0.8927231 -0.3314133 -0.3053039
vn -0.9424165 -0.09487507 0.3207021
vn -0.9516066 -0.06594432 0.3001605
vn -0.9085256 -0.1511054 0.3895488
vn -0.9172801 0.06224054 0.3933488
vn -0.9453186 -0.07147618 0.3182198
vn -0.8870148 -0.3322372 0.3206606
vn -0.8762285 -0.3584184 0.322118
vn -0.8713061 -0.3964025 0.2892932
vn -0.72312 -0.6881199 -0.05990444
vn -0.7572144 -0.6075283 -0.2398662
vn -0.8311316 -0.4746394 -0.28972
vn -0.9367884 -0.03776292 0.3478524
vn -0.8899063 -0.05033011 0.4533581
vn -0.9509103 0.01379512 0.3091589
vn -0.9389361 -0.008712699 0.3439812
vn -0.8505517 0.01468098 0.5256865
vn -0.843769 0.09674329 0.5279154
vn -0.5990444 -0.6733904 -0.4332335
vn -0.6911223 -0.5895774 -0.4180292
vn -0.7898524 -0.5240739 -0.3185589
vn -0.6226491 -0.7435717 -0.2437398
vn -0.576903 0.1973197 0.7926209
vn -0.6488636 0.02160524 0.760598
vn -0.4966799 0.3647611 0.7875648
vn -0.4339166 0.03565929 0.900247
vn -0.4761769 -0.8223622 -0.3114096
vn -0.6552322 -0.7546924 -0.03331751
vn -0.3359395 -0.915564 -0.2211044
vn -0.3080262 0.2562025 0.9162315
vn -0.2207015 0.3634151 0.9051079
vn -0 0.2716882 0.9623854
vn -0.1467962 0.05404336 0.9876893
vn 1.287986E-07 0.3583389 0.9335916
vn -1.083071E-07 0.06393488 0.997954
vn 0.220702 0.3634155 0.9051076
vn 0.146796 0.05404337 0.9876894
vn 0.3080267 0.256203 0.9162311
vn 0.4966819 0.3647625 0.787563
vn 0.4339165 0.03565929 0.9002471
vn 0.576904 0.1973202 0.7926201
vn 0.6488632 0.02160522 0.7605982
vn 0.8437684 0.09674325 0.5279163
vn 0.8505513 0.01468096 0.5256871
vn 0.938936 -0.00871271 0.3439815
vn 0.9367884 -0.03776298 0.3478524
vn 0.9509102 0.01379518 0.3091592
vn 0.889906 -0.05033017 0.4533587
vn 0.9516063 -0.06594428 0.300161
vn 0.9424164 -0.09487506 0.3207023
vn 0.9061494 -0.09606058 0.4119048
vn 0.9745165 -0.0980619 0.2017459
vn 0.9085258 -0.1511052 0.3895489
vn 0.9172801 0.06224074 0.393349
vn 0.9066778 -0.1795115 0.381721
vn 0.9329711 -0.2725892 0.2350743
vn 0.9226953 -0.2279887 0.310893
vn 0.9453187 -0.071476 0.3182197
vn 0.8870145 -0.3322372 0.3206612
vn 0.8762286 -0.3584185 0.3221174
vn 0.9605761 -0.2537647 0.1135657
vn 0.8713064 -0.3964026 0.2892925
vn 0.9147195 -0.3379188 0.2215834
vn 0.8927231 -0.331413 -0.3053044
vn 0.72312 -0.68812 -0.05990414
vn 0.7572145 -0.6075286 -0.2398648
vn 0.8311315 -0.4746395 -0.2897199
vn 0.5990446 -0.6733909 -0.4332324
vn 0.6911222 -0.5895773 -0.4180296
vn 0.7898525 -0.5240739 -0.3185586
vn 0.6226494 -0.7435721 -0.2437381
vn 0.4761771 -0.8223625 -0.3114084
vn 0.6552322 -0.7546924 -0.03331783
vn 0.3359396 -0.9155642 -0.2211036
vn 0.4279138 -0.8672998 -0.254324
vn 0.2640111 -0.9502452 -0.1653243
vn 0.5981433 -0.8006112 0.03530272
vn 0.1284839 -0.9860115 -0.106176
vn -0 -0.9853 -0.1708332
vn 0.1033402 -0.9915731 -0.07812605
vn 0.4798758 -0.868872 0.1215752
vn 0.1629926 -0.9804113 0.1105754
vn -0 -0.99823 -0.05947127
vn -0 -0.9975848 -0.06945886
vn -0 -0.992627 0.1212088
vn -0.1629926 -0.9804115 0.1105739
vn -0.1033401 -0.9915731 -0.07812574
vn -0.4798759 -0.8688723 0.1215733
vn -0.5981433 -0.8006112 0.03530078
vn -0.1284839 -0.9860116 -0.1061744
vn -0.2640111 -0.9502451 -0.1653249
vn -0.4279138 -0.8672999 -0.254324
g head_geo_0
f 3/3/3 2/2/2 1/1/1
f 1/1/1 2/2/2 4/4/4
f 2/2/2 5/5/5 4/4/4
f 5/5/5 6/6/6 4/4/4
f 4/4/4 6/6/6 7/7/7
f 8/8/8 5/5/5 2/2/2
f 9/9/9 6/6/6 5/5/5
f 8/8/8 9/9/9 5/5/5
f 10/10/10 8/8/8 2/2/2
f 10/10/10 2/2/2 11/11/11
f 10/10/10 11/11/11 12/12/12
f 8/8/8 10/10/10 13/13/13
f 13/13/13 10/10/10 12/12/12
f 9/9/9 8/8/8 13/13/13
f 13/13/13 12/12/12 14/14/14
f 9/9/9 15/15/15 6/6/6
f 9/9/9 13/13/13 15/15/15
f 6/6/6 16/16/16 7/7/7
f 15/15/15 16/16/16 6/6/6
f 15/15/15 13/13/13 17/17/17
f 17/17/17 13/13/13 14/14/14
f 16/16/16 15/15/15 17/17/17
f 16/16/16 18/18/18 7/7/7
f 18/18/18 16/16/16 17/17/17
f 7/7/7 18/18/18 19/19/19
f 18/18/18 20/20/20 19/19/19
f 21/21/21 19/19/19 20/20/20
f 17/17/17 22/22/22 18/18/18
f 17/17/17 14/14/14 22/22/22
f 14/14/14 23/23/23 22/22/22
f 26/26/26 25/25/25 24/24/24
f 26/26/26 24/24/24 27/27/27
f 28/28/28 26/26/26 27/27/27
f 29/29/29 28/28/28 27/27/27
f 29/29/29 27/27/27 30/30/30
f 28/28/28 31/31/31 26/26/26
f 29/29/29 32/32/32 28/28/28
f 32/32/32 31/31/31 28/28/28
f 31/31/31 33/33/33 26/26/26
f 26/26/26 33/33/33 34/34/34
f 34/34/34 33/33/33 35/35/35
f 33/33/33 31/31/31 36/36/36
f 33/33/33 36/36/36 35/35/35
f 31/31/31 32/32/32 36/36/36
f 35/35/35 36/36/36 37/37/37
f 38/38/38 32/32/32 29/29/29
f 36/36/36 32/32/32 38/38/38
f 39/39/39 29/29/29 30/30/30
f 39/39/39 38/38/38 29/29/29
f 36/36/36 38/38/38 40/40/40
f 36/36/36 40/40/40 37/37/37
f 38/38/38 39/39/39 40/40/40
f 41/41/41 39/39/39 30/30/30
f 39/39/39 41/41/41 40/40/40
f 41/41/41 30/30/30 42/42/42
f 43/43/43 41/41/41 42/42/42
f 42/42/42 44/44/44 43/43/43
f 45/45/45 40/40/40 41/41/41
f 37/37/37 40/40/40 45/45/45
f 46/46/46 37/37/37 45/45/45
f 49/49/49 48/48/48 47/47/47
f 47/47/47 48/48/48 50/50/50
f 51/51/51 49/49/49 47/47/47
f 52/52/52 49/49/49 51/51/51
f 50/50/50 53/53/53 47/47/47
f 54/54/54 53/53/53 50/50/50
f 51/51/51 55/55/55 52/52/52
f 55/55/55 56/56/56 52/52/52
f 57/57/57 55/55/55 51/51/51
f 58/58/58 57/57/57 51/51/51
f 51/51/51 59/59/59 58/58/58
f 47/47/47 59/59/59 51/51/51
f 60/60/60 59/59/59 47/47/47
f 61/61/61 60/60/60 47/47/47
f 62/62/62 61/61/61 47/47/47
f 53/53/53 62/62/62 47/47/47
f 63/63/63 62/62/62 53/53/53
f 53/53/53 54/54/54 64/64/64
f 64/64/64 63/63/63 53/53/53
f 54/54/54 65/65/65 64/64/64
f 66/66/66 56/56/56 55/55/55
f 66/66/66 55/55/55 67/67/67
f 56/56/56 66/66/66 68/68/68
f 68/68/68 66/66/66 69/69/69
f 66/66/66 67/67/67 70/70/70
f 70/70/70 69/69/69 66/66/66
f 71/71/71 69/69/69 70/70/70
f 64/64/64 65/65/65 72/72/72
f 63/63/63 64/64/64 72/72/72
f 65/65/65 73/73/73 72/72/72
f 72/72/72 73/73/73 74/74/74
f 75/75/75 72/72/72 74/74/74
f 76/76/76 71/71/71 70/70/70
f 77/77/77 76/76/76 70/70/70
f 76/76/76 78/78/78 71/71/71
f 76/76/76 77/77/77 79/79/79
f 80/80/80 63/63/63 72/72/72
f 75/75/75 80/80/80 72/72/72
f 81/81/81 63/63/63 80/80/80
f 82/82/82 80/80/80 75/75/75
f 76/76/76 83/83/83 78/78/78
f 83/83/83 76/76/76 79/79/79
f 83/83/83 84/84/84 78/78/78
f 84/84/84 83/83/83 85/85/85
f 83/83/83 79/79/79 86/86/86
f 85/85/85 83/83/83 86/86/86
f 87/87/87 84/84/84 85/85/85
f 88/88/88 85/85/85 86/86/86
f 89/89/89 87/87/87 85/85/85
f 85/85/85 88/88/88 90/90/90
f 91/91/91 89/89/89 85/85/85
f 91/91/91 85/85/85 90/90/90
f 89/89/89 91/91/91 92/92/92
f 93/93/93 91/91/91 90/90/90
f 91/91/91 94/94/94 92/92/92
f 94/94/94 91/91/91 93/93/93
f 95/95/95 94/94/94 93/93/93
f 92/92/92 94/94/94 96/96/96
f 94/94/94 95/95/95 97/97/97
f 96/96/96 94/94/94 97/97/97
f 98/98/98 96/96/96 97/97/97
f 98/98/98 97/97/97 99/99/99
f 99/99/99 100/100/100 98/98/98
f 101/101/101 99/99/99 97/97/97
f 99/99/99 102/102/102 100/100/100
f 103/103/103 99/99/99 101/101/101
f 102/102/102 99/99/99 103/103/103
f 102/102/102 103/103/103 104/104/104
f 103/103/103 105/105/105 104/104/104
f 103/103/103 106/106/106 105/105/105
f 106/106/106 107/107/107 105/105/105
f 108/108/108 104/104/104 105/105/105
f 108/108/108 105/105/105 109/109/109
f 110/110/110 108/108/108 109/109/109
f 111/111/111 105/105/105 107/107/107
f 111/111/111 109/109/109 105/105/105
f 111/111/111 112/112/112 109/109/109
f 112/112/112 113/113/113 109/109/109
f 110/110/110 109/109/109 114/114/114
f 113/113/113 115/115/115 109/109/109
f 116/116/116 114/114/114 109/109/109
f 115/115/115 116/116/116 109/109/109
f 116/116/116 117/117/117 114/114/114
f 115/115/115 118/118/118 116/116/116
f 117/117/117 116/116/116 119/119/119
f 118/118/118 119/119/119 116/116/116
f 120/120/120 117/117/117 119/119/119
f 120/120/120 119/119/119 121/121/121
f 119/119/119 118/118/118 121/121/121
f 122/122/122 120/120/120 121/121/121
f 122/122/122 121/121/121 123/123/123
f 121/121/121 124/124/124 123/123/123
f 118/118/118 125/125/125 121/121/121
f 125/125/125 124/124/124 121/121/121
f 118/118/118 126/126/126 125/125/125
f 125/125/125 127/127/127 124/124/124
f 126/126/126 128/128/128 125/125/125
f 125/125/125 128/128/128 127/127/127
f 129/129/129 128/128/128 126/126/126
f 129/129/129 127/127/127 128/128/128
f 129/129/129 126/126/126 130/130/130
f 129/129/129 131/131/131 127/127/127
f 131/131/131 132/132/132 127/127/127
f 129/129/129 130/130/130 133/133/133
f 131/131/131 129/129/129 133/133/133
f 130/130/130 134/134/134 133/133/133
f 135/135/135 133/133/133 134/134/134
f 131/131/131 136/136/136 132/132/132
f 131/131/131 133/133/133 136/136/136
f 133/133/133 135/135/135 137/137/137
f 133/133/133 137/137/137 136/136/136
f 135/135/135 138/138/138 137/137/137
f 138/138/138 139/139/139 137/137/137
f 139/139/139 140/140/140 137/137/137
f 137/137/137 140/140/140 136/136/136
f 140/140/140 139/139/139 141/141/141
f 141/141/141 142/142/142 140/140/140
f 136/136/136 143/143/143 132/132/132
f 140/140/140 143/143/143 136/136/136
f 132/132/132 143/143/143 82/82/82
f 142/142/142 144/144/144 140/140/140
f 144/144/144 143/143/143 140/140/140
f 143/143/143 144/144/144 82/82/82
f 81/81/81 144/144/144 142/142/142
f 82/82/82 144/144/144 145/145/145
f 145/145/145 144/144/144 81/81/81
f 145/145/145 80/80/80 82/82/82
f 145/145/145 81/81/81 80/80/80
