g facial_mouth_geo
v -0.03816722 1.382382 0.1296499
v -0.01929573 1.386605 0.1449629
v -0.03270365 1.371707 0.1299628
v -0.01681394 1.368943 0.135602
v -0 1.36618 0.1395605
v -0 1.391649 0.1577126
v 0.01929573 1.386605 0.1449629
v 0.01681394 1.368943 0.135602
v 0.03270365 1.371707 0.1299628
v 0.03816722 1.382382 0.1296499
vt 0.2143555 0.3508301
vt 0.2316895 0.3566895
vt 0.2211914 0.3417969
vt 0.2342529 0.3398438
vt 0.25 0.3378906
vt 0.25 0.3630371
vt 0.2683105 0.3566895
vt 0.265625 0.3398438
vt 0.2788086 0.3417969
vt 0.2856445 0.3508301
vn -0.5245488 -0.05793834 0.8494067
vn -0.4366057 -0.2518468 0.8636832
vn -0.4394296 -0.3034373 0.8454746
vn -0.307225 -0.4176926 0.8550705
vn 4.101946E-07 -0.4854814 0.874247
vn 3.68098E-07 -0.0605775 0.9981635
vn 0.436606 -0.2518469 0.863683
vn 0.3072255 -0.417694 0.8550698
vn 0.4394288 -0.303437 0.8454752
vn 0.5245491 -0.05793825 0.8494065
g facial_mouth_geo_0
f 3/3/3 2/2/2 1/1/1
f 3/3/3 4/4/4 2/2/2
f 4/4/4 5/5/5 2/2/2
f 6/6/6 2/2/2 5/5/5
f 7/7/7 6/6/6 5/5/5
f 7/7/7 5/5/5 8/8/8
f 7/7/7 8/8/8 9/9/9
f 7/7/7 9/9/9 10/10/10
