g weapon_back_geo
v -0.5227773 0.674071 -1.186273
v -0.4595712 0.791332 -1.14486
v -0.4908475 0.7274517 -1.139149
v -0.4727788 0.7447774 -1.106558
v -0.4638609 0.7472734 -1.084763
v -0.4371625 0.8366334 -1.101987
v -0.4143799 0.8360496 -1.03421
v -0.4413344 0.7429643 -1.032264
v -0.401098 0.8082524 -0.9894873
v -0.4188473 0.7418797 -0.9838687
v -0.4067097 0.7832877 -0.9457968
v -0.4029686 0.7809324 -1.230165
v -0.3644367 0.871948 -1.164005
v -0.3857872 0.8279068 -1.152816
v -0.3905436 0.8167598 -1.102927
v -0.3511914 0.9059956 -1.086084
v -0.361767 0.8763077 -1.031736
v -0.403182 0.781688 -1.047076
v -0.3779632 0.8296697 -0.9873027
v -0.4080558 0.7587929 -0.9938374
v -0.4056882 0.7830293 -0.9458129
v -0.410585 0.7754504 -0.9208544
v -0.401641 0.7893405 -0.9208544
v -0.4105563 0.811756 -0.8951876
v -0.4146906 0.7942303 -0.8951876
v -0.4055096 0.7932366 -0.8529295
v -0.4066607 0.775562 -0.8529295
vt 0.7695312 0.2391357
vt 0.7509766 0.2687988
vt 0.75 0.2391357
vt 0.7392578 0.2391357
vt 0.7182617 0.2391357
vt 0.7216797 0.2810059
vt 0.6923828 0.2783203
vt 0.690918 0.2391357
vt 0.6699219 0.263916
vt 0.6733398 0.2391357
vt 0.6533203 0.2391357
vt 0.7695312 0.2391357
vt 0.7509766 0.2687988
vt 0.7392578 0.2391357
vt 0.7182617 0.2391357
vt 0.7216797 0.2810059
vt 0.6923828 0.2783203
vt 0.690918 0.2391357
vt 0.6699219 0.263916
vt 0.6733398 0.2391357
vt 0.6533203 0.2391357
vt 0.7944336 0.1899414
vt 0.777832 0.1899414
vt 0.777832 0.1706543
vt 0.7944336 0.1706543
vt 0.777832 0.138916
vt 0.7944336 0.138916
vn -0.890146 0.4447067 0.09937946
vn -0.9109849 0.3682351 0.185767
vn -0.885561 0.4453779 0.1319855
vn -0.9069405 0.3699749 0.2014385
vn -0.901614 0.3148125 0.2966229
vn -0.8984782 0.3102773 0.3105882
vn -0.8834769 0.2866705 0.3705246
vn -0.8824713 0.2847933 0.3743491
vn -0.8915644 0.2657692 0.3667147
vn -0.8933749 0.2659182 0.3621723
vn -0.9652351 0.260213 0.02470729
vn -0.9039638 0.4238454 -0.05660824
vn -0.908849 0.416573 -0.02145978
vn -0.9081582 0.4177554 -0.02700111
vn -0.914922 0.4031366 0.01996267
vn -0.9148496 0.4033272 0.01942752
vn -0.9179076 0.3937005 0.0494526
vn -0.918403 0.3909704 0.06064662
vn -0.9197197 0.3890847 0.05223784
vn -0.9199256 0.3914825 0.0218717
vn -0.9038765 0.3981834 -0.1563876
vn -0.8114451 0.3378024 -0.4769135
vn -0.8114451 0.3378023 -0.4769134
vn -0.9738926 0.2255301 -0.02587591
vn -0.9669386 0.2419658 -0.08051339
vn -0.9661524 0.1450686 0.213318
vn -0.9661524 0.1450687 0.213318
g weapon_back_geo_0
f 3/3/3 2/2/2 1/1/1
f 4/4/4 2/2/2 3/3/3
f 4/4/4 5/5/5 2/2/2
f 5/5/5 6/6/6 2/2/2
f 7/7/7 6/6/6 5/5/5
f 8/8/8 7/7/7 5/5/5
f 9/9/9 7/7/7 8/8/8
f 10/10/10 9/9/9 8/8/8
f 9/9/9 10/10/10 11/11/11
f 14/14/14 13/13/13 12/12/12
f 14/14/14 15/15/15 13/13/13
f 15/15/15 16/16/16 13/13/13
f 17/17/17 16/16/16 15/15/15
f 18/18/18 17/17/17 15/15/15
f 19/19/19 17/17/17 18/18/18
f 20/20/20 19/19/19 18/18/18
f 20/20/20 21/21/21 19/19/19
f 24/24/24 23/23/23 22/22/22
f 25/25/25 24/24/24 22/22/22
f 26/26/26 24/24/24 25/25/25
f 27/27/27 26/26/26 25/25/25
