g facial_eye_geo
v 0.06933471 1.420106 0.1216439
v 0.08967248 1.419171 0.1025716
v 0.0914287 1.395234 0.1030963
v 0.07206479 1.398098 0.1200018
v 0.04669109 1.418419 0.1297886
v 0.07129297 1.376684 0.1170522
v 0.09114627 1.37677 0.1020082
v 0.09788106 1.380217 0.07615408
v 0.09385872 1.353384 0.07912555
v 0.09738769 1.347984 0.05077498
v 0.08536797 1.350411 0.09457807
v 0.09040714 1.327783 0.07765045
v 0.089921 1.303817 0.04724546
v 0.08664412 1.307475 0.07387859
v 0.07803848 1.303991 0.09475533
v 0.08106352 1.32522 0.09263639
v 0.06924839 1.304501 0.1028957
v 0.07219693 1.324685 0.09923877
v 0.06587021 1.346948 0.1050682
v 0.05956244 1.323956 0.1049595
v 0.05621135 1.306586 0.1111405
v 0.03879023 1.310944 0.1185649
v 0.03760343 1.32575 0.1115347
v 0.01915652 1.330692 0.1179102
v 0.01959175 1.31245 0.1278602
v 9.424925E-18 1.314289 0.1345266
v 4.336053E-18 1.330967 0.1282924
v 0.01860979 1.341496 0.1199895
v -2.385166E-18 1.347065 0.1300935
v 0.03985622 1.343621 0.1154443
v 0.04281688 1.357484 0.1195021
v 0.01985836 1.354473 0.1263839
v 0.04733825 1.371764 0.1257219
v 0.02230495 1.367577 0.1318399
v -1.148296E-18 1.365062 0.134134
v -1.848076E-18 1.386201 0.1364936
v 0.04803841 1.394842 0.1294576
v 0.02287625 1.389417 0.1347419
v 0.02163007 1.415285 0.1348617
v -8.391484E-20 1.412926 0.1364704
v -0.02163007 1.415285 0.1348617
v -0.02230495 1.367577 0.1318399
v -2.385166E-18 1.347065 0.1300935
v -0.02287625 1.389417 0.1347419
v -0.04669109 1.418419 0.1297886
v -0.04803841 1.394842 0.1294576
v -0.07206479 1.398098 0.1200018
v -0.06933471 1.420106 0.1216439
v -0.04733825 1.371764 0.1257219
v -0.01985836 1.354473 0.1263839
v -0.0914287 1.395234 0.1030963
v -0.08967248 1.419171 0.1025716
v -0.01860979 1.341496 0.1199895
v 4.336053E-18 1.330967 0.1282924
v -0.07129297 1.376684 0.1170522
v -0.04281688 1.357484 0.1195021
v -0.01915652 1.330692 0.1179102
v 9.424925E-18 1.314289 0.1345266
v -0.01959175 1.31245 0.1278602
v -0.03879023 1.310944 0.1185649
v -0.03760343 1.32575 0.1115347
v -0.03985622 1.343621 0.1154443
v -0.06587021 1.346948 0.1050682
v -0.05956244 1.323956 0.1049595
v -0.05621135 1.306586 0.1111405
v -0.06924839 1.304501 0.1028957
v -0.07219693 1.324685 0.09923877
v -0.08536797 1.350411 0.09457807
v -0.08106352 1.32522 0.09263639
v -0.07803848 1.303991 0.09475533
v -0.09114627 1.37677 0.1020082
v -0.09788106 1.380217 0.07615408
v -0.09385872 1.353384 0.07912555
v -0.09738769 1.347984 0.05077498
v -0.09040714 1.327783 0.07765045
v -0.08664412 1.307475 0.07387859
v -0.089921 1.303817 0.04724546
vt 0.3195801 0.4777832
vt 0.3400879 0.4768066
vt 0.3422852 0.4533691
vt 0.3212891 0.4562988
vt 0.2976074 0.4760742
vt 0.3200684 0.4365234
vt 0.3417969 0.4355469
vt 0.3623047 0.4387207
vt 0.3571777 0.4125977
vt 0.3720703 0.4074707
vt 0.3415527 0.4125977
vt 0.3579102 0.3886719
vt 0.3674316 0.3620605
vt 0.355957 0.3664551
vt 0.3342285 0.362793
vt 0.3364258 0.3852539
vt 0.3227539 0.3637695
vt 0.3266602 0.3845215
vt 0.3198242 0.4072266
vt 0.3134766 0.3840332
vt 0.307373 0.3662109
vt 0.2900391 0.371582
vt 0.2915039 0.3869629
vt 0.2727051 0.392334
vt 0.2702637 0.3740234
vt 0.25 0.3764648
vt 0.25 0.3928223
vt 0.2712402 0.4023438
vt 0.25 0.4089355
vt 0.2924805 0.4040527
vt 0.2941895 0.4177246
vt 0.2705078 0.4157715
vt 0.2966309 0.432373
vt 0.2717285 0.4289551
vt 0.25 0.4265137
vt 0.25 0.4462891
vt 0.2980957 0.453125
vt 0.2722168 0.4494629
vt 0.2719727 0.4731445
vt 0.25 0.4707031
vt 0.2279053 0.4731445
vt 0.2282715 0.4289551
vt 0.25 0.4089355
vt 0.2276611 0.4494629
vt 0.2023926 0.4760742
vt 0.2019043 0.453125
vt 0.1787109 0.4562988
vt 0.1804199 0.4777832
vt 0.2033691 0.432373
vt 0.2293701 0.4157715
vt 0.1575928 0.4533691
vt 0.15979 0.4768066
vt 0.2288818 0.4023438
vt 0.25 0.3928223
vt 0.1800537 0.4365234
vt 0.2059326 0.4177246
vt 0.227417 0.392334
vt 0.25 0.3764648
vt 0.2297363 0.3740234
vt 0.2099609 0.371582
vt 0.2084961 0.3869629
vt 0.2075195 0.4040527
vt 0.1801758 0.4072266
vt 0.1866455 0.3840332
vt 0.192627 0.3662109
vt 0.177124 0.3637695
vt 0.1733398 0.3845215
vt 0.1584473 0.4125977
vt 0.1634521 0.3852539
vt 0.1657715 0.362793
vt 0.1582031 0.4355469
vt 0.1375732 0.4387207
vt 0.1428223 0.4125977
vt 0.1279297 0.4074707
vt 0.1420898 0.3886719
vt 0.144165 0.3664551
vt 0.1326904 0.3620605
vn 0.5150563 0.01843135 0.8569582
vn 0.673243 0.04779214 0.7378752
vn 0.7060012 -0.02471824 0.7077791
vn 0.5211638 -0.04251896 0.8523968
vn 0.2762952 -0.003453679 0.9610667
vn 0.479866 -0.2236381 0.8483599
vn 0.7777246 -0.1707587 0.6049678
vn 0.9721122 -0.1078626 0.2082391
vn 0.955421 -0.1606319 0.2477257
vn 0.978526 -0.156114 0.1345928
vn 0.7039514 -0.2790587 0.6531299
vn 0.9479907 -0.1666806 0.2711667
vn 0.9749969 -0.1818364 0.127736
vn 0.9340813 -0.183239 0.3064569
vn 0.8060564 -0.08866929 0.5851588
vn 0.8146427 -0.1308967 0.5649985
vn 0.5496556 0.09226319 0.8302808
vn 0.5403239 -0.005398321 0.8414398
vn 0.4081674 -0.2727032 0.8712246
vn 0.3932186 0.03609211 0.9187364
vn 0.4094133 0.262251 0.8738451
vn 0.378285 0.3676332 0.8495566
vn 0.3525571 0.06599946 0.9334599
vn 0.4023269 0.2445763 0.8822219
vn 0.3984796 0.4083247 0.8212703
vn 2.278325E-07 0.4248224 0.9052767
vn 3.253948E-07 0.2922712 0.9563355
vn 0.337385 -0.2860681 0.896848
vn 2.705659E-07 -0.2537196 0.9672779
vn 0.3091605 -0.2273564 0.9234332
vn 0.3366376 -0.4085593 0.8483835
vn 0.3086508 -0.4322636 0.8472797
vn 0.3187166 -0.2296539 0.919608
vn 0.1956771 -0.1958778 0.960907
vn -0 -0.1539924 0.988072
vn -0 -0.06122652 0.9981238
vn 0.2920069 -0.07266364 0.9536519
vn 0.1622458 -0.06614063 0.9845313
vn 0.144085 0.0008746352 0.9895649
vn -0 -4.736368E-05 1
vn -0.1440849 0.0008746322 0.9895649
vn -0.1956772 -0.195878 0.960907
vn 2.705659E-07 -0.2537196 0.9672779
vn -0.1622456 -0.06614055 0.9845313
vn -0.2762951 -0.003453738 0.9610667
vn -0.2920067 -0.07266358 0.953652
vn -0.5211635 -0.04251904 0.852397
vn -0.5150561 0.01843126 0.8569582
vn -0.3187162 -0.2296535 0.9196082
vn -0.3086506 -0.4322633 0.84728
vn -0.7060008 -0.02471839 0.7077795
vn -0.673243 0.0477921 0.7378752
vn -0.3373844 -0.286068 0.8968483
vn 3.253948E-07 0.2922712 0.9563355
vn -0.4798656 -0.2236377 0.8483603
vn -0.3366376 -0.4085595 0.8483833
vn -0.4023257 0.2445762 0.8822225
vn 2.278325E-07 0.4248224 0.9052767
vn -0.3984797 0.4083248 0.8212702
vn -0.3782852 0.3676334 0.8495564
vn -0.3525566 0.0659994 0.9334602
vn -0.3091607 -0.2273568 0.9234331
vn -0.4081677 -0.2727034 0.8712245
vn -0.3932188 0.03609251 0.9187362
vn -0.409414 0.2622516 0.8738446
vn -0.549657 0.09226337 0.8302799
vn -0.5403249 -0.005398352 0.8414391
vn -0.7039518 -0.2790589 0.6531294
vn -0.8146431 -0.1308967 0.5649979
vn -0.8060569 -0.08866923 0.5851581
vn -0.7777241 -0.1707586 0.6049684
vn -0.9721122 -0.1078626 0.2082392
vn -0.9554211 -0.1606318 0.2477254
vn -0.978526 -0.1561139 0.1345927
vn -0.9479908 -0.1666806 0.2711662
vn -0.9340811 -0.183239 0.306457
vn -0.9749969 -0.1818363 0.1277361
g facial_eye_geo_0
f 3/3/3 2/2/2 1/1/1
f 4/4/4 3/3/3 1/1/1
f 4/4/4 1/1/1 5/5/5
f 4/4/4 6/6/6 3/3/3
f 6/6/6 7/7/7 3/3/3
f 8/8/8 3/3/3 7/7/7
f 8/8/8 7/7/7 9/9/9
f 8/8/8 9/9/9 10/10/10
f 6/6/6 11/11/11 7/7/7
f 9/9/9 7/7/7 11/11/11
f 9/9/9 12/12/12 10/10/10
f 12/12/12 13/13/13 10/10/10
f 12/12/12 14/14/14 13/13/13
f 15/15/15 14/14/14 12/12/12
f 12/12/12 9/9/9 16/16/16
f 16/16/16 15/15/15 12/12/12
f 9/9/9 11/11/11 16/16/16
f 17/17/17 15/15/15 16/16/16
f 11/11/11 18/18/18 16/16/16
f 18/18/18 17/17/17 16/16/16
f 18/18/18 11/11/11 19/19/19
f 6/6/6 19/19/19 11/11/11
f 18/18/18 20/20/20 17/17/17
f 19/19/19 20/20/20 18/18/18
f 20/20/20 21/21/21 17/17/17
f 22/22/22 21/21/21 20/20/20
f 23/23/23 22/22/22 20/20/20
f 23/23/23 20/20/20 19/19/19
f 22/22/22 23/23/23 24/24/24
f 25/25/25 22/22/22 24/24/24
f 26/26/26 25/25/25 24/24/24
f 27/27/27 26/26/26 24/24/24
f 27/27/27 24/24/24 28/28/28
f 24/24/24 23/23/23 28/28/28
f 28/28/28 29/29/29 27/27/27
f 30/30/30 23/23/23 19/19/19
f 28/28/28 23/23/23 30/30/30
f 30/30/30 19/19/19 31/31/31
f 31/31/31 19/19/19 6/6/6
f 28/28/28 30/30/30 31/31/31
f 28/28/28 32/32/32 29/29/29
f 28/28/28 31/31/31 32/32/32
f 6/6/6 33/33/33 31/31/31
f 32/32/32 31/31/31 33/33/33
f 33/33/33 6/6/6 4/4/4
f 29/29/29 32/32/32 34/34/34
f 33/33/33 34/34/34 32/32/32
f 34/34/34 35/35/35 29/29/29
f 36/36/36 35/35/35 34/34/34
f 37/37/37 33/33/33 4/4/4
f 34/34/34 33/33/33 37/37/37
f 37/37/37 4/4/4 5/5/5
f 38/38/38 34/34/34 37/37/37
f 38/38/38 37/37/37 5/5/5
f 38/38/38 36/36/36 34/34/34
f 39/39/39 38/38/38 5/5/5
f 38/38/38 39/39/39 36/36/36
f 39/39/39 40/40/40 36/36/36
f 40/40/40 41/41/41 36/36/36
f 35/35/35 36/36/36 42/42/42
f 35/35/35 42/42/42 43/43/43
f 41/41/41 44/44/44 36/36/36
f 36/36/36 44/44/44 42/42/42
f 44/44/44 41/41/41 45/45/45
f 46/46/46 44/44/44 45/45/45
f 42/42/42 44/44/44 46/46/46
f 47/47/47 46/46/46 45/45/45
f 48/48/48 47/47/47 45/45/45
f 49/49/49 42/42/42 46/46/46
f 49/49/49 46/46/46 47/47/47
f 50/50/50 43/43/43 42/42/42
f 42/42/42 49/49/49 50/50/50
f 51/51/51 47/47/47 48/48/48
f 52/52/52 51/51/51 48/48/48
f 50/50/50 53/53/53 43/43/43
f 43/43/43 53/53/53 54/54/54
f 55/55/55 49/49/49 47/47/47
f 55/55/55 47/47/47 51/51/51
f 56/56/56 50/50/50 49/49/49
f 56/56/56 53/53/53 50/50/50
f 49/49/49 55/55/55 56/56/56
f 57/57/57 54/54/54 53/53/53
f 58/58/58 54/54/54 57/57/57
f 59/59/59 58/58/58 57/57/57
f 60/60/60 59/59/59 57/57/57
f 61/61/61 57/57/57 53/53/53
f 61/61/61 60/60/60 57/57/57
f 62/62/62 53/53/53 56/56/56
f 61/61/61 53/53/53 62/62/62
f 63/63/63 62/62/62 56/56/56
f 61/61/61 62/62/62 63/63/63
f 63/63/63 56/56/56 55/55/55
f 60/60/60 61/61/61 64/64/64
f 64/64/64 61/61/61 63/63/63
f 65/65/65 60/60/60 64/64/64
f 65/65/65 64/64/64 66/66/66
f 64/64/64 63/63/63 67/67/67
f 64/64/64 67/67/67 66/66/66
f 63/63/63 55/55/55 68/68/68
f 68/68/68 67/67/67 63/63/63
f 66/66/66 67/67/67 69/69/69
f 67/67/67 68/68/68 69/69/69
f 70/70/70 66/66/66 69/69/69
f 68/68/68 55/55/55 71/71/71
f 71/71/71 55/55/55 51/51/51
f 51/51/51 72/72/72 71/71/71
f 71/71/71 73/73/73 68/68/68
f 71/71/71 72/72/72 73/73/73
f 68/68/68 73/73/73 69/69/69
f 73/73/73 72/72/72 74/74/74
f 70/70/70 69/69/69 75/75/75
f 73/73/73 75/75/75 69/69/69
f 75/75/75 73/73/73 74/74/74
f 76/76/76 70/70/70 75/75/75
f 77/77/77 75/75/75 74/74/74
f 76/76/76 75/75/75 77/77/77
