g facial_mouth_geo
v 0.08604181 1.308567 0.07336504
v 0.07648021 1.291759 0.09255642
v 0.07749599 1.305107 0.09409668
v 0.08200471 1.290138 0.06741828
v 0.0669419 1.291825 0.1027884
v 0.06876702 1.305613 0.1021804
v 0.07408265 1.274222 0.08538039
v 0.0798304 1.274922 0.05898688
v 0.05309404 1.296854 0.1117975
v 0.0558206 1.307684 0.1103679
v 0.03852058 1.312011 0.1177408
v 0.0639023 1.277593 0.1015995
v 0.06925885 1.261552 0.07474528
v 0.05870178 1.264176 0.09661283
v 0.06169239 1.253477 0.057071
v 0.07449175 1.265808 0.04069159
v 0.06837929 1.257589 0.03392553
v 0.05488028 1.248362 0.04967818
v 0.04678588 1.244482 0.06932846
v 0.04139223 1.240275 0.06194052
v 0.05219213 1.250466 0.08596643
v 0.02889629 1.233467 0.08326899
v 0.02600565 1.231752 0.0748183
v 0.04421912 1.261059 0.1056164
v 0.007414213 1.22349 0.09753191
v 0.003133656 1.222213 0.0886986
v -7.662641E-10 1.220939 0.08992475
v 0.04652436 1.274011 0.1104231
v 0.04978701 1.28607 0.1127063
v 0.0356471 1.291094 0.120744
v 0.03054472 1.281399 0.1210233
v 0.01802186 1.294863 0.1344115
v 0.01945556 1.313508 0.1269715
v 0.02897126 1.269003 0.1179456
v 0.01425528 1.265527 0.1221383
v 0.02922554 1.258146 0.1116251
v 0.03145431 1.248744 0.1049349
v 0.01570339 1.278676 0.1260563
v -7.662641E-10 1.276052 0.1295895
v -7.662641E-10 1.299365 0.1457906
v -7.662641E-10 1.315334 0.1335915
v -0.01945556 1.313508 0.1269715
v -0.01802186 1.294863 0.1344115
v -0.03852058 1.312011 0.1177408
v 0.01330224 1.254283 0.1170654
v 0.02930319 1.238296 0.09506454
v 0.01241757 1.237684 0.1072957
v 0.009103541 1.229538 0.1031808
v -7.662641E-10 1.221616 0.1004135
v -7.662641E-10 1.227453 0.105593
v -7.662641E-10 1.236906 0.1101575
v -7.662641E-10 1.253296 0.1201812
v -0.007414212 1.22349 0.09753191
v -0.003133657 1.222213 0.0886986
v -0.02600565 1.231752 0.0748183
v -0.009103542 1.229538 0.1031808
v -0.02889629 1.233467 0.08326899
v -0.04139223 1.240275 0.06194052
v -0.01241757 1.237684 0.1072957
v -7.662641E-10 1.262498 0.1249231
v -0.01425528 1.265527 0.1221383
v -0.01330224 1.254283 0.1170654
v -0.02930319 1.238434 0.09506454
v -0.04678588 1.244471 0.06932846
v -0.05488029 1.248362 0.04967818
v -0.0314543 1.248806 0.1049349
v -0.05219213 1.250524 0.08596643
v -0.06169239 1.253477 0.057071
v -0.06837929 1.257589 0.03392553
v -0.07449175 1.265808 0.04069159
v -0.07983039 1.274922 0.05898688
v -0.06925885 1.261552 0.07474528
v -0.02922553 1.25815 0.1116251
v -0.07408264 1.274222 0.08538039
v -0.08200472 1.290138 0.06741828
v -0.04421912 1.261102 0.1056164
v -0.05870177 1.264193 0.09661283
v -0.07648022 1.291759 0.09255642
v -0.0860418 1.308567 0.07336504
v -0.07749598 1.305107 0.09409668
v -0.0639023 1.277593 0.1015995
v -0.0669419 1.291825 0.1027884
v -0.06876702 1.305613 0.1021804
v -0.02897126 1.269003 0.1179456
v -0.04652436 1.274024 0.1104231
v -0.05309404 1.296854 0.1117975
v -0.0558206 1.307684 0.1103679
v -0.03054472 1.281399 0.1210233
v -0.04978701 1.28607 0.1127063
v -0.03564709 1.291094 0.120744
v -0.01570338 1.278671 0.1260563
vt 0.355957 0.3664551
vt 0.3320312 0.3527832
vt 0.3342285 0.362793
vt 0.3518066 0.3464355
vt 0.3205566 0.3527832
vt 0.3227539 0.3637695
vt 0.3300781 0.3427734
vt 0.3486328 0.3320312
vt 0.3044434 0.3566895
vt 0.307373 0.3662109
vt 0.2900391 0.371582
vt 0.3181152 0.3425293
vt 0.3249512 0.3254395
vt 0.3122559 0.3283691
vt 0.3166504 0.309082
vt 0.34375 0.3166504
vt 0.3425293 0.3034668
vt 0.3164062 0.2941895
vt 0.2995605 0.3032227
vt 0.2978516 0.2890625
vt 0.3054199 0.3166504
vt 0.2810059 0.2980957
vt 0.2800293 0.2839355
vt 0.2937012 0.324707
vt 0.2561035 0.2797852
vt 0.2548828 0.2709961
vt 0.25 0.2705078
vt 0.2958984 0.3378906
vt 0.3000488 0.3466797
vt 0.2871094 0.3513184
vt 0.28125 0.3417969
vt 0.2683105 0.3564453
vt 0.2702637 0.3740234
vt 0.2790527 0.3322754
vt 0.2636719 0.3276367
vt 0.2785645 0.3205566
vt 0.2810059 0.3132324
vt 0.265625 0.3398438
vt 0.25 0.3378906
vt 0.25 0.3618164
vt 0.25 0.3764648
vt 0.2297363 0.3740234
vt 0.2316895 0.3564453
vt 0.210083 0.371582
vt 0.2626953 0.3168945
vt 0.2810059 0.3083496
vt 0.2619629 0.3061523
vt 0.2597656 0.2944336
vt 0.25 0.279541
vt 0.25 0.2927246
vt 0.25 0.3044434
vt 0.25 0.3161621
vt 0.2440186 0.2797852
vt 0.2451172 0.2709961
vt 0.2198486 0.2839355
vt 0.2403564 0.2944336
vt 0.2188721 0.2980957
vt 0.2020264 0.2890625
vt 0.237915 0.3061523
vt 0.25 0.3242188
vt 0.2363281 0.3276367
vt 0.2373047 0.3168945
vt 0.2189941 0.3083496
vt 0.2004395 0.3032227
vt 0.1835938 0.2941895
vt 0.2189941 0.3132324
vt 0.1947021 0.3166504
vt 0.1832275 0.309082
vt 0.1575928 0.3034668
vt 0.1561279 0.3166504
vt 0.1513672 0.3320312
vt 0.1751709 0.3254395
vt 0.2214355 0.3205566
vt 0.1699219 0.3427734
vt 0.1480713 0.3464355
vt 0.2062988 0.324707
vt 0.1878662 0.3283691
vt 0.1678467 0.3527832
vt 0.144165 0.3664551
vt 0.1657715 0.362793
vt 0.1818848 0.3425293
vt 0.1795654 0.3527832
vt 0.177124 0.3637695
vt 0.2209473 0.3322754
vt 0.2042236 0.3378906
vt 0.1955566 0.3566895
vt 0.192627 0.3662109
vt 0.2186279 0.3417969
vt 0.1999512 0.3466797
vt 0.2128906 0.3513184
vt 0.234375 0.3398438
vn 0.9363104 -0.2408872 0.2555313
vn 0.8827024 -0.2257923 0.4121342
vn 0.8607355 -0.109163 0.4972101
vn 0.9434134 -0.2528474 0.2145682
vn 0.5994951 -0.1196872 0.7913789
vn 0.5788559 -0.03746896 0.8145686
vn 0.8499651 -0.3999209 0.3429615
vn 0.8523855 -0.5103142 0.1140978
vn 0.4869361 -0.01466272 0.8733146
vn 0.4917607 -0.01286936 0.8706353
vn 0.5095739 0.131645 0.8502964
vn 0.6246718 -0.3300997 0.7076859
vn 0.7351021 -0.6561247 0.1706623
vn 0.6120168 -0.5790117 0.5386844
vn 0.6519663 -0.7554172 0.06545735
vn 0.7551761 -0.6474259 0.1027071
vn 0.7173465 -0.6915902 0.08436203
vn 0.5644717 -0.8238522 0.05137294
vn 0.5633813 -0.8223143 0.08000505
vn 0.5414694 -0.8391454 0.05143766
vn 0.5978426 -0.7374547 0.3142368
vn 0.5228834 -0.8383524 0.1541369
vn 0.4961616 -0.8676522 0.03167569
vn 0.505881 -0.5273242 0.6826519
vn 0.4629024 -0.8361477 0.2942417
vn 0.3434926 -0.9389498 -0.01964835
vn -0 -0.9994816 0.03219441
vn 0.470637 -0.3226638 0.821212
vn 0.4992832 -0.2085519 0.8409652
vn 0.5160218 0.03845458 0.8557118
vn 0.4327954 -0.3036246 0.8488228
vn 0.4902089 0.05498305 0.869869
vn 0.5043771 0.2804509 0.8166707
vn 0.3864635 -0.3651087 0.8469602
vn 0.3093112 -0.3858388 0.8691692
vn 0.3826472 -0.46191 0.8001376
vn 0.463415 -0.5619743 0.6851507
vn 0.3117913 -0.401484 0.8611602
vn 2.200661E-05 -0.4676416 0.8839182
vn -2.908098E-07 0.1340304 0.9909772
vn -3.593615E-07 0.4776571 0.8785463
vn -0.5043779 0.2804512 0.8166701
vn -0.4902037 0.05498111 0.8698721
vn -0.5095756 0.1316453 0.8502954
vn 0.3117546 -0.4705303 0.8254758
vn 0.5178849 -0.7284105 0.4485682
vn 0.346295 -0.5201532 0.7807179
vn 0.4890009 -0.6356894 0.5973082
vn -7.17701E-07 -0.8760093 0.4822941
vn -8.284488E-07 -0.607448 0.7943594
vn -0 -0.5028358 0.864382
vn -0 -0.4888014 0.872395
vn -0.4629025 -0.8361472 0.2942431
vn -0.3434925 -0.9389501 -0.01964241
vn -0.4958895 -0.8678152 0.03147059
vn -0.4901945 -0.63507 0.5969887
vn -0.5236827 -0.8372578 0.1573399
vn -0.5412427 -0.8393158 0.05104262
vn -0.3473361 -0.5205489 0.7799913
vn -1.54084E-07 -0.4009808 0.9160866
vn -0.3093305 -0.3858866 0.869141
vn -0.3120701 -0.4707315 0.8252419
vn -0.5188089 -0.7267143 0.4502485
vn -0.563497 -0.8221448 0.08092649
vn -0.5644254 -0.8239053 0.05102964
vn -0.4638267 -0.5631178 0.6839321
vn -0.5970412 -0.7375354 0.3155683
vn -0.6520243 -0.7553819 0.06528791
vn -0.717347 -0.69159 0.08435955
vn -0.7551764 -0.6474257 0.1027071
vn -0.8523854 -0.5103143 0.1140975
vn -0.734866 -0.6563131 0.1709537
vn -0.3833345 -0.4623281 0.799567
vn -0.84991 -0.4000016 0.3430041
vn -0.943413 -0.2528477 0.2145695
vn -0.5057228 -0.5279999 0.6822466
vn -0.6112245 -0.5798037 0.5387322
vn -0.8827017 -0.2257921 0.4121355
vn -0.9363103 -0.2408861 0.2555325
vn -0.8607358 -0.1091629 0.4972095
vn -0.6245332 -0.3302966 0.7077163
vn -0.5994824 -0.1196884 0.7913883
vn -0.5788568 -0.03746881 0.814568
vn -0.3866337 -0.3652222 0.8468336
vn -0.4706466 -0.3230609 0.8210502
vn -0.486936 -0.01466267 0.8733146
vn -0.4917607 -0.01286923 0.8706353
vn -0.432861 -0.3036597 0.8487768
vn -0.4993005 -0.20868 0.8409231
vn -0.5160233 0.03845514 0.8557109
vn -0.3117854 -0.4014678 0.8611698
g facial_mouth_geo_0
f 3/3/3 2/2/2 1/1/1
f 2/2/2 4/4/4 1/1/1
f 2/2/2 3/3/3 5/5/5
f 3/3/3 6/6/6 5/5/5
f 2/2/2 7/7/7 4/4/4
f 8/8/8 4/4/4 7/7/7
f 5/5/5 6/6/6 9/9/9
f 6/6/6 10/10/10 9/9/9
f 11/11/11 9/9/9 10/10/10
f 2/2/2 12/12/12 7/7/7
f 2/2/2 5/5/5 12/12/12
f 8/8/8 7/7/7 13/13/13
f 7/7/7 12/12/12 14/14/14
f 13/13/13 7/7/7 14/14/14
f 8/8/8 13/13/13 15/15/15
f 15/15/15 16/16/16 8/8/8
f 17/17/17 16/16/16 15/15/15
f 18/18/18 17/17/17 15/15/15
f 18/18/18 15/15/15 19/19/19
f 19/19/19 15/15/15 13/13/13
f 20/20/20 18/18/18 19/19/19
f 13/13/13 14/14/14 21/21/21
f 13/13/13 21/21/21 19/19/19
f 20/20/20 19/19/19 22/22/22
f 21/21/21 22/22/22 19/19/19
f 23/23/23 20/20/20 22/22/22
f 24/24/24 14/14/14 12/12/12
f 14/14/14 24/24/24 21/21/21
f 25/25/25 23/23/23 22/22/22
f 25/25/25 26/26/26 23/23/23
f 26/26/26 25/25/25 27/27/27
f 12/12/12 28/28/28 24/24/24
f 28/28/28 12/12/12 5/5/5
f 5/5/5 29/29/29 28/28/28
f 5/5/5 9/9/9 29/29/29
f 30/30/30 29/29/29 9/9/9
f 11/11/11 30/30/30 9/9/9
f 28/28/28 29/29/29 31/31/31
f 29/29/29 30/30/30 31/31/31
f 30/30/30 11/11/11 32/32/32
f 32/32/32 31/31/31 30/30/30
f 11/11/11 33/33/33 32/32/32
f 24/24/24 28/28/28 34/34/34
f 28/28/28 31/31/31 34/34/34
f 35/35/35 34/34/34 31/31/31
f 24/24/24 34/34/34 36/36/36
f 36/36/36 34/34/34 35/35/35
f 24/24/24 36/36/36 37/37/37
f 24/24/24 37/37/37 21/21/21
f 32/32/32 38/38/38 31/31/31
f 31/31/31 38/38/38 35/35/35
f 32/32/32 39/39/39 38/38/38
f 38/38/38 39/39/39 35/35/35
f 40/40/40 32/32/32 33/33/33
f 32/32/32 40/40/40 39/39/39
f 41/41/41 40/40/40 33/33/33
f 40/40/40 41/41/41 42/42/42
f 43/43/43 40/40/40 42/42/42
f 40/40/40 43/43/43 39/39/39
f 42/42/42 44/44/44 43/43/43
f 36/36/36 45/45/45 37/37/37
f 45/45/45 36/36/36 35/35/35
f 21/21/21 37/37/37 46/46/46
f 22/22/22 21/21/21 46/46/46
f 46/46/46 37/37/37 47/47/47
f 45/45/45 47/47/47 37/37/37
f 48/48/48 22/22/22 46/46/46
f 46/46/46 47/47/47 48/48/48
f 25/25/25 22/22/22 48/48/48
f 25/25/25 48/48/48 49/49/49
f 25/25/25 49/49/49 27/27/27
f 47/47/47 50/50/50 48/48/48
f 48/48/48 50/50/50 49/49/49
f 47/47/47 45/45/45 51/51/51
f 47/47/47 51/51/51 50/50/50
f 45/45/45 35/35/35 52/52/52
f 45/45/45 52/52/52 51/51/51
f 49/49/49 53/53/53 27/27/27
f 53/53/53 54/54/54 27/27/27
f 54/54/54 53/53/53 55/55/55
f 50/50/50 56/56/56 49/49/49
f 56/56/56 53/53/53 49/49/49
f 55/55/55 53/53/53 57/57/57
f 57/57/57 53/53/53 56/56/56
f 58/58/58 55/55/55 57/57/57
f 51/51/51 59/59/59 50/50/50
f 50/50/50 59/59/59 56/56/56
f 35/35/35 60/60/60 52/52/52
f 60/60/60 61/61/61 52/52/52
f 60/60/60 35/35/35 39/39/39
f 61/61/61 60/60/60 39/39/39
f 52/52/52 62/62/62 51/51/51
f 62/62/62 59/59/59 51/51/51
f 61/61/61 62/62/62 52/52/52
f 59/59/59 63/63/63 56/56/56
f 57/57/57 56/56/56 63/63/63
f 64/64/64 58/58/58 57/57/57
f 65/65/65 58/58/58 64/64/64
f 59/59/59 62/62/62 66/66/66
f 66/66/66 63/63/63 59/59/59
f 67/67/67 57/57/57 63/63/63
f 57/57/57 67/67/67 64/64/64
f 66/66/66 67/67/67 63/63/63
f 68/68/68 65/65/65 64/64/64
f 69/69/69 65/65/65 68/68/68
f 70/70/70 69/69/69 68/68/68
f 70/70/70 68/68/68 71/71/71
f 68/68/68 64/64/64 72/72/72
f 72/72/72 71/71/71 68/68/68
f 67/67/67 72/72/72 64/64/64
f 62/62/62 73/73/73 66/66/66
f 73/73/73 62/62/62 61/61/61
f 74/74/74 71/71/71 72/72/72
f 75/75/75 71/71/71 74/74/74
f 66/66/66 76/76/76 67/67/67
f 73/73/73 76/76/76 66/66/66
f 77/77/77 72/72/72 67/67/67
f 74/74/74 72/72/72 77/77/77
f 76/76/76 77/77/77 67/67/67
f 74/74/74 78/78/78 75/75/75
f 75/75/75 78/78/78 79/79/79
f 78/78/78 80/80/80 79/79/79
f 81/81/81 74/74/74 77/77/77
f 81/81/81 78/78/78 74/74/74
f 77/77/77 76/76/76 81/81/81
f 80/80/80 78/78/78 82/82/82
f 82/82/82 78/78/78 81/81/81
f 83/83/83 80/80/80 82/82/82
f 84/84/84 76/76/76 73/73/73
f 84/84/84 73/73/73 61/61/61
f 85/85/85 81/81/81 76/76/76
f 85/85/85 76/76/76 84/84/84
f 81/81/81 85/85/85 82/82/82
f 83/83/83 82/82/82 86/86/86
f 87/87/87 83/83/83 86/86/86
f 86/86/86 44/44/44 87/87/87
f 84/84/84 61/61/61 88/88/88
f 88/88/88 85/85/85 84/84/84
f 89/89/89 82/82/82 85/85/85
f 86/86/86 82/82/82 89/89/89
f 89/89/89 85/85/85 88/88/88
f 90/90/90 44/44/44 86/86/86
f 89/89/89 90/90/90 86/86/86
f 90/90/90 89/89/89 88/88/88
f 44/44/44 90/90/90 43/43/43
f 88/88/88 43/43/43 90/90/90
f 91/91/91 88/88/88 61/61/61
f 91/91/91 43/43/43 88/88/88
f 39/39/39 91/91/91 61/61/61
f 39/39/39 43/43/43 91/91/91
