g facial_eye_geo
v -0.08977868 1.328734 0.07711068
v -0.07749598 1.305107 0.09409668
v -0.0860418 1.308567 0.07336504
v -0.08050002 1.326188 0.09199246
v -0.09320626 1.354158 0.07857553
v -0.06876702 1.305613 0.1021804
v -0.08477453 1.351205 0.09392064
v -0.07169506 1.325658 0.09854893
v -0.0591484 1.324934 0.1042299
v -0.0558206 1.307684 0.1103679
v -0.03852058 1.312011 0.1177408
v -0.06541233 1.347766 0.1043378
v -0.09051266 1.377381 0.1012992
v -0.09720066 1.380804 0.07562471
v -0.09079315 1.395717 0.1023796
v -0.07079737 1.377295 0.1162385
v -0.03734203 1.326715 0.1107594
v -0.01902335 1.331623 0.1170905
v -0.01945556 1.313508 0.1269715
v -7.662641E-10 1.315334 0.1335915
v -0.03957915 1.344462 0.1146419
v -0.01848042 1.342352 0.1191555
v -0.04251924 1.358229 0.1186714
v -7.662641E-10 1.331896 0.1274006
v -7.662641E-10 1.347882 0.1291892
v -0.01972031 1.355238 0.1255054
v -0.04700918 1.372409 0.124848
v 0.01902335 1.331623 0.1170905
v 0.01945556 1.313508 0.1269715
v 0.03852058 1.312011 0.1177408
v 0.01848042 1.342352 0.1191555
v 0.03734203 1.326715 0.1107594
v -0.07156383 1.39856 0.1191677
v -0.02214989 1.368251 0.1309235
v -0.06885274 1.420416 0.1207983
v -0.08904912 1.419487 0.1018586
v -0.04636652 1.41874 0.1288864
v -0.04770447 1.395327 0.1285578
v -0.02271722 1.38994 0.1338053
v -7.662641E-10 1.386746 0.1355448
v -0.0214797 1.415628 0.1339243
v -7.662641E-10 1.413285 0.1355218
v 0.0214797 1.415628 0.1339243
v -7.662641E-10 1.365754 0.1332017
v 0.02271723 1.38994 0.1338053
v 0.04636652 1.41874 0.1288864
v 0.02214989 1.368251 0.1309235
v 0.04770447 1.395327 0.1285578
v 0.01972031 1.355238 0.1255054
v 0.07156383 1.39856 0.1191677
v 0.06885273 1.420416 0.1207983
v 0.04700918 1.372409 0.124848
v 0.04251924 1.358229 0.1186714
v 0.09079314 1.395717 0.1023796
v 0.08904912 1.419487 0.1018586
v 0.07079738 1.377295 0.1162385
v 0.03957916 1.344462 0.1146419
v 0.06541232 1.347766 0.1043378
v 0.09051266 1.377381 0.1012992
v 0.09720065 1.380804 0.07562471
v 0.09320626 1.354158 0.07857553
v 0.08477454 1.351205 0.09392064
v 0.0591484 1.324934 0.1042299
v 0.0558206 1.307684 0.1103679
v 0.06876702 1.305613 0.1021804
v 0.07169505 1.325658 0.09854893
v 0.08050002 1.326188 0.09199246
v 0.08977868 1.328734 0.07711068
v 0.07749599 1.305107 0.09409668
v 0.08604181 1.308567 0.07336504
vt 0.1420898 0.3886719
vt 0.1658936 0.362793
vt 0.144165 0.3664551
vt 0.1623535 0.3852539
vt 0.1429443 0.4125977
vt 0.1772461 0.3637695
vt 0.1584473 0.4125977
vt 0.1729736 0.3845215
vt 0.1871338 0.3840332
vt 0.192627 0.3662109
vt 0.210083 0.371582
vt 0.1796875 0.4074707
vt 0.1582031 0.4355469
vt 0.1375732 0.4387207
vt 0.1577148 0.4533691
vt 0.1800537 0.4365234
vt 0.2086182 0.3869629
vt 0.227417 0.392334
vt 0.2297363 0.3740234
vt 0.25 0.3764648
vt 0.2075195 0.4040527
vt 0.2288818 0.4023438
vt 0.2059326 0.4165039
vt 0.25 0.3928223
vt 0.25 0.4089355
vt 0.2293701 0.4157715
vt 0.2034912 0.432373
vt 0.2727051 0.392334
vt 0.2702637 0.3740234
vt 0.2900391 0.371582
vt 0.2712402 0.4023438
vt 0.2915039 0.3869629
vt 0.1787109 0.4562988
vt 0.2282715 0.4289551
vt 0.1804199 0.4777832
vt 0.15979 0.4768066
vt 0.2025146 0.4760742
vt 0.2019043 0.453125
vt 0.2276611 0.4494629
vt 0.25 0.4462891
vt 0.2280273 0.4731445
vt 0.25 0.4707031
vt 0.2719727 0.4731445
vt 0.25 0.4265137
vt 0.2722168 0.4494629
vt 0.2976074 0.4760742
vt 0.2717285 0.4289551
vt 0.2980957 0.453125
vt 0.2705078 0.4157715
vt 0.3212891 0.4562988
vt 0.3195801 0.4777832
vt 0.2966309 0.432373
vt 0.2941895 0.4165039
vt 0.3422852 0.4533691
vt 0.3400879 0.4768066
vt 0.3200684 0.4365234
vt 0.2924805 0.4040527
vt 0.3203125 0.4074707
vt 0.3417969 0.4355469
vt 0.3623047 0.4387207
vt 0.3571777 0.4125977
vt 0.3415527 0.4125977
vt 0.3127441 0.3840332
vt 0.307373 0.3662109
vt 0.3227539 0.3637695
vt 0.3269043 0.3845215
vt 0.3376465 0.3852539
vt 0.3579102 0.3886719
vt 0.3342285 0.362793
vt 0.355957 0.3664551
vn -0.8776043 -0.1555226 0.453457
vn -0.8060566 -0.08866779 0.5851588
vn -0.8930462 -0.1626359 0.4195451
vn -0.8146438 -0.1308952 0.5649972
vn -0.9082108 -0.1910018 0.3723863
vn -0.5496569 0.09226072 0.8302802
vn -0.7039511 -0.2790584 0.6531303
vn -0.5403255 -0.005397781 0.8414387
vn -0.3932186 0.0360913 0.9187364
vn -0.4094123 0.2622425 0.873848
vn -0.3782834 0.3676234 0.8495615
vn -0.4081678 -0.2727035 0.8712243
vn -0.7777245 -0.1707579 0.6049681
vn -0.9662765 -0.09613307 0.2388891
vn -0.7059993 -0.02471777 0.707781
vn -0.4798655 -0.2236379 0.8483603
vn -0.3525566 0.06599819 0.9334603
vn -0.4023264 0.2445734 0.882223
vn -0.3984807 0.4083197 0.8212724
vn 1.470193E-07 0.4248179 0.9052789
vn -0.30916 -0.2273572 0.9234331
vn -0.3373832 -0.286067 0.8968491
vn -0.3366382 -0.4085613 0.8483822
vn 2.04434E-07 0.2922694 0.9563361
vn 1.888128E-07 -0.2537224 0.9672771
vn -0.3086505 -0.4322628 0.8472802
vn -0.3187178 -0.2296548 0.9196073
vn 0.4023277 0.244574 0.8822222
vn 0.3984817 0.4083207 0.8212713
vn 0.3782841 0.367624 0.8495609
vn 0.3373855 -0.2860689 0.8968477
vn 0.3525578 0.06599899 0.9334598
vn -0.5211632 -0.04251868 0.8523973
vn -0.1956774 -0.195878 0.9609069
vn -0.5150563 0.01843167 0.8569582
vn -0.6732395 0.04779234 0.7378784
vn -0.2762963 -0.003453686 0.9610664
vn -0.2920075 -0.07266377 0.9536517
vn -0.1622456 -0.06614093 0.9845313
vn -1.721695E-07 -0.06122641 0.9981239
vn -0.1440846 0.0008742689 0.9895649
vn -2.269161E-07 -4.799034E-05 1
vn 0.1440844 0.0008742872 0.989565
vn -0 -0.1539927 0.988072
vn 0.1622455 -0.06614098 0.9845313
vn 0.2762961 -0.003453621 0.9610664
vn 0.1956773 -0.195878 0.9609069
vn 0.2920072 -0.07266365 0.9536519
vn 0.3086528 -0.4322658 0.8472778
vn 0.5211626 -0.04251875 0.8523976
vn 0.5150557 0.01843146 0.8569586
vn 0.3187172 -0.2296546 0.9196076
vn 0.3366362 -0.4085588 0.8483843
vn 0.7059996 -0.02471786 0.7077807
vn 0.6732388 0.0477919 0.737879
vn 0.4798657 -0.2236378 0.8483601
vn 0.3091589 -0.2273564 0.9234338
vn 0.4081689 -0.2727043 0.8712236
vn 0.7777249 -0.1707577 0.6049676
vn 0.9662766 -0.09613287 0.2388891
vn 0.9082109 -0.1910018 0.372386
vn 0.7039521 -0.2790589 0.653129
vn 0.3932189 0.03609151 0.9187362
vn 0.4094118 0.2622424 0.8738484
vn 0.5496564 0.09226089 0.8302806
vn 0.5403255 -0.0053979 0.8414387
vn 0.8146421 -0.1308948 0.5649999
vn 0.8776029 -0.1555221 0.4534599
vn 0.806055 -0.08866732 0.5851611
vn 0.8930448 -0.1626353 0.4195482
g facial_eye_geo_0
f 3/3/3 2/2/2 1/1/1
f 2/2/2 4/4/4 1/1/1
f 5/5/5 1/1/1 4/4/4
f 2/2/2 6/6/6 4/4/4
f 7/7/7 5/5/5 4/4/4
f 6/6/6 8/8/8 4/4/4
f 8/8/8 7/7/7 4/4/4
f 9/9/9 8/8/8 6/6/6
f 10/10/10 9/9/9 6/6/6
f 10/10/10 11/11/11 9/9/9
f 9/9/9 12/12/12 8/8/8
f 7/7/7 8/8/8 12/12/12
f 13/13/13 5/5/5 7/7/7
f 13/13/13 14/14/14 5/5/5
f 15/15/15 14/14/14 13/13/13
f 7/7/7 16/16/16 13/13/13
f 12/12/12 16/16/16 7/7/7
f 13/13/13 16/16/16 15/15/15
f 11/11/11 17/17/17 9/9/9
f 9/9/9 17/17/17 12/12/12
f 17/17/17 11/11/11 18/18/18
f 11/11/11 19/19/19 18/18/18
f 19/19/19 20/20/20 18/18/18
f 17/17/17 21/21/21 12/12/12
f 17/17/17 18/18/18 22/22/22
f 17/17/17 22/22/22 21/21/21
f 12/12/12 21/21/21 23/23/23
f 12/12/12 23/23/23 16/16/16
f 21/21/21 22/22/22 23/23/23
f 20/20/20 24/24/24 18/18/18
f 18/18/18 24/24/24 22/22/22
f 25/25/25 22/22/22 24/24/24
f 23/23/23 22/22/22 26/26/26
f 26/26/26 22/22/22 25/25/25
f 27/27/27 16/16/16 23/23/23
f 23/23/23 26/26/26 27/27/27
f 24/24/24 20/20/20 28/28/28
f 20/20/20 29/29/29 28/28/28
f 29/29/29 30/30/30 28/28/28
f 24/24/24 28/28/28 31/31/31
f 31/31/31 25/25/25 24/24/24
f 30/30/30 32/32/32 28/28/28
f 28/28/28 32/32/32 31/31/31
f 16/16/16 27/27/27 33/33/33
f 16/16/16 33/33/33 15/15/15
f 34/34/34 27/27/27 26/26/26
f 26/26/26 25/25/25 34/34/34
f 15/15/15 33/33/33 35/35/35
f 36/36/36 15/15/15 35/35/35
f 35/35/35 33/33/33 37/37/37
f 27/27/27 38/38/38 33/33/33
f 33/33/33 38/38/38 37/37/37
f 27/27/27 34/34/34 38/38/38
f 38/38/38 39/39/39 37/37/37
f 34/34/34 39/39/39 38/38/38
f 40/40/40 39/39/39 34/34/34
f 39/39/39 41/41/41 37/37/37
f 41/41/41 39/39/39 40/40/40
f 42/42/42 41/41/41 40/40/40
f 43/43/43 42/42/42 40/40/40
f 44/44/44 34/34/34 25/25/25
f 44/44/44 40/40/40 34/34/34
f 45/45/45 43/43/43 40/40/40
f 43/43/43 45/45/45 46/46/46
f 40/40/40 44/44/44 47/47/47
f 47/47/47 44/44/44 25/25/25
f 45/45/45 40/40/40 47/47/47
f 45/45/45 48/48/48 46/46/46
f 45/45/45 47/47/47 48/48/48
f 25/25/25 49/49/49 47/47/47
f 31/31/31 49/49/49 25/25/25
f 48/48/48 50/50/50 46/46/46
f 50/50/50 51/51/51 46/46/46
f 47/47/47 52/52/52 48/48/48
f 52/52/52 47/47/47 49/49/49
f 48/48/48 52/52/52 50/50/50
f 31/31/31 53/53/53 49/49/49
f 49/49/49 53/53/53 52/52/52
f 50/50/50 54/54/54 51/51/51
f 54/54/54 55/55/55 51/51/51
f 52/52/52 56/56/56 50/50/50
f 50/50/50 56/56/56 54/54/54
f 56/56/56 52/52/52 53/53/53
f 31/31/31 57/57/57 53/53/53
f 31/31/31 32/32/32 57/57/57
f 57/57/57 58/58/58 53/53/53
f 57/57/57 32/32/32 58/58/58
f 53/53/53 58/58/58 56/56/56
f 56/56/56 59/59/59 54/54/54
f 60/60/60 54/54/54 59/59/59
f 60/60/60 59/59/59 61/61/61
f 56/56/56 62/62/62 59/59/59
f 61/61/61 59/59/59 62/62/62
f 56/56/56 58/58/58 62/62/62
f 32/32/32 63/63/63 58/58/58
f 32/32/32 30/30/30 63/63/63
f 30/30/30 64/64/64 63/63/63
f 63/63/63 64/64/64 65/65/65
f 58/58/58 63/63/63 66/66/66
f 66/66/66 62/62/62 58/58/58
f 66/66/66 63/63/63 65/65/65
f 61/61/61 62/62/62 67/67/67
f 62/62/62 66/66/66 67/67/67
f 66/66/66 65/65/65 67/67/67
f 68/68/68 61/61/61 67/67/67
f 65/65/65 69/69/69 67/67/67
f 67/67/67 69/69/69 68/68/68
f 69/69/69 70/70/70 68/68/68
