g head_geo
v -0.1305992 1.418774 -0.01570113
v -0.1235008 1.404011 0.0156954
v -0.1446774 1.424323 -0.005526139
v -0.151191 1.41777 -0.02383935
v -0.1197993 1.390333 -0.02782914
v -0.1503778 1.405492 -0.03108645
v -0.1137698 1.371875 -0.02830095
v -0.1509677 1.410634 -0.01767939
v -0.1515596 1.402246 -0.02393794
v -0.1351069 1.365389 -0.0190859
v -0.138846 1.369558 -0.03035812
v -0.1243702 1.341994 -0.01905051
v -0.1003325 1.340643 -0.005759703
v -0.1161536 1.336452 -0.004716019
v -0.1036338 1.344222 0.01932296
v -0.1161536 1.336452 -0.004716019
v -0.1453141 1.416435 -0.003046856
v -0.1235008 1.404011 0.0156954
v -0.1036338 1.344222 0.01932296
v -0.1137698 1.371875 -0.02830095
v -0.1086969 1.370456 -0.04449022
v -0.1197993 1.390333 -0.02782914
v -0.09246937 1.347074 -0.05036961
v -0.07636225 1.32666 -0.03155937
v -0.06340498 1.336647 -0.06309296
v -0.04198875 1.31098 -0.05994795
v -0.1003325 1.340643 -0.005759703
v -0.07214525 1.307236 0.009162679
v -0.05586808 1.302631 -0.03314269
v -0.05369302 1.291142 -0.005137314
v -0.1036338 1.344222 0.01932296
v -0.06819839 1.300723 0.02341152
v -0.03640794 1.279329 0.01945221
v -0.0587649 1.29161 0.03910728
v -0.07609774 1.307447 0.03087566
v -0.05007579 1.284497 0.05003742
v -0.08781277 1.321515 0.03412403
v -0.102475 1.348356 0.04583724
v -0.08072834 1.31137 0.05097232
v -0.1235008 1.404011 0.0156954
v -0.09174825 1.329715 0.05884242
v -0.1012394 1.360617 0.06839606
v -0.1033668 1.388556 0.06861177
v -0.1144687 1.417707 0.04481827
v -0.1070136 1.42865 0.07289019
v -0.1068644 1.458384 0.07090797
v -0.1216407 1.480466 0.03115449
v -0.1069657 1.490831 0.06646901
v -0.03518885 1.275285 0.06234832
v -0.02270184 1.272088 0.04100757
v -0.0160931 1.268836 0.07447538
v 1.490116E-10 1.268671 0.03887522
v 1.490116E-10 1.266158 0.07822716
v 0.0160931 1.268836 0.07447538
v 0.02270184 1.272088 0.04100757
v 0.03518886 1.275285 0.06234832
v 0.05007579 1.284497 0.05003742
v 0.03640794 1.279329 0.01945221
v 0.05876489 1.29161 0.03910728
v 0.06819839 1.300723 0.02341152
v 0.05369302 1.291142 -0.005137314
v 0.07214525 1.307236 0.009162679
v 0.07609774 1.307447 0.03087566
v 0.05586808 1.302631 -0.03314269
v 0.08781277 1.321515 0.03412403
v 0.08072834 1.31137 0.05097232
v 0.102475 1.348356 0.04583724
v 0.09174825 1.329715 0.05884242
v 0.1012394 1.360617 0.06839606
v 0.1033668 1.388556 0.06861177
v 0.07636225 1.32666 -0.03155937
v 0.04198875 1.31098 -0.05994795
v 0.06340498 1.336647 -0.06309296
v 0.09246937 1.347074 -0.05036961
v 0.1036338 1.344222 0.01932296
v 0.1003325 1.340643 -0.005759703
v 0.1235008 1.404011 0.0156954
v 0.1137698 1.371875 -0.02830095
v 0.1086969 1.370456 -0.04449022
v 0.1197993 1.390333 -0.02782914
v 0.1144687 1.417707 0.04481827
v 0.1070136 1.42865 0.07289019
v 0.1068644 1.458384 0.07090797
v 0.1216407 1.480466 0.03115449
v 0.1069657 1.490831 0.06646901
v -0.1069657 1.490831 0.06646901
v -0.09412854 1.510939 0.079552
v -0.09460839 1.495106 0.08449064
v -0.07616771 1.515454 0.09362473
v -0.07682952 1.496933 0.1002829
v -0.05645623 1.494846 0.1124238
v -0.052404 1.516013 0.10863
v -0.02855004 1.491627 0.1253168
v -0.02636296 1.514109 0.1181254
v 1.490116E-10 1.489814 0.1296129
v 1.490116E-10 1.512907 0.1233224
v 0.02636296 1.514109 0.1181254
v 0.02855004 1.491627 0.1253168
v 0.052404 1.516013 0.10863
v 0.05645623 1.494846 0.1124238
v 0.07616772 1.515454 0.09362473
v 0.07682952 1.496933 0.1002829
v 0.09460839 1.495106 0.08449064
v 0.09412854 1.510939 0.079552
v 0.1069657 1.490831 0.06646901
v 0.1305992 1.418774 -0.01570113
v 0.1446774 1.424323 -0.005526139
v 0.1235008 1.404011 0.0156954
v 0.151191 1.41777 -0.02383935
v 0.1197993 1.390333 -0.02782914
v 0.1503778 1.405492 -0.03108645
v 0.1137698 1.371875 -0.02830095
v 0.1509677 1.410634 -0.01767939
v 0.1515596 1.402246 -0.02393794
v 0.1351069 1.365389 -0.0190859
v 0.1388459 1.369558 -0.03035812
v 0.1243702 1.341994 -0.01905051
v 0.1003325 1.340643 -0.005759703
v 0.1161536 1.336452 -0.004716019
v 0.1036338 1.344222 0.01932296
v 0.1161536 1.336452 -0.004716019
v 0.1453141 1.416435 -0.003046856
v 0.1235008 1.404011 0.0156954
v 0.1036338 1.344222 0.01932296
vt 0.109314 0.2000732
vt 0.145752 0.1934814
vt 0.1103516 0.1777344
vt 0.09899902 0.1905518
vt 0.07879639 0.2166748
vt 0.08996582 0.1932373
vt 0.05789185 0.2105713
vt 0.09472656 0.1854248
vt 0.08886719 0.1889648
vt 0.06512451 0.1828613
vt 0.0680542 0.192627
vt 0.04666138 0.1800537
vt 0.02442932 0.1917725
vt 0.03067017 0.1781006
vt 0.004749298 0.1782227
vt 0.04125977 0.1662598
vt 0.1019897 0.1765137
vt 0.09936523 0.1535645
vt 0.05075073 0.1529541
vt 0.1139526 0.3796387
vt 0.09924316 0.3874512
vt 0.1098022 0.4035645
vt 0.08758545 0.3671875
vt 0.09075928 0.3408203
vt 0.05743408 0.3652344
vt 0.04367065 0.3288574
vt 0.1187744 0.3583984
vt 0.1363525 0.3186035
vt 0.08093262 0.2990723
vt 0.124939 0.2763672
vt 0.1335449 0.3588867
vt 0.1501465 0.3134766
vt 0.1824951 0.2573242
vt 0.1699219 0.2998047
vt 0.1525879 0.328125
vt 0.1833496 0.2939453
vt 0.1494141 0.3391113
vt 0.1479492 0.3601074
vt 0.1633301 0.3310547
vt 0.1217041 0.4035645
vt 0.1627197 0.345459
vt 0.1608887 0.3696289
vt 0.1595459 0.3913574
vt 0.1390381 0.4145508
vt 0.1578369 0.4226074
vt 0.154541 0.4458008
vt 0.1244507 0.4614258
vt 0.1523438 0.4711914
vt 0.2050781 0.2836914
vt 0.2103271 0.260498
vt 0.2327881 0.2722168
vt 0.25 0.2529297
vt 0.25 0.2719727
vt 0.2670898 0.2722168
vt 0.2895508 0.260498
vt 0.2949219 0.2836914
vt 0.3166504 0.2939453
vt 0.3173828 0.2573242
vt 0.3300781 0.2998047
vt 0.3498535 0.3134766
vt 0.375 0.2763672
vt 0.3637695 0.3186035
vt 0.3474121 0.328125
vt 0.4189453 0.2990723
vt 0.3505859 0.3391113
vt 0.3366699 0.3310547
vt 0.3520508 0.3601074
vt 0.3371582 0.345459
vt 0.3391113 0.3696289
vt 0.340332 0.3913574
vt 0.4091797 0.3408203
vt 0.4562988 0.3288574
vt 0.442627 0.3652344
vt 0.4123535 0.3671875
vt 0.3664551 0.3588867
vt 0.3811035 0.3583984
vt 0.3781738 0.4035645
vt 0.3859863 0.3796387
vt 0.4006348 0.3874512
vt 0.3901367 0.4035645
vt 0.3608398 0.4145508
vt 0.3422852 0.4226074
vt 0.345459 0.4458008
vt 0.3754883 0.4614258
vt 0.3476562 0.4711914
vt 0.1379395 0.001912117
vt 0.1461182 0.009315491
vt 0.1470947 0.001912117
vt 0.1563721 0.01210022
vt 0.1586914 0.001912117
vt 0.1722412 0.001912117
vt 0.171875 0.01470184
vt 0.1905518 0.001912117
vt 0.1888428 0.01608276
vt 0.2078857 0.001912117
vt 0.2078857 0.01774597
vt 0.2269287 0.01608276
vt 0.2252197 0.001912117
vt 0.2438965 0.01470184
vt 0.2435303 0.001912117
vt 0.2592773 0.01210022
vt 0.2570801 0.001912117
vt 0.2685547 0.001912117
vt 0.2697754 0.009315491
vt 0.277832 0.001912117
vt 0.3894043 0.2000732
vt 0.3884277 0.1777344
vt 0.3530273 0.1934814
vt 0.3996582 0.1905518
vt 0.4199219 0.2166748
vt 0.4086914 0.1932373
vt 0.440918 0.2105713
vt 0.4040527 0.1854248
vt 0.4099121 0.1889648
vt 0.4335938 0.1828613
vt 0.4306641 0.192627
vt 0.4521484 0.1800537
vt 0.4743652 0.1917725
vt 0.4680176 0.1781006
vt 0.4938965 0.1782227
vt 0.4575195 0.1662598
vt 0.3967285 0.1765137
vt 0.3994141 0.1535645
vt 0.447998 0.1529541
vn 0.4161746 0.7893732 -0.4513189
vn -0.6687918 -0.1123044 0.7349185
vn -0.07889947 0.9576862 0.276789
vn -0.2173269 0.6885516 -0.6918567
vn 0.1334241 0.09298939 -0.9866869
vn -0.3385173 0.08950478 -0.9366935
vn 0.1699528 -0.1521908 -0.9736293
vn -0.9005977 -0.2016065 0.3850695
vn -0.945407 -0.297811 0.1323408
vn -0.8783143 -0.3432819 0.3327482
vn -0.3181355 -0.2268617 -0.9205018
vn -0.06680633 -0.6531561 -0.7542705
vn 0.4045294 -0.7726705 -0.48922
vn -0.7358105 -0.5061065 0.4499323
vn -0.7634325 -0.3512731 0.5420129
vn -0.7358105 -0.5061065 0.4499323
vn -0.8178512 -0.1741777 0.5484355
vn -0.6687918 -0.1123044 0.7349185
vn -0.7634325 -0.3512731 0.5420129
vn -0.8097214 -0.5327636 -0.2459961
vn -0.8507951 -0.4749188 -0.2249439
vn -0.9192417 -0.2935862 -0.2623011
vn -0.7003151 -0.693064 -0.1709417
vn -0.6873189 -0.6392437 -0.3449061
vn -0.6219591 -0.621288 -0.4766216
vn -0.6612806 -0.5728913 -0.4842556
vn -0.7415951 -0.6349387 -0.2165395
vn -0.7390321 -0.6566802 -0.1503419
vn -0.6988546 -0.600254 -0.3889695
vn -0.6630871 -0.7392281 -0.1177169
vn -0.8997198 -0.4193631 0.1209915
vn -0.6138156 -0.7853507 -0.08034023
vn -0.4864354 -0.8712053 -0.06619592
vn -0.5069793 -0.8574067 -0.08846387
vn -0.7677232 -0.631337 -0.1096117
vn -0.4682776 -0.880589 -0.07265659
vn -0.7999077 -0.5996606 -0.02355303
vn -0.9386694 -0.2656997 0.2197806
vn -0.839753 -0.5428476 0.01146865
vn -0.9434137 -0.2239533 0.2445721
vn -0.8857339 -0.4583152 0.0736387
vn -0.9775414 -0.1580262 0.1394297
vn -0.9577397 -0.1468708 0.2473131
vn -0.9506884 -0.1508529 0.2709889
vn -0.9617742 -0.0398036 0.2709357
vn -0.9433424 -0.009619739 0.3316815
vn -0.938843 -0.008509968 0.3442402
vn -0.927285 0.04789864 0.3712794
vn -0.368331 -0.9265229 -0.0767315
vn -0.2816771 -0.9545385 -0.09754094
vn -0.1737612 -0.9829639 -0.059909
vn -0 -0.9963666 -0.08516825
vn -0 -0.9978836 -0.06502465
vn 0.1737612 -0.9829638 -0.05991045
vn 0.2816772 -0.9545383 -0.09754223
vn 0.368331 -0.926523 -0.07673007
vn 0.4682777 -0.8805888 -0.07265861
vn 0.4864354 -0.8712053 -0.06619723
vn 0.5069793 -0.8574065 -0.08846539
vn 0.6138155 -0.7853509 -0.08033989
vn 0.6630871 -0.7392281 -0.1177168
vn 0.7390321 -0.6566802 -0.1503419
vn 0.7677236 -0.631337 -0.1096093
vn 0.6988542 -0.6002538 -0.3889704
vn 0.7999077 -0.5996606 -0.02355276
vn 0.839753 -0.5428474 0.01146996
vn 0.9386693 -0.2656997 0.2197806
vn 0.8857339 -0.4583152 0.07363789
vn 0.9775415 -0.1580262 0.1394288
vn 0.9577397 -0.1468708 0.247313
vn 0.6873188 -0.6392436 -0.3449064
vn 0.66128 -0.5728911 -0.4842567
vn 0.621959 -0.621288 -0.4766218
vn 0.7003152 -0.6930642 -0.1709408
vn 0.8997198 -0.4193631 0.1209918
vn 0.741595 -0.6349388 -0.2165397
vn 0.9434136 -0.2239532 0.2445727
vn 0.8097214 -0.5327636 -0.2459961
vn 0.8507951 -0.4749188 -0.2249439
vn 0.9192417 -0.2935862 -0.2623011
vn 0.9506884 -0.1508528 0.2709892
vn 0.9617742 -0.03980359 0.2709357
vn 0.9433424 -0.009619718 0.3316813
vn 0.9388431 -0.00850994 0.3442401
vn 0.9272853 0.04789872 0.3712787
vn -0.8302248 0.188761 0.524496
vn -0.6880338 0.2495854 0.6814079
vn -0.7035298 0.2441309 0.6674175
vn -0.5683036 0.2711324 0.7768644
vn -0.5570001 0.2720084 0.7847052
vn -0.4141018 0.2763955 0.8672516
vn -0.4114364 0.2763773 0.8685249
vn -0.2432944 0.2829151 0.9277753
vn -0.2513356 0.2824365 0.9257755
vn -0 0.290258 0.9569484
vn 1.037702E-07 0.290258 0.9569484
vn 0.2513357 0.2824365 0.9257753
vn 0.2432946 0.2829153 0.9277751
vn 0.4114365 0.2763772 0.8685249
vn 0.4141018 0.2763955 0.8672516
vn 0.5683043 0.2711327 0.7768638
vn 0.5570006 0.2720087 0.7847047
vn 0.7035311 0.2441312 0.6674159
vn 0.6880352 0.2495859 0.6814062
vn 0.8302247 0.1887605 0.5244962
vn -0.4161744 0.7893727 -0.4513197
vn 0.07889991 0.9576865 0.2767874
vn 0.6687918 -0.1123044 0.7349185
vn 0.2173281 0.6885487 -0.6918592
vn -0.1334241 0.09298947 -0.9866869
vn 0.3385192 0.08950205 -0.9366931
vn -0.1699526 -0.1521908 -0.9736293
vn 0.9005979 -0.2016067 0.3850691
vn 0.945407 -0.2978114 0.1323405
vn 0.8783151 -0.3432819 0.3327463
vn 0.3181362 -0.2268624 -0.9205015
vn 0.06680714 -0.6531546 -0.7542717
vn -0.4045288 -0.7726701 -0.489221
vn 0.7358102 -0.5061064 0.449933
vn 0.763432 -0.3512729 0.5420138
vn 0.7358102 -0.5061064 0.449933
vn 0.8178512 -0.1741777 0.5484354
vn 0.6687918 -0.1123044 0.7349185
vn 0.763432 -0.3512729 0.5420138
g head_geo_0
f 3/3/3 2/2/2 1/1/1
f 1/1/1 4/4/4 3/3/3
f 5/5/5 4/4/4 1/1/1
f 6/6/6 4/4/4 5/5/5
f 6/6/6 5/5/5 7/7/7
f 4/4/4 8/8/8 3/3/3
f 6/6/6 9/9/9 4/4/4
f 9/9/9 8/8/8 4/4/4
f 10/10/10 9/9/9 6/6/6
f 8/8/8 9/9/9 10/10/10
f 11/11/11 6/6/6 7/7/7
f 11/11/11 10/10/10 6/6/6
f 12/12/12 11/11/11 7/7/7
f 10/10/10 11/11/11 12/12/12
f 12/12/12 7/7/7 13/13/13
f 14/14/14 12/12/12 13/13/13
f 13/13/13 15/15/15 14/14/14
f 16/16/16 10/10/10 12/12/12
f 10/10/10 16/16/16 8/8/8
f 8/8/8 17/17/17 3/3/3
f 17/17/17 8/8/8 16/16/16
f 17/17/17 18/18/18 3/3/3
f 19/19/19 17/17/17 16/16/16
f 19/19/19 18/18/18 17/17/17
f 22/22/22 21/21/21 20/20/20
f 20/20/20 21/21/21 23/23/23
f 24/24/24 20/20/20 23/23/23
f 24/24/24 23/23/23 25/25/25
f 25/25/25 26/26/26 24/24/24
f 27/27/27 20/20/20 24/24/24
f 27/27/27 24/24/24 28/28/28
f 26/26/26 29/29/29 24/24/24
f 24/24/24 29/29/29 28/28/28
f 29/29/29 30/30/30 28/28/28
f 31/31/31 27/27/27 28/28/28
f 30/30/30 32/32/32 28/28/28
f 33/33/33 32/32/32 30/30/30
f 34/34/34 32/32/32 33/33/33
f 32/32/32 35/35/35 28/28/28
f 36/36/36 34/34/34 33/33/33
f 35/35/35 37/37/37 28/28/28
f 37/37/37 31/31/31 28/28/28
f 31/31/31 37/37/37 38/38/38
f 35/35/35 39/39/39 37/37/37
f 37/37/37 39/39/39 38/38/38
f 40/40/40 31/31/31 38/38/38
f 41/41/41 38/38/38 39/39/39
f 41/41/41 42/42/42 38/38/38
f 42/42/42 43/43/43 38/38/38
f 44/44/44 40/40/40 38/38/38
f 38/38/38 43/43/43 44/44/44
f 43/43/43 45/45/45 44/44/44
f 45/45/45 46/46/46 44/44/44
f 46/46/46 47/47/47 44/44/44
f 48/48/48 47/47/47 46/46/46
f 50/50/50 49/49/49 36/36/36
f 50/50/50 36/36/36 33/33/33
f 51/51/51 49/49/49 50/50/50
f 52/52/52 50/50/50 33/33/33
f 51/51/51 50/50/50 52/52/52
f 53/53/53 51/51/51 52/52/52
f 54/54/54 53/53/53 52/52/52
f 55/55/55 54/54/54 52/52/52
f 56/56/56 54/54/54 55/55/55
f 56/56/56 55/55/55 57/57/57
f 55/55/55 52/52/52 58/58/58
f 57/57/57 55/55/55 58/58/58
f 59/59/59 57/57/57 58/58/58
f 60/60/60 59/59/59 58/58/58
f 60/60/60 58/58/58 61/61/61
f 60/60/60 61/61/61 62/62/62
f 63/63/63 60/60/60 62/62/62
f 61/61/61 64/64/64 62/62/62
f 65/65/65 63/63/63 62/62/62
f 66/66/66 63/63/63 65/65/65
f 66/66/66 65/65/65 67/67/67
f 67/67/67 68/68/68 66/66/66
f 69/69/69 68/68/68 67/67/67
f 70/70/70 69/69/69 67/67/67
f 64/64/64 71/71/71 62/62/62
f 64/64/64 72/72/72 71/71/71
f 72/72/72 73/73/73 71/71/71
f 74/74/74 71/71/71 73/73/73
f 75/75/75 65/65/65 62/62/62
f 65/65/65 75/75/75 67/67/67
f 76/76/76 75/75/75 62/62/62
f 71/71/71 76/76/76 62/62/62
f 75/75/75 77/77/77 67/67/67
f 78/78/78 76/76/76 71/71/71
f 78/78/78 71/71/71 74/74/74
f 79/79/79 78/78/78 74/74/74
f 79/79/79 80/80/80 78/78/78
f 77/77/77 81/81/81 67/67/67
f 70/70/70 67/67/67 81/81/81
f 82/82/82 70/70/70 81/81/81
f 83/83/83 82/82/82 81/81/81
f 84/84/84 83/83/83 81/81/81
f 84/84/84 85/85/85 83/83/83
f 88/88/88 87/87/87 86/86/86
f 89/89/89 87/87/87 88/88/88
f 90/90/90 89/89/89 88/88/88
f 89/89/89 90/90/90 91/91/91
f 92/92/92 89/89/89 91/91/91
f 91/91/91 93/93/93 92/92/92
f 93/93/93 94/94/94 92/92/92
f 93/93/93 95/95/95 94/94/94
f 95/95/95 96/96/96 94/94/94
f 96/96/96 95/95/95 97/97/97
f 95/95/95 98/98/98 97/97/97
f 97/97/97 98/98/98 99/99/99
f 98/98/98 100/100/100 99/99/99
f 101/101/101 99/99/99 100/100/100
f 102/102/102 101/101/101 100/100/100
f 101/101/101 102/102/102 103/103/103
f 104/104/104 101/101/101 103/103/103
f 104/104/104 103/103/103 105/105/105
f 108/108/108 107/107/107 106/106/106
f 109/109/109 106/106/106 107/107/107
f 109/109/109 110/110/110 106/106/106
f 109/109/109 111/111/111 110/110/110
f 110/110/110 111/111/111 112/112/112
f 113/113/113 109/109/109 107/107/107
f 114/114/114 111/111/111 109/109/109
f 113/113/113 114/114/114 109/109/109
f 114/114/114 115/115/115 111/111/111
f 114/114/114 113/113/113 115/115/115
f 111/111/111 116/116/116 112/112/112
f 115/115/115 116/116/116 111/111/111
f 116/116/116 117/117/117 112/112/112
f 116/116/116 115/115/115 117/117/117
f 112/112/112 117/117/117 118/118/118
f 117/117/117 119/119/119 118/118/118
f 120/120/120 118/118/118 119/119/119
f 115/115/115 121/121/121 117/117/117
f 121/121/121 115/115/115 113/113/113
f 122/122/122 113/113/113 107/107/107
f 113/113/113 122/122/122 121/121/121
f 123/123/123 122/122/122 107/107/107
f 122/122/122 124/124/124 121/121/121
f 123/123/123 124/124/124 122/122/122
