g facial_mouth_geo
v 0.08412731 1.160408 0.05690076
v 0.07478373 1.143984 0.07565454
v 0.07577635 1.157027 0.07715967
v 0.08018226 1.1424 0.0510896
v 0.06546291 1.144048 0.08565319
v 0.06724641 1.157522 0.08505909
v 0.07244084 1.126847 0.06864213
v 0.07805753 1.12753 0.04285044
v 0.05193081 1.148963 0.0944569
v 0.05459521 1.159545 0.09305991
v 0.03768965 1.163774 0.1002646
v 0.06249263 1.13014 0.08449145
v 0.06772703 1.114466 0.05824953
v 0.05741069 1.11703 0.07961845
v 0.06033311 1.106574 0.04097826
v 0.07284062 1.118624 0.02497233
v 0.06686752 1.110593 0.01836055
v 0.05367633 1.101577 0.03375401
v 0.04576649 1.098882 0.05295621
v 0.04081936 1.095713 0.04573674
v 0.05104946 1.104104 0.06921481
v 0.02828481 1.090039 0.06657888
v 0.02745842 1.091321 0.05832088
v 0.04325826 1.114308 0.08841669
v 0.007750849 1.082209 0.08051658
v 0.004904717 1.08314 0.07188468
v 3.852271E-06 1.08172 0.07308288
v 0.04551094 1.12664 0.09311382
v 0.04869919 1.138424 0.09534496
v 0.03488169 1.143334 0.1031993
v 0.02989566 1.13386 0.1034723
v 0.01765834 1.147017 0.1165553
v 0.01905935 1.165237 0.1092848
v 0.02835808 1.121747 0.1004648
v 0.01397764 1.11835 0.1045619
v 0.02860655 1.111749 0.09428845
v 0.0307845 1.103964 0.08775078
v 0.01539273 1.131199 0.1083905
v -5.950932E-15 1.12903 0.1118432
v -5.950932E-15 1.151416 0.1276749
v -5.950932E-15 1.167021 0.1157539
v -0.01905935 1.165237 0.1092848
v -0.01765834 1.147017 0.1165553
v -0.03768965 1.163774 0.1002646
v 0.01304634 1.107507 0.0996047
v 0.02868244 1.094756 0.07810545
v 0.01218184 1.09461 0.09005772
v 0.008943375 1.086742 0.08603668
v -5.950932E-15 1.080891 0.08333242
v -5.950932E-15 1.083988 0.08839382
v -5.950932E-15 1.092931 0.09285427
v -5.950932E-15 1.107972 0.1026494
v -0.007750848 1.082209 0.08051658
v -0.004904718 1.083139 0.07188468
v -0.02745842 1.091321 0.05832088
v -0.008943376 1.086742 0.08603668
v -0.02828481 1.090039 0.06657888
v -0.04081936 1.095713 0.04573674
v -0.01218184 1.09461 0.09005772
v -5.950932E-15 1.116446 0.1072832
v -0.01397764 1.11835 0.1045619
v -0.01304634 1.107507 0.0996047
v -0.02868244 1.094756 0.07810545
v -0.04576649 1.098882 0.05295621
v -0.05367633 1.101577 0.03375401
v -0.0307845 1.103964 0.08775078
v -0.05104946 1.104104 0.06921481
v -0.0603331 1.106574 0.04097826
v -0.06686752 1.110593 0.01836055
v -0.07284062 1.118624 0.02497233
v -0.07805753 1.12753 0.04285044
v -0.06772702 1.114466 0.05824953
v -0.02860655 1.111749 0.09428845
v -0.07244084 1.126847 0.06864213
v -0.08018226 1.1424 0.0510896
v -0.04325826 1.114308 0.08841669
v -0.05741069 1.11703 0.07961845
v -0.07478373 1.143984 0.07565454
v -0.08412731 1.160408 0.05690076
v -0.07577635 1.157027 0.07715967
v -0.06249262 1.13014 0.08449145
v -0.06546291 1.144048 0.08565319
v -0.06724641 1.157522 0.08505909
v -0.02835808 1.121747 0.1004648
v -0.04551094 1.12664 0.09311382
v -0.05193081 1.148963 0.0944569
v -0.0545952 1.159545 0.09305991
v -0.02989566 1.13386 0.1034723
v -0.0486992 1.138424 0.09534496
v -0.03488169 1.143334 0.1031993
v -0.01539273 1.131199 0.1083905
vt 0.355957 0.3664551
vt 0.3320312 0.3527832
vt 0.3342285 0.362793
vt 0.3518066 0.3464355
vt 0.3205566 0.3527832
vt 0.3227539 0.3637695
vt 0.3300781 0.3427734
vt 0.3486328 0.3320312
vt 0.3044434 0.3566895
vt 0.307373 0.3662109
vt 0.2900391 0.371582
vt 0.3181152 0.3425293
vt 0.3249512 0.3254395
vt 0.3122559 0.3283691
vt 0.3166504 0.309082
vt 0.34375 0.3166504
vt 0.3425293 0.3034668
vt 0.3164062 0.2941895
vt 0.2995605 0.3032227
vt 0.2978516 0.2890625
vt 0.3054199 0.3166504
vt 0.2810059 0.2980957
vt 0.2800293 0.2839355
vt 0.2937012 0.324707
vt 0.2561035 0.2797852
vt 0.2548828 0.2709961
vt 0.25 0.2705078
vt 0.2958984 0.3378906
vt 0.3000488 0.3466797
vt 0.2871094 0.3513184
vt 0.28125 0.3417969
vt 0.2683105 0.3564453
vt 0.2702637 0.3740234
vt 0.2790527 0.3322754
vt 0.2636719 0.3276367
vt 0.2785645 0.3205566
vt 0.2810059 0.3132324
vt 0.265625 0.3398438
vt 0.25 0.3378906
vt 0.25 0.3618164
vt 0.25 0.3764648
vt 0.2297363 0.3740234
vt 0.2316895 0.3564453
vt 0.210083 0.371582
vt 0.2626953 0.3168945
vt 0.2810059 0.3083496
vt 0.2619629 0.3061523
vt 0.2597656 0.2944336
vt 0.25 0.279541
vt 0.25 0.2927246
vt 0.25 0.3044434
vt 0.25 0.3161621
vt 0.2440186 0.2797852
vt 0.2451172 0.2709961
vt 0.2198486 0.2839355
vt 0.2403564 0.2944336
vt 0.2188721 0.2980957
vt 0.2020264 0.2890625
vt 0.237915 0.3061523
vt 0.25 0.3242188
vt 0.2363281 0.3276367
vt 0.2373047 0.3168945
vt 0.2189941 0.3083496
vt 0.2004395 0.3032227
vt 0.1835938 0.2941895
vt 0.2189941 0.3132324
vt 0.1947021 0.3166504
vt 0.1832275 0.309082
vt 0.1575928 0.3034668
vt 0.1561279 0.3166504
vt 0.1513672 0.3320312
vt 0.1751709 0.3254395
vt 0.2214355 0.3205566
vt 0.1699219 0.3427734
vt 0.1480713 0.3464355
vt 0.2062988 0.324707
vt 0.1878662 0.3283691
vt 0.1678467 0.3527832
vt 0.144165 0.3664551
vt 0.1657715 0.362793
vt 0.1818848 0.3425293
vt 0.1795654 0.3527832
vt 0.177124 0.3637695
vt 0.2209473 0.3322754
vt 0.2042236 0.3378906
vt 0.1955566 0.3566895
vt 0.192627 0.3662109
vt 0.2186279 0.3417969
vt 0.1999512 0.3466797
vt 0.2128906 0.3513184
vt 0.234375 0.3398438
vn 0.9363098 -0.2408877 0.2555332
vn 0.8827009 -0.2257918 0.4121374
vn 0.8607359 -0.1091639 0.4972092
vn 0.943413 -0.252847 0.2145703
vn 0.5994952 -0.1196874 0.7913788
vn 0.5788596 -0.03746944 0.8145659
vn 0.8499649 -0.39992 0.3429631
vn 0.8523861 -0.5103136 0.1140965
vn 0.4869363 -0.01466253 0.8733144
vn 0.4917596 -0.01286936 0.8706359
vn 0.5095741 0.1316453 0.8502964
vn 0.6242726 -0.3308167 0.7077034
vn 0.7285772 -0.6633365 0.1707631
vn 0.604794 -0.5858011 0.5395009
vn 0.6350635 -0.7687578 0.07553511
vn 0.7551767 -0.6474251 0.1027083
vn 0.7173464 -0.6915898 0.08436733
vn 0.5301883 -0.8454668 0.06392378
vn 0.4964794 -0.8648577 0.07435991
vn 0.4456035 -0.894551 0.03486995
vn 0.5626501 -0.767768 0.3065247
vn 0.4222485 -0.8996048 0.1114338
vn 0.3460305 -0.936236 -0.06103338
vn 0.4867377 -0.5510026 0.6778515
vn 0.3754629 -0.9113024 0.1689836
vn 0.2174188 -0.9627141 -0.1609675
vn 8.161288E-05 -0.9928785 -0.119131
vn 0.470824 -0.3263277 0.8196554
vn 0.49928 -0.2085494 0.8409677
vn 0.5160232 0.03845469 0.855711
vn 0.4327966 -0.3036261 0.8488217
vn 0.4889123 0.05560854 0.8705587
vn 0.5039336 0.2807188 0.8168523
vn 0.3881552 -0.3718069 0.8432646
vn 0.2994857 -0.3963629 0.8678737
vn 0.3837818 -0.5056264 0.7726924
vn 0.4399873 -0.6195129 0.6500884
vn 0.3064196 -0.4010012 0.8633105
vn -0 -0.4747299 0.8801316
vn -0 0.1353198 0.990802
vn -0 0.4777016 0.8785221
vn -0.5039336 0.2807189 0.8168525
vn -0.4889123 0.05560864 0.8705587
vn -0.5095742 0.1316453 0.8502962
vn 0.3014635 -0.5157225 0.8019664
vn 0.4741645 -0.7587344 0.4466431
vn 0.3396828 -0.5677592 0.7498434
vn 0.467992 -0.6792598 0.5653224
vn -1.185865E-05 -0.9608898 0.2769313
vn -4.283326E-07 -0.6861849 0.7274272
vn -8.007021E-07 -0.5465186 0.8374469
vn -6.19939E-07 -0.5206094 0.8537949
vn -0.3754185 -0.911323 0.1689713
vn -0.2174115 -0.9627292 -0.1608874
vn -0.3460363 -0.9362341 -0.06103007
vn -0.467991 -0.6792588 0.5653245
vn -0.4222487 -0.8996054 0.1114278
vn -0.4456036 -0.894551 0.03487077
vn -0.3396829 -0.5677584 0.7498438
vn -0 -0.4113108 0.9114951
vn -0.2994846 -0.3963625 0.8678743
vn -0.3014635 -0.5157223 0.8019665
vn -0.4741653 -0.7587353 0.4466406
vn -0.4964795 -0.8648576 0.07436015
vn -0.5301884 -0.8454664 0.06392726
vn -0.4399873 -0.6195129 0.6500884
vn -0.56265 -0.7677677 0.3065253
vn -0.6350637 -0.768758 0.07553338
vn -0.7173464 -0.6915901 0.08436468
vn -0.7551764 -0.6474254 0.1027083
vn -0.8523861 -0.5103136 0.1140962
vn -0.7285774 -0.6633368 0.170761
vn -0.3837813 -0.505627 0.7726922
vn -0.8499649 -0.3999197 0.3429633
vn -0.943413 -0.252847 0.2145706
vn -0.4867379 -0.5510028 0.6778511
vn -0.6047947 -0.5858021 0.539499
vn -0.882701 -0.2257917 0.4121372
vn -0.9363093 -0.2408881 0.2555342
vn -0.8607344 -0.1091647 0.4972117
vn -0.6242735 -0.330817 0.7077024
vn -0.5994936 -0.1196871 0.79138
vn -0.5788568 -0.03746938 0.8145679
vn -0.3881557 -0.3718082 0.8432638
vn -0.4708234 -0.3263276 0.8196558
vn -0.486935 -0.0146623 0.8733151
vn -0.4917594 -0.01286927 0.870636
vn -0.4327962 -0.3036259 0.848822
vn -0.4992764 -0.2085481 0.8409702
vn -0.5160227 0.03845469 0.8557113
vn -0.3064186 -0.4010004 0.8633112
g facial_mouth_geo_0
f 3/3/3 2/2/2 1/1/1
f 2/2/2 4/4/4 1/1/1
f 2/2/2 3/3/3 5/5/5
f 3/3/3 6/6/6 5/5/5
f 2/2/2 7/7/7 4/4/4
f 8/8/8 4/4/4 7/7/7
f 5/5/5 6/6/6 9/9/9
f 6/6/6 10/10/10 9/9/9
f 11/11/11 9/9/9 10/10/10
f 2/2/2 12/12/12 7/7/7
f 2/2/2 5/5/5 12/12/12
f 8/8/8 7/7/7 13/13/13
f 7/7/7 12/12/12 14/14/14
f 13/13/13 7/7/7 14/14/14
f 8/8/8 13/13/13 15/15/15
f 15/15/15 16/16/16 8/8/8
f 17/17/17 16/16/16 15/15/15
f 18/18/18 17/17/17 15/15/15
f 18/18/18 15/15/15 19/19/19
f 19/19/19 15/15/15 13/13/13
f 20/20/20 18/18/18 19/19/19
f 13/13/13 14/14/14 21/21/21
f 13/13/13 21/21/21 19/19/19
f 20/20/20 19/19/19 22/22/22
f 21/21/21 22/22/22 19/19/19
f 23/23/23 20/20/20 22/22/22
f 24/24/24 14/14/14 12/12/12
f 14/14/14 24/24/24 21/21/21
f 25/25/25 23/23/23 22/22/22
f 25/25/25 26/26/26 23/23/23
f 26/26/26 25/25/25 27/27/27
f 12/12/12 28/28/28 24/24/24
f 28/28/28 12/12/12 5/5/5
f 5/5/5 29/29/29 28/28/28
f 5/5/5 9/9/9 29/29/29
f 30/30/30 29/29/29 9/9/9
f 11/11/11 30/30/30 9/9/9
f 28/28/28 29/29/29 31/31/31
f 29/29/29 30/30/30 31/31/31
f 30/30/30 11/11/11 32/32/32
f 32/32/32 31/31/31 30/30/30
f 11/11/11 33/33/33 32/32/32
f 24/24/24 28/28/28 34/34/34
f 28/28/28 31/31/31 34/34/34
f 35/35/35 34/34/34 31/31/31
f 24/24/24 34/34/34 36/36/36
f 36/36/36 34/34/34 35/35/35
f 24/24/24 36/36/36 37/37/37
f 24/24/24 37/37/37 21/21/21
f 32/32/32 38/38/38 31/31/31
f 31/31/31 38/38/38 35/35/35
f 32/32/32 39/39/39 38/38/38
f 38/38/38 39/39/39 35/35/35
f 40/40/40 32/32/32 33/33/33
f 32/32/32 40/40/40 39/39/39
f 41/41/41 40/40/40 33/33/33
f 40/40/40 41/41/41 42/42/42
f 43/43/43 40/40/40 42/42/42
f 40/40/40 43/43/43 39/39/39
f 42/42/42 44/44/44 43/43/43
f 36/36/36 45/45/45 37/37/37
f 45/45/45 36/36/36 35/35/35
f 21/21/21 37/37/37 46/46/46
f 22/22/22 21/21/21 46/46/46
f 46/46/46 37/37/37 47/47/47
f 45/45/45 47/47/47 37/37/37
f 48/48/48 22/22/22 46/46/46
f 46/46/46 47/47/47 48/48/48
f 25/25/25 22/22/22 48/48/48
f 25/25/25 48/48/48 49/49/49
f 25/25/25 49/49/49 27/27/27
f 47/47/47 50/50/50 48/48/48
f 48/48/48 50/50/50 49/49/49
f 47/47/47 45/45/45 51/51/51
f 47/47/47 51/51/51 50/50/50
f 45/45/45 35/35/35 52/52/52
f 45/45/45 52/52/52 51/51/51
f 49/49/49 53/53/53 27/27/27
f 53/53/53 54/54/54 27/27/27
f 54/54/54 53/53/53 55/55/55
f 50/50/50 56/56/56 49/49/49
f 56/56/56 53/53/53 49/49/49
f 55/55/55 53/53/53 57/57/57
f 57/57/57 53/53/53 56/56/56
f 58/58/58 55/55/55 57/57/57
f 51/51/51 59/59/59 50/50/50
f 50/50/50 59/59/59 56/56/56
f 35/35/35 60/60/60 52/52/52
f 60/60/60 61/61/61 52/52/52
f 60/60/60 35/35/35 39/39/39
f 61/61/61 60/60/60 39/39/39
f 52/52/52 62/62/62 51/51/51
f 62/62/62 59/59/59 51/51/51
f 61/61/61 62/62/62 52/52/52
f 59/59/59 63/63/63 56/56/56
f 57/57/57 56/56/56 63/63/63
f 64/64/64 58/58/58 57/57/57
f 65/65/65 58/58/58 64/64/64
f 59/59/59 62/62/62 66/66/66
f 66/66/66 63/63/63 59/59/59
f 67/67/67 57/57/57 63/63/63
f 57/57/57 67/67/67 64/64/64
f 66/66/66 67/67/67 63/63/63
f 68/68/68 65/65/65 64/64/64
f 69/69/69 65/65/65 68/68/68
f 70/70/70 69/69/69 68/68/68
f 70/70/70 68/68/68 71/71/71
f 68/68/68 64/64/64 72/72/72
f 72/72/72 71/71/71 68/68/68
f 67/67/67 72/72/72 64/64/64
f 62/62/62 73/73/73 66/66/66
f 73/73/73 62/62/62 61/61/61
f 74/74/74 71/71/71 72/72/72
f 75/75/75 71/71/71 74/74/74
f 66/66/66 76/76/76 67/67/67
f 73/73/73 76/76/76 66/66/66
f 77/77/77 72/72/72 67/67/67
f 74/74/74 72/72/72 77/77/77
f 76/76/76 77/77/77 67/67/67
f 74/74/74 78/78/78 75/75/75
f 75/75/75 78/78/78 79/79/79
f 78/78/78 80/80/80 79/79/79
f 81/81/81 74/74/74 77/77/77
f 81/81/81 78/78/78 74/74/74
f 77/77/77 76/76/76 81/81/81
f 80/80/80 78/78/78 82/82/82
f 82/82/82 78/78/78 81/81/81
f 83/83/83 80/80/80 82/82/82
f 84/84/84 76/76/76 73/73/73
f 84/84/84 73/73/73 61/61/61
f 85/85/85 81/81/81 76/76/76
f 85/85/85 76/76/76 84/84/84
f 81/81/81 85/85/85 82/82/82
f 83/83/83 82/82/82 86/86/86
f 87/87/87 83/83/83 86/86/86
f 86/86/86 44/44/44 87/87/87
f 84/84/84 61/61/61 88/88/88
f 88/88/88 85/85/85 84/84/84
f 89/89/89 82/82/82 85/85/85
f 86/86/86 82/82/82 89/89/89
f 89/89/89 85/85/85 88/88/88
f 90/90/90 44/44/44 86/86/86
f 89/89/89 90/90/90 86/86/86
f 90/90/90 89/89/89 88/88/88
f 44/44/44 90/90/90 43/43/43
f 88/88/88 43/43/43 90/90/90
f 91/91/91 88/88/88 61/61/61
f 91/91/91 43/43/43 88/88/88
f 39/39/39 91/91/91 61/61/61
f 39/39/39 43/43/43 91/91/91
