g facial_eye_geo
v 0.09645615 1.41306 0.08235078
v 0.0936259 1.387785 0.0792472
v 0.08491369 1.388092 0.1025919
v 0.0872854 1.409658 0.09895826
v 0.07567719 1.387675 0.1113133
v 0.09047844 1.439101 0.09966556
v 0.09924453 1.442598 0.08329766
v 0.07803844 1.408778 0.1060817
v 0.06460175 1.407686 0.1120962
v 0.06140284 1.387861 0.1195086
v 0.04183846 1.393697 0.1260193
v 0.0714476 1.447048 0.1145944
v 0.09602087 1.467242 0.1073771
v 0.1041051 1.47087 0.08016218
v 0.09624073 1.486678 0.1085224
v 0.07509787 1.467151 0.1232128
v 0.04033779 1.411098 0.1180826
v 0.04523338 1.44694 0.1257917
v 0.02040435 1.418151 0.124279
v 0.01848017 1.397866 0.1350539
v -0 1.401402 0.1416264
v 0.01969793 1.43003 0.1263272
v 0.02347889 1.457564 0.1387789
v 0.0498541 1.461972 0.1323388
v 0.07585768 1.489692 0.1263177
v -0 1.419028 0.1350446
v 0.07298391 1.512859 0.1280462
v 0.09439209 1.511874 0.1079701
v 0.04914852 1.511082 0.1366196
v 0.05056674 1.486264 0.1362712
v 0.02408027 1.480554 0.1418336
v -0 1.477169 0.1436774
v 0.02276849 1.507784 0.1419597
v -0 1.5053 0.143653
v -0.02276849 1.507784 0.1419597
v -0 1.435973 0.1369405
v -0 1.454917 0.1411937
v -0.02347889 1.457564 0.1387789
v -0.02408027 1.480554 0.1418336
v -0.04914852 1.511082 0.1366196
v -0.01969793 1.43003 0.1263272
v -0.05056674 1.486264 0.1362712
v -0.07585768 1.489692 0.1263177
v -0.07298391 1.512859 0.1280462
v -0.0498541 1.461972 0.1323388
v -0.09624073 1.486678 0.1085224
v -0.09439209 1.511874 0.1079701
v -0.04523338 1.44694 0.1257917
v -0.07509787 1.467151 0.1232128
v -0.02040435 1.418151 0.124279
v -0.01848017 1.397866 0.1350539
v -0.04183846 1.393697 0.1260193
v -0.04033779 1.411098 0.1180826
v -0.0714476 1.447048 0.1145944
v -0.09047844 1.439101 0.09966556
v -0.09602087 1.467242 0.1073771
v -0.1041051 1.47087 0.08016218
v -0.09924453 1.442598 0.08329766
v -0.09645615 1.41306 0.08235078
v -0.06460175 1.407686 0.1120962
v -0.06140284 1.387861 0.1195086
v -0.07567719 1.387675 0.1113133
v -0.07803844 1.408778 0.1060817
v -0.0872854 1.409658 0.09895826
v -0.08491369 1.388092 0.1025919
v -0.0936259 1.387785 0.0792472
vt 0.3579102 0.3886719
vt 0.355957 0.3664551
vt 0.3383789 0.3642578
vt 0.3398438 0.3850098
vt 0.3232422 0.3632812
vt 0.3405762 0.4108887
vt 0.3571777 0.4125977
vt 0.3286133 0.3837891
vt 0.3146973 0.3835449
vt 0.307373 0.3662109
vt 0.2897949 0.3706055
vt 0.3193359 0.418457
vt 0.340332 0.4372559
vt 0.3623047 0.4387207
vt 0.3417969 0.4543457
vt 0.3186035 0.4377441
vt 0.291748 0.387207
vt 0.2937012 0.4187012
vt 0.2727051 0.3930664
vt 0.2709961 0.3740234
vt 0.25 0.3769531
vt 0.270752 0.4033203
vt 0.2712402 0.4294434
vt 0.2956543 0.4333496
vt 0.3195801 0.4575195
vt 0.25 0.3933105
vt 0.3195801 0.4777832
vt 0.3400879 0.4768066
vt 0.2976074 0.4760742
vt 0.2961426 0.454834
vt 0.2719727 0.449707
vt 0.25 0.4465332
vt 0.2719727 0.4731445
vt 0.25 0.4707031
vt 0.2280273 0.4731445
vt 0.25 0.4091797
vt 0.25 0.4267578
vt 0.2286377 0.4294434
vt 0.2281494 0.449707
vt 0.2025146 0.4760742
vt 0.229126 0.4033203
vt 0.2038574 0.454834
vt 0.1804199 0.4575195
vt 0.1804199 0.4777832
vt 0.2044678 0.4333496
vt 0.1582031 0.4543457
vt 0.15979 0.4768066
vt 0.2064209 0.4187012
vt 0.1812744 0.4377441
vt 0.2272949 0.3930664
vt 0.2290039 0.3740234
vt 0.210083 0.3706055
vt 0.208374 0.387207
vt 0.1807861 0.418457
vt 0.1594238 0.4108887
vt 0.15979 0.4372559
vt 0.1375732 0.4387207
vt 0.1429443 0.4125977
vt 0.1420898 0.3886719
vt 0.1853027 0.3833008
vt 0.192627 0.3662109
vt 0.1767578 0.3632812
vt 0.1713867 0.3837891
vt 0.1602783 0.3850098
vt 0.1617432 0.3642578
vt 0.144165 0.3664551
vn 0.9611 -0.100748 0.25717
vn 0.9454888 -0.157875 0.2848269
vn 0.8596098 -0.102278 0.5006099
vn 0.8374602 -0.06788002 0.5422661
vn 0.5553647 0.04483197 0.8303975
vn 0.7372178 -0.1905329 0.6482338
vn 0.9587223 -0.144236 0.2450461
vn 0.5413591 0.022694 0.8404851
vn 0.3579721 0.010581 0.9336723
vn 0.4082521 0.130043 0.9035591
vn 0.402072 0.245875 0.8819771
vn 0.3890538 -0.2459649 0.8877716
vn 0.7725779 -0.166061 0.612819
vn 0.9757169 -0.10895 0.190017
vn 0.8010029 -0.012555 0.5985289
vn 0.4848598 -0.2081239 0.8494677
vn 0.3304521 0.06017702 0.9419024
vn 0.298367 -0.276217 0.9136089
vn 0.4088881 0.216939 0.8864242
vn 0.453498 0.337492 0.824887
vn -0 0.4403509 0.8978258
vn 0.3193619 -0.2665609 0.9093697
vn 0.2129181 -0.2286211 0.9499465
vn 0.3166751 -0.2316951 0.9198013
vn 0.520987 -0.042032 0.8525292
vn -0 0.188916 0.9819932
vn 0.4975533 0.1613691 0.8522915
vn 0.7873445 0.1638929 0.5943297
vn 0.265377 0.132231 0.9550341
vn 0.291903 -0.07250399 0.9536959
vn 0.162221 -0.066117 0.9845369
vn -0 -0.061226 0.9981239
vn 0.130432 0.104531 0.9859314
vn -0 0.082284 0.996609
vn -0.130432 0.104531 0.9859314
vn -0 -0.275018 0.9614391
vn -0 -0.153993 0.9880719
vn -0.212918 -0.228622 0.9499462
vn -0.162221 -0.066117 0.9845369
vn -0.265377 0.132231 0.9550341
vn -0.319363 -0.266562 0.909369
vn -0.291903 -0.07250399 0.9536959
vn -0.520987 -0.042032 0.8525292
vn -0.4975528 0.1613689 0.8522917
vn -0.3166739 -0.2316949 0.9198017
vn -0.8010029 -0.012555 0.5985289
vn -0.7873442 0.163892 0.5943302
vn -0.298366 -0.2762171 0.9136092
vn -0.4848598 -0.2081239 0.8494677
vn -0.4088869 0.216939 0.8864248
vn -0.453498 0.337492 0.824887
vn -0.402072 0.245875 0.8819771
vn -0.3304521 0.06017803 0.9419024
vn -0.3995508 -0.2521619 0.8813476
vn -0.723478 -0.208099 0.658236
vn -0.7725783 -0.1660621 0.6128182
vn -0.9757169 -0.10895 0.190017
vn -0.9587223 -0.144236 0.2450461
vn -0.9611002 -0.100747 0.2571701
vn -0.374547 0.012975 0.927117
vn -0.4082512 0.1300431 0.9035596
vn -0.5553651 0.04483201 0.8303972
vn -0.522149 0.08312001 0.848794
vn -0.8374605 -0.06788097 0.5422657
vn -0.8596109 -0.102278 0.500608
vn -0.945489 -0.157874 0.284827
g facial_eye_geo_0
f 3/3/3 2/2/2 1/1/1
f 4/4/4 3/3/3 1/1/1
f 5/5/5 3/3/3 4/4/4
f 6/6/6 4/4/4 1/1/1
f 1/1/1 7/7/7 6/6/6
f 8/8/8 5/5/5 4/4/4
f 6/6/6 8/8/8 4/4/4
f 8/8/8 9/9/9 5/5/5
f 9/9/9 10/10/10 5/5/5
f 11/11/11 10/10/10 9/9/9
f 12/12/12 9/9/9 8/8/8
f 8/8/8 6/6/6 12/12/12
f 7/7/7 13/13/13 6/6/6
f 14/14/14 13/13/13 7/7/7
f 14/14/14 15/15/15 13/13/13
f 16/16/16 6/6/6 13/13/13
f 16/16/16 12/12/12 6/6/6
f 16/16/16 13/13/13 15/15/15
f 17/17/17 11/11/11 9/9/9
f 17/17/17 9/9/9 12/12/12
f 18/18/18 12/12/12 16/16/16
f 18/18/18 17/17/17 12/12/12
f 11/11/11 17/17/17 19/19/19
f 20/20/20 11/11/11 19/19/19
f 21/21/21 20/20/20 19/19/19
f 19/19/19 17/17/17 22/22/22
f 22/22/22 17/17/17 18/18/18
f 23/23/23 22/22/22 18/18/18
f 16/16/16 24/24/24 18/18/18
f 23/23/23 18/18/18 24/24/24
f 25/25/25 16/16/16 15/15/15
f 24/24/24 16/16/16 25/25/25
f 26/26/26 21/21/21 19/19/19
f 19/19/19 22/22/22 26/26/26
f 25/25/25 15/15/15 27/27/27
f 15/15/15 28/28/28 27/27/27
f 25/25/25 27/27/27 29/29/29
f 30/30/30 24/24/24 25/25/25
f 30/30/30 25/25/25 29/29/29
f 23/23/23 24/24/24 30/30/30
f 31/31/31 30/30/30 29/29/29
f 31/31/31 23/23/23 30/30/30
f 31/31/31 32/32/32 23/23/23
f 33/33/33 31/31/31 29/29/29
f 31/31/31 33/33/33 32/32/32
f 33/33/33 34/34/34 32/32/32
f 34/34/34 35/35/35 32/32/32
f 36/36/36 22/22/22 23/23/23
f 22/22/22 36/36/36 26/26/26
f 32/32/32 37/37/37 23/23/23
f 23/23/23 37/37/37 36/36/36
f 37/37/37 32/32/32 38/38/38
f 37/37/37 38/38/38 36/36/36
f 35/35/35 39/39/39 32/32/32
f 32/32/32 39/39/39 38/38/38
f 39/39/39 35/35/35 40/40/40
f 36/36/36 41/41/41 26/26/26
f 41/41/41 36/36/36 38/38/38
f 42/42/42 39/39/39 40/40/40
f 38/38/38 39/39/39 42/42/42
f 43/43/43 42/42/42 40/40/40
f 44/44/44 43/43/43 40/40/40
f 45/45/45 38/38/38 42/42/42
f 45/45/45 42/42/42 43/43/43
f 46/46/46 43/43/43 44/44/44
f 47/47/47 46/46/46 44/44/44
f 48/48/48 38/38/38 45/45/45
f 48/48/48 41/41/41 38/38/38
f 49/49/49 45/45/45 43/43/43
f 49/49/49 43/43/43 46/46/46
f 45/45/45 49/49/49 48/48/48
f 41/41/41 50/50/50 26/26/26
f 21/21/21 26/26/26 50/50/50
f 51/51/51 21/21/21 50/50/50
f 52/52/52 51/51/51 50/50/50
f 53/53/53 50/50/50 41/41/41
f 53/53/53 41/41/41 48/48/48
f 53/53/53 52/52/52 50/50/50
f 53/53/53 48/48/48 54/54/54
f 54/54/54 48/48/48 49/49/49
f 54/54/54 49/49/49 55/55/55
f 56/56/56 49/49/49 46/46/46
f 55/55/55 49/49/49 56/56/56
f 46/46/46 57/57/57 56/56/56
f 56/56/56 57/57/57 58/58/58
f 56/56/56 58/58/58 55/55/55
f 58/58/58 59/59/59 55/55/55
f 52/52/52 53/53/53 60/60/60
f 60/60/60 53/53/53 54/54/54
f 55/55/55 60/60/60 54/54/54
f 61/61/61 52/52/52 60/60/60
f 61/61/61 60/60/60 62/62/62
f 60/60/60 55/55/55 63/63/63
f 60/60/60 63/63/63 62/62/62
f 63/63/63 55/55/55 64/64/64
f 62/62/62 63/63/63 64/64/64
f 64/64/64 55/55/55 59/59/59
f 65/65/65 62/62/62 64/64/64
f 65/65/65 64/64/64 59/59/59
f 66/66/66 65/65/65 59/59/59
