g body_02_geo
v 0.02307075 0.01929924 -0.1271219
v -0.02307079 0.01929916 -0.08367404
v -0.02307079 0.01929924 -0.1271219
v 0.02307075 0.01929924 -0.08367403
v -0.02307079 0.01733246 -0.08056451
v 0.02307075 0.01733246 -0.08056451
v -0.02307075 0.01376335 -0.0797451
v 0.02307072 0.01376335 -0.07974511
v -0.02307079 0.01019424 -0.08056451
v 0.02307075 0.01019424 -0.08056451
v -0.02307075 0.008227539 -0.08367403
v 0.02307072 0.008227539 -0.08367404
v -0.02307079 0.008227463 -0.1271219
v 0.02307075 0.008227539 -0.1271219
v 0.02307075 0.01376335 -0.1271219
v 0.02307075 0.01929924 -0.1271219
v -0.02307079 0.01929924 -0.1271219
v -0.02307075 0.01376335 -0.1271219
v 0.02307075 0.008227539 -0.1271219
v -0.02307079 0.008227463 -0.1271219
v 0.02307075 0.01376335 -0.1271219
v 0.02307075 0.01929924 -0.08367403
v 0.02307075 0.01929924 -0.1271219
v 0.02307075 0.01733246 -0.08056451
v 0.02307072 0.01376335 -0.07974511
v 0.02307075 0.01019424 -0.08056451
v 0.02307072 0.008227539 -0.08367404
v 0.02307075 0.008227539 -0.1271219
v -0.02307079 0.01929924 -0.1271219
v -0.02307079 0.01929916 -0.08367404
v -0.02307075 0.01376335 -0.1271219
v -0.02307079 0.01733246 -0.08056451
v -0.02307075 0.01376335 -0.0797451
v -0.02307079 0.01019424 -0.08056451
v -0.02307075 0.008227539 -0.08367403
v -0.02307079 0.008227463 -0.1271219
v 0.00994915 0.00916336 -0.2921434
v -0 0.01360611 -0.2944921
v -0 0.00916336 -0.2927739
v 0.01025524 0.01360611 -0.293839
v -3.814697E-08 0.01804886 -0.2928942
v 0.01989826 0.00916336 -0.2906555
v 0.009883613 0.01804886 -0.2922684
v 0.02051044 0.01360611 -0.2922991
v 0.01976719 0.01804886 -0.2907916
v 0.02984749 0.009163436 -0.2879371
v 0.03076569 0.01360611 -0.2895373
v 0.0296508 0.01804886 -0.2880827
v 0.04102096 0.01360611 -0.2855999
v 0.03953442 0.01804886 -0.2841366
v 0.03979671 0.00916336 -0.2839917
v 0.042757 0.01804886 -0.282057
v 0.04424347 0.01360611 -0.2835516
v 0.0430191 0.009163436 -0.2819175
v 0.04409179 0.01804886 -0.2785349
v 0.04557831 0.01360611 -0.280055
v 0.04435398 0.00916336 -0.2783988
v 0.04557835 0.01360611 -0.09979668
v 0.04409176 0.01804886 -0.1011901
v 0.04435406 0.00916336 -0.1011605
v 0.042757 0.01804886 -0.09779906
v 0.04424351 0.01360611 -0.09640568
v 0.04301918 0.009163436 -0.09776953
v 0.03953442 0.01804886 -0.09639448
v 0.04102093 0.01360611 -0.09500106
v 0.03979664 0.00916336 -0.09636494
v -0 0.01804886 -0.09639448
v -3.814697E-08 0.009163436 -0.09636494
v -3.814697E-08 0.01360611 -0.09500112
v 0.042757 0.01804886 -0.09779906
v 0.04409179 0.01804886 -0.2785349
v 0.04409176 0.01804886 -0.1011901
v 0.03953442 0.01804886 -0.09639448
v 0.042757 0.01804886 -0.282057
v 0.03953442 0.01804886 -0.2841366
v -0 0.01804886 -0.09639448
v 0.0296508 0.01804886 -0.2880827
v 0.01976719 0.01804886 -0.2907916
v 0.009883613 0.01804886 -0.2922684
v -3.814697E-08 0.01804886 -0.2928942
v -0.009883652 0.01804886 -0.2922684
v -0.01976727 0.01804886 -0.2907916
v -0.0296508 0.01804886 -0.2880828
v -0.03953445 0.01804886 -0.2841366
v -0.03953445 0.01804886 -0.09639449
v -0.042757 0.01804886 -0.282057
v -0.04409184 0.01804886 -0.2785349
v -0.04275703 0.01804886 -0.09779907
v -0.04409176 0.01804886 -0.1011901
v -0.009949188 0.00916336 -0.2921433
v -0 0.00916336 -0.2927739
v -0 0.01360611 -0.2944921
v -0.01025524 0.01360611 -0.293839
v -3.814697E-08 0.01804886 -0.2928942
v -0.01989838 0.00916336 -0.2906555
v -0.009883652 0.01804886 -0.2922684
v -0.02051052 0.01360611 -0.2922991
v -0.01976727 0.01804886 -0.2907916
v -0.02984749 0.009163436 -0.2879371
v -0.03076569 0.01360611 -0.2895373
v -0.0296508 0.01804886 -0.2880828
v -0.04102093 0.01360611 -0.2855999
v -0.03953445 0.01804886 -0.2841366
v -0.03979668 0.00916336 -0.2839917
v -0.042757 0.01804886 -0.282057
v -0.04424351 0.01360611 -0.2835515
v -0.04301922 0.00916336 -0.2819175
v -0.04409184 0.01804886 -0.2785349
v -0.04557835 0.01360611 -0.280055
v -0.04435402 0.009163436 -0.2783988
v -0.04557835 0.01360619 -0.09979668
v -0.04409176 0.01804886 -0.1011901
v -0.04435406 0.00916336 -0.1011605
v -0.04275703 0.01804886 -0.09779907
v -0.04424351 0.01360611 -0.09640568
v -0.04301922 0.00916336 -0.09776953
v -0.03953445 0.01804886 -0.09639449
v -0.04102093 0.01360611 -0.09500108
v -0.03979668 0.009163436 -0.09636494
v -0 0.01804886 -0.09639448
v -3.814697E-08 0.009163436 -0.09636494
v -3.814697E-08 0.01360611 -0.09500112
v -0.04435402 0.009163436 -0.2783988
v -0.04435406 0.00916336 -0.1011605
v -0.04301922 0.00916336 -0.09776953
v -0.03979668 0.009163436 -0.09636494
v -0.04301922 0.00916336 -0.2819175
v -0.03979668 0.00916336 -0.2839917
v -3.814697E-08 0.009163436 -0.09636494
v -0.02984749 0.009163436 -0.2879371
v -0.01989838 0.00916336 -0.2906555
v -0.009949188 0.00916336 -0.2921433
v -0 0.00916336 -0.2927739
v 0.00994915 0.00916336 -0.2921434
v 0.01989826 0.00916336 -0.2906555
v 0.02984749 0.009163436 -0.2879371
v 0.03979671 0.00916336 -0.2839917
v 0.03979664 0.00916336 -0.09636494
v 0.0430191 0.009163436 -0.2819175
v 0.04435398 0.00916336 -0.2783988
v 0.04301918 0.009163436 -0.09776953
v 0.04435406 0.00916336 -0.1011605
vt 0.644043 0.9428711
vt 0.7832031 0.7949219
vt 0.644043 0.7949219
vt 0.7832031 0.9428711
vt 0.7949219 0.7949219
vt 0.7949219 0.9428711
vt 0.8066406 0.7949219
vt 0.8066406 0.9428711
vt 0.8183594 0.7949219
vt 0.8183594 0.9428711
vt 0.8300781 0.7949219
vt 0.8300781 0.9428711
vt 0.9692383 0.7949219
vt 0.9692383 0.9428711
vt 0.6191406 0.934082
vt 0.6347656 0.934082
vt 0.6347656 0.8061523
vt 0.6191406 0.8061523
vt 0.6040039 0.934082
vt 0.6040039 0.8061523
vt 0.6054688 0.7670898
vt 0.7060547 0.7797852
vt 0.6054688 0.7797852
vt 0.7128906 0.7753906
vt 0.7148438 0.7670898
vt 0.7128906 0.7587891
vt 0.7060547 0.7543945
vt 0.6054688 0.7543945
vt 0.6054688 0.7797852
vt 0.7060547 0.7797852
vt 0.6054688 0.7670898
vt 0.7128906 0.7753906
vt 0.7148438 0.7670898
vt 0.7128906 0.7587891
vt 0.7060547 0.7543945
vt 0.6054688 0.7543945
vt 0.007926941 0.9306641
vt 0.02784729 0.9487305
vt 0.007926941 0.9487305
vt 0.02784729 0.9306641
vt 0.0480957 0.9487305
vt 0.007926941 0.9121094
vt 0.0480957 0.9306641
vt 0.02784729 0.9121094
vt 0.0480957 0.9121094
vt 0.007926941 0.8930664
vt 0.02784729 0.8930664
vt 0.0480957 0.8930664
vt 0.02784729 0.8730469
vt 0.0480957 0.8730469
vt 0.007926941 0.8730469
vt 0.0480957 0.8662109
vt 0.02784729 0.8662109
vt 0.007926941 0.8662109
vt 0.0480957 0.859375
vt 0.02784729 0.859375
vt 0.007926941 0.859375
vt 0.02784729 0.5327148
vt 0.0480957 0.5327148
vt 0.007926941 0.5327148
vt 0.0480957 0.5258789
vt 0.02784729 0.5258789
vt 0.007926941 0.5258789
vt 0.0480957 0.5195312
vt 0.02784729 0.5195312
vt 0.007926941 0.5195312
vt 0.0480957 0.4460449
vt 0.007926941 0.4460449
vt 0.02784729 0.4460449
vt 0.5722656 0.4399414
vt 0.5761719 0.9404297
vt 0.5761719 0.4492188
vt 0.5634766 0.4360352
vt 0.5722656 0.9501953
vt 0.5634766 0.9555664
vt 0.4541016 0.4360352
vt 0.5361328 0.9667969
vt 0.5087891 0.9741211
vt 0.4814453 0.9785156
vt 0.4541016 0.9799805
vt 0.4267578 0.9785156
vt 0.3994141 0.9741211
vt 0.3720703 0.9667969
vt 0.3444824 0.9555664
vt 0.3444824 0.4360352
vt 0.3356934 0.9501953
vt 0.3320312 0.9404297
vt 0.3356934 0.4399414
vt 0.3320312 0.4492188
vt 0.007926941 0.9306641
vt 0.007926941 0.9487305
vt 0.02784729 0.9487305
vt 0.02784729 0.9306641
vt 0.0480957 0.9487305
vt 0.007926941 0.9121094
vt 0.0480957 0.9306641
vt 0.02784729 0.9121094
vt 0.0480957 0.9121094
vt 0.007926941 0.8930664
vt 0.02784729 0.8930664
vt 0.0480957 0.8930664
vt 0.02784729 0.8735352
vt 0.0480957 0.8735352
vt 0.007926941 0.8735352
vt 0.0480957 0.8666992
vt 0.02784729 0.8666992
vt 0.007926941 0.8666992
vt 0.0480957 0.859375
vt 0.02784729 0.859375
vt 0.007926941 0.859375
vt 0.02784729 0.5322266
vt 0.0480957 0.5322266
vt 0.007926941 0.5322266
vt 0.0480957 0.5253906
vt 0.02784729 0.5253906
vt 0.007926941 0.5253906
vt 0.0480957 0.519043
vt 0.02784729 0.519043
vt 0.007926941 0.519043
vt 0.0480957 0.4460449
vt 0.007926941 0.4460449
vt 0.02784729 0.4460449
vt 0.3120117 0.9404297
vt 0.3120117 0.4492188
vt 0.3083496 0.4399414
vt 0.2993164 0.4360352
vt 0.3083496 0.9501953
vt 0.2993164 0.9555664
vt 0.189209 0.4360352
vt 0.2717285 0.9667969
vt 0.2442627 0.9741211
vt 0.2166748 0.9785156
vt 0.189209 0.9799805
vt 0.1616211 0.9785156
vt 0.1340332 0.9741211
vt 0.1065063 0.9667969
vt 0.07891846 0.9555664
vt 0.07891846 0.4360352
vt 0.07000732 0.9501953
vt 0.06628418 0.9404297
vt 0.07000732 0.4399414
vt 0.06628418 0.4492188
vn -8.34465E-07 1 8.940697E-07
vn -8.34465E-07 0.9990234 0.04220581
vn -8.34465E-07 1 8.940697E-07
vn -8.34465E-07 0.9990234 0.04220581
vn -3.576279E-07 0.5786133 0.8154297
vn -3.576279E-07 0.5786133 0.8154297
vn -0 0 1
vn -0 0 1
vn -0 -0.5786133 0.8154297
vn -0 -0.5786133 0.8154297
vn 7.748604E-07 -0.9990234 0.04220581
vn 7.748604E-07 -0.9990234 0.04220581
vn 8.34465E-07 -1 8.940697E-07
vn 8.34465E-07 -1 8.940697E-07
vn -0 4.172325E-07 -1
vn -0 0 -1
vn -0 0 -1
vn -0 4.172325E-07 -1
vn -1.788139E-07 8.34465E-07 -1
vn -1.788139E-07 8.34465E-07 -1
vn 1 2.384186E-07 4.172325E-07
vn 1 -1.192093E-07 0
vn 1 7.748604E-07 0
vn 1 -9.179115E-06 6.556511E-07
vn 1 0 8.34465E-07
vn 1 5.960464E-06 4.172325E-07
vn 1 -1.519918E-05 -1.072884E-06
vn 1 0 8.940697E-07
vn -1 -7.152557E-06 0
vn -1 -1.370907E-06 -6.556511E-07
vn -1 -1.192093E-07 4.172325E-07
vn -1 -9.357929E-06 -1.192093E-07
vn -1 -1.788139E-07 0
vn -1 5.662441E-06 -3.576279E-07
vn -1 -1.507998E-05 -1.728535E-06
vn -1 7.152557E-06 8.940697E-07
vn 0.09832764 -0.3605957 -0.9277344
vn -3.576279E-07 -0.01400757 -1
vn -1.013279E-06 -0.3603516 -0.9326172
vn 0.1069946 -0.01370239 -0.9941406
vn -2.980232E-07 0.3381348 -0.940918
vn 0.1899414 -0.3654785 -0.9111328
vn 0.09869385 0.3388672 -0.9355469
vn 0.2087402 -0.01197052 -0.9780273
vn 0.1904297 0.3461914 -0.918457
vn 0.2880859 -0.380127 -0.8789062
vn 0.317627 -0.00806427 -0.9482422
vn 0.2890625 0.3664551 -0.8842773
vn 0.4162598 -0.007667542 -0.9091797
vn 0.3737793 0.3911133 -0.8408203
vn 0.3740234 -0.3977051 -0.8378906
vn 0.7055664 0.4257812 -0.5668945
vn 0.7636719 0.01085663 -0.6455078
vn 0.7182617 -0.4052734 -0.5654297
vn 0.9477539 0.3188477 -0.005138397
vn 0.9995117 0.03295898 -0.01038361
vn 0.9633789 -0.267334 -0.004970551
vn 0.9995117 0.02937317 0.00983429
vn 0.9477539 0.3188477 0.005310059
vn 0.9638672 -0.2670898 0.005340576
vn 0.6582031 0.416748 0.6269531
vn 0.7226562 0.02149963 0.690918
vn 0.6743164 -0.380127 0.6328125
vn 0.02340698 0.3063965 0.9516602
vn 0.0418396 -0.0009355545 0.9990234
vn 0.0247345 -0.2995605 0.9536133
vn -0 0.2993164 0.9541016
vn -1.192093E-07 -0.293457 0.9560547
vn -0 0.002820969 1
vn -0 1 0
vn -0 1 0
vn -0 1 0
vn -0 1 0
vn -0 1 0
vn -0 1 0
vn -0 1 0
vn -0 1 0
vn -0 1 0
vn -0 1 0
vn -0 1 0
vn -0 1 0
vn -0 1 0
vn -0 1 0
vn -0 1 0
vn -0 1 0
vn -0 1 0
vn -0 1 0
vn -0 1 0
vn -0 1 0
vn -0.09832764 -0.3605957 -0.9277344
vn -1.013279E-06 -0.3603516 -0.9326172
vn -3.576279E-07 -0.01400757 -1
vn -0.1069946 -0.01370239 -0.9941406
vn -2.980232E-07 0.3381348 -0.940918
vn -0.1899414 -0.3654785 -0.9111328
vn -0.09869385 0.3388672 -0.9355469
vn -0.2087402 -0.01197815 -0.9780273
vn -0.1904297 0.3461914 -0.918457
vn -0.2880859 -0.380127 -0.8789062
vn -0.317627 -0.00806427 -0.9482422
vn -0.2890625 0.3664551 -0.8842773
vn -0.4162598 -0.007667542 -0.9091797
vn -0.3737793 0.3911133 -0.8408203
vn -0.3740234 -0.3977051 -0.8378906
vn -0.7055664 0.4257812 -0.5668945
vn -0.7636719 0.01085663 -0.6455078
vn -0.7182617 -0.4052734 -0.5654297
vn -0.9477539 0.3188477 -0.005138397
vn -0.9995117 0.03295898 -0.01038361
vn -0.9633789 -0.267334 -0.004970551
vn -0.9995117 0.02937317 0.00983429
vn -0.9477539 0.3188477 0.005310059
vn -0.9638672 -0.2670898 0.005340576
vn -0.6582031 0.416748 0.6269531
vn -0.7226562 0.02149963 0.690918
vn -0.6743164 -0.380127 0.6328125
vn -0.02340698 0.3063965 0.9516602
vn -0.0418396 -0.000934124 0.9990234
vn -0.0247345 -0.2995605 0.9536133
vn -0 0.2993164 0.9541016
vn -1.192093E-07 -0.293457 0.9560547
vn -0 0.002820969 1
vn -5.239248E-05 -1 1.311302E-06
vn 1.072884E-06 -1 -4.172325E-07
vn 2.235174E-05 -1 -5.960464E-07
vn 2.336502E-05 -1 -5.960464E-07
vn -3.576279E-06 -1 4.768372E-07
vn 2.384186E-07 -1 4.172325E-07
vn -8.940697E-07 -1 1.788139E-07
vn -8.34465E-07 -1 1.192093E-07
vn -3.397465E-06 -1 7.748604E-07
vn -0 -1 4.172325E-07
vn -0 -1 4.172325E-07
vn -0 -1 3.576279E-07
vn 3.397465E-06 -1 7.152557E-07
vn 8.34465E-07 -1 1.192093E-07
vn -5.602837E-06 -1 -7.748604E-07
vn -1.907349E-06 -1 0
vn 1.817942E-05 -1 0
vn -5.251169E-05 -1 -1.311302E-06
vn 1.823902E-05 -1 5.364418E-07
vn -5.716085E-05 -1 0
g body_02_geo_0
f 3/3/3 2/2/2 1/1/1
f 2/2/2 4/4/4 1/1/1
f 4/4/4 2/2/2 5/5/5
f 6/6/6 4/4/4 5/5/5
f 6/6/6 5/5/5 7/7/7
f 8/8/8 6/6/6 7/7/7
f 8/8/8 7/7/7 9/9/9
f 10/10/10 8/8/8 9/9/9
f 10/10/10 9/9/9 11/11/11
f 12/12/12 10/10/10 11/11/11
f 12/12/12 11/11/11 13/13/13
f 14/14/14 12/12/12 13/13/13
f 17/17/17 16/16/16 15/15/15
f 18/18/18 17/17/17 15/15/15
f 15/15/15 19/19/19 18/18/18
f 19/19/19 20/20/20 18/18/18
f 23/23/23 22/22/22 21/21/21
f 21/21/21 22/22/22 24/24/24
f 21/21/21 24/24/24 25/25/25
f 21/21/21 25/25/25 26/26/26
f 21/21/21 26/26/26 27/27/27
f 27/27/27 28/28/28 21/21/21
f 31/31/31 30/30/30 29/29/29
f 31/31/31 32/32/32 30/30/30
f 33/33/33 32/32/32 31/31/31
f 31/31/31 34/34/34 33/33/33
f 31/31/31 35/35/35 34/34/34
f 36/36/36 35/35/35 31/31/31
f 39/39/39 38/38/38 37/37/37
f 38/38/38 40/40/40 37/37/37
f 40/40/40 38/38/38 41/41/41
f 37/37/37 40/40/40 42/42/42
f 43/43/43 40/40/40 41/41/41
f 40/40/40 44/44/44 42/42/42
f 44/44/44 40/40/40 43/43/43
f 45/45/45 44/44/44 43/43/43
f 42/42/42 44/44/44 46/46/46
f 47/47/47 44/44/44 45/45/45
f 44/44/44 47/47/47 46/46/46
f 48/48/48 47/47/47 45/45/45
f 46/46/46 47/47/47 49/49/49
f 49/49/49 47/47/47 48/48/48
f 50/50/50 49/49/49 48/48/48
f 51/51/51 46/46/46 49/49/49
f 50/50/50 52/52/52 49/49/49
f 49/49/49 53/53/53 51/51/51
f 52/52/52 53/53/53 49/49/49
f 53/53/53 54/54/54 51/51/51
f 52/52/52 55/55/55 53/53/53
f 53/53/53 56/56/56 54/54/54
f 55/55/55 56/56/56 53/53/53
f 56/56/56 57/57/57 54/54/54
f 58/58/58 56/56/56 55/55/55
f 57/57/57 56/56/56 58/58/58
f 59/59/59 58/58/58 55/55/55
f 60/60/60 57/57/57 58/58/58
f 58/58/58 59/59/59 61/61/61
f 60/60/60 58/58/58 62/62/62
f 62/62/62 58/58/58 61/61/61
f 63/63/63 60/60/60 62/62/62
f 62/62/62 61/61/61 64/64/64
f 63/63/63 62/62/62 65/65/65
f 65/65/65 62/62/62 64/64/64
f 66/66/66 63/63/63 65/65/65
f 64/64/64 67/67/67 65/65/65
f 66/66/66 65/65/65 68/68/68
f 67/67/67 69/69/69 65/65/65
f 65/65/65 69/69/69 68/68/68
f 72/72/72 71/71/71 70/70/70
f 70/70/70 71/71/71 73/73/73
f 73/73/73 71/71/71 74/74/74
f 73/73/73 74/74/74 75/75/75
f 75/75/75 76/76/76 73/73/73
f 76/76/76 75/75/75 77/77/77
f 76/76/76 77/77/77 78/78/78
f 76/76/76 78/78/78 79/79/79
f 76/76/76 79/79/79 80/80/80
f 81/81/81 76/76/76 80/80/80
f 82/82/82 76/76/76 81/81/81
f 83/83/83 76/76/76 82/82/82
f 84/84/84 76/76/76 83/83/83
f 76/76/76 84/84/84 85/85/85
f 86/86/86 85/85/85 84/84/84
f 87/87/87 85/85/85 86/86/86
f 87/87/87 88/88/88 85/85/85
f 89/89/89 88/88/88 87/87/87
f 92/92/92 91/91/91 90/90/90
f 93/93/93 92/92/92 90/90/90
f 92/92/92 93/93/93 94/94/94
f 93/93/93 90/90/90 95/95/95
f 93/93/93 96/96/96 94/94/94
f 97/97/97 93/93/93 95/95/95
f 93/93/93 97/97/97 96/96/96
f 97/97/97 98/98/98 96/96/96
f 97/97/97 95/95/95 99/99/99
f 97/97/97 100/100/100 98/98/98
f 100/100/100 97/97/97 99/99/99
f 100/100/100 101/101/101 98/98/98
f 100/100/100 99/99/99 102/102/102
f 100/100/100 102/102/102 101/101/101
f 102/102/102 103/103/103 101/101/101
f 99/99/99 104/104/104 102/102/102
f 105/105/105 103/103/103 102/102/102
f 106/106/106 102/102/102 104/104/104
f 106/106/106 105/105/105 102/102/102
f 107/107/107 106/106/106 104/104/104
f 108/108/108 105/105/105 106/106/106
f 109/109/109 106/106/106 107/107/107
f 109/109/109 108/108/108 106/106/106
f 110/110/110 109/109/109 107/107/107
f 109/109/109 111/111/111 108/108/108
f 109/109/109 110/110/110 111/111/111
f 111/111/111 112/112/112 108/108/108
f 110/110/110 113/113/113 111/111/111
f 112/112/112 111/111/111 114/114/114
f 111/111/111 113/113/113 115/115/115
f 111/111/111 115/115/115 114/114/114
f 113/113/113 116/116/116 115/115/115
f 114/114/114 115/115/115 117/117/117
f 115/115/115 116/116/116 118/118/118
f 115/115/115 118/118/118 117/117/117
f 116/116/116 119/119/119 118/118/118
f 120/120/120 117/117/117 118/118/118
f 118/118/118 119/119/119 121/121/121
f 122/122/122 120/120/120 118/118/118
f 122/122/122 118/118/118 121/121/121
f 125/125/125 124/124/124 123/123/123
f 125/125/125 123/123/123 126/126/126
f 126/126/126 123/123/123 127/127/127
f 126/126/126 127/127/127 128/128/128
f 128/128/128 129/129/129 126/126/126
f 129/129/129 128/128/128 130/130/130
f 129/129/129 130/130/130 131/131/131
f 129/129/129 131/131/131 132/132/132
f 129/129/129 132/132/132 133/133/133
f 134/134/134 129/129/129 133/133/133
f 135/135/135 129/129/129 134/134/134
f 136/136/136 129/129/129 135/135/135
f 137/137/137 129/129/129 136/136/136
f 138/138/138 129/129/129 137/137/137
f 139/139/139 138/138/138 137/137/137
f 140/140/140 138/138/138 139/139/139
f 140/140/140 141/141/141 138/138/138
f 142/142/142 141/141/141 140/140/140
