g facial_mouth_geo
v 0.088927 1.395995 0.07812493
v 0.07868731 1.386372 0.09894703
v 0.08151097 1.399314 0.1008934
v 0.08221231 1.37273 0.0720307
v 0.06963 1.38697 0.1097918
v 0.07298007 1.39987 0.1094622
v 0.07061923 1.361759 0.09026743
v 0.07721124 1.355926 0.063154
v 0.05588405 1.389335 0.1189547
v 0.05960759 1.400298 0.1177146
v 0.04082139 1.404175 0.1248171
v 0.06567815 1.369795 0.1083893
v 0.06578532 1.346135 0.07845171
v 0.05994531 1.352271 0.1016487
v 0.06077556 1.335576 0.06027682
v 0.07477499 1.348462 0.0447699
v 0.06763503 1.34059 0.03640314
v 0.05585044 1.330593 0.05260112
v 0.04719104 1.325684 0.07255043
v 0.04222867 1.320323 0.06546227
v 0.05213047 1.33506 0.09120151
v 0.02921743 1.312024 0.08802703
v 0.02618592 1.310078 0.07911002
v 0.04563068 1.347025 0.1110966
v 0.01403573 1.301732 0.1020484
v 0.00542268 1.301017 0.09356347
v -0 1.300403 0.09496605
v 0.0483763 1.363333 0.1170485
v 0.05153636 1.377414 0.1195549
v 0.0375526 1.382012 0.1279886
v 0.03266599 1.370689 0.1282846
v 0.01910317 1.385724 0.1424761
v 0.0206229 1.405689 0.1345897
v 0.03240566 1.355879 0.1250223
v 0.01737556 1.351087 0.1294666
v 0.0324616 1.342709 0.1182605
v 0.03046331 1.331926 0.1114724
v 0.01721663 1.366913 0.1336196
v -0 1.363659 0.1373648
v -0 1.390698 0.154538
v -0 1.407625 0.1416069
v -0.0206229 1.405689 0.1345897
v -0.01910317 1.385724 0.1424761
v -0.04082139 1.404175 0.1248171
v 0.01690529 1.337852 0.1239687
v 0.03143858 1.31906 0.1001793
v 0.01428833 1.318586 0.1131288
v 0.01554581 1.30673 0.10868
v -0 1.299406 0.1060521
v -0 1.305728 0.1115735
v -0 1.317869 0.1164669
v -0 1.336505 0.1273656
v -0.01403573 1.301732 0.1020484
v -0.00542268 1.301017 0.09356347
v -0.02618592 1.310078 0.07911002
v -0.01554581 1.30673 0.10868
v -0.02921743 1.312024 0.08802703
v -0.04222867 1.320323 0.06546227
v -0.01428833 1.318586 0.1131288
v -0 1.347375 0.1324184
v -0.01737556 1.351087 0.1294666
v -0.01690529 1.337852 0.1239687
v -0.03143858 1.31906 0.1001793
v -0.04719104 1.325684 0.07255043
v -0.05585044 1.330593 0.05260112
v -0.03046331 1.331926 0.1114724
v -0.05213047 1.33506 0.09120151
v -0.06077556 1.335576 0.06027682
v -0.06763503 1.34059 0.03640314
v -0.07477499 1.348462 0.0447699
v -0.07721124 1.355926 0.063154
v -0.06578532 1.346135 0.07845171
v -0.0324616 1.342709 0.1182605
v -0.07061923 1.361759 0.09026743
v -0.08221231 1.37273 0.0720307
v -0.04563068 1.347025 0.1110966
v -0.05994531 1.352271 0.1016487
v -0.07868731 1.386372 0.09894703
v -0.088927 1.395995 0.07812493
v -0.08151097 1.399314 0.1008934
v -0.06567815 1.369795 0.1083893
v -0.06963 1.38697 0.1097918
v -0.07298007 1.39987 0.1094622
v -0.03240566 1.355879 0.1250223
v -0.0483763 1.363333 0.1170485
v -0.05588405 1.389335 0.1189547
v -0.05960759 1.400298 0.1177146
v -0.03266599 1.370689 0.1282846
v -0.05153636 1.377414 0.1195549
v -0.0375526 1.382012 0.1279886
v -0.01721663 1.366913 0.1336196
vt 0.355957 0.3664551
vt 0.3320312 0.3527832
vt 0.3342285 0.362793
vt 0.3518066 0.3464355
vt 0.3205566 0.3537598
vt 0.3227539 0.3637695
vt 0.3300781 0.3427734
vt 0.3474121 0.3254395
vt 0.3044434 0.3566895
vt 0.307373 0.3662109
vt 0.2900391 0.371582
vt 0.3181152 0.3435059
vt 0.3259277 0.3205566
vt 0.3122559 0.3337402
vt 0.3303223 0.3012695
vt 0.3552246 0.3112793
vt 0.3527832 0.2973633
vt 0.3283691 0.2895508
vt 0.3103027 0.295166
vt 0.307373 0.284668
vt 0.3061523 0.3129883
vt 0.2856445 0.2888184
vt 0.282959 0.2783203
vt 0.2893066 0.3291016
vt 0.2663574 0.2861328
vt 0.2548828 0.2709961
vt 0.25 0.2705078
vt 0.2958984 0.3378906
vt 0.3022461 0.3466797
vt 0.2871094 0.3513184
vt 0.2810059 0.3398438
vt 0.2683105 0.3566895
vt 0.2702637 0.3740234
vt 0.2773438 0.329834
vt 0.2636719 0.3261719
vt 0.2785645 0.3200684
vt 0.2805176 0.3112793
vt 0.2661133 0.3381348
vt 0.25 0.3369141
vt 0.25 0.3630371
vt 0.25 0.3764648
vt 0.2298584 0.3740234
vt 0.2318115 0.3566895
vt 0.210083 0.371582
vt 0.2651367 0.3154297
vt 0.2844238 0.3022461
vt 0.2683105 0.3037109
vt 0.2680664 0.2944336
vt 0.25 0.2822266
vt 0.25 0.2902832
vt 0.25 0.3000488
vt 0.25 0.3129883
vt 0.2338867 0.2861328
vt 0.2451172 0.2709961
vt 0.217041 0.2783203
vt 0.2320557 0.2944336
vt 0.2143555 0.2888184
vt 0.1928711 0.284668
vt 0.2318115 0.3037109
vt 0.25 0.322998
vt 0.2363281 0.3261719
vt 0.2351074 0.3154297
vt 0.2155762 0.3022461
vt 0.1899414 0.295166
vt 0.1717529 0.2895508
vt 0.2194824 0.3112793
vt 0.1939697 0.3129883
vt 0.1697998 0.3012695
vt 0.1473389 0.2973633
vt 0.1447754 0.3112793
vt 0.1525879 0.3254395
vt 0.1740723 0.3205566
vt 0.2214355 0.3200684
vt 0.1700439 0.3427734
vt 0.1481934 0.3464355
vt 0.2108154 0.3291016
vt 0.1879883 0.3337402
vt 0.1679688 0.3527832
vt 0.144165 0.3664551
vt 0.1658936 0.362793
vt 0.1820068 0.3435059
vt 0.1795654 0.3537598
vt 0.1772461 0.3637695
vt 0.2226562 0.329834
vt 0.2043457 0.3378906
vt 0.1956787 0.3566895
vt 0.192749 0.3662109
vt 0.2191162 0.3398438
vt 0.197876 0.3466797
vt 0.2130127 0.3513184
vt 0.2338867 0.3381348
vn 0.9171879 -0.2801058 0.2833852
vn 0.8559132 -0.3300422 0.3981014
vn 0.8467621 -0.1956497 0.494687
vn 0.8925915 -0.3706279 0.2567399
vn 0.6119796 -0.1714121 0.7720745
vn 0.5701546 -0.002754436 0.8215328
vn 0.8340546 -0.434051 0.3405182
vn 0.8481792 -0.4853881 0.2121091
vn 0.4734106 -0.05944248 0.8788339
vn 0.433454 0.1123917 0.8941398
vn 0.4227879 0.278945 0.8622297
vn 0.6892936 -0.3405792 0.6394375
vn 0.7676537 -0.5903783 0.2493214
vn 0.7031158 -0.5124626 0.4929608
vn 0.703871 -0.6969234 0.1373438
vn 0.7654795 -0.6358779 0.0984911
vn 0.5947638 -0.8017709 -0.05847524
vn 0.5354671 -0.8423566 -0.06091272
vn 0.6647651 -0.7352968 0.1320075
vn 0.4907417 -0.8684165 -0.0708887
vn 0.689272 -0.6370571 0.3450542
vn 0.6410418 -0.7534601 0.1461623
vn 0.4467685 -0.8863963 -0.1212417
vn 0.5764175 -0.5034359 0.6436576
vn 0.3884186 -0.8987589 0.2033797
vn 0.1572378 -0.9606337 -0.2290398
vn -0 -0.9797671 -0.2001414
vn 0.520972 -0.303824 0.7976711
vn 0.5172752 -0.2156135 0.8282133
vn 0.5222926 0.03834256 0.851904
vn 0.4618305 -0.258646 0.848419
vn 0.4910071 0.04994842 0.8697224
vn 0.5016787 0.3593337 0.7868913
vn 0.443739 -0.3134091 0.8395656
vn 0.3107513 -0.3417735 0.8869185
vn 0.4623376 -0.4495788 0.7642793
vn 0.5287934 -0.5212651 0.6698211
vn 0.318465 -0.3473059 0.8820196
vn 2.005139E-07 -0.415716 0.9094945
vn -0 0.1291024 0.9916313
vn 3.569181E-07 0.4555726 0.8901986
vn -0.5016778 0.3593329 0.7868921
vn -0.4910069 0.0499482 0.8697225
vn -0.4227874 0.2789448 0.8622301
vn 0.3276192 -0.4602436 0.8251313
vn 0.6463852 -0.5934785 0.4795514
vn 0.3518011 -0.4570735 0.8168965
vn 0.4779063 -0.5481659 0.6863816
vn 1.045158E-07 -0.9177607 0.397134
vn 2.07078E-07 -0.5872027 0.8094399
vn -0 -0.4823359 0.8759863
vn 2.300062E-07 -0.4675753 0.8839533
vn -0.3884181 -0.8987586 0.2033823
vn -0.157238 -0.9606345 -0.229036
vn -0.4467683 -0.8863962 -0.1212427
vn -0.4779054 -0.5481652 0.6863828
vn -0.6410421 -0.7534603 0.1461596
vn -0.4907416 -0.8684164 -0.07089121
vn -0.3518007 -0.4570728 0.816897
vn 4.752317E-07 -0.3647649 0.9310997
vn -0.3107505 -0.3417732 0.8869188
vn -0.3276192 -0.4602436 0.8251312
vn -0.646386 -0.5934793 0.4795494
vn -0.6647653 -0.735297 0.1320059
vn -0.5354671 -0.8423565 -0.06091454
vn -0.5287946 -0.5212662 0.6698192
vn -0.6892723 -0.6370574 0.3450528
vn -0.7038711 -0.6969236 0.1373427
vn -0.5947639 -0.8017708 -0.05847566
vn -0.7654796 -0.6358778 0.09849104
vn -0.8481793 -0.4853882 0.2121087
vn -0.7676536 -0.5903784 0.2493218
vn -0.4623375 -0.4495788 0.7642794
vn -0.8340542 -0.4340508 0.3405193
vn -0.8925916 -0.370628 0.2567393
vn -0.5764173 -0.503436 0.6436577
vn -0.7031144 -0.5124618 0.4929637
vn -0.8559132 -0.3300422 0.3981012
vn -0.917188 -0.2801057 0.2833847
vn -0.8467618 -0.1956496 0.4946874
vn -0.689293 -0.3405787 0.6394383
vn -0.6119797 -0.1714123 0.7720743
vn -0.5701545 -0.002754423 0.821533
vn -0.4437385 -0.3134088 0.8395661
vn -0.5209702 -0.3038228 0.7976727
vn -0.47341 -0.05944232 0.8788342
vn -0.4334534 0.1123917 0.8941399
vn -0.46183 -0.2586458 0.8484194
vn -0.5172747 -0.2156132 0.8282137
vn -0.5222922 0.03834239 0.8519042
vn -0.3184641 -0.3473054 0.8820202
g facial_mouth_geo_0
f 3/3/3 2/2/2 1/1/1
f 2/2/2 4/4/4 1/1/1
f 2/2/2 3/3/3 5/5/5
f 3/3/3 6/6/6 5/5/5
f 2/2/2 7/7/7 4/4/4
f 8/8/8 4/4/4 7/7/7
f 5/5/5 6/6/6 9/9/9
f 6/6/6 10/10/10 9/9/9
f 11/11/11 9/9/9 10/10/10
f 2/2/2 12/12/12 7/7/7
f 2/2/2 5/5/5 12/12/12
f 8/8/8 7/7/7 13/13/13
f 7/7/7 12/12/12 14/14/14
f 13/13/13 7/7/7 14/14/14
f 8/8/8 13/13/13 15/15/15
f 15/15/15 16/16/16 8/8/8
f 17/17/17 16/16/16 15/15/15
f 18/18/18 17/17/17 15/15/15
f 18/18/18 15/15/15 19/19/19
f 19/19/19 15/15/15 13/13/13
f 20/20/20 18/18/18 19/19/19
f 13/13/13 14/14/14 21/21/21
f 13/13/13 21/21/21 19/19/19
f 20/20/20 19/19/19 22/22/22
f 21/21/21 22/22/22 19/19/19
f 23/23/23 20/20/20 22/22/22
f 24/24/24 14/14/14 12/12/12
f 14/14/14 24/24/24 21/21/21
f 25/25/25 23/23/23 22/22/22
f 25/25/25 26/26/26 23/23/23
f 26/26/26 25/25/25 27/27/27
f 12/12/12 28/28/28 24/24/24
f 28/28/28 12/12/12 5/5/5
f 5/5/5 29/29/29 28/28/28
f 5/5/5 9/9/9 29/29/29
f 30/30/30 29/29/29 9/9/9
f 11/11/11 30/30/30 9/9/9
f 28/28/28 29/29/29 31/31/31
f 29/29/29 30/30/30 31/31/31
f 30/30/30 11/11/11 32/32/32
f 32/32/32 31/31/31 30/30/30
f 11/11/11 33/33/33 32/32/32
f 24/24/24 28/28/28 34/34/34
f 28/28/28 31/31/31 34/34/34
f 35/35/35 34/34/34 31/31/31
f 24/24/24 34/34/34 36/36/36
f 36/36/36 34/34/34 35/35/35
f 24/24/24 36/36/36 37/37/37
f 24/24/24 37/37/37 21/21/21
f 32/32/32 38/38/38 31/31/31
f 31/31/31 38/38/38 35/35/35
f 32/32/32 39/39/39 38/38/38
f 38/38/38 39/39/39 35/35/35
f 40/40/40 32/32/32 33/33/33
f 32/32/32 40/40/40 39/39/39
f 41/41/41 40/40/40 33/33/33
f 40/40/40 41/41/41 42/42/42
f 43/43/43 40/40/40 42/42/42
f 40/40/40 43/43/43 39/39/39
f 42/42/42 44/44/44 43/43/43
f 36/36/36 45/45/45 37/37/37
f 45/45/45 36/36/36 35/35/35
f 21/21/21 37/37/37 46/46/46
f 22/22/22 21/21/21 46/46/46
f 46/46/46 37/37/37 47/47/47
f 45/45/45 47/47/47 37/37/37
f 48/48/48 22/22/22 46/46/46
f 46/46/46 47/47/47 48/48/48
f 25/25/25 22/22/22 48/48/48
f 25/25/25 48/48/48 49/49/49
f 25/25/25 49/49/49 27/27/27
f 47/47/47 50/50/50 48/48/48
f 48/48/48 50/50/50 49/49/49
f 47/47/47 45/45/45 51/51/51
f 47/47/47 51/51/51 50/50/50
f 45/45/45 35/35/35 52/52/52
f 45/45/45 52/52/52 51/51/51
f 49/49/49 53/53/53 27/27/27
f 53/53/53 54/54/54 27/27/27
f 54/54/54 53/53/53 55/55/55
f 50/50/50 56/56/56 49/49/49
f 56/56/56 53/53/53 49/49/49
f 55/55/55 53/53/53 57/57/57
f 57/57/57 53/53/53 56/56/56
f 58/58/58 55/55/55 57/57/57
f 51/51/51 59/59/59 50/50/50
f 50/50/50 59/59/59 56/56/56
f 35/35/35 60/60/60 52/52/52
f 60/60/60 61/61/61 52/52/52
f 60/60/60 35/35/35 39/39/39
f 61/61/61 60/60/60 39/39/39
f 52/52/52 62/62/62 51/51/51
f 62/62/62 59/59/59 51/51/51
f 61/61/61 62/62/62 52/52/52
f 59/59/59 63/63/63 56/56/56
f 57/57/57 56/56/56 63/63/63
f 64/64/64 58/58/58 57/57/57
f 65/65/65 58/58/58 64/64/64
f 59/59/59 62/62/62 66/66/66
f 66/66/66 63/63/63 59/59/59
f 67/67/67 57/57/57 63/63/63
f 57/57/57 67/67/67 64/64/64
f 66/66/66 67/67/67 63/63/63
f 68/68/68 65/65/65 64/64/64
f 69/69/69 65/65/65 68/68/68
f 70/70/70 69/69/69 68/68/68
f 70/70/70 68/68/68 71/71/71
f 68/68/68 64/64/64 72/72/72
f 72/72/72 71/71/71 68/68/68
f 67/67/67 72/72/72 64/64/64
f 62/62/62 73/73/73 66/66/66
f 73/73/73 62/62/62 61/61/61
f 74/74/74 71/71/71 72/72/72
f 75/75/75 71/71/71 74/74/74
f 66/66/66 76/76/76 67/67/67
f 73/73/73 76/76/76 66/66/66
f 77/77/77 72/72/72 67/67/67
f 74/74/74 72/72/72 77/77/77
f 76/76/76 77/77/77 67/67/67
f 74/74/74 78/78/78 75/75/75
f 75/75/75 78/78/78 79/79/79
f 78/78/78 80/80/80 79/79/79
f 81/81/81 74/74/74 77/77/77
f 81/81/81 78/78/78 74/74/74
f 77/77/77 76/76/76 81/81/81
f 80/80/80 78/78/78 82/82/82
f 82/82/82 78/78/78 81/81/81
f 83/83/83 80/80/80 82/82/82
f 84/84/84 76/76/76 73/73/73
f 84/84/84 73/73/73 61/61/61
f 85/85/85 81/81/81 76/76/76
f 85/85/85 76/76/76 84/84/84
f 81/81/81 85/85/85 82/82/82
f 83/83/83 82/82/82 86/86/86
f 87/87/87 83/83/83 86/86/86
f 86/86/86 44/44/44 87/87/87
f 84/84/84 61/61/61 88/88/88
f 88/88/88 85/85/85 84/84/84
f 89/89/89 82/82/82 85/85/85
f 86/86/86 82/82/82 89/89/89
f 89/89/89 85/85/85 88/88/88
f 90/90/90 44/44/44 86/86/86
f 89/89/89 90/90/90 86/86/86
f 90/90/90 89/89/89 88/88/88
f 44/44/44 90/90/90 43/43/43
f 88/88/88 43/43/43 90/90/90
f 91/91/91 88/88/88 61/61/61
f 91/91/91 43/43/43 88/88/88
f 39/39/39 91/91/91 61/61/61
f 39/39/39 43/43/43 91/91/91
