g water_geo
v -1.171869E-07 0.1103662 3.916395E-08
v -8.723912E-08 0.1103662 -0.4441732
v 0.2220866 0.1103662 -0.3846652
v 0.3846653 0.1103662 -0.2220866
v 0.4441735 0.1103662 -3.375233E-08
v -1.171869E-07 0.1103662 3.916395E-08
v -0.2220867 0.1103662 -0.3846653
v -8.723912E-08 0.1103662 -0.4441732
v -0.3846655 0.1103662 -0.2220867
v -0.4441735 0.1103662 -5.979386E-08
v -1.171869E-07 0.1103662 3.916395E-08
v -0.3846655 0.1103662 0.2220867
v -0.4441735 0.1103662 -5.979386E-08
v -0.2220869 0.1103662 0.3846656
v -1.484367E-07 0.1103662 0.4441736
v -1.171869E-07 0.1103662 3.916395E-08
v 0.2220866 0.1103662 0.3846657
v -1.484367E-07 0.1103662 0.4441736
v 0.3846654 0.1103662 0.2220867
v 0.4441735 0.1103662 -3.375233E-08
vt 0.7626953 0.9853516
vt 0.7626953 0.7631836
vt 0.8730469 0.7929688
vt 0.9541016 0.8740234
vt 0.9838867 0.9853516
vt 0.7626953 0.9853516
vt 0.8730469 0.7929688
vt 0.7626953 0.7631836
vt 0.9541016 0.8740234
vt 0.9838867 0.9853516
vt 0.7626953 0.9853516
vt 0.9541016 0.8740234
vt 0.9838867 0.9853516
vt 0.8730469 0.7929688
vt 0.7626953 0.7631836
vt 0.7626953 0.9853516
vt 0.8730469 0.7929688
vt 0.7626953 0.7631836
vt 0.9541016 0.8740234
vt 0.9838867 0.9853516
vn -0 1 0
vn -0 1 0
vn -0 1 0
vn -0 1 0
vn -0 1 0
vn -0 1 0
vn -0 1 0
vn -0 1 0
vn -0 1 0
vn -0 1 0
vn -0 1 0
vn -0 1 0
vn -0 1 0
vn -0 1 0
vn -0 1 0
vn -0 1 0
vn -0 1 0
vn -0 1 0
vn -0 1 0
vn -0 1 0
g water_geo_0
f 3/3/3 2/2/2 1/1/1
f 4/4/4 3/3/3 1/1/1
f 5/5/5 4/4/4 1/1/1
f 8/8/8 7/7/7 6/6/6
f 7/7/7 9/9/9 6/6/6
f 9/9/9 10/10/10 6/6/6
f 13/13/13 12/12/12 11/11/11
f 12/12/12 14/14/14 11/11/11
f 14/14/14 15/15/15 11/11/11
f 18/18/18 17/17/17 16/16/16
f 17/17/17 19/19/19 16/16/16
f 19/19/19 20/20/20 16/16/16
