g head_geo
v 0.1097313 1.705045 0.07897944
v 0.1185596 1.68042 0.0531712
v 0.1094365 1.680054 0.08237236
v 0.1111338 1.643447 0.05354953
v 0.1066981 1.64958 0.08202554
v 0.1138983 1.644162 0.03332715
v 0.1026549 1.593291 0.04952625
v 0.1028377 1.621611 0.07754299
v 0.09840914 1.603188 0.07346695
v 0.09514949 1.581853 0.06519905
v 0.1022274 1.588816 0.03315381
v 0.09057663 1.562147 0.05610214
v 0.09218087 1.550159 0.02622485
v 0.1020142 1.582825 0.02189282
v 0.1018011 1.589599 0.008348461
v 0.08449286 1.542152 0.01574167
v 0.06814632 1.542979 0.007082329
v 0.0832541 1.538093 0.04353605
v 0.07507548 1.53049 0.03582692
v 0.04793461 1.522148 0.04193405
v 0.06976162 1.527929 0.05975313
v 0.07894881 1.548125 0.07332555
v 0.06151086 1.520558 0.05269884
v 0.05656835 1.518493 0.07482605
v 0.05931889 1.532205 0.09019917
v 0.04935506 1.513026 0.06622183
v 0.04016865 1.507662 0.09202056
v 0.04005511 1.517942 0.1055424
v 0.035929 1.512359 0.06042784
v -0 1.50413 0.0667427
v 0.03774546 1.504538 0.08114955
v 0.0238668 1.502991 0.1183239
v 0.02274487 1.512452 0.1215838
v 0.01581716 1.502243 0.08199012
v 0.0236463 1.496138 0.1118634
v -0 1.500291 0.1210825
v -0 1.511291 0.1260989
v -0.02274487 1.512452 0.1215838
v 0.02350811 1.495039 0.1006829
v -0 1.493747 0.1151591
v -0.0238668 1.502991 0.1183239
v -0.04005511 1.517942 0.1055424
v -0 1.500617 0.08260661
v -0 1.493834 0.1017393
v -0.04016865 1.507662 0.09202056
v -0.05931889 1.532205 0.09019917
v -0.0236463 1.496138 0.1118634
v -0.02350811 1.495039 0.1006829
v -0.01581716 1.502243 0.08199012
v -0.03774546 1.504538 0.08114955
v -0.05656835 1.518493 0.07482605
v -0.07894881 1.548125 0.07332554
v -0.04935506 1.513026 0.06622183
v -0.035929 1.512359 0.06042784
v -0.04793461 1.522148 0.04193405
v -0.06151086 1.520558 0.05269884
v -0.06976162 1.527929 0.05975313
v -0.09057663 1.562147 0.05610214
v -0.07507548 1.53049 0.03582692
v -0.06814632 1.542979 0.007082329
v -0.0832541 1.538093 0.04353605
v -0.08449286 1.542152 0.01574167
v -0.1018011 1.589599 0.008348461
v -0.09218087 1.550159 0.02622485
v -0.1020142 1.582825 0.02189282
v -0.1022274 1.588816 0.03315381
v -0.1026549 1.593291 0.04952625
v -0.09514949 1.581853 0.06519905
v -0.09840914 1.603188 0.07346695
v -0.1138983 1.644162 0.03332715
v -0.1028377 1.621611 0.07754299
v -0.1111338 1.643447 0.05354953
v -0.1066981 1.64958 0.08202554
v -0.1185596 1.68042 0.0531712
v -0.1094365 1.680054 0.08237236
v -0.1097313 1.705045 0.07897944
v -0.06814632 1.542979 0.007082329
v -0.05997752 1.541434 -0.02503779
v -0.1018011 1.589599 0.008348461
v -0.06563702 1.485969 0.0006106911
v -0.06314948 1.491323 -0.03197681
v -0.05058209 1.480244 0.03545162
v -0.03881217 1.543474 -0.0594935
v -0.03704514 1.496267 -0.06206823
v -2.8885E-18 1.498336 -0.07465956
v 6.004742E-18 1.548961 -0.07971002
v -0.04793461 1.522148 0.04193405
v -1.249955E-17 1.477984 0.0492035
v 1.431271E-17 1.500443 0.05195378
v -0 1.50413 0.0667427
v 0.04793461 1.522148 0.04193405
v 0.05058209 1.480244 0.03545162
v 0.06814632 1.542979 0.007082329
v 0.06563702 1.485969 0.0006106911
v 0.05997752 1.541434 -0.02503779
v 0.1018011 1.589599 0.008348461
v 0.06314948 1.491323 -0.03197681
v 0.03881217 1.543474 -0.0594935
v 0.03704514 1.496267 -0.06206823
v -2.8885E-18 1.498336 -0.07465956
v 6.004742E-18 1.548961 -0.07971002
v -0.1089929 1.57814 0.01631206
v -0.1020142 1.582825 0.02189282
v -0.1018011 1.589599 0.008348461
v -0.1022274 1.588816 0.03315381
v -0.1233782 1.582388 0.001269875
v -0.1104017 1.613708 -0.00905241
v -0.1349711 1.649845 0.01142261
v -0.1138983 1.644162 0.03332715
v -0.1333371 1.656286 0.00866544
v -0.1179831 1.654768 -0.001058972
v -0.1406351 1.645057 0.002672055
v -0.1402347 1.650912 -0.003900775
v -0.118204 1.638361 -0.008921511
v -0.1406355 1.639729 -0.01150567
v -0.1368586 1.610938 -0.01065999
v -0.1334477 1.612113 -0.000376753
v -0.142019 1.636345 -0.003895479
v 0.1089929 1.57814 0.01631206
v 0.1020142 1.582825 0.02189282
v 0.1022274 1.588816 0.03315381
v 0.1018011 1.589599 0.008348461
v 0.1349711 1.649845 0.01142261
v 0.1138983 1.644162 0.03332715
v 0.1333371 1.656286 0.00866544
v 0.1179831 1.654768 -0.001058972
v 0.1406351 1.645057 0.002672055
v 0.1402347 1.650912 -0.003900775
v 0.118204 1.638361 -0.008921511
v 0.1406355 1.639729 -0.01150567
v 0.1104017 1.613708 -0.00905241
v 0.1233782 1.582388 0.001269875
v 0.1334477 1.612113 -0.0003767537
v 0.1368586 1.610938 -0.01065999
v 0.142019 1.636345 -0.003895479
vt 0.3688965 0.4436035
vt 0.3991699 0.4250488
vt 0.3688965 0.4272461
vt 0.3964844 0.3842773
vt 0.3688965 0.3962402
vt 0.416748 0.3813477
vt 0.3967285 0.3239746
vt 0.3688965 0.3654785
vt 0.3688965 0.3469238
vt 0.3688965 0.3144531
vt 0.416748 0.3129883
vt 0.3688965 0.2912598
vt 0.3969727 0.2634277
vt 0.4248047 0.2954102
vt 0.4443359 0.2954102
vt 0.4006348 0.2454834
vt 0.409668 0.223877
vt 0.3703613 0.2570801
vt 0.3708496 0.2401123
vt 0.3444824 0.2102051
vt 0.3442383 0.2519531
vt 0.3447266 0.2851562
vt 0.342041 0.2346191
vt 0.3200684 0.25
vt 0.3166504 0.2770996
vt 0.3178711 0.2341309
vt 0.2939453 0.2509766
vt 0.2919922 0.2717285
vt 0.3088379 0.2171631
vt 0.2496338 0.1983643
vt 0.2949219 0.2373047
vt 0.2712402 0.2614746
vt 0.2714844 0.2705078
vt 0.2695312 0.2219238
vt 0.2700195 0.2529297
vt 0.2504883 0.2602539
vt 0.2507324 0.2700195
vt 0.229248 0.2709961
vt 0.2719727 0.2437744
vt 0.2502441 0.2519531
vt 0.2293701 0.2619629
vt 0.2084961 0.2724609
vt 0.2497559 0.2188721
vt 0.25 0.2390137
vt 0.2064209 0.2519531
vt 0.18396 0.2785645
vt 0.2304688 0.253418
vt 0.2281494 0.2441406
vt 0.2302246 0.22229
vt 0.2050781 0.2382812
vt 0.1801758 0.251709
vt 0.15625 0.2873535
vt 0.182251 0.2355957
vt 0.190918 0.2185059
vt 0.1552734 0.2122803
vt 0.1580811 0.2365723
vt 0.15625 0.2539062
vt 0.1328125 0.2941895
vt 0.1298828 0.2427979
vt 0.09106445 0.227417
vt 0.1308594 0.2597656
vt 0.100769 0.2487793
vt 0.0581665 0.2993164
vt 0.1049805 0.2663574
vt 0.07763672 0.2993164
vt 0.08526611 0.3161621
vt 0.1057739 0.3266602
vt 0.1328125 0.3173828
vt 0.1328125 0.3483887
vt 0.08526611 0.3833008
vt 0.1328125 0.3671875
vt 0.1054077 0.3862305
vt 0.1328125 0.3977051
vt 0.102417 0.427002
vt 0.1328125 0.4291992
vt 0.1328125 0.4460449
vt 0.1535645 0.07037354
vt 0.1177368 0.06427002
vt 0.1530762 0.1357422
vt 0.1572266 0.005527496
vt 0.1210938 0.005527496
vt 0.1976318 0.005527496
vt 0.07409668 0.06427002
vt 0.07580566 0.005527496
vt 0.02694702 0.005527496
vt 0.0272522 0.06427002
vt 0.1983643 0.05249023
vt 0.2497559 0.005527496
vt 0.2497559 0.03262329
vt 0.2497559 0.04925537
vt 0.3012695 0.05249023
vt 0.302002 0.005527496
vt 0.3459473 0.07037354
vt 0.3422852 0.005527496
vt 0.3818359 0.06427002
vt 0.3466797 0.1357422
vt 0.378418 0.005527496
vt 0.4255371 0.06427002
vt 0.4238281 0.005527496
vt 0.4726562 0.005527496
vt 0.4724121 0.06427002
vt 0.08026123 0.09466553
vt 0.08953857 0.09057617
vt 0.0637207 0.0826416
vt 0.104126 0.09899902
vt 0.06008911 0.1043091
vt 0.02720642 0.1179199
vt 0.07269287 0.168335
vt 0.1036987 0.1677246
vt 0.06848145 0.1740723
vt 0.05615234 0.1896973
vt 0.06222534 0.1634521
vt 0.05548096 0.1689453
vt 0.02720642 0.166748
vt 0.04840088 0.1584473
vt 0.04574585 0.1324463
vt 0.05795288 0.1324463
vt 0.0552063 0.1556396
vt 0.4191895 0.09466553
vt 0.4099121 0.09063721
vt 0.3952637 0.09906006
vt 0.435791 0.0826416
vt 0.4267578 0.168335
vt 0.3952637 0.1678467
vt 0.4311523 0.1740723
vt 0.4433594 0.1896973
vt 0.4372559 0.1634521
vt 0.4440918 0.1689453
vt 0.472168 0.166748
vt 0.4511719 0.1584473
vt 0.472168 0.1179199
vt 0.4394531 0.1043091
vt 0.4414062 0.1324463
vt 0.4536133 0.1324463
vt 0.4443359 0.1555176
vn 0.9712199 0.03993187 0.2348136
vn 0.9632171 -0.1249331 0.2379166
vn 0.9671242 -0.1033621 0.2323512
vn 0.9720626 -0.1727412 0.1589168
vn 0.9390385 -0.2249763 0.2599856
vn 0.9114272 -0.1380873 0.3875984
vn 0.9672369 -0.2202363 0.1262875
vn 0.9355162 -0.1931609 0.2958012
vn 0.9168217 -0.2426827 0.3170852
vn 0.9203008 -0.2920943 0.2602447
vn 0.9285998 -0.2392972 0.2836182
vn 0.9035647 -0.3653036 0.2238841
vn 0.9015408 -0.4244612 -0.08400571
vn 0.8826663 -0.4395264 -0.1664836
vn 0.4334996 -0.6267408 -0.6475138
vn 0.6441279 -0.5546789 -0.5267167
vn 0.9661836 -0.2532243 -0.04864895
vn 0.7972071 -0.5838991 0.1533713
vn 0.4654559 -0.8563579 -0.2236114
vn 0.7598692 -0.3013911 0.5759881
vn 0.7276418 -0.6595209 0.1885991
vn 0.8172133 -0.4915897 0.3008354
vn 0.43087 -0.889149 -0.1541597
vn 0.6965306 -0.6849632 0.2137069
vn 0.7304361 -0.5082226 0.4562595
vn 0.3609396 -0.9117646 -0.1959794
vn 0.6972068 -0.6812255 0.2232365
vn 0.7437779 -0.4383179 0.5046503
vn 0.1485146 -0.91998 -0.3627398
vn -0 -0.9985217 -0.05435321
vn 0.3497511 -0.9163995 -0.1946433
vn 0.4122162 -0.4847587 0.7714188
vn 0.3477313 -0.1783044 0.9204839
vn 0.1005781 -0.9363678 -0.3363025
vn 0.3652748 -0.8678384 0.3367949
vn -0 -0.5220661 0.852905
vn 2.529577E-07 -0.2055023 0.9786566
vn -0.3477304 -0.1783041 0.9204842
vn 0.2724266 -0.9544544 -0.1216579
vn -0 -0.9237995 0.3828768
vn -0.4122152 -0.484758 0.7714198
vn -0.7437778 -0.4383179 0.5046505
vn -0 -0.9457456 -0.324908
vn -0 -0.9823943 -0.186819
vn -0.6972068 -0.6812255 0.2232365
vn -0.7304364 -0.5082226 0.4562592
vn -0.3652745 -0.8678382 0.3367958
vn -0.2724266 -0.9544543 -0.1216584
vn -0.100578 -0.9363672 -0.3363043
vn -0.3497513 -0.9163991 -0.1946451
vn -0.6965308 -0.6849633 0.213706
vn -0.8172135 -0.4915899 0.3008343
vn -0.3609398 -0.911764 -0.1959818
vn -0.1485146 -0.9199792 -0.3627418
vn -0.7598695 -0.3013909 0.5759877
vn -0.4308701 -0.8891487 -0.1541609
vn -0.7276418 -0.6595209 0.188599
vn -0.903565 -0.3653035 0.2238833
vn -0.4654558 -0.8563578 -0.2236114
vn -0.9661836 -0.2532244 -0.04864969
vn -0.7972069 -0.583899 0.1533725
vn -0.6441284 -0.5546792 -0.5267158
vn -0.4335007 -0.6267401 -0.6475138
vn -0.90754 -0.4134313 -0.07379563
vn -0.8826666 -0.4395266 -0.1664809
vn -0.9243445 -0.2499876 0.2882593
vn -0.9676332 -0.2224662 0.119141
vn -0.9203008 -0.2920943 0.2602447
vn -0.9168216 -0.2426825 0.3170857
vn -0.9114277 -0.1380876 0.387597
vn -0.9355162 -0.1931608 0.2958013
vn -0.9720628 -0.1727413 0.1589165
vn -0.9390385 -0.2249762 0.2599854
vn -0.9632171 -0.124933 0.2379167
vn -0.9671242 -0.1033621 0.2323511
vn -0.9712198 0.03993192 0.2348139
vn -0.9661836 -0.2532244 -0.04864969
vn -0.930682 -0.02919852 -0.3646624
vn -0.4335007 -0.6267401 -0.6475138
vn -0.9845672 -0.0196049 0.1739054
vn -0.9202836 0.04935859 -0.3881259
vn -0.677092 -0.09536811 0.7296927
vn -0.6179511 0.01837923 -0.7860016
vn -0.6252447 0.02012091 -0.7801694
vn -2.323472E-07 -0.03303991 -0.9994541
vn -2.013656E-07 -0.03303991 -0.9994541
vn -0.7598695 -0.3013909 0.5759877
vn 1.324941E-07 -0.1310593 0.9913746
vn 1.111003E-07 -0.291607 0.9565383
vn -0 -0.9985217 -0.05435321
vn 0.7598692 -0.3013911 0.5759881
vn 0.6770917 -0.09536812 0.7296928
vn 0.9661836 -0.2532243 -0.04864895
vn 0.9845672 -0.01960487 0.1739058
vn 0.9306821 -0.02919856 -0.3646619
vn 0.4334996 -0.6267408 -0.6475138
vn 0.9202837 0.04935857 -0.3881256
vn 0.6179513 0.01837924 -0.7860016
vn 0.6252447 0.02012092 -0.7801692
vn -2.323472E-07 -0.03303991 -0.9994541
vn -2.013656E-07 -0.03303991 -0.9994541
vn -0.7511777 -0.465154 0.468363
vn -0.8826666 -0.4395266 -0.1664809
vn -0.4335007 -0.6267401 -0.6475138
vn -0.9243445 -0.2499876 0.2882593
vn -0.4198365 -0.7975311 -0.4332223
vn 0.1431307 -0.1714507 -0.9747401
vn -0.7781162 -0.08036202 0.6229585
vn -0.9114277 -0.1380876 0.387597
vn -0.149869 0.9612312 0.2314602
vn 0.1538538 0.9342325 -0.3217743
vn -0.8563796 -0.09575262 0.5073909
vn -0.482552 0.677269 -0.555383
vn 0.08311091 0.09300319 -0.992191
vn -0.2737226 0.08026806 -0.9584535
vn -0.2644998 -0.2063371 -0.9420536
vn -0.8313292 -0.2363588 0.5030172
vn -0.972336 -0.1591576 0.1709727
vn 0.7511774 -0.4651543 0.4683631
vn 0.8826663 -0.4395264 -0.1664836
vn 0.9285998 -0.2392972 0.2836182
vn 0.4334996 -0.6267408 -0.6475138
vn 0.7781151 -0.08036136 0.62296
vn 0.9114272 -0.1380873 0.3875984
vn 0.1498695 0.9612316 0.231458
vn -0.1538537 0.9342318 -0.3217763
vn 0.8563784 -0.09575189 0.5073929
vn 0.4825522 0.6772685 -0.5553834
vn -0.08311086 0.09300301 -0.992191
vn 0.273723 0.08026814 -0.9584534
vn -0.1431311 -0.1714515 -0.9747399
vn 0.4198352 -0.7975327 -0.4332204
vn 0.8313293 -0.2363585 0.5030172
vn 0.2645001 -0.2063378 -0.9420533
vn 0.972336 -0.1591577 0.1709726
g head_geo_0
f 3/3/3 2/2/2 1/1/1
f 4/4/4 2/2/2 3/3/3
f 5/5/5 4/4/4 3/3/3
f 4/4/4 6/6/6 2/2/2
f 6/6/6 4/4/4 7/7/7
f 5/5/5 8/8/8 4/4/4
f 8/8/8 7/7/7 4/4/4
f 8/8/8 9/9/9 7/7/7
f 9/9/9 10/10/10 7/7/7
f 11/11/11 6/6/6 7/7/7
f 7/7/7 10/10/10 12/12/12
f 13/13/13 11/11/11 7/7/7
f 12/12/12 13/13/13 7/7/7
f 14/14/14 11/11/11 13/13/13
f 14/14/14 13/13/13 15/15/15
f 13/13/13 16/16/16 15/15/15
f 15/15/15 16/16/16 17/17/17
f 12/12/12 18/18/18 13/13/13
f 16/16/16 13/13/13 18/18/18
f 17/17/17 16/16/16 19/19/19
f 19/19/19 16/16/16 18/18/18
f 19/19/19 20/20/20 17/17/17
f 18/18/18 12/12/12 21/21/21
f 19/19/19 18/18/18 21/21/21
f 22/22/22 21/21/21 12/12/12
f 23/23/23 19/19/19 21/21/21
f 19/19/19 23/23/23 20/20/20
f 21/21/21 22/22/22 24/24/24
f 23/23/23 21/21/21 24/24/24
f 25/25/25 24/24/24 22/22/22
f 23/23/23 26/26/26 20/20/20
f 26/26/26 23/23/23 24/24/24
f 25/25/25 27/27/27 24/24/24
f 26/26/26 24/24/24 27/27/27
f 27/27/27 25/25/25 28/28/28
f 26/26/26 29/29/29 20/20/20
f 20/20/20 29/29/29 30/30/30
f 29/29/29 26/26/26 31/31/31
f 31/31/31 26/26/26 27/27/27
f 27/27/27 28/28/28 32/32/32
f 33/33/33 32/32/32 28/28/28
f 29/29/29 34/34/34 30/30/30
f 34/34/34 29/29/29 31/31/31
f 27/27/27 35/35/35 31/31/31
f 35/35/35 27/27/27 32/32/32
f 32/32/32 33/33/33 36/36/36
f 33/33/33 37/37/37 36/36/36
f 37/37/37 38/38/38 36/36/36
f 31/31/31 39/39/39 34/34/34
f 35/35/35 39/39/39 31/31/31
f 32/32/32 36/36/36 40/40/40
f 35/35/35 32/32/32 40/40/40
f 38/38/38 41/41/41 36/36/36
f 36/36/36 41/41/41 40/40/40
f 41/41/41 38/38/38 42/42/42
f 43/43/43 34/34/34 39/39/39
f 34/34/34 43/43/43 30/30/30
f 39/39/39 35/35/35 44/44/44
f 35/35/35 40/40/40 44/44/44
f 44/44/44 43/43/43 39/39/39
f 42/42/42 45/45/45 41/41/41
f 46/46/46 45/45/45 42/42/42
f 41/41/41 47/47/47 40/40/40
f 40/40/40 47/47/47 44/44/44
f 45/45/45 47/47/47 41/41/41
f 43/43/43 44/44/44 48/48/48
f 47/47/47 48/48/48 44/44/44
f 43/43/43 49/49/49 30/30/30
f 49/49/49 43/43/43 48/48/48
f 48/48/48 47/47/47 50/50/50
f 47/47/47 45/45/45 50/50/50
f 49/49/49 48/48/48 50/50/50
f 45/45/45 46/46/46 51/51/51
f 51/51/51 46/46/46 52/52/52
f 53/53/53 50/50/50 45/45/45
f 50/50/50 53/53/53 49/49/49
f 51/51/51 53/53/53 45/45/45
f 49/49/49 54/54/54 30/30/30
f 53/53/53 54/54/54 49/49/49
f 54/54/54 55/55/55 30/30/30
f 54/54/54 53/53/53 56/56/56
f 56/56/56 53/53/53 51/51/51
f 55/55/55 54/54/54 56/56/56
f 52/52/52 57/57/57 51/51/51
f 57/57/57 56/56/56 51/51/51
f 57/57/57 52/52/52 58/58/58
f 55/55/55 56/56/56 59/59/59
f 59/59/59 56/56/56 57/57/57
f 60/60/60 55/55/55 59/59/59
f 61/61/61 59/59/59 57/57/57
f 58/58/58 61/61/61 57/57/57
f 59/59/59 62/62/62 60/60/60
f 62/62/62 59/59/59 61/61/61
f 60/60/60 62/62/62 63/63/63
f 64/64/64 62/62/62 61/61/61
f 62/62/62 64/64/64 63/63/63
f 61/61/61 58/58/58 64/64/64
f 64/64/64 65/65/65 63/63/63
f 64/64/64 66/66/66 65/65/65
f 66/66/66 64/64/64 58/58/58
f 58/58/58 67/67/67 66/66/66
f 68/68/68 67/67/67 58/58/58
f 68/68/68 69/69/69 67/67/67
f 70/70/70 66/66/66 67/67/67
f 69/69/69 71/71/71 67/67/67
f 72/72/72 70/70/70 67/67/67
f 67/67/67 71/71/71 72/72/72
f 71/71/71 73/73/73 72/72/72
f 70/70/70 72/72/72 74/74/74
f 72/72/72 73/73/73 75/75/75
f 74/74/74 72/72/72 75/75/75
f 74/74/74 75/75/75 76/76/76
f 79/79/79 78/78/78 77/77/77
f 80/80/80 77/77/77 78/78/78
f 81/81/81 80/80/80 78/78/78
f 80/80/80 82/82/82 77/77/77
f 81/81/81 78/78/78 83/83/83
f 84/84/84 81/81/81 83/83/83
f 84/84/84 83/83/83 85/85/85
f 83/83/83 86/86/86 85/85/85
f 82/82/82 87/87/87 77/77/77
f 82/82/82 88/88/88 87/87/87
f 88/88/88 89/89/89 87/87/87
f 87/87/87 89/89/89 90/90/90
f 89/89/89 91/91/91 90/90/90
f 89/89/89 88/88/88 91/91/91
f 88/88/88 92/92/92 91/91/91
f 91/91/91 92/92/92 93/93/93
f 92/92/92 94/94/94 93/93/93
f 93/93/93 94/94/94 95/95/95
f 93/93/93 95/95/95 96/96/96
f 94/94/94 97/97/97 95/95/95
f 95/95/95 97/97/97 98/98/98
f 97/97/97 99/99/99 98/98/98
f 98/98/98 99/99/99 100/100/100
f 101/101/101 98/98/98 100/100/100
f 104/104/104 103/103/103 102/102/102
f 103/103/103 105/105/105 102/102/102
f 102/102/102 106/106/106 104/104/104
f 106/106/106 107/107/107 104/104/104
f 105/105/105 108/108/108 102/102/102
f 109/109/109 108/108/108 105/105/105
f 108/108/108 109/109/109 110/110/110
f 110/110/110 109/109/109 111/111/111
f 102/102/102 108/108/108 112/112/112
f 112/112/112 108/108/108 110/110/110
f 111/111/111 113/113/113 110/110/110
f 113/113/113 112/112/112 110/110/110
f 114/114/114 113/113/113 111/111/111
f 115/115/115 113/113/113 114/114/114
f 115/115/115 114/114/114 107/107/107
f 113/113/113 115/115/115 112/112/112
f 106/106/106 116/116/116 107/107/107
f 116/116/116 115/115/115 107/107/107
f 102/102/102 117/117/117 106/106/106
f 112/112/112 117/117/117 102/102/102
f 117/117/117 116/116/116 106/106/106
f 115/115/115 118/118/118 112/112/112
f 115/115/115 116/116/116 118/118/118
f 118/118/118 117/117/117 112/112/112
f 116/116/116 117/117/117 118/118/118
f 121/121/121 120/120/120 119/119/119
f 120/120/120 122/122/122 119/119/119
f 123/123/123 121/121/121 119/119/119
f 123/123/123 124/124/124 121/121/121
f 124/124/124 123/123/123 125/125/125
f 124/124/124 125/125/125 126/126/126
f 123/123/123 127/127/127 125/125/125
f 123/123/123 119/119/119 127/127/127
f 128/128/128 126/126/126 125/125/125
f 127/127/127 128/128/128 125/125/125
f 128/128/128 129/129/129 126/126/126
f 128/128/128 130/130/130 129/129/129
f 130/130/130 128/128/128 127/127/127
f 129/129/129 130/130/130 131/131/131
f 131/131/131 132/132/132 122/122/122
f 132/132/132 119/119/119 122/122/122
f 133/133/133 127/127/127 119/119/119
f 133/133/133 119/119/119 132/132/132
f 134/134/134 132/132/132 131/131/131
f 130/130/130 134/134/134 131/131/131
f 134/134/134 133/133/133 132/132/132
f 133/133/133 135/135/135 127/127/127
f 135/135/135 130/130/130 127/127/127
f 134/134/134 130/130/130 135/135/135
f 133/133/133 134/134/134 135/135/135
