g facial_eye_geo
v -0.091204 1.400477 0.077767
v -0.07882109 1.38311 0.09811
v -0.086925 1.381571 0.071463
v -0.082839 1.401682 0.099257
v -0.095165 1.421829 0.081737
v -0.0700443 1.382931 0.108956
v -0.08532999 1.41913 0.09751199
v -0.098799 1.448778 0.08329
v -0.073569 1.401947 0.107473
v -0.054527 1.382338 0.118987
v -0.07599699 1.418568 0.104462
v -0.092705 1.448719 0.100848
v -0.062697 1.4178 0.110484
v -0.059758 1.402564 0.115905
v -0.040832 1.404103 0.124805
v -0.037786 1.381931 0.127989
v -0.019103 1.385926 0.142476
v -0.039583 1.419689 0.117405
v -0.020623 1.405689 0.13459
v -0 1.390698 0.154538
v -0.020165 1.424891 0.124116
v -0 1.407625 0.141607
v 0.020623 1.405689 0.13459
v 0.019103 1.385926 0.142476
v 0.037786 1.381931 0.127989
v -0 1.425181 0.135045
v 0.040832 1.404103 0.124805
v 0.054527 1.382338 0.118987
v -0.069337 1.461205 0.113725
v -0.075045 1.473304 0.123213
v -0.022737 1.441733 0.123036
v -0 1.442126 0.13694
v 0.020165 1.424891 0.124116
v -0.040163 1.449125 0.122354
v -0.040307 1.456464 0.125792
v 0.022737 1.441733 0.123036
v 0.039583 1.419689 0.117405
v -0.020904 1.449923 0.131476
v -0.04983 1.468124 0.132339
v -0.023479 1.459766 0.13859
v 0.059758 1.402564 0.115905
v -0.050567 1.492417 0.136271
v -0.078901 1.495394 0.12255
v -0.096241 1.49283 0.10108
v -0.095943 1.473394 0.102949
v -0.101438 1.4629 0.081726
v -0.02408 1.486707 0.141834
v -0 1.461069 0.141194
v -0 1.483322 0.143677
v 0.02408 1.486707 0.141834
v 0.023479 1.459766 0.13859
v 0.020904 1.449923 0.131476
v 0.04983 1.468124 0.132339
v 0.050567 1.492417 0.136271
v 0.078901 1.495394 0.12255
v 0.040307 1.456464 0.125792
v 0.075045 1.473304 0.123213
v 0.096241 1.49283 0.10108
v 0.095943 1.473394 0.102949
v 0.040163 1.449125 0.122354
v 0.069337 1.461205 0.113725
v 0.062697 1.4178 0.110484
v 0.092705 1.448719 0.100848
v 0.07599699 1.418568 0.104462
v 0.098799 1.448778 0.08329
v 0.101438 1.4629 0.081726
v 0.08532999 1.41913 0.09751199
v 0.095165 1.421829 0.081737
v 0.091204 1.400477 0.077767
v 0.073569 1.401947 0.107473
v 0.0700443 1.382931 0.108956
v 0.082839 1.401682 0.099257
v 0.07882109 1.38311 0.09811
v 0.086925 1.381571 0.071463
vt 0.1514893 0.3662109
vt 0.1740723 0.3525391
vt 0.1520996 0.3466797
vt 0.1700439 0.3693848
vt 0.1494141 0.387207
vt 0.1849365 0.3522949
vt 0.1650391 0.385498
vt 0.1429443 0.4125977
vt 0.1795654 0.3693848
vt 0.1993408 0.3510742
vt 0.1745605 0.3842773
vt 0.1584473 0.4125977
vt 0.1876221 0.3837891
vt 0.1928711 0.369873
vt 0.2103271 0.3710938
vt 0.2143555 0.3508301
vt 0.2316895 0.3566895
vt 0.2086182 0.385498
vt 0.2290039 0.3740234
vt 0.25 0.3630371
vt 0.2277832 0.3908691
vt 0.25 0.3769531
vt 0.2709961 0.3740234
vt 0.2683105 0.3566895
vt 0.2856445 0.3508301
vt 0.25 0.3911133
vt 0.2897949 0.3710938
vt 0.3007812 0.3510742
vt 0.1828613 0.4243164
vt 0.1798096 0.4375
vt 0.2252197 0.4052734
vt 0.25 0.4060059
vt 0.2722168 0.3908691
vt 0.2094727 0.4133301
vt 0.2098389 0.420166
vt 0.2749023 0.4052734
vt 0.2915039 0.385498
vt 0.2285156 0.4125977
vt 0.2034912 0.4350586
vt 0.2280273 0.4267578
vt 0.3071289 0.369873
vt 0.2019043 0.453125
vt 0.178833 0.4562988
vt 0.1577148 0.4536133
vt 0.1582031 0.4355469
vt 0.1402588 0.4257812
vt 0.2268066 0.4477539
vt 0.25 0.4240723
vt 0.25 0.4445801
vt 0.2731934 0.4477539
vt 0.2719727 0.4267578
vt 0.2714844 0.4125977
vt 0.2963867 0.4350586
vt 0.2980957 0.453125
vt 0.3212891 0.4562988
vt 0.2902832 0.420166
vt 0.3198242 0.4375
vt 0.3422852 0.4536133
vt 0.3417969 0.4355469
vt 0.2905273 0.4133301
vt 0.3171387 0.4243164
vt 0.3125 0.3837891
vt 0.3415527 0.4125977
vt 0.3254395 0.3842773
vt 0.3571777 0.4125977
vt 0.3598633 0.4257812
vt 0.3349609 0.385498
vt 0.3505859 0.387207
vt 0.3483887 0.3662109
vt 0.3203125 0.3693848
vt 0.3151855 0.3522949
vt 0.329834 0.3693848
vt 0.3259277 0.3525391
vt 0.3479004 0.3466797
vn -0.9434025 -0.2026419 0.2625411
vn -0.8770401 -0.223616 0.4252017
vn -0.9492313 -0.2554693 0.1835635
vn -0.8294836 -0.1023776 0.5490681
vn -0.93889 -0.18234 0.2919548
vn -0.5869122 -0.1196099 0.8007669
vn -0.813037 -0.1620049 0.5592183
vn -0.9373319 -0.177258 0.299981
vn -0.5492452 0.04385225 0.8345098
vn -0.4943548 -0.1067059 0.862686
vn -0.5193169 -0.03279332 0.8539523
vn -0.6968847 -0.2074154 0.6865353
vn -0.3663584 -0.01403216 0.930368
vn -0.4453549 0.15041 0.88263
vn -0.453817 0.2410994 0.8578585
vn -0.5245488 -0.05793833 0.8494067
vn -0.436606 -0.2518468 0.863683
vn -0.3253749 0.02757707 0.9451829
vn -0.4621642 0.3344101 0.8213247
vn -0 -0.06057716 0.9981635
vn -0.4097372 0.2471841 0.8780748
vn -0 0.4528121 0.8916059
vn 0.4621641 0.3344101 0.8213247
vn 0.4366058 -0.251847 0.863683
vn 0.5245486 -0.05793836 0.8494068
vn 3.102879E-07 0.2819175 0.9594386
vn 0.453817 0.2410992 0.8578586
vn 0.4943545 -0.1067059 0.8626862
vn -0.3301091 -0.3205913 0.887834
vn -0.5273714 -0.1934592 0.8273166
vn -0.3390397 -0.2442011 0.9085252
vn 6.002098E-07 -0.2527617 0.9675286
vn 0.4097374 0.2471842 0.8780748
vn -0.2866162 -0.1744145 0.9420354
vn -0.3892136 -0.5936979 0.7042978
vn 0.3390403 -0.2442022 0.9085246
vn 0.3253745 0.02757668 0.945183
vn -0.397542 -0.6116948 0.6839516
vn -0.3376049 -0.2348487 0.9115202
vn -0.2101174 -0.2261101 0.9511702
vn 0.4453548 0.1504095 0.8826302
vn -0.3339987 -0.04706189 0.941398
vn -0.6121981 0.008559899 0.7906581
vn -0.7716183 0.0430581 0.6346269
vn -0.7554096 -0.08549042 0.6496521
vn -0.9556323 -0.1505412 0.2531881
vn -0.1635851 -0.06541349 0.9843582
vn -0 -0.1436515 0.9896283
vn -0 -0.05853526 0.9982854
vn 0.163585 -0.06541351 0.9843582
vn 0.2101172 -0.2261097 0.9511704
vn 0.3975435 -0.6116968 0.6839489
vn 0.3376045 -0.2348478 0.9115205
vn 0.3339982 -0.04706188 0.9413981
vn 0.6121975 0.008559841 0.7906585
vn 0.3892154 -0.5937003 0.7042949
vn 0.5273716 -0.1934594 0.8273165
vn 0.7716183 0.04305808 0.6346269
vn 0.7554095 -0.08549044 0.6496521
vn 0.2866164 -0.1744147 0.9420353
vn 0.3301093 -0.3205922 0.8878336
vn 0.3663583 -0.01403246 0.9303681
vn 0.6968847 -0.2074156 0.6865352
vn 0.5193174 -0.03279338 0.853952
vn 0.9373318 -0.177258 0.2999811
vn 0.9556322 -0.1505411 0.2531885
vn 0.8130377 -0.162005 0.5592173
vn 0.9388903 -0.18234 0.2919543
vn 0.9434026 -0.2026419 0.2625408
vn 0.5492458 0.04385215 0.8345096
vn 0.5869117 -0.1196099 0.8007672
vn 0.829484 -0.1023777 0.5490673
vn 0.87704 -0.223616 0.425202
vn 0.9492311 -0.2554696 0.1835634
g facial_eye_geo_0
f 3/3/3 2/2/2 1/1/1
f 2/2/2 4/4/4 1/1/1
f 5/5/5 1/1/1 4/4/4
f 6/6/6 4/4/4 2/2/2
f 7/7/7 5/5/5 4/4/4
f 8/8/8 5/5/5 7/7/7
f 6/6/6 9/9/9 4/4/4
f 9/9/9 6/6/6 10/10/10
f 7/7/7 4/4/4 11/11/11
f 4/4/4 9/9/9 11/11/11
f 12/12/12 8/8/8 7/7/7
f 11/11/11 12/12/12 7/7/7
f 11/11/11 9/9/9 13/13/13
f 11/11/11 13/13/13 12/12/12
f 14/14/14 9/9/9 10/10/10
f 9/9/9 14/14/14 13/13/13
f 10/10/10 15/15/15 14/14/14
f 10/10/10 16/16/16 15/15/15
f 16/16/16 17/17/17 15/15/15
f 13/13/13 14/14/14 18/18/18
f 14/14/14 15/15/15 18/18/18
f 17/17/17 19/19/19 15/15/15
f 17/17/17 20/20/20 19/19/19
f 15/15/15 19/19/19 21/21/21
f 18/18/18 15/15/15 21/21/21
f 20/20/20 22/22/22 19/19/19
f 21/21/21 19/19/19 22/22/22
f 23/23/23 22/22/22 20/20/20
f 24/24/24 23/23/23 20/20/20
f 23/23/23 24/24/24 25/25/25
f 26/26/26 21/21/21 22/22/22
f 26/26/26 22/22/22 23/23/23
f 27/27/27 23/23/23 25/25/25
f 27/27/27 25/25/25 28/28/28
f 13/13/13 18/18/18 29/29/29
f 12/12/12 13/13/13 29/29/29
f 12/12/12 29/29/29 30/30/30
f 31/31/31 18/18/18 21/21/21
f 31/31/31 21/21/21 26/26/26
f 26/26/26 32/32/32 31/31/31
f 33/33/33 26/26/26 23/23/23
f 23/23/23 27/27/27 33/33/33
f 18/18/18 34/34/34 29/29/29
f 34/34/34 18/18/18 31/31/31
f 29/29/29 34/34/34 35/35/35
f 35/35/35 34/34/34 31/31/31
f 30/30/30 29/29/29 35/35/35
f 26/26/26 33/33/33 36/36/36
f 36/36/36 32/32/32 26/26/26
f 27/27/27 37/37/37 33/33/33
f 33/33/33 37/37/37 36/36/36
f 35/35/35 31/31/31 38/38/38
f 32/32/32 38/38/38 31/31/31
f 39/39/39 35/35/35 38/38/38
f 35/35/35 39/39/39 30/30/30
f 38/38/38 40/40/40 39/39/39
f 40/40/40 38/38/38 32/32/32
f 37/37/37 27/27/27 41/41/41
f 27/27/27 28/28/28 41/41/41
f 30/30/30 39/39/39 42/42/42
f 39/39/39 40/40/40 42/42/42
f 43/43/43 30/30/30 42/42/42
f 30/30/30 43/43/43 44/44/44
f 45/45/45 30/30/30 44/44/44
f 12/12/12 30/30/30 45/45/45
f 45/45/45 8/8/8 12/12/12
f 45/45/45 46/46/46 8/8/8
f 40/40/40 47/47/47 42/42/42
f 47/47/47 40/40/40 48/48/48
f 49/49/49 47/47/47 48/48/48
f 32/32/32 48/48/48 40/40/40
f 49/49/49 48/48/48 50/50/50
f 51/51/51 48/48/48 32/32/32
f 48/48/48 51/51/51 50/50/50
f 32/32/32 52/52/52 51/51/51
f 36/36/36 52/52/52 32/32/32
f 51/51/51 53/53/53 50/50/50
f 53/53/53 51/51/51 52/52/52
f 53/53/53 54/54/54 50/50/50
f 55/55/55 54/54/54 53/53/53
f 36/36/36 56/56/56 52/52/52
f 52/52/52 56/56/56 53/53/53
f 57/57/57 55/55/55 53/53/53
f 57/57/57 53/53/53 56/56/56
f 58/58/58 55/55/55 57/57/57
f 59/59/59 58/58/58 57/57/57
f 36/36/36 60/60/60 56/56/56
f 36/36/36 37/37/37 60/60/60
f 56/56/56 61/61/61 57/57/57
f 60/60/60 61/61/61 56/56/56
f 37/37/37 62/62/62 60/60/60
f 62/62/62 61/61/61 60/60/60
f 62/62/62 37/37/37 41/41/41
f 57/57/57 61/61/61 63/63/63
f 57/57/57 63/63/63 59/59/59
f 62/62/62 63/63/63 61/61/61
f 62/62/62 41/41/41 64/64/64
f 63/63/63 62/62/62 64/64/64
f 65/65/65 59/59/59 63/63/63
f 66/66/66 59/59/59 65/65/65
f 65/65/65 63/63/63 67/67/67
f 63/63/63 64/64/64 67/67/67
f 68/68/68 65/65/65 67/67/67
f 69/69/69 68/68/68 67/67/67
f 41/41/41 70/70/70 64/64/64
f 41/41/41 28/28/28 70/70/70
f 28/28/28 71/71/71 70/70/70
f 72/72/72 67/67/67 64/64/64
f 70/70/70 72/72/72 64/64/64
f 72/72/72 70/70/70 71/71/71
f 72/72/72 69/69/69 67/67/67
f 73/73/73 72/72/72 71/71/71
f 72/72/72 73/73/73 69/69/69
f 73/73/73 74/74/74 69/69/69
