g head_geo
v -0.102513 1.447257 0.063351
v -0.08918449 1.385277 0.023348
v -0.105076 1.436575 0.023509
v -0.09000935 1.383343 0.041904
v -0.095165 1.421829 0.081737
v -0.098799 1.448778 0.08329
v -0.101438 1.4629 0.081726
v -0.091204 1.400477 0.077767
v -0.086925 1.381571 0.071463
v -0.08298335 1.365923 0.062526
v -0.08306001 1.367357 0.03260386
v -0.07360671 1.355735 0.021237
v -0.07732435 1.355604 0.043133
v -0.08736399 1.386002 0.000357
v -0.07783189 1.373571 -0.018404
v -0.102163 1.408348 -0.015771
v -0.055591 1.34854 -0.019392
v -0.06683047 1.346611 0.035961
v -0.06467164 1.345232 0.05881317
v -0.053468 1.342315 0.009753999
v -0.030528 1.329883 0.035234
v -0.05339773 1.336521 0.052659
v -0.04187218 1.329313 0.065657
v -0.05004 1.33506 0.073488
v -0.03436926 1.324982 0.08826499
v -0.049304 1.3168 -0.025961
v -0.035504 1.32114 -0.055704
v -0.029734 1.322366 0.079308
v -0.01442495 1.313036 0.103384
v -0.046486 1.310795 0.003332
v -0.052653 1.285998 -0.030482
v -0.024314 1.324685 0.059134
v -0 1.316053 0.051968
v -0.011746 1.319658 0.073853
v -0.005371999 1.312026 0.09402099
v -0 1.310778 0.09531999
v -0 1.31172 0.106438
v -0 1.317328 0.071242
v 0.005371999 1.312026 0.09402099
v 0.01442495 1.313036 0.103384
v 0.011746 1.319658 0.073853
v 0.029734 1.322366 0.079307
v 0.03436926 1.324982 0.08826499
v 0.05004 1.33506 0.073488
v 0.024314 1.324685 0.059134
v 0.030528 1.329883 0.035234
v 0.04187218 1.329313 0.065657
v 0.06467164 1.345232 0.05881317
v 0.05339773 1.336521 0.052659
v 0.06683047 1.346611 0.035961
v 0.07732435 1.355604 0.043133
v -0 1.296952 0.045592
v -0.025025 1.302358 0.029958
v 0.07360671 1.355735 0.021237
v 0.053468 1.342315 0.009753999
v 0.025025 1.302358 0.029958
v 0.08306001 1.367357 0.03260386
v 0.08298335 1.365923 0.062526
v 0.09000935 1.383343 0.041904
v 0.086925 1.381571 0.071463
v 0.091204 1.400477 0.077767
v 0.095165 1.421829 0.081737
v 0.102513 1.447257 0.063351
v 0.098799 1.448778 0.08329
v 0.101438 1.4629 0.081726
v 0.08918449 1.385277 0.023348
v 0.105076 1.436575 0.023509
v 0.08736399 1.386002 0.000357
v 0.07783189 1.373571 -0.018404
v 0.102163 1.408348 -0.015771
v 0.055591 1.34854 -0.019392
v 0.046486 1.310795 0.003332
v 0.049304 1.3168 -0.025961
v 0.035504 1.32114 -0.055704
v 0.046996 1.275011 -0.000561
v 0.052653 1.285998 -0.030482
v 0.039194 1.296143 -0.058112
v 0.026088 1.267917 0.025181
v -0 1.300389 -0.06967299
v -0 1.324287 -0.071272
v 0.042677 1.2569 -0.069031
v -0.001589 1.260151 -0.08397199
v 0.06253 1.251347 -0.03695
v 0.05729 1.240721 0.006286
v 0.034504 1.228948 0.043484
v -0 1.216628 0.06223
v -0 1.263111 0.041599
v -0.034504 1.228948 0.043484
v -0.026088 1.267917 0.025181
v -0.05729 1.240721 0.006286
v -0.046996 1.275011 -0.000561
v -0.06253 1.251347 -0.03695
v -0.042677 1.2569 -0.069031
v -0.039194 1.296143 -0.058112
v -0.001589 1.260151 -0.08397199
v -0 1.324287 -0.071272
v -0 1.300389 -0.06967299
v -0.123093 1.447812 0.000651
v -0.129486 1.442831 -0.010996
v -0.109066 1.431198 -0.01075217
v -0.129857 1.432466 -0.018045
v -0.126357 1.40578 -0.017261
v -0.102163 1.408348 -0.015771
v -0.13114 1.429329 -0.010991
v -0.113862 1.379319 -0.006204
v -0.08736399 1.386002 0.000357
v -0.100529 1.375381 0.007738
v -0.08918449 1.385277 0.023348
v -0.123114 1.401634 -0.006238
v -0.100529 1.375381 0.007738
v -0.129857 1.437404 -0.004904
v -0.124607 1.441842 0.003206
v -0.123093 1.447812 0.000651
v -0.08918449 1.385277 0.023348
v -0.105076 1.436575 0.023509
v -0.078901 1.495394 0.12255
v -0.096241 1.49283 0.10108
v -0.094392 1.518027 0.09689
v -0.078281 1.518768 0.120338
v -0.049149 1.517234 0.13662
v -0.050567 1.492417 0.136271
v -0.02408 1.486707 0.141834
v -0.022768 1.513936 0.14196
v -0 1.483322 0.143677
v -0 1.511453 0.143653
v 0.022768 1.513936 0.14196
v 0.02408 1.486707 0.141834
v 0.049149 1.517234 0.13662
v 0.050567 1.492417 0.136271
v 0.078901 1.495394 0.12255
v 0.078281 1.518768 0.120338
v 0.096241 1.49283 0.10108
v 0.094392 1.518027 0.09689
v 0.123093 1.447812 0.000651
v 0.109066 1.431198 -0.01075217
v 0.129486 1.442831 -0.010996
v 0.129857 1.432466 -0.018045
v 0.126357 1.40578 -0.017261
v 0.102163 1.408348 -0.015771
v 0.113862 1.379319 -0.006204
v 0.08736399 1.386002 0.000357
v 0.100529 1.375381 0.007738
v 0.08918449 1.385277 0.023348
v 0.123114 1.401634 -0.006238
v 0.100529 1.375381 0.007738
v 0.13114 1.429329 -0.010991
v 0.129857 1.437404 -0.004904
v 0.124607 1.441842 0.003206
v 0.08918449 1.385277 0.023348
v 0.123093 1.447812 0.000651
v 0.105076 1.436575 0.023509
vt 0.1280518 0.4074707
vt 0.1068726 0.3588867
vt 0.09991455 0.4035645
vt 0.125 0.3469238
vt 0.1494141 0.387207
vt 0.1429443 0.4125977
vt 0.1402588 0.4257812
vt 0.1514893 0.3662109
vt 0.1520996 0.3466797
vt 0.1518555 0.3303223
vt 0.1260986 0.3312988
vt 0.1228027 0.3193359
vt 0.1433105 0.3146973
vt 0.09362793 0.3583984
vt 0.08129883 0.333252
vt 0.0836792 0.3796387
vt 0.08300781 0.2990723
vt 0.1483154 0.2976074
vt 0.1687012 0.3015137
vt 0.1308594 0.2780762
vt 0.1824951 0.2485352
vt 0.1733398 0.2858887
vt 0.1945801 0.2788086
vt 0.1905518 0.2905273
vt 0.21521 0.2849121
vt 0.0927124 0.2568359
vt 0.04748535 0.276123
vt 0.2164307 0.2756348
vt 0.2440186 0.2797852
vt 0.137207 0.2410889
vt 0.09613037 0.2159424
vt 0.2104492 0.2600098
vt 0.2497559 0.2365723
vt 0.2351074 0.2624512
vt 0.2451172 0.2709961
vt 0.2497559 0.2705078
vt 0.2497559 0.279541
vt 0.2497559 0.2548828
vt 0.2548828 0.2709961
vt 0.2561035 0.2797852
vt 0.2648926 0.2624512
vt 0.2836914 0.2756348
vt 0.2849121 0.2849121
vt 0.3095703 0.2905273
vt 0.2895508 0.2600098
vt 0.3173828 0.2485352
vt 0.3054199 0.2788086
vt 0.3312988 0.3015137
vt 0.3266602 0.2858887
vt 0.3518066 0.2976074
vt 0.3566895 0.3146973
vt 0.2497559 0.217041
vt 0.1938477 0.2226562
vt 0.3771973 0.3193359
vt 0.3691406 0.2780762
vt 0.3059082 0.2225342
vt 0.3730469 0.3312988
vt 0.3481445 0.3303223
vt 0.375 0.3469238
vt 0.3479004 0.3466797
vt 0.3483887 0.3662109
vt 0.3505859 0.387207
vt 0.3720703 0.4074707
vt 0.3571777 0.4125977
vt 0.3598633 0.4257812
vt 0.3930664 0.3588867
vt 0.4001465 0.4035645
vt 0.4064941 0.3583984
vt 0.4187012 0.333252
vt 0.4162598 0.3796387
vt 0.4169922 0.2990723
vt 0.362793 0.2408447
vt 0.4072266 0.2570801
vt 0.4523926 0.276123
vt 0.3601074 0.1951904
vt 0.404541 0.2163086
vt 0.4475098 0.2358398
vt 0.3054199 0.182251
vt 0.4936523 0.2495117
vt 0.4936523 0.2783203
vt 0.4519043 0.1842041
vt 0.4936523 0.2034912
vt 0.4077148 0.1678467
vt 0.3588867 0.1467285
vt 0.3015137 0.1248779
vt 0.2497559 0.1105957
vt 0.2497559 0.1772461
vt 0.1986084 0.125
vt 0.194458 0.182251
vt 0.1418457 0.1468506
vt 0.1405029 0.1953125
vt 0.09442139 0.1668701
vt 0.05041504 0.182251
vt 0.05249023 0.2376709
vt 0.009101868 0.1917725
vt 0.009101868 0.2783203
vt 0.009101868 0.2495117
vt 0.1123047 0.1248169
vt 0.1060791 0.1193237
vt 0.09832764 0.1335449
vt 0.09802246 0.1262207
vt 0.07299805 0.1271973
vt 0.07641602 0.133667
vt 0.09417725 0.1213989
vt 0.05380249 0.1192017
vt 0.03921509 0.1226807
vt 0.03930664 0.1165771
vt 0.02450562 0.1196289
vt 0.06768799 0.1223755
vt 0.04611206 0.102478
vt 0.09997559 0.116272
vt 0.1057129 0.1112061
vt 0.1140747 0.1124268
vt 0.05450439 0.08758545
vt 0.1030884 0.0881958
vt 0.178833 0.4562988
vt 0.1577148 0.4536133
vt 0.15979 0.4768066
vt 0.180542 0.4777832
vt 0.2025146 0.4760742
vt 0.2019043 0.453125
vt 0.2268066 0.4477539
vt 0.2280273 0.4731445
vt 0.25 0.4445801
vt 0.25 0.4707031
vt 0.2719727 0.4731445
vt 0.2731934 0.4477539
vt 0.2976074 0.4760742
vt 0.2980957 0.453125
vt 0.3212891 0.4562988
vt 0.3195801 0.4777832
vt 0.3422852 0.4536133
vt 0.3400879 0.4768066
vt 0.394043 0.1248169
vt 0.4082031 0.1335449
vt 0.4003906 0.1193237
vt 0.4084473 0.1262207
vt 0.4333496 0.1271973
vt 0.4299316 0.133667
vt 0.4560547 0.114624
vt 0.4672852 0.1226807
vt 0.467041 0.1165771
vt 0.4819336 0.1196289
vt 0.4389648 0.1176758
vt 0.4614258 0.1008911
vt 0.4121094 0.1213989
vt 0.4064941 0.116272
vt 0.4006348 0.1112061
vt 0.4519043 0.08758545
vt 0.392334 0.1124268
vt 0.4033203 0.0881958
vn -0.9726782 -0.197128 0.1226285
vn -0.9403003 -0.2764981 0.1984544
vn -0.9344465 -0.1951204 0.2978891
vn -0.9693895 -0.2181758 0.1126209
vn -0.93889 -0.18234 0.2919548
vn -0.9373319 -0.177258 0.299981
vn -0.9556323 -0.1505412 0.2531881
vn -0.9434025 -0.2026419 0.2625411
vn -0.9492313 -0.2554693 0.1835635
vn -0.8923016 -0.4354904 0.1189364
vn -0.9066197 -0.4218938 -0.006818364
vn -0.7433236 -0.6514706 -0.1518422
vn -0.795201 -0.6015069 0.07645153
vn -0.6702167 -0.6497206 -0.3587098
vn -0.7536025 -0.6317722 -0.181514
vn 0.05234502 -0.1700238 -0.9840487
vn -0.8902051 -0.4400392 -0.117901
vn -0.5325942 -0.8369857 -0.1256915
vn -0.6485563 -0.7549208 0.09731054
vn -0.8196624 -0.5600039 0.1206194
vn -0.6744854 -0.6133463 0.4109448
vn -0.4070937 -0.9091092 -0.08828983
vn -0.3567676 -0.9298809 -0.08965756
vn -0.5716501 -0.8128226 0.1119618
vn -0.5528416 -0.8101587 0.1949595
vn -0.9917269 -0.02190753 -0.1264822
vn -0.683961 0.08072943 -0.7250379
vn -0.3295166 -0.9342937 -0.1360671
vn -0.3373383 -0.9282377 0.1567727
vn -0.9185492 -0.1345261 0.3717126
vn -0.972615 0.2032897 -0.1126651
vn -0.2967611 -0.9456809 -0.1327427
vn 2.172124E-07 -0.68674 0.7269032
vn -0.2693008 -0.9515318 -0.1485405
vn -0.2103048 -0.9668401 -0.1448872
vn -0 -0.9940647 -0.1087906
vn 1.153555E-07 -0.9463187 0.3232352
vn -0 -0.9960299 -0.08901861
vn 0.210303 -0.9668405 -0.1448867
vn 0.3373391 -0.9282373 0.1567738
vn 0.2692989 -0.9515321 -0.1485417
vn 0.3295155 -0.9342936 -0.1360698
vn 0.5528407 -0.8101595 0.1949582
vn 0.5716498 -0.8128234 0.1119582
vn 0.2967613 -0.9456807 -0.1327429
vn 0.6744856 -0.6133459 0.4109453
vn 0.3567697 -0.9298801 -0.08965671
vn 0.6485565 -0.7549211 0.09730818
vn 0.4070936 -0.9091089 -0.0882937
vn 0.5325943 -0.8369856 -0.1256915
vn 0.7952008 -0.6015071 0.0764518
vn -3.623613E-07 -0.199105 0.9799781
vn -0.6874372 -0.1645777 0.7073502
vn 0.7433237 -0.6514706 -0.1518421
vn 0.8196624 -0.5600039 0.12062
vn 0.6874369 -0.1645777 0.7073505
vn 0.9066197 -0.4218937 -0.006818514
vn 0.8923016 -0.4354906 0.1189366
vn 0.9693895 -0.2181758 0.1126209
vn 0.9492311 -0.2554696 0.1835634
vn 0.9434026 -0.2026419 0.2625408
vn 0.9388903 -0.18234 0.2919543
vn 0.9726782 -0.197128 0.1226285
vn 0.9373318 -0.177258 0.2999811
vn 0.9556322 -0.1505411 0.2531885
vn 0.9403004 -0.2764981 0.1984541
vn 0.9344466 -0.1951203 0.2978888
vn 0.6702168 -0.6497204 -0.3587099
vn 0.7536024 -0.631772 -0.1815147
vn -0.05234507 -0.1700238 -0.9840487
vn 0.890205 -0.440039 -0.1179017
vn 0.9185489 -0.1345261 0.3717129
vn 0.9917269 -0.02190758 -0.1264823
vn 0.6839612 0.08072946 -0.7250378
vn 0.8865486 0.188337 0.4225644
vn 0.972615 0.2032895 -0.1126654
vn 0.6296397 0.2344769 -0.7406581
vn 0.6314386 0.2141372 0.7452722
vn 0.004875048 0.2186561 -0.9757898
vn -1.975904E-07 0.04424182 -0.9990208
vn 0.5923486 0.2985081 -0.7483422
vn -0.007398861 0.3159069 -0.9487613
vn 0.955744 0.2808777 -0.08752759
vn 0.8079811 0.3531228 0.4716682
vn 0.4909293 0.4128266 0.7671784
vn 1.611435E-07 0.4464214 0.8948228
vn -1.538867E-07 0.2804821 0.9598592
vn -0.4909291 0.4128263 0.7671785
vn -0.6314387 0.214137 0.745272
vn -0.807981 0.3531228 0.4716684
vn -0.8865486 0.188337 0.4225646
vn -0.9557441 0.2808778 -0.08752698
vn -0.6024983 0.3040825 -0.7379224
vn -0.6369468 0.2374317 -0.7334337
vn -0.007398861 0.3159069 -0.9487613
vn -1.975904E-07 0.04424182 -0.9990208
vn 0.004875048 0.2186561 -0.9757898
vn -0.4192109 0.90457 0.07755785
vn -0.2061494 0.7932908 -0.5728807
vn 0.2188723 0.2010369 -0.9548188
vn -0.1978054 0.1634454 -0.9665188
vn -0.2593726 -0.1328349 -0.9565985
vn 0.05234502 -0.1700238 -0.9840487
vn -0.9805847 -0.1463431 0.1305273
vn -0.2793626 -0.7913593 -0.5437895
vn -0.6702167 -0.6497206 -0.3587098
vn -0.6588561 -0.5418525 0.5218281
vn -0.9403003 -0.2764981 0.1984544
vn -0.7916626 -0.2174998 0.5709328
vn -0.6588561 -0.5418525 0.5218281
vn -0.8488102 -0.08604242 0.5216493
vn -0.7781081 -0.08037565 0.6229668
vn -0.4192109 0.90457 0.07755785
vn -0.9403003 -0.2764981 0.1984544
vn -0.9344465 -0.1951204 0.2978891
vn -0.6121981 0.008559899 0.7906581
vn -0.7716183 0.0430581 0.6346269
vn -0.800559 0.1181306 0.587495
vn -0.6415027 0.08723772 0.7621443
vn -0.2897888 -0.2206068 0.931319
vn -0.3339987 -0.04706189 0.941398
vn -0.1635851 -0.06541349 0.9843582
vn -0.1996823 -0.3394157 0.9191974
vn -0 -0.05853526 0.9982854
vn -0.03195072 -0.4789445 0.8772635
vn 0.1883142 -0.517805 0.8345153
vn 0.163585 -0.06541351 0.9843582
vn 0.299661 -0.3657562 0.8811503
vn 0.3339982 -0.04706188 0.9413981
vn 0.6121975 0.008559841 0.7906585
vn 0.6415018 0.08723761 0.762145
vn 0.7716183 0.04305808 0.6346269
vn 0.800559 0.1181305 0.587495
vn 0.4192127 0.9045696 0.07755396
vn -0.2188721 0.2010367 -0.954819
vn 0.2061498 0.7932892 -0.5728825
vn 0.1978053 0.1634452 -0.9665189
vn 0.2593726 -0.1328351 -0.9565985
vn -0.05234507 -0.1700238 -0.9840487
vn 0.2793624 -0.7913592 -0.5437896
vn 0.6702168 -0.6497204 -0.3587099
vn 0.6588572 -0.5418528 0.5218264
vn 0.9403004 -0.2764981 0.1984541
vn 0.7916632 -0.2174999 0.5709318
vn 0.6588572 -0.5418528 0.5218264
vn 0.9805846 -0.1463433 0.130528
vn 0.8488098 -0.08604245 0.52165
vn 0.7781082 -0.08037525 0.6229667
vn 0.9403004 -0.2764981 0.1984541
vn 0.4192127 0.9045696 0.07755396
vn 0.9344466 -0.1951203 0.2978888
g head_geo_0
f 3/3/3 2/2/2 1/1/1
f 2/2/2 4/4/4 1/1/1
f 1/1/1 4/4/4 5/5/5
f 5/5/5 6/6/6 1/1/1
f 6/6/6 7/7/7 1/1/1
f 4/4/4 8/8/8 5/5/5
f 9/9/9 8/8/8 4/4/4
f 9/9/9 4/4/4 10/10/10
f 11/11/11 10/10/10 4/4/4
f 2/2/2 11/11/11 4/4/4
f 11/11/11 2/2/2 12/12/12
f 13/13/13 10/10/10 11/11/11
f 13/13/13 11/11/11 12/12/12
f 2/2/2 14/14/14 12/12/12
f 14/14/14 15/15/15 12/12/12
f 14/14/14 16/16/16 15/15/15
f 15/15/15 17/17/17 12/12/12
f 18/18/18 13/13/13 12/12/12
f 13/13/13 18/18/18 19/19/19
f 17/17/17 20/20/20 12/12/12
f 20/20/20 18/18/18 12/12/12
f 20/20/20 21/21/21 18/18/18
f 22/22/22 18/18/18 21/21/21
f 18/18/18 22/22/22 19/19/19
f 22/22/22 23/23/23 19/19/19
f 22/22/22 21/21/21 23/23/23
f 23/23/23 24/24/24 19/19/19
f 24/24/24 23/23/23 25/25/25
f 17/17/17 26/26/26 20/20/20
f 26/26/26 17/17/17 27/27/27
f 23/23/23 28/28/28 25/25/25
f 28/28/28 29/29/29 25/25/25
f 26/26/26 30/30/30 20/20/20
f 20/20/20 30/30/30 21/21/21
f 26/26/26 27/27/27 31/31/31
f 26/26/26 31/31/31 30/30/30
f 28/28/28 23/23/23 32/32/32
f 21/21/21 32/32/32 23/23/23
f 33/33/33 32/32/32 21/21/21
f 34/34/34 28/28/28 32/32/32
f 32/32/32 33/33/33 34/34/34
f 35/35/35 29/29/29 28/28/28
f 28/28/28 34/34/34 35/35/35
f 35/35/35 36/36/36 29/29/29
f 36/36/36 37/37/37 29/29/29
f 34/34/34 38/38/38 35/35/35
f 38/38/38 36/36/36 35/35/35
f 33/33/33 38/38/38 34/34/34
f 36/36/36 39/39/39 37/37/37
f 39/39/39 36/36/36 38/38/38
f 39/39/39 40/40/40 37/37/37
f 41/41/41 39/39/39 38/38/38
f 38/38/38 33/33/33 41/41/41
f 40/40/40 39/39/39 42/42/42
f 41/41/41 42/42/42 39/39/39
f 40/40/40 42/42/42 43/43/43
f 44/44/44 43/43/43 42/42/42
f 42/42/42 41/41/41 45/45/45
f 33/33/33 45/45/45 41/41/41
f 45/45/45 33/33/33 46/46/46
f 47/47/47 44/44/44 42/42/42
f 47/47/47 42/42/42 45/45/45
f 45/45/45 46/46/46 47/47/47
f 44/44/44 47/47/47 48/48/48
f 47/47/47 49/49/49 48/48/48
f 46/46/46 49/49/49 47/47/47
f 49/49/49 50/50/50 48/48/48
f 50/50/50 49/49/49 46/46/46
f 50/50/50 51/51/51 48/48/48
f 33/33/33 52/52/52 46/46/46
f 52/52/52 33/33/33 21/21/21
f 53/53/53 52/52/52 21/21/21
f 30/30/30 53/53/53 21/21/21
f 51/51/51 50/50/50 54/54/54
f 50/50/50 46/46/46 55/55/55
f 50/50/50 55/55/55 54/54/54
f 52/52/52 56/56/56 46/46/46
f 55/55/55 46/46/46 56/56/56
f 57/57/57 51/51/51 54/54/54
f 58/58/58 51/51/51 57/57/57
f 58/58/58 57/57/57 59/59/59
f 59/59/59 60/60/60 58/58/58
f 61/61/61 60/60/60 59/59/59
f 62/62/62 61/61/61 59/59/59
f 63/63/63 62/62/62 59/59/59
f 64/64/64 62/62/62 63/63/63
f 65/65/65 64/64/64 63/63/63
f 59/59/59 66/66/66 63/63/63
f 57/57/57 66/66/66 59/59/59
f 66/66/66 67/67/67 63/63/63
f 68/68/68 66/66/66 57/57/57
f 54/54/54 68/68/68 57/57/57
f 69/69/69 68/68/68 54/54/54
f 70/70/70 68/68/68 69/69/69
f 71/71/71 69/69/69 54/54/54
f 55/55/55 71/71/71 54/54/54
f 55/55/55 72/72/72 71/71/71
f 72/72/72 55/55/55 56/56/56
f 72/72/72 73/73/73 71/71/71
f 73/73/73 74/74/74 71/71/71
f 75/75/75 72/72/72 56/56/56
f 76/76/76 73/73/73 72/72/72
f 75/75/75 76/76/76 72/72/72
f 77/77/77 74/74/74 73/73/73
f 76/76/76 77/77/77 73/73/73
f 78/78/78 75/75/75 56/56/56
f 78/78/78 56/56/56 52/52/52
f 74/74/74 77/77/77 79/79/79
f 80/80/80 74/74/74 79/79/79
f 77/77/77 81/81/81 79/79/79
f 81/81/81 82/82/82 79/79/79
f 83/83/83 81/81/81 77/77/77
f 76/76/76 83/83/83 77/77/77
f 76/76/76 75/75/75 83/83/83
f 75/75/75 84/84/84 83/83/83
f 85/85/85 84/84/84 75/75/75
f 78/78/78 85/85/85 75/75/75
f 86/86/86 85/85/85 78/78/78
f 87/87/87 78/78/78 52/52/52
f 87/87/87 86/86/86 78/78/78
f 52/52/52 53/53/53 87/87/87
f 88/88/88 86/86/86 87/87/87
f 53/53/53 89/89/89 87/87/87
f 89/89/89 88/88/88 87/87/87
f 53/53/53 30/30/30 89/89/89
f 90/90/90 88/88/88 89/89/89
f 30/30/30 91/91/91 89/89/89
f 91/91/91 90/90/90 89/89/89
f 92/92/92 90/90/90 91/91/91
f 31/31/31 91/91/91 30/30/30
f 31/31/31 92/92/92 91/91/91
f 93/93/93 92/92/92 31/31/31
f 94/94/94 93/93/93 31/31/31
f 27/27/27 94/94/94 31/31/31
f 95/95/95 93/93/93 94/94/94
f 27/27/27 96/96/96 94/94/94
f 97/97/97 95/95/95 94/94/94
f 96/96/96 97/97/97 94/94/94
f 100/100/100 99/99/99 98/98/98
f 101/101/101 99/99/99 100/100/100
f 102/102/102 101/101/101 100/100/100
f 103/103/103 102/102/102 100/100/100
f 101/101/101 104/104/104 99/99/99
f 101/101/101 102/102/102 104/104/104
f 105/105/105 102/102/102 103/103/103
f 105/105/105 103/103/103 106/106/106
f 107/107/107 105/105/105 106/106/106
f 106/106/106 108/108/108 107/107/107
f 109/109/109 102/102/102 105/105/105
f 102/102/102 109/109/109 104/104/104
f 110/110/110 109/109/109 105/105/105
f 104/104/104 109/109/109 111/111/111
f 104/104/104 111/111/111 99/99/99
f 111/111/111 109/109/109 110/110/110
f 99/99/99 111/111/111 112/112/112
f 110/110/110 112/112/112 111/111/111
f 113/113/113 99/99/99 112/112/112
f 114/114/114 112/112/112 110/110/110
f 112/112/112 115/115/115 113/113/113
f 115/115/115 112/112/112 114/114/114
f 118/118/118 117/117/117 116/116/116
f 119/119/119 118/118/118 116/116/116
f 120/120/120 119/119/119 116/116/116
f 121/121/121 120/120/120 116/116/116
f 120/120/120 121/121/121 122/122/122
f 123/123/123 120/120/120 122/122/122
f 123/123/123 122/122/122 124/124/124
f 125/125/125 123/123/123 124/124/124
f 126/126/126 125/125/125 124/124/124
f 127/127/127 126/126/126 124/124/124
f 128/128/128 126/126/126 127/127/127
f 129/129/129 128/128/128 127/127/127
f 128/128/128 129/129/129 130/130/130
f 131/131/131 128/128/128 130/130/130
f 131/131/131 130/130/130 132/132/132
f 133/133/133 131/131/131 132/132/132
f 136/136/136 135/135/135 134/134/134
f 136/136/136 137/137/137 135/135/135
f 135/135/135 137/137/137 138/138/138
f 139/139/139 135/135/135 138/138/138
f 138/138/138 140/140/140 139/139/139
f 139/139/139 140/140/140 141/141/141
f 140/140/140 142/142/142 141/141/141
f 143/143/143 141/141/141 142/142/142
f 138/138/138 144/144/144 140/140/140
f 144/144/144 138/138/138 137/137/137
f 144/144/144 145/145/145 140/140/140
f 146/146/146 144/144/144 137/137/137
f 137/137/137 136/136/136 146/146/146
f 146/146/146 147/147/147 144/144/144
f 145/145/145 144/144/144 147/147/147
f 136/136/136 147/147/147 146/146/146
f 147/147/147 148/148/148 145/145/145
f 147/147/147 136/136/136 148/148/148
f 148/148/148 149/149/149 145/145/145
f 136/136/136 150/150/150 148/148/148
f 151/151/151 149/149/149 148/148/148
f 151/151/151 148/148/148 150/150/150
