g backface_geo
v -0.07893756 0.5498495 1.26238
v 0.0789376 0.5498495 1.26238
v 0.07893758 1.042967 1.274994
v -0.07893758 1.042967 1.274994
v -2.346981E-08 2.727318 1.958435
v -0.08621107 2.731719 1.935308
v -0.08621107 2.307737 1.93155
v -2.346981E-08 2.303336 1.954677
v 0.08621103 2.307737 1.93155
v 0.08621103 2.731719 1.935308
v 0.001273631 1.396189 0.3803347
v 0.1953148 1.388462 0.3861869
v 0.001273631 1.498922 0.4050754
v 0.1949778 1.512718 0.3942697
v 0.3825591 1.455615 0.3780586
v 0.3778684 1.530818 0.3629751
v 0.5309952 1.55797 0.2640824
v 0.3888492 1.354769 0.3607532
v 0.5338877 1.452241 0.2613142
v 0.6413316 1.588413 0.09243507
v 0.5339186 1.347477 0.2604093
v 0.5412518 1.286282 0.3059165
v 0.691535 1.332851 0.09216341
v 0.6484839 1.206323 0.2579303
v 0.7198422 1.451477 0.0861706
v 0.657711 1.599661 -0.1430192
v 0.7439209 1.245783 0.1086164
v 0.7978643 1.014795 0.1361235
v 0.7170303 1.342779 -0.143219
v 0.7333906 1.466615 -0.1443238
v 0.6194662 1.337066 -0.3108428
v 0.5915664 1.60694 -0.3274934
v 0.7776921 1.257686 -0.143219
v 0.8868176 1.025394 -0.143219
v 0.6469324 1.491031 -0.3485989
v 0.4813716 1.609354 -0.4703213
v 0.6751012 1.217587 -0.3177786
v 0.8084421 0.9920967 -0.295097
v 0.5774326 1.187339 -0.4158703
v 0.4943201 1.297472 -0.4694391
v 0.5082 1.503204 -0.48237
v 0.2835767 1.608374 -0.5349543
v 0.4800968 1.369416 -0.454063
v 0.2837263 1.421792 -0.550597
v 0.08511787 1.46027 -0.5560132
v 0.08507301 1.604895 -0.542454
v -2.384186E-09 1.471222 -0.5294482
v -2.384186E-09 1.604366 -0.5350168
v -0.2887259 2.621487 1.712222
v -0.2483068 2.765668 1.799454
v -0.3393583 2.804963 1.74524
v -0.4012147 2.667968 1.625208
v -0.3558421 2.82053 1.740659
v -0.3655413 2.854792 1.748824
v -0.4628506 2.734809 1.607542
v -0.4548922 2.890714 1.709212
v 0.2887259 2.621487 1.712222
v 0.3393583 2.804963 1.74524
v 0.2483068 2.765668 1.799454
v 0.4012147 2.667968 1.625208
v 0.3558421 2.82053 1.740659
v 0.3655413 2.854792 1.748824
v 0.4548922 2.890714 1.709212
v 0.4628506 2.734809 1.607542
v -0.9963549 2.286731 -0.172031
v -0.9181868 2.130154 -0.2165844
v -0.9064639 2.169289 0.07275814
v -0.8620394 2.203614 -0.4554211
v -1.023504 2.348154 -0.4252436
v -0.9882076 2.509228 -0.7035585
v -0.7990953 2.361901 -0.7138702
v -0.7241863 2.581327 -0.9126971
v -0.9163554 2.706649 -0.9116997
v -0.7640992 2.919137 -1.025621
v -0.6050267 2.747429 -1.019513
v -0.4281825 2.846429 -1.005296
v -0.5113578 3.058315 -1.024922
v -0.2330009 2.825897 -0.941887
v -0.2281076 3.055952 -0.9653274
v 0.02831335 2.956008 -0.9134749
v -0.04071358 2.727793 -0.8975059
v 0.1624914 2.621868 -0.8986833
v 0.246567 2.849743 -0.9339554
v 0.4067722 2.553754 -0.9316369
v 0.4501289 2.783863 -0.9815562
v 0.6490171 2.79183 -1.036995
v 0.6862487 2.580709 -0.9538668
v 0.9074879 2.728633 -0.9600575
v 0.7775626 2.886252 -1.00054
v 0.9921822 2.965443 -0.9428666
v 0.8088021 3.03033 -0.9772906
v 0.9556957 3.226532 -0.9336584
v 0.7664088 3.185021 -0.9742144
v 0.6829044 3.286885 -0.9877335
v 0.8260428 3.421139 -0.9471769
v 0.6330208 3.531528 -0.9598962
v 0.5774607 3.333708 -1.002939
v 0.350647 3.340516 -0.9968485
v 0.3742418 3.565353 -0.9551714
v 0.09731589 3.503625 -0.9529491
v 0.1574819 3.278422 -0.9822012
v -0.009504084 3.160275 -0.9817339
v -0.14119 3.353383 -0.9996047
v -0.3168392 3.133278 -1.041381
v -0.1294307 2.990351 -0.9968616
v -0.4207077 2.884159 -1.029305
v -0.1997616 2.785779 -0.9823862
v -0.2432588 2.563437 -0.9447384
v -0.4772853 2.635155 -0.9864576
v -0.5448838 2.369796 -0.9170427
v -0.30676 2.308786 -0.9011274
v -0.3550603 2.041347 -0.8903204
v -0.5960875 2.092387 -0.8871847
v -0.6517947 1.817856 -0.8849868
v -0.4091693 1.773701 -0.9027095
v -0.7238909 1.532186 -0.9594527
v -0.4831814 1.486824 -0.980382
v -0.8400089 1.207653 -1.085608
v -0.5989369 1.163783 -1.106013
v 0.9469213 2.177919 -0.2286667
v 1.015183 2.272207 -0.1594266
v 0.9077556 2.17211 0.0726421
v 1.022159 2.49259 -0.5492368
v 0.8930648 2.362411 -0.6398104
v 0.8005058 2.580117 -0.8717628
v 0.9484963 2.714689 -0.7544847
v 0.8124995 2.935434 -0.9148805
v 0.6924581 2.751095 -0.9974047
v 0.5165457 2.824619 -1.031996
v 0.5901833 3.044199 -1.003709
v 0.3199613 3.063981 -1.028213
v 0.3141298 2.828627 -1.03133
v 0.06023596 3.00661 -1.018189
v 0.1147971 2.77236 -1.028437
v -0.07984042 2.675269 -1.022092
v -0.1634939 2.903618 -1.019808
v -0.3735852 2.805361 -1.028603
v -0.3021776 2.574485 -1.009557
v -0.5670254 2.759866 -1.012621
v -0.5487522 2.528844 -0.9730045
v -0.7832422 2.611883 -0.8797058
v -0.7299339 2.813237 -0.9749184
v -0.7896935 2.903066 -0.9503059
v -0.9438336 2.795003 -0.8563883
v -0.8118024 3.033132 -0.9393387
v -0.9888257 2.993094 -0.8552545
v -0.7723727 3.184354 -0.9495894
v -0.9413301 3.250463 -0.8637391
v -0.8097783 3.466242 -0.899407
v -0.6788641 3.309433 -0.9786798
v -0.5389995 3.347558 -1.01722
v -0.5928184 3.554943 -0.9590837
v -0.371689 3.565383 -1.002058
v -0.3660419 3.337342 -1.047644
v -0.1780187 3.272379 -1.034714
v -0.1045597 3.493079 -1.006276
v 0.1286857 3.338545 -1.015574
v -0.01603953 3.155056 -1.001109
v 0.07665692 2.976061 -0.9655197
v 0.2750044 3.10475 -1.01558
v 0.1326601 2.768002 -0.9453213
v 0.3583852 2.857664 -0.984441
v 0.4272445 2.581898 -0.952543
v 0.1931952 2.511352 -0.9256448
v 0.2679404 2.179892 -0.8945949
v 0.5061675 2.237808 -0.8839347
v 0.5574192 1.915037 -0.8825041
v 0.3174326 1.869384 -0.9049161
v 0.5997579 1.655423 -0.8975345
v 0.3586237 1.618175 -0.9263724
v 0.4142419 1.363349 -1.006602
v 0.6557912 1.400649 -0.9798539
v 0.5308162 1.095853 -1.103335
v 0.7726687 1.131584 -1.077116
vt 0.7988281 0.8598633
vt 0.8432617 0.8598633
vt 0.8432617 0.9912109
vt 0.7988281 0.9912109
vt 0.8217773 0.9912109
vt 0.7988281 0.9912109
vt 0.7988281 0.8598633
vt 0.8212891 0.8598633
vt 0.8432617 0.8598633
vt 0.8432617 0.9912109
vt 0.3640137 0.6704102
vt 0.3928223 0.6704102
vt 0.3640137 0.6933594
vt 0.3959961 0.6928711
vt 0.4260254 0.6796875
vt 0.4284668 0.6933594
vt 0.458252 0.6933594
vt 0.423584 0.6660156
vt 0.4550781 0.6767578
vt 0.4899902 0.6933594
vt 0.4516602 0.6591797
vt 0.4455566 0.6484375
vt 0.4870605 0.6479492
vt 0.4587402 0.6323242
vt 0.4916992 0.6669922
vt 0.5244141 0.6928711
vt 0.4863281 0.6298828
vt 0.4816895 0.5830078
vt 0.5229492 0.6450195
vt 0.5229492 0.6665039
vt 0.5537109 0.6450195
vt 0.5527344 0.6933594
vt 0.5205078 0.6274414
vt 0.5185547 0.5805664
vt 0.5532227 0.671875
vt 0.5791016 0.6933594
vt 0.5532227 0.6235352
vt 0.5463867 0.5795898
vt 0.574707 0.6225586
vt 0.5849609 0.6420898
vt 0.5795898 0.6762695
vt 0.6142578 0.6933594
vt 0.5834961 0.6538086
vt 0.6157227 0.6635742
vt 0.6479492 0.6689453
vt 0.6479492 0.6933594
vt 0.6630859 0.6708984
vt 0.6630859 0.6933594
vt 0.1563721 0.7597656
vt 0.1491699 0.8022461
vt 0.1704102 0.8022461
vt 0.1853027 0.7597656
vt 0.1750488 0.8046875
vt 0.1776123 0.8125
vt 0.1990967 0.7719727
vt 0.1990967 0.8125
vt 0.1563721 0.7597656
vt 0.1704102 0.8022461
vt 0.1491699 0.8022461
vt 0.1853027 0.7597656
vt 0.1750488 0.8046875
vt 0.1776123 0.8125
vt 0.1990967 0.8125
vt 0.1990967 0.7719727
vt 0.9604492 0.496582
vt 0.9296875 0.496582
vt 0.9604492 0.5161133
vt 0.9296875 0.4765625
vt 0.9604492 0.4765625
vt 0.9604492 0.456543
vt 0.9296875 0.456543
vt 0.9296875 0.4370117
vt 0.9604492 0.4370117
vt 0.9604492 0.4169922
vt 0.9296875 0.4169922
vt 0.9296875 0.3962402
vt 0.9604492 0.3962402
vt 0.9296875 0.376709
vt 0.9604492 0.376709
vt 0.9604492 0.3579102
vt 0.9296875 0.3579102
vt 0.9296875 0.3391113
vt 0.9604492 0.3391113
vt 0.9296875 0.3242188
vt 0.9604492 0.3242188
vt 0.9604492 0.3029785
vt 0.9296875 0.3029785
vt 0.9296875 0.2814941
vt 0.9604492 0.2814941
vt 0.9296875 0.2675781
vt 0.9604492 0.2675781
vt 0.9296875 0.24646
vt 0.9604492 0.24646
vt 0.9604492 0.2324219
vt 0.9296875 0.2324219
vt 0.9296875 0.21875
vt 0.9604492 0.21875
vt 0.9604492 0.1983643
vt 0.9296875 0.1983643
vt 0.9296875 0.1778564
vt 0.9604492 0.1778564
vt 0.9604492 0.1627197
vt 0.9296875 0.1627197
vt 0.9296875 0.1430664
vt 0.9604492 0.1430664
vt 0.9296875 0.1235962
vt 0.9604492 0.1235962
vt 0.9604492 0.1040649
vt 0.9296875 0.1040649
vt 0.9296875 0.08447266
vt 0.9604492 0.08447266
vt 0.9604492 0.06604004
vt 0.9296875 0.065979
vt 0.9296875 0.04696655
vt 0.9604492 0.04702759
vt 0.9296875 0.02522278
vt 0.9604492 0.02522278
vt 0.9296875 0.005466461
vt 0.9604492 0.005466461
vt 0.9956055 0.4958496
vt 0.9648438 0.4958496
vt 0.9648438 0.515625
vt 0.9648438 0.4760742
vt 0.9956055 0.4760742
vt 0.9956055 0.4553223
vt 0.9648438 0.4553223
vt 0.9648438 0.4343262
vt 0.9956055 0.4343262
vt 0.9956055 0.4145508
vt 0.9648438 0.4145508
vt 0.9648438 0.395752
vt 0.9956055 0.395752
vt 0.9648438 0.3762207
vt 0.9956055 0.3762207
vt 0.9956055 0.3574219
vt 0.9648438 0.3574219
vt 0.9648438 0.3391113
vt 0.9956055 0.3391113
vt 0.9648438 0.3249512
vt 0.9956055 0.3249512
vt 0.9956055 0.3032227
vt 0.9648438 0.3032227
vt 0.9648438 0.28125
vt 0.9956055 0.28125
vt 0.9648438 0.2668457
vt 0.9956055 0.2668457
vt 0.9648438 0.2495117
vt 0.9956055 0.2495117
vt 0.9956055 0.2321777
vt 0.9648438 0.2321777
vt 0.9648438 0.2191162
vt 0.9956055 0.2191162
vt 0.9956055 0.1989746
vt 0.9648438 0.1989746
vt 0.9648438 0.178833
vt 0.9956055 0.178833
vt 0.9956055 0.1635742
vt 0.9648438 0.1635742
vt 0.9648438 0.1434326
vt 0.9956055 0.1434326
vt 0.9648438 0.1252441
vt 0.9956055 0.1252441
vt 0.9956055 0.09539795
vt 0.9648438 0.09539795
vt 0.9648438 0.07122803
vt 0.9956055 0.07086182
vt 0.9956055 0.0524292
vt 0.9648438 0.05252075
vt 0.9956055 0.03811646
vt 0.9648438 0.03829956
vt 0.9648438 0.02488708
vt 0.9956055 0.02488708
vt 0.9648438 0.006229401
vt 0.9956055 0.006229401
vn -0 0.02557063 -0.999673
vn -0 0.02557064 -0.999673
vn -0 0.02557063 -0.999673
vn -0 0.02557064 -0.999673
vn -0 0.008864146 -0.9999608
vn 0.2594922 0.008560505 -0.9657072
vn 0.2594922 0.008560504 -0.9657072
vn -0 0.008864145 -0.9999608
vn -0.2594923 0.008560504 -0.9657072
vn -0.2594922 0.008560504 -0.9657072
vn 0.03861682 0.2339593 -0.9714792
vn -0.05496872 0.101228 -0.9933435
vn -0.0006775111 0.1673964 -0.9858894
vn -0.06974731 0.04339383 -0.9966204
vn -0.4255853 0.001606065 -0.9049169
vn -0.4696704 -0.1146606 -0.8753643
vn -0.6837533 -0.1751039 -0.7083927
vn -0.4728273 0.04810748 -0.8798409
vn -0.6742805 -0.05333759 -0.7365466
vn -0.8467199 -0.3841962 -0.3680471
vn -0.6684019 -0.08556212 -0.7388627
vn -0.6162382 -0.5228323 -0.5889795
vn -0.8816915 -0.2211547 -0.4167861
vn -0.6953967 -0.4400602 -0.568129
vn -0.9240052 -0.1514283 -0.351118
vn -0.8672931 -0.4886347 0.09507222
vn -0.8562909 -0.4027106 -0.3234038
vn -0.9048215 -0.3268357 -0.2729041
vn -0.9656107 -0.1457262 0.215313
vn -0.9751634 -0.1693872 0.1427035
vn -0.7932965 -0.02882434 0.6081529
vn -0.7895932 -0.4216884 0.445782
vn -0.8970548 -0.4259234 0.1178215
vn -0.9178007 -0.3834237 0.1030917
vn -0.8334391 -0.07401017 0.5476328
vn -0.5739148 -0.2992355 0.7622859
vn -0.7270858 -0.3611704 0.5838682
vn -0.7590805 -0.3758999 0.5315037
vn -0.6718287 -0.2840235 0.6840883
vn -0.6599418 -0.2790653 0.6975667
vn -0.5883186 0.005966037 0.8086072
vn -0.126257 -0.09201913 0.9877204
vn -0.5950047 0.1416188 0.7911471
vn -0.1613595 -0.05257428 0.9854944
vn 0.01329387 -0.07459754 0.9971251
vn 0.02211656 -0.07239694 0.9971307
vn 0.1941801 -0.02817636 0.9805611
vn 0.1941801 -0.02817636 0.9805611
vn 0.6372021 0.303344 -0.7084885
vn 0.579824 0.2965723 -0.7588472
vn 0.6121541 0.3140724 -0.7256899
vn 0.5975594 0.3668295 -0.712993
vn 0.60482 0.3583136 -0.711199
vn 0.5559208 0.404957 -0.7259215
vn 0.5529799 0.4073622 -0.7268214
vn 0.5529799 0.4073622 -0.7268214
vn -0.6372019 0.3033441 -0.7084886
vn -0.612154 0.3140725 -0.72569
vn -0.579824 0.2965721 -0.7588472
vn -0.5975592 0.3668295 -0.7129931
vn -0.6048179 0.3583141 -0.7112006
vn -0.5559207 0.404957 -0.7259216
vn -0.5529799 0.4073622 -0.7268214
vn -0.5529799 0.4073622 -0.7268214
vn 0.8250493 0.5523573 0.1191425
vn 0.8229697 0.5541973 0.1248443
vn 0.8788155 0.4668323 -0.09874681
vn 0.681939 0.6250746 0.3797908
vn 0.6756313 0.6267352 0.3882338
vn 0.5013316 0.6005567 0.6228951
vn 0.5213695 0.610582 0.5961238
vn 0.3572806 0.4637361 0.8107401
vn 0.3511598 0.4546418 0.8185277
vn 0.1186527 0.1957161 0.9734561
vn 0.1134869 0.1909055 0.975026
vn -0.1582368 0.04291869 0.986468
vn -0.1393905 0.04123187 0.9893786
vn -0.1965767 0.08605774 0.9767045
vn -0.2091607 0.0772012 0.9748291
vn -0.04477395 0.09746774 0.9942311
vn -0.01956221 0.09450781 0.9953318
vn 0.1524688 0.1017536 0.9830563
vn 0.1516428 0.1014696 0.9832133
vn 0.1767209 0.1957548 0.9645983
vn 0.1712648 0.2072273 0.963185
vn -0.04528411 0.2542974 0.9660653
vn -0.005845546 0.2616961 0.9651327
vn -0.2394605 0.1242439 0.9629237
vn -0.2425186 0.08874676 0.966079
vn -0.2293078 -0.04382797 0.9723668
vn -0.2204669 -0.05105099 0.9740576
vn -0.2033125 -0.06390662 0.977026
vn -0.2040733 -0.06296112 0.9769289
vn -0.1858132 -0.1060343 0.9768471
vn -0.188948 -0.09917433 0.9769662
vn -0.05902533 -0.178775 0.982118
vn -0.05889079 -0.1788149 0.9821186
vn 0.04518354 -0.169993 0.9844089
vn 0.03698232 -0.1756872 0.9837511
vn 0.00754478 -0.1094631 0.9939622
vn -0.008176419 -0.1000404 0.9949498
vn -0.1391927 -0.02610338 0.9899212
vn -0.1280715 -0.03197063 0.9912494
vn -0.172686 0.05470106 0.9834568
vn -0.1692302 0.06479333 0.9834445
vn -0.1361935 0.1509166 0.9791197
vn -0.1329998 0.1581982 0.9784092
vn -0.08273183 0.2107939 0.9740233
vn -0.0866951 0.2086603 0.974138
vn -0.03277606 0.1530335 0.9876773
vn -0.03141343 0.1486627 0.9883889
vn 0.0148453 0.02418759 0.9995973
vn 0.01430679 0.0253695 0.9995758
vn 0.03300085 -0.1542931 0.9874738
vn 0.03320992 -0.1491382 0.9882585
vn 0.01910512 -0.3221396 0.9464993
vn 0.01992025 -0.3170152 0.9482113
vn 0.0120251 -0.3660964 0.9304993
vn 0.0120251 -0.3660964 0.9304993
vn -0.8151379 0.522057 0.2510114
vn -0.8157707 0.5335441 0.2232689
vn -0.7747686 0.6260003 -0.08864006
vn -0.7916532 0.4169114 0.4466209
vn -0.78767 0.406123 0.4632927
vn -0.7130905 0.2083576 0.6693946
vn -0.7183263 0.2242166 0.658585
vn -0.5386515 0.01988788 0.8422939
vn -0.5301024 0.01459958 0.8478079
vn -0.1830334 -0.07718133 0.9800724
vn -0.2023071 -0.07972793 0.9760714
vn -0.01212878 -0.0432741 0.9989896
vn -0.005258911 -0.04055643 0.9991634
vn 0.02816509 -0.02294391 0.9993399
vn 0.02719662 -0.02263703 0.9993739
vn 0.00598088 0.008819039 0.9999433
vn 0.007575847 0.005724624 0.9999549
vn 0.03803951 0.08543466 0.9956174
vn 0.03947812 0.08706932 0.9954197
vn 0.2380084 0.1979402 0.9508795
vn 0.2200955 0.1914478 0.956507
vn 0.4069372 0.2377355 0.8819772
vn 0.4181399 0.233779 0.877785
vn 0.4565792 0.1369257 0.8790829
vn 0.4570802 0.1491587 0.8768291
vn 0.4435142 -0.008421939 0.8962277
vn 0.4455079 0.006445677 0.8952548
vn 0.4271645 -0.08099871 0.9005386
vn 0.4279931 -0.07861794 0.9003561
vn 0.3739224 -0.1438382 0.9162383
vn 0.3671905 -0.1495331 0.9180474
vn 0.2402697 -0.1977148 0.9503574
vn 0.2532876 -0.1961018 0.9473065
vn 0.05868972 -0.180435 0.9818344
vn 0.02956183 -0.1741805 0.98427
vn -0.06357574 -0.07037029 0.9954928
vn -0.06380519 -0.08233973 0.9945597
vn -0.002001295 0.05675075 0.9983864
vn 0.01177339 0.06993605 0.997482
vn 0.1045584 0.1401531 0.9845936
vn 0.0977767 0.1373863 0.9856797
vn 0.1120114 0.132475 0.984837
vn 0.1143218 0.1348796 0.9842449
vn 0.04350461 0.1334763 0.9900967
vn 0.0386051 0.1346229 0.9901446
vn -0.03429218 0.06171759 0.9975044
vn -0.0326172 0.06655754 0.9972493
vn -0.07570539 -0.05116495 0.9958166
vn -0.0762494 -0.05239841 0.995711
vn -0.07563802 -0.2059417 0.9756367
vn -0.07588024 -0.2041259 0.9759994
vn -0.05441985 -0.3361374 0.9402394
vn -0.05350209 -0.3393273 0.9391456
vn -0.04807758 -0.3580512 0.9324633
vn -0.04807758 -0.3580512 0.9324633
g backface_geo_0
f 3/3/3 2/2/2 1/1/1
f 4/4/4 3/3/3 1/1/1
f 7/7/7 6/6/6 5/5/5
f 8/8/8 7/7/7 5/5/5
f 9/9/9 8/8/8 5/5/5
f 10/10/10 9/9/9 5/5/5
f 13/13/13 12/12/12 11/11/11
f 14/14/14 12/12/12 13/13/13
f 15/15/15 12/12/12 14/14/14
f 14/14/14 16/16/16 15/15/15
f 16/16/16 17/17/17 15/15/15
f 15/15/15 18/18/18 12/12/12
f 17/17/17 19/19/19 15/15/15
f 15/15/15 19/19/19 18/18/18
f 17/17/17 20/20/20 19/19/19
f 19/19/19 21/21/21 18/18/18
f 21/21/21 22/22/22 18/18/18
f 22/22/22 21/21/21 23/23/23
f 23/23/23 21/21/21 19/19/19
f 24/24/24 22/22/22 23/23/23
f 20/20/20 25/25/25 19/19/19
f 25/25/25 23/23/23 19/19/19
f 20/20/20 26/26/26 25/25/25
f 27/27/27 24/24/24 23/23/23
f 28/28/28 24/24/24 27/27/27
f 29/29/29 23/23/23 25/25/25
f 27/27/27 23/23/23 29/29/29
f 26/26/26 30/30/30 25/25/25
f 30/30/30 29/29/29 25/25/25
f 31/31/31 29/29/29 30/30/30
f 26/26/26 32/32/32 30/30/30
f 28/28/28 27/27/27 33/33/33
f 33/33/33 27/27/27 29/29/29
f 33/33/33 29/29/29 31/31/31
f 34/34/34 28/28/28 33/33/33
f 32/32/32 35/35/35 30/30/30
f 35/35/35 31/31/31 30/30/30
f 32/32/32 36/36/36 35/35/35
f 34/34/34 33/33/33 37/37/37
f 37/37/37 33/33/33 31/31/31
f 38/38/38 34/34/34 37/37/37
f 38/38/38 37/37/37 39/39/39
f 39/39/39 37/37/37 40/40/40
f 37/37/37 31/31/31 40/40/40
f 36/36/36 41/41/41 35/35/35
f 31/31/31 35/35/35 41/41/41
f 36/36/36 42/42/42 41/41/41
f 40/40/40 31/31/31 43/43/43
f 43/43/43 31/31/31 41/41/41
f 40/40/40 43/43/43 44/44/44
f 43/43/43 41/41/41 44/44/44
f 41/41/41 42/42/42 44/44/44
f 45/45/45 44/44/44 42/42/42
f 46/46/46 45/45/45 42/42/42
f 47/47/47 45/45/45 46/46/46
f 48/48/48 47/47/47 46/46/46
f 51/51/51 50/50/50 49/49/49
f 52/52/52 51/51/51 49/49/49
f 53/53/53 51/51/51 52/52/52
f 52/52/52 54/54/54 53/53/53
f 54/54/54 52/52/52 55/55/55
f 56/56/56 54/54/54 55/55/55
f 59/59/59 58/58/58 57/57/57
f 58/58/58 60/60/60 57/57/57
f 61/61/61 60/60/60 58/58/58
f 61/61/61 62/62/62 60/60/60
f 62/62/62 63/63/63 60/60/60
f 63/63/63 64/64/64 60/60/60
f 67/67/67 66/66/66 65/65/65
f 65/65/65 66/66/66 68/68/68
f 69/69/69 65/65/65 68/68/68
f 69/69/69 68/68/68 70/70/70
f 68/68/68 71/71/71 70/70/70
f 70/70/70 71/71/71 72/72/72
f 73/73/73 70/70/70 72/72/72
f 73/73/73 72/72/72 74/74/74
f 72/72/72 75/75/75 74/74/74
f 74/74/74 75/75/75 76/76/76
f 77/77/77 74/74/74 76/76/76
f 77/77/77 76/76/76 78/78/78
f 79/79/79 77/77/77 78/78/78
f 79/79/79 78/78/78 80/80/80
f 78/78/78 81/81/81 80/80/80
f 80/80/80 81/81/81 82/82/82
f 83/83/83 80/80/80 82/82/82
f 83/83/83 82/82/82 84/84/84
f 85/85/85 83/83/83 84/84/84
f 85/85/85 84/84/84 86/86/86
f 84/84/84 87/87/87 86/86/86
f 87/87/87 88/88/88 86/86/86
f 88/88/88 89/89/89 86/86/86
f 89/89/89 88/88/88 90/90/90
f 91/91/91 89/89/89 90/90/90
f 91/91/91 90/90/90 92/92/92
f 93/93/93 91/91/91 92/92/92
f 93/93/93 92/92/92 94/94/94
f 92/92/92 95/95/95 94/94/94
f 94/94/94 95/95/95 96/96/96
f 97/97/97 94/94/94 96/96/96
f 97/97/97 96/96/96 98/98/98
f 96/96/96 99/99/99 98/98/98
f 98/98/98 99/99/99 100/100/100
f 101/101/101 98/98/98 100/100/100
f 101/101/101 100/100/100 102/102/102
f 100/100/100 103/103/103 102/102/102
f 102/102/102 103/103/103 104/104/104
f 105/105/105 102/102/102 104/104/104
f 105/105/105 104/104/104 106/106/106
f 107/107/107 105/105/105 106/106/106
f 107/107/107 106/106/106 108/108/108
f 106/106/106 109/109/109 108/108/108
f 108/108/108 109/109/109 110/110/110
f 111/111/111 108/108/108 110/110/110
f 111/111/111 110/110/110 112/112/112
f 110/110/110 113/113/113 112/112/112
f 112/112/112 113/113/113 114/114/114
f 115/115/115 112/112/112 114/114/114
f 115/115/115 114/114/114 116/116/116
f 117/117/117 115/115/115 116/116/116
f 117/117/117 116/116/116 118/118/118
f 119/119/119 117/117/117 118/118/118
f 122/122/122 121/121/121 120/120/120
f 120/120/120 121/121/121 123/123/123
f 124/124/124 120/120/120 123/123/123
f 124/124/124 123/123/123 125/125/125
f 123/123/123 126/126/126 125/125/125
f 125/125/125 126/126/126 127/127/127
f 128/128/128 125/125/125 127/127/127
f 128/128/128 127/127/127 129/129/129
f 127/127/127 130/130/130 129/129/129
f 129/129/129 130/130/130 131/131/131
f 132/132/132 129/129/129 131/131/131
f 132/132/132 131/131/131 133/133/133
f 134/134/134 132/132/132 133/133/133
f 134/134/134 133/133/133 135/135/135
f 133/133/133 136/136/136 135/135/135
f 135/135/135 136/136/136 137/137/137
f 138/138/138 135/135/135 137/137/137
f 138/138/138 137/137/137 139/139/139
f 140/140/140 138/138/138 139/139/139
f 140/140/140 139/139/139 141/141/141
f 139/139/139 142/142/142 141/141/141
f 141/141/141 142/142/142 143/143/143
f 144/144/144 141/141/141 143/143/143
f 144/144/144 143/143/143 145/145/145
f 146/146/146 144/144/144 145/145/145
f 146/146/146 145/145/145 147/147/147
f 148/148/148 146/146/146 147/147/147
f 148/148/148 147/147/147 149/149/149
f 147/147/147 150/150/150 149/149/149
f 149/149/149 150/150/150 151/151/151
f 152/152/152 149/149/149 151/151/151
f 152/152/152 151/151/151 153/153/153
f 151/151/151 154/154/154 153/153/153
f 153/153/153 154/154/154 155/155/155
f 156/156/156 153/153/153 155/155/155
f 156/156/156 155/155/155 157/157/157
f 155/155/155 158/158/158 157/157/157
f 157/157/157 158/158/158 159/159/159
f 160/160/160 157/157/157 159/159/159
f 160/160/160 159/159/159 161/161/161
f 162/162/162 160/160/160 161/161/161
f 162/162/162 161/161/161 163/163/163
f 161/161/161 164/164/164 163/163/163
f 163/163/163 164/164/164 165/165/165
f 166/166/166 163/163/163 165/165/165
f 166/166/166 165/165/165 167/167/167
f 165/165/165 168/168/168 167/167/167
f 167/167/167 168/168/168 169/169/169
f 168/168/168 170/170/170 169/169/169
f 169/169/169 170/170/170 171/171/171
f 172/172/172 169/169/169 171/171/171
f 172/172/172 171/171/171 173/173/173
f 174/174/174 172/172/172 173/173/173
