g body_geo
v 0.09830419 0.048544 -0.09830411
v -3.189163E-05 0.1693138 -0.1119578
v 1.154266E-07 0.048544 -0.1390231
v 0.07914431 0.1693138 -0.07916192
v 0.1390231 0.048544 -2.091478E-08
v -6.390968E-05 0.2900838 -0.07345507
v 0.1119401 0.1693138 1.431296E-05
v 0.09830417 0.048544 0.09830414
v 0.04560037 0.2900838 -0.05193223
v -0.0001279307 0.5316238 -0.01133562
v 0.07914428 0.1693138 0.07919052
v -3.702868E-08 0.048544 0.1390231
v 0.0079281 0.5316238 -0.007998841
v 1.502769E-08 0.5464045 1.740988E-08
v 0.06712318 0.2900838 2.864764E-05
v 0.01126489 0.5316238 5.731664E-05
v 0.04560034 0.2900838 0.05198942
v -3.204234E-05 0.1693138 0.1119864
v 0.007928077 0.5316238 0.008113177
v -0.07920828 0.1693138 0.07919057
v -0.09830417 0.048544 0.09830414
v -0.1390231 0.048544 -7.589865E-08
v -6.404246E-05 0.2900838 0.07351234
v -0.1120041 0.1693138 1.423927E-05
v -0.09830412 0.048544 -0.09830417
v -0.0001280501 0.5316238 0.01145014
v -0.05580281 0.2900838 0.05198951
v -0.07920823 0.1693138 -0.07916193
v 1.154266E-07 0.048544 -0.1390231
v -3.189163E-05 0.1693138 -0.1119578
v -0.008184081 0.5316238 0.008113363
v -0.07732563 0.2900838 2.856362E-05
v -0.05580276 0.2900838 -0.05193217
v -6.390968E-05 0.2900838 -0.07345507
v -0.01152087 0.5316238 5.719964E-05
v -0.008184059 0.5316238 -0.007998657
v -0.0001279307 0.5316238 -0.01133562
v 0.3049959 0 -0.06066747
v 0.1648761 0.006498565 -1.841551E-08
v 0.3049957 0 0.06066755
v 0.258563 0 -0.172766
v 0.116585 0.006498565 0.1165851
v 4.603242E-10 0.1263553 -9.206484E-10
v 0.258563 0 0.1727662
v 0.1727662 0 0.2585628
v 0.1165851 0.006498565 -0.116585
v 0.1727664 0 -0.2585628
v 0.06066772 0 -0.3049956
v -1.953381E-08 0.006498565 0.1648761
v 0.06066743 0 0.3049959
v -0.06066759 0 0.3049957
v 9.043392E-08 0.006498565 -0.1648761
v -0.06066732 0 -0.3049958
v -0.1727661 0 -0.258563
v -0.1165851 0.006498565 0.116585
v -0.1727663 0 0.2585629
v -0.2585629 0 0.1727661
v -0.116585 0.006498565 -0.1165851
v -0.2585628 0 -0.1727663
v -0.3049956 0 -0.06066769
v -0.1648761 0.006498565 -5.840378E-08
v -0.3049959 0 0.06066738
v 0.3049957 0 0.06066755
v 0.2936545 0.007000885 -0.05841153
v 0.3049959 0 -0.06066747
v 0.2936543 0.007000885 0.05841161
v 0.258563 0 0.1727662
v 0.2489482 0.007000885 -0.1663417
v 0.258563 0 -0.172766
v 0.2489482 0.007000885 0.1663419
v 0.1727662 0 0.2585628
v 0.166342 0.007000885 -0.2489481
v 0.1727664 0 -0.2585628
v 0.1663418 0.007000885 0.2489481
v 0.06066743 0 0.3049959
v 0.05841177 0.007000885 -0.2936542
v 0.06066772 0 -0.3049956
v 0.05841149 0.007000885 0.2936545
v -0.06066759 0 0.3049957
v -0.05841138 0.007000885 -0.2936544
v -0.06066732 0 -0.3049958
v -0.05841165 0.007000885 0.2936543
v -0.1727663 0 0.2585629
v -0.1663417 0.007000885 -0.2489482
v -0.1727661 0 -0.258563
v -0.1663419 0.007000885 0.2489481
v -0.2585629 0 0.1727661
v -0.2489481 0.007000885 -0.1663419
v -0.2585628 0 -0.1727663
v -0.2489481 0.007000885 0.1663417
v -0.3049959 0 0.06066738
v -0.2936542 0.007000885 -0.05841173
v -0.3049956 0 -0.06066769
v -0.2936545 0.007000885 0.05841145
v -0.1257116 0.02761566 -0.1881409
v -0.1881408 0.02761566 -0.1257118
v -0.2219273 0.02761566 -0.04414427
v -0.2219274 0.02761566 0.04414407
v -0.1881408 0.02761566 0.1257117
v -0.1257118 0.02761566 0.1881409
v -0.04414402 0.02761566 -0.2219274
v -0.1390231 0.048544 -7.589865E-08
v -0.09830417 0.048544 0.09830414
v -0.09830412 0.048544 -0.09830417
v -3.702868E-08 0.048544 0.1390231
v 1.154266E-07 0.048544 -0.1390231
v -0.04414422 0.02761566 0.2219273
v 0.0441441 0.02761566 0.2219274
v 0.09830417 0.048544 0.09830414
v 0.1257117 0.02761566 0.1881408
v 0.1881409 0.02761566 0.1257118
v 0.1390231 0.048544 -2.091478E-08
v 0.2219273 0.02761566 0.04414419
v 0.2219274 0.02761566 -0.04414412
v 0.09830419 0.048544 -0.09830411
v 0.1881409 0.02761566 -0.1257116
v 0.1257118 0.02761566 -0.1881408
v 0.0441443 0.02761566 -0.2219272
vt 0.8862305 0.1292725
vt 0.8798828 0.3293457
vt 0.9902344 0.2160645
vt 0.7993164 0.2592773
vt 0.7661133 0.06396484
vt 0.7573242 0.432373
vt 0.7075195 0.2081299
vt 0.6347656 0.02565002
vt 0.7070312 0.392334
vt 0.5473633 0.6625977
vt 0.6069336 0.178833
vt 0.4980469 0.015625
vt 0.5390625 0.6557617
vt 0.5097656 0.6694336
vt 0.6430664 0.3591309
vt 0.5297852 0.6503906
vt 0.5732422 0.338623
vt 0.5024414 0.1713867
vt 0.5200195 0.6469727
vt 0.3979492 0.1850586
vt 0.362793 0.0333252
vt 0.2337646 0.07714844
vt 0.5087891 0.3322754
vt 0.2976074 0.2192383
vt 0.1160278 0.1446533
vt 0.5097656 0.6459961
vt 0.4326172 0.3405762
vt 0.2049561 0.2724609
vt 0.01338959 0.2318115
vt 0.1237793 0.3430176
vt 0.4990234 0.6469727
vt 0.3642578 0.362793
vt 0.302002 0.3981934
vt 0.2456055 0.4487305
vt 0.4892578 0.6508789
vt 0.4802246 0.6567383
vt 0.4726562 0.6640625
vt 0.987793 0.7436523
vt 0.8964844 0.784668
vt 0.987793 0.8261719
vt 0.9570312 0.6669922
vt 0.8623047 0.8662109
vt 0.7807617 0.7841797
vt 0.9560547 0.9023438
vt 0.8974609 0.9604492
vt 0.862793 0.7026367
vt 0.8989258 0.6088867
vt 0.8227539 0.5766602
vt 0.7802734 0.8999023
vt 0.8208008 0.9916992
vt 0.7387695 0.9916992
vt 0.7807617 0.668457
vt 0.7402344 0.5766602
vt 0.6635742 0.6079102
vt 0.6987305 0.8657227
vt 0.6625977 0.9594727
vt 0.6040039 0.9008789
vt 0.6992188 0.7021484
vt 0.6054688 0.6660156
vt 0.5732422 0.7421875
vt 0.6650391 0.7836914
vt 0.5732422 0.824707
vt 0.4516602 0.7255859
vt 0.4421387 0.8120117
vt 0.4516602 0.8139648
vt 0.4421387 0.7275391
vt 0.4177246 0.644043
vt 0.4101562 0.8901367
vt 0.4182129 0.8955078
vt 0.4099121 0.6494141
vt 0.3554688 0.5820312
vt 0.3503418 0.949707
vt 0.3557129 0.9575195
vt 0.3500977 0.5898438
vt 0.2739258 0.5483398
vt 0.2724609 0.9824219
vt 0.2744141 0.9916992
vt 0.2719727 0.5576172
vt 0.1856689 0.5483398
vt 0.1879883 0.9824219
vt 0.1861572 0.9916992
vt 0.1876221 0.5576172
vt 0.1043701 0.5820312
vt 0.1099854 0.9501953
vt 0.1046753 0.9580078
vt 0.1097412 0.590332
vt 0.04196167 0.6445312
vt 0.05029297 0.8901367
vt 0.04229736 0.8955078
vt 0.04998779 0.6499023
vt 0.008392334 0.7260742
vt 0.01783752 0.8125
vt 0.008392334 0.8144531
vt 0.01785278 0.7280273
vt 0.1400146 0.9052734
vt 0.09484863 0.8603516
vt 0.07067871 0.8022461
vt 0.07067871 0.7382812
vt 0.09466553 0.6801758
vt 0.1398926 0.6347656
vt 0.1982422 0.9291992
vt 0.1315918 0.7700195
vt 0.1604004 0.7001953
vt 0.1604004 0.8398438
vt 0.2299805 0.6713867
vt 0.2301025 0.8686523
vt 0.197998 0.6108398
vt 0.2619629 0.6108398
vt 0.2998047 0.7001953
vt 0.3200684 0.6347656
vt 0.3652344 0.6796875
vt 0.3286133 0.7700195
vt 0.3894043 0.737793
vt 0.3894043 0.8017578
vt 0.2998047 0.8398438
vt 0.3654785 0.8598633
vt 0.3203125 0.9052734
vt 0.262207 0.9291992
vn 0.5053711 0.699707 -0.5053711
vn -9.715557E-06 0.2536621 -0.9672852
vn 3.98159E-05 0.699707 -0.7143555
vn 0.6889648 0.2634277 -0.675293
vn 0.7143555 0.699707 -1.770258E-05
vn 0.0003340244 0.28125 -0.9594727
vn 0.9624023 0.2709961 4.649162E-06
vn 0.5068359 0.753418 0.4191895
vn 0.690918 0.2880859 -0.6630859
vn -7.379055E-05 0.2519531 -0.9677734
vn 0.737793 0.2705078 0.6186523
vn 2.70009E-05 0.8310547 0.5561523
vn 0.715332 0.2354736 -0.6577148
vn 0.002767563 1 -0.001237869
vn 0.9555664 0.295166 1.072884E-06
vn 0.9736328 0.2285156 3.260374E-05
vn 0.690918 0.2878418 0.6630859
vn 1.507998E-05 0.270752 0.9624023
vn 0.715332 0.2353516 0.6577148
vn -0.7285156 0.2509766 0.637207
vn -0.5068359 0.753418 0.4191895
vn -0.7148438 0.6992188 -1.7941E-05
vn 0.0003364086 0.2810059 0.9594727
vn -0.9702148 0.2414551 3.933907E-06
vn -0.5053711 0.699707 -0.5053711
vn -6.848574E-05 0.251709 0.9677734
vn -0.6723633 0.2744141 0.6875
vn -0.6811523 0.246582 -0.6894531
vn 3.98159E-05 0.699707 -0.7143555
vn -9.715557E-06 0.2536621 -0.9672852
vn -0.6660156 0.2609863 0.6987305
vn -0.9628906 0.2702637 6.556511E-07
vn -0.6723633 0.2746582 -0.6875
vn 0.0003340244 0.28125 -0.9594727
vn -0.9638672 0.2658691 2.968311E-05
vn -0.6660156 0.2609863 -0.6987305
vn -7.379055E-05 0.2519531 -0.9677734
vn -0.04104614 -0.9990234 0.01223755
vn -0.2192383 -0.9755859 0
vn -0.04104614 -0.9990234 -0.01223755
vn -0.03765869 -0.9990234 0.02035522
vn -0.1550293 -0.9755859 -0.1550293
vn -0 -1 0
vn -0.03765869 -0.9990234 -0.02035522
vn -0.02035522 -0.9990234 -0.03765869
vn -0.1550293 -0.9755859 0.1550293
vn -0.02035522 -0.9990234 0.03765869
vn -0.01223755 -0.9990234 0.04104614
vn -0 -0.9755859 -0.2192383
vn -0.01223755 -0.9990234 -0.04104614
vn 0.01223755 -0.9990234 -0.04104614
vn -1.192093E-07 -0.9755859 0.2192383
vn 0.01223755 -0.9990234 0.04104614
vn 0.02035522 -0.9990234 0.03765869
vn 0.1550293 -0.9755859 -0.1550293
vn 0.02035522 -0.9990234 -0.03765869
vn 0.03765869 -0.9990234 -0.02035522
vn 0.1550293 -0.9755859 0.1550293
vn 0.03765869 -0.9990234 0.02035522
vn 0.04104614 -0.9990234 0.01223755
vn 0.2192383 -0.9755859 0
vn 0.04104614 -0.9990234 -0.01223755
vn 0.5078125 0.8554688 0.1010132
vn 0.3178711 0.9458008 -0.06323242
vn 0.5078125 0.8554688 -0.1010132
vn 0.3178711 0.9458008 0.06323242
vn 0.4306641 0.8554688 0.2878418
vn 0.2695312 0.9458008 -0.1800537
vn 0.4306641 0.8554688 -0.2878418
vn 0.2695312 0.9458008 0.1800537
vn 0.2878418 0.8554688 0.4306641
vn 0.1800537 0.9458008 -0.2695312
vn 0.2878418 0.8554688 -0.4306641
vn 0.1800537 0.9458008 0.2695312
vn 0.1010132 0.8554688 0.5078125
vn 0.06323242 0.9458008 -0.3178711
vn 0.1010132 0.8554688 -0.5078125
vn 0.06323242 0.9458008 0.3178711
vn -0.1010132 0.8554688 0.5078125
vn -0.06323242 0.9458008 -0.3178711
vn -0.1010132 0.8554688 -0.5078125
vn -0.06323242 0.9458008 0.3178711
vn -0.2878418 0.8554688 0.4306641
vn -0.1800537 0.9458008 -0.2695312
vn -0.2878418 0.8554688 -0.4306641
vn -0.1800537 0.9458008 0.2695312
vn -0.4306641 0.8554688 0.2878418
vn -0.2695312 0.9458008 -0.1800537
vn -0.4306641 0.8554688 -0.2878418
vn -0.2695312 0.9458008 0.1800537
vn -0.5078125 0.8554688 0.1010132
vn -0.3178711 0.9458008 -0.06323242
vn -0.5078125 0.8554688 -0.1010132
vn -0.3178711 0.9458008 0.06323242
vn -0.1303711 0.9682617 -0.2131348
vn -0.2131348 0.9682617 -0.1303711
vn -0.2429199 0.9682617 -0.0585022
vn -0.2429199 0.9682617 0.0585022
vn -0.2131348 0.9682617 0.1303711
vn -0.1303711 0.9682617 0.2131348
vn -0.0585022 0.9682617 -0.2429199
vn -0.7148438 0.6992188 -1.7941E-05
vn -0.5068359 0.753418 0.4191895
vn -0.5053711 0.699707 -0.5053711
vn 2.70009E-05 0.8310547 0.5561523
vn 3.98159E-05 0.699707 -0.7143555
vn -0.0585022 0.9682617 0.2429199
vn 0.0585022 0.9682617 0.2429199
vn 0.5068359 0.753418 0.4191895
vn 0.1303711 0.9682617 0.2131348
vn 0.2131348 0.9682617 0.1303711
vn 0.7143555 0.699707 -1.770258E-05
vn 0.2429199 0.9682617 0.0585022
vn 0.2429199 0.9682617 -0.0585022
vn 0.5053711 0.699707 -0.5053711
vn 0.2131348 0.9682617 -0.1303711
vn 0.1303711 0.9682617 -0.2131348
vn 0.0585022 0.9682617 -0.2429199
g body_geo_0
f 3/3/3 2/2/2 1/1/1
f 2/2/2 4/4/4 1/1/1
f 1/1/1 4/4/4 5/5/5
f 2/2/2 6/6/6 4/4/4
f 4/4/4 7/7/7 5/5/5
f 5/5/5 7/7/7 8/8/8
f 6/6/6 9/9/9 4/4/4
f 4/4/4 9/9/9 7/7/7
f 6/6/6 10/10/10 9/9/9
f 7/7/7 11/11/11 8/8/8
f 8/8/8 11/11/11 12/12/12
f 10/10/10 13/13/13 9/9/9
f 10/10/10 14/14/14 13/13/13
f 9/9/9 15/15/15 7/7/7
f 9/9/9 13/13/13 15/15/15
f 7/7/7 15/15/15 11/11/11
f 13/13/13 16/16/16 15/15/15
f 13/13/13 14/14/14 16/16/16
f 15/15/15 17/17/17 11/11/11
f 15/15/15 16/16/16 17/17/17
f 11/11/11 18/18/18 12/12/12
f 11/11/11 17/17/17 18/18/18
f 16/16/16 19/19/19 17/17/17
f 16/16/16 14/14/14 19/19/19
f 12/12/12 18/18/18 20/20/20
f 12/12/12 20/20/20 21/21/21
f 21/21/21 20/20/20 22/22/22
f 17/17/17 23/23/23 18/18/18
f 17/17/17 19/19/19 23/23/23
f 18/18/18 23/23/23 20/20/20
f 20/20/20 24/24/24 22/22/22
f 22/22/22 24/24/24 25/25/25
f 19/19/19 26/26/26 23/23/23
f 19/19/19 14/14/14 26/26/26
f 23/23/23 27/27/27 20/20/20
f 23/23/23 26/26/26 27/27/27
f 20/20/20 27/27/27 24/24/24
f 24/24/24 28/28/28 25/25/25
f 25/25/25 28/28/28 29/29/29
f 28/28/28 30/30/30 29/29/29
f 26/26/26 31/31/31 27/27/27
f 26/26/26 14/14/14 31/31/31
f 27/27/27 32/32/32 24/24/24
f 24/24/24 32/32/32 28/28/28
f 27/27/27 31/31/31 32/32/32
f 28/28/28 33/33/33 30/30/30
f 32/32/32 33/33/33 28/28/28
f 33/33/33 34/34/34 30/30/30
f 31/31/31 35/35/35 32/32/32
f 31/31/31 14/14/14 35/35/35
f 32/32/32 35/35/35 33/33/33
f 33/33/33 36/36/36 34/34/34
f 35/35/35 36/36/36 33/33/33
f 35/35/35 14/14/14 36/36/36
f 36/36/36 37/37/37 34/34/34
f 36/36/36 14/14/14 37/37/37
f 40/40/40 39/39/39 38/38/38
f 38/38/38 39/39/39 41/41/41
f 42/42/42 39/39/39 40/40/40
f 42/42/42 43/43/43 39/39/39
f 44/44/44 42/42/42 40/40/40
f 45/45/45 42/42/42 44/44/44
f 39/39/39 46/46/46 41/41/41
f 39/39/39 43/43/43 46/46/46
f 41/41/41 46/46/46 47/47/47
f 47/47/47 46/46/46 48/48/48
f 49/49/49 42/42/42 45/45/45
f 49/49/49 43/43/43 42/42/42
f 50/50/50 49/49/49 45/45/45
f 51/51/51 49/49/49 50/50/50
f 46/46/46 52/52/52 48/48/48
f 46/46/46 43/43/43 52/52/52
f 48/48/48 52/52/52 53/53/53
f 53/53/53 52/52/52 54/54/54
f 55/55/55 49/49/49 51/51/51
f 55/55/55 43/43/43 49/49/49
f 56/56/56 55/55/55 51/51/51
f 57/57/57 55/55/55 56/56/56
f 52/52/52 58/58/58 54/54/54
f 52/52/52 43/43/43 58/58/58
f 54/54/54 58/58/58 59/59/59
f 59/59/59 58/58/58 60/60/60
f 61/61/61 43/43/43 55/55/55
f 61/61/61 55/55/55 57/57/57
f 58/58/58 43/43/43 61/61/61
f 58/58/58 61/61/61 60/60/60
f 62/62/62 61/61/61 57/57/57
f 60/60/60 61/61/61 62/62/62
f 65/65/65 64/64/64 63/63/63
f 64/64/64 66/66/66 63/63/63
f 63/63/63 66/66/66 67/67/67
f 68/68/68 64/64/64 65/65/65
f 69/69/69 68/68/68 65/65/65
f 66/66/66 70/70/70 67/67/67
f 67/67/67 70/70/70 71/71/71
f 72/72/72 68/68/68 69/69/69
f 73/73/73 72/72/72 69/69/69
f 70/70/70 74/74/74 71/71/71
f 71/71/71 74/74/74 75/75/75
f 76/76/76 72/72/72 73/73/73
f 77/77/77 76/76/76 73/73/73
f 74/74/74 78/78/78 75/75/75
f 75/75/75 78/78/78 79/79/79
f 80/80/80 76/76/76 77/77/77
f 81/81/81 80/80/80 77/77/77
f 78/78/78 82/82/82 79/79/79
f 79/79/79 82/82/82 83/83/83
f 84/84/84 80/80/80 81/81/81
f 85/85/85 84/84/84 81/81/81
f 82/82/82 86/86/86 83/83/83
f 83/83/83 86/86/86 87/87/87
f 88/88/88 84/84/84 85/85/85
f 89/89/89 88/88/88 85/85/85
f 86/86/86 90/90/90 87/87/87
f 87/87/87 90/90/90 91/91/91
f 92/92/92 88/88/88 89/89/89
f 93/93/93 92/92/92 89/89/89
f 91/91/91 94/94/94 93/93/93
f 90/90/90 94/94/94 91/91/91
f 94/94/94 92/92/92 93/93/93
f 84/84/84 95/95/95 80/80/80
f 88/88/88 96/96/96 84/84/84
f 96/96/96 95/95/95 84/84/84
f 92/92/92 97/97/97 88/88/88
f 97/97/97 96/96/96 88/88/88
f 94/94/94 98/98/98 92/92/92
f 98/98/98 97/97/97 92/92/92
f 90/90/90 99/99/99 94/94/94
f 99/99/99 98/98/98 94/94/94
f 86/86/86 100/100/100 90/90/90
f 100/100/100 99/99/99 90/90/90
f 95/95/95 101/101/101 80/80/80
f 80/80/80 101/101/101 76/76/76
f 96/96/96 97/97/97 102/102/102
f 102/102/102 97/97/97 98/98/98
f 98/98/98 99/99/99 103/103/103
f 102/102/102 98/98/98 103/103/103
f 103/103/103 99/99/99 100/100/100
f 104/104/104 96/96/96 102/102/102
f 104/104/104 95/95/95 96/96/96
f 101/101/101 95/95/95 104/104/104
f 103/103/103 100/100/100 105/105/105
f 106/106/106 101/101/101 104/104/104
f 107/107/107 100/100/100 86/86/86
f 100/100/100 107/107/107 105/105/105
f 82/82/82 107/107/107 86/86/86
f 105/105/105 107/107/107 108/108/108
f 108/108/108 107/107/107 82/82/82
f 78/78/78 108/108/108 82/82/82
f 105/105/105 108/108/108 109/109/109
f 110/110/110 108/108/108 78/78/78
f 108/108/108 110/110/110 109/109/109
f 74/74/74 110/110/110 78/78/78
f 109/109/109 110/110/110 111/111/111
f 111/111/111 110/110/110 74/74/74
f 70/70/70 111/111/111 74/74/74
f 109/109/109 111/111/111 112/112/112
f 113/113/113 111/111/111 70/70/70
f 111/111/111 113/113/113 112/112/112
f 66/66/66 113/113/113 70/70/70
f 112/112/112 113/113/113 114/114/114
f 114/114/114 113/113/113 66/66/66
f 64/64/64 114/114/114 66/66/66
f 112/112/112 114/114/114 115/115/115
f 116/116/116 114/114/114 64/64/64
f 114/114/114 116/116/116 115/115/115
f 68/68/68 116/116/116 64/64/64
f 115/115/115 116/116/116 117/117/117
f 117/117/117 116/116/116 68/68/68
f 115/115/115 117/117/117 106/106/106
f 72/72/72 117/117/117 68/68/68
f 117/117/117 118/118/118 106/106/106
f 118/118/118 117/117/117 72/72/72
f 106/106/106 118/118/118 101/101/101
f 76/76/76 118/118/118 72/72/72
f 101/101/101 118/118/118 76/76/76
