g left_doubleside_backface_geo
v 0.4264749 1.04414 -0.02551048
v 0.4240541 1.041853 -0.02044535
v 0.4181238 1.051822 -0.01889348
v 0.4204927 1.054075 -0.02373985
v 0.4306458 1.047009 -0.02738619
v 0.4264663 1.043824 -0.02441759
v 0.4202942 1.053771 -0.02377689
v 0.4243028 1.057124 -0.02657608
v 0.4717121 1.014078 -0.04135842
v 0.4670345 1.010361 -0.04188923
v 0.4581363 1.02043 -0.04031598
v 0.4625199 1.024239 -0.03964593
v 0.4665813 1.009661 -0.0414122
v 0.4641606 1.007199 -0.03688012
v 0.4548939 1.016965 -0.03554027
v 0.4571135 1.019592 -0.0398563
v 0.4729489 1.008248 0.02704233
v 0.4771186 1.011769 0.02913612
v 0.4680865 1.020692 0.03286906
v 0.4639127 1.016771 0.03169391
v 0.477119 1.011958 0.02945356
v 0.481484 1.015837 0.02972212
v 0.4727072 1.025619 0.03108364
v 0.4683422 1.02174 0.03081508
vt 0.2015381 0.8999023
vt 0.2015381 0.847168
vt 0.3215332 0.8461914
vt 0.3215332 0.8999023
vt 0.2015381 0.8999023
vt 0.2015381 0.847168
vt 0.3215332 0.8461914
vt 0.3215332 0.8999023
vt 0.2015381 0.8999023
vt 0.2015381 0.847168
vt 0.3215332 0.8461914
vt 0.3215332 0.8999023
vt 0.2015381 0.8999023
vt 0.2015381 0.847168
vt 0.3215332 0.8461914
vt 0.3215332 0.8999023
vt 0.2004395 0.8994141
vt 0.2004395 0.8466797
vt 0.3215332 0.8461914
vt 0.3215332 0.8999023
vt 0.2005615 0.8999023
vt 0.2005615 0.8461914
vt 0.3215332 0.8461914
vt 0.3215332 0.8999023
vn 0.761081 0.3661198 0.5354549
vn 0.761081 0.3661198 0.5354549
vn 0.761081 0.3661198 0.535455
vn 0.761081 0.3661198 0.5354549
vn 0.4429975 0.2133825 0.870759
vn 0.4429975 0.2133826 0.870759
vn 0.4429975 0.2133825 0.870759
vn 0.4429975 0.2133826 0.870759
vn 0.001334713 -0.1591517 0.9872532
vn 0.001334713 -0.1591517 0.9872532
vn 0.001334713 -0.1591517 0.9872532
vn 0.001334713 -0.1591517 0.9872532
vn 0.6171668 0.4973791 0.6096879
vn 0.6171668 0.4973791 0.6096878
vn 0.6171668 0.4973791 0.6096878
vn 0.6171668 0.4973791 0.6096877
vn -0.01740943 0.4184096 -0.9080916
vn -0.01740943 0.4184096 -0.9080915
vn -0.01740943 0.4184096 -0.9080915
vn -0.01740943 0.4184096 -0.9080916
vn -0.03436293 0.1074617 -0.9936152
vn -0.03436292 0.1074617 -0.9936152
vn -0.03436293 0.1074617 -0.9936152
vn -0.03436292 0.1074617 -0.9936152
g left_doubleside_backface_geo_0
f 3/3/3 2/2/2 1/1/1
f 4/4/4 3/3/3 1/1/1
f 7/7/7 6/6/6 5/5/5
f 8/8/8 7/7/7 5/5/5
f 11/11/11 10/10/10 9/9/9
f 12/12/12 11/11/11 9/9/9
f 15/15/15 14/14/14 13/13/13
f 16/16/16 15/15/15 13/13/13
f 19/19/19 18/18/18 17/17/17
f 20/20/20 19/19/19 17/17/17
f 23/23/23 22/22/22 21/21/21
f 24/24/24 23/23/23 21/21/21
