g facial_eye_geo
v -0.08977868 1.341348 0.07711068
v -0.07749598 1.317721 0.09409666
v -0.08604181 1.321181 0.07336503
v -0.08050002 1.338802 0.09199243
v -0.09320626 1.366771 0.07857553
v -0.06876702 1.318227 0.1021804
v -0.08477454 1.363819 0.09392062
v -0.07169506 1.338272 0.09854892
v -0.0591484 1.337547 0.1042299
v -0.0558206 1.320298 0.1103679
v -0.03852058 1.324626 0.1177407
v -0.06541233 1.36038 0.1043378
v -0.09051266 1.389995 0.1012991
v -0.09720065 1.393418 0.07562469
v -0.09079314 1.40833 0.1023796
v -0.07079738 1.389909 0.1162385
v -0.03734204 1.339329 0.1107594
v -0.01902335 1.344237 0.1170905
v -0.01945556 1.326122 0.1269714
v -6.41672E-18 1.327948 0.1335914
v -0.03957916 1.357076 0.1146418
v -0.01848042 1.354965 0.1191554
v -0.04251924 1.370843 0.1186714
v -6.555148E-18 1.34451 0.1274006
v -1.840498E-17 1.360496 0.1291891
v -0.01972031 1.367852 0.1255054
v -0.04700919 1.385023 0.1248479
v 0.01902335 1.344237 0.1170905
v 0.01945556 1.326122 0.1269714
v 0.03852058 1.324626 0.1177407
v 0.01848042 1.354965 0.1191554
v 0.03734204 1.339329 0.1107594
v -0.07156383 1.411174 0.1191676
v -0.0221499 1.380865 0.1309235
v -0.06885273 1.43303 0.1207983
v -0.08904912 1.432101 0.1018586
v -0.04636652 1.431353 0.1288864
v -0.04770447 1.407941 0.1285577
v -0.02271723 1.402554 0.1338053
v -2.081519E-17 1.39936 0.1355448
v -0.0214797 1.428242 0.1339242
v -2.350414E-17 1.425899 0.1355217
v 0.0214797 1.428242 0.1339242
v -1.957332E-17 1.378367 0.1332016
v 0.02271723 1.402554 0.1338053
v 0.04636652 1.431353 0.1288864
v 0.0221499 1.380865 0.1309235
v 0.04770447 1.407941 0.1285577
v 0.01972031 1.367852 0.1255054
v 0.07156383 1.411174 0.1191676
v 0.06885273 1.43303 0.1207983
v 0.04700919 1.385023 0.1248479
v 0.04251924 1.370843 0.1186714
v 0.09079314 1.40833 0.1023796
v 0.08904912 1.432101 0.1018586
v 0.07079738 1.389909 0.1162385
v 0.03957916 1.357076 0.1146418
v 0.06541233 1.36038 0.1043378
v 0.09051266 1.389995 0.1012991
v 0.09720065 1.393418 0.07562469
v 0.09320626 1.366771 0.07857553
v 0.08477454 1.363819 0.09392062
v 0.0591484 1.337547 0.1042299
v 0.0558206 1.320298 0.1103679
v 0.06876702 1.318227 0.1021804
v 0.07169506 1.338272 0.09854892
v 0.08050002 1.338802 0.09199243
v 0.08977868 1.341348 0.07711068
v 0.07749598 1.317721 0.09409666
v 0.08604181 1.321181 0.07336503
vt 0.1420898 0.3886719
vt 0.1658936 0.362793
vt 0.144165 0.3664551
vt 0.1623535 0.3852539
vt 0.1429443 0.4125977
vt 0.1772461 0.3637695
vt 0.1584473 0.4125977
vt 0.1729736 0.3845215
vt 0.1871338 0.3840332
vt 0.192627 0.3662109
vt 0.210083 0.371582
vt 0.1802979 0.4072266
vt 0.1582031 0.4355469
vt 0.1375732 0.4387207
vt 0.1577148 0.4533691
vt 0.1800537 0.4365234
vt 0.2086182 0.3869629
vt 0.227417 0.392334
vt 0.2297363 0.3740234
vt 0.25 0.3764648
vt 0.2075195 0.4040527
vt 0.2288818 0.4023438
vt 0.2059326 0.4177246
vt 0.25 0.3928223
vt 0.25 0.4089355
vt 0.2293701 0.4157715
vt 0.2034912 0.432373
vt 0.2727051 0.392334
vt 0.2702637 0.3740234
vt 0.2900391 0.371582
vt 0.2712402 0.4023438
vt 0.2915039 0.3869629
vt 0.1787109 0.4562988
vt 0.2282715 0.4289551
vt 0.1804199 0.4777832
vt 0.15979 0.4768066
vt 0.2025146 0.4760742
vt 0.2019043 0.453125
vt 0.2276611 0.4494629
vt 0.25 0.4462891
vt 0.2280273 0.4731445
vt 0.25 0.4707031
vt 0.2719727 0.4731445
vt 0.25 0.4265137
vt 0.2722168 0.4494629
vt 0.2976074 0.4760742
vt 0.2717285 0.4289551
vt 0.2980957 0.453125
vt 0.2705078 0.4157715
vt 0.3212891 0.4562988
vt 0.3195801 0.4777832
vt 0.2966309 0.432373
vt 0.2941895 0.4177246
vt 0.3422852 0.4533691
vt 0.3400879 0.4768066
vt 0.3200684 0.4365234
vt 0.2924805 0.4040527
vt 0.3198242 0.4072266
vt 0.3417969 0.4355469
vt 0.3623047 0.4387207
vt 0.3571777 0.4125977
vt 0.3415527 0.4125977
vt 0.3127441 0.3840332
vt 0.307373 0.3662109
vt 0.3227539 0.3637695
vt 0.3269043 0.3845215
vt 0.3376465 0.3852539
vt 0.3579102 0.3886719
vt 0.3342285 0.362793
vt 0.355957 0.3664551
vn -0.949817 -0.166958 0.2645237
vn -0.8399889 -0.1011005 0.5331016
vn -0.9435694 -0.2202891 0.2472844
vn -0.8146428 -0.1308961 0.5649984
vn -0.9382147 -0.1734586 0.2994418
vn -0.5655259 0.02745834 0.8242733
vn -0.7039521 -0.2790587 0.6531293
vn -0.5403258 -0.005397879 0.8414385
vn -0.3932177 0.03609186 0.9187368
vn -0.4553046 0.1259945 0.8813757
vn -0.448031 0.2519443 0.8577834
vn -0.4081675 -0.2727035 0.8712245
vn -0.7777248 -0.1707574 0.6049678
vn -0.9229991 -0.2115578 0.3214281
vn -0.7880937 -0.0569044 0.6129194
vn -0.4798646 -0.2236374 0.8483609
vn -0.3525562 0.06599978 0.9334603
vn -0.4023262 0.2445763 0.8822222
vn -0.4529935 0.3455821 0.8218089
vn -1.430174E-07 0.4514387 0.8923021
vn -0.3091578 -0.2273559 0.9234341
vn -0.3373859 -0.28607 0.8968471
vn -0.3366357 -0.408558 0.8483849
vn 1.793291E-07 0.2922725 0.9563351
vn 1.652109E-07 -0.2537214 0.9672773
vn -0.3086514 -0.4322645 0.847279
vn -0.3187173 -0.2296546 0.9196076
vn 0.402326 0.2445764 0.8822223
vn 0.4529942 0.3455823 0.8218085
vn 0.448032 0.2519443 0.8577829
vn 0.3373857 -0.2860698 0.8968472
vn 0.3525558 0.06599879 0.9334606
vn -0.5211622 -0.0425189 0.8523978
vn -0.195678 -0.1958783 0.9609068
vn -0.501116 0.1309462 0.8554156
vn -0.7725772 0.1418686 0.6188682
vn -0.2663194 0.1142407 0.9570909
vn -0.2920067 -0.07266369 0.953652
vn -0.162246 -0.06614095 0.9845312
vn 1.79419E-07 -0.06122651 0.9981238
vn -0.1257325 0.132074 0.9832334
vn -0 0.1010484 0.9948815
vn 0.1257324 0.1320738 0.9832334
vn 1.513532E-07 -0.1539935 0.9880719
vn 0.1622461 -0.06614085 0.9845312
vn 0.2663196 0.1142407 0.9570908
vn 0.195678 -0.1958781 0.9609068
vn 0.2920069 -0.07266366 0.953652
vn 0.3086515 -0.4322646 0.847279
vn 0.5211617 -0.04251891 0.8523982
vn 0.5011159 0.1309461 0.8554156
vn 0.3187172 -0.2296544 0.9196077
vn 0.3366358 -0.4085582 0.8483847
vn 0.7059987 -0.02471809 0.7077816
vn 0.6696847 0.1430858 0.728731
vn 0.4798646 -0.2236373 0.848361
vn 0.3091577 -0.2273559 0.9234343
vn 0.4081678 -0.2727034 0.8712245
vn 0.7777246 -0.1707575 0.604968
vn 0.9884721 -0.03473302 0.1473655
vn 0.9382143 -0.1734585 0.2994429
vn 0.7039514 -0.2790583 0.6531301
vn 0.3932178 0.03609139 0.9187367
vn 0.4553045 0.1259945 0.8813757
vn 0.5655257 0.02745829 0.8242735
vn 0.5403264 -0.005398062 0.8414382
vn 0.8146424 -0.1308962 0.564999
vn 0.9498168 -0.166958 0.2645243
vn 0.8399891 -0.1011007 0.5331013
vn 0.9435695 -0.2202892 0.2472841
g facial_eye_geo_0
f 3/3/3 2/2/2 1/1/1
f 2/2/2 4/4/4 1/1/1
f 5/5/5 1/1/1 4/4/4
f 2/2/2 6/6/6 4/4/4
f 7/7/7 5/5/5 4/4/4
f 6/6/6 8/8/8 4/4/4
f 8/8/8 7/7/7 4/4/4
f 9/9/9 8/8/8 6/6/6
f 10/10/10 9/9/9 6/6/6
f 10/10/10 11/11/11 9/9/9
f 9/9/9 12/12/12 8/8/8
f 7/7/7 8/8/8 12/12/12
f 13/13/13 5/5/5 7/7/7
f 13/13/13 14/14/14 5/5/5
f 15/15/15 14/14/14 13/13/13
f 7/7/7 16/16/16 13/13/13
f 12/12/12 16/16/16 7/7/7
f 13/13/13 16/16/16 15/15/15
f 11/11/11 17/17/17 9/9/9
f 9/9/9 17/17/17 12/12/12
f 17/17/17 11/11/11 18/18/18
f 11/11/11 19/19/19 18/18/18
f 19/19/19 20/20/20 18/18/18
f 17/17/17 21/21/21 12/12/12
f 17/17/17 18/18/18 22/22/22
f 17/17/17 22/22/22 21/21/21
f 12/12/12 21/21/21 23/23/23
f 12/12/12 23/23/23 16/16/16
f 21/21/21 22/22/22 23/23/23
f 20/20/20 24/24/24 18/18/18
f 18/18/18 24/24/24 22/22/22
f 25/25/25 22/22/22 24/24/24
f 23/23/23 22/22/22 26/26/26
f 26/26/26 22/22/22 25/25/25
f 27/27/27 16/16/16 23/23/23
f 23/23/23 26/26/26 27/27/27
f 24/24/24 20/20/20 28/28/28
f 20/20/20 29/29/29 28/28/28
f 29/29/29 30/30/30 28/28/28
f 24/24/24 28/28/28 31/31/31
f 31/31/31 25/25/25 24/24/24
f 30/30/30 32/32/32 28/28/28
f 28/28/28 32/32/32 31/31/31
f 16/16/16 27/27/27 33/33/33
f 16/16/16 33/33/33 15/15/15
f 34/34/34 27/27/27 26/26/26
f 26/26/26 25/25/25 34/34/34
f 15/15/15 33/33/33 35/35/35
f 36/36/36 15/15/15 35/35/35
f 35/35/35 33/33/33 37/37/37
f 27/27/27 38/38/38 33/33/33
f 33/33/33 38/38/38 37/37/37
f 27/27/27 34/34/34 38/38/38
f 38/38/38 39/39/39 37/37/37
f 34/34/34 39/39/39 38/38/38
f 40/40/40 39/39/39 34/34/34
f 39/39/39 41/41/41 37/37/37
f 41/41/41 39/39/39 40/40/40
f 42/42/42 41/41/41 40/40/40
f 43/43/43 42/42/42 40/40/40
f 44/44/44 34/34/34 25/25/25
f 44/44/44 40/40/40 34/34/34
f 45/45/45 43/43/43 40/40/40
f 43/43/43 45/45/45 46/46/46
f 40/40/40 44/44/44 47/47/47
f 47/47/47 44/44/44 25/25/25
f 45/45/45 40/40/40 47/47/47
f 45/45/45 48/48/48 46/46/46
f 45/45/45 47/47/47 48/48/48
f 25/25/25 49/49/49 47/47/47
f 31/31/31 49/49/49 25/25/25
f 48/48/48 50/50/50 46/46/46
f 50/50/50 51/51/51 46/46/46
f 47/47/47 52/52/52 48/48/48
f 52/52/52 47/47/47 49/49/49
f 48/48/48 52/52/52 50/50/50
f 31/31/31 53/53/53 49/49/49
f 49/49/49 53/53/53 52/52/52
f 50/50/50 54/54/54 51/51/51
f 54/54/54 55/55/55 51/51/51
f 52/52/52 56/56/56 50/50/50
f 50/50/50 56/56/56 54/54/54
f 56/56/56 52/52/52 53/53/53
f 31/31/31 57/57/57 53/53/53
f 31/31/31 32/32/32 57/57/57
f 57/57/57 58/58/58 53/53/53
f 57/57/57 32/32/32 58/58/58
f 53/53/53 58/58/58 56/56/56
f 56/56/56 59/59/59 54/54/54
f 60/60/60 54/54/54 59/59/59
f 60/60/60 59/59/59 61/61/61
f 56/56/56 62/62/62 59/59/59
f 61/61/61 59/59/59 62/62/62
f 56/56/56 58/58/58 62/62/62
f 32/32/32 63/63/63 58/58/58
f 32/32/32 30/30/30 63/63/63
f 30/30/30 64/64/64 63/63/63
f 63/63/63 64/64/64 65/65/65
f 58/58/58 63/63/63 66/66/66
f 66/66/66 62/62/62 58/58/58
f 66/66/66 63/63/63 65/65/65
f 61/61/61 62/62/62 67/67/67
f 62/62/62 66/66/66 67/67/67
f 66/66/66 65/65/65 67/67/67
f 68/68/68 61/61/61 67/67/67
f 65/65/65 69/69/69 67/67/67
f 67/67/67 69/69/69 68/68/68
f 69/69/69 70/70/70 68/68/68
