g body_geo
v 0.05739708 0.1867149 0.003385029
v 0.08793227 0.2276107 0.02006852
v 0.08289424 0.2327059 0.01611448
v 0.04986737 0.1930429 -0.00226697
v 0.01308831 0.1309396 -0.01203327
v 0.07803815 0.2343457 0.02441268
v 0.004597044 0.1351383 -0.0178192
v -0.002859874 0.03437122 -0.005480319
v 0.04319118 0.1951522 0.008956394
v 0.08307618 0.2292505 0.0283667
v -0.001604586 0.1367382 -0.007852784
v 0.05072088 0.1888243 0.01460838
v 0.08793227 0.2276107 0.02006852
v 0.05739708 0.1867149 0.003385029
v 0.006886689 0.1325395 -0.002066848
v 0.01308831 0.1309396 -0.01203327
v -0.01293128 0.03347761 -0.01067194
v 0.01252326 -0.05551126 0.01934331
v -0.01752479 0.03655596 -0.001911716
v -0.00745337 0.03744955 0.003279917
v -0.002859874 0.03437122 -0.005480319
v 0.002464402 -0.05940491 0.01524005
v 0.06442148 -0.2046366 0.07443256
v 0.05459473 -0.2094508 0.07063386
v -0.00191546 -0.05675764 0.02356797
v 0.05003157 -0.2069422 0.0789061
v 0.008143392 -0.052864 0.02767124
v 0.01252326 -0.05551126 0.01934331
v 0.05985833 -0.2021279 0.08270481
v 0.06442148 -0.2046366 0.07443256
v 0.2295094 0.3195991 -0.03717341
v 0.2145029 0.2890791 -0.08630893
v 0.2580412 0.1813794 0.02518387
v 0.264052 0.2351976 0.04985525
v 0.1621267 0.1561968 0.1606558
v 0.135739 0.4007064 -0.01404697
v 0.1036815 0.4094085 -0.06137937
v 0.1906501 0.2172912 0.1538395
v 0.0616613 0.2798444 0.1969858
v 0.05536676 0.3813019 0.09143964
v 0.007368965 0.3819463 0.08507282
v 0.1099098 0.3124819 0.1847931
v 0.2100694 0.3198414 0.002574558
v 0.2321801 0.2651466 0.05919569
v 0.1852021 0.2533755 0.1271936
v 0.1324494 0.3151516 0.1464446
v 0.1491488 0.3721886 0.01789003
v 0.09922954 0.3609219 0.08442294
v 0.1825576 0.2725334 0.05615154
v 0.1715514 0.2997591 0.02796692
v 0.1588909 0.2670339 0.08947203
v 0.1412265 0.3258176 0.03558975
v 0.06079166 0.2065466 0.009673576
v 0.1329141 0.2974246 0.09958189
v 0.1168565 0.3196173 0.06850792
vt 0.7814316 0.04025101
vt 0.8358904 0.04025101
vt 0.8358904 0.03152892
vt 0.7814316 0.03152892
vt 0.6501998 0.04025101
vt 0.8358904 0.02357922
vt 0.6501998 0.03152892
vt 0.469569 0.04025102
vt 0.7814316 0.02357922
vt 0.8358904 0.01485712
vt 0.6501998 0.02357922
vt 0.7814316 0.01485712
vt 0.8358904 0.00690741
vt 0.7814316 0.00690741
vt 0.6501998 0.01485712
vt 0.6501998 0.00690741
vt 0.469569 0.03152892
vt 0.2989953 0.04025101
vt 0.469569 0.02357922
vt 0.4695691 0.01485712
vt 0.469569 0.00690741
vt 0.2989953 0.03152892
vt 0.005142778 0.04025101
vt 0.005142778 0.03152892
vt 0.2989953 0.02357922
vt 0.005142778 0.02357922
vt 0.2989953 0.01485712
vt 0.2989953 0.00690741
vt 0.005142808 0.01485712
vt 0.005142808 0.00690741
vt 0.2092654 0.4483633
vt 0.1762694 0.5239202
vt 0.4296093 0.5012334
vt 0.3810386 0.4370189
vt 0.5488405 0.2712519
vt 0.1045795 0.3055247
vt 0.02400076 0.3151984
vt 0.4571381 0.281371
vt 0.3980313 0.06716019
vt 0.1877711 0.1352288
vt 0.1442225 0.06911899
vt 0.3607737 0.1404237
vt 0.237057 0.3877909
vt 0.3430574 0.3809612
vt 0.3895339 0.2862191
vt 0.3305694 0.1985526
vt 0.1748216 0.2998253
vt 0.2234792 0.2028715
vt 0.3112321 0.334451
vt 0.2610733 0.3376827
vt 0.3332245 0.2896196
vt 0.2316238 0.2960579
vt 0.2826706 0.2926473
vt 0.3053229 0.2481363
vt 0.2546483 0.2501799
vn 0.8059235 -0.5563735 -0.2023257
vn 0.819378 -0.5568127 -0.1363063
vn -0.07793971 0.4723658 -0.8779498
vn -0.1123014 0.3981399 -0.9104246
vn 0.8808864 -0.3506817 -0.3179017
vn -0.7706141 0.5972472 0.2223731
vn -0.3047825 0.1870717 -0.9338693
vn 0.9144915 -0.06866609 -0.3987359
vn -0.7906576 0.5852226 0.1799307
vn 0.1110468 -0.3984651 0.9104363
vn -0.9247586 0.361914 0.1176425
vn 0.1212647 -0.3829865 0.9157599
vn 0.819378 -0.5568127 -0.1363063
vn 0.8059235 -0.5563735 -0.2023257
vn 0.1170606 -0.1254436 0.9851704
vn 0.8808864 -0.3506817 -0.3179017
vn -0.3258163 -0.1636379 -0.931164
vn 0.8811631 0.09412999 -0.4633478
vn -0.9691654 0.06493784 0.2377008
vn 0.2050707 0.1423676 0.9683375
vn 0.9144915 -0.06866609 -0.3987359
vn -0.2695779 -0.3744091 -0.8872123
vn 0.8628788 0.1182766 -0.4913766
vn -0.1913678 -0.397329 -0.897501
vn -0.9006476 -0.1056263 0.4215173
vn -0.886275 -0.145002 0.439876
vn 0.1977334 0.3558184 0.9133974
vn 0.8811631 0.09412999 -0.4633478
vn 0.2435025 0.4091268 0.8793872
vn 0.8628788 0.1182766 -0.4913766
vn 0.8387296 0.4821271 -0.2531521
vn 0.825367 0.3890654 -0.4091425
vn 0.9739366 -0.1720253 0.147834
vn 0.9795034 0.02431307 0.1999552
vn 0.5801386 -0.1933269 0.7912421
vn 0.4014691 0.9156867 -0.01844795
vn 0.3346637 0.9285823 -0.1604219
vn 0.6446052 -0.06142913 0.7620437
vn 0.09434508 0.313391 0.944926
vn 0.02238606 0.8904258 0.4545775
vn -0.1013491 0.8880546 0.4484276
vn 0.2465619 0.4462819 0.8602555
vn 0.5940703 0.6457297 0.4797015
vn 0.5518935 0.682138 0.4796889
vn 0.6669903 0.6265177 0.4032363
vn 0.6876515 0.6716169 0.2758011
vn 0.5972878 0.612506 0.5177681
vn 0.5939005 0.7030064 0.3912344
vn -0.1576315 0.8816606 0.4447773
vn 0.04372882 0.3888114 0.9202791
vn 0.2415619 0.9342307 -0.2624135
vn 0.5724894 -0.06215594 0.8175527
vn 0.6365221 0.655794 0.4059236
vn 0.7829199 0.4612655 -0.4174573
vn 0.9929491 -0.02544281 0.1157781
g body_geo_0
f 3/3/3 2/2/2 1/1/1
f 4/4/4 3/3/3 1/1/1
f 4/4/4 1/1/1 5/5/5
f 6/6/6 3/3/3 4/4/4
f 7/7/7 4/4/4 5/5/5
f 7/7/7 5/5/5 8/8/8
f 9/9/9 6/6/6 4/4/4
f 6/6/6 9/9/9 10/10/10
f 9/9/9 4/4/4 11/11/11
f 4/4/4 7/7/7 11/11/11
f 9/9/9 12/12/12 10/10/10
f 9/9/9 11/11/11 12/12/12
f 13/13/13 10/10/10 12/12/12
f 14/14/14 13/13/13 12/12/12
f 14/14/14 12/12/12 15/15/15
f 11/11/11 15/15/15 12/12/12
f 16/16/16 14/14/14 15/15/15
f 17/17/17 7/7/7 8/8/8
f 17/17/17 8/8/8 18/18/18
f 11/11/11 7/7/7 19/19/19
f 11/11/11 19/19/19 15/15/15
f 7/7/7 17/17/17 19/19/19
f 16/16/16 15/15/15 20/20/20
f 19/19/19 20/20/20 15/15/15
f 21/21/21 16/16/16 20/20/20
f 22/22/22 17/17/17 18/18/18
f 22/22/22 18/18/18 23/23/23
f 24/24/24 22/22/22 23/23/23
f 19/19/19 17/17/17 25/25/25
f 17/17/17 22/22/22 25/25/25
f 22/22/22 24/24/24 25/25/25
f 19/19/19 25/25/25 20/20/20
f 24/24/24 26/26/26 25/25/25
f 21/21/21 20/20/20 27/27/27
f 25/25/25 27/27/27 20/20/20
f 25/25/25 26/26/26 27/27/27
f 28/28/28 21/21/21 27/27/27
f 26/26/26 29/29/29 27/27/27
f 30/30/30 28/28/28 27/27/27
f 29/29/29 30/30/30 27/27/27
f 33/33/33 32/32/32 31/31/31
f 34/34/34 33/33/33 31/31/31
f 35/35/35 33/33/33 34/34/34
f 31/31/31 32/32/32 36/36/36
f 32/32/32 37/37/37 36/36/36
f 38/38/38 35/35/35 34/34/34
f 39/39/39 35/35/35 38/38/38
f 36/36/36 37/37/37 40/40/40
f 37/37/37 41/41/41 40/40/40
f 41/41/41 39/39/39 42/42/42
f 42/42/42 39/39/39 38/38/38
f 40/40/40 41/41/41 42/42/42
f 31/31/31 36/36/36 43/43/43
f 34/34/34 31/31/31 44/44/44
f 31/31/31 43/43/43 44/44/44
f 38/38/38 34/34/34 45/45/45
f 34/34/34 44/44/44 45/45/45
f 42/42/42 38/38/38 46/46/46
f 38/38/38 45/45/45 46/46/46
f 36/36/36 40/40/40 47/47/47
f 36/36/36 47/47/47 43/43/43
f 40/40/40 42/42/42 48/48/48
f 42/42/42 46/46/46 48/48/48
f 40/40/40 48/48/48 47/47/47
f 45/45/45 44/44/44 49/49/49
f 44/44/44 43/43/43 50/50/50
f 49/49/49 44/44/44 50/50/50
f 46/46/46 45/45/45 51/51/51
f 51/51/51 45/45/45 49/49/49
f 43/43/43 47/47/47 52/52/52
f 50/50/50 43/43/43 52/52/52
f 49/49/49 50/50/50 53/53/53
f 51/51/51 49/49/49 53/53/53
f 50/50/50 52/52/52 53/53/53
f 54/54/54 46/46/46 51/51/51
f 48/48/48 46/46/46 54/54/54
f 54/54/54 51/51/51 53/53/53
f 47/47/47 48/48/48 55/55/55
f 52/52/52 47/47/47 55/55/55
f 52/52/52 55/55/55 53/53/53
f 55/55/55 54/54/54 53/53/53
f 55/55/55 48/48/48 54/54/54
