g facial_mouth_geo
v 0.09043354 1.393373 0.08292393
v 0.08002038 1.382493 0.1035576
v 0.08289187 1.395532 0.106223
v 0.0836051 1.368687 0.07484648
v 0.07080962 1.382523 0.1146029
v 0.07421645 1.395641 0.1149547
v 0.07382581 1.357015 0.09338362
v 0.08091075 1.349671 0.06474873
v 0.0568308 1.384437 0.124034
v 0.06061742 1.395636 0.1233581
v 0.04151296 1.399196 0.1307774
v 0.06548099 1.365059 0.1116918
v 0.06769466 1.339996 0.08027948
v 0.06182743 1.346914 0.1044443
v 0.06450193 1.328594 0.06146726
v 0.07609374 1.340459 0.0445173
v 0.06822042 1.332729 0.03680869
v 0.05728238 1.323446 0.05332617
v 0.05174972 1.319908 0.0734251
v 0.04640534 1.314226 0.06589196
v 0.05476867 1.328899 0.09226432
v 0.03659727 1.307502 0.08805872
v 0.03054461 1.305327 0.07931278
v 0.04717946 1.341711 0.1137926
v 0.02183201 1.296573 0.1028685
v 0.007384835 1.296097 0.09354752
v -3.008938E-09 1.295399 0.09493926
v 0.04919586 1.358128 0.1207141
v 0.05240945 1.372299 0.1240091
v 0.03818879 1.376519 0.1328186
v 0.0332194 1.365004 0.1325167
v 0.01942681 1.379518 0.147729
v 0.02097228 1.400213 0.1407825
v 0.03295465 1.350137 0.1284154
v 0.01766992 1.345035 0.1326738
v 0.03344406 1.337123 0.1208474
v 0.03408926 1.326485 0.1133774
v 0.0175083 1.360886 0.1377336
v -0 1.357382 0.1413638
v -0 1.383927 0.1602432
v -0 1.401806 0.1480119
v -0.02097228 1.400213 0.1407825
v -0.01942681 1.379518 0.147729
v -0.04151296 1.399196 0.1307774
v 0.01978417 1.331886 0.1263859
v 0.03747333 1.314574 0.1007648
v 0.0219398 1.312898 0.1143521
v 0.02308137 1.303404 0.1093242
v -5.843605E-10 1.295336 0.1062252
v -5.843605E-10 1.301462 0.112169
v -3.008938E-09 1.311992 0.117704
v -1.872417E-09 1.330338 0.129764
v -0.02183202 1.296573 0.1028684
v -0.007384841 1.296097 0.09354752
v -0.03054461 1.305327 0.07931338
v -0.02308136 1.303404 0.1093242
v -0.02193982 1.312898 0.1143521
v -0.03659727 1.307502 0.08805872
v -0.04640534 1.314226 0.06589196
v -1.796649E-09 1.341108 0.1354739
v -0.01766993 1.345035 0.1326738
v -0.03747334 1.314574 0.1007648
v -0.05174971 1.319908 0.0734251
v -0.05728238 1.323446 0.05332617
v -0.01978417 1.331886 0.1263859
v -0.05476866 1.328899 0.09226431
v -0.03408926 1.326485 0.1133774
v -0.06450193 1.328594 0.06146726
v -0.06822041 1.332729 0.03680869
v -0.07609374 1.340459 0.0445173
v -0.08091075 1.349671 0.06474873
v -0.06769466 1.339996 0.08027948
v -0.03344407 1.337124 0.1208475
v -0.07385593 1.357015 0.09338362
v -0.0836051 1.368687 0.07484648
v -0.04717947 1.341711 0.1137926
v -0.06182743 1.346914 0.1044443
v -0.08002038 1.382493 0.1035576
v -0.09043354 1.393373 0.08292393
v -0.08289187 1.395532 0.106223
v -0.06548099 1.365059 0.1116918
v -0.07080962 1.382523 0.1146029
v -0.07421645 1.395641 0.1149547
v -0.03295465 1.350137 0.1284154
v -0.04919586 1.358128 0.1207141
v -0.05683079 1.384437 0.124034
v -0.06061742 1.395636 0.1233581
v -0.0332194 1.365004 0.1325167
v -0.05240945 1.372299 0.1240091
v -0.03818879 1.376519 0.1328186
v -0.0175083 1.360886 0.1377336
vt 0.355957 0.3664551
vt 0.3320312 0.3527832
vt 0.3342285 0.362793
vt 0.3518066 0.3464355
vt 0.3205566 0.3537598
vt 0.3227539 0.3637695
vt 0.3300781 0.3427734
vt 0.3474121 0.3254395
vt 0.3044434 0.3566895
vt 0.307373 0.3662109
vt 0.2900391 0.371582
vt 0.3181152 0.3435059
vt 0.3259277 0.3205566
vt 0.3122559 0.3337402
vt 0.3303223 0.3012695
vt 0.3552246 0.3112793
vt 0.3527832 0.2973633
vt 0.3283691 0.2895508
vt 0.3103027 0.295166
vt 0.307373 0.284668
vt 0.3061523 0.3129883
vt 0.2856445 0.2888184
vt 0.282959 0.2783203
vt 0.2893066 0.3291016
vt 0.2663574 0.2861328
vt 0.2548828 0.2709961
vt 0.25 0.2705078
vt 0.2958984 0.3378906
vt 0.3022461 0.3466797
vt 0.2871094 0.3513184
vt 0.28125 0.3417969
vt 0.2683105 0.3566895
vt 0.2702637 0.3740234
vt 0.2753906 0.3322754
vt 0.2607422 0.3276367
vt 0.2783203 0.324707
vt 0.2807617 0.317627
vt 0.265625 0.3398438
vt 0.25 0.3378906
vt 0.25 0.3630371
vt 0.25 0.3764648
vt 0.2297363 0.3740234
vt 0.2316895 0.3566895
vt 0.210083 0.371582
vt 0.2626953 0.3200684
vt 0.2844238 0.3022461
vt 0.2683105 0.3037109
vt 0.2680664 0.2944336
vt 0.2502441 0.2822266
vt 0.2502441 0.2902832
vt 0.2502441 0.3000488
vt 0.25 0.3161621
vt 0.2344971 0.286377
vt 0.2451172 0.2709961
vt 0.2185059 0.2788086
vt 0.232666 0.2946777
vt 0.2322998 0.3039551
vt 0.2160645 0.2895508
vt 0.1984863 0.2868652
vt 0.25 0.3242188
vt 0.2393799 0.3276367
vt 0.2165527 0.3024902
vt 0.1947021 0.2976074
vt 0.1835938 0.2941895
vt 0.2373047 0.3200684
vt 0.1959229 0.314209
vt 0.2191162 0.317627
vt 0.1759033 0.3039551
vt 0.1529541 0.2983398
vt 0.1483154 0.3120117
vt 0.1540527 0.3256836
vt 0.1759033 0.3217773
vt 0.2216797 0.324707
vt 0.1699219 0.3427734
vt 0.1480713 0.3464355
vt 0.2106934 0.3291016
vt 0.1878662 0.3337402
vt 0.1678467 0.3527832
vt 0.144165 0.3664551
vt 0.1657715 0.362793
vt 0.1818848 0.3435059
vt 0.1795654 0.3537598
vt 0.177124 0.3637695
vt 0.2244873 0.3322754
vt 0.2042236 0.3378906
vt 0.1955566 0.3566895
vt 0.192627 0.3662109
vt 0.2186279 0.3417969
vt 0.1977539 0.3466797
vt 0.2128906 0.3513184
vt 0.234375 0.3398438
vn 0.9295221 -0.2042974 0.3070036
vn 0.8412307 -0.2859705 0.4588592
vn 0.8271931 -0.1263364 0.5475314
vn 0.9232228 -0.2495274 0.2922257
vn 0.5929894 -0.2153717 0.7758728
vn 0.5421595 0.01957339 0.8400476
vn 0.811108 -0.3974372 0.4291241
vn 0.8912148 -0.4018164 0.2104275
vn 0.4596995 -0.09537838 0.882938
vn 0.4064961 0.1348196 0.9036508
vn 0.4306166 0.2152614 0.8764883
vn 0.6351569 -0.348602 0.6892404
vn 0.7305471 -0.5859768 0.3506169
vn 0.647074 -0.4986258 0.5767732
vn 0.6810198 -0.714077 0.1621912
vn 0.7837533 -0.6209944 0.009833948
vn 0.4892884 -0.8354334 -0.2502959
vn 0.3412296 -0.9262731 -0.1599392
vn 0.6222394 -0.7632722 0.1738781
vn 0.2976519 -0.9442454 -0.1407268
vn 0.6800867 -0.5992005 0.4224227
vn 0.5885276 -0.7923342 0.1607536
vn 0.2608621 -0.9367729 -0.233254
vn 0.5489831 -0.4877889 0.6787338
vn 0.3051672 -0.9221287 0.2378055
vn 0.1182886 -0.9647199 -0.2352091
vn -0 -0.9797513 -0.2002184
vn 0.5130947 -0.3468328 0.7851375
vn 0.5021787 -0.2630296 0.8237913
vn 0.5179629 -0.002690029 0.8553988
vn 0.4560741 -0.3189997 0.8308042
vn 0.490509 0.007215982 0.8714061
vn 0.4615088 0.2917494 0.8377898
vn 0.4328344 -0.3587142 0.8270299
vn 0.2997941 -0.3982722 0.8668926
vn 0.4586827 -0.4383784 0.7729389
vn 0.5311305 -0.4724065 0.7033722
vn 0.3180435 -0.4199279 0.8500053
vn 1.686013E-07 -0.4934172 0.8697928
vn -0 0.07971159 0.9968179
vn -1.329154E-07 0.4055392 0.9140777
vn -0.4615093 0.2917497 0.8377894
vn -0.4905092 0.007215747 0.8714061
vn -0.4306167 0.2152617 0.8764881
vn 0.2882373 -0.4947177 0.8198619
vn 0.6332334 -0.5614911 0.5326754
vn 0.3126205 -0.4965402 0.8097631
vn 0.3858128 -0.5877731 0.7111057
vn -8.25837E-07 -0.9002805 0.4353102
vn -1.134746E-06 -0.6192749 0.7851744
vn 5.207271E-07 -0.5436048 0.8393413
vn 7.228535E-07 -0.5313786 0.8471344
vn -0.3051681 -0.9221272 0.2378106
vn -0.1182892 -0.9647194 -0.2352111
vn -0.2608621 -0.9367734 -0.2332519
vn -0.3858099 -0.587771 0.711109
vn -0.3126231 -0.4965372 0.809764
vn -0.5885286 -0.7923334 0.1607545
vn -0.2976505 -0.9442455 -0.1407288
vn 5.005713E-07 -0.4344555 0.9006933
vn -0.2997973 -0.3982736 0.8668908
vn -0.633233 -0.5614947 0.5326722
vn -0.6222403 -0.7632718 0.1738769
vn -0.3412298 -0.9262736 -0.1599354
vn -0.2882419 -0.4947166 0.819861
vn -0.680088 -0.5992007 0.4224202
vn -0.5311304 -0.4724 0.7033766
vn -0.6810201 -0.7140771 0.1621892
vn -0.4892885 -0.835434 -0.2502936
vn -0.7837532 -0.6209944 0.009833205
vn -0.891234 -0.4018691 0.2102457
vn -0.7303647 -0.5863079 0.3504432
vn -0.4586806 -0.4383762 0.7729414
vn -0.8111386 -0.3973788 0.4291203
vn -0.9233834 -0.2492373 0.2919657
vn -0.5489813 -0.4877888 0.6787353
vn -0.646818 -0.4988328 0.5768816
vn -0.8412769 -0.2856046 0.4590026
vn -0.9295224 -0.2042973 0.307003
vn -0.8271938 -0.1263362 0.5475304
vn -0.634938 -0.3484518 0.689518
vn -0.5929915 -0.2153726 0.775871
vn -0.5421605 0.01957352 0.8400469
vn -0.4328357 -0.3587186 0.8270274
vn -0.513096 -0.3468332 0.7851363
vn -0.4596985 -0.09537818 0.8829384
vn -0.4064968 0.1348203 0.9036503
vn -0.4560755 -0.3190006 0.8308031
vn -0.5021809 -0.2630303 0.8237897
vn -0.5179636 -0.002690494 0.8553985
vn -0.3180439 -0.4199283 0.8500049
g facial_mouth_geo_0
f 3/3/3 2/2/2 1/1/1
f 2/2/2 4/4/4 1/1/1
f 2/2/2 3/3/3 5/5/5
f 3/3/3 6/6/6 5/5/5
f 2/2/2 7/7/7 4/4/4
f 8/8/8 4/4/4 7/7/7
f 5/5/5 6/6/6 9/9/9
f 6/6/6 10/10/10 9/9/9
f 11/11/11 9/9/9 10/10/10
f 2/2/2 12/12/12 7/7/7
f 2/2/2 5/5/5 12/12/12
f 8/8/8 7/7/7 13/13/13
f 7/7/7 12/12/12 14/14/14
f 13/13/13 7/7/7 14/14/14
f 8/8/8 13/13/13 15/15/15
f 15/15/15 16/16/16 8/8/8
f 17/17/17 16/16/16 15/15/15
f 18/18/18 17/17/17 15/15/15
f 18/18/18 15/15/15 19/19/19
f 19/19/19 15/15/15 13/13/13
f 20/20/20 18/18/18 19/19/19
f 13/13/13 14/14/14 21/21/21
f 13/13/13 21/21/21 19/19/19
f 20/20/20 19/19/19 22/22/22
f 21/21/21 22/22/22 19/19/19
f 23/23/23 20/20/20 22/22/22
f 24/24/24 14/14/14 12/12/12
f 14/14/14 24/24/24 21/21/21
f 25/25/25 23/23/23 22/22/22
f 25/25/25 26/26/26 23/23/23
f 26/26/26 25/25/25 27/27/27
f 12/12/12 28/28/28 24/24/24
f 28/28/28 12/12/12 5/5/5
f 5/5/5 29/29/29 28/28/28
f 5/5/5 9/9/9 29/29/29
f 30/30/30 29/29/29 9/9/9
f 11/11/11 30/30/30 9/9/9
f 28/28/28 29/29/29 31/31/31
f 29/29/29 30/30/30 31/31/31
f 30/30/30 11/11/11 32/32/32
f 32/32/32 31/31/31 30/30/30
f 11/11/11 33/33/33 32/32/32
f 24/24/24 28/28/28 34/34/34
f 28/28/28 31/31/31 34/34/34
f 35/35/35 34/34/34 31/31/31
f 24/24/24 34/34/34 36/36/36
f 36/36/36 34/34/34 35/35/35
f 24/24/24 36/36/36 37/37/37
f 24/24/24 37/37/37 21/21/21
f 32/32/32 38/38/38 31/31/31
f 31/31/31 38/38/38 35/35/35
f 32/32/32 39/39/39 38/38/38
f 38/38/38 39/39/39 35/35/35
f 40/40/40 32/32/32 33/33/33
f 32/32/32 40/40/40 39/39/39
f 41/41/41 40/40/40 33/33/33
f 40/40/40 41/41/41 42/42/42
f 43/43/43 40/40/40 42/42/42
f 40/40/40 43/43/43 39/39/39
f 42/42/42 44/44/44 43/43/43
f 36/36/36 45/45/45 37/37/37
f 45/45/45 36/36/36 35/35/35
f 21/21/21 37/37/37 46/46/46
f 22/22/22 21/21/21 46/46/46
f 46/46/46 37/37/37 47/47/47
f 45/45/45 47/47/47 37/37/37
f 48/48/48 22/22/22 46/46/46
f 46/46/46 47/47/47 48/48/48
f 25/25/25 22/22/22 48/48/48
f 25/25/25 48/48/48 49/49/49
f 25/25/25 49/49/49 27/27/27
f 47/47/47 50/50/50 48/48/48
f 48/48/48 50/50/50 49/49/49
f 47/47/47 45/45/45 51/51/51
f 47/47/47 51/51/51 50/50/50
f 45/45/45 35/35/35 52/52/52
f 45/45/45 52/52/52 51/51/51
f 49/49/49 53/53/53 27/27/27
f 53/53/53 54/54/54 27/27/27
f 54/54/54 53/53/53 55/55/55
f 50/50/50 56/56/56 49/49/49
f 56/56/56 53/53/53 49/49/49
f 50/50/50 51/51/51 57/57/57
f 51/51/51 52/52/52 57/57/57
f 50/50/50 57/57/57 56/56/56
f 55/55/55 53/53/53 58/58/58
f 58/58/58 53/53/53 56/56/56
f 59/59/59 55/55/55 58/58/58
f 35/35/35 60/60/60 52/52/52
f 52/52/52 60/60/60 61/61/61
f 60/60/60 35/35/35 39/39/39
f 61/61/61 60/60/60 39/39/39
f 56/56/56 57/57/57 62/62/62
f 62/62/62 58/58/58 56/56/56
f 63/63/63 59/59/59 58/58/58
f 64/64/64 59/59/59 63/63/63
f 52/52/52 65/65/65 57/57/57
f 65/65/65 52/52/52 61/61/61
f 66/66/66 58/58/58 62/62/62
f 58/58/58 66/66/66 63/63/63
f 57/57/57 67/67/67 62/62/62
f 57/57/57 65/65/65 67/67/67
f 62/62/62 67/67/67 66/66/66
f 68/68/68 64/64/64 63/63/63
f 69/69/69 64/64/64 68/68/68
f 70/70/70 69/69/69 68/68/68
f 71/71/71 70/70/70 68/68/68
f 72/72/72 68/68/68 63/63/63
f 68/68/68 72/72/72 71/71/71
f 63/63/63 66/66/66 72/72/72
f 65/65/65 73/73/73 67/67/67
f 65/65/65 61/61/61 73/73/73
f 74/74/74 71/71/71 72/72/72
f 74/74/74 75/75/75 71/71/71
f 67/67/67 76/76/76 66/66/66
f 73/73/73 76/76/76 67/67/67
f 77/77/77 72/72/72 66/66/66
f 77/77/77 74/74/74 72/72/72
f 76/76/76 77/77/77 66/66/66
f 75/75/75 74/74/74 78/78/78
f 75/75/75 78/78/78 79/79/79
f 78/78/78 80/80/80 79/79/79
f 77/77/77 81/81/81 74/74/74
f 81/81/81 78/78/78 74/74/74
f 81/81/81 77/77/77 76/76/76
f 82/82/82 80/80/80 78/78/78
f 81/81/81 82/82/82 78/78/78
f 82/82/82 83/83/83 80/80/80
f 73/73/73 84/84/84 76/76/76
f 61/61/61 84/84/84 73/73/73
f 76/76/76 85/85/85 81/81/81
f 85/85/85 76/76/76 84/84/84
f 82/82/82 81/81/81 85/85/85
f 82/82/82 86/86/86 83/83/83
f 86/86/86 87/87/87 83/83/83
f 86/86/86 44/44/44 87/87/87
f 88/88/88 84/84/84 61/61/61
f 88/88/88 85/85/85 84/84/84
f 85/85/85 89/89/89 82/82/82
f 82/82/82 89/89/89 86/86/86
f 88/88/88 89/89/89 85/85/85
f 86/86/86 90/90/90 44/44/44
f 86/86/86 89/89/89 90/90/90
f 88/88/88 90/90/90 89/89/89
f 44/44/44 90/90/90 43/43/43
f 88/88/88 43/43/43 90/90/90
f 61/61/61 91/91/91 88/88/88
f 88/88/88 91/91/91 43/43/43
f 61/61/61 39/39/39 91/91/91
f 91/91/91 39/39/39 43/43/43
