g facial_mouth_geo
v 0.09685068 1.602373 0.07978809
v 0.08526936 1.586552 0.1017361
v 0.08675548 1.599394 0.1034976
v 0.09158741 1.584982 0.07298712
v 0.07436096 1.585683 0.1134379
v 0.07680271 1.599333 0.1127425
v 0.08252743 1.568527 0.09352933
v 0.08910078 1.568883 0.06334464
v 0.05905775 1.588155 0.123741
v 0.06236916 1.59968 0.1221061
v 0.04342527 1.601639 0.130538
v 0.07088476 1.570557 0.1120782
v 0.07701072 1.553851 0.08136661
v 0.06534097 1.55456 0.1063752
v 0.06911294 1.541092 0.06115357
v 0.08299529 1.55775 0.04242143
v 0.07766987 1.543011 0.03468348
v 0.06223186 1.53153 0.05269884
v 0.05297182 1.528322 0.07517169
v 0.04824798 1.521164 0.06672254
v 0.05856361 1.53721 0.09419954
v 0.03550249 1.513385 0.09111463
v 0.03154835 1.510875 0.0814501
v 0.04940071 1.547213 0.116672
v 0.01084277 1.499573 0.1074263
v 0.005264129 1.497638 0.09732418
v -0.0005314822 1.496166 0.09872646
v 0.05169459 1.562109 0.1221692
v 0.05547163 1.575477 0.1247803
v 0.04008302 1.577969 0.1339726
v 0.03433621 1.566763 0.134292
v 0.02007906 1.58177 0.1496033
v 0.02171869 1.603092 0.1410945
v 0.03254354 1.553011 0.1307723
v 0.01577144 1.548606 0.1355672
v 0.03286255 1.54061 0.1235439
v 0.03563236 1.530104 0.1158926
v 0.01742755 1.563671 0.1400479
v -0.0005314822 1.560703 0.1440886
v -0.0005314822 1.586918 0.1626169
v -0.0005314822 1.605181 0.1486655
v -0.02278166 1.603092 0.1410945
v -0.02114202 1.58177 0.1496033
v -0.04448824 1.601639 0.130538
v 0.01468151 1.535274 0.1297656
v 0.03509194 1.518901 0.1046045
v 0.01487161 1.515758 0.1185926
v 0.01230815 1.506425 0.1138866
v -0.0005314822 1.497182 0.1107218
v -0.0005314822 1.503726 0.1166453
v -0.0005314829 1.514438 0.1218654
v -0.0005314822 1.533927 0.1333289
v -0.01190574 1.499573 0.1074261
v -0.006327092 1.497638 0.09732418
v -0.03261131 1.511007 0.08145073
v -0.01337111 1.506425 0.1138866
v -0.01593459 1.515758 0.1185926
v -0.03656545 1.513742 0.09111463
v -0.04824798 1.521901 0.06672254
v -0.0005314822 1.544949 0.138752
v -0.01683441 1.548606 0.1355672
v -0.03615491 1.519191 0.1046045
v -0.05403478 1.529533 0.07517169
v -0.06329483 1.532278 0.05269884
v -0.01574446 1.535274 0.1297656
v -0.05962658 1.538211 0.09419954
v -0.03669532 1.530248 0.1158926
v -0.07017592 1.54136 0.06115357
v -0.07873283 1.543609 0.03468348
v -0.08405825 1.55775 0.04242143
v -0.09016375 1.567706 0.06334464
v -0.07807369 1.554611 0.08136661
v -0.03392552 1.540617 0.1235439
v -0.08359038 1.567766 0.09352933
v -0.09265038 1.583662 0.07298712
v -0.05046367 1.547143 0.116672
v -0.06640393 1.554322 0.1063752
v -0.08633232 1.584787 0.1017361
v -0.09791362 1.600739 0.07978809
v -0.08781844 1.597589 0.1034976
v -0.07194773 1.569303 0.1120782
v -0.07542393 1.584002 0.1134379
v -0.07786567 1.597809 0.1127425
v -0.03360651 1.552972 0.1307723
v -0.05275756 1.561671 0.1221692
v -0.0601207 1.587212 0.123741
v -0.06343213 1.598932 0.1221061
v -0.03539917 1.566736 0.134292
v -0.05653459 1.574662 0.1247803
v -0.04114598 1.577867 0.1339726
v -0.01849051 1.563671 0.1400479
vt 0.3413086 0.3586426
vt 0.3222656 0.3496094
vt 0.322998 0.361084
vt 0.3430176 0.3405762
vt 0.310791 0.3513184
vt 0.3132324 0.3630371
vt 0.3237305 0.3330078
vt 0.3466797 0.3232422
vt 0.2973633 0.3564453
vt 0.3005371 0.3652344
vt 0.2851562 0.3688965
vt 0.3081055 0.3395996
vt 0.326416 0.317627
vt 0.3059082 0.326416
vt 0.3330078 0.3022461
vt 0.3525391 0.3081055
vt 0.3527832 0.2978516
vt 0.3337402 0.2929688
vt 0.3125 0.2966309
vt 0.3129883 0.2885742
vt 0.3059082 0.3100586
vt 0.2883301 0.2937012
vt 0.2902832 0.286377
vt 0.2910156 0.324707
vt 0.2587891 0.2929688
vt 0.2565918 0.2851562
vt 0.2484131 0.2856445
vt 0.291748 0.3369141
vt 0.2941895 0.347168
vt 0.2814941 0.3518066
vt 0.2768555 0.3435059
vt 0.2641602 0.3562012
vt 0.267334 0.3718262
vt 0.2753906 0.3327637
vt 0.2619629 0.3300781
vt 0.2766113 0.3225098
vt 0.2800293 0.3132324
vt 0.2631836 0.3413086
vt 0.2491455 0.3395996
vt 0.2493896 0.3598633
vt 0.2496338 0.3745117
vt 0.2319336 0.3720703
vt 0.2344971 0.3564453
vt 0.2138672 0.3696289
vt 0.2612305 0.3203125
vt 0.2827148 0.3029785
vt 0.2619629 0.3063965
vt 0.2595215 0.2995605
vt 0.2485352 0.2932129
vt 0.2485352 0.2993164
vt 0.2486572 0.3068848
vt 0.2489014 0.3205566
vt 0.2382812 0.2932129
vt 0.2403564 0.2854004
vt 0.206543 0.2871094
vt 0.2375488 0.2995605
vt 0.2354736 0.3066406
vt 0.2086182 0.2944336
vt 0.18396 0.2897949
vt 0.2490234 0.3278809
vt 0.2359619 0.3303223
vt 0.2145996 0.3034668
vt 0.1846924 0.2978516
vt 0.1633301 0.2944336
vt 0.2364502 0.3205566
vt 0.1915283 0.3112793
vt 0.2174072 0.3139648
vt 0.1643066 0.3037109
vt 0.1442871 0.2998047
vt 0.1450195 0.3100586
vt 0.151001 0.3249512
vt 0.1712646 0.3188477
vt 0.2210693 0.3232422
vt 0.1743164 0.3344727
vt 0.1551514 0.3425293
vt 0.2069092 0.3254395
vt 0.1918945 0.3273926
vt 0.1762695 0.3508301
vt 0.1574707 0.3603516
vt 0.1759033 0.3623047
vt 0.1900635 0.3405762
vt 0.1878662 0.3525391
vt 0.185791 0.3640137
vt 0.2226562 0.333252
vt 0.2064209 0.3376465
vt 0.2012939 0.3574219
vt 0.1983643 0.3659668
vt 0.2215576 0.3439941
vt 0.2043457 0.3479004
vt 0.2171631 0.3522949
vt 0.2351074 0.3415527
vn 0.9125538 -0.3060669 0.2712352
vn 0.8730615 -0.264248 0.4098007
vn 0.8319098 -0.1489662 0.5345418
vn 0.9307823 -0.2972965 0.212742
vn 0.6161644 -0.13485 0.7759877
vn 0.5682542 0.01570893 0.8227032
vn 0.8544782 -0.4034655 0.327235
vn 0.8637015 -0.4886282 0.1235403
vn 0.4994527 -0.02075008 0.8660927
vn 0.4546806 0.1329316 0.8806786
vn 0.4448784 0.260565 0.8568484
vn 0.6629792 -0.3316026 0.6711918
vn 0.7841659 -0.590408 0.1910557
vn 0.6914476 -0.5278117 0.4932696
vn 0.753107 -0.6404617 0.1504614
vn 0.7970855 -0.5820474 0.1608588
vn 0.7159703 -0.6972959 0.03413063
vn 0.5910662 -0.8065707 -0.009180019
vn 0.6925015 -0.7075858 0.1405844
vn 0.5734352 -0.8187243 -0.02936981
vn 0.7057402 -0.6415088 0.3006615
vn 0.624981 -0.7619975 0.1695836
vn 0.5400429 -0.8415139 -0.0144251
vn 0.5962659 -0.4896247 0.6361874
vn 0.4648368 -0.8336962 0.2981232
vn 0.2760071 -0.9557275 -0.1020047
vn -0 -0.99728 -0.07370573
vn 0.5324563 -0.3261076 0.7811173
vn 0.5481553 -0.2193468 0.8071014
vn 0.5283061 0.03658161 0.8482655
vn 0.4581493 -0.3119724 0.8323295
vn 0.4903584 0.05440771 0.869821
vn 0.4524797 0.3458806 0.8219664
vn 0.4203092 -0.3652595 0.8306177
vn 0.3170071 -0.3798968 0.8690137
vn 0.4213036 -0.4404993 0.792757
vn 0.5266838 -0.518863 0.6733389
vn 0.3119545 -0.4054463 0.8592426
vn -2.716831E-07 -0.4711154 0.8820716
vn -1.579259E-07 0.1354466 0.9907846
vn -0 0.4514415 0.8923007
vn -0.4526022 0.3456854 0.8219811
vn -0.4904456 0.05455988 0.8697622
vn -0.4470846 0.2578442 0.856523
vn 0.3236425 -0.4536324 0.8303452
vn 0.6086221 -0.661064 0.438832
vn 0.3629301 -0.4933205 0.7905167
vn 0.4910664 -0.6081126 0.623741
vn -2.097094E-06 -0.8827437 0.4698549
vn -2.971784E-06 -0.6068181 0.7948408
vn 8.050568E-07 -0.4883605 0.872642
vn 1.13921E-06 -0.4731098 0.8810035
vn -0.4681427 -0.8323192 0.2967948
vn -0.2772881 -0.9553254 -0.1022971
vn -0.560816 -0.8276197 -0.02304033
vn -0.494917 -0.6074647 0.6213242
vn -0.3647502 -0.4938237 0.7893639
vn -0.638863 -0.752696 0.159069
vn -0.5796251 -0.8143923 -0.02828134
vn 5.774505E-07 -0.3908959 0.9204349
vn -0.316768 -0.3800679 0.8690262
vn -0.617139 -0.6581369 0.4312718
vn -0.6897451 -0.7112741 0.1354279
vn -0.5838949 -0.8118293 5.850411E-06
vn -0.3241619 -0.4541084 0.8298822
vn -0.70567 -0.6489827 0.2843438
vn -0.5312129 -0.5215757 0.6676613
vn -0.7356037 -0.6585153 0.1588862
vn -0.711892 -0.7011948 0.03918529
vn -0.7817833 -0.6052358 0.1500146
vn -0.8498724 -0.5118355 0.125464
vn -0.7654383 -0.6133647 0.1946483
vn -0.4216428 -0.4419045 0.7917941
vn -0.8471189 -0.425271 0.3186444
vn -0.9289993 -0.3039954 0.2110619
vn -0.5957825 -0.5023487 0.6266491
vn -0.6853075 -0.553292 0.4735204
vn -0.871541 -0.271791 0.4081005
vn -0.9160943 -0.3002351 0.2657632
vn -0.8322412 -0.1459037 0.5348707
vn -0.6584061 -0.345777 0.6685355
vn -0.6132399 -0.1360596 0.7780903
vn -0.5691906 0.01273037 0.8221071
vn -0.4182873 -0.3662863 0.8311859
vn -0.5251083 -0.3327639 0.7832812
vn -0.4993446 -0.02072902 0.8661554
vn -0.4573824 0.1275504 0.8800752
vn -0.4549718 -0.31237 0.8339218
vn -0.5414037 -0.2220661 0.8109061
vn -0.5271602 0.03688026 0.8489652
vn -0.311673 -0.405486 0.8593259
g facial_mouth_geo_0
f 3/3/3 2/2/2 1/1/1
f 2/2/2 4/4/4 1/1/1
f 2/2/2 3/3/3 5/5/5
f 3/3/3 6/6/6 5/5/5
f 2/2/2 7/7/7 4/4/4
f 8/8/8 4/4/4 7/7/7
f 5/5/5 6/6/6 9/9/9
f 6/6/6 10/10/10 9/9/9
f 11/11/11 9/9/9 10/10/10
f 2/2/2 12/12/12 7/7/7
f 2/2/2 5/5/5 12/12/12
f 8/8/8 7/7/7 13/13/13
f 7/7/7 12/12/12 14/14/14
f 13/13/13 7/7/7 14/14/14
f 8/8/8 13/13/13 15/15/15
f 15/15/15 16/16/16 8/8/8
f 17/17/17 16/16/16 15/15/15
f 18/18/18 17/17/17 15/15/15
f 18/18/18 15/15/15 19/19/19
f 19/19/19 15/15/15 13/13/13
f 20/20/20 18/18/18 19/19/19
f 13/13/13 14/14/14 21/21/21
f 13/13/13 21/21/21 19/19/19
f 20/20/20 19/19/19 22/22/22
f 21/21/21 22/22/22 19/19/19
f 23/23/23 20/20/20 22/22/22
f 24/24/24 14/14/14 12/12/12
f 14/14/14 24/24/24 21/21/21
f 25/25/25 23/23/23 22/22/22
f 25/25/25 26/26/26 23/23/23
f 26/26/26 25/25/25 27/27/27
f 12/12/12 28/28/28 24/24/24
f 28/28/28 12/12/12 5/5/5
f 5/5/5 29/29/29 28/28/28
f 5/5/5 9/9/9 29/29/29
f 30/30/30 29/29/29 9/9/9
f 11/11/11 30/30/30 9/9/9
f 28/28/28 29/29/29 31/31/31
f 29/29/29 30/30/30 31/31/31
f 30/30/30 11/11/11 32/32/32
f 32/32/32 31/31/31 30/30/30
f 11/11/11 33/33/33 32/32/32
f 24/24/24 28/28/28 34/34/34
f 28/28/28 31/31/31 34/34/34
f 35/35/35 34/34/34 31/31/31
f 24/24/24 34/34/34 36/36/36
f 36/36/36 34/34/34 35/35/35
f 24/24/24 36/36/36 37/37/37
f 24/24/24 37/37/37 21/21/21
f 32/32/32 38/38/38 31/31/31
f 31/31/31 38/38/38 35/35/35
f 32/32/32 39/39/39 38/38/38
f 38/38/38 39/39/39 35/35/35
f 40/40/40 32/32/32 33/33/33
f 32/32/32 40/40/40 39/39/39
f 41/41/41 40/40/40 33/33/33
f 40/40/40 41/41/41 42/42/42
f 43/43/43 40/40/40 42/42/42
f 40/40/40 43/43/43 39/39/39
f 42/42/42 44/44/44 43/43/43
f 36/36/36 45/45/45 37/37/37
f 45/45/45 36/36/36 35/35/35
f 21/21/21 37/37/37 46/46/46
f 22/22/22 21/21/21 46/46/46
f 46/46/46 37/37/37 47/47/47
f 45/45/45 47/47/47 37/37/37
f 48/48/48 22/22/22 46/46/46
f 46/46/46 47/47/47 48/48/48
f 25/25/25 22/22/22 48/48/48
f 25/25/25 48/48/48 49/49/49
f 25/25/25 49/49/49 27/27/27
f 47/47/47 50/50/50 48/48/48
f 48/48/48 50/50/50 49/49/49
f 47/47/47 45/45/45 51/51/51
f 47/47/47 51/51/51 50/50/50
f 45/45/45 35/35/35 52/52/52
f 45/45/45 52/52/52 51/51/51
f 49/49/49 53/53/53 27/27/27
f 53/53/53 54/54/54 27/27/27
f 54/54/54 53/53/53 55/55/55
f 50/50/50 56/56/56 49/49/49
f 56/56/56 53/53/53 49/49/49
f 50/50/50 51/51/51 57/57/57
f 51/51/51 52/52/52 57/57/57
f 50/50/50 57/57/57 56/56/56
f 55/55/55 53/53/53 58/58/58
f 58/58/58 53/53/53 56/56/56
f 59/59/59 55/55/55 58/58/58
f 35/35/35 60/60/60 52/52/52
f 52/52/52 60/60/60 61/61/61
f 60/60/60 35/35/35 39/39/39
f 61/61/61 60/60/60 39/39/39
f 56/56/56 57/57/57 62/62/62
f 62/62/62 58/58/58 56/56/56
f 63/63/63 59/59/59 58/58/58
f 64/64/64 59/59/59 63/63/63
f 52/52/52 65/65/65 57/57/57
f 65/65/65 52/52/52 61/61/61
f 66/66/66 58/58/58 62/62/62
f 58/58/58 66/66/66 63/63/63
f 57/57/57 67/67/67 62/62/62
f 57/57/57 65/65/65 67/67/67
f 62/62/62 67/67/67 66/66/66
f 68/68/68 64/64/64 63/63/63
f 69/69/69 64/64/64 68/68/68
f 70/70/70 69/69/69 68/68/68
f 71/71/71 70/70/70 68/68/68
f 72/72/72 68/68/68 63/63/63
f 68/68/68 72/72/72 71/71/71
f 63/63/63 66/66/66 72/72/72
f 65/65/65 73/73/73 67/67/67
f 65/65/65 61/61/61 73/73/73
f 74/74/74 71/71/71 72/72/72
f 74/74/74 75/75/75 71/71/71
f 67/67/67 76/76/76 66/66/66
f 73/73/73 76/76/76 67/67/67
f 77/77/77 72/72/72 66/66/66
f 77/77/77 74/74/74 72/72/72
f 76/76/76 77/77/77 66/66/66
f 75/75/75 74/74/74 78/78/78
f 75/75/75 78/78/78 79/79/79
f 78/78/78 80/80/80 79/79/79
f 77/77/77 81/81/81 74/74/74
f 81/81/81 78/78/78 74/74/74
f 81/81/81 77/77/77 76/76/76
f 82/82/82 80/80/80 78/78/78
f 81/81/81 82/82/82 78/78/78
f 82/82/82 83/83/83 80/80/80
f 73/73/73 84/84/84 76/76/76
f 61/61/61 84/84/84 73/73/73
f 76/76/76 85/85/85 81/81/81
f 85/85/85 76/76/76 84/84/84
f 82/82/82 81/81/81 85/85/85
f 82/82/82 86/86/86 83/83/83
f 86/86/86 87/87/87 83/83/83
f 86/86/86 44/44/44 87/87/87
f 88/88/88 84/84/84 61/61/61
f 88/88/88 85/85/85 84/84/84
f 85/85/85 89/89/89 82/82/82
f 82/82/82 89/89/89 86/86/86
f 88/88/88 89/89/89 85/85/85
f 86/86/86 90/90/90 44/44/44
f 86/86/86 89/89/89 90/90/90
f 88/88/88 90/90/90 89/89/89
f 44/44/44 90/90/90 43/43/43
f 88/88/88 43/43/43 90/90/90
f 61/61/61 91/91/91 88/88/88
f 88/88/88 91/91/91 43/43/43
f 61/61/61 39/39/39 91/91/91
f 91/91/91 39/39/39 43/43/43
