g head_geo
v -0.116793 1.716619 0.0759057
v -0.1110425 1.747885 0.07298484
v -0.1023717 1.724294 0.1123745
v -0.09654274 1.753273 0.1079674
v -0.0723553 1.759289 0.1277551
v -0.07927429 1.725356 0.1340347
v -0.05355814 1.723439 0.1432846
v -0.03961084 1.763775 0.1361129
v -0.02509655 1.71988 0.1490461
v -0.0005314822 1.762711 0.1412168
v -0.0005314822 1.717201 0.150873
v 0.02403359 1.71988 0.1490461
v 0.03854787 1.763775 0.1361129
v 0.05249517 1.723439 0.1432846
v 0.07129233 1.759289 0.1277551
v 0.07821132 1.725356 0.1340347
v 0.1013088 1.724294 0.1123745
v 0.09547976 1.753273 0.1079674
v 0.1099796 1.747885 0.07298484
v 0.11573 1.716619 0.0759057
v -0.1128217 1.680054 0.08237236
v -0.1222465 1.706346 0.03739716
v -0.116793 1.716619 0.0759057
v -0.1111338 1.643447 0.05354953
v -0.107126 1.64958 0.08574702
v -0.1030498 1.620922 0.08407177
v -0.102654 1.594676 0.04954109
v -0.09791362 1.600739 0.07978809
v -0.09265038 1.583662 0.07298712
v -0.09016375 1.567706 0.06334464
v -0.09493902 1.56549 0.02946243
v -0.08405825 1.55775 0.04242143
v -0.08875433 1.55663 0.01879753
v -0.07873283 1.543609 0.03468348
v -0.1022274 1.581069 0.02107534
v -0.1138983 1.636415 0.02124869
v -0.1111338 1.643447 0.05354953
v -0.1018011 1.581851 -0.003730003
v -0.1222465 1.706346 0.03739716
v -0.09237158 1.56844 -0.02397165
v -0.1107561 1.605961 -0.02113087
v -0.06050901 1.541434 -0.02503779
v -0.05821855 1.534717 0.006408224
v -0.03346853 1.521304 0.03389867
v -0.06329483 1.532278 0.05269884
v -0.04824798 1.521901 0.06672254
v -0.02676395 1.512157 0.05629861
v -0.03261131 1.511007 0.08145073
v -0.0005314822 1.506383 0.05195378
v -0.0005314822 1.501562 0.07511859
v -0.02011493 1.504366 0.07742352
v -0.006327092 1.497638 0.09732418
v -0.0005314822 1.496166 0.09872646
v 0.005264129 1.497638 0.09732418
v 0.02570099 1.512157 0.05629861
v 0.03240556 1.521304 0.03389867
v 0.01905196 1.504366 0.07742352
v 0.03154835 1.510875 0.0814501
v 0.04824798 1.521164 0.06672254
v 0.06223186 1.53153 0.05269884
v 0.07766987 1.543011 0.03468348
v 0.05715559 1.534717 0.006408224
v 0.08769138 1.55663 0.01879753
v 0.05944605 1.541434 -0.02503779
v 0.08299529 1.55775 0.04242143
v 0.09130861 1.56844 -0.02397165
v 0.1007381 1.581851 -0.003730003
v 0.1096931 1.605961 -0.02113087
v 0.1011644 1.581069 0.02107534
v 0.09387604 1.565992 0.02946243
v 0.101591 1.595467 0.04954109
v 0.08910078 1.568883 0.06334464
v 0.09158741 1.584982 0.07298712
v 0.09685068 1.602373 0.07978809
v 0.1019868 1.62135 0.08407177
v 0.1128354 1.636415 0.02124869
v 0.1100709 1.643447 0.05354953
v 0.106063 1.64958 0.08574702
v 0.1117587 1.680054 0.08237236
v 0.1211835 1.706346 0.03739716
v 0.11573 1.716619 0.0759057
v 0.1100709 1.643447 0.05354953
v 0.1211835 1.706346 0.03739716
v 0.1268935 1.700073 -0.01173535
v 0.1169201 1.647021 -0.01313744
v 0.1199951 1.747187 0.03276546
v 0.1292171 1.748603 -0.0124405
v 0.11573 1.716619 0.0759057
v 0.1099796 1.747885 0.07298484
v -0.1179831 1.647021 -0.01313744
v -0.1138983 1.636415 0.02124869
v -0.1333371 1.648539 -0.003413024
v -0.1402347 1.643165 -0.01597924
v -0.118204 1.630614 -0.02099998
v -0.1406355 1.631982 -0.02358413
v -0.1107561 1.605961 -0.02113087
v -0.1406351 1.63731 -0.009406408
v -0.1349711 1.642098 -0.0006558567
v -0.1138983 1.636415 0.02124869
v -0.1022274 1.581069 0.02107534
v -0.1089929 1.570393 0.004233593
v -0.1333603 1.598717 -0.01084571
v -0.1233782 1.574641 -0.01080859
v -0.142019 1.628597 -0.01597394
v -0.1368586 1.603191 -0.02273846
v -0.1018011 1.581851 -0.003730003
v -0.1089929 1.570393 0.004233593
v -0.1022274 1.581069 0.02107534
v 0.1169201 1.647021 -0.01313744
v 0.1322741 1.648539 -0.003413024
v 0.1128354 1.636415 0.02124869
v 0.1391717 1.643165 -0.01597924
v 0.117141 1.630614 -0.02099998
v 0.1395725 1.631982 -0.02358413
v 0.1096931 1.605961 -0.02113087
v 0.1395721 1.63731 -0.009406408
v 0.1409561 1.628597 -0.01597394
v 0.1322974 1.598717 -0.01084571
v 0.1357957 1.603191 -0.02273846
v 0.1223152 1.574641 -0.01080859
v 0.1007381 1.581851 -0.003730003
v 0.1079299 1.570393 0.004233593
v 0.1011644 1.581069 0.02107534
v 0.1079299 1.570393 0.004233593
v 0.1339081 1.642098 -0.0006558567
v 0.1128354 1.636415 0.02124869
v 0.1011644 1.581069 0.02107534
v -0.1110425 1.747885 0.07298484
v -0.116793 1.716619 0.0759057
v -0.1210581 1.747187 0.03276546
v -0.1279565 1.700073 -0.01173535
v -0.13028 1.748603 -0.0124405
v -0.1179831 1.647021 -0.01313744
v -0.0005314822 1.806059 0.1090412
v -0.03961084 1.763775 0.1361129
v -0.05016973 1.799466 0.1033544
v -0.0723553 1.759289 0.1277551
v -0.09129668 1.788076 0.0816911
v -0.09654274 1.753273 0.1079674
v -0.1110425 1.747885 0.07298484
v -0.03961084 1.763775 0.1361129
v -0.0005314822 1.806059 0.1090412
v -0.0005314822 1.762711 0.1412168
v 0.03854787 1.763775 0.1361129
v -0.0005314822 1.806059 0.1090412
v 0.04910677 1.799466 0.1033544
v 0.03854787 1.763775 0.1361129
v 0.07129233 1.759289 0.1277551
v 0.09023372 1.788076 0.0816911
v 0.09547976 1.753273 0.1079674
v 0.1099796 1.747885 0.07298484
vt 0.1265869 0.4465332
vt 0.1248779 0.4787598
vt 0.1583252 0.4567871
vt 0.1569824 0.4904785
vt 0.1776123 0.4934082
vt 0.1810303 0.4611816
vt 0.204834 0.4619141
vt 0.2182617 0.4953613
vt 0.2254639 0.4675293
vt 0.2507324 0.4995117
vt 0.2504883 0.470459
vt 0.2753906 0.467041
vt 0.2832031 0.4951172
vt 0.2946777 0.4621582
vt 0.3168945 0.4924316
vt 0.3198242 0.4587402
vt 0.3425293 0.454834
vt 0.3442383 0.4892578
vt 0.3762207 0.4770508
vt 0.3740234 0.4438477
vt 0.1439209 0.4228516
vt 0.1143188 0.4453125
vt 0.1265869 0.4465332
vt 0.130249 0.3945312
vt 0.1524658 0.401123
vt 0.1563721 0.3786621
vt 0.1384277 0.3493652
vt 0.1574707 0.3603516
vt 0.1551514 0.3425293
vt 0.151001 0.3249512
vt 0.1363525 0.315918
vt 0.1450195 0.3100586
vt 0.1364746 0.3051758
vt 0.1442871 0.2998047
vt 0.1131592 0.3198242
vt 0.1131592 0.3359375
vt 0.130249 0.3945312
vt 0.1131592 0.3083496
vt 0.1143188 0.4453125
vt 0.1131592 0.2890625
vt 0.09844971 0.3220215
vt 0.1140747 0.2709961
vt 0.1376953 0.2712402
vt 0.1750488 0.2712402
vt 0.1633301 0.2944336
vt 0.18396 0.2897949
vt 0.2022705 0.2758789
vt 0.206543 0.2871094
vt 0.2474365 0.2712402
vt 0.2479248 0.2758789
vt 0.2285156 0.2805176
vt 0.2403564 0.2854004
vt 0.2484131 0.2856445
vt 0.2565918 0.2851562
vt 0.2937012 0.2756348
vt 0.3200684 0.2712402
vt 0.2675781 0.2802734
vt 0.2902832 0.286377
vt 0.3129883 0.2885742
vt 0.3337402 0.2929688
vt 0.3527832 0.2978516
vt 0.3574219 0.2712402
vt 0.361084 0.3029785
vt 0.3820801 0.2709961
vt 0.3525391 0.3081055
vt 0.3830566 0.2890625
vt 0.3830566 0.3054199
vt 0.3977051 0.3178711
vt 0.3830566 0.317627
vt 0.3613281 0.3137207
vt 0.3598633 0.3466797
vt 0.3466797 0.3232422
vt 0.3430176 0.3405762
vt 0.3413086 0.3586426
vt 0.3427734 0.3771973
vt 0.3830566 0.3325195
vt 0.3688965 0.3918457
vt 0.3481445 0.4001465
vt 0.3579102 0.4221191
vt 0.3859863 0.4421387
vt 0.3740234 0.4438477
vt 0.3688965 0.3918457
vt 0.3859863 0.4421387
vt 0.3830566 0.4106445
vt 0.3916016 0.3496094
vt 0.387207 0.472168
vt 0.395752 0.4709473
vt 0.3740234 0.4438477
vt 0.3762207 0.4770508
vt 0.1091309 0.1901855
vt 0.1391602 0.1773682
vt 0.1109009 0.1777344
vt 0.1028442 0.1846924
vt 0.09509277 0.1989746
vt 0.09484863 0.1916504
vt 0.07324219 0.1990967
vt 0.09680176 0.1816406
vt 0.1025391 0.1765137
vt 0.09985352 0.1535645
vt 0.05126953 0.1529541
vt 0.0428772 0.1678467
vt 0.06451416 0.1877441
vt 0.05056763 0.1845703
vt 0.09100342 0.1867676
vt 0.06982422 0.192627
vt 0.03604126 0.1881104
vt 0.03607178 0.1820068
vt 0.02125549 0.1849365
vt 0.3908691 0.1901855
vt 0.3891602 0.1777344
vt 0.3608398 0.1773682
vt 0.3972168 0.1846924
vt 0.4050293 0.1989746
vt 0.4052734 0.1916504
vt 0.4267578 0.1990967
vt 0.4033203 0.1816406
vt 0.4089355 0.1867676
vt 0.4355469 0.1831055
vt 0.4301758 0.192627
vt 0.4528809 0.1800537
vt 0.4638672 0.1881104
vt 0.4638672 0.1820068
vt 0.4787598 0.1849365
vt 0.458252 0.1662598
vt 0.3974609 0.1765137
vt 0.4001465 0.1535645
vt 0.4487305 0.1529541
vt 0.1248779 0.4787598
vt 0.1265869 0.4465332
vt 0.1159058 0.472168
vt 0.1131592 0.4147949
vt 0.1005249 0.4733887
vt 0.1046753 0.354248
vt 0.2512207 0.498291
vt 0.2182617 0.4953613
vt 0.1834717 0.4987793
vt 0.1776123 0.4934082
vt 0.1361084 0.4890137
vt 0.1569824 0.4904785
vt 0.1248779 0.4787598
vt 0.2182617 0.4953613
vt 0.2512207 0.498291
vt 0.2507324 0.4995117
vt 0.2832031 0.4951172
vt 0.2512207 0.498291
vt 0.3190918 0.4968262
vt 0.2832031 0.4951172
vt 0.3168945 0.4924316
vt 0.3666992 0.4890137
vt 0.3442383 0.4892578
vt 0.3762207 0.4770508
vn -0.92477 0.2003122 0.3235359
vn -0.919351 0.2136838 0.3303528
vn -0.7814313 0.2461955 0.57337
vn -0.7545345 0.2533325 0.6053928
vn -0.4434496 0.2563486 0.8588585
vn -0.5010371 0.1387999 0.8542228
vn -0.2665108 0.1206486 0.9562509
vn -0.2082423 0.2448757 0.9469271
vn -0.1257477 0.1375649 0.9824782
vn 1.492369E-07 0.2370833 0.9714893
vn -0 0.1043254 0.9945432
vn 0.1257475 0.1375648 0.9824783
vn 0.2082419 0.2448754 0.9469274
vn 0.2665113 0.1206485 0.9562508
vn 0.4434486 0.2563481 0.8588592
vn 0.5010366 0.1387996 0.8542231
vn 0.7814299 0.2461952 0.5733719
vn 0.7545326 0.2533324 0.6053951
vn 0.9193512 0.2136841 0.3303522
vn 0.9247705 0.2003117 0.3235349
vn -0.9820588 -0.130855 0.1357843
vn -0.9835048 -0.1179119 0.1371684
vn -0.983942 -0.0785167 0.1602917
vn -0.9787045 -0.1574693 0.1316854
vn -0.9757887 -0.1577382 0.15151
vn -0.9722903 -0.1852983 0.1425341
vn -0.9564942 -0.2522717 0.1465532
vn -0.9160943 -0.3002351 0.2657632
vn -0.9142696 -0.3299014 0.2351087
vn -0.905039 -0.3846285 0.1815639
vn -0.8662142 -0.4904121 0.09575485
vn -0.7817833 -0.6052358 0.1500146
vn -0.7629693 -0.6453668 -0.03714334
vn -0.711892 -0.7011949 0.03918529
vn -0.8948565 -0.3091541 0.3219557
vn -0.8956685 -0.1166012 0.4291643
vn -0.9797117 -0.1616044 0.1185282
vn -0.8775761 -0.4713151 -0.08787698
vn -0.9879134 -0.0708266 0.1378793
vn -0.7379165 -0.6281109 -0.2468925
vn -0.5988523 -0.51012 -0.6173763
vn -0.806123 -0.5444803 -0.2317479
vn -0.8007736 -0.5976468 0.03974826
vn -0.6396791 -0.7460441 0.1850105
vn -0.5838949 -0.8118293 5.850411E-06
vn -0.5796251 -0.8143923 -0.02828134
vn -0.3703212 -0.9035348 -0.2156086
vn -0.560816 -0.8276197 -0.02304033
vn -0.001814736 -0.9693933 0.2455062
vn -0 -0.9719632 -0.2351331
vn -0.323691 -0.9299591 -0.1743564
vn -0.2772881 -0.9553254 -0.1022971
vn -0 -0.99728 -0.07370573
vn 0.2760071 -0.9557275 -0.1020047
vn 0.3569037 -0.9069262 -0.2238411
vn 0.6348971 -0.7526962 0.1742246
vn 0.3144052 -0.9331304 -0.1744047
vn 0.5400429 -0.8415138 -0.0144251
vn 0.5734352 -0.8187243 -0.02936981
vn 0.5910662 -0.8065707 -0.009180019
vn 0.7159703 -0.6972959 0.03413063
vn 0.8039727 -0.5934781 0.03757446
vn 0.767301 -0.6401499 -0.03817514
vn 0.8104843 -0.5398334 -0.2273652
vn 0.7970855 -0.5820474 0.1608588
vn 0.7394994 -0.6263765 -0.2465623
vn 0.8776376 -0.4714954 -0.08628044
vn 0.5988538 -0.5101233 -0.617372
vn 0.8935216 -0.3106951 0.3241721
vn 0.867611 -0.4864381 0.1030973
vn 0.9551529 -0.2548383 0.1507999
vn 0.9041535 -0.3833375 0.1885702
vn 0.9127113 -0.3290215 0.242287
vn 0.9125538 -0.3060669 0.2712352
vn 0.9713016 -0.1893277 0.1439739
vn 0.8954256 -0.1167977 0.4296176
vn 0.9785044 -0.1586367 0.1317702
vn 0.9755997 -0.1587412 0.1516793
vn 0.9820588 -0.1308548 0.1357849
vn 0.9835048 -0.1179119 0.1371687
vn 0.9839421 -0.07851752 0.1602906
vn 0.9795219 -0.1620007 0.1195513
vn 0.9879134 -0.07082684 0.137879
vn 0.9871196 -0.08475722 0.1356877
vn 0.9807785 -0.1859424 0.05915136
vn 0.9869331 0.02152031 0.1596877
vn 0.9876737 -0.003200526 0.1564943
vn 0.9776108 0.1135822 0.1771333
vn 0.952154 0.1969551 0.2336911
vn 0.1538523 0.9342266 -0.3217917
vn -0.8956685 -0.1166012 0.4291643
vn -0.1498691 0.9612279 0.2314741
vn -0.4825532 0.6772687 -0.5553822
vn 0.08360437 0.09367571 -0.9920862
vn -0.3084587 0.07392576 -0.9483608
vn -0.5988523 -0.51012 -0.6173763
vn -0.8488222 -0.08604334 0.5216296
vn -0.7781098 -0.08036152 0.6229663
vn -0.8956685 -0.1166012 0.4291643
vn -0.8948565 -0.3091541 0.3219557
vn -0.6588628 -0.5418558 0.5218162
vn -0.7916631 -0.2174962 0.5709335
vn -0.2793561 -0.7913652 -0.5437841
vn -0.980586 -0.1463439 0.1305165
vn -0.3186846 -0.2063757 -0.9251212
vn 0.5346901 -0.539993 -0.6500109
vn -0.6588628 -0.5418558 0.5218162
vn -0.8948565 -0.3091541 0.3219557
vn -0.153853 0.9342259 -0.3217937
vn 0.1498688 0.9612288 0.2314704
vn 0.8954256 -0.1167977 0.4296176
vn 0.482553 0.6772694 -0.5553817
vn -0.08360434 0.09367587 -0.9920862
vn 0.3084594 0.07392674 -0.9483605
vn 0.5988538 -0.5101233 -0.617372
vn 0.8488215 -0.08604283 0.5216308
vn 0.9805862 -0.1463432 0.1305157
vn 0.7916631 -0.2174962 0.5709335
vn 0.3186847 -0.2063759 -0.9251211
vn 0.2793557 -0.7913658 -0.5437836
vn -0.5346895 -0.5399929 -0.6500112
vn 0.6588627 -0.5418545 0.5218174
vn 0.8935216 -0.3106951 0.3241721
vn 0.6588627 -0.5418545 0.5218174
vn 0.7781107 -0.08036105 0.6229653
vn 0.8954256 -0.1167977 0.4296176
vn 0.8935216 -0.3106951 0.3241721
vn -0.9521539 0.1969556 0.2336911
vn -0.9776106 0.1135825 0.1771336
vn -0.9869331 0.02152066 0.1596875
vn -0.9871196 -0.084757 0.1356879
vn -0.9876737 -0.003200147 0.156494
vn -0.9807785 -0.1859428 0.05915137
vn -0 0.6274861 0.7786278
vn -0.1778021 0.6146996 0.76846
vn -0.3152364 0.6404878 0.7002867
vn -0.4446568 0.60805 0.6576895
vn -0.6479312 0.5523126 0.524534
vn -0.7435074 0.4707129 0.4750012
vn -0.8786156 0.3649572 0.3079624
vn -0.1778021 0.6146996 0.76846
vn -0 0.6274861 0.7786278
vn -0 0.5960197 0.8029698
vn 0.177802 0.6146997 0.76846
vn -0 0.6274861 0.7786278
vn 0.3152359 0.6404858 0.7002888
vn 0.177802 0.6146997 0.76846
vn 0.4446567 0.6080492 0.6576904
vn 0.6479305 0.5523119 0.5245357
vn 0.7435078 0.470713 0.4750005
vn 0.8786161 0.3649576 0.3079606
g head_geo_0
f 3/3/3 2/2/2 1/1/1
f 3/3/3 4/4/4 2/2/2
f 5/5/5 4/4/4 3/3/3
f 6/6/6 5/5/5 3/3/3
f 5/5/5 6/6/6 7/7/7
f 8/8/8 5/5/5 7/7/7
f 7/7/7 9/9/9 8/8/8
f 10/10/10 8/8/8 9/9/9
f 9/9/9 11/11/11 10/10/10
f 11/11/11 12/12/12 10/10/10
f 13/13/13 10/10/10 12/12/12
f 12/12/12 14/14/14 13/13/13
f 15/15/15 13/13/13 14/14/14
f 16/16/16 15/15/15 14/14/14
f 15/15/15 16/16/16 17/17/17
f 18/18/18 15/15/15 17/17/17
f 19/19/19 18/18/18 17/17/17
f 19/19/19 17/17/17 20/20/20
f 23/23/23 22/22/22 21/21/21
f 21/21/21 22/22/22 24/24/24
f 25/25/25 21/21/21 24/24/24
f 26/26/26 25/25/25 24/24/24
f 27/27/27 26/26/26 24/24/24
f 28/28/28 26/26/26 27/27/27
f 29/29/29 28/28/28 27/27/27
f 29/29/29 27/27/27 30/30/30
f 31/31/31 30/30/30 27/27/27
f 32/32/32 30/30/30 31/31/31
f 32/32/32 31/31/31 33/33/33
f 34/34/34 32/32/32 33/33/33
f 35/35/35 31/31/31 27/27/27
f 31/31/31 35/35/35 33/33/33
f 36/36/36 35/35/35 27/27/27
f 37/37/37 36/36/36 27/27/27
f 35/35/35 38/38/38 33/33/33
f 37/37/37 39/39/39 36/36/36
f 38/38/38 40/40/40 33/33/33
f 38/38/38 41/41/41 40/40/40
f 40/40/40 42/42/42 33/33/33
f 42/42/42 43/43/43 33/33/33
f 43/43/43 34/34/34 33/33/33
f 43/43/43 44/44/44 34/34/34
f 45/45/45 34/34/34 44/44/44
f 46/46/46 45/45/45 44/44/44
f 47/47/47 46/46/46 44/44/44
f 46/46/46 47/47/47 48/48/48
f 49/49/49 47/47/47 44/44/44
f 49/49/49 50/50/50 47/47/47
f 47/47/47 51/51/51 48/48/48
f 50/50/50 51/51/51 47/47/47
f 48/48/48 51/51/51 52/52/52
f 51/51/51 50/50/50 52/52/52
f 50/50/50 53/53/53 52/52/52
f 53/53/53 50/50/50 54/54/54
f 50/50/50 49/49/49 55/55/55
f 55/55/55 49/49/49 56/56/56
f 50/50/50 57/57/57 54/54/54
f 57/57/57 50/50/50 55/55/55
f 57/57/57 58/58/58 54/54/54
f 57/57/57 55/55/55 58/58/58
f 55/55/55 59/59/59 58/58/58
f 59/59/59 55/55/55 56/56/56
f 60/60/60 59/59/59 56/56/56
f 61/61/61 60/60/60 56/56/56
f 61/61/61 56/56/56 62/62/62
f 61/61/61 62/62/62 63/63/63
f 62/62/62 64/64/64 63/63/63
f 65/65/65 61/61/61 63/63/63
f 64/64/64 66/66/66 63/63/63
f 66/66/66 67/67/67 63/63/63
f 68/68/68 67/67/67 66/66/66
f 67/67/67 69/69/69 63/63/63
f 70/70/70 65/65/65 63/63/63
f 69/69/69 70/70/70 63/63/63
f 70/70/70 69/69/69 71/71/71
f 72/72/72 65/65/65 70/70/70
f 72/72/72 70/70/70 71/71/71
f 71/71/71 73/73/73 72/72/72
f 74/74/74 73/73/73 71/71/71
f 75/75/75 74/74/74 71/71/71
f 69/69/69 76/76/76 71/71/71
f 75/75/75 71/71/71 77/77/77
f 78/78/78 75/75/75 77/77/77
f 79/79/79 78/78/78 77/77/77
f 80/80/80 79/79/79 77/77/77
f 80/80/80 81/81/81 79/79/79
f 76/76/76 82/82/82 71/71/71
f 83/83/83 82/82/82 76/76/76
f 84/84/84 83/83/83 76/76/76
f 84/84/84 76/76/76 85/85/85
f 86/86/86 83/83/83 84/84/84
f 87/87/87 86/86/86 84/84/84
f 88/88/88 83/83/83 86/86/86
f 88/88/88 86/86/86 89/89/89
f 92/92/92 91/91/91 90/90/90
f 90/90/90 93/93/93 92/92/92
f 94/94/94 93/93/93 90/90/90
f 95/95/95 93/93/93 94/94/94
f 95/95/95 94/94/94 96/96/96
f 93/93/93 97/97/97 92/92/92
f 93/93/93 95/95/95 97/97/97
f 97/97/97 98/98/98 92/92/92
f 98/98/98 99/99/99 92/92/92
f 99/99/99 98/98/98 100/100/100
f 100/100/100 98/98/98 101/101/101
f 101/101/101 98/98/98 97/97/97
f 97/97/97 102/102/102 101/101/101
f 101/101/101 102/102/102 103/103/103
f 95/95/95 104/104/104 97/97/97
f 104/104/104 102/102/102 97/97/97
f 95/95/95 105/105/105 104/104/104
f 105/105/105 102/102/102 104/104/104
f 105/105/105 95/95/95 96/96/96
f 102/102/102 105/105/105 103/103/103
f 103/103/103 105/105/105 96/96/96
f 103/103/103 96/96/96 106/106/106
f 107/107/107 103/103/103 106/106/106
f 106/106/106 108/108/108 107/107/107
f 111/111/111 110/110/110 109/109/109
f 112/112/112 109/109/109 110/110/110
f 112/112/112 113/113/113 109/109/109
f 112/112/112 114/114/114 113/113/113
f 113/113/113 114/114/114 115/115/115
f 116/116/116 112/112/112 110/110/110
f 117/117/117 114/114/114 112/112/112
f 116/116/116 117/117/117 112/112/112
f 117/117/117 118/118/118 114/114/114
f 117/117/117 116/116/116 118/118/118
f 114/114/114 119/119/119 115/115/115
f 118/118/118 119/119/119 114/114/114
f 119/119/119 120/120/120 115/115/115
f 119/119/119 118/118/118 120/120/120
f 115/115/115 120/120/120 121/121/121
f 120/120/120 122/122/122 121/121/121
f 123/123/123 121/121/121 122/122/122
f 118/118/118 124/124/124 120/120/120
f 124/124/124 118/118/118 116/116/116
f 125/125/125 116/116/116 110/110/110
f 116/116/116 125/125/125 124/124/124
f 126/126/126 125/125/125 110/110/110
f 125/125/125 127/127/127 124/124/124
f 126/126/126 127/127/127 125/125/125
f 130/130/130 129/129/129 128/128/128
f 130/130/130 39/39/39 129/129/129
f 39/39/39 130/130/130 131/131/131
f 130/130/130 132/132/132 131/131/131
f 39/39/39 131/131/131 36/36/36
f 36/36/36 131/131/131 133/133/133
f 136/136/136 135/135/135 134/134/134
f 137/137/137 135/135/135 136/136/136
f 136/136/136 138/138/138 137/137/137
f 139/139/139 137/137/137 138/138/138
f 139/139/139 138/138/138 140/140/140
f 143/143/143 142/142/142 141/141/141
f 142/142/142 143/143/143 144/144/144
f 147/147/147 146/146/146 145/145/145
f 147/147/147 148/148/148 146/146/146
f 149/149/149 146/146/146 148/148/148
f 148/148/148 150/150/150 149/149/149
f 149/149/149 150/150/150 151/151/151
