g bf_geo
v 0.05996887 0.5621084 -0.1012016
v 5.919271E-08 0.5269507 0.001415341
v 0.1055284 0.5626391 -0.05704559
v 3.271854E-06 0.5617211 -0.1186387
v 5.919271E-08 0.5269507 0.001415341
v 0.05996887 0.5621084 -0.1012016
v -0.05996887 0.5621084 -0.1012016
v 5.919271E-08 0.5269507 0.001415341
v 3.271854E-06 0.5617211 -0.1186387
v -0.105676 0.5625932 -0.05713585
v 5.919271E-08 0.5269507 0.001415341
v -0.05996887 0.5621084 -0.1012016
v -0.128622 0.5613945 -0.0006812311
v 5.919271E-08 0.5269507 0.001415341
v -0.105676 0.5625932 -0.05713585
v -0.1116499 0.5581798 0.0575925
v 5.919271E-08 0.5269507 0.001415341
v -0.128622 0.5613945 -0.0006812311
v -0.06334389 0.5549853 0.09847046
v 5.919271E-08 0.5269507 0.001415341
v -0.1116499 0.5581798 0.0575925
v 8.337523E-07 0.5532304 0.1129696
v 5.919271E-08 0.5269507 0.001415341
v -0.06334389 0.5549853 0.09847046
v 0.06250557 0.5546944 0.09772804
v 5.919271E-08 0.5269507 0.001415341
v 8.337523E-07 0.5532304 0.1129696
v 0.110486 0.5577827 0.05653778
v 5.919271E-08 0.5269507 0.001415341
v 0.06250557 0.5546944 0.09772804
v 0.1286164 0.5613931 -0.0006984614
v 5.919271E-08 0.5269507 0.001415341
v 0.110486 0.5577827 0.05653778
v 0.1055284 0.5626391 -0.05704559
v 5.919271E-08 0.5269507 0.001415341
v 0.1286164 0.5613931 -0.0006984614
v -0.1818479 0.6868921 0.03408773
v -0.2089221 0.6960087 -0.01171286
v -0.2417058 0.6630525 0.04036794
v -0.2612311 0.6848111 -0.01059666
v -0.2518442 0.665114 -0.06954556
v -0.2106655 0.7106789 -0.06903025
v 0.2198485 0.7182628 -0.06223321
v 0.2125237 0.6964523 -0.007697148
v 0.2575927 0.669965 -0.06608044
v 0.2636498 0.6810009 -0.004496502
v 0.238644 0.6544538 0.04156884
v 0.1813209 0.683681 0.0344586
v 7.936128E-06 0.507264 -0.1437779
v -0.05996887 0.5621084 -0.1012016
v 3.271854E-06 0.5617211 -0.1186387
v -0.07108336 0.5072839 -0.1221573
v 1.649902E-05 0.4507204 -0.1657413
v -0.105676 0.5625932 -0.05713585
v -0.08220238 0.451603 -0.1434132
v 4.277014E-09 0.3902587 -0.1867148
v -0.1243476 0.5097561 -0.07158596
v -0.128622 0.5613945 -0.0006812311
v -0.152589 0.5095961 -0.006578472
v -0.1424438 0.4560659 -0.08543298
v -0.1745949 0.4560765 -0.01062916
v -0.09403773 0.3930888 -0.1661843
v -0.1625851 0.400073 -0.1006612
v -0.1938705 0.3982075 -0.01397621
v -0.08505961 0.3207118 -0.1996984
v 2.055206E-09 0.3253536 -0.2031372
v -0.1573237 0.3295621 -0.1575609
v -0.2121625 0.325355 -0.08323722
v -0.1923218 0.3276695 -0.01675227
v -0.152589 0.5095961 -0.006578472
v -0.1116499 0.5581798 0.0575925
v -0.128622 0.5613945 -0.0006812311
v -0.1323314 0.5048072 0.06322425
v -0.1745949 0.4560765 -0.01062916
v -0.06334389 0.5549853 0.09847046
v -0.1493138 0.4502791 0.06948164
v -0.1938705 0.3982075 -0.01397621
v -0.07490975 0.4991102 0.1143095
v 8.337523E-07 0.5532304 0.1129696
v 2.225473E-06 0.4961486 0.1331658
v 0.06250557 0.5546944 0.09772804
v -0.08450721 0.4423612 0.1279434
v -0.1615456 0.3954084 0.07506498
v 0.07303987 0.4986155 0.1117431
v 0.110486 0.5577827 0.05653778
v -0.2149083 0.3285557 0.03483952
v -0.1923218 0.3276695 -0.01675227
v -0.1644903 0.3112056 0.07130571
v -0.09172691 0.3827912 0.1387638
v -0.1117467 0.3081968 0.134922
v -0.05758445 0.2952452 0.1753235
v 2.497846E-06 0.4380658 0.1501049
v 3.943743E-09 0.37573 0.1638901
v 2.055206E-09 0.2966204 0.1583264
v 0.05758445 0.2997223 0.1753235
v 0.08313383 0.44263 0.1269582
v 0.09173599 0.3828077 0.138747
v 0.1117467 0.3082865 0.1348702
v 0.1644903 0.3157912 0.09748343
v 0.1282595 0.5050389 0.05988251
v 0.1286164 0.5613931 -0.0006984614
v 0.1525767 0.5095927 -0.006600242
v 0.1448247 0.4516903 0.06657978
v 0.174569 0.4560681 -0.01064655
v 0.1616395 0.3954084 0.0751142
v 0.2149083 0.3285557 0.03483952
v 0.1938856 0.3982075 -0.01397619
v 0.1923218 0.3276695 -0.01675224
v 0.1525767 0.5095927 -0.006600242
v 0.1055284 0.5626391 -0.05704559
v 0.1286164 0.5613931 -0.0006984614
v 0.1240452 0.509737 -0.07097324
v 0.174569 0.4560681 -0.01064655
v 0.05996887 0.5621084 -0.1012016
v 0.1419806 0.4559229 -0.08310001
v 0.1938856 0.3982075 -0.01397619
v 0.06896842 0.5085229 -0.1225448
v 3.271854E-06 0.5617211 -0.1186387
v 7.936128E-06 0.507264 -0.1437779
v 0.08035208 0.4521707 -0.1394932
v 1.649902E-05 0.4507204 -0.1657413
v 0.1626228 0.400073 -0.09651545
v 0.09402636 0.3930888 -0.1572084
v 4.277014E-09 0.3902587 -0.1867148
v 0.2121625 0.325355 -0.08323722
v 0.1923218 0.3276695 -0.01675224
v 0.1573237 0.3295621 -0.1539299
v 0.08505961 0.3207118 -0.1921723
v 2.055206E-09 0.3253536 -0.2031372
v 0.1232609 0.1475341 0.02696018
v 0.1762556 0.1439872 0.01835705
v 0.1335899 0.1485432 0.01506247
v 0.1626765 0.1411009 0.05411583
v 0.1921358 0.1239956 0.05743042
v 0.2064395 0.1276186 0.02013803
v 0.2125184 0.1122144 0.04077533
v 0.138867 0.1483227 0.02835547
v 0.1289278 0.1480316 0.01594319
v 0.09269034 0.1342987 0.02066577
v 0.1192138 0.1378851 0.05377797
v 0.08655379 0.1132071 0.06248087
v 0.0646566 0.1134545 0.02351137
v 0.06093838 0.09887216 0.0435732
v -0.1232609 0.1475341 0.02696018
v -0.1335899 0.1485432 0.01506247
v -0.1762556 0.1439872 0.01835705
v -0.1626765 0.1411009 0.05411583
v -0.1921358 0.1239956 0.05743042
v -0.2064395 0.1276186 0.02013803
v -0.2125184 0.1122144 0.04077533
v -0.138867 0.1483227 0.02835547
v -0.09269034 0.1342987 0.02066577
v -0.1289278 0.1480316 0.01594319
v -0.1192138 0.1378851 0.05377797
v -0.08655379 0.1132071 0.06248087
v -0.0646566 0.1134545 0.02351137
v -0.06093838 0.09887216 0.0435732
vt 0.3684082 0.007213593
vt 0.3898926 0.1099243
vt 0.4091797 0.006549835
vt 0.3684082 0.007213593
vt 0.3898926 0.1099243
vt 0.4091797 0.006549835
vt 0.3684082 0.007213593
vt 0.3898926 0.1099243
vt 0.4091797 0.006549835
vt 0.3684082 0.007213593
vt 0.3898926 0.1099243
vt 0.4091797 0.006549835
vt 0.3684082 0.007213593
vt 0.3898926 0.1099243
vt 0.4091797 0.006549835
vt 0.3684082 0.007213593
vt 0.3898926 0.1099243
vt 0.4091797 0.006549835
vt 0.3684082 0.007213593
vt 0.3898926 0.1099243
vt 0.4091797 0.006549835
vt 0.3684082 0.007213593
vt 0.3898926 0.1099243
vt 0.4091797 0.006549835
vt 0.3684082 0.007213593
vt 0.3898926 0.1099243
vt 0.4091797 0.006549835
vt 0.3684082 0.007213593
vt 0.3898926 0.1099243
vt 0.4091797 0.006549835
vt 0.3684082 0.007213593
vt 0.3898926 0.1099243
vt 0.4091797 0.006549835
vt 0.3684082 0.007213593
vt 0.3898926 0.1099243
vt 0.4091797 0.006549835
vt 0.9174805 0.5209961
vt 0.9541016 0.519043
vt 0.9169922 0.4836426
vt 0.956543 0.4836426
vt 0.9941406 0.4841309
vt 0.9912109 0.5195312
vt 0.9912109 0.5195312
vt 0.9541016 0.519043
vt 0.9941406 0.4841309
vt 0.956543 0.4836426
vt 0.9169922 0.4836426
vt 0.9174805 0.5209961
vt 0.9829102 0.6943359
vt 0.9462891 0.7368164
vt 0.980957 0.7363281
vt 0.9462891 0.6943359
vt 0.9853516 0.6523438
vt 0.8916016 0.7368164
vt 0.9462891 0.6513672
vt 0.987793 0.6098633
vt 0.8916016 0.6943359
vt 0.8344727 0.7368164
vt 0.8344727 0.6943359
vt 0.8916016 0.6513672
vt 0.8344727 0.6513672
vt 0.9462891 0.6098633
vt 0.8916016 0.6098633
vt 0.8344727 0.6098633
vt 0.9584961 0.5366211
vt 0.9916992 0.5356445
vt 0.9130859 0.5356445
vt 0.8720703 0.5356445
vt 0.8344727 0.5356445
vt 0.4628906 0.6943359
vt 0.5351562 0.7368164
vt 0.4628906 0.7368164
vt 0.5351562 0.6943359
vt 0.4628906 0.6513672
vt 0.5756836 0.7368164
vt 0.5351562 0.6513672
vt 0.4628906 0.6098633
vt 0.5756836 0.6943359
vt 0.6445312 0.7368164
vt 0.6445312 0.6943359
vt 0.7055664 0.7368164
vt 0.5756836 0.6513672
vt 0.5351562 0.6098633
vt 0.7055664 0.6943359
vt 0.7602539 0.7368164
vt 0.4956055 0.5356445
vt 0.4628906 0.5356445
vt 0.5351562 0.5356445
vt 0.5756836 0.6098633
vt 0.5756836 0.5356445
vt 0.6113281 0.5356445
vt 0.6445312 0.6513672
vt 0.6445312 0.6098633
vt 0.6445312 0.5356445
vt 0.6708984 0.5356445
vt 0.7055664 0.6513672
vt 0.7055664 0.6098633
vt 0.7055664 0.5356445
vt 0.7602539 0.5356445
vt 0.7602539 0.6943359
vt 0.8193359 0.7368164
vt 0.8193359 0.6943359
vt 0.7602539 0.6513672
vt 0.8193359 0.6513672
vt 0.7602539 0.6098633
vt 0.7880859 0.5356445
vt 0.8193359 0.6098633
vt 0.8193359 0.5356445
vt 0.8344727 0.6943359
vt 0.8916016 0.7368164
vt 0.8344727 0.7368164
vt 0.8916016 0.6943359
vt 0.8344727 0.6513672
vt 0.9462891 0.7368164
vt 0.8916016 0.6513672
vt 0.8344727 0.6098633
vt 0.9462891 0.6943359
vt 0.980957 0.7363281
vt 0.9829102 0.6943359
vt 0.9462891 0.6513672
vt 0.9853516 0.6523438
vt 0.8916016 0.6098633
vt 0.9462891 0.6098633
vt 0.987793 0.6098633
vt 0.8725586 0.5356445
vt 0.8344727 0.5356445
vt 0.9135742 0.5356445
vt 0.9580078 0.5366211
vt 0.9916992 0.5356445
vt 0.8334961 0.1906738
vt 0.800293 0.1416016
vt 0.8129883 0.185791
vt 0.8515625 0.1414795
vt 0.8530273 0.1052246
vt 0.7973633 0.1012573
vt 0.8271484 0.08062744
vt 0.8334961 0.1906738
vt 0.8129883 0.185791
vt 0.800293 0.1416016
vt 0.8515625 0.1414795
vt 0.8530273 0.1052246
vt 0.7973633 0.1012573
vt 0.8271484 0.08062744
vt 0.8334961 0.1906738
vt 0.8129883 0.185791
vt 0.800293 0.1416016
vt 0.8515625 0.1414795
vt 0.8530273 0.1052246
vt 0.7973633 0.1012573
vt 0.8271484 0.08062744
vt 0.8334961 0.1906738
vt 0.800293 0.1416016
vt 0.8129883 0.185791
vt 0.8515625 0.1414795
vt 0.8530273 0.1052246
vt 0.7973633 0.1012573
vt 0.8271484 0.08062744
vn 0.1494135 -0.958901 -0.2412146
vn -0.0006805716 -0.999461 -0.03282065
vn 0.2337797 -0.9585057 -0.1631372
vn 7.774425E-07 -0.9605258 -0.2781911
vn -0.0006805716 -0.999461 -0.03282065
vn 0.1494135 -0.958901 -0.2412146
vn -0.1488383 -0.9589056 -0.2415514
vn -0.0006805716 -0.999461 -0.03282065
vn 7.774425E-07 -0.9605258 -0.2781911
vn -0.2332447 -0.9587202 -0.1626424
vn -0.0006805716 -0.999461 -0.03282065
vn -0.1488383 -0.9589056 -0.2415514
vn -0.2576171 -0.9649979 -0.04911805
vn -0.0006805716 -0.999461 -0.03282065
vn -0.2332447 -0.9587202 -0.1626424
vn -0.2304835 -0.9697005 0.08098492
vn -0.0006805716 -0.999461 -0.03282065
vn -0.2576171 -0.9649979 -0.04911805
vn -0.1428884 -0.9718246 0.1874568
vn -0.0006805716 -0.999461 -0.03282065
vn -0.2304835 -0.9697005 0.08098492
vn -0.001328978 -0.9733546 0.2293015
vn -0.0006805716 -0.999461 -0.03282065
vn -0.1428884 -0.9718246 0.1874568
vn 0.1420723 -0.971886 0.1877578
vn -0.0006805716 -0.999461 -0.03282065
vn -0.001328978 -0.9733546 0.2293015
vn 0.2306642 -0.9697332 0.08007166
vn -0.0006805716 -0.999461 -0.03282065
vn 0.1420723 -0.971886 0.1877578
vn 0.2575385 -0.9648829 -0.05171896
vn -0.0006805716 -0.999461 -0.03282065
vn 0.2306642 -0.9697332 0.08007166
vn 0.2337797 -0.9585057 -0.1631372
vn -0.0006805716 -0.999461 -0.03282065
vn 0.2575385 -0.9648829 -0.05171896
vn 0.3124245 -0.8792113 -0.359692
vn 0.3892985 -0.9030573 -0.1814777
vn 0.2481207 -0.8815424 -0.4016453
vn 0.2089297 -0.9777693 -0.01776661
vn 0.5347253 -0.8433212 0.05364874
vn 0.7294174 -0.6570505 -0.1903545
vn -0.7568942 -0.5653958 -0.3277784
vn -0.436914 -0.8372239 -0.3288802
vn -0.5959212 -0.7969856 -0.09844686
vn -0.275878 -0.9469684 -0.1647484
vn -0.2775392 -0.7987725 -0.5337927
vn -0.3446379 -0.7967126 -0.4964613
vn -0.003874477 -0.3864726 0.9222928
vn 0.4561245 -0.4051448 0.7923434
vn 0.004778955 -0.4128774 0.9107741
vn 0.4503315 -0.3943259 0.8010672
vn -0.02458906 -0.3578007 0.9334742
vn 0.7474643 -0.4102226 0.5225079
vn 0.4337332 -0.3868021 0.8137934
vn -0.03708034 -0.3432521 0.9385111
vn 0.7476829 -0.3984147 0.5312587
vn 0.910117 -0.4134757 0.02692204
vn 0.9191598 -0.3921284 0.03715678
vn 0.7543859 -0.38756 0.5298105
vn 0.9370661 -0.3485068 0.02122071
vn 0.4026202 -0.3985395 0.8240529
vn 0.749556 -0.4178899 0.5133556
vn 0.9399095 -0.3413951 0.004403489
vn 0.2630991 -0.344633 0.9011143
vn -0.04220145 -0.2450734 0.9685856
vn 0.613862 -0.4117947 0.6734973
vn 0.8843696 -0.363316 0.2930732
vn 0.9997317 0.02162159 0.008302152
vn 0.9191598 -0.3921284 0.03715678
vn 0.7622789 -0.3590877 -0.5385044
vn 0.910117 -0.4134757 0.02692204
vn 0.7781898 -0.3345459 -0.5315069
vn 0.9370661 -0.3485068 0.02122071
vn 0.4130777 -0.3271719 -0.8498972
vn 0.7931757 -0.2765846 -0.5425617
vn 0.9399095 -0.3413951 0.004403489
vn 0.4270447 -0.3010634 -0.8526392
vn -0.01276382 -0.3173229 -0.9482316
vn -0.01100303 -0.29829 -0.9544119
vn -0.4385641 -0.2978477 -0.8479081
vn 0.4417341 -0.2445806 -0.8631635
vn 0.775958 -0.2045894 -0.5966845
vn -0.4492716 -0.2980308 -0.8422189
vn -0.7669441 -0.3181465 -0.5572966
vn 0.8942567 -0.2457578 -0.3740428
vn 0.9997317 0.02162159 0.008302152
vn 0.6647468 -0.02941796 -0.7464893
vn 0.4724817 -0.1962912 -0.8592036
vn 0.6846719 -0.1469866 -0.7138762
vn 0.2063247 -0.166381 -0.9642341
vn -0.005692218 -0.2456446 -0.9693432
vn 0.001853233 -0.2166219 -0.9762539
vn -0.009824925 0.07015255 -0.9974879
vn -0.2056911 -0.1709997 -0.9635612
vn -0.4521302 -0.2691305 -0.8503805
vn -0.4524134 -0.2383177 -0.8593758
vn -0.5731717 -0.1116777 -0.8117895
vn -0.6657586 -0.1971145 -0.7196606
vn -0.7753757 -0.3196754 -0.54461
vn -0.9165698 -0.3997281 0.0108253
vn -0.9222479 -0.3861297 0.01904609
vn -0.7800142 -0.3025206 -0.5477766
vn -0.9331684 -0.3594084 0.004740134
vn -0.7641617 -0.2960792 -0.5730568
vn -0.9003386 -0.3095675 -0.305873
vn -0.935299 -0.3538429 -0.003310389
vn -0.9997272 0.02183687 0.008292534
vn -0.9222479 -0.3861297 0.01904609
vn -0.7479386 -0.4042554 0.5264651
vn -0.9165698 -0.3997281 0.0108253
vn -0.7468291 -0.3839048 0.5430131
vn -0.9331684 -0.3594084 0.004740134
vn -0.4634131 -0.4018881 0.7897686
vn -0.7478941 -0.3707035 0.5506662
vn -0.935299 -0.3538429 -0.003310389
vn -0.4565791 -0.3736492 0.8074167
vn 0.004778955 -0.4128774 0.9107741
vn -0.003874477 -0.3864726 0.9222928
vn -0.4516221 -0.3525681 0.8195933
vn -0.02458906 -0.3578007 0.9334742
vn -0.7384559 -0.4170261 0.5298794
vn -0.4240745 -0.3838642 0.8202493
vn -0.03708034 -0.3432521 0.9385111
vn -0.8775737 -0.3702697 0.3045731
vn -0.9997272 0.02183687 0.008292534
vn -0.5824232 -0.4311012 0.6891553
vn -0.2931779 -0.3522269 0.8888098
vn -0.04220145 -0.2450734 0.9685856
vn -0.08630679 -0.9885094 -0.1240983
vn -0.3190785 -0.9251905 -0.2054545
vn -0.0863068 -0.9885094 -0.1240983
vn -0.2937653 -0.9353753 -0.1969135
vn -0.4802114 -0.8381375 -0.2586941
vn -0.4887277 -0.8322631 -0.2616934
vn -0.6556778 -0.6848002 -0.3180178
vn 0.3122264 -0.9345873 -0.1704734
vn 0.3122264 -0.9345873 -0.1704734
vn 0.4819353 -0.8281 -0.2863365
vn 0.4433687 -0.8578637 -0.2597963
vn 0.5396416 -0.77728 -0.3234544
vn 0.5495388 -0.7685497 -0.3276256
vn 0.6456676 -0.669614 -0.3670565
vn 0.0863068 -0.9885094 -0.1240979
vn 0.0863068 -0.9885094 -0.124098
vn 0.3190786 -0.9251904 -0.2054544
vn 0.2937654 -0.9353753 -0.1969134
vn 0.4802115 -0.8381374 -0.2586941
vn 0.4887278 -0.8322629 -0.2616935
vn 0.6556778 -0.6848002 -0.3180177
vn -0.3122264 -0.9345874 -0.1704732
vn -0.4819353 -0.8281 -0.2863365
vn -0.3122264 -0.9345874 -0.1704733
vn -0.4433687 -0.8578637 -0.2597962
vn -0.5396416 -0.77728 -0.3234544
vn -0.5495389 -0.7685497 -0.3276256
vn -0.6456678 -0.669614 -0.3670564
g bf_geo_0
f 3/3/3 2/2/2 1/1/1
f 6/6/6 5/5/5 4/4/4
f 9/9/9 8/8/8 7/7/7
f 12/12/12 11/11/11 10/10/10
f 15/15/15 14/14/14 13/13/13
f 18/18/18 17/17/17 16/16/16
f 21/21/21 20/20/20 19/19/19
f 24/24/24 23/23/23 22/22/22
f 27/27/27 26/26/26 25/25/25
f 30/30/30 29/29/29 28/28/28
f 33/33/33 32/32/32 31/31/31
f 36/36/36 35/35/35 34/34/34
f 39/39/39 38/38/38 37/37/37
f 40/40/40 38/38/38 39/39/39
f 40/40/40 41/41/41 38/38/38
f 41/41/41 42/42/42 38/38/38
f 45/45/45 44/44/44 43/43/43
f 46/46/46 44/44/44 45/45/45
f 46/46/46 47/47/47 44/44/44
f 47/47/47 48/48/48 44/44/44
f 51/51/51 50/50/50 49/49/49
f 50/50/50 52/52/52 49/49/49
f 49/49/49 52/52/52 53/53/53
f 50/50/50 54/54/54 52/52/52
f 52/52/52 55/55/55 53/53/53
f 53/53/53 55/55/55 56/56/56
f 54/54/54 57/57/57 52/52/52
f 52/52/52 57/57/57 55/55/55
f 54/54/54 58/58/58 57/57/57
f 58/58/58 59/59/59 57/57/57
f 57/57/57 59/59/59 60/60/60
f 57/57/57 60/60/60 55/55/55
f 59/59/59 61/61/61 60/60/60
f 55/55/55 62/62/62 56/56/56
f 55/55/55 60/60/60 62/62/62
f 60/60/60 61/61/61 63/63/63
f 60/60/60 63/63/63 62/62/62
f 61/61/61 64/64/64 63/63/63
f 62/62/62 65/65/65 56/56/56
f 56/56/56 65/65/65 66/66/66
f 62/62/62 67/67/67 65/65/65
f 63/63/63 67/67/67 62/62/62
f 68/68/68 67/67/67 63/63/63
f 64/64/64 68/68/68 63/63/63
f 69/69/69 68/68/68 64/64/64
f 72/72/72 71/71/71 70/70/70
f 71/71/71 73/73/73 70/70/70
f 70/70/70 73/73/73 74/74/74
f 71/71/71 75/75/75 73/73/73
f 73/73/73 76/76/76 74/74/74
f 74/74/74 76/76/76 77/77/77
f 75/75/75 78/78/78 73/73/73
f 73/73/73 78/78/78 76/76/76
f 75/75/75 79/79/79 78/78/78
f 79/79/79 80/80/80 78/78/78
f 79/79/79 81/81/81 80/80/80
f 78/78/78 82/82/82 76/76/76
f 78/78/78 80/80/80 82/82/82
f 76/76/76 83/83/83 77/77/77
f 76/76/76 82/82/82 83/83/83
f 81/81/81 84/84/84 80/80/80
f 81/81/81 85/85/85 84/84/84
f 83/83/83 86/86/86 77/77/77
f 77/77/77 86/86/86 87/87/87
f 88/88/88 86/86/86 83/83/83
f 89/89/89 88/88/88 83/83/83
f 82/82/82 89/89/89 83/83/83
f 90/90/90 88/88/88 89/89/89
f 89/89/89 91/91/91 90/90/90
f 80/80/80 92/92/92 82/82/82
f 82/82/82 92/92/92 89/89/89
f 80/80/80 84/84/84 92/92/92
f 93/93/93 91/91/91 89/89/89
f 92/92/92 93/93/93 89/89/89
f 94/94/94 91/91/91 93/93/93
f 93/93/93 95/95/95 94/94/94
f 84/84/84 96/96/96 92/92/92
f 92/92/92 96/96/96 93/93/93
f 97/97/97 95/95/95 93/93/93
f 96/96/96 97/97/97 93/93/93
f 98/98/98 95/95/95 97/97/97
f 97/97/97 99/99/99 98/98/98
f 84/84/84 100/100/100 96/96/96
f 85/85/85 100/100/100 84/84/84
f 85/85/85 101/101/101 100/100/100
f 101/101/101 102/102/102 100/100/100
f 100/100/100 103/103/103 96/96/96
f 100/100/100 102/102/102 103/103/103
f 96/96/96 103/103/103 97/97/97
f 102/102/102 104/104/104 103/103/103
f 105/105/105 99/99/99 97/97/97
f 103/103/103 105/105/105 97/97/97
f 103/103/103 104/104/104 105/105/105
f 105/105/105 106/106/106 99/99/99
f 104/104/104 107/107/107 105/105/105
f 107/107/107 106/106/106 105/105/105
f 108/108/108 106/106/106 107/107/107
f 111/111/111 110/110/110 109/109/109
f 110/110/110 112/112/112 109/109/109
f 109/109/109 112/112/112 113/113/113
f 110/110/110 114/114/114 112/112/112
f 112/112/112 115/115/115 113/113/113
f 113/113/113 115/115/115 116/116/116
f 114/114/114 117/117/117 112/112/112
f 112/112/112 117/117/117 115/115/115
f 114/114/114 118/118/118 117/117/117
f 118/118/118 119/119/119 117/117/117
f 117/117/117 119/119/119 120/120/120
f 117/117/117 120/120/120 115/115/115
f 119/119/119 121/121/121 120/120/120
f 115/115/115 122/122/122 116/116/116
f 115/115/115 120/120/120 122/122/122
f 120/120/120 121/121/121 123/123/123
f 120/120/120 123/123/123 122/122/122
f 121/121/121 124/124/124 123/123/123
f 122/122/122 125/125/125 116/116/116
f 116/116/116 125/125/125 126/126/126
f 122/122/122 127/127/127 125/125/125
f 123/123/123 127/127/127 122/122/122
f 128/128/128 127/127/127 123/123/123
f 124/124/124 128/128/128 123/123/123
f 129/129/129 128/128/128 124/124/124
f 132/132/132 131/131/131 130/130/130
f 131/131/131 133/133/133 130/130/130
f 134/134/134 133/133/133 131/131/131
f 135/135/135 134/134/134 131/131/131
f 136/136/136 134/134/134 135/135/135
f 139/139/139 138/138/138 137/137/137
f 140/140/140 139/139/139 137/137/137
f 140/140/140 141/141/141 139/139/139
f 141/141/141 142/142/142 139/139/139
f 141/141/141 143/143/143 142/142/142
f 146/146/146 145/145/145 144/144/144
f 147/147/147 146/146/146 144/144/144
f 147/147/147 148/148/148 146/146/146
f 148/148/148 149/149/149 146/146/146
f 148/148/148 150/150/150 149/149/149
f 153/153/153 152/152/152 151/151/151
f 152/152/152 154/154/154 151/151/151
f 155/155/155 154/154/154 152/152/152
f 156/156/156 155/155/155 152/152/152
f 157/157/157 155/155/155 156/156/156
