g facial_mouth_geo
v -0.05472435 0.9409497 0.07196584
v -0.03779099 0.9403185 0.07802408
v -0.05807444 0.9294149 0.07719243
v -0.07131474 0.9460373 0.06631859
v -0.07285815 0.9331109 0.06781455
v -0.08078639 0.9503899 0.06090771
v -0.08106329 0.9371549 0.05600071
v -0.09000114 0.9564811 0.04217249
v -0.08646742 0.9403571 0.03766344
v -0.0770336 0.9169198 0.04742293
v -0.08393159 0.9233946 0.02995676
v -0.07010564 0.8990026 0.03418895
v -0.07848053 0.9076466 0.01983931
v -0.07240841 0.9229473 0.06680625
v -0.05849707 0.919014 0.07688884
v -0.03955394 0.9268761 0.08621977
v -0.02047992 0.9259573 0.09482007
v -0.02077882 0.9403369 0.08542983
v -0.03805042 0.9095462 0.08601967
v -0.05683414 0.9085452 0.07525577
v -0.0704111 0.9132261 0.06301869
v -0.06671078 0.9030194 0.05743911
v -0.06646986 0.8957871 0.0233102
v -0.06850152 0.8992808 0.005448725
v -0.0556168 0.8880213 0.01556963
v -0.04518835 0.8840497 0.03703014
v -0.0384812 0.8800745 0.02848514
v -0.0232017 0.8734414 0.05243459
v -0.02028941 0.8719075 0.04283645
v -0.04995954 0.8860472 0.05126915
v -0.06240261 0.8948482 0.05103738
v -0.05300333 0.8954738 0.06661365
v -0.007934092 0.8686663 0.05881748
v -0.006052272 0.8664685 0.05037726
v -3.814701E-10 0.8653243 0.05140324
v -0.03470711 0.8980181 0.08163603
v -0.01534517 0.8973483 0.08846213
v -0.03100646 0.8889624 0.0750971
v -0.02849441 0.88125 0.06776561
v -0.02632464 0.8768597 0.06113326
v -0.009420741 0.8704513 0.06363954
v -3.86089E-10 0.8658715 0.060537
v -0.01351981 0.8863938 0.08080119
v -0.01150347 0.8764451 0.07137752
v -3.86089E-10 0.868003 0.06614436
v 0.007934091 0.8686663 0.05881748
v 0.006052271 0.8664685 0.05037726
v 0.02028941 0.8719075 0.04283645
v -3.86089E-10 0.8748236 0.07401512
v 0.00942074 0.8704513 0.06363954
v 0.0232017 0.8734414 0.05243459
v 0.0384812 0.8800745 0.02848514
v 0.01150347 0.8764451 0.07137752
v -3.86089E-10 0.8856189 0.08375821
v 0.04518835 0.8840497 0.03703014
v 0.0556168 0.8880213 0.01556963
v 0.02632464 0.8768597 0.06113326
v 0.01351981 0.8863938 0.08080119
v 0.01534517 0.8973483 0.08846213
v 0.04995954 0.8860472 0.05126915
v 0.07010564 0.8990026 0.03418895
v 0.06646986 0.8957871 0.0233102
v 0.06850152 0.8992808 0.005448725
v 0.07848053 0.9076466 0.01983931
v 0.08393159 0.9233946 0.02995676
v 0.02849441 0.88125 0.06776561
v 0.03100646 0.8889624 0.0750971
v 0.05300333 0.8954738 0.06661365
v 0.0770336 0.9169198 0.04742293
v 0.08646742 0.9403571 0.03766344
v 0.06240261 0.8948482 0.05103738
v 0.06671077 0.9030194 0.05743911
v 0.03470711 0.8980181 0.08163603
v 0.05683412 0.9085452 0.07525577
v 0.08106329 0.9371549 0.05600071
v 0.09000114 0.9564811 0.04217249
v 0.08078639 0.9503899 0.06090771
v 0.0704111 0.9132261 0.06301869
v 0.07240841 0.9229473 0.06680626
v 0.07285815 0.9331109 0.06781455
v 0.07131474 0.9460373 0.06631859
v 0.03805042 0.9095462 0.08601967
v 0.05849707 0.919014 0.07688884
v 0.05807444 0.9294149 0.07719243
v 0.05472435 0.9409497 0.07196584
v 0.03779099 0.9403185 0.07802408
v 0.03955394 0.9268761 0.08621977
v 0.02047992 0.9259573 0.09482007
v 0.02077882 0.9403369 0.08542983
v 0.01850198 0.9096817 0.09424768
v -3.86089E-10 0.9097885 0.09861221
v -3.86089E-10 0.9307592 0.1086545
v -3.86089E-10 0.9441508 0.09697572
v -3.86089E-10 0.896455 0.09136146
v -0.01850198 0.9096817 0.09424769
vt 0.1933594 0.3596191
vt 0.2104492 0.3591309
vt 0.1934814 0.3505859
vt 0.1763916 0.3640137
vt 0.1818848 0.3535156
vt 0.1625977 0.3674316
vt 0.163208 0.357666
vt 0.1419678 0.3664551
vt 0.145874 0.3464355
vt 0.1611328 0.3413086
vt 0.1491699 0.3320312
vt 0.1652832 0.3161621
vt 0.1539307 0.3166504
vt 0.1816406 0.3464355
vt 0.1954346 0.3422852
vt 0.2115479 0.3457031
vt 0.2304688 0.3452148
vt 0.2282715 0.3596191
vt 0.2155762 0.3342285
vt 0.194458 0.3334961
vt 0.1813965 0.3393555
vt 0.1793213 0.3295898
vt 0.1662598 0.3044434
vt 0.1490479 0.291748
vt 0.1801758 0.2800293
vt 0.1931152 0.2895508
vt 0.2000732 0.2727051
vt 0.2198486 0.2817383
vt 0.2253418 0.2724609
vt 0.1947021 0.3049316
vt 0.1772461 0.3200684
vt 0.1962891 0.3210449
vt 0.2370605 0.2785645
vt 0.2429199 0.2709961
vt 0.2493896 0.2705078
vt 0.2197266 0.3215332
vt 0.2365723 0.3208008
vt 0.2225342 0.3105469
vt 0.2243652 0.3017578
vt 0.2226562 0.2939453
vt 0.2402344 0.2949219
vt 0.2493896 0.2775879
vt 0.2391357 0.3093262
vt 0.2403564 0.300293
vt 0.2495117 0.293457
vt 0.2590332 0.2785645
vt 0.255127 0.2709961
vt 0.2731934 0.2729492
vt 0.2495117 0.2993164
vt 0.2583008 0.2949219
vt 0.2768555 0.2817383
vt 0.2961426 0.2727051
vt 0.2587891 0.300293
vt 0.2496338 0.3081055
vt 0.3032227 0.2895508
vt 0.3156738 0.2797852
vt 0.2753906 0.2941895
vt 0.2607422 0.3088379
vt 0.2631836 0.3203125
vt 0.3022461 0.3054199
vt 0.3317871 0.3156738
vt 0.3300781 0.3039551
vt 0.347168 0.291748
vt 0.3422852 0.3166504
vt 0.347168 0.3320312
vt 0.2741699 0.3017578
vt 0.2766113 0.3105469
vt 0.3010254 0.3208008
vt 0.3349609 0.3413086
vt 0.3503418 0.3464355
vt 0.3190918 0.3195801
vt 0.317627 0.3295898
vt 0.2797852 0.3215332
vt 0.3024902 0.3334961
vt 0.3330078 0.357666
vt 0.354248 0.3664551
vt 0.3334961 0.3674316
vt 0.315918 0.3393555
vt 0.315918 0.3464355
vt 0.315918 0.3535156
vt 0.3208008 0.3640137
vt 0.2834473 0.3339844
vt 0.3034668 0.342041
vt 0.3049316 0.3505859
vt 0.3051758 0.3596191
vt 0.2880859 0.3591309
vt 0.2873535 0.3457031
vt 0.2687988 0.3452148
vt 0.2705078 0.3596191
vt 0.2658691 0.3334961
vt 0.2496338 0.333252
vt 0.2496338 0.3520508
vt 0.2495117 0.3630371
vt 0.2497559 0.3195801
vt 0.2333984 0.3334961
vn -0.3208542 0.362977 0.8748145
vn -0.3259812 0.512623 0.794326
vn -0.3937241 0.2470997 0.8853944
vn -0.3693489 0.2643591 0.890896
vn -0.549683 0.129846 0.8252203
vn -0.8539343 -0.1073252 0.509193
vn -0.9108252 -0.2384713 0.3369404
vn -0.929671 -0.2168785 0.2977843
vn -0.9326432 -0.2711661 0.2380034
vn -0.8917043 -0.3886425 0.2319925
vn -0.8998313 -0.3706318 0.2300776
vn -0.7417792 -0.6593401 0.1226144
vn -0.8105749 -0.5736504 0.1178715
vn -0.8038633 -0.2548436 0.5374556
vn -0.5117673 -0.109962 0.8520579
vn -0.3845458 0.2935899 0.8751739
vn -0.4649259 0.2737009 0.8419808
vn -0.4355499 0.5161999 0.7374509
vn -0.4099474 -0.2311221 0.8823411
vn -0.5559745 -0.4339078 0.7089545
vn -0.7869973 -0.4273449 0.4449849
vn -0.7651911 -0.5410586 0.3489099
vn -0.5845472 -0.8111466 0.01859494
vn -0.6598107 -0.7480448 -0.07126573
vn -0.5231411 -0.850602 0.05291099
vn -0.4763525 -0.878743 0.02998595
vn -0.4718294 -0.8797148 0.05898193
vn -0.4116539 -0.9073351 0.08534648
vn -0.4270466 -0.9031664 0.043837
vn -0.4961653 -0.8534986 0.1592489
vn -0.6457667 -0.7295384 0.2252979
vn -0.5266453 -0.6756461 0.5158944
vn -0.3473486 -0.9211578 0.1755485
vn -0.3600996 -0.9237772 0.130246
vn -0 -0.9924664 0.1225174
vn -0.3710992 -0.5474912 0.7500259
vn -0.2595229 -0.5420029 0.7993003
vn -0.3541757 -0.6545474 0.6679276
vn -0.3914578 -0.7486179 0.5350999
vn -0.4120004 -0.8570282 0.3094484
vn -0.362662 -0.84742 0.387757
vn -0 -0.9774215 0.2112989
vn -0.2661829 -0.638602 0.7220347
vn -0.2915608 -0.7137397 0.6368422
vn -0 -0.8746032 0.4848394
vn 0.3473485 -0.9211579 0.1755481
vn 0.3601 -0.9237781 0.1302382
vn 0.4270466 -0.9031662 0.04383869
vn -0 -0.7065311 0.707682
vn 0.3626619 -0.84742 0.3877571
vn 0.411654 -0.907335 0.08534716
vn 0.4718292 -0.8797148 0.05898203
vn 0.2915607 -0.7137395 0.6368425
vn -0 -0.6339657 0.7733612
vn 0.4763523 -0.878743 0.02998585
vn 0.5231411 -0.8506021 0.05291025
vn 0.4120008 -0.8570292 0.309445
vn 0.2661827 -0.6386014 0.7220353
vn 0.2595225 -0.5420017 0.7993011
vn 0.4961652 -0.8534986 0.1592493
vn 0.741779 -0.6593401 0.1226147
vn 0.5845471 -0.8111466 0.01859542
vn 0.659811 -0.7480448 -0.07126293
vn 0.8105748 -0.5736502 0.1178727
vn 0.8998314 -0.3706318 0.2300772
vn 0.3914582 -0.7486187 0.5350986
vn 0.3541759 -0.6545478 0.667927
vn 0.5266455 -0.675646 0.5158944
vn 0.8917041 -0.3886425 0.2319929
vn 0.932643 -0.271166 0.2380044
vn 0.6457665 -0.7295378 0.2253002
vn 0.7651904 -0.5410583 0.3489119
vn 0.3710997 -0.5474921 0.7500249
vn 0.5559745 -0.4339077 0.7089545
vn 0.9108249 -0.2384711 0.3369416
vn 0.9296706 -0.2168783 0.2977856
vn 0.8539342 -0.1073252 0.5091931
vn 0.7869958 -0.4273452 0.4449874
vn 0.803863 -0.2548431 0.5374563
vn 0.549683 0.129846 0.8252203
vn 0.3693487 0.2643589 0.8908962
vn 0.4099477 -0.2311224 0.8823408
vn 0.5117678 -0.1099623 0.8520575
vn 0.3937243 0.2470999 0.8853941
vn 0.3208548 0.362978 0.8748139
vn 0.3259811 0.5126228 0.7943262
vn 0.3845456 0.2935898 0.8751742
vn 0.4649265 0.2737011 0.8419805
vn 0.43555 0.5161999 0.737451
vn 0.3012497 -0.2557403 0.9186106
vn -0 -0.3804658 0.9247951
vn 2.355368E-07 0.2629567 0.9648077
vn 2.066494E-07 0.6001785 0.799866
vn -0 -0.5439599 0.8391112
vn -0.3012505 -0.2557414 0.91861
g facial_mouth_geo_0
f 3/3/3 2/2/2 1/1/1
f 1/1/1 4/4/4 3/3/3
f 4/4/4 5/5/5 3/3/3
f 4/4/4 6/6/6 5/5/5
f 6/6/6 7/7/7 5/5/5
f 7/7/7 6/6/6 8/8/8
f 9/9/9 7/7/7 8/8/8
f 10/10/10 7/7/7 9/9/9
f 9/9/9 11/11/11 10/10/10
f 10/10/10 11/11/11 12/12/12
f 13/13/13 12/12/12 11/11/11
f 14/14/14 5/5/5 7/7/7
f 14/14/14 7/7/7 10/10/10
f 3/3/3 5/5/5 15/15/15
f 15/15/15 5/5/5 14/14/14
f 16/16/16 2/2/2 3/3/3
f 15/15/15 16/16/16 3/3/3
f 2/2/2 16/16/16 17/17/17
f 18/18/18 2/2/2 17/17/17
f 16/16/16 15/15/15 19/19/19
f 19/19/19 17/17/17 16/16/16
f 20/20/20 15/15/15 14/14/14
f 15/15/15 20/20/20 19/19/19
f 10/10/10 21/21/21 14/14/14
f 14/14/14 21/21/21 20/20/20
f 10/10/10 22/22/22 21/21/21
f 12/12/12 22/22/22 10/10/10
f 20/20/20 21/21/21 22/22/22
f 13/13/13 23/23/23 12/12/12
f 13/13/13 24/24/24 23/23/23
f 24/24/24 25/25/25 23/23/23
f 23/23/23 25/25/25 26/26/26
f 23/23/23 26/26/26 12/12/12
f 25/25/25 27/27/27 26/26/26
f 26/26/26 27/27/27 28/28/28
f 27/27/27 29/29/29 28/28/28
f 30/30/30 12/12/12 26/26/26
f 28/28/28 30/30/30 26/26/26
f 22/22/22 12/12/12 31/31/31
f 31/31/31 12/12/12 30/30/30
f 32/32/32 22/22/22 31/31/31
f 32/32/32 20/20/20 22/22/22
f 32/32/32 31/31/31 30/30/30
f 29/29/29 33/33/33 28/28/28
f 34/34/34 33/33/33 29/29/29
f 33/33/33 34/34/34 35/35/35
f 20/20/20 32/32/32 36/36/36
f 19/19/19 20/20/20 36/36/36
f 36/36/36 37/37/37 19/19/19
f 36/36/36 32/32/32 38/38/38
f 36/36/36 38/38/38 37/37/37
f 39/39/39 32/32/32 30/30/30
f 38/38/38 32/32/32 39/39/39
f 30/30/30 28/28/28 40/40/40
f 39/39/39 30/30/30 40/40/40
f 28/28/28 33/33/33 41/41/41
f 28/28/28 41/41/41 40/40/40
f 42/42/42 33/33/33 35/35/35
f 41/41/41 33/33/33 42/42/42
f 43/43/43 38/38/38 39/39/39
f 38/38/38 43/43/43 37/37/37
f 39/39/39 40/40/40 44/44/44
f 44/44/44 40/40/40 41/41/41
f 44/44/44 43/43/43 39/39/39
f 45/45/45 44/44/44 41/41/41
f 45/45/45 41/41/41 42/42/42
f 46/46/46 42/42/42 35/35/35
f 47/47/47 46/46/46 35/35/35
f 46/46/46 47/47/47 48/48/48
f 43/43/43 44/44/44 49/49/49
f 49/49/49 44/44/44 45/45/45
f 50/50/50 45/45/45 42/42/42
f 46/46/46 50/50/50 42/42/42
f 46/46/46 48/48/48 51/51/51
f 46/46/46 51/51/51 50/50/50
f 48/48/48 52/52/52 51/51/51
f 53/53/53 45/45/45 50/50/50
f 53/53/53 49/49/49 45/45/45
f 54/54/54 43/43/43 49/49/49
f 37/37/37 43/43/43 54/54/54
f 52/52/52 55/55/55 51/51/51
f 52/52/52 56/56/56 55/55/55
f 50/50/50 51/51/51 57/57/57
f 57/57/57 53/53/53 50/50/50
f 53/53/53 58/58/58 49/49/49
f 58/58/58 54/54/54 49/49/49
f 58/58/58 59/59/59 54/54/54
f 51/51/51 60/60/60 57/57/57
f 60/60/60 51/51/51 55/55/55
f 61/61/61 60/60/60 55/55/55
f 56/56/56 62/62/62 55/55/55
f 55/55/55 62/62/62 61/61/61
f 56/56/56 63/63/63 62/62/62
f 63/63/63 64/64/64 62/62/62
f 61/61/61 62/62/62 64/64/64
f 61/61/61 64/64/64 65/65/65
f 57/57/57 66/66/66 53/53/53
f 58/58/58 53/53/53 66/66/66
f 60/60/60 66/66/66 57/57/57
f 67/67/67 58/58/58 66/66/66
f 58/58/58 67/67/67 59/59/59
f 68/68/68 66/66/66 60/60/60
f 68/68/68 67/67/67 66/66/66
f 65/65/65 69/69/69 61/61/61
f 65/65/65 70/70/70 69/69/69
f 61/61/61 71/71/71 60/60/60
f 71/71/71 68/68/68 60/60/60
f 61/61/61 72/72/72 71/71/71
f 72/72/72 61/61/61 69/69/69
f 72/72/72 68/68/68 71/71/71
f 68/68/68 73/73/73 67/67/67
f 67/67/67 73/73/73 59/59/59
f 72/72/72 74/74/74 68/68/68
f 68/68/68 74/74/74 73/73/73
f 75/75/75 69/69/69 70/70/70
f 75/75/75 70/70/70 76/76/76
f 77/77/77 75/75/75 76/76/76
f 72/72/72 69/69/69 78/78/78
f 72/72/72 78/78/78 74/74/74
f 79/79/79 78/78/78 69/69/69
f 69/69/69 75/75/75 79/79/79
f 74/74/74 78/78/78 79/79/79
f 75/75/75 77/77/77 80/80/80
f 75/75/75 80/80/80 79/79/79
f 77/77/77 81/81/81 80/80/80
f 74/74/74 82/82/82 73/73/73
f 59/59/59 73/73/73 82/82/82
f 79/79/79 83/83/83 74/74/74
f 79/79/79 80/80/80 83/83/83
f 74/74/74 83/83/83 82/82/82
f 80/80/80 81/81/81 84/84/84
f 80/80/80 84/84/84 83/83/83
f 81/81/81 85/85/85 84/84/84
f 86/86/86 84/84/84 85/85/85
f 87/87/87 83/83/83 84/84/84
f 86/86/86 87/87/87 84/84/84
f 83/83/83 87/87/87 82/82/82
f 87/87/87 86/86/86 88/88/88
f 88/88/88 82/82/82 87/87/87
f 86/86/86 89/89/89 88/88/88
f 82/82/82 90/90/90 59/59/59
f 88/88/88 90/90/90 82/82/82
f 90/90/90 91/91/91 59/59/59
f 88/88/88 91/91/91 90/90/90
f 92/92/92 88/88/88 89/89/89
f 88/88/88 92/92/92 91/91/91
f 93/93/93 92/92/92 89/89/89
f 92/92/92 93/93/93 18/18/18
f 17/17/17 92/92/92 18/18/18
f 92/92/92 17/17/17 91/91/91
f 94/94/94 59/59/59 91/91/91
f 59/59/59 94/94/94 54/54/54
f 94/94/94 37/37/37 54/54/54
f 37/37/37 94/94/94 91/91/91
f 91/91/91 17/17/17 95/95/95
f 91/91/91 95/95/95 37/37/37
f 95/95/95 17/17/17 19/19/19
f 95/95/95 19/19/19 37/37/37
