g facial_eye_geo
v 0.09314137 0.9721278 0.04483851
v 0.09000114 0.9564811 0.04217249
v 0.08078639 0.9503899 0.06090771
v 0.08354498 0.9659836 0.05970037
v 0.09657481 0.9990433 0.04670654
v 0.07131474 0.9460373 0.06631861
v 0.08726622 0.9933961 0.06206609
v 0.07622564 0.9636386 0.06579099
v 0.06161225 0.9636385 0.0713875
v 0.05472435 0.9409497 0.07196584
v 0.03779099 0.9403186 0.07802408
v 0.06652711 0.9815649 0.07310962
v 0.09355809 1.023683 0.06943243
v 0.1009675 1.02731 0.04319264
v 0.09440818 1.04311 0.07057723
v 0.07270139 1.021336 0.08526193
v 0.03953813 0.9636385 0.07855017
v 0.01793562 0.9636386 0.08055918
v 0.02077882 0.9403369 0.08542983
v -3.86089E-10 0.9537101 0.09371958
v -3.86089E-10 0.9441508 0.09697572
v -0.02077882 0.9403369 0.08542983
v -0.01793562 0.9636386 0.08055918
v -0.03779099 0.9403186 0.07802408
v -3.86089E-10 0.9675786 0.09463624
v 0.01615314 0.9794675 0.08222222
v -3.86089E-10 0.9848772 0.0992806
v 0.03937103 0.9864096 0.08243145
v 0.04247549 0.9986969 0.08833519
v -0.01615314 0.9794675 0.08222222
v -0.03953813 0.9636385 0.07855017
v 0.01793908 0.9960135 0.09567324
v 0.04812989 1.01778 0.09487242
v -0.06161225 0.9636385 0.0713875
v -0.05472435 0.9409497 0.07196584
v -0.07131474 0.9460373 0.06631861
v 0.02172578 1.010819 0.1008826
v 0.07579909 1.045989 0.08887857
v 0.07284234 1.068456 0.08661026
v 0.09419835 1.068296 0.07002524
v 0.05011842 1.067568 0.09957281
v 0.04992581 1.042748 0.1006802
v 0.02526257 1.038334 0.1048634
v -3.86089E-10 1.033263 0.1064697
v 0.02415157 1.064207 0.1039999
v -3.86089E-10 1.061725 0.1056925
v -0.02415157 1.064207 0.1039999
v -3.86089E-10 1.004775 0.1032342
v -0.02526257 1.038334 0.1048634
v -0.05011842 1.067568 0.09957281
v -0.02172578 1.010819 0.1008826
v -0.04992581 1.042748 0.1006802
v -0.01793909 0.9960135 0.09567324
v -0.07579909 1.045989 0.08887857
v -0.07284234 1.068456 0.08661026
v -0.04812989 1.01778 0.09487242
v -0.0424755 0.9986969 0.08833519
v -0.09440818 1.04311 0.07057723
v -0.09419835 1.068296 0.07002524
v -0.07270139 1.021336 0.08526193
v -0.03937103 0.9864096 0.08243145
v -0.06652711 0.9815649 0.07310962
v -0.09355809 1.023683 0.06943243
v -0.1009675 1.028385 0.0427235
v -0.09657481 0.9990433 0.04670654
v -0.08726622 0.9933961 0.06206609
v -0.07622564 0.9636386 0.06579099
v -0.08354498 0.9659836 0.05970037
v -0.09314137 0.9721278 0.04483851
v -0.08078639 0.9503899 0.06090771
v -0.09000114 0.9564811 0.04217249
vt 0.3515625 0.3886719
vt 0.355957 0.3664551
vt 0.3352051 0.3669434
vt 0.3376465 0.3837891
vt 0.3571777 0.4125977
vt 0.3242188 0.3640137
vt 0.3400879 0.4099121
vt 0.3271484 0.3808594
vt 0.314209 0.3803711
vt 0.3093262 0.3591309
vt 0.2929688 0.3591309
vt 0.3168945 0.3969727
vt 0.3400879 0.4343262
vt 0.3623047 0.4387207
vt 0.3405762 0.4511719
vt 0.3183594 0.4343262
vt 0.2890625 0.3793945
vt 0.2680664 0.3791504
vt 0.2727051 0.362793
vt 0.2512207 0.3708496
vt 0.2512207 0.3623047
vt 0.2282715 0.362793
vt 0.234375 0.3791504
vt 0.2087402 0.3588867
vt 0.2512207 0.3828125
vt 0.2675781 0.3935547
vt 0.2512207 0.3996582
vt 0.2895508 0.4006348
vt 0.291748 0.4121094
vt 0.2347412 0.3935547
vt 0.2128906 0.3793945
vt 0.2685547 0.409668
vt 0.2956543 0.4309082
vt 0.1865234 0.3803711
vt 0.1915283 0.3591309
vt 0.1757812 0.3640137
vt 0.2712402 0.4240723
vt 0.317627 0.4543457
vt 0.3149414 0.4741211
vt 0.3393555 0.4729004
vt 0.2929688 0.4729004
vt 0.2941895 0.4519043
vt 0.270752 0.4477539
vt 0.2509766 0.4445801
vt 0.2697754 0.4707031
vt 0.2509766 0.4685059
vt 0.2294922 0.4707031
vt 0.2512207 0.418457
vt 0.2283936 0.4477539
vt 0.2061768 0.4729004
vt 0.2312012 0.4240723
vt 0.2049561 0.4519043
vt 0.2338867 0.409668
vt 0.1816406 0.4543457
vt 0.1844482 0.4741211
vt 0.2067871 0.4309082
vt 0.2103271 0.4121094
vt 0.1588135 0.4511719
vt 0.1599121 0.4729004
vt 0.1842041 0.4343262
vt 0.2124023 0.4006348
vt 0.1842041 0.3969727
vt 0.1591797 0.4343262
vt 0.1368408 0.4387207
vt 0.1422119 0.4125977
vt 0.1591797 0.4099121
vt 0.1727295 0.3806152
vt 0.1617432 0.3837891
vt 0.1477051 0.3886719
vt 0.1644287 0.3669434
vt 0.1434326 0.3664551
vn 0.8705975 -0.1636122 0.4639946
vn 0.8846108 -0.1869801 0.4272028
vn 0.7610148 -0.1453525 0.6322412
vn 0.8148891 -0.1631165 0.5561913
vn 0.9039261 -0.187018 0.3846322
vn 0.394051 -0.08010808 0.9155908
vn 0.7152353 -0.254065 0.6510679
vn 0.4775797 -0.1021358 0.8726317
vn 0.3219644 -0.1170496 0.9394884
vn 0.3286549 -0.06381603 0.9422916
vn 0.2955023 -0.0005840793 0.9553418
vn 0.405561 -0.2366804 0.8828945
vn 0.777863 -0.1806273 0.6019162
vn 0.9609545 -0.101887 0.2572654
vn 0.7079945 -0.03279305 0.7054561
vn 0.4980991 -0.2411229 0.8329208
vn 0.2184229 -0.1100219 0.9696322
vn 0.279257 -0.007952699 0.9601834
vn 0.4368823 0.2379373 0.8674789
vn 1.326651E-07 0.1856305 0.9826196
vn -1.451008E-07 0.3224403 0.9465898
vn -0.4368835 0.237938 0.8674781
vn -0.2792563 -0.007952594 0.9601837
vn -0.2955037 -0.000584199 0.9553414
vn 3.189095E-07 -0.1327928 0.9911438
vn 0.2991878 -0.2850988 0.9106071
vn -3.551626E-07 -0.3999646 0.9165306
vn 0.1899167 -0.2596595 0.9468414
vn 0.3031755 -0.402062 0.8639622
vn -0.2991874 -0.2850983 0.9106074
vn -0.2184232 -0.1100219 0.9696322
vn 0.3637151 -0.5108218 0.7789559
vn 0.3242081 -0.2546063 0.9110789
vn -0.3219648 -0.1170499 0.9394882
vn -0.328656 -0.06381625 0.9422912
vn -0.3940513 -0.08010817 0.9155907
vn 0.1906106 -0.2032906 0.9603856
vn 0.5472885 -0.03431423 0.8362403
vn 0.5532483 0.08959147 0.8281846
vn 0.6588552 0.0879987 0.7471052
vn 0.3164786 0.06777934 0.946175
vn 0.3140402 -0.07294095 0.9466036
vn 0.1478826 -0.06996773 0.9865269
vn -0 -0.06107985 0.9981329
vn 0.1132638 0.03652408 0.9928934
vn -1.030156E-07 0.03144845 0.9995054
vn -0.1132641 0.03652414 0.9928933
vn -0 -0.1540428 0.9880642
vn -0.1478826 -0.06996768 0.9865269
vn -0.3164794 0.06777956 0.9461748
vn -0.1906103 -0.2032902 0.9603857
vn -0.3140408 -0.07294095 0.9466034
vn -0.3637153 -0.5108218 0.778956
vn -0.5472887 -0.03431424 0.8362402
vn -0.5532487 0.08959161 0.8281844
vn -0.3242076 -0.2546057 0.9110792
vn -0.3031752 -0.4020616 0.8639625
vn -0.7109061 -0.03296649 0.7025138
vn -0.6588553 0.08799871 0.7471049
vn -0.498099 -0.2411228 0.8329209
vn -0.1899166 -0.2596592 0.9468415
vn -0.4055615 -0.2366806 0.8828942
vn -0.7821921 -0.1790932 0.5967421
vn -0.9633545 -0.09655745 0.2502494
vn -0.9067042 -0.1833222 0.3798427
vn -0.7152355 -0.254065 0.6510677
vn -0.4775805 -0.1021359 0.8726311
vn -0.8148891 -0.1631166 0.5561912
vn -0.8705974 -0.1636121 0.4639948
vn -0.7610148 -0.1453523 0.6322414
vn -0.8846105 -0.18698 0.4272034
g facial_eye_geo_0
f 3/3/3 2/2/2 1/1/1
f 4/4/4 3/3/3 1/1/1
f 1/1/1 5/5/5 4/4/4
f 6/6/6 3/3/3 4/4/4
f 5/5/5 7/7/7 4/4/4
f 8/8/8 6/6/6 4/4/4
f 7/7/7 8/8/8 4/4/4
f 8/8/8 9/9/9 6/6/6
f 9/9/9 10/10/10 6/6/6
f 11/11/11 10/10/10 9/9/9
f 12/12/12 9/9/9 8/8/8
f 8/8/8 7/7/7 12/12/12
f 5/5/5 13/13/13 7/7/7
f 14/14/14 13/13/13 5/5/5
f 14/14/14 15/15/15 13/13/13
f 16/16/16 7/7/7 13/13/13
f 16/16/16 12/12/12 7/7/7
f 16/16/16 13/13/13 15/15/15
f 17/17/17 11/11/11 9/9/9
f 17/17/17 9/9/9 12/12/12
f 11/11/11 17/17/17 18/18/18
f 19/19/19 11/11/11 18/18/18
f 20/20/20 19/19/19 18/18/18
f 20/20/20 21/21/21 19/19/19
f 22/22/22 21/21/21 20/20/20
f 22/22/22 20/20/20 23/23/23
f 24/24/24 22/22/22 23/23/23
f 25/25/25 20/20/20 18/18/18
f 20/20/20 25/25/25 23/23/23
f 18/18/18 17/17/17 26/26/26
f 25/25/25 18/18/18 26/26/26
f 26/26/26 27/27/27 25/25/25
f 28/28/28 17/17/17 12/12/12
f 17/17/17 28/28/28 26/26/26
f 28/28/28 12/12/12 29/29/29
f 26/26/26 28/28/28 29/29/29
f 29/29/29 12/12/12 16/16/16
f 23/23/23 25/25/25 30/30/30
f 27/27/27 30/30/30 25/25/25
f 31/31/31 24/24/24 23/23/23
f 31/31/31 23/23/23 30/30/30
f 26/26/26 29/29/29 32/32/32
f 26/26/26 32/32/32 27/27/27
f 16/16/16 33/33/33 29/29/29
f 32/32/32 29/29/29 33/33/33
f 24/24/24 31/31/31 34/34/34
f 35/35/35 24/24/24 34/34/34
f 35/35/35 34/34/34 36/36/36
f 27/27/27 32/32/32 37/37/37
f 33/33/33 37/37/37 32/32/32
f 33/33/33 16/16/16 38/38/38
f 38/38/38 16/16/16 15/15/15
f 38/38/38 15/15/15 39/39/39
f 15/15/15 40/40/40 39/39/39
f 38/38/38 39/39/39 41/41/41
f 42/42/42 33/33/33 38/38/38
f 42/42/42 38/38/38 41/41/41
f 37/37/37 33/33/33 42/42/42
f 43/43/43 42/42/42 41/41/41
f 43/43/43 37/37/37 42/42/42
f 43/43/43 44/44/44 37/37/37
f 45/45/45 43/43/43 41/41/41
f 43/43/43 45/45/45 44/44/44
f 45/45/45 46/46/46 44/44/44
f 46/46/46 47/47/47 44/44/44
f 37/37/37 48/48/48 27/27/27
f 44/44/44 48/48/48 37/37/37
f 47/47/47 49/49/49 44/44/44
f 49/49/49 47/47/47 50/50/50
f 48/48/48 44/44/44 51/51/51
f 48/48/48 51/51/51 27/27/27
f 44/44/44 49/49/49 51/51/51
f 52/52/52 49/49/49 50/50/50
f 51/51/51 49/49/49 52/52/52
f 53/53/53 27/27/27 51/51/51
f 53/53/53 30/30/30 27/27/27
f 54/54/54 52/52/52 50/50/50
f 55/55/55 54/54/54 50/50/50
f 56/56/56 51/51/51 52/52/52
f 51/51/51 56/56/56 53/53/53
f 56/56/56 52/52/52 54/54/54
f 57/57/57 30/30/30 53/53/53
f 57/57/57 53/53/53 56/56/56
f 58/58/58 54/54/54 55/55/55
f 59/59/59 58/58/58 55/55/55
f 60/60/60 56/56/56 54/54/54
f 60/60/60 54/54/54 58/58/58
f 56/56/56 60/60/60 57/57/57
f 61/61/61 30/30/30 57/57/57
f 61/61/61 31/31/31 30/30/30
f 62/62/62 61/61/61 57/57/57
f 31/31/31 61/61/61 62/62/62
f 62/62/62 57/57/57 60/60/60
f 34/34/34 31/31/31 62/62/62
f 63/63/63 60/60/60 58/58/58
f 58/58/58 64/64/64 63/63/63
f 63/63/63 64/64/64 65/65/65
f 66/66/66 60/60/60 63/63/63
f 62/62/62 60/60/60 66/66/66
f 63/63/63 65/65/65 66/66/66
f 34/34/34 62/62/62 67/67/67
f 66/66/66 67/67/67 62/62/62
f 34/34/34 67/67/67 36/36/36
f 66/66/66 65/65/65 68/68/68
f 67/67/67 66/66/66 68/68/68
f 36/36/36 67/67/67 68/68/68
f 65/65/65 69/69/69 68/68/68
f 70/70/70 36/36/36 68/68/68
f 70/70/70 68/68/68 69/69/69
f 71/71/71 70/70/70 69/69/69
