g facial_eye_geo
v -0.09375206 1.354829 0.07241866
v -0.08404789 1.323153 0.08789583
v -0.09009361 1.329188 0.07150345
v -0.08352561 1.345826 0.09102186
v -0.09201298 1.375071 0.07356839
v -0.08370091 1.36943 0.09406938
v -0.06811893 1.315931 0.1093678
v -0.09201286 1.404845 0.07630935
v -0.06888027 1.339468 0.1083019
v -0.05102548 1.314322 0.1156278
v -0.08485112 1.399762 0.09706291
v -0.08203511 1.423105 0.1009659
v -0.08829758 1.426138 0.0842331
v -0.08053812 1.442387 0.09806157
v -0.07077961 1.421738 0.117099
v -0.06944167 1.443543 0.1120779
v -0.04946339 1.443934 0.1260361
v -0.0731506 1.398019 0.1169587
v -0.04773564 1.42006 0.1306532
v -0.07341581 1.375389 0.1165329
v -0.0230967 1.418056 0.1363873
v -0.02194804 1.442218 0.1338574
v -0.04699388 1.397889 0.1289049
v -0 1.414388 0.1384866
v -0 1.438245 0.1360294
v 0.0230967 1.418056 0.1363873
v 0.02194804 1.442218 0.1338574
v 0.04773564 1.42006 0.1306532
v 0.04946339 1.443934 0.1260361
v 0.06944165 1.443543 0.1120779
v -0.06938171 1.367294 0.1093958
v -0.04606761 1.376657 0.1227537
v -0.02304172 1.395451 0.132415
v -0.01152086 1.396407 0.1347771
v -0.06750835 1.352501 0.1072501
v -0.04724794 1.346695 0.1146529
v -0.0449356 1.367011 0.1158661
v -0.02298674 1.37483 0.1271327
v -0.01149337 1.3755 0.1303429
v -0 1.396971 0.1359292
v -0.02338157 1.36407 0.1162527
v 0.01152086 1.396407 0.1347771
v -0.01124764 1.365864 0.1250508
v -0 1.376639 0.1314795
v -0.02113421 1.354237 0.1169991
v -0.01917506 1.330796 0.1175097
v -0.04903383 1.335464 0.1155173
v -0.03746716 1.309875 0.1124557
v -0.03357967 1.308873 0.1125031
v -0.02469434 1.307229 0.1150677
v -0.01823629 1.311767 0.1239539
v -0.0179231 1.30803 0.1248758
v -0.009449254 1.31109 0.1345696
v -0.00966916 1.305578 0.1333986
v -0.009118563 1.323776 0.130279
v -0.008787872 1.339754 0.1290438
v -0.01020809 1.35719 0.1285399
v -0 1.310457 0.1423266
v -0 1.30412 0.1417296
v -0 1.323908 0.1368383
v -0 1.36656 0.1264799
v -0 1.357608 0.1315577
v -0 1.340047 0.1342018
v 0.009449254 1.31109 0.1345696
v 0.00966916 1.305578 0.1333986
v 0.01124764 1.365863 0.1250508
v 0.009118563 1.323776 0.1302774
v 0.01823629 1.311763 0.1239539
v 0.0179231 1.308026 0.1248758
v 0.02469434 1.307229 0.1150677
v 0.01917506 1.330796 0.1175096
v 0.03357967 1.308873 0.1125031
v 0.03746716 1.309875 0.1124557
v 0.05102548 1.314322 0.1156278
v 0.008787872 1.339754 0.1290437
v 0.01020809 1.35719 0.1285399
v 0.04903383 1.335464 0.1155173
v 0.06811893 1.315931 0.1093678
v 0.02113421 1.354237 0.1169991
v 0.06888027 1.339468 0.1083019
v 0.08404789 1.323163 0.08789583
v 0.08352561 1.345825 0.09102186
v 0.09009361 1.329188 0.07150345
v 0.09374829 1.354829 0.07241866
v 0.06750835 1.352501 0.1072501
v 0.08370087 1.36943 0.09406938
v 0.09201285 1.375071 0.07356839
v 0.04724794 1.346695 0.1146529
v 0.02338157 1.36407 0.1162526
v 0.06938171 1.367294 0.1093958
v 0.08485089 1.399762 0.09706289
v 0.09201264 1.404845 0.07630935
v 0.01149337 1.3755 0.1303465
v 0.0449356 1.367011 0.1158661
v 0.02298674 1.37483 0.1271327
v 0.07341581 1.375389 0.1165329
v 0.04606761 1.376657 0.1227537
v 0.02304172 1.395451 0.132415
v 0.04699388 1.397889 0.1289049
v 0.07315044 1.39802 0.1169587
v 0.07077959 1.421738 0.117099
v 0.08203507 1.423105 0.1009659
v 0.08053812 1.442387 0.09806157
v 0.08829759 1.426133 0.08423309
vt 0.1750488 0.3952637
vt 0.19104 0.380127
vt 0.1793213 0.3798828
vt 0.1899414 0.3942871
vt 0.1733398 0.4089355
vt 0.1868896 0.4123535
vt 0.2087402 0.3798828
vt 0.1712646 0.4287109
vt 0.2053223 0.3933105
vt 0.2193604 0.3818359
vt 0.1846924 0.4289551
vt 0.1868896 0.4438477
vt 0.1757812 0.4445801
vt 0.1850586 0.4572754
vt 0.1993408 0.4462891
vt 0.1962891 0.4611816
vt 0.2124023 0.4628906
vt 0.1999512 0.4318848
vt 0.217041 0.4460449
vt 0.2019043 0.4196777
vt 0.2341309 0.4453125
vt 0.2310791 0.4616699
vt 0.21875 0.4326172
vt 0.2496338 0.4445801
vt 0.2496338 0.4641113
vt 0.2651367 0.4453125
vt 0.2680664 0.4616699
vt 0.2822266 0.4460449
vt 0.2868652 0.4628906
vt 0.3029785 0.4611816
vt 0.2019043 0.4116211
vt 0.2203369 0.416748
vt 0.2344971 0.4306641
vt 0.2420654 0.4316406
vt 0.2038574 0.4020996
vt 0.2176514 0.4001465
vt 0.2189941 0.4118652
vt 0.2348633 0.4143066
vt 0.2421875 0.4160156
vt 0.2496338 0.4321289
vt 0.2313232 0.4084473
vt 0.2570801 0.4316406
vt 0.2420654 0.4111328
vt 0.2496338 0.4169922
vt 0.2331543 0.4047852
vt 0.2349854 0.3952637
vt 0.2177734 0.3942871
vt 0.2271729 0.3806152
vt 0.2287598 0.3798828
vt 0.2332764 0.378418
vt 0.2382812 0.3833008
vt 0.2387695 0.3798828
vt 0.2452393 0.3864746
vt 0.2462158 0.3828125
vt 0.2445068 0.3930664
vt 0.2437744 0.3996582
vt 0.2429199 0.4077148
vt 0.2496338 0.3876953
vt 0.2496338 0.3850098
vt 0.2496338 0.3935547
vt 0.2496338 0.4121094
vt 0.2496338 0.4082031
vt 0.2496338 0.3994141
vt 0.2539062 0.3864746
vt 0.2529297 0.3828125
vt 0.2570801 0.4111328
vt 0.2546387 0.3930664
vt 0.2609863 0.3833008
vt 0.260498 0.3798828
vt 0.2658691 0.378418
vt 0.2641602 0.3952637
vt 0.2705078 0.3798828
vt 0.2719727 0.3806152
vt 0.2797852 0.3818359
vt 0.2553711 0.3996582
vt 0.2563477 0.4077148
vt 0.2814941 0.3942871
vt 0.2905273 0.3798828
vt 0.2661133 0.4047852
vt 0.2939453 0.3933105
vt 0.3081055 0.380127
vt 0.309082 0.3942871
vt 0.3198242 0.3798828
vt 0.3242188 0.3952637
vt 0.2954102 0.4020996
vt 0.3122559 0.4123535
vt 0.3256836 0.4089355
vt 0.2814941 0.4001465
vt 0.2678223 0.4084473
vt 0.2973633 0.4116211
vt 0.3144531 0.4289551
vt 0.3278809 0.4287109
vt 0.2570801 0.4160156
vt 0.2802734 0.4118652
vt 0.2644043 0.4143066
vt 0.2971191 0.4196777
vt 0.2788086 0.416748
vt 0.2646484 0.4306641
vt 0.2805176 0.4326172
vt 0.2990723 0.4318848
vt 0.2998047 0.4462891
vt 0.3122559 0.4438477
vt 0.314209 0.4572754
vt 0.3234863 0.4445801
vn -0.9765924 0.03886261 0.2115589
vn -0.8958755 -0.2029056 0.3952676
vn -0.9480684 -0.2477336 0.1994852
vn -0.8702676 0.06483041 0.4882944
vn -0.9758736 0.1189832 0.1830674
vn -0.8858025 -0.0170003 0.463751
vn -0.693347 -0.1065586 0.7126818
vn -0.9649039 0.1137426 0.236692
vn -0.5806627 0.1686538 0.7964839
vn -0.1345509 0.01947499 0.9907153
vn -0.9230725 0.2076897 0.3237315
vn -0.921448 0.1458979 0.3600659
vn -0.9380233 0.06206527 0.3409696
vn -0.9208691 0.1100394 0.3740207
vn -0.7130767 0.205336 0.6703423
vn -0.7457459 0.2451568 0.6194845
vn -0.4522684 0.2766933 0.8478763
vn -0.6930524 0.1586571 0.7032114
vn -0.3712963 0.1960711 0.9075765
vn -0.7464699 -0.1303438 0.6525283
vn -0.1639005 0.1586471 0.9736363
vn -0.1717073 0.2557679 0.9513671
vn -0.3170164 0.1101087 0.9420068
vn -0 0.1659843 0.9861284
vn -0 0.2379128 0.9712865
vn 0.1639005 0.1586471 0.9736363
vn 0.1717073 0.255768 0.9513671
vn 0.3712963 0.1960712 0.9075765
vn 0.4522683 0.2766933 0.8478763
vn 0.7457459 0.2451569 0.6194845
vn -0.5637587 -0.2472566 0.7880611
vn -0.3895236 -0.3255552 0.8615597
vn -0.21308 0.09842436 0.9720647
vn -0.1305652 0.121094 0.9840168
vn -0.5735925 0.1210225 0.8101514
vn -0.2315875 0.1165779 0.9658037
vn -0.3350971 -0.4239012 0.8414379
vn -0.2881183 -0.4114398 0.8646994
vn -0.1336265 -0.2103692 0.9684465
vn -0 0.1277167 0.9918107
vn -0.2878518 -0.3328838 0.8979587
vn 0.1305652 0.121094 0.9840168
vn -0.3079191 -0.2033592 0.929425
vn -0 -0.2014818 0.9794923
vn -0.479305 0.06366145 0.8753365
vn -0.4296786 0.1137077 0.895794
vn -0.2216634 0.2324785 0.9470053
vn 0.07796136 -0.1715402 0.9820876
vn -0.1328963 -0.03798511 0.9904018
vn -0.5384641 0.04921698 0.8412099
vn -0.8366272 0.1285983 0.5324635
vn -0.7882653 -0.230784 0.5704178
vn -0.7443413 0.2274588 0.6278684
vn -0.7138031 -0.2907151 0.6371576
vn -0.7027487 0.330509 0.6300065
vn -0.6062719 0.2700558 0.7480001
vn -0.4987243 0.2246986 0.8371289
vn 2.689368E-07 0.3669855 0.9302266
vn 6.087841E-07 -0.4409476 0.8975328
vn -2.10959E-07 0.4922678 0.8704438
vn -0 -0.0171965 0.9998522
vn -0 0.3532043 0.9355461
vn -1.987426E-07 0.3984333 0.9171973
vn 0.7443414 0.2274588 0.6278681
vn 0.7138039 -0.2907151 0.6371568
vn 0.307919 -0.2033592 0.9294251
vn 0.7027486 0.330509 0.6300066
vn 0.8366272 0.1285983 0.5324634
vn 0.7882648 -0.2307834 0.5704189
vn 0.5384636 0.04921741 0.8412101
vn 0.4296786 0.1137077 0.895794
vn 0.1328959 -0.03798516 0.9904018
vn -0.07796117 -0.1715402 0.9820876
vn 0.1345509 0.01947499 0.9907153
vn 0.6062719 0.2700559 0.7480001
vn 0.4987243 0.2246987 0.8371288
vn 0.2216632 0.2324785 0.9470054
vn 0.693347 -0.1065586 0.7126818
vn 0.479305 0.06366145 0.8753365
vn 0.5806626 0.1686538 0.7964841
vn 0.8958752 -0.2029055 0.3952684
vn 0.8702675 0.06483042 0.4882944
vn 0.9480683 -0.2477335 0.1994859
vn 0.9765924 0.03886269 0.2115589
vn 0.5735922 0.1210225 0.8101515
vn 0.8858025 -0.01700029 0.463751
vn 0.9758736 0.1189832 0.1830673
vn 0.2315874 0.1165779 0.9658037
vn 0.2878517 -0.3328838 0.8979587
vn 0.5637586 -0.2472566 0.7880612
vn 0.9230725 0.2076897 0.3237315
vn 0.9649039 0.1137426 0.2366921
vn 0.1336264 -0.2103692 0.9684466
vn 0.3350971 -0.4239012 0.8414379
vn 0.2881185 -0.4114398 0.8646994
vn 0.7464698 -0.1303439 0.6525284
vn 0.3895237 -0.3255553 0.8615596
vn 0.2130802 0.09842434 0.9720646
vn 0.3170165 0.1101087 0.9420066
vn 0.6930524 0.1586572 0.7032114
vn 0.7130767 0.205336 0.6703423
vn 0.921448 0.1458979 0.3600659
vn 0.9208692 0.1100395 0.3740204
vn 0.9380233 0.06206522 0.3409696
g facial_eye_geo_0
f 3/3/3 2/2/2 1/1/1
f 2/2/2 4/4/4 1/1/1
f 1/1/1 4/4/4 5/5/5
f 4/4/4 6/6/6 5/5/5
f 4/4/4 2/2/2 7/7/7
f 5/5/5 6/6/6 8/8/8
f 9/9/9 4/4/4 7/7/7
f 6/6/6 4/4/4 9/9/9
f 9/9/9 7/7/7 10/10/10
f 6/6/6 11/11/11 8/8/8
f 11/11/11 12/12/12 8/8/8
f 13/13/13 8/8/8 12/12/12
f 13/13/13 12/12/12 14/14/14
f 12/12/12 15/15/15 14/14/14
f 15/15/15 16/16/16 14/14/14
f 16/16/16 15/15/15 17/17/17
f 11/11/11 18/18/18 12/12/12
f 18/18/18 15/15/15 12/12/12
f 15/15/15 19/19/19 17/17/17
f 19/19/19 15/15/15 18/18/18
f 11/11/11 20/20/20 18/18/18
f 11/11/11 6/6/6 20/20/20
f 19/19/19 21/21/21 17/17/17
f 21/21/21 22/22/22 17/17/17
f 23/23/23 19/19/19 18/18/18
f 23/23/23 18/18/18 20/20/20
f 19/19/19 23/23/23 21/21/21
f 22/22/22 21/21/21 24/24/24
f 25/25/25 22/22/22 24/24/24
f 25/25/25 24/24/24 26/26/26
f 27/27/27 25/25/25 26/26/26
f 26/26/26 28/28/28 27/27/27
f 28/28/28 29/29/29 27/27/27
f 30/30/30 29/29/29 28/28/28
f 31/31/31 20/20/20 6/6/6
f 32/32/32 23/23/23 20/20/20
f 20/20/20 31/31/31 32/32/32
f 23/23/23 33/33/33 21/21/21
f 23/23/23 32/32/32 33/33/33
f 34/34/34 24/24/24 21/21/21
f 33/33/33 34/34/34 21/21/21
f 35/35/35 31/31/31 6/6/6
f 31/31/31 35/35/35 36/36/36
f 35/35/35 6/6/6 9/9/9
f 35/35/35 9/9/9 36/36/36
f 32/32/32 31/31/31 37/37/37
f 37/37/37 31/31/31 36/36/36
f 32/32/32 38/38/38 33/33/33
f 37/37/37 38/38/38 32/32/32
f 34/34/34 33/33/33 39/39/39
f 33/33/33 38/38/38 39/39/39
f 34/34/34 40/40/40 24/24/24
f 40/40/40 34/34/34 39/39/39
f 41/41/41 38/38/38 37/37/37
f 37/37/37 36/36/36 41/41/41
f 42/42/42 24/24/24 40/40/40
f 42/42/42 26/26/26 24/24/24
f 43/43/43 39/39/39 38/38/38
f 41/41/41 43/43/43 38/38/38
f 44/44/44 40/40/40 39/39/39
f 40/40/40 44/44/44 42/42/42
f 43/43/43 44/44/44 39/39/39
f 36/36/36 45/45/45 41/41/41
f 45/45/45 43/43/43 41/41/41
f 45/45/45 36/36/36 46/46/46
f 36/36/36 47/47/47 46/46/46
f 47/47/47 10/10/10 46/46/46
f 9/9/9 47/47/47 36/36/36
f 47/47/47 9/9/9 10/10/10
f 10/10/10 48/48/48 46/46/46
f 48/48/48 49/49/49 46/46/46
f 46/46/46 49/49/49 50/50/50
f 51/51/51 46/46/46 50/50/50
f 52/52/52 51/51/51 50/50/50
f 53/53/53 51/51/51 52/52/52
f 54/54/54 53/53/53 52/52/52
f 51/51/51 55/55/55 46/46/46
f 51/51/51 53/53/53 55/55/55
f 45/45/45 46/46/46 56/56/56
f 55/55/55 56/56/56 46/46/46
f 57/57/57 43/43/43 45/45/45
f 57/57/57 45/45/45 56/56/56
f 58/58/58 53/53/53 54/54/54
f 59/59/59 58/58/58 54/54/54
f 60/60/60 55/55/55 53/53/53
f 58/58/58 60/60/60 53/53/53
f 61/61/61 43/43/43 57/57/57
f 61/61/61 44/44/44 43/43/43
f 57/57/57 56/56/56 62/62/62
f 62/62/62 61/61/61 57/57/57
f 63/63/63 56/56/56 55/55/55
f 60/60/60 63/63/63 55/55/55
f 56/56/56 63/63/63 62/62/62
f 58/58/58 59/59/59 64/64/64
f 59/59/59 65/65/65 64/64/64
f 61/61/61 66/66/66 44/44/44
f 61/61/61 62/62/62 66/66/66
f 60/60/60 58/58/58 67/67/67
f 58/58/58 64/64/64 67/67/67
f 64/64/64 65/65/65 68/68/68
f 68/68/68 67/67/67 64/64/64
f 65/65/65 69/69/69 68/68/68
f 69/69/69 70/70/70 68/68/68
f 68/68/68 70/70/70 71/71/71
f 68/68/68 71/71/71 67/67/67
f 71/71/71 70/70/70 72/72/72
f 73/73/73 71/71/71 72/72/72
f 74/74/74 71/71/71 73/73/73
f 60/60/60 67/67/67 75/75/75
f 67/67/67 71/71/71 75/75/75
f 63/63/63 60/60/60 75/75/75
f 76/76/76 62/62/62 63/63/63
f 75/75/75 76/76/76 63/63/63
f 76/76/76 75/75/75 71/71/71
f 62/62/62 76/76/76 66/66/66
f 77/77/77 71/71/71 74/74/74
f 77/77/77 74/74/74 78/78/78
f 79/79/79 76/76/76 71/71/71
f 76/76/76 79/79/79 66/66/66
f 79/79/79 71/71/71 77/77/77
f 80/80/80 77/77/77 78/78/78
f 80/80/80 78/78/78 81/81/81
f 82/82/82 80/80/80 81/81/81
f 81/81/81 83/83/83 82/82/82
f 83/83/83 84/84/84 82/82/82
f 80/80/80 85/85/85 77/77/77
f 85/85/85 80/80/80 82/82/82
f 82/82/82 84/84/84 86/86/86
f 86/86/86 85/85/85 82/82/82
f 84/84/84 87/87/87 86/86/86
f 88/88/88 79/79/79 77/77/77
f 85/85/85 88/88/88 77/77/77
f 79/79/79 89/89/89 66/66/66
f 88/88/88 89/89/89 79/79/79
f 90/90/90 88/88/88 85/85/85
f 85/85/85 86/86/86 90/90/90
f 86/86/86 87/87/87 91/91/91
f 87/87/87 92/92/92 91/91/91
f 66/66/66 89/89/89 93/93/93
f 66/66/66 93/93/93 44/44/44
f 44/44/44 93/93/93 42/42/42
f 94/94/94 89/89/89 88/88/88
f 94/94/94 88/88/88 90/90/90
f 89/89/89 95/95/95 93/93/93
f 42/42/42 93/93/93 95/95/95
f 89/89/89 94/94/94 95/95/95
f 90/90/90 86/86/86 96/96/96
f 91/91/91 96/96/96 86/86/86
f 97/97/97 94/94/94 90/90/90
f 96/96/96 97/97/97 90/90/90
f 94/94/94 97/97/97 95/95/95
f 98/98/98 42/42/42 95/95/95
f 98/98/98 26/26/26 42/42/42
f 28/28/28 26/26/26 98/98/98
f 99/99/99 98/98/98 95/95/95
f 97/97/97 99/99/99 95/95/95
f 99/99/99 28/28/28 98/98/98
f 97/97/97 96/96/96 100/100/100
f 99/99/99 97/97/97 100/100/100
f 91/91/91 100/100/100 96/96/96
f 28/28/28 99/99/99 101/101/101
f 99/99/99 100/100/100 101/101/101
f 100/100/100 91/91/91 101/101/101
f 101/101/101 30/30/30 28/28/28
f 91/91/91 102/102/102 101/101/101
f 101/101/101 102/102/102 30/30/30
f 91/91/91 92/92/92 102/102/102
f 102/102/102 103/103/103 30/30/30
f 104/104/104 102/102/102 92/92/92
f 104/104/104 103/103/103 102/102/102
