g body_geo
v 0.04002689 0.09606552 0.2772454
v 0.04002689 -1.373291E-06 0.2929068
v -0.03997311 -1.373291E-06 0.2929068
v -0.03997311 0.09606552 0.2772454
v 0.04002689 0.17972 0.2332376
v -0.03997311 0.1797197 0.2332376
v 0.04002689 0.06672806 0.1915499
v 0.04002689 -5.340576E-06 0.2015936
v 0.04002689 -1.373291E-06 0.2929068
v 0.04002689 0.09606552 0.2772454
v 0.04002689 0.1347881 0.1591828
v 0.04002689 0.17972 0.2332376
v -0.03997311 -5.340576E-06 0.2015936
v -0.03997311 0.09606552 0.2772454
v -0.03997311 -1.373291E-06 0.2929068
v -0.03997311 0.06672806 0.1915499
v -0.03997311 0.1797197 0.2332376
v -0.03997311 0.1347881 0.1591828
v -0.03997311 -0.1347929 0.1591828
v -0.03997311 -0.17972 0.23329
v 0.04002689 -0.17972 0.23329
v 0.04002689 -0.1347929 0.1591828
v -0.03997311 0.1797197 0.2332376
v -0.03997311 0.1347881 0.1591828
v 0.04002689 0.1347881 0.1591828
v 0.04002689 0.17972 0.2332376
v 2.685547E-05 -0.06929275 0.2746759
v 2.685547E-05 -0.05934768 0.8441905
v 0.02002689 -5.340576E-06 0.8530703
v 0.02002689 -5.340576E-06 0.2746759
v 2.693176E-05 0.06928176 0.2746759
v 2.693176E-05 0.05933685 0.8737897
v -0.01997311 -5.340576E-06 0.2746759
v 2.685547E-05 -0.05934768 0.8441905
v 2.685547E-05 -0.06929275 0.2746759
v -0.01997311 -5.340576E-06 0.8530703
v 2.693176E-05 0.06928176 0.2746759
v 2.693176E-05 0.05933685 0.8737897
v 1.087189E-05 0.03514542 -0.2243842
v -0.01776649 0.03100479 -0.2243842
v -0.03025394 0.01769089 -0.2243842
v -0.03555725 0.0002244568 -0.2243842
v -0.03027046 -0.01724716 -0.2243842
v -0.01779632 -0.03057358 -0.2243842
v -2.285004E-05 -0.03473099 -0.2243842
v 0.01775509 -0.03059097 -0.2243842
v 0.03024177 -0.01727707 -0.2243842
v 0.03554508 0.0001893616 -0.2243842
v 0.030259 0.01766128 -0.2243842
v 0.01778437 0.0309877 -0.2243842
v 0.02904951 -0.05037857 -0.1512691
v -2.700806E-05 -0.05715042 -0.1512873
v -1.247406E-05 -0.02752243 -0.1431378
v 0.02379759 -0.01378983 -0.1430986
v 0.04947286 -0.02860184 -0.1512052
v 0.05814783 -3.433228E-05 -0.1511205
v 0.02381056 0.01369339 -0.1430165
v 0.0495009 0.02854263 -0.151034
v 0.02909742 0.0503392 -0.1509664
v 1.369476E-05 0.02744736 -0.1429716
v 2.716064E-05 0.05713943 -0.1509438
v -0.0290493 0.05036697 -0.1509613
v -0.02379669 0.01371597 -0.1430129
v -0.04947372 0.02859085 -0.1510257
v -0.05814781 2.243042E-05 -0.1511114
v -0.02380966 -0.01376846 -0.1430952
v -0.04950085 -0.02855423 -0.1511979
v -0.02909828 -0.05035019 -0.1512645
v -1.247406E-05 -0.02752243 -0.1431378
v -2.700806E-05 -0.05715042 -0.1512873
v 0.03182556 -0.01943161 0.205986
v 7.591248E-06 -0.03768661 0.1715402
v 1.338959E-05 -0.03790054 0.205986
v 0.03181994 -0.01943161 0.1715402
v 0.0318429 0.01729141 0.205986
v 0.03183727 0.01729141 0.1715402
v 4.806518E-05 0.03554703 0.205986
v 4.234314E-05 0.03576034 0.1715402
v -0.03176983 0.01729141 0.1715402
v -0.03176418 0.01729141 0.205986
v -0.0317828 -0.0194313 0.205986
v -0.03178833 -0.0194313 0.1715402
v 1.338959E-05 -0.03790054 0.205986
v 7.591248E-06 -0.03768661 0.1715402
v 0.04002689 -1.373291E-06 0.2929068
v -0.03997311 -0.09607223 0.2772668
v -0.03997311 -1.373291E-06 0.2929068
v 0.04002689 -0.09607254 0.2772668
v -0.03997311 -0.17972 0.23329
v 0.04002689 -0.17972 0.23329
v 0.04002689 -5.340576E-06 0.2015936
v 0.04002689 -0.09607254 0.2772668
v 0.04002689 -1.373291E-06 0.2929068
v 0.04002689 -0.06673599 0.19157
v 0.04002689 -0.17972 0.23329
v 0.04002689 -0.1347929 0.1591828
v -0.03997311 -5.340576E-06 0.2015936
v 0.04002689 -0.06673599 0.19157
v 0.04002689 -5.340576E-06 0.2015936
v -0.03997311 -0.0667363 0.19157
v 0.04002689 -0.1347929 0.1591828
v -0.03997311 -0.1347929 0.1591828
v -0.03997311 -0.0667363 0.19157
v -0.03997311 -5.340576E-06 0.2015936
v -0.03997311 -1.373291E-06 0.2929068
v -0.03997311 -0.09607223 0.2772668
v -0.03997311 -0.17972 0.23329
v -0.03997311 -0.1347929 0.1591828
v 0.02904951 -0.05037857 -0.1512691
v -2.159119E-05 -0.03882523 -0.1674824
v -2.700806E-05 -0.05715042 -0.1512873
v 0.01978514 -0.03421249 -0.1674701
v -2.285004E-05 -0.03473099 -0.2243842
v 0.01775509 -0.03059097 -0.2243842
v 0.03024177 -0.01727707 -0.2243842
v 0.03369707 -0.01937881 -0.1674269
v 0.04947286 -0.02860184 -0.1512052
v 0.05814783 -3.433228E-05 -0.1511205
v 0.039606 8.132934E-05 -0.1673689
v 0.03554508 0.0001893616 -0.2243842
v 0.030259 0.01766128 -0.2243842
v 0.03371624 0.01954727 -0.16731
v 0.0495009 0.02854263 -0.151034
v 0.02909742 0.0503392 -0.1509664
v 0.01981777 0.03439468 -0.1672639
v 0.01778437 0.0309877 -0.2243842
v 1.087189E-05 0.03514542 -0.2243842
v 1.567841E-05 0.03902695 -0.1672485
v 2.716064E-05 0.05713943 -0.1509438
v -0.0290493 0.05036697 -0.1509613
v -0.01979073 0.0344136 -0.1672609
v -0.01776649 0.03100479 -0.2243842
v -0.03025394 0.01769089 -0.2243842
v -0.03370346 0.01958023 -0.1673049
v -0.04947372 0.02859085 -0.1510257
v -0.05814781 2.243042E-05 -0.1511114
v -0.03961208 0.0001200867 -0.1673632
v -0.03555725 0.0002244568 -0.2243842
v -0.03372189 -0.01934586 -0.1674218
v -0.04950085 -0.02855423 -0.1511979
v -0.03027046 -0.01724716 -0.2243842
v -0.02909828 -0.05035019 -0.1512645
v -0.01982403 -0.03419296 -0.167467
v -0.01779632 -0.03057358 -0.2243842
v -2.285004E-05 -0.03473099 -0.2243842
v -2.159119E-05 -0.03882523 -0.1674824
v -2.700806E-05 -0.05715042 -0.1512873
v -0.03997311 0.1347881 0.1591828
v 0.04002689 0.06672806 0.1915499
v 0.04002689 0.1347881 0.1591828
v -0.03997311 0.06672806 0.1915499
v 0.04002689 -5.340576E-06 0.2015936
v -0.03997311 -5.340576E-06 0.2015936
v -1.247406E-05 -0.02752243 -0.1431378
v -0.02378597 -0.01469467 0.1669613
v 1.190186E-05 -0.02844894 0.1669613
v -0.02380966 -0.01376846 -0.1430952
v -0.02377216 0.01279068 0.1669613
v -0.02379669 0.01371597 -0.1430129
v 3.807068E-05 0.02652267 0.1669613
v 1.369476E-05 0.02744736 -0.1429716
v 0.02383509 0.0127681 0.1669613
v 0.02381056 0.01369339 -0.1430165
v 0.02382212 -0.01471695 0.1669613
v 0.02379759 -0.01378983 -0.1430986
v -1.247406E-05 -0.02752243 -0.1431378
v 1.190186E-05 -0.02844894 0.1669613
v 1.190186E-05 -0.02844894 0.1669613
v 7.591248E-06 -0.03768661 0.1715402
v 0.03181994 -0.01943161 0.1715402
v 0.02382212 -0.01471695 0.1669613
v 0.03183727 0.01729141 0.1715402
v 0.02383509 0.0127681 0.1669613
v 4.234314E-05 0.03576034 0.1715402
v 3.807068E-05 0.02652267 0.1669613
v -0.03176983 0.01729141 0.1715402
v -0.02377216 0.01279068 0.1669613
v -0.03178833 -0.0194313 0.1715402
v -0.02378597 -0.01469467 0.1669613
v 7.591248E-06 -0.03768661 0.1715402
v 1.190186E-05 -0.02844894 0.1669613
v 0.02002689 -5.340576E-06 0.8530703
v 2.685547E-05 -0.05934768 0.8441905
v -0.01997311 -5.340576E-06 0.8530703
v 2.693176E-05 0.05933685 0.8737897
vt 0.6572266 0.1257324
vt 0.7592773 0.1257324
vt 0.7592773 0.2098389
vt 0.6572266 0.2098389
vt 0.5576172 0.1257324
vt 0.5576172 0.2098389
vt 0.5341797 0.2420654
vt 0.5341797 0.1257324
vt 0.40625 0.1257324
vt 0.40625 0.2648926
vt 0.5341797 0.3493652
vt 0.40625 0.3999023
vt 0.5341797 0.1257324
vt 0.40625 0.2648926
vt 0.40625 0.1257324
vt 0.5341797 0.2420654
vt 0.40625 0.3999023
vt 0.5341797 0.3493652
vt 0.9091797 0.2098389
vt 0.9873047 0.2098389
vt 0.9873047 0.1257324
vt 0.9091797 0.1257324
vt 0.9873047 0.2098389
vt 0.9091797 0.2098389
vt 0.9091797 0.1257324
vt 0.9873047 0.1257324
vt 0.9873047 0.1103516
vt 0.5839844 0.1103516
vt 0.5839844 0.06524658
vt 0.9873047 0.06524658
vt 0.9873047 0.01948547
vt 0.5839844 0.01948547
vt 0.9873047 0.06524658
vt 0.5839844 0.1103516
vt 0.9873047 0.1103516
vt 0.5839844 0.06524658
vt 0.9873047 0.01948547
vt 0.5839844 0.01948547
vt 0.5737305 0.4318848
vt 0.5693359 0.4150391
vt 0.5561523 0.402832
vt 0.5390625 0.3977051
vt 0.5214844 0.4030762
vt 0.5087891 0.4150391
vt 0.5043945 0.4318848
vt 0.5087891 0.4484863
vt 0.5219727 0.4606934
vt 0.5390625 0.4658203
vt 0.5566406 0.4606934
vt 0.5693359 0.4484863
vt 0.934082 0.2358398
vt 0.934082 0.2196045
vt 0.9130859 0.2253418
vt 0.9130859 0.2529297
vt 0.934082 0.2512207
vt 0.934082 0.2661133
vt 0.9130859 0.2807617
vt 0.934082 0.2805176
vt 0.934082 0.2946777
vt 0.9130859 0.3085938
vt 0.934082 0.3085938
vt 0.934082 0.3225098
vt 0.9130859 0.3359375
vt 0.934082 0.3364258
vt 0.934082 0.3508301
vt 0.9130859 0.3637695
vt 0.934082 0.3654785
vt 0.934082 0.3808594
vt 0.9130859 0.3913574
vt 0.934082 0.3969727
vt 0.5556641 0.2529297
vt 0.590332 0.2253418
vt 0.5556641 0.2253418
vt 0.590332 0.2529297
vt 0.5556641 0.2807617
vt 0.590332 0.2807617
vt 0.5556641 0.3083496
vt 0.590332 0.3083496
vt 0.590332 0.3359375
vt 0.5556641 0.3359375
vt 0.5556641 0.3637695
vt 0.590332 0.3637695
vt 0.5556641 0.3913574
vt 0.590332 0.3913574
vt 0.7592773 0.1257324
vt 0.6572266 0.2098389
vt 0.7592773 0.2098389
vt 0.6572266 0.1257324
vt 0.5576172 0.2098389
vt 0.5576172 0.1257324
vt 0.5341797 0.1257324
vt 0.40625 0.2648926
vt 0.40625 0.1257324
vt 0.5341797 0.2420654
vt 0.40625 0.3999023
vt 0.5341797 0.3493652
vt 0.7807617 0.2098389
vt 0.8413086 0.1257324
vt 0.7807617 0.1257324
vt 0.8413086 0.2098389
vt 0.9091797 0.1257324
vt 0.9091797 0.2098389
vt 0.5341797 0.2420654
vt 0.5341797 0.1257324
vt 0.40625 0.1257324
vt 0.40625 0.2648926
vt 0.40625 0.3999023
vt 0.5341797 0.3493652
vt 0.934082 0.2358398
vt 0.9487305 0.2196045
vt 0.934082 0.2196045
vt 0.9487305 0.2358398
vt 0.9873047 0.2196045
vt 0.9873047 0.2358398
vt 0.9873047 0.2512207
vt 0.9487305 0.2512207
vt 0.934082 0.2512207
vt 0.934082 0.2661133
vt 0.9487305 0.2661133
vt 0.9873047 0.2661133
vt 0.9873047 0.2805176
vt 0.9487305 0.2805176
vt 0.934082 0.2805176
vt 0.934082 0.2946777
vt 0.9487305 0.2946777
vt 0.9873047 0.2946777
vt 0.9873047 0.3085938
vt 0.9487305 0.3085938
vt 0.934082 0.3085938
vt 0.934082 0.3225098
vt 0.9487305 0.3225098
vt 0.9873047 0.3225098
vt 0.9873047 0.3364258
vt 0.9487305 0.3364258
vt 0.934082 0.3364258
vt 0.934082 0.3508301
vt 0.9487305 0.3508301
vt 0.9873047 0.3508301
vt 0.9487305 0.3654785
vt 0.934082 0.3654785
vt 0.9873047 0.3654785
vt 0.934082 0.3808594
vt 0.9487305 0.3808594
vt 0.9873047 0.3808594
vt 0.9873047 0.3969727
vt 0.9487305 0.3969727
vt 0.934082 0.3969727
vt 0.9091797 0.2098389
vt 0.8413086 0.1257324
vt 0.9091797 0.1257324
vt 0.8413086 0.2098389
vt 0.7807617 0.1257324
vt 0.7807617 0.2098389
vt 0.9130859 0.3913574
vt 0.6010742 0.3637695
vt 0.6010742 0.3913574
vt 0.9130859 0.3637695
vt 0.6010742 0.3359375
vt 0.9130859 0.3359375
vt 0.6010742 0.3083496
vt 0.9130859 0.3085938
vt 0.6010742 0.2807617
vt 0.9130859 0.2807617
vt 0.6010742 0.2529297
vt 0.9130859 0.2529297
vt 0.9130859 0.2253418
vt 0.6010742 0.2253418
vt 0.6010742 0.2253418
vt 0.590332 0.2253418
vt 0.590332 0.2529297
vt 0.6010742 0.2529297
vt 0.590332 0.2807617
vt 0.6010742 0.2807617
vt 0.590332 0.3083496
vt 0.6010742 0.3083496
vt 0.590332 0.3359375
vt 0.6010742 0.3359375
vt 0.590332 0.3637695
vt 0.6010742 0.3637695
vt 0.590332 0.3913574
vt 0.6010742 0.3913574
vt 0.3342285 0.1993408
vt 0.3601074 0.1273193
vt 0.3828125 0.2004395
vt 0.3569336 0.2758789
vn -4.172325E-07 0.3151855 0.9492188
vn -0 0.0001112819 1
vn -0 0.0001112819 1
vn -4.172325E-07 0.3151855 0.9492188
vn -8.34465E-07 0.4655762 0.8847656
vn -8.34465E-07 0.4655762 0.8847656
vn 1 0 0
vn 1 0 0
vn 1 0 0
vn 1 0 0
vn 1 0 0
vn 1 0 0
vn -1 0 0
vn -1 0 0
vn -1 0 0
vn -1 0 0
vn -1 0 0
vn -1 0 0
vn -0 -0.8549805 -0.5185547
vn -0 -0.8549805 -0.5185547
vn -0 -0.8549805 -0.5185547
vn -0 -0.8549805 -0.5185547
vn -1.66893E-06 0.8549805 -0.5185547
vn -1.66893E-06 0.8549805 -0.5185547
vn -1.66893E-06 0.8549805 -0.5185547
vn -1.66893E-06 0.8549805 -0.5185547
vn 0.9550781 -0.2971191 0.002574921
vn 0.9550781 -0.2971191 0.002574921
vn 0.9990234 0.04690552 0.002651215
vn 1 0.003955841 0.002658844
vn 0.9550781 0.2966309 0.002504349
vn 0.9550781 0.2966309 0.002504349
vn -1 0.003955841 0.002658844
vn -0.9550781 -0.2971191 0.002574921
vn -0.9550781 -0.2971191 0.002574921
vn -0.9990234 0.04690552 0.002651215
vn -0.9550781 0.2966309 0.002504349
vn -0.9550781 0.2966309 0.002504349
vn 0.0004389286 0.9418945 -0.3364258
vn -0.4946289 0.8579102 -0.1384277
vn -0 0 -1
vn -1.66893E-06 0 -1
vn -4.768372E-07 0 -1
vn -1.549721E-06 0 -1
vn -2.980232E-07 0 -1
vn 1.192093E-06 0 -1
vn 2.384186E-07 0 -1
vn 8.34465E-07 0 -1
vn 1.788139E-07 2.980232E-07 -1
vn 0.4953613 0.8574219 -0.1384277
vn 0.1245117 -0.2186279 0.9677734
vn -5.209446E-05 -0.2651367 0.9643555
vn -2.974272E-05 -0.2277832 0.9736328
vn 0.1947021 -0.1154175 0.9741211
vn 0.2271729 -0.1341553 0.9643555
vn 0.2491455 -0.003009796 0.9682617
vn 0.1948242 0.109375 0.9746094
vn 0.2271729 0.1280518 0.965332
vn 0.1246948 0.2126465 0.9692383
vn 0.0001864433 0.2218018 0.9750977
vn 0.0002074242 0.2592773 0.9658203
vn -0.1243286 0.2127686 0.9692383
vn -0.1945801 0.1094971 0.9746094
vn -0.2269287 0.1282959 0.965332
vn -0.2489014 -0.002784729 0.96875
vn -0.1947021 -0.1152344 0.9741211
vn -0.2271729 -0.1339111 0.9648438
vn -0.1245728 -0.2185059 0.9677734
vn -2.974272E-05 -0.2277832 0.9736328
vn -5.209446E-05 -0.2651367 0.9643555
vn 0.8657227 -0.5004883 -0.001694679
vn -5.835295E-05 -1 -0.003105164
vn 4.929304E-05 -1 -0.003105164
vn 0.8657227 -0.5004883 -0.001694679
vn 0.8662109 0.4997559 0.001405716
vn 0.8662109 0.4997559 0.00140667
vn 5.286932E-05 1 0.003095627
vn -5.328655E-05 1 0.003095627
vn -0.8657227 0.5004883 0.001689911
vn -0.8657227 0.5004883 0.001689911
vn -0.8662109 -0.4997559 -0.001411438
vn -0.8662109 -0.4997559 -0.001411438
vn 4.929304E-05 -1 -0.003105164
vn -5.835295E-05 -1 -0.003105164
vn -0 0.0001112819 1
vn -2.980232E-07 -0.3149414 0.9492188
vn -0 0.0001112819 1
vn -2.980232E-07 -0.3149414 0.9492188
vn -5.960464E-07 -0.465332 0.8852539
vn -5.960464E-07 -0.465332 0.8852539
vn 1 0 0
vn 1 0 0
vn 1 0 0
vn 1 0 0
vn 1 0 0
vn 1 0 0
vn -2.980232E-07 -0.0001511574 -1
vn -7.152557E-07 0.3000488 -0.9541016
vn -2.980232E-07 -0.0001511574 -1
vn -7.152557E-07 0.3000488 -0.9541016
vn -8.940697E-07 0.4296875 -0.902832
vn -8.940697E-07 0.4296875 -0.902832
vn -1 0 0
vn -1 0 0
vn -1 0 0
vn -1 0 0
vn -1 0 0
vn -1 0 0
vn 0.3286133 -0.5678711 -0.7543945
vn -0.0004925728 -0.934082 -0.3571777
vn -0.0003743172 -0.6621094 -0.7495117
vn 0.4650879 -0.8051758 -0.3679199
vn -0.0005044937 -0.9975586 -0.07177734
vn 0.4985352 -0.8637695 -0.07275391
vn 0.8637695 -0.4987793 -0.07080078
vn 0.8095703 -0.4667969 -0.3554688
vn 0.5756836 -0.3308105 -0.7480469
vn 0.6591797 0.001589775 -0.7519531
vn 0.9311523 0.0009131432 -0.3649902
vn 0.9975586 0.0001048446 -0.07104492
vn 0.8637695 0.4987793 -0.06884766
vn 0.8100586 0.4685059 -0.3522949
vn 0.5771484 0.3349609 -0.7446289
vn 0.3305664 0.5737305 -0.7495117
vn 0.4658203 0.8076172 -0.3620605
vn 0.4953613 0.8574219 -0.1384277
vn 0.0004389286 0.9418945 -0.3364258
vn 0.0004143715 0.9365234 -0.3503418
vn 0.0002636909 0.6689453 -0.7431641
vn -0.3300781 0.5742188 -0.7495117
vn -0.4650879 0.8081055 -0.3618164
vn -0.4946289 0.8579102 -0.1384277
vn -0.8637695 0.4995117 -0.06872559
vn -0.8100586 0.4692383 -0.3520508
vn -0.5771484 0.3354492 -0.7446289
vn -0.6591797 0.002239227 -0.7519531
vn -0.9311523 0.001815796 -0.3647461
vn -0.9975586 0.001069069 -0.07092285
vn -0.8100586 -0.4660645 -0.3554688
vn -0.5761719 -0.3303223 -0.7475586
vn -0.8642578 -0.4980469 -0.07073975
vn -0.3293457 -0.5678711 -0.7543945
vn -0.4660645 -0.8046875 -0.3676758
vn -0.4992676 -0.8632812 -0.07269287
vn -0.0005044937 -0.9975586 -0.07177734
vn -0.0004925728 -0.934082 -0.3571777
vn -0.0003743172 -0.6621094 -0.7495117
vn -0 -0.4294434 -0.9033203
vn -0 -0.3000488 -0.9541016
vn -0 -0.4294434 -0.9033203
vn -0 -0.3000488 -0.9541016
vn -2.980232E-07 -0.0001511574 -1
vn -2.980232E-07 -0.0001511574 -1
vn -0.0004591942 -1 -0.002988815
vn -0.8657227 -0.5004883 -0.00142765
vn -0.0004312992 -1 -0.002988815
vn -0.8662109 -0.4997559 -0.001425743
vn -0.8662109 0.4997559 0.001559258
vn -0.8657227 0.5004883 0.001561165
vn 0.0005016327 1 0.002985001
vn 0.0004749298 1 0.002985001
vn 0.8666992 0.4987793 0.001420021
vn 0.8662109 0.4995117 0.001421928
vn 0.8652344 -0.5009766 -0.001565933
vn 0.8657227 -0.5004883 -0.001564026
vn -0.0004591942 -1 -0.002988815
vn -0.0004312992 -1 -0.002988815
vn -8.940697E-05 -0.4423828 -0.8969727
vn -0.0001598597 -0.4423828 -0.8969727
vn 0.3828125 -0.2231445 -0.8964844
vn 0.3840332 -0.2210693 -0.8964844
vn 0.3864746 0.2209473 -0.8955078
vn 0.3852539 0.2230225 -0.8955078
vn 0.0001604557 0.4458008 -0.8950195
vn 9.196997E-05 0.4458008 -0.8950195
vn -0.3867188 0.2209473 -0.8955078
vn -0.3852539 0.2237549 -0.8955078
vn -0.3823242 -0.2231445 -0.8964844
vn -0.3840332 -0.2203369 -0.8964844
vn -0.0001598597 -0.4423828 -0.8969727
vn -8.940697E-05 -0.4423828 -0.8969727
vn -0 -0.2424316 0.9702148
vn -0 -0.1479492 0.9887695
vn -0 -0.2424316 0.9702148
vn -0 -0.3295898 0.9443359
g body_geo_0
f 3/3/3 2/2/2 1/1/1
f 4/4/4 3/3/3 1/1/1
f 4/4/4 1/1/1 5/5/5
f 6/6/6 4/4/4 5/5/5
f 9/9/9 8/8/8 7/7/7
f 10/10/10 9/9/9 7/7/7
f 10/10/10 7/7/7 11/11/11
f 12/12/12 10/10/10 11/11/11
f 15/15/15 14/14/14 13/13/13
f 14/14/14 16/16/16 13/13/13
f 14/14/14 17/17/17 16/16/16
f 17/17/17 18/18/18 16/16/16
f 21/21/21 20/20/20 19/19/19
f 22/22/22 21/21/21 19/19/19
f 25/25/25 24/24/24 23/23/23
f 26/26/26 25/25/25 23/23/23
f 29/29/29 28/28/28 27/27/27
f 30/30/30 29/29/29 27/27/27
f 30/30/30 31/31/31 29/29/29
f 31/31/31 32/32/32 29/29/29
f 35/35/35 34/34/34 33/33/33
f 34/34/34 36/36/36 33/33/33
f 33/33/33 36/36/36 37/37/37
f 36/36/36 38/38/38 37/37/37
f 41/41/41 40/40/40 39/39/39
f 41/41/41 39/39/39 42/42/42
f 42/42/42 39/39/39 43/43/43
f 43/43/43 39/39/39 44/44/44
f 44/44/44 39/39/39 45/45/45
f 39/39/39 46/46/46 45/45/45
f 47/47/47 46/46/46 39/39/39
f 39/39/39 48/48/48 47/47/47
f 49/49/49 48/48/48 39/39/39
f 49/49/49 39/39/39 50/50/50
f 53/53/53 52/52/52 51/51/51
f 54/54/54 53/53/53 51/51/51
f 51/51/51 55/55/55 54/54/54
f 54/54/54 55/55/55 56/56/56
f 57/57/57 54/54/54 56/56/56
f 56/56/56 58/58/58 57/57/57
f 57/57/57 58/58/58 59/59/59
f 60/60/60 57/57/57 59/59/59
f 59/59/59 61/61/61 60/60/60
f 60/60/60 61/61/61 62/62/62
f 63/63/63 60/60/60 62/62/62
f 62/62/62 64/64/64 63/63/63
f 63/63/63 64/64/64 65/65/65
f 66/66/66 63/63/63 65/65/65
f 65/65/65 67/67/67 66/66/66
f 66/66/66 67/67/67 68/68/68
f 69/69/69 66/66/66 68/68/68
f 68/68/68 70/70/70 69/69/69
f 73/73/73 72/72/72 71/71/71
f 72/72/72 74/74/74 71/71/71
f 71/71/71 74/74/74 75/75/75
f 74/74/74 76/76/76 75/75/75
f 75/75/75 76/76/76 77/77/77
f 76/76/76 78/78/78 77/77/77
f 77/77/77 78/78/78 79/79/79
f 80/80/80 77/77/77 79/79/79
f 80/80/80 79/79/79 81/81/81
f 79/79/79 82/82/82 81/81/81
f 81/81/81 82/82/82 83/83/83
f 82/82/82 84/84/84 83/83/83
f 87/87/87 86/86/86 85/85/85
f 86/86/86 88/88/88 85/85/85
f 86/86/86 89/89/89 88/88/88
f 89/89/89 90/90/90 88/88/88
f 93/93/93 92/92/92 91/91/91
f 92/92/92 94/94/94 91/91/91
f 92/92/92 95/95/95 94/94/94
f 95/95/95 96/96/96 94/94/94
f 99/99/99 98/98/98 97/97/97
f 98/98/98 100/100/100 97/97/97
f 98/98/98 101/101/101 100/100/100
f 101/101/101 102/102/102 100/100/100
f 105/105/105 104/104/104 103/103/103
f 106/106/106 105/105/105 103/103/103
f 106/106/106 103/103/103 107/107/107
f 103/103/103 108/108/108 107/107/107
f 111/111/111 110/110/110 109/109/109
f 110/110/110 112/112/112 109/109/109
f 110/110/110 113/113/113 112/112/112
f 113/113/113 114/114/114 112/112/112
f 114/114/114 115/115/115 112/112/112
f 112/112/112 116/116/116 109/109/109
f 115/115/115 116/116/116 112/112/112
f 116/116/116 117/117/117 109/109/109
f 117/117/117 116/116/116 118/118/118
f 116/116/116 115/115/115 119/119/119
f 116/116/116 119/119/119 118/118/118
f 115/115/115 120/120/120 119/119/119
f 120/120/120 121/121/121 119/119/119
f 119/119/119 122/122/122 118/118/118
f 121/121/121 122/122/122 119/119/119
f 122/122/122 123/123/123 118/118/118
f 123/123/123 122/122/122 124/124/124
f 122/122/122 121/121/121 125/125/125
f 122/122/122 125/125/125 124/124/124
f 121/121/121 126/126/126 125/125/125
f 126/126/126 127/127/127 125/125/125
f 125/125/125 128/128/128 124/124/124
f 127/127/127 128/128/128 125/125/125
f 128/128/128 129/129/129 124/124/124
f 129/129/129 128/128/128 130/130/130
f 128/128/128 127/127/127 131/131/131
f 128/128/128 131/131/131 130/130/130
f 127/127/127 132/132/132 131/131/131
f 132/132/132 133/133/133 131/131/131
f 131/131/131 134/134/134 130/130/130
f 133/133/133 134/134/134 131/131/131
f 134/134/134 135/135/135 130/130/130
f 135/135/135 134/134/134 136/136/136
f 134/134/134 133/133/133 137/137/137
f 134/134/134 137/137/137 136/136/136
f 133/133/133 138/138/138 137/137/137
f 137/137/137 139/139/139 136/136/136
f 137/137/137 138/138/138 139/139/139
f 139/139/139 140/140/140 136/136/136
f 138/138/138 141/141/141 139/139/139
f 140/140/140 139/139/139 142/142/142
f 139/139/139 141/141/141 143/143/143
f 139/139/139 143/143/143 142/142/142
f 141/141/141 144/144/144 143/143/143
f 144/144/144 145/145/145 143/143/143
f 145/145/145 146/146/146 143/143/143
f 143/143/143 146/146/146 142/142/142
f 146/146/146 147/147/147 142/142/142
f 150/150/150 149/149/149 148/148/148
f 149/149/149 151/151/151 148/148/148
f 149/149/149 152/152/152 151/151/151
f 152/152/152 153/153/153 151/151/151
f 156/156/156 155/155/155 154/154/154
f 155/155/155 157/157/157 154/154/154
f 155/155/155 158/158/158 157/157/157
f 158/158/158 159/159/159 157/157/157
f 158/158/158 160/160/160 159/159/159
f 160/160/160 161/161/161 159/159/159
f 160/160/160 162/162/162 161/161/161
f 162/162/162 163/163/163 161/161/161
f 162/162/162 164/164/164 163/163/163
f 164/164/164 165/165/165 163/163/163
f 166/166/166 165/165/165 164/164/164
f 167/167/167 166/166/166 164/164/164
f 170/170/170 169/169/169 168/168/168
f 171/171/171 170/170/170 168/168/168
f 172/172/172 170/170/170 171/171/171
f 173/173/173 172/172/172 171/171/171
f 174/174/174 172/172/172 173/173/173
f 175/175/175 174/174/174 173/173/173
f 176/176/176 174/174/174 175/175/175
f 177/177/177 176/176/176 175/175/175
f 178/178/178 176/176/176 177/177/177
f 179/179/179 178/178/178 177/177/177
f 180/180/180 178/178/178 179/179/179
f 181/181/181 180/180/180 179/179/179
f 184/184/184 183/183/183 182/182/182
f 184/184/184 182/182/182 185/185/185
