g facial_eye_geo
v -0.09458138 1.186718 0.07556299
v -0.08049328 1.161716 0.09356813
v -0.08962332 1.165367 0.07159261
v -0.08467041 1.18402 0.09133767
v -0.07147917 1.162211 0.1021369
v -0.09879834 1.213667 0.07711574
v -0.07542004 1.183458 0.09828753
v -0.05832485 1.164405 0.1108156
v -0.09270444 1.213609 0.09467399
v -0.06230879 1.18269 0.1043094
v -0.04064658 1.168993 0.1186308
v -0.09594313 1.238284 0.1012028
v -0.1040775 1.241912 0.07398786
v -0.09624043 1.25772 0.1023481
v -0.07504492 1.238193 0.1170385
v -0.06933676 1.226094 0.107551
v -0.03956824 1.184579 0.1112306
v -0.04016232 1.214015 0.1161798
v -0.02016445 1.18978 0.1179416
v -0.02062259 1.170579 0.1284154
v -1.745212E-16 1.172515 0.1354326
v -0.04030694 1.221354 0.1196173
v -0.0227365 1.206622 0.116862
v -1.745212E-16 1.190071 0.1288703
v -1.745212E-16 1.207015 0.1307661
v -0.02090323 1.214813 0.1253019
v -0.04982944 1.233014 0.1261645
v 0.02016445 1.18978 0.1179416
v 0.02062259 1.170579 0.1284154
v 0.04064658 1.168993 0.1186308
v 0.0227365 1.206622 0.116862
v 0.03956824 1.184579 0.1112306
v -0.07585737 1.260734 0.1201434
v -0.02347859 1.224656 0.1324159
v -0.07298361 1.283901 0.1218719
v -0.09439177 1.282917 0.1017958
v -0.04914821 1.282124 0.1304452
v -0.05056644 1.257307 0.1300969
v -0.02407996 1.251597 0.1356592
v -1.745212E-16 1.248212 0.1375031
v -0.02276818 1.278826 0.1357854
v -1.745212E-16 1.276343 0.1374787
v 0.02276818 1.278826 0.1357854
v -1.745212E-16 1.225959 0.1350194
v 0.02407996 1.251597 0.1356592
v 0.04914821 1.282124 0.1304452
v 0.02347859 1.224656 0.1324159
v 0.05056644 1.257307 0.1300969
v 0.02090323 1.214813 0.1253019
v 0.07585737 1.260734 0.1201434
v 0.07298361 1.283901 0.1218719
v 0.04982944 1.233014 0.1261645
v 0.04030694 1.221354 0.1196173
v 0.09624043 1.25772 0.1023481
v 0.09439177 1.282917 0.1017958
v 0.07504492 1.238193 0.1170385
v 0.04016232 1.214015 0.1161798
v 0.06933676 1.226094 0.107551
v 0.09594313 1.238284 0.1012028
v 0.1040775 1.241912 0.07398786
v 0.09879834 1.213667 0.07711574
v 0.09270444 1.213609 0.09467399
v 0.06230879 1.18269 0.1043094
v 0.05832485 1.164405 0.1108156
v 0.07147917 1.162211 0.1021369
v 0.08467041 1.18402 0.09133767
v 0.09458138 1.186718 0.07556299
v 0.07542004 1.183458 0.09828753
v 0.08049328 1.161716 0.09356813
v 0.08962332 1.165367 0.07159261
vt 0.1420898 0.3886719
vt 0.1657715 0.362793
vt 0.144165 0.3664551
vt 0.1634521 0.3852539
vt 0.177124 0.3637695
vt 0.1429443 0.4125977
vt 0.1745605 0.3842773
vt 0.192627 0.3662109
vt 0.1584473 0.4125977
vt 0.1876221 0.3837891
vt 0.210083 0.3706055
vt 0.1582031 0.4355469
vt 0.1375732 0.4387207
vt 0.1577148 0.4533691
vt 0.1799316 0.439209
vt 0.1828613 0.4240723
vt 0.2086182 0.385498
vt 0.2094727 0.4133301
vt 0.2277832 0.3908691
vt 0.2290039 0.3740234
vt 0.25 0.3769531
vt 0.2097168 0.420166
vt 0.2252197 0.4052734
vt 0.25 0.3911133
vt 0.25 0.4060059
vt 0.2285156 0.4125977
vt 0.2034912 0.4350586
vt 0.2722168 0.3908691
vt 0.2709961 0.3740234
vt 0.2897949 0.3706055
vt 0.2746582 0.4052734
vt 0.2915039 0.385498
vt 0.1787109 0.4562988
vt 0.2280273 0.4267578
vt 0.1804199 0.4777832
vt 0.15979 0.4768066
vt 0.2025146 0.4760742
vt 0.2019043 0.453125
vt 0.2268066 0.4477539
vt 0.25 0.4445801
vt 0.2280273 0.4731445
vt 0.25 0.4707031
vt 0.2719727 0.4731445
vt 0.25 0.4240723
vt 0.2731934 0.4477539
vt 0.2976074 0.4760742
vt 0.2719727 0.4267578
vt 0.2980957 0.453125
vt 0.2714844 0.4125977
vt 0.3212891 0.4562988
vt 0.3195801 0.4777832
vt 0.2963867 0.4350586
vt 0.2902832 0.420166
vt 0.3422852 0.4533691
vt 0.3400879 0.4768066
vt 0.3200684 0.439209
vt 0.2905273 0.4133301
vt 0.3171387 0.4240723
vt 0.3417969 0.4355469
vt 0.3623047 0.4387207
vt 0.3571777 0.4125977
vt 0.3415527 0.4125977
vt 0.3125 0.3837891
vt 0.307373 0.3662109
vt 0.3227539 0.3637695
vt 0.3364258 0.3852539
vt 0.3579102 0.3886719
vt 0.3254395 0.3842773
vt 0.3342285 0.362793
vt 0.355957 0.3664551
vn -0.8732296 -0.1866122 0.4501622
vn -0.8047647 -0.1238911 0.580521
vn -0.8876584 -0.2022379 0.4137179
vn -0.8149786 -0.1824505 0.5500198
vn -0.5579215 0.07014753 0.8269238
vn -0.9237032 -0.2024759 0.3252321
vn -0.5394757 -0.04237205 0.8409344
vn -0.4180883 0.2515957 0.8728698
vn -0.6868297 -0.2444331 0.6844833
vn -0.3780873 -0.01421185 0.9256608
vn -0.3844136 0.3626846 0.8489324
vn -0.780389 -0.148511 0.6074023
vn -0.9555269 -0.1193065 0.2696928
vn -0.7038016 -0.02492255 0.7099593
vn -0.4708672 -0.2451269 0.8474649
vn -0.3307806 -0.3227503 0.8868012
vn -0.3302729 0.02753571 0.9434837
vn -0.2882349 -0.1760094 0.9412446
vn -0.4101612 0.2465956 0.8780423
vn -0.3994677 0.4080357 0.8209339
vn -1.121578E-07 0.4248261 0.9052749
vn -0.3892051 -0.5936818 0.7043163
vn -0.3390726 -0.24426 0.9084969
vn -0 0.2819122 0.9594402
vn -0 -0.2527689 0.9675267
vn -0.397565 -0.6116762 0.683955
vn -0.3247302 -0.2520114 0.9116143
vn 0.4101611 0.2465956 0.8780424
vn 0.3994676 0.4080355 0.8209341
vn 0.3844137 0.3626845 0.8489324
vn 0.3390723 -0.24426 0.9084971
vn 0.3302727 0.02753569 0.9434838
vn -0.5211631 -0.04251894 0.8523973
vn -0.2101222 -0.2261109 0.951169
vn -0.5150564 0.01843175 0.856958
vn -0.673242 0.04779223 0.7378761
vn -0.2762955 -0.003453601 0.9610664
vn -0.2924443 -0.07218247 0.9535544
vn -0.1635863 -0.06539818 0.984359
vn -0 -0.06065882 0.9981585
vn -0.1440857 0.0008742167 0.9895648
vn -0 -4.801857E-05 1
vn 0.144086 0.000874216 0.9895648
vn -0 -0.1436443 0.9896294
vn 0.1635866 -0.06539833 0.9843589
vn 0.2762961 -0.003453589 0.9610664
vn 0.2101218 -0.22611 0.9511694
vn 0.2924443 -0.07218242 0.9535544
vn 0.3975646 -0.6116756 0.6839557
vn 0.5211631 -0.04251886 0.8523973
vn 0.5150576 0.01843181 0.8569574
vn 0.3247304 -0.2520121 0.911614
vn 0.3892055 -0.5936825 0.7043153
vn 0.7038012 -0.02492261 0.7099598
vn 0.6732429 0.04779233 0.7378752
vn 0.4708664 -0.2451271 0.8474654
vn 0.2882345 -0.176009 0.9412448
vn 0.3307807 -0.322751 0.886801
vn 0.7803878 -0.1485108 0.6074038
vn 0.9555267 -0.1193067 0.2696936
vn 0.9237032 -0.202476 0.325232
vn 0.6868294 -0.2444331 0.6844836
vn 0.3780871 -0.01421186 0.925661
vn 0.4180883 0.2515956 0.8728699
vn 0.5579225 0.07014748 0.8269231
vn 0.8149789 -0.1824505 0.5500193
vn 0.8732298 -0.1866123 0.4501616
vn 0.5394765 -0.04237214 0.8409338
vn 0.8047653 -0.123891 0.5805202
vn 0.8876581 -0.2022378 0.4137185
g facial_eye_geo_0
f 3/3/3 2/2/2 1/1/1
f 2/2/2 4/4/4 1/1/1
f 2/2/2 5/5/5 4/4/4
f 6/6/6 1/1/1 4/4/4
f 5/5/5 7/7/7 4/4/4
f 5/5/5 8/8/8 7/7/7
f 9/9/9 6/6/6 4/4/4
f 7/7/7 9/9/9 4/4/4
f 8/8/8 10/10/10 7/7/7
f 7/7/7 10/10/10 9/9/9
f 8/8/8 11/11/11 10/10/10
f 12/12/12 6/6/6 9/9/9
f 12/12/12 13/13/13 6/6/6
f 12/12/12 14/14/14 13/13/13
f 9/9/9 15/15/15 12/12/12
f 12/12/12 15/15/15 14/14/14
f 9/9/9 10/10/10 16/16/16
f 9/9/9 16/16/16 15/15/15
f 11/11/11 17/17/17 10/10/10
f 16/16/16 10/10/10 18/18/18
f 10/10/10 17/17/17 18/18/18
f 17/17/17 11/11/11 19/19/19
f 11/11/11 20/20/20 19/19/19
f 20/20/20 21/21/21 19/19/19
f 16/16/16 18/18/18 22/22/22
f 15/15/15 16/16/16 22/22/22
f 18/18/18 17/17/17 23/23/23
f 23/23/23 17/17/17 19/19/19
f 22/22/22 18/18/18 23/23/23
f 21/21/21 24/24/24 19/19/19
f 23/23/23 19/19/19 24/24/24
f 24/24/24 25/25/25 23/23/23
f 22/22/22 23/23/23 26/26/26
f 25/25/25 26/26/26 23/23/23
f 22/22/22 27/27/27 15/15/15
f 27/27/27 22/22/22 26/26/26
f 24/24/24 21/21/21 28/28/28
f 21/21/21 29/29/29 28/28/28
f 29/29/29 30/30/30 28/28/28
f 24/24/24 28/28/28 31/31/31
f 31/31/31 25/25/25 24/24/24
f 30/30/30 32/32/32 28/28/28
f 28/28/28 32/32/32 31/31/31
f 15/15/15 27/27/27 33/33/33
f 15/15/15 33/33/33 14/14/14
f 26/26/26 34/34/34 27/27/27
f 34/34/34 26/26/26 25/25/25
f 14/14/14 33/33/33 35/35/35
f 36/36/36 14/14/14 35/35/35
f 35/35/35 33/33/33 37/37/37
f 27/27/27 38/38/38 33/33/33
f 33/33/33 38/38/38 37/37/37
f 27/27/27 34/34/34 38/38/38
f 38/38/38 39/39/39 37/37/37
f 34/34/34 39/39/39 38/38/38
f 40/40/40 39/39/39 34/34/34
f 39/39/39 41/41/41 37/37/37
f 41/41/41 39/39/39 40/40/40
f 42/42/42 41/41/41 40/40/40
f 43/43/43 42/42/42 40/40/40
f 25/25/25 44/44/44 34/34/34
f 44/44/44 40/40/40 34/34/34
f 45/45/45 43/43/43 40/40/40
f 43/43/43 45/45/45 46/46/46
f 40/40/40 44/44/44 47/47/47
f 47/47/47 44/44/44 25/25/25
f 45/45/45 40/40/40 47/47/47
f 45/45/45 48/48/48 46/46/46
f 45/45/45 47/47/47 48/48/48
f 25/25/25 49/49/49 47/47/47
f 31/31/31 49/49/49 25/25/25
f 48/48/48 50/50/50 46/46/46
f 50/50/50 51/51/51 46/46/46
f 47/47/47 52/52/52 48/48/48
f 52/52/52 47/47/47 49/49/49
f 48/48/48 52/52/52 50/50/50
f 31/31/31 53/53/53 49/49/49
f 49/49/49 53/53/53 52/52/52
f 50/50/50 54/54/54 51/51/51
f 54/54/54 55/55/55 51/51/51
f 52/52/52 56/56/56 50/50/50
f 50/50/50 56/56/56 54/54/54
f 56/56/56 52/52/52 53/53/53
f 31/31/31 57/57/57 53/53/53
f 31/31/31 32/32/32 57/57/57
f 57/57/57 58/58/58 53/53/53
f 57/57/57 32/32/32 58/58/58
f 53/53/53 58/58/58 56/56/56
f 56/56/56 59/59/59 54/54/54
f 60/60/60 54/54/54 59/59/59
f 60/60/60 59/59/59 61/61/61
f 56/56/56 62/62/62 59/59/59
f 56/56/56 58/58/58 62/62/62
f 61/61/61 59/59/59 62/62/62
f 32/32/32 63/63/63 58/58/58
f 63/63/63 62/62/62 58/58/58
f 32/32/32 30/30/30 63/63/63
f 30/30/30 64/64/64 63/63/63
f 63/63/63 64/64/64 65/65/65
f 61/61/61 62/62/62 66/66/66
f 67/67/67 61/61/61 66/66/66
f 62/62/62 63/63/63 68/68/68
f 68/68/68 63/63/63 65/65/65
f 62/62/62 68/68/68 66/66/66
f 68/68/68 65/65/65 66/66/66
f 65/65/65 69/69/69 66/66/66
f 66/66/66 69/69/69 67/67/67
f 69/69/69 70/70/70 67/67/67
