g facial_mouth_geo
v 0.08604181 1.308566 0.07336503
v 0.07648021 1.291759 0.09255642
v 0.07749599 1.305107 0.09409667
v 0.08200471 1.290138 0.06741827
v 0.0669419 1.291824 0.1027884
v 0.06876702 1.305613 0.1021804
v 0.07408265 1.274222 0.08538038
v 0.0798304 1.274921 0.05898688
v 0.05309404 1.296854 0.1117975
v 0.0558206 1.307683 0.1103679
v 0.03852058 1.312011 0.1177407
v 0.0639023 1.277593 0.1015995
v 0.06925885 1.261552 0.07474528
v 0.05870178 1.264176 0.09661283
v 0.06169239 1.253476 0.057071
v 0.07449175 1.265807 0.04069159
v 0.06837929 1.257589 0.03392553
v 0.05488028 1.248362 0.04967818
v 0.04678588 1.244481 0.06932845
v 0.04139223 1.240274 0.06194051
v 0.05219213 1.250465 0.08596642
v 0.02889629 1.233467 0.08326899
v 0.02600565 1.231752 0.07481829
v 0.04421912 1.261059 0.1056163
v 0.007414213 1.22349 0.0975319
v 0.003133656 1.222213 0.0886986
v -7.662641E-10 1.220939 0.08992475
v 0.04652436 1.274011 0.1104231
v 0.04978701 1.28607 0.1127063
v 0.0356471 1.291094 0.1207439
v 0.03054472 1.281399 0.1210233
v 0.01802186 1.294863 0.1344115
v 0.01945556 1.313508 0.1269714
v 0.02897126 1.269003 0.1179456
v 0.01425528 1.265527 0.1221383
v 0.02922554 1.258146 0.1116251
v 0.03145431 1.248744 0.1049349
v 0.01570339 1.278676 0.1260562
v -7.662641E-10 1.276051 0.1295894
v -7.662641E-10 1.299365 0.1457906
v -7.662641E-10 1.315334 0.1335914
v -0.01945556 1.313508 0.1269714
v -0.01802186 1.294863 0.1344115
v -0.03852058 1.312011 0.1177407
v 0.01330224 1.254283 0.1170654
v 0.02930319 1.238296 0.09506452
v 0.01241757 1.237684 0.1072957
v 0.009103541 1.229537 0.1031808
v -7.662641E-10 1.221616 0.1004135
v -7.662641E-10 1.227452 0.1055929
v -7.662641E-10 1.236906 0.1101575
v -7.662641E-10 1.253296 0.1201812
v -0.007414212 1.22349 0.0975319
v -0.003133657 1.222213 0.0886986
v -0.02600565 1.231752 0.07481829
v -0.009103542 1.229537 0.1031808
v -0.02889629 1.233467 0.08326899
v -0.04139223 1.240274 0.06194051
v -0.01241757 1.237684 0.1072957
v -7.662641E-10 1.262497 0.1249231
v -0.01425528 1.265527 0.1221383
v -0.01330224 1.254283 0.1170654
v -0.02930319 1.238434 0.09506452
v -0.04678588 1.24447 0.06932845
v -0.05488029 1.248362 0.04967818
v -0.0314543 1.248805 0.1049349
v -0.05219213 1.250524 0.08596642
v -0.06169239 1.253476 0.057071
v -0.06837929 1.257589 0.03392553
v -0.07449175 1.265807 0.04069159
v -0.07983039 1.274921 0.05898688
v -0.06925885 1.261552 0.07474528
v -0.02922553 1.25815 0.1116251
v -0.07408264 1.274222 0.08538038
v -0.08200472 1.290138 0.06741827
v -0.04421912 1.261102 0.1056163
v -0.05870177 1.264193 0.09661283
v -0.07648022 1.291759 0.09255642
v -0.0860418 1.308566 0.07336503
v -0.07749598 1.305107 0.09409667
v -0.0639023 1.277593 0.1015995
v -0.0669419 1.291824 0.1027884
v -0.06876702 1.305613 0.1021804
v -0.02897126 1.269003 0.1179456
v -0.04652436 1.274024 0.1104231
v -0.05309404 1.296854 0.1117975
v -0.0558206 1.307683 0.1103679
v -0.03054472 1.281399 0.1210233
v -0.04978701 1.28607 0.1127063
v -0.03564709 1.291094 0.1207439
v -0.01570338 1.278671 0.1260562
vt 0.355957 0.3664551
vt 0.3320312 0.3527832
vt 0.3342285 0.362793
vt 0.3518066 0.3464355
vt 0.3205566 0.3527832
vt 0.3227539 0.3637695
vt 0.3300781 0.3427734
vt 0.3486328 0.3320312
vt 0.3044434 0.3566895
vt 0.307373 0.3662109
vt 0.2900391 0.371582
vt 0.3181152 0.3425293
vt 0.3249512 0.3254395
vt 0.3122559 0.3283691
vt 0.3166504 0.309082
vt 0.34375 0.3166504
vt 0.3425293 0.3034668
vt 0.3164062 0.2941895
vt 0.2995605 0.3032227
vt 0.2978516 0.2890625
vt 0.3054199 0.3166504
vt 0.2810059 0.2980957
vt 0.2800293 0.2839355
vt 0.2937012 0.324707
vt 0.2561035 0.2797852
vt 0.2548828 0.2709961
vt 0.25 0.2705078
vt 0.2958984 0.3378906
vt 0.3000488 0.3466797
vt 0.2871094 0.3513184
vt 0.28125 0.3417969
vt 0.2683105 0.3564453
vt 0.2702637 0.3740234
vt 0.2790527 0.3322754
vt 0.2636719 0.3276367
vt 0.2785645 0.3205566
vt 0.2810059 0.3132324
vt 0.265625 0.3398438
vt 0.25 0.3378906
vt 0.25 0.3618164
vt 0.25 0.3764648
vt 0.2297363 0.3740234
vt 0.2316895 0.3564453
vt 0.210083 0.371582
vt 0.2626953 0.3168945
vt 0.2810059 0.3083496
vt 0.2619629 0.3061523
vt 0.2597656 0.2944336
vt 0.25 0.279541
vt 0.25 0.2927246
vt 0.25 0.3044434
vt 0.25 0.3161621
vt 0.2440186 0.2797852
vt 0.2451172 0.2709961
vt 0.2198486 0.2839355
vt 0.2403564 0.2944336
vt 0.2188721 0.2980957
vt 0.2020264 0.2890625
vt 0.237915 0.3061523
vt 0.25 0.3242188
vt 0.2363281 0.3276367
vt 0.2373047 0.3168945
vt 0.2189941 0.3083496
vt 0.2004395 0.3032227
vt 0.1835938 0.2941895
vt 0.2189941 0.3132324
vt 0.1947021 0.3166504
vt 0.1832275 0.309082
vt 0.1575928 0.3034668
vt 0.1561279 0.3166504
vt 0.1513672 0.3320312
vt 0.1751709 0.3254395
vt 0.2214355 0.3205566
vt 0.1699219 0.3427734
vt 0.1480713 0.3464355
vt 0.2062988 0.324707
vt 0.1878662 0.3283691
vt 0.1678467 0.3527832
vt 0.144165 0.3664551
vt 0.1657715 0.362793
vt 0.1818848 0.3425293
vt 0.1795654 0.3527832
vt 0.177124 0.3637695
vt 0.2209473 0.3322754
vt 0.2042236 0.3378906
vt 0.1955566 0.3566895
vt 0.192627 0.3662109
vt 0.2186279 0.3417969
vt 0.1999512 0.3466797
vt 0.2128906 0.3513184
vt 0.234375 0.3398438
vn 0.9435698 -0.2202885 0.2472836
vn 0.8827011 -0.2257915 0.412137
vn 0.8399886 -0.1011005 0.533102
vn 0.9487181 -0.2492373 0.19446
vn 0.599495 -0.119687 0.7913791
vn 0.5655274 0.02745824 0.8242723
vn 0.8499653 -0.3999198 0.3429623
vn 0.8985835 -0.4264453 0.1034017
vn 0.4869379 -0.01466276 0.8733135
vn 0.4553043 0.1259935 0.881376
vn 0.4480316 0.2519428 0.8577835
vn 0.6246728 -0.3300998 0.7076848
vn 0.7351027 -0.6561251 0.170657
vn 0.6120183 -0.579013 0.5386813
vn 0.6519666 -0.7554172 0.06545651
vn 0.7982017 -0.599915 0.05455219
vn 0.5645226 -0.8135255 -0.1396084
vn 0.4693106 -0.8791764 -0.08244107
vn 0.5633813 -0.822314 0.08000819
vn 0.4521491 -0.8885447 -0.07777876
vn 0.5978425 -0.7374544 0.3142378
vn 0.5228835 -0.8383523 0.1541378
vn 0.4279418 -0.902007 -0.05700136
vn 0.5058807 -0.527324 0.6826523
vn 0.4629018 -0.8361461 0.2942475
vn 0.2681552 -0.9518221 -0.1487531
vn -0 -0.9917462 -0.1282168
vn 0.4706323 -0.3226604 0.8212158
vn 0.4992757 -0.2085481 0.8409705
vn 0.5160256 0.03845508 0.8557094
vn 0.4327972 -0.3036253 0.8488216
vn 0.4902086 0.05498314 0.8698692
vn 0.4529935 0.3455805 0.8218096
vn 0.3864639 -0.3651086 0.84696
vn 0.3093133 -0.3858408 0.8691674
vn 0.3826451 -0.4619078 0.8001398
vn 0.4634126 -0.5619718 0.6851544
vn 0.3117936 -0.4014844 0.8611591
vn 2.199735E-05 -0.4676407 0.8839186
vn -3.250227E-07 0.1340303 0.9909773
vn -1.240941E-07 0.4514368 0.892303
vn -0.4529925 0.34558 0.8218104
vn -0.4902024 0.05498069 0.8698729
vn -0.4480311 0.2519428 0.8577837
vn 0.3117537 -0.4705294 0.8254767
vn 0.5178857 -0.7284119 0.4485649
vn 0.3462936 -0.5201519 0.7807193
vn 0.4890026 -0.6356914 0.5973046
vn -2.121486E-07 -0.8760005 0.4823101
vn -2.453177E-07 -0.6074488 0.7943588
vn -0 -0.5028366 0.8643815
vn -1.095552E-07 -0.4888005 0.8723956
vn -0.4629022 -0.8361458 0.294248
vn -0.2681555 -0.9518232 -0.1487456
vn -0.427766 -0.9020827 -0.05712228
vn -0.4901955 -0.6350708 0.596987
vn -0.5236823 -0.8372568 0.1573464
vn -0.4520158 -0.8885953 -0.07797457
vn -0.347335 -0.5205477 0.7799926
vn -2.788171E-07 -0.4009786 0.9160874
vn -0.3093314 -0.3858871 0.8691405
vn -0.3120698 -0.470731 0.8252423
vn -0.5188102 -0.7267163 0.4502438
vn -0.5634971 -0.8221447 0.08092648
vn -0.4692743 -0.8791795 -0.08261371
vn -0.4638279 -0.5631194 0.68393
vn -0.5970418 -0.7375363 0.3155652
vn -0.6520243 -0.7553817 0.06529094
vn -0.5645227 -0.8135253 -0.1396086
vn -0.7982019 -0.5999149 0.05455089
vn -0.8985835 -0.4264458 0.1034003
vn -0.7348661 -0.6563132 0.1709524
vn -0.3833345 -0.4623282 0.7995669
vn -0.8499104 -0.4000006 0.343004
vn -0.9487181 -0.2492376 0.1944598
vn -0.5057217 -0.5279989 0.6822482
vn -0.6112236 -0.579803 0.5387338
vn -0.8827016 -0.2257916 0.4121361
vn -0.9435698 -0.220288 0.2472836
vn -0.8399889 -0.1011004 0.5331017
vn -0.6245328 -0.3302954 0.7077172
vn -0.599481 -0.1196879 0.7913895
vn -0.565528 0.02745816 0.8242719
vn -0.3866334 -0.3652213 0.8468342
vn -0.470646 -0.3230598 0.821051
vn -0.4869381 -0.01466279 0.8733134
vn -0.4553048 0.1259938 0.8813757
vn -0.4328648 -0.3036616 0.8487743
vn -0.4992965 -0.2086778 0.8409261
vn -0.5160244 0.03845461 0.8557103
vn -0.3117885 -0.4014693 0.861168
g facial_mouth_geo_0
f 3/3/3 2/2/2 1/1/1
f 2/2/2 4/4/4 1/1/1
f 2/2/2 3/3/3 5/5/5
f 3/3/3 6/6/6 5/5/5
f 2/2/2 7/7/7 4/4/4
f 8/8/8 4/4/4 7/7/7
f 5/5/5 6/6/6 9/9/9
f 6/6/6 10/10/10 9/9/9
f 11/11/11 9/9/9 10/10/10
f 2/2/2 12/12/12 7/7/7
f 2/2/2 5/5/5 12/12/12
f 8/8/8 7/7/7 13/13/13
f 7/7/7 12/12/12 14/14/14
f 13/13/13 7/7/7 14/14/14
f 8/8/8 13/13/13 15/15/15
f 15/15/15 16/16/16 8/8/8
f 17/17/17 16/16/16 15/15/15
f 18/18/18 17/17/17 15/15/15
f 18/18/18 15/15/15 19/19/19
f 19/19/19 15/15/15 13/13/13
f 20/20/20 18/18/18 19/19/19
f 13/13/13 14/14/14 21/21/21
f 13/13/13 21/21/21 19/19/19
f 20/20/20 19/19/19 22/22/22
f 21/21/21 22/22/22 19/19/19
f 23/23/23 20/20/20 22/22/22
f 24/24/24 14/14/14 12/12/12
f 14/14/14 24/24/24 21/21/21
f 25/25/25 23/23/23 22/22/22
f 25/25/25 26/26/26 23/23/23
f 26/26/26 25/25/25 27/27/27
f 12/12/12 28/28/28 24/24/24
f 28/28/28 12/12/12 5/5/5
f 5/5/5 29/29/29 28/28/28
f 5/5/5 9/9/9 29/29/29
f 30/30/30 29/29/29 9/9/9
f 11/11/11 30/30/30 9/9/9
f 28/28/28 29/29/29 31/31/31
f 29/29/29 30/30/30 31/31/31
f 30/30/30 11/11/11 32/32/32
f 32/32/32 31/31/31 30/30/30
f 11/11/11 33/33/33 32/32/32
f 24/24/24 28/28/28 34/34/34
f 28/28/28 31/31/31 34/34/34
f 35/35/35 34/34/34 31/31/31
f 24/24/24 34/34/34 36/36/36
f 36/36/36 34/34/34 35/35/35
f 24/24/24 36/36/36 37/37/37
f 24/24/24 37/37/37 21/21/21
f 32/32/32 38/38/38 31/31/31
f 31/31/31 38/38/38 35/35/35
f 32/32/32 39/39/39 38/38/38
f 38/38/38 39/39/39 35/35/35
f 40/40/40 32/32/32 33/33/33
f 32/32/32 40/40/40 39/39/39
f 41/41/41 40/40/40 33/33/33
f 40/40/40 41/41/41 42/42/42
f 43/43/43 40/40/40 42/42/42
f 40/40/40 43/43/43 39/39/39
f 42/42/42 44/44/44 43/43/43
f 36/36/36 45/45/45 37/37/37
f 45/45/45 36/36/36 35/35/35
f 21/21/21 37/37/37 46/46/46
f 22/22/22 21/21/21 46/46/46
f 46/46/46 37/37/37 47/47/47
f 45/45/45 47/47/47 37/37/37
f 48/48/48 22/22/22 46/46/46
f 46/46/46 47/47/47 48/48/48
f 25/25/25 22/22/22 48/48/48
f 25/25/25 48/48/48 49/49/49
f 25/25/25 49/49/49 27/27/27
f 47/47/47 50/50/50 48/48/48
f 48/48/48 50/50/50 49/49/49
f 47/47/47 45/45/45 51/51/51
f 47/47/47 51/51/51 50/50/50
f 45/45/45 35/35/35 52/52/52
f 45/45/45 52/52/52 51/51/51
f 49/49/49 53/53/53 27/27/27
f 53/53/53 54/54/54 27/27/27
f 54/54/54 53/53/53 55/55/55
f 50/50/50 56/56/56 49/49/49
f 56/56/56 53/53/53 49/49/49
f 55/55/55 53/53/53 57/57/57
f 57/57/57 53/53/53 56/56/56
f 58/58/58 55/55/55 57/57/57
f 51/51/51 59/59/59 50/50/50
f 50/50/50 59/59/59 56/56/56
f 35/35/35 60/60/60 52/52/52
f 60/60/60 61/61/61 52/52/52
f 60/60/60 35/35/35 39/39/39
f 61/61/61 60/60/60 39/39/39
f 52/52/52 62/62/62 51/51/51
f 62/62/62 59/59/59 51/51/51
f 61/61/61 62/62/62 52/52/52
f 59/59/59 63/63/63 56/56/56
f 57/57/57 56/56/56 63/63/63
f 64/64/64 58/58/58 57/57/57
f 65/65/65 58/58/58 64/64/64
f 59/59/59 62/62/62 66/66/66
f 66/66/66 63/63/63 59/59/59
f 67/67/67 57/57/57 63/63/63
f 57/57/57 67/67/67 64/64/64
f 66/66/66 67/67/67 63/63/63
f 68/68/68 65/65/65 64/64/64
f 69/69/69 65/65/65 68/68/68
f 70/70/70 69/69/69 68/68/68
f 70/70/70 68/68/68 71/71/71
f 68/68/68 64/64/64 72/72/72
f 72/72/72 71/71/71 68/68/68
f 67/67/67 72/72/72 64/64/64
f 62/62/62 73/73/73 66/66/66
f 73/73/73 62/62/62 61/61/61
f 74/74/74 71/71/71 72/72/72
f 75/75/75 71/71/71 74/74/74
f 66/66/66 76/76/76 67/67/67
f 73/73/73 76/76/76 66/66/66
f 77/77/77 72/72/72 67/67/67
f 74/74/74 72/72/72 77/77/77
f 76/76/76 77/77/77 67/67/67
f 74/74/74 78/78/78 75/75/75
f 75/75/75 78/78/78 79/79/79
f 78/78/78 80/80/80 79/79/79
f 81/81/81 74/74/74 77/77/77
f 81/81/81 78/78/78 74/74/74
f 77/77/77 76/76/76 81/81/81
f 80/80/80 78/78/78 82/82/82
f 82/82/82 78/78/78 81/81/81
f 83/83/83 80/80/80 82/82/82
f 84/84/84 76/76/76 73/73/73
f 84/84/84 73/73/73 61/61/61
f 85/85/85 81/81/81 76/76/76
f 85/85/85 76/76/76 84/84/84
f 81/81/81 85/85/85 82/82/82
f 83/83/83 82/82/82 86/86/86
f 87/87/87 83/83/83 86/86/86
f 86/86/86 44/44/44 87/87/87
f 84/84/84 61/61/61 88/88/88
f 88/88/88 85/85/85 84/84/84
f 89/89/89 82/82/82 85/85/85
f 86/86/86 82/82/82 89/89/89
f 89/89/89 85/85/85 88/88/88
f 90/90/90 44/44/44 86/86/86
f 89/89/89 90/90/90 86/86/86
f 90/90/90 89/89/89 88/88/88
f 44/44/44 90/90/90 43/43/43
f 88/88/88 43/43/43 90/90/90
f 91/91/91 88/88/88 61/61/61
f 91/91/91 43/43/43 88/88/88
f 39/39/39 91/91/91 61/61/61
f 39/39/39 43/43/43 91/91/91
