g head_geo
v -0.09671069 1.348794 0.05042201
v -0.09720066 1.380803 0.0756247
v -0.09320626 1.354157 0.07857552
v -0.08977868 1.328734 0.07711068
v -0.08929592 1.304934 0.04691703
v -0.09912799 1.342645 0.02217813
v -0.0860418 1.308566 0.07336503
v -0.08200472 1.290138 0.06741827
v -0.07983039 1.274921 0.05898688
v -0.08892293 1.294251 0.02202658
v -0.08254996 1.277331 0.02936024
v -0.07714208 1.26916 0.02003483
v -0.07449175 1.265807 0.04069159
v -0.08855013 1.294935 0.0003367667
v -0.06837929 1.257589 0.03392553
v -0.0801982 1.283207 -0.01736255
v -0.09638041 1.316016 -0.01487856
v -0.04141844 1.260497 -0.02278948
v -0.03842124 1.251686 0.005148994
v -0.02364048 1.241949 0.02437679
v -0.05488029 1.248362 0.04967818
v -0.04139223 1.240274 0.06194051
v -0.02293767 1.235224 0.05226301
v -0.02600565 1.231752 0.07481829
v -7.662641E-10 1.232861 0.03669946
v -7.662641E-10 1.228014 0.06720906
v -0.01700922 1.230209 0.06967252
v -0.003133657 1.222213 0.0886986
v -7.662641E-10 1.220939 0.08992475
v 0.003133656 1.222213 0.0886986
v 0.02293767 1.235224 0.05226301
v 0.02364048 1.241949 0.02437679
v 0.01700922 1.230209 0.06967252
v 0.02600565 1.231752 0.07481829
v 0.04139223 1.240274 0.06194051
v 0.05488028 1.248362 0.04967818
v 0.06837929 1.257589 0.03392553
v 0.03842124 1.251686 0.005148994
v 0.07714208 1.26916 0.02003483
v 0.04141844 1.260497 -0.02278948
v 0.07449175 1.265807 0.04069159
v 0.0801982 1.283207 -0.01736255
v 0.08855013 1.294935 0.0003367667
v 0.09638041 1.316016 -0.01487856
v 0.08892293 1.294251 0.02202658
v 0.08254996 1.277331 0.02936024
v 0.08929591 1.304934 0.04691703
v 0.0798304 1.274921 0.05898688
v 0.09912799 1.342645 0.02217813
v 0.08200471 1.290138 0.06741827
v 0.08604181 1.308566 0.07336503
v 0.08977868 1.328734 0.07711068
v 0.0967107 1.348794 0.05042201
v 0.09320626 1.354157 0.07857552
v 0.09720065 1.380803 0.0756247
v -0.1025387 1.349315 -0.00358461
v -0.09912799 1.342645 0.02217813
v -0.1161252 1.353246 0.000613932
v -0.1221565 1.348547 -0.01037398
v -0.10091 1.333199 -0.01488691
v -0.122507 1.338769 -0.01702369
v -0.09638041 1.316016 -0.01487856
v -0.1192045 1.313594 -0.01628424
v -0.1074172 1.28863 -0.005852758
v -0.08855013 1.294935 0.0003367667
v -0.09483869 1.284915 0.007300143
v -0.08892293 1.294251 0.02202658
v -0.1161456 1.309682 -0.00588522
v -0.09483869 1.284915 0.007300143
v -0.1237167 1.33581 -0.01036934
v -0.1221565 1.348547 -0.01037398
v -0.1225066 1.343428 -0.004626691
v -0.1161252 1.353246 0.000613932
v -0.117554 1.347615 0.0030248
v -0.08892293 1.294251 0.02202658
v -0.09912799 1.342645 0.02217813
v -0.08904912 1.419487 0.1018586
v -0.08395226 1.444826 0.09800504
v -0.06280275 1.450086 0.1153074
v -0.06885274 1.420416 0.1207983
v -0.04636652 1.418739 0.1288864
v -0.034171 1.454009 0.1226155
v -0.0214797 1.415628 0.1339243
v -7.662641E-10 1.453079 0.1270784
v -7.662641E-10 1.413285 0.1355218
v 0.0214797 1.415628 0.1339243
v 0.034171 1.454009 0.1226155
v 0.04636652 1.418739 0.1288864
v 0.06280275 1.450086 0.1153074
v 0.06885273 1.420416 0.1207983
v 0.08904912 1.419487 0.1018586
v 0.08395226 1.444826 0.09800504
v 0.1025387 1.349315 -0.00358461
v 0.1161252 1.353246 0.000613932
v 0.09912799 1.342645 0.02217813
v 0.1221565 1.348547 -0.01037398
v 0.10091 1.333199 -0.01488691
v 0.1225069 1.338769 -0.01702369
v 0.09638041 1.316016 -0.01487856
v 0.1192045 1.313594 -0.01628424
v 0.1074172 1.28863 -0.005852758
v 0.08855013 1.294935 0.0003367667
v 0.09483869 1.284915 0.007300143
v 0.08892293 1.294251 0.02202658
v 0.1161456 1.309682 -0.00588522
v 0.09483869 1.284915 0.007300143
v 0.1237167 1.33581 -0.01036934
v 0.1221565 1.348547 -0.01037398
v 0.1225066 1.343428 -0.004626691
v 0.1161252 1.353246 0.000613932
v 0.117554 1.347615 0.0030248
v 0.08892293 1.294251 0.02202658
v 0.09912799 1.342645 0.02217813
vt 0.1280518 0.4074707
vt 0.1375732 0.4387207
vt 0.1429443 0.4125977
vt 0.1420898 0.3886719
vt 0.1326904 0.3620605
vt 0.09991455 0.4035645
vt 0.144165 0.3664551
vt 0.1480713 0.3464355
vt 0.1513672 0.3320312
vt 0.1069336 0.3588867
vt 0.1345215 0.3310547
vt 0.1264648 0.3186035
vt 0.1561279 0.3166504
vt 0.09362793 0.3583984
vt 0.1575928 0.3034668
vt 0.08135986 0.333252
vt 0.08374023 0.3796387
vt 0.08508301 0.2990723
vt 0.1281738 0.2753906
vt 0.1824951 0.2485352
vt 0.1835938 0.2941895
vt 0.2020264 0.2890625
vt 0.2055664 0.2617188
vt 0.2198486 0.2839355
vt 0.25 0.2365723
vt 0.25 0.2548828
vt 0.2263184 0.2700195
vt 0.2451172 0.2709961
vt 0.25 0.2705078
vt 0.2548828 0.2709961
vt 0.2944336 0.2617188
vt 0.3173828 0.2485352
vt 0.2736816 0.2700195
vt 0.2800293 0.2839355
vt 0.2978516 0.2890625
vt 0.3164062 0.2941895
vt 0.3425293 0.3034668
vt 0.3718262 0.2753906
vt 0.3735352 0.3186035
vt 0.4150391 0.2990723
vt 0.34375 0.3166504
vt 0.4187012 0.333252
vt 0.4064941 0.3583984
vt 0.4162598 0.3796387
vt 0.3930664 0.3588867
vt 0.3654785 0.3310547
vt 0.3674316 0.3620605
vt 0.3486328 0.3320312
vt 0.4001465 0.4035645
vt 0.3518066 0.3464355
vt 0.355957 0.3664551
vt 0.3579102 0.3886719
vt 0.3720703 0.4074707
vt 0.3571777 0.4125977
vt 0.3623047 0.4387207
vt 0.1026001 0.2181396
vt 0.1190186 0.2359619
vt 0.1132812 0.2099609
vt 0.1069946 0.199585
vt 0.08557129 0.2119141
vt 0.09765625 0.1945801
vt 0.06829834 0.2086182
vt 0.07678223 0.1921387
vt 0.05395508 0.1834717
vt 0.04473877 0.199707
vt 0.03848267 0.1890869
vt 0.02531433 0.1989746
vt 0.07318115 0.184082
vt 0.04772949 0.1672363
vt 0.09539795 0.1883545
vt 0.1066284 0.1873779
vt 0.1016235 0.1828613
vt 0.1099243 0.175293
vt 0.1043701 0.1748047
vt 0.05480957 0.152832
vt 0.09783936 0.152832
vt 0.15979 0.4768066
vt 0.1658936 0.4929199
vt 0.1875 0.4934082
vt 0.1804199 0.4777832
vt 0.2025146 0.4760742
vt 0.2078857 0.4936523
vt 0.2280273 0.4731445
vt 0.25 0.4934082
vt 0.25 0.4707031
vt 0.2719727 0.4731445
vt 0.2922363 0.4936523
vt 0.2976074 0.4760742
vt 0.3125 0.4934082
vt 0.3195801 0.4777832
vt 0.3400879 0.4768066
vt 0.3342285 0.4929199
vt 0.3974609 0.2181396
vt 0.3867188 0.2099609
vt 0.3811035 0.2359619
vt 0.3930664 0.199585
vt 0.4145508 0.2119141
vt 0.4023438 0.1945801
vt 0.4316406 0.2086182
vt 0.4230957 0.1921387
vt 0.4460449 0.1834717
vt 0.4553223 0.199707
vt 0.4614258 0.1890869
vt 0.4746094 0.1989746
vt 0.4267578 0.184082
vt 0.4523926 0.1672363
vt 0.404541 0.1883545
vt 0.3933105 0.1873779
vt 0.3984375 0.1828613
vt 0.3901367 0.175293
vt 0.3955078 0.1748047
vt 0.4453125 0.152832
vt 0.4020996 0.152832
vn -0.9778458 -0.1757529 0.1137028
vn -0.9720727 -0.1077749 0.2084691
vn -0.9382145 -0.1734586 0.2994421
vn -0.9498174 -0.1669577 0.2645222
vn -0.9727172 -0.2067897 0.1051629
vn -0.932664 -0.1564217 0.3250694
vn -0.9435698 -0.220288 0.2472836
vn -0.9487181 -0.2492376 0.1944598
vn -0.8985835 -0.4264458 0.1034003
vn -0.932613 -0.2935243 0.209944
vn -0.9193787 -0.3933125 0.006923434
vn -0.66992 -0.7131578 -0.2064296
vn -0.7982019 -0.5999149 0.05455089
vn -0.6687132 -0.6502264 -0.3605943
vn -0.5645227 -0.8135253 -0.1396086
vn -0.6608265 -0.7170106 -0.22182
vn -0.01338934 -0.2467693 -0.9689818
vn -0.7544493 -0.5951877 -0.2766908
vn -0.7359637 -0.6757171 -0.04199728
vn -0.5651048 -0.8185486 0.1031255
vn -0.4692743 -0.8791795 -0.08261371
vn -0.4520158 -0.8885953 -0.07797457
vn -0.2892019 -0.9366321 -0.1976933
vn -0.427766 -0.9020827 -0.05712228
vn -1.599888E-07 -0.9669499 0.2549665
vn -0 -0.9780804 -0.208228
vn -0.2354015 -0.9521888 -0.1947374
vn -0.2681555 -0.9518232 -0.1487456
vn -0 -0.9917462 -0.1282168
vn 0.2681552 -0.9518221 -0.1487531
vn 0.289202 -0.9366326 -0.1976908
vn 0.5651045 -0.8185485 0.103127
vn 0.2354015 -0.9521896 -0.1947339
vn 0.4279418 -0.902007 -0.05700136
vn 0.4521491 -0.8885447 -0.07777876
vn 0.4693106 -0.8791764 -0.08244107
vn 0.5645226 -0.8135255 -0.1396084
vn 0.7359637 -0.6757171 -0.04199696
vn 0.6699203 -0.7131578 -0.2064287
vn 0.7543957 -0.5952879 -0.2766215
vn 0.7982017 -0.599915 0.05455219
vn 0.6608266 -0.7170105 -0.2218199
vn 0.6687131 -0.650227 -0.3605936
vn 0.01338933 -0.2467684 -0.968982
vn 0.932613 -0.2935243 0.2099441
vn 0.9193788 -0.3933123 0.006924794
vn 0.9727173 -0.2067897 0.1051621
vn 0.8985835 -0.4264453 0.1034017
vn 0.9326642 -0.1564218 0.325069
vn 0.9487181 -0.2492373 0.19446
vn 0.9435698 -0.2202885 0.2472836
vn 0.9498173 -0.1669576 0.2645225
vn 0.977846 -0.1757529 0.1137019
vn 0.9382145 -0.1734585 0.2994423
vn 0.9720728 -0.1077748 0.2084686
vn 0.3119264 0.8811697 -0.3553052
vn -0.932664 -0.1564217 0.3250694
vn -0.1322377 0.9791371 0.1542846
vn -0.2945731 0.7255615 -0.6219222
vn 0.1150495 0.1135164 -0.9868523
vn -0.3335956 0.1052508 -0.9368225
vn -0.01338934 -0.2467693 -0.9689818
vn -0.3392527 -0.2194103 -0.9147495
vn -0.2793533 -0.7913644 -0.5437869
vn -0.6687132 -0.6502264 -0.3605943
vn -0.6588678 -0.541854 0.5218118
vn -0.932613 -0.2935243 0.209944
vn -0.7916638 -0.2174953 0.5709329
vn -0.6588678 -0.541854 0.5218118
vn -0.9805861 -0.1463425 0.1305173
vn -0.2945731 0.7255615 -0.6219222
vn -0.8488201 -0.08604399 0.5216328
vn -0.1322377 0.9791371 0.1542846
vn -0.7781115 -0.08035877 0.6229647
vn -0.932613 -0.2935243 0.209944
vn -0.932664 -0.1564217 0.3250694
vn -0.6696682 0.1516216 0.7270182
vn -0.6587911 0.2537966 0.7082243
vn -0.4434513 0.2563488 0.8588575
vn -0.5010378 0.1388001 0.8542223
vn -0.2665111 0.120649 0.9562508
vn -0.2082419 0.2448754 0.9469274
vn -0.1257469 0.1375648 0.9824783
vn -0 0.2370827 0.9714895
vn -0 0.1043253 0.9945432
vn 0.1257471 0.137565 0.9824783
vn 0.2082417 0.2448753 0.9469274
vn 0.2665111 0.1206488 0.9562508
vn 0.443451 0.2563483 0.8588578
vn 0.5010377 0.1387997 0.8542224
vn 0.6696677 0.1516212 0.7270187
vn 0.6587901 0.2537961 0.7082254
vn -0.3119267 0.8811703 -0.3553035
vn 0.1322384 0.9791369 0.1542851
vn 0.9326642 -0.1564218 0.325069
vn 0.294573 0.7255616 -0.6219223
vn -0.1150495 0.1135164 -0.9868523
vn 0.3335948 0.1052505 -0.9368228
vn 0.01338933 -0.2467684 -0.968982
vn 0.3392519 -0.2194091 -0.9147501
vn 0.2793525 -0.7913649 -0.5437865
vn 0.6687131 -0.650227 -0.3605936
vn 0.6588671 -0.5418538 0.5218128
vn 0.932613 -0.2935243 0.2099441
vn 0.7916644 -0.2174953 0.570932
vn 0.6588671 -0.5418538 0.5218128
vn 0.9805863 -0.1463428 0.1305157
vn 0.294573 0.7255616 -0.6219223
vn 0.8488203 -0.08604431 0.5216324
vn 0.1322384 0.9791369 0.1542851
vn 0.7781112 -0.08035892 0.622965
vn 0.932613 -0.2935243 0.2099441
vn 0.9326642 -0.1564218 0.325069
g head_geo_0
f 3/3/3 2/2/2 1/1/1
f 4/4/4 3/3/3 1/1/1
f 5/5/5 4/4/4 1/1/1
f 1/1/1 6/6/6 5/5/5
f 7/7/7 4/4/4 5/5/5
f 8/8/8 7/7/7 5/5/5
f 8/8/8 5/5/5 9/9/9
f 6/6/6 10/10/10 5/5/5
f 11/11/11 9/9/9 5/5/5
f 10/10/10 11/11/11 5/5/5
f 11/11/11 10/10/10 12/12/12
f 13/13/13 9/9/9 11/11/11
f 13/13/13 11/11/11 12/12/12
f 10/10/10 14/14/14 12/12/12
f 15/15/15 13/13/13 12/12/12
f 14/14/14 16/16/16 12/12/12
f 14/14/14 17/17/17 16/16/16
f 16/16/16 18/18/18 12/12/12
f 18/18/18 19/19/19 12/12/12
f 19/19/19 15/15/15 12/12/12
f 20/20/20 15/15/15 19/19/19
f 21/21/21 15/15/15 20/20/20
f 22/22/22 21/21/21 20/20/20
f 23/23/23 22/22/22 20/20/20
f 22/22/22 23/23/23 24/24/24
f 25/25/25 23/23/23 20/20/20
f 25/25/25 26/26/26 23/23/23
f 23/23/23 27/27/27 24/24/24
f 26/26/26 27/27/27 23/23/23
f 24/24/24 27/27/27 28/28/28
f 27/27/27 26/26/26 28/28/28
f 26/26/26 29/29/29 28/28/28
f 29/29/29 26/26/26 30/30/30
f 26/26/26 25/25/25 31/31/31
f 31/31/31 25/25/25 32/32/32
f 26/26/26 33/33/33 30/30/30
f 33/33/33 26/26/26 31/31/31
f 33/33/33 34/34/34 30/30/30
f 33/33/33 31/31/31 34/34/34
f 31/31/31 35/35/35 34/34/34
f 35/35/35 31/31/31 32/32/32
f 36/36/36 35/35/35 32/32/32
f 37/37/37 36/36/36 32/32/32
f 37/37/37 32/32/32 38/38/38
f 37/37/37 38/38/38 39/39/39
f 38/38/38 40/40/40 39/39/39
f 41/41/41 37/37/37 39/39/39
f 40/40/40 42/42/42 39/39/39
f 42/42/42 43/43/43 39/39/39
f 44/44/44 43/43/43 42/42/42
f 43/43/43 45/45/45 39/39/39
f 46/46/46 41/41/41 39/39/39
f 45/45/45 46/46/46 39/39/39
f 46/46/46 45/45/45 47/47/47
f 48/48/48 41/41/41 46/46/46
f 48/48/48 46/46/46 47/47/47
f 45/45/45 49/49/49 47/47/47
f 47/47/47 50/50/50 48/48/48
f 51/51/51 50/50/50 47/47/47
f 52/52/52 51/51/51 47/47/47
f 49/49/49 53/53/53 47/47/47
f 52/52/52 47/47/47 53/53/53
f 54/54/54 52/52/52 53/53/53
f 55/55/55 54/54/54 53/53/53
f 58/58/58 57/57/57 56/56/56
f 56/56/56 59/59/59 58/58/58
f 60/60/60 59/59/59 56/56/56
f 61/61/61 59/59/59 60/60/60
f 61/61/61 60/60/60 62/62/62
f 63/63/63 61/61/61 62/62/62
f 64/64/64 63/63/63 62/62/62
f 64/64/64 62/62/62 65/65/65
f 66/66/66 64/64/64 65/65/65
f 65/65/65 67/67/67 66/66/66
f 68/68/68 63/63/63 64/64/64
f 63/63/63 68/68/68 61/61/61
f 69/69/69 68/68/68 64/64/64
f 68/68/68 70/70/70 61/61/61
f 61/61/61 70/70/70 71/71/71
f 72/72/72 70/70/70 68/68/68
f 70/70/70 72/72/72 71/71/71
f 68/68/68 69/69/69 72/72/72
f 71/71/71 72/72/72 73/73/73
f 74/74/74 72/72/72 69/69/69
f 72/72/72 74/74/74 73/73/73
f 75/75/75 74/74/74 69/69/69
f 74/74/74 76/76/76 73/73/73
f 75/75/75 76/76/76 74/74/74
f 79/79/79 78/78/78 77/77/77
f 80/80/80 79/79/79 77/77/77
f 79/79/79 80/80/80 81/81/81
f 82/82/82 79/79/79 81/81/81
f 81/81/81 83/83/83 82/82/82
f 84/84/84 82/82/82 83/83/83
f 83/83/83 85/85/85 84/84/84
f 85/85/85 86/86/86 84/84/84
f 87/87/87 84/84/84 86/86/86
f 86/86/86 88/88/88 87/87/87
f 89/89/89 87/87/87 88/88/88
f 90/90/90 89/89/89 88/88/88
f 89/89/89 90/90/90 91/91/91
f 92/92/92 89/89/89 91/91/91
f 95/95/95 94/94/94 93/93/93
f 96/96/96 93/93/93 94/94/94
f 96/96/96 97/97/97 93/93/93
f 96/96/96 98/98/98 97/97/97
f 97/97/97 98/98/98 99/99/99
f 98/98/98 100/100/100 99/99/99
f 100/100/100 101/101/101 99/99/99
f 99/99/99 101/101/101 102/102/102
f 101/101/101 103/103/103 102/102/102
f 104/104/104 102/102/102 103/103/103
f 100/100/100 105/105/105 101/101/101
f 105/105/105 100/100/100 98/98/98
f 105/105/105 106/106/106 101/101/101
f 107/107/107 105/105/105 98/98/98
f 107/107/107 98/98/98 108/108/108
f 107/107/107 109/109/109 105/105/105
f 109/109/109 107/107/107 108/108/108
f 106/106/106 105/105/105 109/109/109
f 109/109/109 108/108/108 110/110/110
f 109/109/109 111/111/111 106/106/106
f 111/111/111 109/109/109 110/110/110
f 111/111/111 112/112/112 106/106/106
f 113/113/113 111/111/111 110/110/110
f 113/113/113 112/112/112 111/111/111
