g bf_geo
v 0.13856 1.129705 -0.1396913
v 0.2300911 1.202148 -0.1099356
v 0.2405668 1.111582 -0.1328983
v 0.2861821 1.174583 -0.1034412
v 0.3166919 1.168715 -0.1201229
v 0.2735764 1.232533 -0.0421041
v 0.3158028 1.209584 -0.04672498
v 0.3448839 1.203031 -0.04619689
v 0.325299 1.179543 0.05746273
v 0.2979415 1.203383 0.006946813
v 0.2584481 1.2121 0.03120758
v 0.2644567 1.167405 0.07634357
v 0.2767732 1.0999 0.1103375
v 0.2039536 1.14803 0.08746564
v 0.1982174 1.07907 0.1058128
v 0.1477388 1.096849 0.09702026
v 0.13856 1.129705 -0.1396913
v 0.2300911 1.202148 -0.1099356
v 0.2407014 1.11991 -0.1428482
v 0.2846435 1.193208 -0.1164262
v 0.2735764 1.232533 -0.0421041
v 0.3120621 1.187109 -0.1431907
v 0.2407014 1.11991 -0.1428482
v 0.3186062 1.225164 -0.04909347
v 0.36015 1.247294 -0.04849837
v 0.3423275 1.222415 0.06021264
v 0.2959485 1.213139 0.01734189
v 0.2584481 1.2121 0.03120758
v 0.267077 1.182774 0.08125935
v 0.2840446 1.117646 0.1183094
v 0.2039536 1.14803 0.08746564
v 0.1973027 1.085247 0.1160282
v 0.1477388 1.096849 0.09702026
v -0.13856 1.129705 -0.1396913
v -0.2405668 1.111582 -0.1328983
v -0.2300911 1.202148 -0.1099356
v -0.2861821 1.174583 -0.1034412
v -0.2735764 1.232533 -0.0421041
v -0.3158028 1.209584 -0.04672498
v -0.3166919 1.168715 -0.1201229
v -0.2405668 1.111582 -0.1328983
v -0.3448839 1.203031 -0.04619689
v -0.325299 1.179543 0.05746273
v -0.2979415 1.203383 0.006946813
v -0.2584481 1.2121 0.03120758
v -0.2644567 1.167405 0.07634357
v -0.2767732 1.0999 0.1103375
v -0.2039536 1.14803 0.08746564
v -0.1982174 1.07907 0.1058128
v -0.1477388 1.096849 0.09702026
v -0.13856 1.129705 -0.1396913
v -0.2407014 1.11991 -0.1428482
v -0.2300911 1.202148 -0.1099356
v -0.2846435 1.193208 -0.1164262
v -0.2735764 1.232533 -0.0421041
v -0.3120621 1.187109 -0.1431907
v -0.2407014 1.11991 -0.1428482
v -0.3186062 1.225164 -0.04909347
v -0.36015 1.247294 -0.04849837
v -0.3423275 1.222415 0.06021264
v -0.2959485 1.213139 0.01734189
v -0.2584481 1.2121 0.03120758
v -0.267077 1.182774 0.08125935
v -0.2840446 1.117646 0.1183094
v -0.2039536 1.14803 0.08746564
v -0.1973027 1.085247 0.1160282
v -0.1477388 1.096849 0.09702026
v 0.04185597 1.346175 -0.1037075
v -1.974194E-17 1.351546 -0.1137921
v -1.940275E-17 1.383989 -0.1564784
v 0.07125889 1.37942 -0.126639
v 0.06627026 1.338086 -0.0405877
v 0.09327028 1.375496 -0.05850595
v 0.06641677 1.320136 0.01010961
v 0.08436809 1.348365 0.02239385
v 0.04457292 1.296685 0.05314808
v 0.05933612 1.323005 0.06622391
v 0.00905217 1.26487 0.07929244
v 0.01310282 1.286637 0.09250347
v -0.04185597 1.346175 -0.1037075
v -1.940275E-17 1.383989 -0.1564784
v -1.974194E-17 1.351546 -0.1137921
v -0.07125889 1.37942 -0.126639
v -0.06627026 1.338086 -0.0405877
v -0.09327028 1.375496 -0.05850595
v -0.06641677 1.320136 0.01010961
v -0.08436809 1.348365 0.02239385
v -0.04457292 1.296685 0.05314808
v -0.05933612 1.323005 0.06622391
v -0.00905217 1.26487 0.07929244
v -0.01310282 1.286637 0.09250347
v -0.2215835 0.5365575 0.09083363
v -0.1909793 0.5294223 0.1157089
v -0.1764755 0.5817992 0.1117163
v -0.207596 0.5889343 0.086841
v -0.1459424 0.5107879 0.1223997
v -0.1119015 0.5122797 0.1322547
v -0.1130159 0.5650026 0.1304725
v -0.1467926 0.5635108 0.1206175
v -0.07143503 0.9634014 0.09620139
v -0.04838924 0.9931317 0.1057407
v -0.08488781 1.026881 0.09471278
v -0.1075474 0.9967701 0.07387485
v -0.1227138 0.8530549 0.0617152
v -0.1052207 0.8299536 0.08463435
v -0.1056854 0.8435091 0.08099867
v -0.1231666 0.8302339 0.07060441
v -0.1251283 0.7837858 0.07999951
v -0.1040001 0.7843526 0.09233066
v -0.1289596 0.7317729 0.09329079
v -0.1069072 0.7317834 0.1038091
v -0.1358542 0.6659351 0.1077756
v -0.1134183 0.6656337 0.1171884
v -0.1407484 0.5637777 0.122381
v -0.1189186 0.5647419 0.1287502
v -0.127066 0.8515166 0.0595769
v -0.1170267 0.8305067 0.07651184
v -0.1125127 0.8444967 0.07724092
v -0.1369008 0.8308387 0.06120118
v -0.156434 0.7825307 0.06472449
v -0.1352409 0.7832416 0.08060197
v -0.1704773 0.7336409 0.07005665
v -0.1484208 0.7345743 0.08638621
v -0.1843198 0.6757197 0.07823637
v -0.1624726 0.6750484 0.09485237
v -0.2018514 0.5876172 0.09143282
v -0.1833682 0.5833795 0.1062068
v 0.03518924 1.182335 0.1101297
v 0.005716888 1.143156 0.1171226
v 0.07729067 1.151232 0.1082426
v 0.0506448 1.112331 0.1141867
v -0.2515115 1.088239 -0.4433436
v -0.242154 1.101507 -0.5076138
v -0.2513995 1.088409 -0.5076138
v -0.2423009 1.101284 -0.4433436
v -0.2516765 1.087988 -0.3487238
v -0.2425172 1.100956 -0.3487238
v -0.2518228 1.087766 -0.2648156
v -0.2427091 1.100664 -0.2648156
v -0.25198 1.087527 -0.1746589
v -0.2429152 1.100351 -0.1746589
v -0.2521258 1.087306 -0.09104826
v -0.2431063 1.100061 -0.09104826
v -0.2522295 1.087148 -0.02627877
v -0.2432424 1.099854 -0.02627877
v -0.2543458 1.084247 -0.006692837
v -0.2408114 1.10368 -0.006953409
v -0.2408114 1.10368 -0.03210968
v -0.2543458 1.084247 -0.0318491
v -0.2547916 1.083258 -0.5072075
v -0.2387619 1.106658 -0.5072075
v -0.2387619 1.106658 -0.5435851
v -0.2547916 1.083258 -0.5435851
v 0.2515115 1.088239 -0.4433436
v 0.2513995 1.088409 -0.5076138
v 0.242154 1.101507 -0.5076138
v 0.2423009 1.101284 -0.4433436
v 0.2516765 1.087988 -0.3487238
v 0.2425172 1.100956 -0.3487238
v 0.2518228 1.087766 -0.2648156
v 0.2427091 1.100664 -0.2648156
v 0.25198 1.087527 -0.1746589
v 0.2429152 1.100351 -0.1746589
v 0.2521258 1.087306 -0.09104826
v 0.2431063 1.100061 -0.09104826
v 0.2522295 1.087148 -0.02627877
v 0.2432424 1.099854 -0.02627877
v 0.2543458 1.084247 -0.006692837
v 0.2408114 1.10368 -0.03210968
v 0.2408114 1.10368 -0.006953409
v 0.2543458 1.084247 -0.0318491
v 0.2547916 1.083258 -0.5072075
v 0.2547916 1.083258 -0.5435851
v 0.2387619 1.106658 -0.5435851
v 0.2387619 1.106658 -0.5072075
v 0.2964205 1.012306 -0.05353734
v 0.2877983 1.028761 -0.07149694
v 0.2938486 1.043948 -0.03812677
v 0.2851186 1.060492 -0.04083173
v 0.3049318 1.033837 -0.03765424
v 0.2962779 1.074849 -0.003528404
v 0.3003283 1.056581 -0.003528403
v 0.3048528 1.046984 -0.004341112
v 0.3049318 1.033837 0.03059743
v 0.2938486 1.043948 0.03106996
v 0.2851186 1.060492 0.03377492
v 0.2964205 1.012306 0.04648053
v 0.2877983 1.028761 0.06444013
vt 0.6020508 0.7695312
vt 0.6020508 0.7329102
vt 0.6396484 0.7514648
vt 0.6425781 0.7197266
vt 0.65625 0.7241211
vt 0.6020508 0.6958008
vt 0.640625 0.6928711
vt 0.6542969 0.6933594
vt 0.6523438 0.6552734
vt 0.6318359 0.6733398
vt 0.6020508 0.6601562
vt 0.6318359 0.6430664
vt 0.6503906 0.6142578
vt 0.6020508 0.6157227
vt 0.6328125 0.5996094
vt 0.6020508 0.5844727
vt 0.6259766 0.934082
vt 0.6259766 0.9013672
vt 0.659668 0.9306641
vt 0.6616211 0.8994141
vt 0.6259766 0.8725586
vt 0.6875 0.9033203
vt 0.659668 0.9306641
vt 0.6621094 0.8735352
vt 0.6977539 0.8710938
vt 0.6899414 0.8432617
vt 0.6499023 0.8510742
vt 0.6259766 0.84375
vt 0.6479492 0.828125
vt 0.6826172 0.8056641
vt 0.6259766 0.8085938
vt 0.6513672 0.7841797
vt 0.6259766 0.7827148
vt 0.6020508 0.7695312
vt 0.6396484 0.7514648
vt 0.6020508 0.7329102
vt 0.6425781 0.7197266
vt 0.6020508 0.6958008
vt 0.640625 0.6928711
vt 0.65625 0.7241211
vt 0.6396484 0.7514648
vt 0.6542969 0.6933594
vt 0.6523438 0.6552734
vt 0.6318359 0.6733398
vt 0.6020508 0.6601562
vt 0.6318359 0.6430664
vt 0.6503906 0.6142578
vt 0.6020508 0.6157227
vt 0.6328125 0.5996094
vt 0.6020508 0.5844727
vt 0.6259766 0.934082
vt 0.659668 0.9306641
vt 0.6259766 0.9013672
vt 0.6616211 0.8994141
vt 0.6259766 0.8725586
vt 0.6875 0.9033203
vt 0.659668 0.9306641
vt 0.6621094 0.8735352
vt 0.6977539 0.8710938
vt 0.6899414 0.8432617
vt 0.6499023 0.8510742
vt 0.6259766 0.84375
vt 0.6479492 0.828125
vt 0.6826172 0.8056641
vt 0.6259766 0.8085938
vt 0.6513672 0.7841797
vt 0.6259766 0.7827148
vt 0.7446289 0.8007812
vt 0.7211914 0.7885742
vt 0.706543 0.8081055
vt 0.7353516 0.8286133
vt 0.7763672 0.8056641
vt 0.7685547 0.8330078
vt 0.8032227 0.800293
vt 0.8081055 0.8212891
vt 0.8261719 0.7890625
vt 0.8305664 0.8066406
vt 0.8486328 0.7744141
vt 0.8530273 0.7875977
vt 0.7446289 0.8007812
vt 0.706543 0.8081055
vt 0.7211914 0.7885742
vt 0.7353516 0.8286133
vt 0.7763672 0.8056641
vt 0.7685547 0.8330078
vt 0.8032227 0.800293
vt 0.8081055 0.8212891
vt 0.8261719 0.7890625
vt 0.8305664 0.8066406
vt 0.8486328 0.7744141
vt 0.8530273 0.7875977
vt 0.4624023 0.6694336
vt 0.4868164 0.6694336
vt 0.4868164 0.7036133
vt 0.4624023 0.7036133
vt 0.3874512 0.3859863
vt 0.4101562 0.3859863
vt 0.4101562 0.4189453
vt 0.3874512 0.4189453
vt 0.2573242 0.9125977
vt 0.2573242 0.9331055
vt 0.2314453 0.9331055
vt 0.2314453 0.9125977
vt 0.01396942 0.3325195
vt 0.02590942 0.3193359
vt 0.02590942 0.3254395
vt 0.01396942 0.3193359
vt 0.01396942 0.3000488
vt 0.02590942 0.3000488
vt 0.01396942 0.2854004
vt 0.02590942 0.2854004
vt 0.01396942 0.2697754
vt 0.02590942 0.2697754
vt 0.01396942 0.2324219
vt 0.02590942 0.2324219
vt 0.1226807 0.09753418
vt 0.1361084 0.0880127
vt 0.1361084 0.09753418
vt 0.1226807 0.0880127
vt 0.1226807 0.07922363
vt 0.1361084 0.07922363
vt 0.1226807 0.06896973
vt 0.1361084 0.06896973
vt 0.1226807 0.06011963
vt 0.1361084 0.06011963
vt 0.1226807 0.008743286
vt 0.1361084 0.008743286
vt 0.6850586 0.2188721
vt 0.6850586 0.1842041
vt 0.7246094 0.2188721
vt 0.7246094 0.1842041
vt 0.01730347 0.8828125
vt 0.009346008 0.9145508
vt 0.01730347 0.9145508
vt 0.009376526 0.8828125
vt 0.01730347 0.8359375
vt 0.009429932 0.8359375
vt 0.01730347 0.7939453
vt 0.009468079 0.7939453
vt 0.01730347 0.7495117
vt 0.009513855 0.7495117
vt 0.01730347 0.7080078
vt 0.009552002 0.7080078
vt 0.01730347 0.6782227
vt 0.00958252 0.6787109
vt 0.133667 0.3447266
vt 0.1154785 0.3447266
vt 0.1154785 0.3671875
vt 0.133667 0.3671875
vt 0.4416504 0.6899414
vt 0.4182129 0.6899414
vt 0.4182129 0.7163086
vt 0.4416504 0.7163086
vt 0.01730347 0.8828125
vt 0.01730347 0.9145508
vt 0.009346008 0.9145508
vt 0.009376526 0.8828125
vt 0.01730347 0.8359375
vt 0.009429932 0.8359375
vt 0.01730347 0.7939453
vt 0.009468079 0.7939453
vt 0.01730347 0.7495117
vt 0.009513855 0.7495117
vt 0.01730347 0.7080078
vt 0.009552002 0.7080078
vt 0.01730347 0.6782227
vt 0.00958252 0.6787109
vt 0.133667 0.3447266
vt 0.1154785 0.3671875
vt 0.1154785 0.3447266
vt 0.133667 0.3671875
vt 0.4416504 0.6899414
vt 0.4416504 0.7163086
vt 0.4182129 0.7163086
vt 0.4182129 0.6899414
vt 0.1356201 0.949707
vt 0.1420898 0.9755859
vt 0.1083374 0.965332
vt 0.1057129 0.9838867
vt 0.1084595 0.949707
vt 0.07745361 0.9858398
vt 0.07745361 0.9658203
vt 0.07745361 0.949707
vt 0.04641724 0.949707
vt 0.04650879 0.965332
vt 0.0491333 0.9838867
vt 0.0191803 0.949707
vt 0.01277161 0.9755859
vn -0.1094704 -0.2561719 0.9604125
vn -0.2410108 -0.4047351 0.8821016
vn -0.1392272 -0.2584779 0.9559314
vn -0.1283941 -0.6306872 0.7653421
vn 0.1566557 -0.7607445 0.6298625
vn -0.4432131 -0.8504827 0.283269
vn -0.3091357 -0.9312961 0.192673
vn -0.2204087 -0.9740672 0.05111811
vn -0.09171633 -0.8061498 -0.5845601
vn -0.3370676 -0.8743289 -0.3491915
vn -0.3341774 -0.7513916 -0.5689781
vn -0.03586118 -0.586958 -0.8088228
vn 0.08297302 -0.4360983 -0.8960657
vn -0.02692369 -0.3458678 -0.9378969
vn 0.07633199 -0.3240746 -0.9429471
vn 0.07522216 -0.2622242 -0.9620707
vn -0.007021938 -0.3723322 0.9280729
vn -0.013475 -0.536907 0.8435337
vn 0.1786754 -0.4468317 0.8765937
vn 0.1453916 -0.7538844 0.640718
vn -0.1226546 -0.9772819 0.1728467
vn 0.4052894 -0.7568526 0.5127521
vn 0.5188758 -0.547667 0.6563755
vn 0.2699037 -0.9534996 0.1341286
vn 0.4691666 -0.8819658 0.04493405
vn 0.3042258 -0.8647009 -0.3996739
vn 0.1691153 -0.9610109 -0.2187652
vn 0.03956019 -0.890259 -0.4537333
vn 0.1849935 -0.6389247 -0.7466945
vn 0.1434194 -0.4608656 -0.8758046
vn 0.2075463 -0.4955411 -0.8434238
vn 0.2012212 -0.4331126 -0.8785918
vn 0.2364444 -0.4230009 -0.8747367
vn 0.1094704 -0.2561719 0.9604125
vn 0.1392272 -0.2584778 0.9559315
vn 0.2410108 -0.404735 0.8821017
vn 0.1283941 -0.6306872 0.7653421
vn 0.4432133 -0.8504826 0.2832693
vn 0.3091358 -0.9312959 0.1926733
vn -0.1566557 -0.7607445 0.6298624
vn -0 1 0
vn 0.2204088 -0.9740672 0.0511186
vn 0.09171632 -0.8061504 -0.5845593
vn 0.3370675 -0.8743289 -0.3491909
vn 0.3341773 -0.7513917 -0.568978
vn 0.03586111 -0.5869582 -0.8088226
vn -0.0829731 -0.4360984 -0.8960657
vn 0.02692361 -0.3458677 -0.9378969
vn -0.07633206 -0.3240746 -0.9429471
vn -0.07522225 -0.2622242 -0.9620707
vn 0.007021958 -0.3723322 0.9280729
vn -0.1786754 -0.4468317 0.8765938
vn 0.01347497 -0.536907 0.8435338
vn -0.1453916 -0.7538843 0.6407182
vn 0.1226546 -0.9772817 0.1728476
vn -0.4052894 -0.7568524 0.5127523
vn -0.5188758 -0.5476669 0.6563755
vn -0.2699036 -0.9534995 0.1341293
vn -0.4691665 -0.8819658 0.04493428
vn -0.3042258 -0.8647011 -0.3996732
vn -0.1691153 -0.9610111 -0.2187639
vn -0.03956013 -0.8902595 -0.4537324
vn -0.1849936 -0.6389249 -0.7466943
vn -0.1434194 -0.4608656 -0.8758046
vn -0.2075465 -0.4955414 -0.8434235
vn -0.2012213 -0.4331127 -0.8785917
vn -0.2364444 -0.4230009 -0.8747366
vn -0.44349 0.748634 0.4928121
vn -0 0.7439021 0.6682886
vn -0 0.7439021 0.6682886
vn -0.4530391 0.7476884 0.4855075
vn -0.7487925 0.6285039 0.2104582
vn -0.703178 0.6638858 0.2545512
vn -0.8235351 0.5669199 0.01979757
vn -0.822189 0.5676699 0.04190771
vn -0.7768677 0.5458279 -0.3139243
vn -0.8025019 0.5523983 -0.2254924
vn -0.7244359 0.5266032 -0.4448389
vn -0.7244359 0.5266032 -0.4448389
vn 0.44349 0.7486338 0.4928125
vn -0 0.7439021 0.6682886
vn -0 0.7439021 0.6682886
vn 0.4530391 0.7476883 0.4855078
vn 0.7487925 0.628504 0.210458
vn 0.7031781 0.6638858 0.2545511
vn 0.8235351 0.5669199 0.01979738
vn 0.822189 0.5676698 0.04190749
vn 0.7768678 0.545828 -0.3139239
vn 0.802502 0.5523983 -0.2254922
vn 0.7244362 0.5266034 -0.4448383
vn 0.7244362 0.5266034 -0.4448382
vn 0.5814322 -0.217894 -0.7838742
vn 0.5814322 -0.217894 -0.7838742
vn 0.5814322 -0.217894 -0.7838742
vn 0.5814323 -0.217894 -0.7838742
vn 0.2800858 -0.02721976 -0.959589
vn 0.2800858 -0.02721976 -0.959589
vn 0.2800859 -0.02721976 -0.959589
vn 0.2800859 -0.02721976 -0.959589
vn 0.4765261 0.08045729 -0.8754711
vn 0.476526 0.08045728 -0.8754712
vn 0.4765261 0.08045729 -0.8754711
vn 0.4765261 0.08045729 -0.8754711
vn 0.6290947 -0.2528811 -0.735045
vn 0.5725834 -0.1799494 -0.7998541
vn 0.6290947 -0.2528811 -0.735045
vn 0.5792164 -0.1881591 -0.793161
vn 0.5032469 -0.1973939 -0.8412955
vn 0.5001146 -0.1998733 -0.842577
vn 0.4242588 -0.2302727 -0.8757733
vn 0.4234789 -0.230211 -0.8761669
vn 0.3606941 -0.1748312 -0.9161516
vn 0.3603978 -0.1744022 -0.91635
vn 0.3344702 -0.1372759 -0.9323546
vn 0.3344702 -0.1372759 -0.9323546
vn 0.632094 -0.2802729 -0.7224294
vn 0.5974473 -0.2869223 -0.7488206
vn 0.632094 -0.2802729 -0.7224294
vn 0.5909403 -0.2880862 -0.7535223
vn 0.5828497 -0.2669899 -0.767465
vn 0.5823125 -0.2726005 -0.7658989
vn 0.5831404 -0.2492071 -0.7732032
vn 0.5833289 -0.2495033 -0.7729654
vn 0.5809683 -0.2375064 -0.7785028
vn 0.5810707 -0.2382443 -0.7782007
vn 0.5800028 -0.2306754 -0.7812719
vn 0.5800028 -0.2306754 -0.7812718
vn -0.1123639 -0.09206782 -0.9893926
vn -0.1134671 -0.08303131 -0.9900662
vn -0.113611 -0.08184681 -0.9901484
vn -0.1147016 -0.07281695 -0.9907277
vn 0.8168864 -0.5767986 -0.0001191824
vn 0.8169411 -0.5767211 -0.0001194442
vn 0.8169412 -0.576721 -0.0001194442
vn 0.8168865 -0.5767983 -0.0001191834
vn 0.8168001 -0.5769208 -0.0001197475
vn 0.8168004 -0.5769204 -0.0001197438
vn 0.8166913 -0.5770748 -0.0001204712
vn 0.8166915 -0.5770744 -0.0001204717
vn 0.8165911 -0.5772164 -0.0001204739
vn 0.8165914 -0.5772161 -0.0001204733
vn 0.8164992 -0.5773464 -0.000116759
vn 0.8164994 -0.5773462 -0.0001167783
vn 0.816451 -0.5774149 -0.0001118064
vn 0.816451 -0.5774149 -0.0001118064
vn 0.8205817 -0.5715293 0
vn 0.820581 -0.5715302 0
vn 0.8205818 -0.5715292 0
vn 0.8205824 -0.5715282 0
vn 0.8250003 -0.5651323 0
vn 0.8250003 -0.5651323 0
vn 0.8250003 -0.5651323 0
vn 0.8250003 -0.5651323 0
vn -0.8168864 -0.5767985 -0.0001189144
vn -0.8169412 -0.576721 -0.0001191196
vn -0.8169412 -0.576721 -0.0001191196
vn -0.8168866 -0.5767982 -0.0001189152
vn -0.8168 -0.5769208 -0.0001197438
vn -0.8168004 -0.5769204 -0.000119739
vn -0.8166913 -0.5770748 -0.0001204794
vn -0.8166915 -0.5770745 -0.000120481
vn -0.8165911 -0.5772165 -0.0001203999
vn -0.8165914 -0.5772161 -0.0001203987
vn -0.8164992 -0.5773464 -0.0001167691
vn -0.8164994 -0.5773462 -0.0001167888
vn -0.816451 -0.5774149 -0.0001117237
vn -0.8164508 -0.5774149 -0.0001117237
vn -0.8205816 -0.5715296 0
vn -0.8205816 -0.5715296 0
vn -0.8205812 -0.57153 0
vn -0.8205819 -0.571529 0
vn -0.8250003 -0.5651323 0
vn -0.8250003 -0.5651323 0
vn -0.8250003 -0.5651323 0
vn -0.8250003 -0.5651323 0
vn -0.9053245 -0.2431777 0.3482128
vn -0.9259664 -0.2509931 0.2821149
vn -0.8446417 -0.4020831 0.3534255
vn -0.8854602 -0.323643 0.3334899
vn -0.6522706 -0.5564574 0.5146826
vn -0.9472901 -0.3203772 2.996308E-07
vn -0.9083194 -0.4182441 -0.005255392
vn -0.7871422 -0.6166298 0.01323111
vn -0.6659182 -0.5507519 -0.5032149
vn -0.8469471 -0.4002736 -0.3499452
vn -0.8854609 -0.3236411 -0.3334897
vn -0.9053244 -0.2431778 -0.3482131
vn -0.9259663 -0.250993 -0.2821151
g bf_geo_0
f 3/3/3 2/2/2 1/1/1
f 3/3/3 4/4/4 2/2/2
f 5/5/5 4/4/4 3/3/3
f 4/4/4 6/6/6 2/2/2
f 5/5/5 7/7/7 4/4/4
f 4/4/4 7/7/7 6/6/6
f 5/5/5 8/8/8 7/7/7
f 8/8/8 9/9/9 7/7/7
f 7/7/7 10/10/10 6/6/6
f 7/7/7 9/9/9 10/10/10
f 6/6/6 10/10/10 11/11/11
f 10/10/10 9/9/9 12/12/12
f 12/12/12 11/11/11 10/10/10
f 12/12/12 9/9/9 13/13/13
f 11/11/11 12/12/12 14/14/14
f 12/12/12 13/13/13 15/15/15
f 14/14/14 12/12/12 15/15/15
f 14/14/14 15/15/15 16/16/16
f 19/19/19 18/18/18 17/17/17
f 19/19/19 20/20/20 18/18/18
f 20/20/20 21/21/21 18/18/18
f 22/22/22 20/20/20 19/19/19
f 23/23/23 22/22/22 19/19/19
f 22/22/22 24/24/24 20/20/20
f 20/20/20 24/24/24 21/21/21
f 22/22/22 25/25/25 24/24/24
f 25/25/25 26/26/26 24/24/24
f 24/24/24 27/27/27 21/21/21
f 24/24/24 26/26/26 27/27/27
f 21/21/21 27/27/27 28/28/28
f 27/27/27 26/26/26 29/29/29
f 29/29/29 28/28/28 27/27/27
f 29/29/29 26/26/26 30/30/30
f 28/28/28 29/29/29 31/31/31
f 29/29/29 30/30/30 32/32/32
f 31/31/31 29/29/29 32/32/32
f 31/31/31 32/32/32 33/33/33
f 36/36/36 35/35/35 34/34/34
f 37/37/37 35/35/35 36/36/36
f 38/38/38 37/37/37 36/36/36
f 39/39/39 37/37/37 38/38/38
f 39/39/39 40/40/40 37/37/37
f 37/37/37 40/40/40 41/41/41
f 42/42/42 40/40/40 39/39/39
f 43/43/43 42/42/42 39/39/39
f 44/44/44 39/39/39 38/38/38
f 43/43/43 39/39/39 44/44/44
f 44/44/44 38/38/38 45/45/45
f 43/43/43 44/44/44 46/46/46
f 45/45/45 46/46/46 44/44/44
f 43/43/43 46/46/46 47/47/47
f 46/46/46 45/45/45 48/48/48
f 47/47/47 46/46/46 49/49/49
f 46/46/46 48/48/48 49/49/49
f 49/49/49 48/48/48 50/50/50
f 53/53/53 52/52/52 51/51/51
f 54/54/54 52/52/52 53/53/53
f 55/55/55 54/54/54 53/53/53
f 54/54/54 56/56/56 52/52/52
f 56/56/56 57/57/57 52/52/52
f 58/58/58 56/56/56 54/54/54
f 58/58/58 54/54/54 55/55/55
f 59/59/59 56/56/56 58/58/58
f 60/60/60 59/59/59 58/58/58
f 61/61/61 58/58/58 55/55/55
f 60/60/60 58/58/58 61/61/61
f 61/61/61 55/55/55 62/62/62
f 60/60/60 61/61/61 63/63/63
f 62/62/62 63/63/63 61/61/61
f 60/60/60 63/63/63 64/64/64
f 63/63/63 62/62/62 65/65/65
f 64/64/64 63/63/63 66/66/66
f 63/63/63 65/65/65 66/66/66
f 66/66/66 65/65/65 67/67/67
f 70/70/70 69/69/69 68/68/68
f 71/71/71 70/70/70 68/68/68
f 71/71/71 68/68/68 72/72/72
f 73/73/73 71/71/71 72/72/72
f 73/73/73 72/72/72 74/74/74
f 75/75/75 73/73/73 74/74/74
f 75/75/75 74/74/74 76/76/76
f 77/77/77 75/75/75 76/76/76
f 77/77/77 76/76/76 78/78/78
f 79/79/79 77/77/77 78/78/78
f 82/82/82 81/81/81 80/80/80
f 81/81/81 83/83/83 80/80/80
f 80/80/80 83/83/83 84/84/84
f 83/83/83 85/85/85 84/84/84
f 84/84/84 85/85/85 86/86/86
f 85/85/85 87/87/87 86/86/86
f 86/86/86 87/87/87 88/88/88
f 87/87/87 89/89/89 88/88/88
f 88/88/88 89/89/89 90/90/90
f 89/89/89 91/91/91 90/90/90
f 94/94/94 93/93/93 92/92/92
f 95/95/95 94/94/94 92/92/92
f 98/98/98 97/97/97 96/96/96
f 99/99/99 98/98/98 96/96/96
f 102/102/102 101/101/101 100/100/100
f 103/103/103 102/102/102 100/100/100
f 106/106/106 105/105/105 104/104/104
f 105/105/105 107/107/107 104/104/104
f 108/108/108 107/107/107 105/105/105
f 109/109/109 108/108/108 105/105/105
f 110/110/110 108/108/108 109/109/109
f 111/111/111 110/110/110 109/109/109
f 112/112/112 110/110/110 111/111/111
f 113/113/113 112/112/112 111/111/111
f 114/114/114 112/112/112 113/113/113
f 115/115/115 114/114/114 113/113/113
f 118/118/118 117/117/117 116/116/116
f 117/117/117 119/119/119 116/116/116
f 120/120/120 119/119/119 117/117/117
f 121/121/121 120/120/120 117/117/117
f 122/122/122 120/120/120 121/121/121
f 123/123/123 122/122/122 121/121/121
f 124/124/124 122/122/122 123/123/123
f 125/125/125 124/124/124 123/123/123
f 126/126/126 124/124/124 125/125/125
f 127/127/127 126/126/126 125/125/125
f 130/130/130 129/129/129 128/128/128
f 131/131/131 129/129/129 130/130/130
f 134/134/134 133/133/133 132/132/132
f 133/133/133 135/135/135 132/132/132
f 132/132/132 135/135/135 136/136/136
f 135/135/135 137/137/137 136/136/136
f 136/136/136 137/137/137 138/138/138
f 137/137/137 139/139/139 138/138/138
f 138/138/138 139/139/139 140/140/140
f 139/139/139 141/141/141 140/140/140
f 140/140/140 141/141/141 142/142/142
f 141/141/141 143/143/143 142/142/142
f 142/142/142 143/143/143 144/144/144
f 143/143/143 145/145/145 144/144/144
f 148/148/148 147/147/147 146/146/146
f 149/149/149 148/148/148 146/146/146
f 152/152/152 151/151/151 150/150/150
f 153/153/153 152/152/152 150/150/150
f 156/156/156 155/155/155 154/154/154
f 157/157/157 156/156/156 154/154/154
f 157/157/157 154/154/154 158/158/158
f 159/159/159 157/157/157 158/158/158
f 159/159/159 158/158/158 160/160/160
f 161/161/161 159/159/159 160/160/160
f 161/161/161 160/160/160 162/162/162
f 163/163/163 161/161/161 162/162/162
f 163/163/163 162/162/162 164/164/164
f 165/165/165 163/163/163 164/164/164
f 165/165/165 164/164/164 166/166/166
f 167/167/167 165/165/165 166/166/166
f 170/170/170 169/169/169 168/168/168
f 169/169/169 171/171/171 168/168/168
f 174/174/174 173/173/173 172/172/172
f 175/175/175 174/174/174 172/172/172
f 178/178/178 177/177/177 176/176/176
f 177/177/177 178/178/178 179/179/179
f 176/176/176 180/180/180 178/178/178
f 179/179/179 178/178/178 181/181/181
f 178/178/178 180/180/180 182/182/182
f 178/178/178 182/182/182 181/181/181
f 180/180/180 183/183/183 182/182/182
f 183/183/183 184/184/184 182/182/182
f 182/182/182 185/185/185 181/181/181
f 184/184/184 185/185/185 182/182/182
f 185/185/185 186/186/186 181/181/181
f 184/184/184 187/187/187 185/185/185
f 185/185/185 188/188/188 186/186/186
f 188/188/188 185/185/185 187/187/187
