g bf_geo
v -0.4121343 0.7481287 -0.0328599
v -0.415715 0.7210515 -0.03180167
v -0.4265634 0.7230133 -0.03038495
v -0.4358272 0.728319 -0.0007605364
v -0.4186486 0.751038 -0.001972396
v -0.4344513 0.7273603 -0.002348602
v -0.4198039 0.7544597 0.02887566
v -0.4345747 0.7303837 0.02888905
v -0.4346172 0.7294086 0.03066974
v 0.4121343 0.7481287 -0.0328599
v 0.4265634 0.7230133 -0.03038495
v 0.415715 0.7210515 -0.03180167
v 0.4358272 0.728319 -0.0007605364
v 0.4344513 0.7273603 -0.002348602
v 0.4186486 0.751038 -0.001972396
v 0.4198039 0.7544597 0.02887566
v 0.4346172 0.7294086 0.03066974
v 0.4345747 0.7303837 0.02888905
v -0.04006811 1.188672 0.00516783
v -0.02910532 1.176514 0.02123005
v -0.03752949 1.189315 0.00317188
v -0.03216609 1.175804 0.02337611
v -0.02008554 1.166073 0.03508178
v -0.02272432 1.163903 0.03714361
v -0.00858592 1.155601 0.04875207
v -0.01183586 1.15293 0.04923191
v 3.429573E-33 1.147992 0.05867407
v -0.00152849 1.142667 0.06049751
v 0.04006811 1.188672 0.00516783
v 0.03752949 1.189315 0.00317188
v 0.02910532 1.176514 0.02123005
v 0.03216609 1.175804 0.02337611
v 0.02272432 1.163903 0.03714361
v 0.02008554 1.166073 0.03508178
v 0.01183586 1.15293 0.04923191
v 0.00858592 1.155601 0.04875207
v 0.00152849 1.142667 0.06049751
v 3.429573E-33 1.147992 0.05867407
v 3.429573E-33 1.147992 0.05867407
v -0.00152849 1.142667 0.06049751
v 0.00152849 1.142667 0.06049751
v 0.00152849 1.140465 0.06250662
v -0.00152849 1.140465 0.06250662
v -0.08631697 0.7746242 -0.1432165
v 3.649263E-11 0.7911516 -0.01162189
v -1.138325E-17 0.7797989 -0.1598926
v -0.1409142 0.7636505 -0.1038604
v -0.1621765 0.7507363 -0.0466119
v -0.1524697 0.7378976 0.02815601
v -0.119871 0.7292799 0.08030134
v -0.06850336 0.7231624 0.1058512
v 5.466186E-18 0.7219555 0.1156939
v 0.06850336 0.7231624 0.1058512
v 0.119871 0.7292799 0.08030134
v 0.1524697 0.7378976 0.02815601
v 0.1621765 0.7507363 -0.0466119
v 0.1409142 0.7636505 -0.1038604
v 0.08631697 0.7746242 -0.1432165
v -1.138325E-17 0.7797989 -0.1598926
v -0.09095918 0.6803253 -0.1596773
v -2.000737E-18 0.7326429 -0.167882
v -3.150268E-31 0.6842221 -0.1754968
v -0.0870503 0.7278541 -0.1528199
v -1.138325E-17 0.7797989 -0.1598926
v -0.1543882 0.6725969 -0.1122515
v -0.08631697 0.7746242 -0.1432165
v -0.1462114 0.7178299 -0.1085709
v -0.1409142 0.7636505 -0.1038604
v -0.1848055 0.6633609 -0.04878836
v -0.1621765 0.7507363 -0.0466119
v -0.1732731 0.7056744 -0.04708936
v -0.1717518 0.6519862 0.03210159
v -0.1623521 0.6979483 0.0308955
v -0.1524697 0.7378976 0.02815601
v -0.1324444 0.642824 0.09334261
v -0.119871 0.7292799 0.08030134
v -0.1265863 0.681308 0.08973289
v -0.07549322 0.6359193 0.1172425
v -0.06850336 0.7231624 0.1058512
v -0.07293437 0.6748192 0.1130333
v -6.801389E-18 0.6338937 0.1290002
v 5.466186E-18 0.7219555 0.1156939
v -4.223414E-18 0.6731814 0.1242311
v 0.07293437 0.6748192 0.1130333
v 0.07549322 0.6359193 0.1172425
v 0.06850336 0.7231624 0.1058512
v 0.1265863 0.681308 0.08973289
v 0.1324444 0.642824 0.09334261
v 0.119871 0.7292799 0.08030134
v 0.1623521 0.6979483 0.0308955
v 0.1524697 0.7378976 0.02815601
v 0.1717518 0.6519862 0.03210159
v 0.1621765 0.7507363 -0.0466119
v 0.1732731 0.7020912 -0.04708936
v 0.1848055 0.6633609 -0.04878836
v 0.1462114 0.7178299 -0.1085709
v 0.1409142 0.7636505 -0.1038604
v 0.1543882 0.6725969 -0.1122515
v 0.08631697 0.7746242 -0.1432165
v 0.0870503 0.7278541 -0.1528199
v -1.138325E-17 0.7797989 -0.1598926
v 0.09095918 0.6803253 -0.1596773
v -2.000737E-18 0.7326429 -0.167882
v -3.150268E-31 0.6842221 -0.1754968
v -0.3870342 0.7705533 0.06581744
v -0.3758303 0.7393647 0.06624806
v -0.372983 0.7584313 0.06512213
v -0.3887538 0.7445524 0.06465839
v -0.4060987 0.7433804 0.06167551
v -0.4033214 0.7695221 0.06036735
v -0.4146266 0.757486 0.05881975
v -0.4286302 0.7316649 0.05880819
v 0.3870342 0.7705533 0.06581744
v 0.372983 0.7584313 0.06512213
v 0.3758303 0.7393647 0.06624806
v 0.3887538 0.7445524 0.06465839
v 0.4060987 0.7433804 0.06167551
v 0.4033214 0.7695221 0.06036735
v 0.4146266 0.757486 0.05881975
v 0.4286302 0.7316649 0.05880819
v -0.1213593 0.6443272 0.1189927
v -0.07957382 0.6722477 0.1193881
v -0.1127413 0.6760334 0.1053129
v -0.08821116 0.6419663 0.1315444
v -0.09731695 0.6208904 0.1415497
v -0.1316684 0.6226057 0.1291368
v -0.09450666 0.6110365 0.148136
v -0.09259208 0.6201476 0.1435701
v -0.1392272 0.6135017 0.1321782
v -0.1362549 0.6226929 0.1276434
v 0.1213593 0.6443272 0.1189927
v 0.1127413 0.6760334 0.1053129
v 0.07957382 0.6722477 0.1193881
v 0.08821116 0.6419663 0.1315444
v 0.09731695 0.6208904 0.1415497
v 0.1316684 0.6226057 0.1291368
v 0.09450666 0.6110365 0.148136
v 0.09259208 0.6201476 0.1435701
v 0.1392272 0.6135017 0.1321782
v 0.1362549 0.6226929 0.1276434
v -0.1703766 0.8127186 -0.09235138
v -0.1211089 0.8636667 -0.00791654
v -0.1435174 0.8635928 -0.09400085
v -0.147968 0.8127924 -0.006267073
v -0.1315896 0.8642904 0.08041476
v -0.1584488 0.8134161 0.08206425
v 0.1703766 0.8127186 -0.09235138
v 0.1435174 0.8635928 -0.09400085
v 0.1211089 0.8636667 -0.00791654
v 0.147968 0.8127924 -0.006267073
v 0.1315896 0.8642904 0.08041476
v 0.1584488 0.8134161 0.08206425
v -0.0996386 1.176206 -0.1014017
v -0.09907217 1.235653 -0.07837372
v 0.0005629078 1.235414 -0.0614761
v -3.507181E-06 1.175967 -0.08450409
v 0.09950858 1.235177 -0.08202931
v 0.09894216 1.17573 -0.1050573
vt 0.7529297 0.6967773
vt 0.746582 0.6782227
vt 0.7602539 0.6782227
vt 0.7265625 0.6782227
vt 0.7202148 0.6967773
vt 0.7143555 0.6782227
vt 0.7368164 0.6967773
vt 0.7299805 0.6782227
vt 0.7431641 0.6782227
vt 0.7529297 0.6967773
vt 0.7602539 0.6782227
vt 0.746582 0.6782227
vt 0.7265625 0.6782227
vt 0.7143555 0.6782227
vt 0.7202148 0.6967773
vt 0.7368164 0.6967773
vt 0.7431641 0.6782227
vt 0.7299805 0.6782227
vt 0.276123 0.2824707
vt 0.2305908 0.2895508
vt 0.276123 0.2895508
vt 0.2305908 0.2824707
vt 0.1937256 0.2895508
vt 0.1937256 0.2824707
vt 0.1622314 0.2895508
vt 0.1622314 0.2824707
vt 0.1379395 0.2895508
vt 0.1323242 0.2824707
vt 0.276123 0.2824707
vt 0.276123 0.2895508
vt 0.2305908 0.2895508
vt 0.2305908 0.2824707
vt 0.1937256 0.2824707
vt 0.1937256 0.2895508
vt 0.1622314 0.2824707
vt 0.1622314 0.2895508
vt 0.1323242 0.2824707
vt 0.1379395 0.2895508
vt 0.1547852 0.2768555
vt 0.1398926 0.2727051
vt 0.1398926 0.2810059
vt 0.1333008 0.2810059
vt 0.1333008 0.2727051
vt 0.5688477 0.5053711
vt 0.6020508 0.4802246
vt 0.5644531 0.4802246
vt 0.5786133 0.5209961
vt 0.5932617 0.5273438
vt 0.6123047 0.5244141
vt 0.6254883 0.5151367
vt 0.6323242 0.5
vt 0.6347656 0.4802246
vt 0.6323242 0.4604492
vt 0.6254883 0.4455566
vt 0.6123047 0.4360352
vt 0.5932617 0.4333496
vt 0.5786133 0.4394531
vt 0.5688477 0.4553223
vt 0.5644531 0.4802246
vt 0.192627 0.3256836
vt 0.1361084 0.3522949
vt 0.1361084 0.3256836
vt 0.192627 0.3522949
vt 0.1361084 0.380127
vt 0.2279053 0.3256836
vt 0.192627 0.380127
vt 0.2279053 0.3522949
vt 0.2279053 0.380127
vt 0.2614746 0.3256836
vt 0.2614746 0.380127
vt 0.2614746 0.3522949
vt 0.3012695 0.3256836
vt 0.3012695 0.3522949
vt 0.3012695 0.380127
vt 0.3342285 0.3256836
vt 0.3342285 0.380127
vt 0.3342285 0.3522949
vt 0.3688965 0.3256836
vt 0.3688965 0.380127
vt 0.3688965 0.3522949
vt 0.411377 0.3256836
vt 0.411377 0.380127
vt 0.411377 0.3522949
vt 0.4538574 0.3522949
vt 0.4538574 0.3256836
vt 0.4538574 0.380127
vt 0.4885254 0.3522949
vt 0.4885254 0.3256836
vt 0.4885254 0.380127
vt 0.5214844 0.3522949
vt 0.5214844 0.380127
vt 0.5214844 0.3256836
vt 0.5615234 0.380127
vt 0.5615234 0.3522949
vt 0.5615234 0.3256836
vt 0.5947266 0.3522949
vt 0.5947266 0.380127
vt 0.5947266 0.3256836
vt 0.6303711 0.380127
vt 0.6303711 0.3522949
vt 0.6865234 0.380127
vt 0.6303711 0.3256836
vt 0.6865234 0.3522949
vt 0.6865234 0.3256836
vt 0.78125 0.6977539
vt 0.7866211 0.6855469
vt 0.7866211 0.6938477
vt 0.78125 0.6870117
vt 0.7739258 0.6850586
vt 0.7739258 0.6967773
vt 0.7680664 0.6904297
vt 0.7636719 0.6787109
vt 0.78125 0.6977539
vt 0.7866211 0.6938477
vt 0.7866211 0.6855469
vt 0.78125 0.6870117
vt 0.7739258 0.6850586
vt 0.7739258 0.6967773
vt 0.7680664 0.6904297
vt 0.7636719 0.6787109
vt 0.6772461 0.7045898
vt 0.6533203 0.7270508
vt 0.6772461 0.7270508
vt 0.6533203 0.7045898
vt 0.6533203 0.6884766
vt 0.6772461 0.6884766
vt 0.6503906 0.6811523
vt 0.6503906 0.6884766
vt 0.6796875 0.6811523
vt 0.6796875 0.6884766
vt 0.6772461 0.7045898
vt 0.6772461 0.7270508
vt 0.6533203 0.7270508
vt 0.6533203 0.7045898
vt 0.6533203 0.6884766
vt 0.6772461 0.6884766
vt 0.6503906 0.6811523
vt 0.6503906 0.6884766
vt 0.6796875 0.6811523
vt 0.6796875 0.6884766
vt 0.6259766 0.008430481
vt 0.6811523 0.05358887
vt 0.6259766 0.05358887
vt 0.6811523 0.008430481
vt 0.7363281 0.05358887
vt 0.7363281 0.008430481
vt 0.6259766 0.008430481
vt 0.6259766 0.05358887
vt 0.6811523 0.05358887
vt 0.6811523 0.008430481
vt 0.7363281 0.05358887
vt 0.7363281 0.008430481
vt 0.5551758 0.06082153
vt 0.5551758 0.1121216
vt 0.6176758 0.1121216
vt 0.6176758 0.06082153
vt 0.6806641 0.1121216
vt 0.6806641 0.06082153
vn 0.1332169 0.02110832 0.9908621
vn 0.1332169 0.02110832 0.9908621
vn 0.1332169 0.02110832 0.9908621
vn 0.5665367 -0.3896481 0.7260926
vn 0.5665367 -0.3896481 0.7260926
vn 0.5665367 -0.3896481 0.7260927
vn 0.8236394 -0.5054528 -0.2571685
vn 0.8236395 -0.5054527 -0.2571686
vn 0.8236395 -0.5054527 -0.2571686
vn -0.1332166 0.02110795 0.9908621
vn -0.1332166 0.02110795 0.9908621
vn -0.1332166 0.02110795 0.9908621
vn -0.5665403 -0.3896505 0.7260886
vn -0.5665403 -0.3896505 0.7260885
vn -0.5665402 -0.3896506 0.7260886
vn -0.8236397 -0.5054522 -0.2571686
vn -0.8236397 -0.5054522 -0.2571686
vn -0.8236397 -0.5054522 -0.2571686
vn -0.1775504 -0.8391982 -0.5140255
vn -0.1236703 -0.8221676 -0.5556492
vn -0.1775504 -0.8391982 -0.5140255
vn -0.1078921 -0.8164569 -0.5672367
vn 0.06565528 -0.7407305 -0.6685863
vn 0.1187305 -0.7117305 -0.6923458
vn 0.3217911 -0.5664618 -0.7586644
vn 0.3189347 -0.5689258 -0.7580265
vn 1.203809E-07 -0.519251 -0.8546217
vn 0.3205695 -0.4968086 -0.806484
vn 0.1775491 -0.8391921 -0.5140359
vn 0.1775491 -0.8391921 -0.5140359
vn 0.1236694 -0.8221639 -0.555655
vn 0.1078914 -0.8164539 -0.5672412
vn -0.1187302 -0.7117305 -0.6923458
vn -0.06565508 -0.7407306 -0.6685863
vn -0.3189343 -0.568926 -0.7580265
vn -0.3217906 -0.5664618 -0.7586645
vn -0.3205694 -0.4968086 -0.8064841
vn 1.203809E-07 -0.519251 -0.8546217
vn 1.203809E-07 -0.519251 -0.8546217
vn 0.3205695 -0.4968086 -0.806484
vn -0.3205694 -0.4968086 -0.8064841
vn -0 -0.6739116 -0.7388119
vn -0 -0.6739116 -0.7388119
vn 0.2969584 -0.8112099 0.5037403
vn -0 -0.9830528 -0.1833228
vn 0.1520616 -0.8124674 0.5628268
vn 0.5563293 -0.7862254 0.2689747
vn 0.6373699 -0.7678736 -0.0642635
vn 0.5887324 -0.7440938 -0.3157826
vn 0.4287215 -0.6901153 -0.5830427
vn 0.1801954 -0.6360042 -0.750352
vn -0 -0.6269241 -0.7790803
vn -0.1801955 -0.6360044 -0.7503518
vn -0.4287217 -0.6901156 -0.5830422
vn -0.5957583 -0.7393489 -0.313744
vn -0.6478226 -0.7593238 -0.06126288
vn -0.5616894 -0.7821537 0.2697046
vn -0.2969584 -0.81121 0.5037401
vn -0.1520617 -0.8124673 0.5628269
vn 0.3924503 -0.164903 0.9048701
vn 0.1816874 -0.1680215 0.9688955
vn 0.1761769 -0.1538247 0.9722652
vn 0.3744222 -0.1701948 0.9115052
vn 0.1520616 -0.8124674 0.5628268
vn 0.7815641 -0.203701 0.5896299
vn 0.2969584 -0.8112099 0.5037403
vn 0.7720293 -0.1890196 0.6068298
vn 0.5563293 -0.7862254 0.2689747
vn 0.9703951 -0.2347909 0.05662656
vn 0.6373699 -0.7678736 -0.0642635
vn 0.9700245 -0.2304541 0.07709347
vn 0.9089478 -0.207735 -0.3614694
vn 0.9090067 -0.2247359 -0.3509996
vn 0.5887324 -0.7440938 -0.3157826
vn 0.642332 -0.1651112 -0.7484303
vn 0.4287215 -0.6901153 -0.5830427
vn 0.6343164 -0.1929196 -0.7486151
vn 0.2485985 -0.1253491 -0.9604614
vn 0.1801954 -0.6360042 -0.750352
vn 0.2544794 -0.1553119 -0.9545252
vn -0 -0.1189441 -0.992901
vn -0 -0.6269241 -0.7790803
vn -0 -0.1439918 -0.9895789
vn -0.2544796 -0.155312 -0.9545252
vn -0.2485987 -0.1253492 -0.9604614
vn -0.1801955 -0.6360044 -0.7503518
vn -0.6343166 -0.1929196 -0.7486151
vn -0.6423322 -0.1651112 -0.7484301
vn -0.4287217 -0.6901156 -0.5830422
vn -0.909794 -0.225353 -0.3485554
vn -0.5957583 -0.7393489 -0.313744
vn -0.9072272 -0.21215 -0.3632233
vn -0.6478226 -0.7593238 -0.06126288
vn -0.9698671 -0.2314541 0.0760721
vn -0.9681702 -0.243994 0.05579838
vn -0.774291 -0.1886044 0.604071
vn -0.5616894 -0.7821537 0.2697046
vn -0.7798218 -0.208175 0.5903738
vn -0.2969584 -0.81121 0.5037401
vn -0.3744222 -0.1701948 0.9115053
vn -0.1520617 -0.8124673 0.5628269
vn -0.3924501 -0.164903 0.9048701
vn -0.1816874 -0.1680215 0.9688955
vn -0.1761769 -0.1538247 0.9722652
vn 0.1779872 -0.01717035 -0.983883
vn 0.03155877 -0.002463514 -0.9994988
vn 0.03155877 -0.002463513 -0.9994988
vn 0.1513774 -0.01449658 -0.9883697
vn 0.2138229 -0.05689864 -0.9752139
vn 0.2315747 -0.03792731 -0.9720775
vn 0.1872848 -0.08490113 -0.9786298
vn 0.1872849 -0.08490115 -0.9786298
vn -0.1779876 -0.01717042 -0.9838828
vn -0.03155908 -0.002463441 -0.9994988
vn -0.03155908 -0.002463441 -0.9994988
vn -0.1513778 -0.01449663 -0.9883697
vn -0.2138231 -0.05689872 -0.9752139
vn -0.2315751 -0.03792744 -0.9720774
vn -0.1872847 -0.08490114 -0.9786298
vn -0.1872847 -0.08490114 -0.9786298
vn 0.2873749 -0.4695638 -0.8348207
vn 0.2999845 -0.4369436 -0.8479915
vn 0.2999845 -0.4369436 -0.8479915
vn 0.289124 -0.4651391 -0.8366917
vn 0.2717225 -0.5007678 -0.8218263
vn 0.2714849 -0.4998033 -0.8224916
vn 0.2717835 -0.4887162 -0.8290297
vn 0.2812651 -0.4765288 -0.8329527
vn 0.271349 -0.4890877 -0.828953
vn 0.2607622 -0.4936668 -0.8296362
vn -0.2873751 -0.4695641 -0.8348203
vn -0.2999849 -0.436944 -0.8479912
vn -0.2999849 -0.436944 -0.8479912
vn -0.2891243 -0.4651395 -0.8366913
vn -0.2717223 -0.5007671 -0.8218268
vn -0.2714847 -0.4998026 -0.8224922
vn -0.2717827 -0.488714 -0.8290312
vn -0.2812643 -0.4765274 -0.8329538
vn -0.2713482 -0.4890855 -0.8289545
vn -0.2607639 -0.4936658 -0.8296362
vn 0.8590038 -0.4607489 -0.2232107
vn 0.8820749 -0.4675629 -0.05769483
vn 0.8590037 -0.4607488 -0.2232107
vn 0.8819817 -0.4675602 -0.05912631
vn 0.8806115 -0.4614264 0.1077452
vn 0.8806115 -0.4614266 0.1077452
vn -0.8590037 -0.4607489 -0.223211
vn -0.8590037 -0.4607489 -0.223211
vn -0.8820749 -0.4675629 -0.05769505
vn -0.8819816 -0.4675601 -0.05912653
vn -0.8806115 -0.4614263 0.107745
vn -0.8806117 -0.4614263 0.107745
vn -0.1571179 -0.3554278 0.9214038
vn -0.1571179 -0.3554278 0.9214038
vn 0.01629622 -0.3613034 0.9323059
vn 0.01629622 -0.3613034 0.9323058
vn 0.189218 -0.3562585 0.9150281
vn 0.189218 -0.3562584 0.9150281
g bf_geo_0
f 3/3/3 2/2/2 1/1/1
f 6/6/6 5/5/5 4/4/4
f 9/9/9 8/8/8 7/7/7
f 12/12/12 11/11/11 10/10/10
f 15/15/15 14/14/14 13/13/13
f 18/18/18 17/17/17 16/16/16
f 21/21/21 20/20/20 19/19/19
f 20/20/20 22/22/22 19/19/19
f 20/20/20 23/23/23 22/22/22
f 23/23/23 24/24/24 22/22/22
f 23/23/23 25/25/25 24/24/24
f 25/25/25 26/26/26 24/24/24
f 25/25/25 27/27/27 26/26/26
f 27/27/27 28/28/28 26/26/26
f 31/31/31 30/30/30 29/29/29
f 32/32/32 31/31/31 29/29/29
f 32/32/32 33/33/33 31/31/31
f 33/33/33 34/34/34 31/31/31
f 33/33/33 35/35/35 34/34/34
f 35/35/35 36/36/36 34/34/34
f 35/35/35 37/37/37 36/36/36
f 37/37/37 38/38/38 36/36/36
f 41/41/41 40/40/40 39/39/39
f 41/41/41 42/42/42 40/40/40
f 42/42/42 43/43/43 40/40/40
f 46/46/46 45/45/45 44/44/44
f 44/44/44 45/45/45 47/47/47
f 47/47/47 45/45/45 48/48/48
f 48/48/48 45/45/45 49/49/49
f 50/50/50 49/49/49 45/45/45
f 50/50/50 45/45/45 51/51/51
f 51/51/51 45/45/45 52/52/52
f 53/53/53 52/52/52 45/45/45
f 45/45/45 54/54/54 53/53/53
f 55/55/55 54/54/54 45/45/45
f 45/45/45 56/56/56 55/55/55
f 45/45/45 57/57/57 56/56/56
f 45/45/45 58/58/58 57/57/57
f 45/45/45 59/59/59 58/58/58
f 62/62/62 61/61/61 60/60/60
f 61/61/61 63/63/63 60/60/60
f 61/61/61 64/64/64 63/63/63
f 60/60/60 63/63/63 65/65/65
f 64/64/64 66/66/66 63/63/63
f 63/63/63 67/67/67 65/65/65
f 63/63/63 66/66/66 67/67/67
f 66/66/66 68/68/68 67/67/67
f 65/65/65 67/67/67 69/69/69
f 67/67/67 68/68/68 70/70/70
f 67/67/67 71/71/71 69/69/69
f 71/71/71 67/67/67 70/70/70
f 69/69/69 71/71/71 72/72/72
f 71/71/71 70/70/70 73/73/73
f 71/71/71 73/73/73 72/72/72
f 70/70/70 74/74/74 73/73/73
f 75/75/75 72/72/72 73/73/73
f 73/73/73 74/74/74 76/76/76
f 77/77/77 75/75/75 73/73/73
f 77/77/77 73/73/73 76/76/76
f 78/78/78 75/75/75 77/77/77
f 77/77/77 76/76/76 79/79/79
f 80/80/80 78/78/78 77/77/77
f 80/80/80 77/77/77 79/79/79
f 81/81/81 78/78/78 80/80/80
f 80/80/80 79/79/79 82/82/82
f 83/83/83 81/81/81 80/80/80
f 83/83/83 80/80/80 82/82/82
f 81/81/81 83/83/83 84/84/84
f 84/84/84 83/83/83 82/82/82
f 85/85/85 81/81/81 84/84/84
f 86/86/86 84/84/84 82/82/82
f 85/85/85 84/84/84 87/87/87
f 87/87/87 84/84/84 86/86/86
f 88/88/88 85/85/85 87/87/87
f 89/89/89 87/87/87 86/86/86
f 88/88/88 87/87/87 90/90/90
f 90/90/90 87/87/87 89/89/89
f 91/91/91 90/90/90 89/89/89
f 92/92/92 88/88/88 90/90/90
f 91/91/91 93/93/93 90/90/90
f 90/90/90 94/94/94 92/92/92
f 93/93/93 94/94/94 90/90/90
f 94/94/94 95/95/95 92/92/92
f 96/96/96 94/94/94 93/93/93
f 94/94/94 96/96/96 95/95/95
f 97/97/97 96/96/96 93/93/93
f 96/96/96 98/98/98 95/95/95
f 97/97/97 99/99/99 96/96/96
f 96/96/96 100/100/100 98/98/98
f 99/99/99 100/100/100 96/96/96
f 99/99/99 101/101/101 100/100/100
f 100/100/100 102/102/102 98/98/98
f 101/101/101 103/103/103 100/100/100
f 100/100/100 103/103/103 102/102/102
f 103/103/103 104/104/104 102/102/102
f 107/107/107 106/106/106 105/105/105
f 106/106/106 108/108/108 105/105/105
f 108/108/108 109/109/109 105/105/105
f 109/109/109 110/110/110 105/105/105
f 111/111/111 110/110/110 109/109/109
f 112/112/112 111/111/111 109/109/109
f 115/115/115 114/114/114 113/113/113
f 116/116/116 115/115/115 113/113/113
f 117/117/117 116/116/116 113/113/113
f 118/118/118 117/117/117 113/113/113
f 118/118/118 119/119/119 117/117/117
f 119/119/119 120/120/120 117/117/117
f 123/123/123 122/122/122 121/121/121
f 122/122/122 124/124/124 121/121/121
f 124/124/124 125/125/125 121/121/121
f 125/125/125 126/126/126 121/121/121
f 126/126/126 125/125/125 127/127/127
f 125/125/125 128/128/128 127/127/127
f 129/129/129 126/126/126 127/127/127
f 129/129/129 130/130/130 126/126/126
f 133/133/133 132/132/132 131/131/131
f 134/134/134 133/133/133 131/131/131
f 135/135/135 134/134/134 131/131/131
f 136/136/136 135/135/135 131/131/131
f 135/135/135 136/136/136 137/137/137
f 138/138/138 135/135/135 137/137/137
f 136/136/136 139/139/139 137/137/137
f 140/140/140 139/139/139 136/136/136
f 143/143/143 142/142/142 141/141/141
f 142/142/142 144/144/144 141/141/141
f 142/142/142 145/145/145 144/144/144
f 145/145/145 146/146/146 144/144/144
f 149/149/149 148/148/148 147/147/147
f 150/150/150 149/149/149 147/147/147
f 151/151/151 149/149/149 150/150/150
f 152/152/152 151/151/151 150/150/150
f 155/155/155 154/154/154 153/153/153
f 156/156/156 155/155/155 153/153/153
f 157/157/157 155/155/155 156/156/156
f 158/158/158 157/157/157 156/156/156
