g bf_geo
v 0.06690002 1.001395 0.09681014
v 0.03546539 0.9733207 0.1111683
v 0.06690008 0.9733207 0.09681012
v 0.03546528 1.001395 0.1111683
v 0.01400709 0.9733207 0.1135341
v 0.01400694 1.001395 0.1135342
v 0.06835712 1.092131 0.1027277
v 0.03721904 1.064057 0.1090702
v 0.06835718 1.064057 0.1011769
v 0.03721893 1.092131 0.110621
v 0.01254999 1.064057 0.1136464
v 0.01254985 1.092131 0.1151972
v 0.06749415 0.902234 0.1027002
v 0.04112874 0.8741595 0.1156959
v 0.06749421 0.8741594 0.1044059
v 0.03959974 0.902234 0.1139902
v 0.01285703 0.8741595 0.1193705
v 0.01285688 0.902234 0.1176648
v -0.06690002 1.001395 0.09681014
v -0.06690008 0.9733207 0.09681012
v -0.03546539 0.9733207 0.1111683
v -0.03546528 1.001395 0.1111683
v -0.01400709 0.9733207 0.1135341
v -0.01400694 1.001395 0.1135342
v -0.06835712 1.092131 0.1027277
v -0.06835718 1.064057 0.1011769
v -0.03721904 1.064057 0.1090702
v -0.03721893 1.092131 0.110621
v -0.01254999 1.064057 0.1136464
v -0.01254985 1.092131 0.1151972
v -0.06749415 0.902234 0.1027002
v -0.06749421 0.8741594 0.1044059
v -0.04112874 0.8741595 0.1156959
v -0.03959974 0.902234 0.1139902
v -0.01285703 0.8741595 0.1193705
v -0.01285688 0.902234 0.1176648
vt 0.9892578 0.9106445
vt 0.9536133 0.9516602
vt 0.9536133 0.9106445
vt 0.9892578 0.9516602
vt 0.9536133 0.9804688
vt 0.9892578 0.9804688
vt 0.9892578 0.9106445
vt 0.9536133 0.9492188
vt 0.9536133 0.9106445
vt 0.9892578 0.9492188
vt 0.9536133 0.9804688
vt 0.9892578 0.9804688
vt 0.9892578 0.9106445
vt 0.9536133 0.9462891
vt 0.9536133 0.9106445
vt 0.9892578 0.9462891
vt 0.9536133 0.9804688
vt 0.9892578 0.9804688
vt 0.4570312 0.9106445
vt 0.421875 0.9106445
vt 0.421875 0.9516602
vt 0.4570312 0.9516602
vt 0.421875 0.9804688
vt 0.4570312 0.9804688
vt 0.4570312 0.9106445
vt 0.421875 0.9106445
vt 0.421875 0.9492188
vt 0.4570312 0.9492188
vt 0.421875 0.9804688
vt 0.4570312 0.9804688
vt 0.4570312 0.9106445
vt 0.421875 0.9106445
vt 0.421875 0.9462891
vt 0.4570312 0.9462891
vt 0.421875 0.9804688
vt 0.4570312 0.9804688
vn -0.4154729 -3.440317E-07 -0.9096057
vn -0.3014762 1.913565E-07 -0.9534738
vn -0.4154728 -3.440317E-07 -0.9096057
vn -0.3014754 1.9136E-07 -0.9534739
vn -0.1095908 1.04245E-06 -0.9939768
vn -0.1095908 1.04245E-06 -0.9939768
vn -0.2453698 0.05346816 -0.9679539
vn -0.2179801 0.05382808 -0.9744676
vn -0.2453698 0.05346816 -0.9679539
vn -0.2175119 0.05383383 -0.9745719
vn -0.1821249 0.05423206 -0.9817787
vn -0.1821248 0.05423207 -0.9817787
vn -0.3833558 -0.06640708 -0.9212103
vn -0.2665095 -0.0656786 -0.961592
vn -0.3833558 -0.06640708 -0.9212103
vn -0.260661 -0.06561691 -0.9631979
vn -0.1321425 -0.06369586 -0.9891821
vn -0.1321426 -0.06369586 -0.9891821
vn 0.4154735 -3.558265E-07 -0.9096053
vn 0.4154735 -3.558264E-07 -0.9096053
vn 0.3014767 1.839248E-07 -0.9534736
vn 0.3014759 1.839284E-07 -0.9534738
vn 0.1095908 1.042235E-06 -0.9939768
vn 0.1095909 1.042235E-06 -0.9939768
vn 0.2453697 0.05346811 -0.9679539
vn 0.2453697 0.05346811 -0.9679539
vn 0.21798 0.05382805 -0.9744676
vn 0.2175119 0.05383382 -0.974572
vn 0.1821249 0.05423208 -0.9817787
vn 0.1821249 0.05423208 -0.9817787
vn 0.3833558 -0.06640703 -0.9212103
vn 0.3833557 -0.06640703 -0.9212103
vn 0.2665095 -0.06567858 -0.961592
vn 0.260661 -0.06561688 -0.9631979
vn 0.1321426 -0.06369588 -0.9891821
vn 0.1321426 -0.06369588 -0.9891821
g bf_geo_0
f 3/3/3 2/2/2 1/1/1
f 2/2/2 4/4/4 1/1/1
f 2/2/2 5/5/5 4/4/4
f 5/5/5 6/6/6 4/4/4
f 9/9/9 8/8/8 7/7/7
f 8/8/8 10/10/10 7/7/7
f 8/8/8 11/11/11 10/10/10
f 11/11/11 12/12/12 10/10/10
f 15/15/15 14/14/14 13/13/13
f 14/14/14 16/16/16 13/13/13
f 14/14/14 17/17/17 16/16/16
f 17/17/17 18/18/18 16/16/16
f 21/21/21 20/20/20 19/19/19
f 22/22/22 21/21/21 19/19/19
f 23/23/23 21/21/21 22/22/22
f 24/24/24 23/23/23 22/22/22
f 27/27/27 26/26/26 25/25/25
f 28/28/28 27/27/27 25/25/25
f 29/29/29 27/27/27 28/28/28
f 30/30/30 29/29/29 28/28/28
f 33/33/33 32/32/32 31/31/31
f 34/34/34 33/33/33 31/31/31
f 35/35/35 33/33/33 34/34/34
f 36/36/36 35/35/35 34/34/34
