g right_skin_geo
v -0.3872367 1.101508 0.01774155
v -0.3804436 1.095724 0.00895796
v -0.4094714 1.068356 0.00717062
v -0.4141161 1.073589 0.0173105
v -0.3957574 1.109047 0.01909598
v -0.420406 1.078721 0.01827745
v -0.4030908 1.115437 0.01093251
v -0.4274711 1.085635 0.01028161
v -0.4051131 1.117208 -0.00291194
v -0.4283502 1.086494 -0.00155786
v -0.4030249 1.115269 -0.01224843
v -0.426502 1.085578 -0.01057713
v -0.4227994 1.082608 -0.01902161
v -0.3994335 1.111255 -0.02001633
v -0.4180396 1.078526 -0.02051483
v -0.3911829 1.103659 -0.02253221
v -0.4109007 1.071692 -0.01465146
v -0.3832828 1.097031 -0.01799589
v -0.3789353 1.094035 -0.00519488
v -0.408303 1.068239 -0.00507385
v -0.3804436 1.095724 0.00895796
v -0.4094714 1.068356 0.00717062
vt 0.609375 0.2277832
vt 0.5737305 0.2524414
vt 0.4985352 0.1397705
vt 0.5478516 0.1030273
vt 0.6416016 0.2084961
vt 0.581543 0.08935547
vt 0.6757812 0.1890869
vt 0.6323242 0.07122803
vt 0.7128906 0.1715088
vt 0.6777344 0.05130005
vt 0.7373047 0.1629639
vt 0.7119141 0.04199219
vt 0.7524414 0.03460693
vt 0.7607422 0.1567383
vt 0.7802734 0.03518677
vt 0.7910156 0.1561279
vt 0.8305664 0.03829956
vt 0.8227539 0.161377
vt 0.8652344 0.1690674
vt 0.8764648 0.04251099
vt 0.9111328 0.1749268
vt 0.9257812 0.04992676
vn 0.3588625 -0.3839635 0.8507584
vn 0.6249698 -0.6784086 0.3862312
vn 0.6258479 -0.6795267 0.3828289
vn 0.3514299 -0.3762148 0.8572978
vn -0.2763494 0.2012324 0.9397534
vn -0.2646077 0.1914746 0.9451562
vn -0.6857715 0.5381779 0.4899817
vn -0.6833321 0.5362031 0.4955234
vn -0.7900726 0.6125335 -0.02424753
vn -0.7898994 0.6131023 -0.01282392
vn -0.7316552 0.5571941 -0.3927027
vn -0.7328684 0.5580212 -0.3892507
vn -0.4793497 0.3559232 -0.802211
vn -0.4882794 0.3632099 -0.7935123
vn 0.06113577 -0.1602139 -0.9851872
vn 0.08438931 -0.185754 -0.9789656
vn 0.476926 -0.587757 -0.6535161
vn 0.4758969 -0.5867977 -0.6551265
vn 0.6590903 -0.7429751 -0.1165673
vn 0.6592043 -0.7430345 -0.1155397
vn 0.6249698 -0.6784086 0.3862312
vn 0.6258479 -0.6795267 0.3828289
g right_skin_geo_0
f 3/3/3 2/2/2 1/1/1
f 4/4/4 3/3/3 1/1/1
f 4/4/4 1/1/1 5/5/5
f 6/6/6 4/4/4 5/5/5
f 6/6/6 5/5/5 7/7/7
f 8/8/8 6/6/6 7/7/7
f 8/8/8 7/7/7 9/9/9
f 10/10/10 8/8/8 9/9/9
f 10/10/10 9/9/9 11/11/11
f 12/12/12 10/10/10 11/11/11
f 12/12/12 11/11/11 13/13/13
f 11/11/11 14/14/14 13/13/13
f 13/13/13 14/14/14 15/15/15
f 14/14/14 16/16/16 15/15/15
f 15/15/15 16/16/16 17/17/17
f 16/16/16 18/18/18 17/17/17
f 17/17/17 18/18/18 19/19/19
f 20/20/20 17/17/17 19/19/19
f 20/20/20 19/19/19 21/21/21
f 22/22/22 20/20/20 21/21/21
