g facial_eye_geo
v -0.09848599 1.422691 0.08044885
v -0.08930661 1.400413 0.09313599
v -0.09183478 1.397025 0.07736679
v -0.09230443 1.422507 0.09425443
v -0.07829368 1.401478 0.1096271
v -0.09875532 1.448778 0.08329006
v -0.08271718 1.420625 0.1055437
v -0.05963274 1.401725 0.1192396
v -0.08965595 1.445648 0.1005296
v -0.06222991 1.41912 0.1141299
v -0.03636893 1.402535 0.1264525
v -0.09594344 1.473394 0.1073771
v -0.1040778 1.477023 0.08533077
v -0.09638892 1.496744 0.1072857
v -0.07504523 1.472052 0.1232128
v -0.07894807 1.495844 0.1263177
v -0.06903122 1.442002 0.1129713
v -0.04982975 1.468124 0.1323388
v -0.05407305 1.494275 0.134915
v -0.0450614 1.453093 0.1231311
v -0.04185072 1.438501 0.1209479
v -0.03949436 1.421353 0.1194522
v -0.02347889 1.463717 0.1410712
v -0.02666041 1.49018 0.1412186
v -0 1.4877 0.1436736
v -0.02090353 1.449923 0.132949
v -0 1.442126 0.1353247
v -0.01958925 1.436263 0.1234091
v -0.01895902 1.422714 0.1234061
v -0.0191942 1.403106 0.1310059
v -0 1.404313 0.146665
v -0 1.426845 0.1380095
v -0 1.461069 0.144666
v 0.02347889 1.463717 0.1410712
v 0.02666041 1.49018 0.1412186
v 0.05407305 1.494275 0.134915
v 0.01895902 1.422714 0.1234061
v 0.0191942 1.403106 0.1310059
v 0.03636893 1.402535 0.1264525
v 0.01958925 1.436263 0.1234091
v 0.04982975 1.468124 0.1323388
v 0.07894807 1.495844 0.1263177
v 0.02090353 1.449923 0.132949
v 0.03949436 1.421353 0.1194522
v 0.07504523 1.472052 0.1232128
v 0.09638892 1.496744 0.1072857
v 0.0450614 1.453093 0.1231311
v 0.04185072 1.438501 0.1209479
v 0.06903122 1.442002 0.1129713
v 0.06222991 1.41912 0.1141299
v 0.05963274 1.401725 0.1192396
v 0.07829368 1.401478 0.1096271
v 0.09594344 1.473394 0.1073771
v 0.1040778 1.477023 0.08533077
v 0.09875532 1.448778 0.08329006
v 0.08965595 1.445648 0.1005296
v 0.08271718 1.420625 0.1055437
v 0.09230443 1.422507 0.09425443
v 0.09848599 1.422691 0.08044885
v 0.08930661 1.400413 0.09313599
v 0.09183478 1.397025 0.07736678
vt 0.1403809 0.3720703
vt 0.1577148 0.3515625
vt 0.144043 0.3452148
vt 0.1536865 0.3742676
vt 0.1773682 0.3547363
vt 0.1383057 0.3977051
vt 0.1685791 0.3737793
vt 0.1940918 0.3557129
vt 0.1558838 0.3981934
vt 0.1872559 0.3740234
vt 0.2127686 0.3571777
vt 0.1523438 0.4272461
vt 0.1309814 0.4248047
vt 0.1464844 0.4499512
vt 0.1762695 0.4296875
vt 0.1708984 0.453125
vt 0.1782227 0.3967285
vt 0.2015381 0.4277344
vt 0.1965332 0.4536133
vt 0.2043457 0.4108887
vt 0.2058105 0.3952637
vt 0.2071533 0.3759766
vt 0.2280273 0.4250488
vt 0.2241211 0.451416
vt 0.25 0.4494629
vt 0.2288818 0.4091797
vt 0.25 0.3994141
vt 0.2261963 0.3925781
vt 0.2263184 0.3776855
vt 0.2279053 0.3591309
vt 0.2498779 0.3596191
vt 0.2498779 0.3808594
vt 0.25 0.4221191
vt 0.2719727 0.4250488
vt 0.2758789 0.451416
vt 0.3034668 0.4536133
vt 0.2734375 0.3776855
vt 0.2719727 0.3591309
vt 0.2871094 0.3571777
vt 0.2736816 0.392334
vt 0.2983398 0.4274902
vt 0.3291016 0.453125
vt 0.2709961 0.4091797
vt 0.2927246 0.3759766
vt 0.3237305 0.4294434
vt 0.3535156 0.4499512
vt 0.2956543 0.4108887
vt 0.2941895 0.3952637
vt 0.3217773 0.3964844
vt 0.3127441 0.3740234
vt 0.3056641 0.3554688
vt 0.3225098 0.3544922
vt 0.3476562 0.4272461
vt 0.3688965 0.4245605
vt 0.3615723 0.3974609
vt 0.3439941 0.3979492
vt 0.3312988 0.3737793
vt 0.3461914 0.3740234
vt 0.3596191 0.3718262
vt 0.3422852 0.3515625
vt 0.355957 0.3449707
vn -0.948154 -0.1842083 0.258981
vn -0.8467618 -0.1956496 0.4946874
vn -0.917188 -0.2801057 0.2833847
vn -0.874993 -0.1258227 0.4674997
vn -0.5701545 -0.002754423 0.821533
vn -0.9232071 -0.2056396 0.3246549
vn -0.625789 -0.0151991 0.7798443
vn -0.4334534 0.1123917 0.8941399
vn -0.7219676 -0.2080207 0.6599167
vn -0.3246064 0.0787445 0.9425656
vn -0.4227873 0.2789448 0.8622301
vn -0.7681866 -0.1736336 0.616231
vn -0.9720772 -0.09424035 0.2149063
vn -0.7439104 -0.05092565 0.6663362
vn -0.4752993 -0.2242485 0.8507662
vn -0.5293051 -0.05363559 0.8467345
vn -0.3715502 -0.2033171 0.9058768
vn -0.3275757 -0.2350051 0.9151321
vn -0.2973514 -0.05594828 0.9531274
vn -0.3017261 -0.4209993 0.8554068
vn -0.2222877 -0.1122567 0.968497
vn -0.242914 0.1061621 0.9642211
vn -0.2213155 -0.1507322 0.9634829
vn -0.1861965 -0.02099087 0.9822882
vn -1.408521E-07 0.00716622 0.9999744
vn -0.3324992 -0.5454794 0.769348
vn -0 -0.2907592 0.9567963
vn -0.3648384 -0.25151 0.8964573
vn -0.4969851 0.2143791 0.8408611
vn -0.5016778 0.3593329 0.7868921
vn 3.569181E-07 0.4555726 0.8901986
vn 1.56627E-07 0.3022217 0.9532377
vn -0 -0.1259878 0.9920318
vn 0.221315 -0.1507318 0.9634831
vn 0.1861963 -0.02099082 0.9822884
vn 0.2973512 -0.05594822 0.9531276
vn 0.4969854 0.2143786 0.8408611
vn 0.5016787 0.3593337 0.7868913
vn 0.4227878 0.278945 0.8622297
vn 0.3648394 -0.2515095 0.896457
vn 0.3275754 -0.2350051 0.9151322
vn 0.5293049 -0.05363547 0.8467346
vn 0.3324997 -0.5454796 0.7693478
vn 0.2429136 0.1061613 0.9642214
vn 0.4752989 -0.2242484 0.8507665
vn 0.7439104 -0.05092548 0.6663361
vn 0.3017258 -0.4209992 0.855407
vn 0.2222876 -0.1122564 0.9684972
vn 0.3715495 -0.2033171 0.9058769
vn 0.3246063 0.07874422 0.9425657
vn 0.433454 0.1123917 0.8941398
vn 0.5701546 -0.002754436 0.8215328
vn 0.7681863 -0.1736333 0.6162314
vn 0.9720773 -0.09424035 0.214906
vn 0.9232071 -0.2056396 0.3246552
vn 0.7219671 -0.2080205 0.6599175
vn 0.6257894 -0.0151992 0.7798439
vn 0.8749935 -0.1258227 0.4674987
vn 0.948154 -0.1842083 0.258981
vn 0.8467621 -0.1956497 0.494687
vn 0.9171879 -0.2801058 0.2833852
g facial_eye_geo_0
f 3/3/3 2/2/2 1/1/1
f 2/2/2 4/4/4 1/1/1
f 2/2/2 5/5/5 4/4/4
f 6/6/6 1/1/1 4/4/4
f 5/5/5 7/7/7 4/4/4
f 5/5/5 8/8/8 7/7/7
f 9/9/9 6/6/6 4/4/4
f 7/7/7 9/9/9 4/4/4
f 8/8/8 10/10/10 7/7/7
f 8/8/8 11/11/11 10/10/10
f 12/12/12 6/6/6 9/9/9
f 12/12/12 13/13/13 6/6/6
f 12/12/12 14/14/14 13/13/13
f 12/12/12 15/15/15 14/14/14
f 9/9/9 15/15/15 12/12/12
f 15/15/15 16/16/16 14/14/14
f 17/17/17 9/9/9 7/7/7
f 7/7/7 10/10/10 17/17/17
f 9/9/9 17/17/17 15/15/15
f 15/15/15 18/18/18 16/16/16
f 18/18/18 19/19/19 16/16/16
f 15/15/15 17/17/17 20/20/20
f 20/20/20 18/18/18 15/15/15
f 17/17/17 10/10/10 21/21/21
f 17/17/17 21/21/21 20/20/20
f 11/11/11 22/22/22 10/10/10
f 10/10/10 22/22/22 21/21/21
f 18/18/18 23/23/23 19/19/19
f 23/23/23 24/24/24 19/19/19
f 25/25/25 24/24/24 23/23/23
f 18/18/18 20/20/20 26/26/26
f 26/26/26 23/23/23 18/18/18
f 23/23/23 26/26/26 27/27/27
f 20/20/20 21/21/21 28/28/28
f 20/20/20 28/28/28 26/26/26
f 21/21/21 22/22/22 28/28/28
f 27/27/27 26/26/26 28/28/28
f 22/22/22 11/11/11 29/29/29
f 28/28/28 22/22/22 29/29/29
f 11/11/11 30/30/30 29/29/29
f 30/30/30 31/31/31 29/29/29
f 28/28/28 29/29/29 32/32/32
f 31/31/31 32/32/32 29/29/29
f 32/32/32 27/27/27 28/28/28
f 33/33/33 25/25/25 23/23/23
f 27/27/27 33/33/33 23/23/23
f 25/25/25 33/33/33 34/34/34
f 34/34/34 33/33/33 27/27/27
f 35/35/35 25/25/25 34/34/34
f 35/35/35 34/34/34 36/36/36
f 32/32/32 31/31/31 37/37/37
f 31/31/31 38/38/38 37/37/37
f 38/38/38 39/39/39 37/37/37
f 40/40/40 27/27/27 32/32/32
f 32/32/32 37/37/37 40/40/40
f 34/34/34 41/41/41 36/36/36
f 36/36/36 41/41/41 42/42/42
f 27/27/27 43/43/43 34/34/34
f 40/40/40 43/43/43 27/27/27
f 41/41/41 34/34/34 43/43/43
f 39/39/39 44/44/44 37/37/37
f 37/37/37 44/44/44 40/40/40
f 41/41/41 45/45/45 42/42/42
f 42/42/42 45/45/45 46/46/46
f 43/43/43 47/47/47 41/41/41
f 40/40/40 47/47/47 43/43/43
f 45/45/45 41/41/41 47/47/47
f 40/40/40 48/48/48 47/47/47
f 40/40/40 44/44/44 48/48/48
f 48/48/48 49/49/49 47/47/47
f 48/48/48 44/44/44 49/49/49
f 47/47/47 49/49/49 45/45/45
f 44/44/44 39/39/39 50/50/50
f 44/44/44 50/50/50 49/49/49
f 39/39/39 51/51/51 50/50/50
f 50/50/50 51/51/51 52/52/52
f 45/45/45 53/53/53 46/46/46
f 54/54/54 46/46/46 53/53/53
f 54/54/54 53/53/53 55/55/55
f 45/45/45 56/56/56 53/53/53
f 45/45/45 49/49/49 56/56/56
f 55/55/55 53/53/53 56/56/56
f 49/49/49 50/50/50 57/57/57
f 57/57/57 50/50/50 52/52/52
f 57/57/57 56/56/56 49/49/49
f 55/55/55 56/56/56 58/58/58
f 56/56/56 57/57/57 58/58/58
f 57/57/57 52/52/52 58/58/58
f 59/59/59 55/55/55 58/58/58
f 52/52/52 60/60/60 58/58/58
f 58/58/58 60/60/60 59/59/59
f 60/60/60 61/61/61 59/59/59
