g head_geo
v -0.06335788 1.350105 0.007550648
v -0.061751 1.372717 -0.018847
v -0.09305222 1.38751 0.01056368
v 0.092975 1.38751 0.010564
v 0.06159599 1.372717 -0.018847
v 0.06335788 1.350105 0.007550648
v -0.1025189 1.446569 0.05808317
v -0.1040778 1.477023 0.08533077
v -0.09875532 1.448778 0.08329006
v -0.09848599 1.422691 0.08044885
v -0.1012483 1.41907 0.05695385
v -0.1108243 1.446669 0.03249715
v -0.09333345 1.391571 0.05488383
v -0.09183478 1.397025 0.07736679
v -0.08395219 1.376159 0.07302658
v -0.09252651 1.383379 0.03355488
v -0.08627325 1.369773 0.05346483
v -0.07625498 1.353298 0.06833339
v -0.08767217 1.360623 0.03435175
v -0.07542083 1.344615 0.05419531
v -0.05667467 1.329722 0.07646043
v -0.06154717 1.338378 0.08400372
v -0.0371907 1.319046 0.09428314
v -0.03912766 1.327792 0.1016204
v -0.1246073 1.449593 0.013413
v -0.1230076 1.455562 0.01085748
v -0.08337312 1.353473 0.02028704
v -0.09305222 1.38751 0.01056368
v -0.09951636 1.37743 0.01794486
v -0.06335788 1.350105 0.007550648
v -0.07380094 1.33542 0.04239815
v -0.129857 1.445155 0.00530242
v -0.05367626 1.320962 0.06726152
v -0.05658321 1.329722 0.07646042
v -0.03473146 1.311127 0.08560804
v -0.05510471 1.33763 0.02424482
v -0.05367626 1.320962 0.06726152
v -0.1229935 1.409238 0.00396838
v -0.1129621 1.384723 0.005595489
v -0.1294859 1.450581 -0.0007897
v -0.118099 1.454457 0.00878549
v -0.1108243 1.446669 0.03249715
v -0.1165452 1.436945 -0.00373152
v -0.1311398 1.43708 -0.00078479
v -0.1298574 1.440217 -0.0078384
v -0.1123694 1.414466 -0.0061974
v -0.1263301 1.413531 -0.00705458
v -0.09305222 1.38751 0.01056368
v -0.09951636 1.37743 0.01794486
v -0.09252651 1.383379 0.03355488
v 0.1025189 1.446569 0.05808317
v 0.09875532 1.448778 0.08329006
v 0.1040778 1.477023 0.08533077
v 0.09848599 1.422691 0.08044885
v 0.1012483 1.41907 0.05695385
v 0.110747 1.446669 0.032497
v 0.09333345 1.391571 0.05488383
v 0.09183478 1.397025 0.07736678
v 0.08395219 1.376159 0.07302658
v 0.09252651 1.383379 0.03355488
v 0.08627325 1.369773 0.05346483
v 0.07625498 1.353298 0.06833339
v 0.08767217 1.360623 0.03435175
v 0.07542083 1.344615 0.05419533
v 0.05667467 1.329722 0.07646043
v 0.06154717 1.338378 0.08400372
v 0.0371907 1.319046 0.09428314
v 0.03912766 1.327792 0.1016204
v 0.1246073 1.449593 0.013413
v 0.1230076 1.455562 0.01085748
v 0.08337312 1.353473 0.02028704
v 0.092975 1.38751 0.010564
v 0.09951636 1.37743 0.01794486
v 0.06335788 1.350105 0.007550648
v 0.07380094 1.33542 0.04239815
v 0.129857 1.445155 0.00530242
v 0.01549441 1.308508 0.110881
v 0.01546988 1.321769 0.115732
v 0.05367625 1.320962 0.06726152
v 0.0565832 1.329722 0.07646042
v 0.03473146 1.311127 0.08560804
v 0.1229935 1.409238 0.00396838
v 0.1129621 1.384723 0.005595489
v -0 1.305728 0.1146642
v -0 1.321053 0.1189474
v -0.01546988 1.321769 0.115732
v 0.01521509 1.30235 0.1051391
v -0.01549441 1.308508 0.110881
v -0 1.299406 0.1091427
v -0.01521509 1.30235 0.1051391
v -0 1.299482 0.09761015
v 0.01225367 1.301635 0.09499162
v -0.01225367 1.301635 0.09499162
v 0.01658202 1.311589 0.06588193
v 0.05367625 1.320962 0.06726152
v -0 1.30665 0.07169501
v -0.01658202 1.311589 0.06588193
v 0.03477682 1.323084 0.04715249
v -0 1.309104 0.0450789
v 0.02515785 1.31759 0.02782001
v -0.02515785 1.31759 0.02782001
v -0.03477682 1.323084 0.04715249
v -0.04562232 1.329596 0.005620402
v -0.05186824 1.341172 -0.01939243
v -0.061751 1.372717 -0.018847
v -0.035158 1.354957 -0.049806
v 0.05510471 1.33763 0.02424482
v 0.04562232 1.329596 0.005620402
v 0.05186824 1.341172 -0.01939243
v 0.06159599 1.372717 -0.018847
v 0.03500295 1.354957 -0.04980572
v -0.09439208 1.518027 0.1079701
v -0.09449715 1.535847 0.1083525
v -0.0792743 1.536671 0.1226172
v -0.07982021 1.519011 0.1248374
v -0.09638892 1.496744 0.1072857
v -0.07894807 1.495844 0.1263177
v -0.05493844 1.51757 0.1343955
v -0.05407305 1.494275 0.134915
v -0.053636 1.534754 0.131867
v -0.02666041 1.49018 0.1412186
v -0.02719083 1.514436 0.1409198
v -0.025174 1.531196 0.137629
v -0 1.4877 0.1436736
v -7.8E-05 1.528517 0.139456
v -0 1.511453 0.143653
v 0.02719083 1.514436 0.1409198
v 0.025019 1.531196 0.137629
v 0.02666041 1.49018 0.1412186
v 0.053481 1.534754 0.131867
v 0.05493844 1.51757 0.1343955
v 0.05407305 1.494275 0.134915
v 0.07894807 1.495844 0.1263177
v 0.079197 1.536671 0.122617
v 0.07982021 1.519011 0.1248374
v 0.09638892 1.496744 0.1072857
v 0.094315 1.518027 0.10797
v 0.09449715 1.535847 0.1083525
v 0.118021 1.454457 0.008785
v 0.110747 1.446669 0.032497
v 0.1294859 1.450581 -0.0007897
v 0.116468 1.436945 -0.003732
v 0.1311398 1.43708 -0.00078479
v 0.1298574 1.440217 -0.0078384
v 0.112292 1.414466 -0.006197
v 0.1263301 1.413531 -0.00705458
v 0.092975 1.38751 0.010564
v 0.09951636 1.37743 0.01794486
v 0.09252651 1.383379 0.03355488
vt 0.1069946 0.2315674
vt 0.08978271 0.2047119
vt 0.06884766 0.2393799
vt 0.4304199 0.2387695
vt 0.4094238 0.2042236
vt 0.392334 0.2310791
vt 0.1162109 0.3903809
vt 0.1309814 0.4248047
vt 0.1383057 0.3977051
vt 0.1403809 0.3720703
vt 0.1204834 0.364502
vt 0.0927124 0.3876953
vt 0.125 0.3364258
vt 0.144043 0.3452148
vt 0.1483154 0.3203125
vt 0.1063843 0.3293457
vt 0.1304932 0.3120117
vt 0.149292 0.2922363
vt 0.1149292 0.3005371
vt 0.1384277 0.2790527
vt 0.1715088 0.2626953
vt 0.1768799 0.2780762
vt 0.2054443 0.2561035
vt 0.2033691 0.2714844
vt 0.07250977 0.3886719
vt 0.06860352 0.3947754
vt 0.102356 0.286377
vt 0.0814209 0.3200684
vt 0.08673096 0.3261719
vt 0.1069946 0.2315674
vt 0.1339111 0.2561035
vt 0.06512451 0.3845215
vt 0.1748047 0.2425537
vt 0.1715088 0.2626953
vt 0.210083 0.2408447
vt 0.1402588 0.2268066
vt 0.1748047 0.2425537
vt 0.06359863 0.3540039
vt 0.06585693 0.3322754
vt 0.06045532 0.3869629
vt 0.06341553 0.3972168
vt 0.07519531 0.416748
vt 0.04351807 0.3806152
vt 0.06018066 0.3774414
vt 0.05490112 0.3796387
vt 0.04351807 0.3540039
vt 0.05422974 0.3588867
vt 0.04351807 0.3205566
vt 0.06329346 0.3154297
vt 0.04351807 0.3007812
vt 0.3837891 0.3901367
vt 0.3615723 0.3974609
vt 0.3688965 0.4245605
vt 0.3596191 0.3718262
vt 0.3796387 0.3642578
vt 0.4074707 0.3876953
vt 0.375 0.3361816
vt 0.355957 0.3449707
vt 0.3513184 0.3200684
vt 0.3935547 0.3288574
vt 0.3693848 0.3117676
vt 0.3503418 0.2919922
vt 0.3847656 0.3000488
vt 0.361084 0.2788086
vt 0.3278809 0.2624512
vt 0.3227539 0.277832
vt 0.2939453 0.2563477
vt 0.2961426 0.2714844
vt 0.4274902 0.3884277
vt 0.4316406 0.3942871
vt 0.3972168 0.2858887
vt 0.418457 0.3193359
vt 0.4130859 0.3249512
vt 0.392334 0.2310791
vt 0.3654785 0.2558594
vt 0.4348145 0.3840332
vt 0.2683105 0.2607422
vt 0.2685547 0.2746582
vt 0.324707 0.2424316
vt 0.3278809 0.2624512
vt 0.2893066 0.2408447
vt 0.4362793 0.3532715
vt 0.434082 0.3312988
vt 0.2497559 0.2609863
vt 0.2497559 0.2753906
vt 0.230957 0.2746582
vt 0.2678223 0.2497559
vt 0.2313232 0.2607422
vt 0.2497559 0.2512207
vt 0.2315674 0.2497559
vt 0.2497559 0.239624
vt 0.2678223 0.239502
vt 0.2316895 0.239502
vt 0.2749023 0.2154541
vt 0.324707 0.2424316
vt 0.2497559 0.2172852
vt 0.2244873 0.2154541
vt 0.3193359 0.2197266
vt 0.2496338 0.1795654
vt 0.3000488 0.1794434
vt 0.1992188 0.1796875
vt 0.1799316 0.2198486
vt 0.1535645 0.1796875
vt 0.1236572 0.1798096
vt 0.08978271 0.2047119
vt 0.08306885 0.1798096
vt 0.3591309 0.2264404
vt 0.3457031 0.1794434
vt 0.3754883 0.1793213
vt 0.4094238 0.2042236
vt 0.4160156 0.1793213
vt 0.1433105 0.4719238
vt 0.1409912 0.4926758
vt 0.1650391 0.4926758
vt 0.1662598 0.4753418
vt 0.1464844 0.4499512
vt 0.1708984 0.453125
vt 0.1934814 0.4760742
vt 0.1965332 0.4536133
vt 0.1925049 0.4926758
vt 0.2241211 0.451416
vt 0.22229 0.4755859
vt 0.222168 0.4926758
vt 0.25 0.4494629
vt 0.25 0.4926758
vt 0.25 0.4741211
vt 0.2775879 0.4755859
vt 0.277832 0.4926758
vt 0.2758789 0.451416
vt 0.307373 0.4926758
vt 0.3066406 0.4760742
vt 0.3034668 0.4536133
vt 0.3291016 0.453125
vt 0.3349609 0.4926758
vt 0.3337402 0.4753418
vt 0.3535156 0.4499512
vt 0.3566895 0.4719238
vt 0.3591309 0.4926758
vt 0.4367676 0.3967285
vt 0.425293 0.4165039
vt 0.4396973 0.3862305
vt 0.456543 0.3798828
vt 0.4399414 0.3769531
vt 0.4450684 0.3789062
vt 0.456543 0.3532715
vt 0.4458008 0.3581543
vt 0.456543 0.3195801
vt 0.4367676 0.3144531
vt 0.456543 0.3000488
vn -0.7085784 -0.5633054 -0.4249749
vn -0.7027255 -0.5186291 -0.4870326
vn -0.3370065 -0.6166833 -0.711427
vn 0.3370059 -0.6166835 -0.7114272
vn 0.7024072 -0.5167252 -0.4895091
vn 0.7087314 -0.5620064 -0.4264372
vn -0.9789134 -0.06265763 0.1944289
vn -0.9720772 -0.09424035 0.2149063
vn -0.9232071 -0.2056396 0.3246549
vn -0.948154 -0.1842083 0.258981
vn -0.9681849 -0.2209321 0.1175026
vn -0.9112318 -0.2245703 0.3452897
vn -0.9233397 -0.3485056 0.1612065
vn -0.917188 -0.2801057 0.2833847
vn -0.8925916 -0.370628 0.2567393
vn -0.9333078 -0.2956098 0.2038414
vn -0.8748599 -0.4170802 0.2463011
vn -0.8481793 -0.4853882 0.2121087
vn -0.941574 -0.3335635 0.04662403
vn -0.7654795 -0.6358778 0.09849105
vn -0.7635796 -0.5520368 0.3349648
vn -0.7172856 -0.6140132 0.329377
vn -0.7697521 -0.5371525 0.3448898
vn -0.6590326 -0.5767964 0.4826821
vn -0.8176896 -0.122799 0.5624092
vn -0.4803455 0.8263185 0.2940511
vn -0.7875556 -0.5013986 -0.3582676
vn -0.3370065 -0.6166833 -0.711427
vn -0.7334223 -0.4993668 0.4612207
vn -0.7085784 -0.5633054 -0.4249749
vn -0.5947639 -0.8017708 -0.05847566
vn -0.8483716 -0.08843584 0.5219622
vn -0.5354671 -0.8423565 -0.06091454
vn -0.7635796 -0.5520368 0.3349648
vn -0.4467683 -0.8863962 -0.1212427
vn -0.4340647 -0.8745449 -0.2162386
vn -0.4907416 -0.8684164 -0.07089121
vn -0.7972631 -0.2147926 0.5641237
vn -0.1439963 -0.6144653 -0.7756916
vn -0.3739822 0.7217308 -0.5824448
vn 0.3622458 0.8488978 -0.3849033
vn -0.9112318 -0.2245703 0.3452897
vn 0.2355637 0.1669228 -0.9574165
vn -0.979973 -0.1480557 0.1331631
vn -0.469652 0.09584405 -0.8776337
vn 0.1967202 -0.2418135 -0.9501722
vn -0.2753608 -0.2846348 -0.9182371
vn -0.3370065 -0.6166833 -0.711427
vn -0.7334223 -0.4993668 0.4612207
vn -0.9333078 -0.2956098 0.2038414
vn 0.9789135 -0.06265765 0.1944289
vn 0.9232071 -0.2056396 0.3246552
vn 0.9720773 -0.09424035 0.214906
vn 0.948154 -0.1842083 0.258981
vn 0.9681849 -0.2209322 0.1175026
vn 0.9112318 -0.2245702 0.3452897
vn 0.9233397 -0.3485057 0.1612063
vn 0.9171879 -0.2801058 0.2833852
vn 0.8925915 -0.3706279 0.2567399
vn 0.9333079 -0.2956098 0.2038412
vn 0.8748599 -0.4170801 0.2463012
vn 0.8481792 -0.4853881 0.2121091
vn 0.9417292 -0.3332419 0.04578175
vn 0.7654794 -0.635878 0.09849111
vn 0.7635798 -0.5520369 0.3349645
vn 0.7172856 -0.6140134 0.3293764
vn 0.7697522 -0.5371525 0.3448893
vn 0.6590312 -0.5767953 0.4826852
vn 0.8169494 -0.1221449 0.5636261
vn 0.4781061 0.8279875 0.2930037
vn 0.787675 -0.5007778 -0.3588728
vn 0.3370059 -0.6166835 -0.7114272
vn 0.7329597 -0.5006641 0.460549
vn 0.7087314 -0.5620064 -0.4264372
vn 0.5947638 -0.8017709 -0.05847524
vn 0.8483712 -0.08843599 0.5219629
vn 0.5029688 -0.4268909 0.7515227
vn 0.3841578 -0.2956924 0.8746363
vn 0.5354671 -0.8423566 -0.06091272
vn 0.7635798 -0.5520369 0.3349645
vn 0.4467685 -0.8863963 -0.1212417
vn 0.7972633 -0.2147926 0.5641236
vn 0.1431871 -0.6139154 -0.7762765
vn -1.438741E-07 -0.5035157 0.863986
vn -2.220786E-07 -0.304189 0.9526117
vn -0.384158 -0.2956925 0.8746363
vn 0.4946143 -0.7896127 0.3631372
vn -0.5029689 -0.4268909 0.7515228
vn -0 -0.912397 0.4093066
vn -0.4946136 -0.7896109 0.3631418
vn -0 -0.9797671 -0.2001414
vn 0.1572378 -0.9606337 -0.2290398
vn -0.157238 -0.9606345 -0.229036
vn 0.2811269 -0.9390906 -0.1976777
vn 0.4907417 -0.8684165 -0.0708887
vn -0 -0.9713649 -0.2375925
vn -0.2811268 -0.9390906 -0.1976781
vn 0.3466531 -0.9184219 -0.1906112
vn -3.22821E-07 -0.8042625 0.5942743
vn 0.6789792 -0.4824237 0.5534028
vn -0.6789791 -0.4824237 0.553403
vn -0.3466532 -0.9184217 -0.1906126
vn -0.8797656 -0.3866035 0.2766769
vn -0.9301413 -0.1649602 -0.3280627
vn -0.8565232 -0.260643 -0.4454584
vn 0.290201 -0.8061004 0.5157378
vn 0.4340646 -0.8745452 -0.2162374
vn 0.8797654 -0.3866035 0.2766778
vn 0.9301229 -0.164278 -0.3284574
vn 0.8566528 -0.2564363 -0.4476453
vn -0.291839 -0.8058314 0.5152338
vn -0.7755225 0.2071288 0.5963744
vn -0.723024 0.04469012 0.6893759
vn 0.8968056 -0.399273 0.1905796
vn -0.5395614 0.1822371 0.8219873
vn -0.7439104 -0.05092565 0.6663362
vn -0.5293051 -0.05363559 0.8467345
vn -0.260697 0.1477941 0.9540409
vn -0.2973514 -0.05594828 0.9531274
vn -0.2866012 0.02975778 0.9575877
vn -0.1861965 -0.02099087 0.9822882
vn -0.1262904 0.2034524 0.9709057
vn -0.1550494 -0.07033506 0.9853997
vn -1.408521E-07 0.00716622 0.9999744
vn -0.06843541 -0.228283 0.9711866
vn -0 0.1202853 0.9927394
vn 0.1262905 0.2034528 0.9709056
vn 0.07745536 -0.3749784 0.9237921
vn 0.1861963 -0.02099082 0.9822884
vn 0.2859836 0.03105644 0.9577311
vn 0.2606969 0.1477941 0.9540409
vn 0.2973512 -0.05594822 0.9531276
vn 0.5293049 -0.05363547 0.8467346
vn 0.5434498 0.07757111 0.8358498
vn 0.539561 0.1822372 0.8219875
vn 0.7439104 -0.05092548 0.6663361
vn 0.7755224 0.2071288 0.5963747
vn 0.7627947 -0.4163339 0.4947831
vn -0.359718 0.8507353 -0.3832135
vn 0.9112318 -0.2245702 0.3452897
vn 0.3730976 0.7214955 -0.5833031
vn -0.2343355 0.1669716 -0.9577095
vn 0.9799731 -0.1480555 0.1331624
vn 0.4671786 0.09624853 -0.8789087
vn -0.1958219 -0.2421373 -0.9502754
vn 0.2741022 -0.2843228 -0.9187102
vn 0.3370059 -0.6166835 -0.7114272
vn 0.7329597 -0.5006641 0.460549
vn 0.9333079 -0.2956098 0.2038412
g head_geo_0
f 3/3/3 2/2/2 1/1/1
f 6/6/6 5/5/5 4/4/4
f 9/9/9 8/8/8 7/7/7
f 9/9/9 7/7/7 10/10/10
f 7/7/7 11/11/11 10/10/10
f 11/11/11 7/7/7 12/12/12
f 10/10/10 11/11/11 13/13/13
f 14/14/14 10/10/10 13/13/13
f 15/15/15 14/14/14 13/13/13
f 11/11/11 12/12/12 16/16/16
f 11/11/11 16/16/16 13/13/13
f 17/17/17 15/15/15 13/13/13
f 15/15/15 17/17/17 18/18/18
f 17/17/17 13/13/13 19/19/19
f 13/13/13 16/16/16 19/19/19
f 17/17/17 20/20/20 18/18/18
f 17/17/17 19/19/19 20/20/20
f 18/18/18 20/20/20 21/21/21
f 22/22/22 18/18/18 21/21/21
f 22/22/22 21/21/21 23/23/23
f 24/24/24 22/22/22 23/23/23
f 16/16/16 12/12/12 25/25/25
f 25/25/25 12/12/12 26/26/26
f 19/19/19 16/16/16 27/27/27
f 20/20/20 19/19/19 27/27/27
f 16/16/16 28/28/28 27/27/27
f 16/16/16 25/25/25 29/29/29
f 30/30/30 27/27/27 28/28/28
f 31/31/31 20/20/20 27/27/27
f 31/31/31 27/27/27 30/30/30
f 25/25/25 32/32/32 29/29/29
f 32/32/32 25/25/25 26/26/26
f 33/33/33 20/20/20 31/31/31
f 33/33/33 34/34/34 20/20/20
f 34/34/34 33/33/33 23/23/23
f 33/33/33 35/35/35 23/23/23
f 30/30/30 36/36/36 31/31/31
f 37/37/37 31/31/31 36/36/36
f 38/38/38 29/29/29 32/32/32
f 29/29/29 38/38/38 39/39/39
f 40/40/40 32/32/32 26/26/26
f 41/41/41 40/40/40 26/26/26
f 26/26/26 42/42/42 41/41/41
f 43/43/43 40/40/40 41/41/41
f 44/44/44 32/32/32 40/40/40
f 32/32/32 44/44/44 38/38/38
f 45/45/45 40/40/40 43/43/43
f 45/45/45 44/44/44 40/40/40
f 38/38/38 44/44/44 45/45/45
f 45/45/45 43/43/43 46/46/46
f 47/47/47 38/38/38 45/45/45
f 47/47/47 45/45/45 46/46/46
f 38/38/38 47/47/47 39/39/39
f 47/47/47 46/46/46 39/39/39
f 46/46/46 48/48/48 39/39/39
f 49/49/49 39/39/39 48/48/48
f 48/48/48 50/50/50 49/49/49
f 53/53/53 52/52/52 51/51/51
f 52/52/52 54/54/54 51/51/51
f 54/54/54 55/55/55 51/51/51
f 56/56/56 51/51/51 55/55/55
f 57/57/57 55/55/55 54/54/54
f 58/58/58 57/57/57 54/54/54
f 57/57/57 58/58/58 59/59/59
f 60/60/60 56/56/56 55/55/55
f 60/60/60 55/55/55 57/57/57
f 61/61/61 57/57/57 59/59/59
f 61/61/61 59/59/59 62/62/62
f 61/61/61 63/63/63 57/57/57
f 63/63/63 60/60/60 57/57/57
f 61/61/61 62/62/62 64/64/64
f 61/61/61 64/64/64 63/63/63
f 64/64/64 62/62/62 65/65/65
f 62/62/62 66/66/66 65/65/65
f 65/65/65 66/66/66 67/67/67
f 66/66/66 68/68/68 67/67/67
f 56/56/56 60/60/60 69/69/69
f 56/56/56 69/69/69 70/70/70
f 60/60/60 63/63/63 71/71/71
f 71/71/71 63/63/63 64/64/64
f 72/72/72 60/60/60 71/71/71
f 69/69/69 60/60/60 73/73/73
f 72/72/72 71/71/71 74/74/74
f 75/75/75 71/71/71 64/64/64
f 74/74/74 71/71/71 75/75/75
f 76/76/76 69/69/69 73/73/73
f 69/69/69 76/76/76 70/70/70
f 77/77/77 67/67/67 68/68/68
f 78/78/78 77/77/77 68/68/68
f 79/79/79 75/75/75 64/64/64
f 79/79/79 64/64/64 80/80/80
f 79/79/79 80/80/80 67/67/67
f 81/81/81 79/79/79 67/67/67
f 73/73/73 82/82/82 76/76/76
f 82/82/82 73/73/73 83/83/83
f 84/84/84 77/77/77 78/78/78
f 85/85/85 84/84/84 78/78/78
f 85/85/85 86/86/86 84/84/84
f 67/67/67 77/77/77 87/87/87
f 81/81/81 67/67/67 87/87/87
f 86/86/86 88/88/88 84/84/84
f 86/86/86 24/24/24 88/88/88
f 24/24/24 23/23/23 88/88/88
f 77/77/77 84/84/84 89/89/89
f 84/84/84 88/88/88 89/89/89
f 87/87/87 77/77/77 89/89/89
f 90/90/90 88/88/88 23/23/23
f 88/88/88 90/90/90 89/89/89
f 35/35/35 90/90/90 23/23/23
f 87/87/87 89/89/89 91/91/91
f 89/89/89 90/90/90 91/91/91
f 87/87/87 92/92/92 81/81/81
f 92/92/92 87/87/87 91/91/91
f 93/93/93 90/90/90 35/35/35
f 90/90/90 93/93/93 91/91/91
f 94/94/94 81/81/81 92/92/92
f 81/81/81 94/94/94 95/95/95
f 91/91/91 96/96/96 92/92/92
f 96/96/96 91/91/91 93/93/93
f 96/96/96 94/94/94 92/92/92
f 35/35/35 97/97/97 93/93/93
f 97/97/97 96/96/96 93/93/93
f 35/35/35 37/37/37 97/97/97
f 94/94/94 98/98/98 95/95/95
f 95/95/95 98/98/98 75/75/75
f 94/94/94 96/96/96 99/99/99
f 97/97/97 99/99/99 96/96/96
f 94/94/94 99/99/99 100/100/100
f 98/98/98 94/94/94 100/100/100
f 99/99/99 97/97/97 101/101/101
f 37/37/37 102/102/102 97/97/97
f 97/97/97 102/102/102 101/101/101
f 102/102/102 37/37/37 36/36/36
f 102/102/102 36/36/36 101/101/101
f 36/36/36 103/103/103 101/101/101
f 30/30/30 103/103/103 36/36/36
f 104/104/104 103/103/103 30/30/30
f 105/105/105 104/104/104 30/30/30
f 106/106/106 104/104/104 105/105/105
f 98/98/98 100/100/100 107/107/107
f 98/98/98 107/107/107 75/75/75
f 100/100/100 108/108/108 107/107/107
f 75/75/75 107/107/107 74/74/74
f 107/107/107 108/108/108 74/74/74
f 108/108/108 109/109/109 74/74/74
f 109/109/109 110/110/110 74/74/74
f 109/109/109 111/111/111 110/110/110
f 114/114/114 113/113/113 112/112/112
f 115/115/115 114/114/114 112/112/112
f 112/112/112 116/116/116 115/115/115
f 116/116/116 117/117/117 115/115/115
f 114/114/114 115/115/115 118/118/118
f 115/115/115 117/117/117 118/118/118
f 117/117/117 119/119/119 118/118/118
f 120/120/120 114/114/114 118/118/118
f 119/119/119 121/121/121 118/118/118
f 118/118/118 122/122/122 120/120/120
f 121/121/121 122/122/122 118/118/118
f 123/123/123 120/120/120 122/122/122
f 122/122/122 121/121/121 124/124/124
f 125/125/125 123/123/123 122/122/122
f 126/126/126 122/122/122 124/124/124
f 122/122/122 126/126/126 125/125/125
f 127/127/127 126/126/126 124/124/124
f 126/126/126 127/127/127 125/125/125
f 128/128/128 125/125/125 127/127/127
f 129/129/129 127/127/127 124/124/124
f 130/130/130 128/128/128 127/127/127
f 127/127/127 129/129/129 131/131/131
f 127/127/127 131/131/131 130/130/130
f 129/129/129 132/132/132 131/131/131
f 132/132/132 133/133/133 131/131/131
f 134/134/134 130/130/130 131/131/131
f 133/133/133 135/135/135 131/131/131
f 135/135/135 134/134/134 131/131/131
f 133/133/133 136/136/136 135/135/135
f 136/136/136 137/137/137 135/135/135
f 134/134/134 135/135/135 137/137/137
f 138/138/138 134/134/134 137/137/137
f 140/140/140 70/70/70 139/139/139
f 141/141/141 139/139/139 70/70/70
f 76/76/76 141/141/141 70/70/70
f 141/141/141 142/142/142 139/139/139
f 76/76/76 143/143/143 141/141/141
f 143/143/143 76/76/76 82/82/82
f 141/141/141 144/144/144 142/142/142
f 143/143/143 144/144/144 141/141/141
f 143/143/143 82/82/82 144/144/144
f 142/142/142 144/144/144 145/145/145
f 82/82/82 146/146/146 144/144/144
f 144/144/144 146/146/146 145/145/145
f 146/146/146 82/82/82 83/83/83
f 145/145/145 146/146/146 83/83/83
f 147/147/147 145/145/145 83/83/83
f 83/83/83 148/148/148 147/147/147
f 149/149/149 147/147/147 148/148/148
