g facial_mouth_geo
v -0.0537469 1.356986 0.1217162
v -0.06140283 1.38022 0.1195086
v -0.04183846 1.386055 0.1260193
v -0.07567719 1.380033 0.1113133
v -0.07306971 1.366161 0.1120325
v -0.08491369 1.38045 0.1025919
v -0.08332983 1.366931 0.1009992
v -0.0936259 1.380143 0.0792472
v -0.08966821 1.35638 0.07278719
v -0.07934987 1.343079 0.09237017
v -0.08771864 1.338913 0.06345356
v -0.06857572 1.349271 0.1102778
v -0.073741 1.328518 0.07976372
v -0.08249336 1.331153 0.04335659
v -0.05080867 1.344351 0.1191866
v -0.06555466 1.333692 0.1038682
v -0.06013617 1.320035 0.09214014
v -0.07076644 1.319315 0.06031195
v -0.07446381 1.32386 0.03601059
v -0.06219478 1.314082 0.05068946
v -0.04927124 1.330795 0.1129991
v -0.05756076 1.311847 0.07249881
v -0.05003881 1.306484 0.06192554
v -0.04063208 1.30315 0.08717249
v -0.03255798 1.299072 0.07544766
v -0.01577054 1.292083 0.1028079
v -0.01003224 1.290634 0.0920306
v -2.220446E-18 1.28855 0.09494755
v -0.04128884 1.310614 0.1002821
v -0.03605429 1.32058 0.1124114
v -0.01717917 1.298869 0.1088187
v 1.353859E-17 1.287815 0.1059825
v 0.01577054 1.292083 0.1028079
v 0.01003224 1.290634 0.0920306
v 0.03255798 1.299072 0.07544766
v 0.04063208 1.30315 0.08717249
v 0.05003881 1.306484 0.06192554
v 0.05756076 1.311847 0.07249881
v 0.06013617 1.320035 0.09214014
v 0.06219478 1.314082 0.05068946
v 0.07076644 1.319315 0.06031195
v 0.07446381 1.32386 0.03601059
v 0.08249336 1.331153 0.04335659
v 0.08771864 1.338913 0.06345356
v 0.04128884 1.310614 0.1002821
v 0.01717917 1.298869 0.1088187
v 0.073741 1.328518 0.07976372
v 0.07934987 1.343079 0.09237017
v 0.08966821 1.35638 0.07278719
v 2.220446E-17 1.294239 0.1114523
v 0.03605429 1.32058 0.1124114
v 0.06555466 1.333692 0.1038682
v 0.08332983 1.366931 0.1009992
v 0.0936259 1.380143 0.0792472
v 0.08491369 1.38045 0.1025919
v 0.04927124 1.330795 0.1129991
v 0.06857572 1.349271 0.1102778
v 0.07306971 1.366161 0.1120325
v 0.07567719 1.380033 0.1113133
v 0.05080867 1.344351 0.1191866
v 0.0537469 1.356986 0.1217162
v 0.06140283 1.38022 0.1195086
v 0.04183846 1.386055 0.1260193
v 0.03334198 1.339966 0.1264156
v 0.03356412 1.353149 0.1297097
v 0.01771814 1.337889 0.1301664
v 0.03420746 1.328965 0.1195508
v 0.03861642 1.363219 0.1295304
v 0.01885619 1.36966 0.142114
v 0.01848017 1.390225 0.1350539
v 0.01855 1.327293 0.1240719
v 0.01761609 1.352055 0.1343514
v -2.253303E-18 1.350904 0.1375353
v 8.252851E-18 1.376934 0.1549296
v 1.469896E-17 1.393761 0.1416264
v -0.01848017 1.390225 0.1350539
v -0.01885619 1.36966 0.142114
v 0.01889139 1.315345 0.1158504
v 2.611005E-19 1.311591 0.1193778
v -1.771944E-17 1.326665 0.1274753
v -0.01889139 1.315345 0.1158504
v -0.01855 1.327293 0.1240719
v -0.01771814 1.337889 0.1301664
v -5.529567E-18 1.336289 0.1325664
v -0.03420746 1.328965 0.1195508
v -0.03334198 1.339966 0.1264156
v -0.03356412 1.353149 0.1297097
v -0.01761609 1.352055 0.1343514
v -0.03861642 1.363219 0.1295304
vt 0.2005615 0.3522949
vt 0.192627 0.3662109
vt 0.210083 0.3706055
vt 0.1767578 0.3632812
vt 0.1828613 0.3513184
vt 0.1617432 0.3642578
vt 0.1679688 0.3505859
vt 0.144165 0.3664551
vt 0.1472168 0.3464355
vt 0.1748047 0.3374023
vt 0.1505127 0.3317871
vt 0.1890869 0.3383789
vt 0.1860352 0.3220215
vt 0.1540527 0.3161621
vt 0.206665 0.3376465
vt 0.194458 0.3295898
vt 0.2055664 0.3149414
vt 0.1810303 0.3068848
vt 0.1575928 0.3034668
vt 0.1802979 0.2954102
vt 0.208252 0.3278809
vt 0.2023926 0.2995605
vt 0.2004395 0.2885742
vt 0.2205811 0.2915039
vt 0.2215576 0.2814941
vt 0.2416992 0.2844238
vt 0.2451172 0.2722168
vt 0.25 0.2719727
vt 0.2211914 0.3017578
vt 0.2232666 0.314209
vt 0.2401123 0.2937012
vt 0.25 0.2797852
vt 0.2583008 0.2844238
vt 0.2548828 0.2722168
vt 0.2785645 0.2814941
vt 0.279541 0.2915039
vt 0.2995605 0.2885742
vt 0.2976074 0.2995605
vt 0.2944336 0.3149414
vt 0.3195801 0.2954102
vt 0.3190918 0.3068848
vt 0.3425293 0.3034668
vt 0.3459473 0.3161621
vt 0.3493652 0.3317871
vt 0.2788086 0.3017578
vt 0.2597656 0.2937012
vt 0.3139648 0.3220215
vt 0.3251953 0.3374023
vt 0.3527832 0.3464355
vt 0.25 0.2927246
vt 0.2768555 0.3144531
vt 0.3054199 0.3295898
vt 0.3320312 0.3505859
vt 0.355957 0.3664551
vt 0.3383789 0.3642578
vt 0.291748 0.3278809
vt 0.310791 0.3383789
vt 0.3171387 0.3513184
vt 0.3232422 0.3632812
vt 0.2932129 0.3376465
vt 0.2993164 0.3522949
vt 0.307373 0.3662109
vt 0.2897949 0.3706055
vt 0.2766113 0.3322754
vt 0.2773438 0.3415527
vt 0.2636719 0.3276367
vt 0.2766113 0.3237305
vt 0.2805176 0.3540039
vt 0.2658691 0.3574219
vt 0.2709961 0.3740234
vt 0.2636719 0.3198242
vt 0.2644043 0.3395996
vt 0.25 0.3381348
vt 0.25 0.3642578
vt 0.25 0.3769531
vt 0.2290039 0.3740234
vt 0.2340088 0.3574219
vt 0.2631836 0.3093262
vt 0.25 0.309082
vt 0.25 0.3203125
vt 0.2369385 0.309082
vt 0.2363281 0.3198242
vt 0.2363281 0.3273926
vt 0.25 0.326416
vt 0.2235107 0.3234863
vt 0.2235107 0.3322754
vt 0.2227783 0.3415527
vt 0.2354736 0.3395996
vt 0.2193604 0.3540039
vn -0.4481112 -0.1155894 0.8864735
vn -0.4330364 -0.01796312 0.9011974
vn -0.4385571 0.1093338 0.8920279
vn -0.5848746 -0.09351752 0.8057147
vn -0.6176268 -0.187649 0.7637571
vn -0.8829177 -0.1880577 0.4302216
vn -0.8659822 -0.2388814 0.4393297
vn -0.9269378 -0.2055721 0.3138893
vn -0.9190417 -0.2478583 0.306478
vn -0.8321899 -0.3756793 0.4078296
vn -0.8295043 -0.5062503 0.2358672
vn -0.6360679 -0.3536627 0.6858136
vn -0.7117441 -0.6429151 0.282985
vn -0.6796763 -0.7330802 0.02517243
vn -0.4689568 -0.3509978 0.8104815
vn -0.62582 -0.5220949 0.5794533
vn -0.6065941 -0.7093904 0.3588996
vn -0.6680819 -0.7376398 0.09774401
vn -0.6326001 -0.7729681 -0.04834757
vn -0.5822846 -0.8128955 -0.01206761
vn -0.467728 -0.5141014 0.7189785
vn -0.5710341 -0.8031288 0.1700123
vn -0.4879773 -0.8718397 0.04211459
vn -0.5086364 -0.8354664 0.2080498
vn -0.4144458 -0.9098251 0.02128077
vn -0.4294559 -0.8592741 0.2778769
vn -0.3368943 -0.941469 -0.01176522
vn -0 -0.9995444 -0.03017858
vn -0.5398031 -0.6512508 0.5333714
vn -0.4157332 -0.5387824 0.7327205
vn -0.4077748 -0.5650763 0.7172228
vn -3.448959E-07 -0.9162719 0.4005568
vn 0.4294558 -0.8592738 0.2778783
vn 0.3368944 -0.941469 -0.01176388
vn 0.4144458 -0.9098251 0.02128083
vn 0.5086362 -0.8354661 0.2080517
vn 0.4879773 -0.8718399 0.04211207
vn 0.5710342 -0.8031287 0.1700129
vn 0.6065938 -0.7093899 0.3589011
vn 0.5822846 -0.8128955 -0.01207033
vn 0.6490492 -0.7550253 0.09312236
vn 0.6326001 -0.7729679 -0.0483501
vn 0.6846249 -0.7288858 -0.003762671
vn 0.8489106 -0.4703866 0.2410131
vn 0.5398024 -0.65125 0.533373
vn 0.4077744 -0.5650758 0.7172233
vn 0.7079767 -0.6421471 0.2939661
vn 0.8321898 -0.3756793 0.4078297
vn 0.9190414 -0.2478582 0.3064789
vn -0 -0.5091562 0.8606741
vn 0.4157331 -0.5387821 0.7327209
vn 0.6258205 -0.5220954 0.5794523
vn 0.865982 -0.2388815 0.4393301
vn 0.9269375 -0.2055721 0.31389
vn 0.8829172 -0.1880577 0.4302225
vn 0.4677292 -0.5141028 0.7189768
vn 0.636068 -0.3536631 0.6858132
vn 0.6176268 -0.187649 0.7637572
vn 0.5848743 -0.09351753 0.8057149
vn 0.4689565 -0.3509981 0.8104814
vn 0.4481098 -0.1155889 0.8864743
vn 0.4330362 -0.0179631 0.9011976
vn 0.4385569 0.1093339 0.892028
vn 0.341799 -0.3656192 0.8657344
vn 0.3531969 -0.28007 0.8926436
vn 0.228135 -0.3824226 0.8953812
vn 0.3473799 -0.4949318 0.7964733
vn 0.4258421 8.642048E-05 0.9047974
vn 0.4650869 0.0278279 0.8848275
vn 0.4968659 0.2938485 0.8165643
vn 0.2395283 -0.5028787 0.8305054
vn 0.2771041 -0.3165748 0.90719
vn -0 -0.4375284 0.8992046
vn -2.100565E-07 0.1584229 0.9873713
vn -2.016741E-07 0.4828885 0.8756819
vn -0.4968659 0.2938485 0.8165643
vn -0.4650869 0.02782818 0.8848275
vn 0.3122551 -0.4872268 0.8155408
vn -0 -0.459964 0.8879375
vn -1.286252E-07 -0.4993829 0.8663814
vn -0.3122554 -0.4872272 0.8155404
vn -0.2395285 -0.502879 0.8305052
vn -0.228135 -0.3824222 0.8953813
vn -0 -0.4195684 0.9077237
vn -0.3473805 -0.4949325 0.7964726
vn -0.3417989 -0.3656188 0.8657346
vn -0.3531963 -0.2800697 0.892644
vn -0.2771039 -0.3165746 0.9071902
vn -0.4258418 8.673654E-05 0.9047977
g facial_mouth_geo_0
f 3/3/3 2/2/2 1/1/1
f 2/2/2 4/4/4 1/1/1
f 4/4/4 5/5/5 1/1/1
f 4/4/4 6/6/6 5/5/5
f 6/6/6 7/7/7 5/5/5
f 7/7/7 6/6/6 8/8/8
f 9/9/9 7/7/7 8/8/8
f 10/10/10 7/7/7 9/9/9
f 11/11/11 10/10/10 9/9/9
f 5/5/5 7/7/7 12/12/12
f 7/7/7 10/10/10 12/12/12
f 10/10/10 11/11/11 13/13/13
f 11/11/11 14/14/14 13/13/13
f 1/1/1 5/5/5 15/15/15
f 5/5/5 12/12/12 15/15/15
f 16/16/16 12/12/12 10/10/10
f 13/13/13 16/16/16 10/10/10
f 13/13/13 17/17/17 16/16/16
f 18/18/18 13/13/13 14/14/14
f 17/17/17 13/13/13 18/18/18
f 14/14/14 19/19/19 18/18/18
f 19/19/19 20/20/20 18/18/18
f 16/16/16 21/21/21 12/12/12
f 21/21/21 15/15/15 12/12/12
f 16/16/16 17/17/17 21/21/21
f 18/18/18 20/20/20 22/22/22
f 22/22/22 17/17/17 18/18/18
f 20/20/20 23/23/23 22/22/22
f 22/22/22 23/23/23 24/24/24
f 22/22/22 24/24/24 17/17/17
f 23/23/23 25/25/25 24/24/24
f 26/26/26 24/24/24 25/25/25
f 27/27/27 26/26/26 25/25/25
f 26/26/26 27/27/27 28/28/28
f 24/24/24 29/29/29 17/17/17
f 29/29/29 24/24/24 26/26/26
f 30/30/30 17/17/17 29/29/29
f 21/21/21 17/17/17 30/30/30
f 31/31/31 29/29/29 26/26/26
f 29/29/29 31/31/31 30/30/30
f 32/32/32 26/26/26 28/28/28
f 31/31/31 26/26/26 32/32/32
f 33/33/33 32/32/32 28/28/28
f 34/34/34 33/33/33 28/28/28
f 33/33/33 34/34/34 35/35/35
f 36/36/36 33/33/33 35/35/35
f 35/35/35 37/37/37 36/36/36
f 37/37/37 38/38/38 36/36/36
f 36/36/36 38/38/38 39/39/39
f 37/37/37 40/40/40 38/38/38
f 40/40/40 41/41/41 38/38/38
f 39/39/39 38/38/38 41/41/41
f 40/40/40 42/42/42 41/41/41
f 42/42/42 43/43/43 41/41/41
f 41/41/41 43/43/43 44/44/44
f 36/36/36 45/45/45 33/33/33
f 45/45/45 36/36/36 39/39/39
f 33/33/33 46/46/46 32/32/32
f 45/45/45 46/46/46 33/33/33
f 44/44/44 47/47/47 41/41/41
f 47/47/47 39/39/39 41/41/41
f 44/44/44 48/48/48 47/47/47
f 48/48/48 44/44/44 49/49/49
f 46/46/46 50/50/50 32/32/32
f 50/50/50 31/31/31 32/32/32
f 46/46/46 45/45/45 51/51/51
f 39/39/39 51/51/51 45/45/45
f 39/39/39 47/47/47 52/52/52
f 52/52/52 47/47/47 48/48/48
f 53/53/53 48/48/48 49/49/49
f 53/53/53 49/49/49 54/54/54
f 55/55/55 53/53/53 54/54/54
f 39/39/39 52/52/52 56/56/56
f 39/39/39 56/56/56 51/51/51
f 57/57/57 52/52/52 48/48/48
f 48/48/48 53/53/53 57/57/57
f 56/56/56 52/52/52 57/57/57
f 53/53/53 55/55/55 58/58/58
f 53/53/53 58/58/58 57/57/57
f 55/55/55 59/59/59 58/58/58
f 57/57/57 58/58/58 60/60/60
f 60/60/60 56/56/56 57/57/57
f 58/58/58 59/59/59 61/61/61
f 58/58/58 61/61/61 60/60/60
f 59/59/59 62/62/62 61/61/61
f 62/62/62 63/63/63 61/61/61
f 60/60/60 64/64/64 56/56/56
f 60/60/60 61/61/61 65/65/65
f 60/60/60 65/65/65 64/64/64
f 64/64/64 65/65/65 66/66/66
f 64/64/64 67/67/67 56/56/56
f 67/67/67 64/64/64 66/66/66
f 56/56/56 67/67/67 51/51/51
f 63/63/63 68/68/68 61/61/61
f 61/61/61 68/68/68 65/65/65
f 68/68/68 63/63/63 69/69/69
f 65/65/65 68/68/68 69/69/69
f 63/63/63 70/70/70 69/69/69
f 67/67/67 71/71/71 51/51/51
f 71/71/71 67/67/67 66/66/66
f 72/72/72 65/65/65 69/69/69
f 65/65/65 72/72/72 66/66/66
f 73/73/73 72/72/72 69/69/69
f 66/66/66 72/72/72 73/73/73
f 74/74/74 69/69/69 70/70/70
f 74/74/74 73/73/73 69/69/69
f 75/75/75 74/74/74 70/70/70
f 74/74/74 75/75/75 76/76/76
f 77/77/77 74/74/74 76/76/76
f 73/73/73 74/74/74 77/77/77
f 76/76/76 3/3/3 77/77/77
f 71/71/71 78/78/78 51/51/51
f 78/78/78 46/46/46 51/51/51
f 50/50/50 46/46/46 78/78/78
f 78/78/78 71/71/71 79/79/79
f 79/79/79 50/50/50 78/78/78
f 71/71/71 66/66/66 80/80/80
f 71/71/71 80/80/80 79/79/79
f 50/50/50 79/79/79 81/81/81
f 31/31/31 50/50/50 81/81/81
f 31/31/31 81/81/81 30/30/30
f 82/82/82 81/81/81 79/79/79
f 81/81/81 82/82/82 30/30/30
f 80/80/80 82/82/82 79/79/79
f 83/83/83 82/82/82 80/80/80
f 66/66/66 84/84/84 80/80/80
f 84/84/84 83/83/83 80/80/80
f 84/84/84 66/66/66 73/73/73
f 83/83/83 84/84/84 73/73/73
f 82/82/82 85/85/85 30/30/30
f 85/85/85 82/82/82 83/83/83
f 85/85/85 21/21/21 30/30/30
f 85/85/85 86/86/86 21/21/21
f 86/86/86 85/85/85 83/83/83
f 86/86/86 15/15/15 21/21/21
f 87/87/87 15/15/15 86/86/86
f 87/87/87 86/86/86 83/83/83
f 1/1/1 15/15/15 87/87/87
f 88/88/88 83/83/83 73/73/73
f 88/88/88 87/87/87 83/83/83
f 88/88/88 73/73/73 77/77/77
f 87/87/87 88/88/88 77/77/77
f 89/89/89 1/1/1 87/87/87
f 89/89/89 87/87/87 77/77/77
f 89/89/89 3/3/3 1/1/1
f 3/3/3 89/89/89 77/77/77
