g backface_geo
v -0.1680797 0.7776403 0.007800438
v -0.1667848 0.7471524 0.01628473
v -0.1467426 0.7630987 0.071559
v -0.1479689 0.7924304 0.06314616
v -0.1806484 0.7809565 -0.01909479
v -0.1604365 0.7567028 -0.02165913
v -0.1521223 0.7568957 0.03869018
v -0.1715612 0.7803403 0.04093372
v -0.1573163 0.8098865 -0.06692076
v -0.1357388 0.7869361 -0.07021915
v -0.1621522 0.7552807 -0.02536552
v -0.1827988 0.7775708 -0.02228119
v -0.163411 0.7904111 -0.04704118
v -0.1628187 0.7596402 -0.05453614
v -0.1697328 0.7449248 0.00417408
v -0.1701786 0.7746394 0.01119958
v -0.132984 0.8328297 -0.06927129
v -0.1413278 0.8184226 -0.09621907
v -0.1613713 0.7703423 -0.0646331
v -0.1531633 0.7843587 -0.03877451
v -0.1262849 0.861623 -0.07160673
v -0.1074686 0.8458414 -0.0916115
v -0.1397792 0.7950326 -0.08235132
v -0.1577411 0.8104063 -0.06302303
v -0.1141451 0.8617389 -0.06027512
v -0.1090012 0.8668104 -0.09088181
v -0.1251501 0.8350316 -0.0990831
v -0.13007 0.8301578 -0.06910721
v -0.09940316 0.8250958 0.07959268
v -0.07110588 0.8173474 0.0915323
v -0.05149615 0.8743579 0.08277774
v -0.07881475 0.8815948 0.07120693
v -0.1226603 0.8040401 0.08770681
v -0.09729837 0.7868618 0.07964282
v -0.06257158 0.8368902 0.08121903
v -0.08716607 0.8532858 0.08889021
v -0.1741682 0.7789823 0.05787104
v -0.1543841 0.7584012 0.04414541
v -0.1076184 0.7824031 0.07493921
v -0.1268449 0.8022186 0.08798502
v -0.1441652 0.7890866 0.0657028
v -0.1256326 0.7650964 0.07488077
v -0.08237629 0.8045684 0.09166974
v -0.1003588 0.8275523 0.08266895
v 0.02517832 0.9113992 0.1309971
v 0.03801513 0.8690645 0.1278891
v 0.08055871 0.8843025 0.1049629
v 0.06714002 0.9271851 0.1077581
v 0.04680903 0.8730872 0.08384723
v 0.09165668 0.8444228 0.0758136
v 0.08598036 0.8768306 0.06841604
v 0.050616 0.8402431 0.08670025
vt 0.3056641 0.550293
vt 0.2763672 0.550293
vt 0.2763672 0.5922852
vt 0.3056641 0.5922852
vt 0.3056641 0.550293
vt 0.2763672 0.550293
vt 0.2763672 0.5922852
vt 0.3056641 0.5922852
vt 0.3056641 0.550293
vt 0.2763672 0.550293
vt 0.2763672 0.5922852
vt 0.3056641 0.5922852
vt 0.3056641 0.550293
vt 0.2763672 0.550293
vt 0.2763672 0.5922852
vt 0.3056641 0.5922852
vt 0.3056641 0.550293
vt 0.2763672 0.550293
vt 0.2763672 0.5922852
vt 0.3056641 0.5922852
vt 0.3056641 0.550293
vt 0.2763672 0.550293
vt 0.2763672 0.5922852
vt 0.3056641 0.5922852
vt 0.3056641 0.550293
vt 0.2763672 0.550293
vt 0.2763672 0.5922852
vt 0.3056641 0.5922852
vt 0.3056641 0.550293
vt 0.2763672 0.550293
vt 0.2763672 0.5922852
vt 0.3056641 0.5922852
vt 0.3056641 0.550293
vt 0.2763672 0.550293
vt 0.2763672 0.5922852
vt 0.3056641 0.5922852
vt 0.3056641 0.550293
vt 0.2763672 0.550293
vt 0.2763672 0.5922852
vt 0.3056641 0.5922852
vt 0.3056641 0.550293
vt 0.2763672 0.550293
vt 0.2763672 0.5922852
vt 0.3056641 0.5922852
vt 0.3146973 0.5898438
vt 0.3146973 0.5527344
vt 0.3544922 0.5527344
vt 0.3544922 0.5898438
vt 0.2631836 0.5405273
vt 0.3061523 0.5087891
vt 0.3061523 0.5405273
vt 0.2631836 0.5087891
vn 0.9432963 -0.05281516 -0.3277237
vn 0.9432963 -0.05281517 -0.3277238
vn 0.9432963 -0.05281517 -0.3277238
vn 0.9432963 -0.05281516 -0.3277237
vn 0.7591872 0.6419354 -0.1074881
vn 0.7591872 0.6419355 -0.1074881
vn 0.7591873 0.6419353 -0.1074881
vn 0.7591872 0.6419354 -0.1074881
vn 0.5890977 0.4556702 0.6673294
vn 0.5890977 0.4556701 0.6673295
vn 0.5890977 0.4556702 0.6673295
vn 0.5890977 0.4556701 0.6673294
vn 0.9934784 -0.01021036 0.1135622
vn 0.9934784 -0.01021036 0.1135621
vn 0.9934784 -0.01021036 0.1135621
vn 0.9934784 -0.01021036 0.1135621
vn 0.9071202 -0.4165563 -0.06011631
vn 0.9071202 -0.4165563 -0.06011631
vn 0.9071202 -0.4165563 -0.06011631
vn 0.9071202 -0.4165564 -0.06011631
vn 0.6038946 -0.2447717 0.75855
vn 0.6038946 -0.2447717 0.75855
vn 0.6038946 -0.2447717 0.75855
vn 0.6038946 -0.2447717 0.75855
vn 0.8822743 -0.46548 0.0701477
vn 0.8822743 -0.46548 0.07014771
vn 0.8822743 -0.46548 0.0701477
vn 0.8822743 -0.46548 0.0701477
vn 0.3187752 -0.2509101 -0.9140167
vn 0.3187752 -0.2509101 -0.9140167
vn 0.3187752 -0.2509102 -0.9140167
vn 0.3187752 -0.2509101 -0.9140167
vn -0.1942207 0.1642643 -0.9671068
vn -0.1942207 0.1642643 -0.9671068
vn -0.1942207 0.1642643 -0.9671068
vn -0.1942208 0.1642643 -0.9671068
vn 0.1580574 0.646983 -0.745943
vn 0.1580574 0.646983 -0.745943
vn 0.1580573 0.6469829 -0.745943
vn 0.1580574 0.646983 -0.745943
vn 0.3968489 -0.0462776 -0.9167166
vn 0.3968489 -0.0462776 -0.9167166
vn 0.3968489 -0.0462776 -0.9167166
vn 0.3968489 -0.0462776 -0.9167166
vn -0.4554643 -0.07890154 -0.8867508
vn -0.4554643 -0.07890154 -0.8867508
vn -0.4554642 -0.07890154 -0.8867508
vn -0.4554643 -0.07890154 -0.8867508
vn -0.2825777 -0.1779383 -0.9425964
vn -0.2958073 -0.2010906 -0.9338419
vn -0.3314369 -0.2647603 -0.9055669
vn -0.2441153 -0.1119694 -0.9632604
g backface_geo_0
f 3/3/3 2/2/2 1/1/1
f 4/4/4 3/3/3 1/1/1
f 7/7/7 6/6/6 5/5/5
f 8/8/8 7/7/7 5/5/5
f 11/11/11 10/10/10 9/9/9
f 12/12/12 11/11/11 9/9/9
f 15/15/15 14/14/14 13/13/13
f 16/16/16 15/15/15 13/13/13
f 19/19/19 18/18/18 17/17/17
f 20/20/20 19/19/19 17/17/17
f 23/23/23 22/22/22 21/21/21
f 24/24/24 23/23/23 21/21/21
f 27/27/27 26/26/26 25/25/25
f 28/28/28 27/27/27 25/25/25
f 31/31/31 30/30/30 29/29/29
f 32/32/32 31/31/31 29/29/29
f 35/35/35 34/34/34 33/33/33
f 36/36/36 35/35/35 33/33/33
f 39/39/39 38/38/38 37/37/37
f 40/40/40 39/39/39 37/37/37
f 43/43/43 42/42/42 41/41/41
f 44/44/44 43/43/43 41/41/41
f 47/47/47 46/46/46 45/45/45
f 48/48/48 47/47/47 45/45/45
f 51/51/51 50/50/50 49/49/49
f 50/50/50 52/52/52 49/49/49
