g facial_mouth_geo
v 0.08604181 1.321181 0.07336503
v 0.07648021 1.304374 0.09255641
v 0.07749598 1.317721 0.09409666
v 0.08200471 1.302752 0.06741827
v 0.0669419 1.304439 0.1027884
v 0.06876702 1.318227 0.1021804
v 0.07408265 1.286836 0.08538037
v 0.0798304 1.287536 0.05898687
v 0.05309404 1.309468 0.1117975
v 0.0558206 1.320298 0.1103679
v 0.03852058 1.324626 0.1177407
v 0.0639023 1.290207 0.1015995
v 0.06925885 1.274166 0.07474528
v 0.05870178 1.27679 0.09661281
v 0.06169239 1.26609 0.05707099
v 0.07449175 1.278422 0.04069159
v 0.06837928 1.270203 0.03392553
v 0.05488028 1.260976 0.04967818
v 0.04678588 1.257096 0.06932844
v 0.04139223 1.252889 0.06194052
v 0.05219213 1.26308 0.08596642
v 0.02889629 1.246081 0.08326898
v 0.02600565 1.244366 0.0748183
v 0.04421912 1.273673 0.1056163
v 0.007414214 1.236104 0.09753189
v 0.003133655 1.234827 0.08869859
v 4.128766E-17 1.233553 0.08992473
v 0.04652436 1.286625 0.1104231
v 0.04978701 1.298684 0.1127063
v 0.0356471 1.303708 0.1207439
v 0.03054472 1.294013 0.1210232
v 0.01802186 1.307477 0.1344114
v 0.01945556 1.326122 0.1269714
v 0.02897126 1.281617 0.1179456
v 0.01425528 1.278141 0.1221383
v 0.02922554 1.27076 0.1116251
v 0.03145431 1.261358 0.1049349
v 0.01570339 1.29129 0.1260562
v 5.892256E-17 1.288666 0.1295894
v 5.494222E-17 1.311979 0.1457906
v 4.995211E-17 1.327948 0.1335914
v -0.01945556 1.326122 0.1269714
v -0.01802186 1.307477 0.1344114
v -0.03852058 1.324626 0.1177407
v 0.01330224 1.266897 0.1170654
v 0.02930319 1.25091 0.09506451
v 0.01241757 1.250298 0.1072957
v 0.009103542 1.242152 0.1031808
v 4.299662E-17 1.23423 0.1004135
v 4.390021E-17 1.240067 0.1055929
v 4.489697E-17 1.24952 0.1101575
v 5.801925E-17 1.26591 0.1201812
v -0.007414214 1.236104 0.09753189
v -0.003133655 1.234827 0.08869859
v -0.02600565 1.244366 0.0748183
v -0.009103542 1.242152 0.1031808
v -0.02889629 1.246081 0.08326898
v -0.04139223 1.252889 0.06194052
v -0.01241757 1.250298 0.1072957
v 5.834868E-17 1.275112 0.124923
v -0.01425528 1.278141 0.1221383
v -0.01330224 1.266897 0.1170654
v -0.02930319 1.25091 0.09506451
v -0.04678588 1.257096 0.06932844
v -0.05488028 1.260976 0.04967818
v -0.03145431 1.261358 0.1049349
v -0.05219213 1.26308 0.08596642
v -0.06169239 1.26609 0.05707099
v -0.06837928 1.270203 0.03392553
v -0.07449175 1.278422 0.04069159
v -0.0798304 1.287536 0.05898687
v -0.06925885 1.274166 0.07474528
v -0.02922554 1.270764 0.1116251
v -0.07408265 1.286836 0.08538037
v -0.08200471 1.302752 0.06741827
v -0.04421912 1.273673 0.1056163
v -0.05870178 1.27679 0.09661281
v -0.07648021 1.304374 0.09255641
v -0.08604181 1.321181 0.07336503
v -0.07749598 1.317721 0.09409666
v -0.0639023 1.290207 0.1015995
v -0.0669419 1.304439 0.1027884
v -0.06876702 1.318227 0.1021804
v -0.02897126 1.281617 0.1179456
v -0.04652436 1.286625 0.1104231
v -0.05309404 1.309468 0.1117975
v -0.0558206 1.320298 0.1103679
v -0.03054472 1.294013 0.1210232
v -0.04978701 1.298684 0.1127063
v -0.0356471 1.303708 0.1207439
v -0.01570339 1.291285 0.1260562
vt 0.355957 0.3664551
vt 0.3320312 0.3527832
vt 0.3342285 0.362793
vt 0.3518066 0.3464355
vt 0.3205566 0.3527832
vt 0.3227539 0.3637695
vt 0.3300781 0.3427734
vt 0.3486328 0.3320312
vt 0.3044434 0.3566895
vt 0.307373 0.3662109
vt 0.2900391 0.371582
vt 0.3181152 0.3425293
vt 0.3249512 0.3254395
vt 0.3122559 0.3283691
vt 0.3166504 0.309082
vt 0.34375 0.3166504
vt 0.3425293 0.3034668
vt 0.3164062 0.2941895
vt 0.2995605 0.3032227
vt 0.2978516 0.2890625
vt 0.3054199 0.3166504
vt 0.2810059 0.2980957
vt 0.2800293 0.2839355
vt 0.2937012 0.324707
vt 0.2561035 0.2797852
vt 0.2548828 0.2709961
vt 0.25 0.2705078
vt 0.2958984 0.3378906
vt 0.3000488 0.3466797
vt 0.2871094 0.3513184
vt 0.28125 0.3417969
vt 0.2683105 0.3564453
vt 0.2702637 0.3740234
vt 0.2790527 0.3322754
vt 0.2636719 0.3276367
vt 0.2785645 0.3205566
vt 0.2810059 0.3132324
vt 0.265625 0.3398438
vt 0.25 0.3378906
vt 0.25 0.3618164
vt 0.25 0.3764648
vt 0.2297363 0.3740234
vt 0.2316895 0.3564453
vt 0.210083 0.371582
vt 0.2626953 0.3168945
vt 0.2810059 0.3083496
vt 0.2619629 0.3061523
vt 0.2597656 0.2944336
vt 0.25 0.279541
vt 0.25 0.2927246
vt 0.25 0.3044434
vt 0.25 0.3161621
vt 0.2440186 0.2797852
vt 0.2451172 0.2709961
vt 0.2198486 0.2839355
vt 0.2403564 0.2944336
vt 0.2188721 0.2980957
vt 0.2020264 0.2890625
vt 0.237915 0.3061523
vt 0.25 0.3242188
vt 0.2363281 0.3276367
vt 0.2373047 0.3168945
vt 0.2189941 0.3083496
vt 0.2004395 0.3032227
vt 0.1835938 0.2941895
vt 0.2189941 0.3132324
vt 0.1947021 0.3166504
vt 0.1832275 0.309082
vt 0.1575928 0.3034668
vt 0.1561279 0.3166504
vt 0.1513672 0.3320312
vt 0.1751709 0.3254395
vt 0.2214355 0.3205566
vt 0.1699219 0.3427734
vt 0.1480713 0.3464355
vt 0.2062988 0.324707
vt 0.1878662 0.3283691
vt 0.1678467 0.3527832
vt 0.144165 0.3664551
vt 0.1657715 0.362793
vt 0.1818848 0.3425293
vt 0.1795654 0.3527832
vt 0.177124 0.3637695
vt 0.2209473 0.3322754
vt 0.2042236 0.3378906
vt 0.1955566 0.3566895
vt 0.192627 0.3662109
vt 0.2186279 0.3417969
vt 0.1999512 0.3466797
vt 0.2128906 0.3513184
vt 0.234375 0.3398438
vn 0.9435695 -0.2202893 0.247284
vn 0.8827025 -0.2257911 0.4121342
vn 0.8399891 -0.1011007 0.5331013
vn 0.9487183 -0.2492367 0.1944598
vn 0.5994963 -0.1196873 0.791378
vn 0.565527 0.02745843 0.8242725
vn 0.8499657 -0.3999189 0.3429625
vn 0.8985839 -0.4264447 0.1034008
vn 0.4869358 -0.01466235 0.8733146
vn 0.4553058 0.1259945 0.881375
vn 0.4480318 0.2519443 0.857783
vn 0.6246733 -0.3300992 0.7076848
vn 0.7351021 -0.6561248 0.1706609
vn 0.6120169 -0.5790113 0.5386847
vn 0.6519665 -0.755417 0.06545807
vn 0.7982017 -0.5999151 0.05455186
vn 0.5645226 -0.8135253 -0.1396088
vn 0.4423623 -0.8944309 -0.06564277
vn 0.5633813 -0.8223143 0.08000463
vn 0.4017267 -0.9137767 -0.06023106
vn 0.5978428 -0.7374551 0.3142355
vn 0.5228831 -0.8383517 0.1541417
vn 0.4961614 -0.8676521 0.03168149
vn 0.5058805 -0.5273237 0.6826526
vn 0.4629026 -0.8361469 0.2942438
vn 0.3434927 -0.9389498 -0.01964437
vn -0 -0.9994816 0.03219781
vn 0.470637 -0.3226622 0.8212125
vn 0.4992818 -0.2085501 0.8409665
vn 0.5160228 0.03845467 0.8557112
vn 0.4327955 -0.3036232 0.8488234
vn 0.4902095 0.05498252 0.8698686
vn 0.4529942 0.3455825 0.8218083
vn 0.3864604 -0.3651044 0.8469635
vn 0.3093124 -0.3858395 0.8691683
vn 0.3826473 -0.4619106 0.8001373
vn 0.463415 -0.5619744 0.6851507
vn 0.3117948 -0.401484 0.8611588
vn 2.26164E-05 -0.4676397 0.8839191
vn -3.079167E-07 0.13403 0.9909773
vn -1.16723E-07 0.4514386 0.8923021
vn -0.4529936 0.3455823 0.8218088
vn -0.490204 0.05498051 0.8698719
vn -0.448031 0.2519443 0.8577833
vn 0.3117557 -0.4705315 0.8254747
vn 0.5178846 -0.7284092 0.4485706
vn 0.3462963 -0.520155 0.7807161
vn 0.489004 -0.6356925 0.5973024
vn -2.256916E-07 -0.8760055 0.4823012
vn -0 -0.6074456 0.7943612
vn 1.772303E-07 -0.5028355 0.8643821
vn -0 -0.4888019 0.8723948
vn -0.4629023 -0.8361464 0.2942461
vn -0.3434929 -0.9389498 -0.01964437
vn -0.4958895 -0.8678149 0.0314764
vn -0.489003 -0.6356912 0.5973046
vn -0.5228825 -0.838351 0.1541476
vn -0.4015933 -0.9138223 -0.06043032
vn -0.346308 -0.5201337 0.7807251
vn -2.127825E-07 -0.4009809 0.9160864
vn -0.3093312 -0.3858873 0.8691404
vn -0.3117808 -0.4705244 0.8254693
vn -0.5178839 -0.7284086 0.4485723
vn -0.5633811 -0.8223141 0.08000739
vn -0.4423276 -0.8944354 -0.06581569
vn -0.4634154 -0.5619354 0.6851823
vn -0.5978423 -0.7374545 0.3142376
vn -0.6519665 -0.755417 0.06545857
vn -0.5645227 -0.8135257 -0.1396074
vn -0.7982019 -0.599915 0.05455039
vn -0.898584 -0.4264448 0.1034001
vn -0.7351021 -0.6561246 0.1706617
vn -0.3826508 -0.4619084 0.8001368
vn -0.8499659 -0.3999192 0.3429613
vn -0.9487182 -0.2492368 0.1944601
vn -0.505869 -0.5273308 0.6826558
vn -0.6120168 -0.5790116 0.5386846
vn -0.8827019 -0.2257908 0.4121359
vn -0.9435694 -0.2202893 0.2472844
vn -0.8399889 -0.1011006 0.5331016
vn -0.6246735 -0.3300991 0.7076846
vn -0.5994962 -0.1196873 0.7913781
vn -0.5655269 0.02745834 0.8242726
vn -0.386471 -0.3651367 0.8469448
vn -0.4706377 -0.3226627 0.8212118
vn -0.4869351 -0.01466245 0.8733151
vn -0.4553057 0.1259946 0.8813751
vn -0.4328267 -0.3036263 0.8488063
vn -0.4992833 -0.208551 0.8409653
vn -0.5160209 0.03845417 0.8557124
vn -0.3117886 -0.4014668 0.8611691
g facial_mouth_geo_0
f 3/3/3 2/2/2 1/1/1
f 2/2/2 4/4/4 1/1/1
f 2/2/2 3/3/3 5/5/5
f 3/3/3 6/6/6 5/5/5
f 2/2/2 7/7/7 4/4/4
f 8/8/8 4/4/4 7/7/7
f 5/5/5 6/6/6 9/9/9
f 6/6/6 10/10/10 9/9/9
f 11/11/11 9/9/9 10/10/10
f 2/2/2 12/12/12 7/7/7
f 2/2/2 5/5/5 12/12/12
f 8/8/8 7/7/7 13/13/13
f 7/7/7 12/12/12 14/14/14
f 13/13/13 7/7/7 14/14/14
f 8/8/8 13/13/13 15/15/15
f 15/15/15 16/16/16 8/8/8
f 17/17/17 16/16/16 15/15/15
f 18/18/18 17/17/17 15/15/15
f 18/18/18 15/15/15 19/19/19
f 19/19/19 15/15/15 13/13/13
f 20/20/20 18/18/18 19/19/19
f 13/13/13 14/14/14 21/21/21
f 13/13/13 21/21/21 19/19/19
f 20/20/20 19/19/19 22/22/22
f 21/21/21 22/22/22 19/19/19
f 23/23/23 20/20/20 22/22/22
f 24/24/24 14/14/14 12/12/12
f 14/14/14 24/24/24 21/21/21
f 25/25/25 23/23/23 22/22/22
f 25/25/25 26/26/26 23/23/23
f 26/26/26 25/25/25 27/27/27
f 12/12/12 28/28/28 24/24/24
f 28/28/28 12/12/12 5/5/5
f 5/5/5 29/29/29 28/28/28
f 5/5/5 9/9/9 29/29/29
f 30/30/30 29/29/29 9/9/9
f 11/11/11 30/30/30 9/9/9
f 28/28/28 29/29/29 31/31/31
f 29/29/29 30/30/30 31/31/31
f 30/30/30 11/11/11 32/32/32
f 32/32/32 31/31/31 30/30/30
f 11/11/11 33/33/33 32/32/32
f 24/24/24 28/28/28 34/34/34
f 28/28/28 31/31/31 34/34/34
f 35/35/35 34/34/34 31/31/31
f 24/24/24 34/34/34 36/36/36
f 36/36/36 34/34/34 35/35/35
f 24/24/24 36/36/36 37/37/37
f 24/24/24 37/37/37 21/21/21
f 32/32/32 38/38/38 31/31/31
f 31/31/31 38/38/38 35/35/35
f 32/32/32 39/39/39 38/38/38
f 38/38/38 39/39/39 35/35/35
f 40/40/40 32/32/32 33/33/33
f 32/32/32 40/40/40 39/39/39
f 41/41/41 40/40/40 33/33/33
f 40/40/40 41/41/41 42/42/42
f 43/43/43 40/40/40 42/42/42
f 40/40/40 43/43/43 39/39/39
f 42/42/42 44/44/44 43/43/43
f 36/36/36 45/45/45 37/37/37
f 45/45/45 36/36/36 35/35/35
f 21/21/21 37/37/37 46/46/46
f 22/22/22 21/21/21 46/46/46
f 46/46/46 37/37/37 47/47/47
f 45/45/45 47/47/47 37/37/37
f 48/48/48 22/22/22 46/46/46
f 46/46/46 47/47/47 48/48/48
f 25/25/25 22/22/22 48/48/48
f 25/25/25 48/48/48 49/49/49
f 25/25/25 49/49/49 27/27/27
f 47/47/47 50/50/50 48/48/48
f 48/48/48 50/50/50 49/49/49
f 47/47/47 45/45/45 51/51/51
f 47/47/47 51/51/51 50/50/50
f 45/45/45 35/35/35 52/52/52
f 45/45/45 52/52/52 51/51/51
f 49/49/49 53/53/53 27/27/27
f 53/53/53 54/54/54 27/27/27
f 54/54/54 53/53/53 55/55/55
f 50/50/50 56/56/56 49/49/49
f 56/56/56 53/53/53 49/49/49
f 55/55/55 53/53/53 57/57/57
f 57/57/57 53/53/53 56/56/56
f 58/58/58 55/55/55 57/57/57
f 51/51/51 59/59/59 50/50/50
f 50/50/50 59/59/59 56/56/56
f 35/35/35 60/60/60 52/52/52
f 60/60/60 61/61/61 52/52/52
f 60/60/60 35/35/35 39/39/39
f 61/61/61 60/60/60 39/39/39
f 52/52/52 62/62/62 51/51/51
f 62/62/62 59/59/59 51/51/51
f 61/61/61 62/62/62 52/52/52
f 59/59/59 63/63/63 56/56/56
f 57/57/57 56/56/56 63/63/63
f 64/64/64 58/58/58 57/57/57
f 65/65/65 58/58/58 64/64/64
f 59/59/59 62/62/62 66/66/66
f 66/66/66 63/63/63 59/59/59
f 67/67/67 57/57/57 63/63/63
f 57/57/57 67/67/67 64/64/64
f 66/66/66 67/67/67 63/63/63
f 68/68/68 65/65/65 64/64/64
f 69/69/69 65/65/65 68/68/68
f 70/70/70 69/69/69 68/68/68
f 70/70/70 68/68/68 71/71/71
f 68/68/68 64/64/64 72/72/72
f 72/72/72 71/71/71 68/68/68
f 67/67/67 72/72/72 64/64/64
f 62/62/62 73/73/73 66/66/66
f 73/73/73 62/62/62 61/61/61
f 74/74/74 71/71/71 72/72/72
f 75/75/75 71/71/71 74/74/74
f 66/66/66 76/76/76 67/67/67
f 73/73/73 76/76/76 66/66/66
f 77/77/77 72/72/72 67/67/67
f 74/74/74 72/72/72 77/77/77
f 76/76/76 77/77/77 67/67/67
f 74/74/74 78/78/78 75/75/75
f 75/75/75 78/78/78 79/79/79
f 78/78/78 80/80/80 79/79/79
f 81/81/81 74/74/74 77/77/77
f 81/81/81 78/78/78 74/74/74
f 77/77/77 76/76/76 81/81/81
f 80/80/80 78/78/78 82/82/82
f 82/82/82 78/78/78 81/81/81
f 83/83/83 80/80/80 82/82/82
f 84/84/84 76/76/76 73/73/73
f 84/84/84 73/73/73 61/61/61
f 85/85/85 81/81/81 76/76/76
f 85/85/85 76/76/76 84/84/84
f 81/81/81 85/85/85 82/82/82
f 83/83/83 82/82/82 86/86/86
f 87/87/87 83/83/83 86/86/86
f 86/86/86 44/44/44 87/87/87
f 84/84/84 61/61/61 88/88/88
f 88/88/88 85/85/85 84/84/84
f 89/89/89 82/82/82 85/85/85
f 86/86/86 82/82/82 89/89/89
f 89/89/89 85/85/85 88/88/88
f 90/90/90 44/44/44 86/86/86
f 89/89/89 90/90/90 86/86/86
f 90/90/90 89/89/89 88/88/88
f 44/44/44 90/90/90 43/43/43
f 88/88/88 43/43/43 90/90/90
f 91/91/91 88/88/88 61/61/61
f 91/91/91 43/43/43 88/88/88
f 39/39/39 91/91/91 61/61/61
f 39/39/39 43/43/43 91/91/91
