g bf_geo
v -0.02223734 0.5427755 0.3682046
v -0.02037361 0.5391407 0.3673731
v -0.002971875 0.5491338 0.3824008
v -0.007505559 0.5507662 0.3792756
v -0.02419104 0.5709642 0.3816456
v -0.02608822 0.5685534 0.3804894
v -0.05142815 0.5785381 0.3704291
v -0.04965153 0.5524949 0.3586196
v -0.08080985 0.5960957 0.3514563
v -0.08183729 0.5710745 0.3387233
v -0.1036859 0.6217155 0.3257035
v -0.1056945 0.5979294 0.3120572
v -0.1152819 0.6521564 0.2954385
v -0.1170835 0.6287513 0.2808394
v -0.1142878 0.6818323 0.2651547
v -0.1137323 0.6583778 0.2504472
v -0.1044443 0.7081063 0.2378571
v -0.1044746 0.6843996 0.2231993
v -0.07899478 0.7348425 0.2154696
v -0.07677591 0.7105538 0.1984835
v -0.0441539 0.7495691 0.1997704
v -0.04503839 0.7254574 0.1819017
v 1.060247E-09 0.7549451 0.19289
v 4.089789E-10 0.7316236 0.1746666
v 0.04503839 0.7254574 0.1819017
v 0.0441539 0.7495691 0.1997704
v 0.07677591 0.7105538 0.1984835
v 0.07899478 0.7348425 0.2154696
v 0.1044746 0.6843996 0.2231993
v 0.1044443 0.7081063 0.2378571
v 0.1137323 0.6583778 0.2504472
v 0.1142878 0.6818323 0.2651547
v 0.1170835 0.6287513 0.2808394
v 0.1152819 0.6521564 0.2954385
v 0.1056945 0.5979294 0.3120572
v 0.1036859 0.6217155 0.3257035
v 0.08183729 0.5710745 0.3387233
v 0.08080985 0.5960957 0.3514563
v 0.04965153 0.5524949 0.3586196
v 0.05142815 0.5785381 0.3704291
v 0.02223734 0.5427755 0.3682046
v 0.02608822 0.5685534 0.3804894
v 0.007505559 0.5507662 0.3792756
v 0.02419104 0.5709642 0.3816456
v 0.002971872 0.5491338 0.3824008
v 0.02037361 0.5391407 0.3673731
vt 0.7426758 0.009864807
vt 0.7446289 0.006580353
vt 0.7641602 0.02984619
vt 0.7597656 0.02984619
vt 0.7446289 0.0508728
vt 0.7426758 0.04669189
vt 0.7128906 0.04669189
vt 0.7128906 0.009864807
vt 0.6723633 0.04669189
vt 0.6723633 0.009864807
vt 0.628418 0.04669189
vt 0.628418 0.009864807
vt 0.5844727 0.04669189
vt 0.5844727 0.009864807
vt 0.5449219 0.04669189
vt 0.5449219 0.009864807
vt 0.5097656 0.04669189
vt 0.5097656 0.009864807
vt 0.4682617 0.04669189
vt 0.4682617 0.009864807
vt 0.4282227 0.04669189
vt 0.4282227 0.009864807
vt 0.3840332 0.04669189
vt 0.3840332 0.009864807
vt 0.3398438 0.009864807
vt 0.3398438 0.04669189
vt 0.2998047 0.009864807
vt 0.2998047 0.04669189
vt 0.2580566 0.009864807
vt 0.2580566 0.04669189
vt 0.2232666 0.009864807
vt 0.2232666 0.04669189
vt 0.1834717 0.009864807
vt 0.1834717 0.04669189
vt 0.1396484 0.009864807
vt 0.1396484 0.04669189
vt 0.0960083 0.009864807
vt 0.0960083 0.04669189
vt 0.05517578 0.009864807
vt 0.05517578 0.04669189
vt 0.0255127 0.009864807
vt 0.0255127 0.04669189
vt 0.008453369 0.02984619
vt 0.02354431 0.0508728
vt 0.003921509 0.02984619
vt 0.02354431 0.006580353
vn 0.4429553 0.4072082 -0.7987316
vn 0.5127855 0.2675957 -0.8157473
vn 0.4841098 0.3700538 -0.7929047
vn 0.436094 0.4032289 -0.8045051
vn 0.4517947 0.4627174 -0.7627412
vn 0.4423348 0.4231021 -0.7907746
vn 0.5744296 0.3699257 -0.7301956
vn 0.5467137 0.3813305 -0.745447
vn 0.7544808 0.277731 -0.5946631
vn 0.7300685 0.2925979 -0.6175649
vn 0.912892 0.1477637 -0.380518
vn 0.8955191 0.1664987 -0.412703
vn 0.9941224 0.01394462 -0.1073602
vn 0.9884674 0.03156263 -0.1481076
vn 0.9871036 -0.08905631 0.1330242
vn 0.991007 -0.07853343 0.1083403
vn 0.8737279 -0.2466066 0.419267
vn 0.900057 -0.2203829 0.3759371
vn 0.6711204 -0.4055768 0.6205682
vn 0.6828978 -0.397454 0.6129282
vn 0.3615141 -0.5534254 0.7503518
vn 0.3750695 -0.5490026 0.7469397
vn -0 -0.6079496 0.7939756
vn -0 -0.6079496 0.7939756
vn -0.3750692 -0.5490028 0.7469398
vn -0.3615139 -0.5534256 0.7503518
vn -0.6828979 -0.397454 0.6129282
vn -0.6711204 -0.4055768 0.6205682
vn -0.9000571 -0.220383 0.3759369
vn -0.873728 -0.2466067 0.4192668
vn -0.9910069 -0.07853375 0.1083403
vn -0.9871035 -0.0890567 0.1330242
vn -0.9884675 0.03156246 -0.1481074
vn -0.9941224 0.01394446 -0.1073601
vn -0.8955188 0.1664985 -0.4127036
vn -0.912892 0.1477636 -0.3805184
vn -0.7300683 0.2925977 -0.6175653
vn -0.7544805 0.2777309 -0.5946636
vn -0.5467138 0.3813305 -0.7454469
vn -0.5744298 0.3699256 -0.7301955
vn -0.4429558 0.4072086 -0.7987311
vn -0.4423353 0.4231026 -0.790774
vn -0.4360971 0.4032301 -0.8045028
vn -0.4518 0.4627196 -0.7627368
vn -0.4841136 0.370055 -0.7929018
vn -0.5127876 0.2675964 -0.8157457
g bf_geo_0
f 3/3/3 2/2/2 1/1/1
f 4/4/4 3/3/3 1/1/1
f 5/5/5 3/3/3 4/4/4
f 6/6/6 5/5/5 4/4/4
f 1/1/1 6/6/6 4/4/4
f 7/7/7 6/6/6 1/1/1
f 8/8/8 7/7/7 1/1/1
f 9/9/9 7/7/7 8/8/8
f 10/10/10 9/9/9 8/8/8
f 11/11/11 9/9/9 10/10/10
f 12/12/12 11/11/11 10/10/10
f 13/13/13 11/11/11 12/12/12
f 14/14/14 13/13/13 12/12/12
f 15/15/15 13/13/13 14/14/14
f 16/16/16 15/15/15 14/14/14
f 17/17/17 15/15/15 16/16/16
f 18/18/18 17/17/17 16/16/16
f 19/19/19 17/17/17 18/18/18
f 20/20/20 19/19/19 18/18/18
f 21/21/21 19/19/19 20/20/20
f 22/22/22 21/21/21 20/20/20
f 23/23/23 21/21/21 22/22/22
f 24/24/24 23/23/23 22/22/22
f 23/23/23 24/24/24 25/25/25
f 26/26/26 23/23/23 25/25/25
f 26/26/26 25/25/25 27/27/27
f 28/28/28 26/26/26 27/27/27
f 28/28/28 27/27/27 29/29/29
f 30/30/30 28/28/28 29/29/29
f 30/30/30 29/29/29 31/31/31
f 32/32/32 30/30/30 31/31/31
f 32/32/32 31/31/31 33/33/33
f 34/34/34 32/32/32 33/33/33
f 34/34/34 33/33/33 35/35/35
f 36/36/36 34/34/34 35/35/35
f 36/36/36 35/35/35 37/37/37
f 38/38/38 36/36/36 37/37/37
f 38/38/38 37/37/37 39/39/39
f 40/40/40 38/38/38 39/39/39
f 40/40/40 39/39/39 41/41/41
f 42/42/42 40/40/40 41/41/41
f 42/42/42 41/41/41 43/43/43
f 44/44/44 42/42/42 43/43/43
f 45/45/45 44/44/44 43/43/43
f 45/45/45 43/43/43 41/41/41
f 46/46/46 45/45/45 41/41/41
