g facial_mouth_geo
v -0.1009045 1.358921 0.01614871
v -0.07287445 1.337941 0.03298343
v -0.07881469 1.354542 0.004162016
v -0.1004983 1.337905 0.04323306
v -0.05269836 1.322393 0.05901721
v -0.09359191 1.316041 0.06475894
v -0.07315857 1.302889 0.08637698
v -0.0457666 1.288935 0.1089165
v -0.02047302 1.301932 0.08265216
v -0.03423095 1.289342 0.1149346
v -0.02037842 1.26044 0.1240763
v -3.051758E-07 1.29653 0.08767596
v -3.051758E-07 1.25607 0.1265352
v 0.1009045 1.358921 0.01614871
v 0.07881469 1.354542 0.004162016
v 0.07287414 1.337941 0.03298343
v 0.100498 1.337905 0.04323306
v 0.05269775 1.322393 0.05901721
v 0.09359131 1.316041 0.06475894
v 0.07315796 1.302889 0.08637698
v 0.04576599 1.288935 0.1089165
v 0.02047241 1.301932 0.08265216
v 0.03423035 1.289342 0.1149346
v 0.02037781 1.26044 0.1240763
v -3.051758E-07 1.29653 0.08767596
v -3.051758E-07 1.25607 0.1265352
v 0.04384704 1.308109 0.1241452
v 0.04576599 1.288935 0.1089165
v 0.03423035 1.289342 0.1149346
v 0.07315796 1.302889 0.08637698
v 0.02037781 1.26044 0.1240763
v 0.06868225 1.323716 0.09964252
v 0.048125 1.343228 0.1349478
v 0.02140381 1.297059 0.1378824
v 0.09359131 1.316041 0.06475894
v -3.051758E-07 1.25607 0.1265352
v 0.08978515 1.337254 0.07548571
v 0.100498 1.337905 0.04323306
v 0.1050311 1.352272 0.05375613
v 0.1009045 1.358921 0.01614871
v 0.1078333 1.363226 0.03079379
v 0.1109833 1.394799 0.0477579
v 0.1059644 1.378534 0.07041018
v 0.1063641 1.395734 0.07963061
v 0.0928656 1.36769 0.09983768
v 0.09661499 1.393249 0.1088262
v 0.07017089 1.353642 0.1207642
v 0.07328491 1.374518 0.1367658
v 0.0759729 1.39766 0.1383794
v 0.05462402 1.400048 0.1505487
v 0.05278076 1.378953 0.1469025
v 0.02359741 1.39466 0.1588623
v 0.02401855 1.383748 0.1576093
v 0.0138092 1.383955 0.1721982
v -3.051758E-07 1.377046 0.1606198
v 0.01359802 1.394993 0.1716651
v -3.051758E-07 1.394516 0.1871688
v 0.03135803 1.349003 0.1457964
v 0.02801453 1.331954 0.1410578
v -3.051758E-07 1.292931 0.141843
v -3.051758E-07 1.325041 0.1455841
v -0.02140442 1.297059 0.1378824
v -0.02037842 1.26044 0.1240763
v -3.051758E-07 1.350693 0.15209
v -0.02801514 1.331954 0.1410578
v -0.04812561 1.343228 0.1349478
v -0.04384765 1.308109 0.1241452
v -0.03423095 1.289342 0.1149346
v -0.0457666 1.288935 0.1089165
v -0.07315857 1.302889 0.08637698
v -0.03135864 1.349003 0.1457964
v -0.06868286 1.323716 0.09964252
v -0.09359191 1.316041 0.06475894
v -0.02401916 1.383748 0.1576093
v -0.08978576 1.337254 0.07548571
v -0.1004983 1.337905 0.04323306
v -0.1050314 1.352272 0.05375613
v -0.1009045 1.358921 0.01614871
v -0.1078333 1.363226 0.03079379
v -0.1109833 1.394799 0.0477579
v -0.1059647 1.378534 0.07041018
v -0.1063645 1.395734 0.07963061
v -0.09286621 1.36769 0.09983768
v -0.0966156 1.393249 0.1088262
v -0.07017151 1.353642 0.1207642
v -0.07328552 1.374518 0.1367658
v -0.07597351 1.39766 0.1383794
v -0.05462463 1.400048 0.1505487
v -0.05278137 1.378953 0.1469025
v -0.02359802 1.39466 0.1588623
v -0.01380981 1.383955 0.1721982
v -0.01359863 1.394993 0.1716651
v -3.051758E-07 1.378641 0.1669655
v -3.051758E-07 1.383217 0.1876239
vt 0.08795166 0.2670898
vt 0.1221313 0.2402344
vt 0.08880615 0.2408447
vt 0.1188965 0.2683105
vt 0.1535645 0.2314453
vt 0.1448975 0.2653809
vt 0.170166 0.2595215
vt 0.2012939 0.2502441
vt 0.192627 0.2205811
vt 0.2122803 0.2476807
vt 0.2303467 0.2269287
vt 0.2059326 0.2055664
vt 0.2509766 0.2241211
vt 0.4147949 0.2668457
vt 0.4133301 0.2406006
vt 0.3803711 0.2399902
vt 0.3837891 0.2678223
vt 0.3486328 0.2310791
vt 0.357666 0.2651367
vt 0.3322754 0.2590332
vt 0.3007812 0.2497559
vt 0.3093262 0.2198486
vt 0.2897949 0.2473145
vt 0.2712402 0.2266846
vt 0.2956543 0.2050781
vt 0.2509766 0.2241211
vt 0.2939453 0.2692871
vt 0.3007812 0.2497559
vt 0.2897949 0.2473145
vt 0.3322754 0.2590332
vt 0.2712402 0.2266846
vt 0.3271484 0.2788086
vt 0.2976074 0.3024902
vt 0.2709961 0.260498
vt 0.357666 0.2651367
vt 0.2509766 0.2241211
vt 0.3579102 0.2841797
vt 0.3837891 0.2678223
vt 0.3852539 0.2851562
vt 0.4147949 0.2668457
vt 0.4089355 0.2814941
vt 0.4123535 0.3220215
vt 0.3850098 0.315918
vt 0.3833008 0.3352051
vt 0.3535156 0.3171387
vt 0.3554688 0.3417969
vt 0.3227539 0.3093262
vt 0.3200684 0.3310547
vt 0.324707 0.3508301
vt 0.3037109 0.3535156
vt 0.3007812 0.3352051
vt 0.276123 0.3500977
vt 0.2746582 0.3400879
vt 0.2629395 0.3457031
vt 0.2509766 0.3327637
vt 0.2641602 0.3527832
vt 0.2509766 0.3532715
vt 0.2805176 0.3088379
vt 0.2773438 0.2932129
vt 0.2509766 0.2583008
vt 0.2509766 0.2878418
vt 0.2310791 0.2607422
vt 0.2303467 0.2269287
vt 0.2509766 0.310791
vt 0.2248535 0.293457
vt 0.204834 0.3027344
vt 0.2081299 0.2697754
vt 0.2122803 0.2476807
vt 0.2012939 0.2502441
vt 0.170166 0.2595215
vt 0.2220459 0.3088379
vt 0.175415 0.279541
vt 0.1448975 0.2653809
vt 0.2280273 0.3400879
vt 0.1446533 0.284668
vt 0.1188965 0.2683105
vt 0.1174316 0.2858887
vt 0.08795166 0.2670898
vt 0.09405518 0.2827148
vt 0.09100342 0.3227539
vt 0.1177979 0.3164062
vt 0.1196899 0.3354492
vt 0.149292 0.3173828
vt 0.1472168 0.3417969
vt 0.1798096 0.3098145
vt 0.1824951 0.331543
vt 0.1779785 0.3510742
vt 0.1990967 0.3537598
vt 0.2020264 0.3354492
vt 0.2268066 0.3503418
vt 0.2398682 0.3457031
vt 0.2387695 0.3527832
vt 0.2509766 0.3374023
vt 0.2509766 0.347168
vn -0.2983093 -0.8072376 -0.5092927
vn -0.2439998 -0.8449768 -0.4758973
vn -0.2983093 -0.8072376 -0.5092926
vn -0.1906329 -0.8065243 -0.5596229
vn -0.03958287 -0.8256405 -0.5628064
vn 0.02519611 -0.7547384 -0.6555418
vn -0.03242069 -0.8331852 -0.5520428
vn -0.02703817 -0.8510006 -0.5244682
vn -0.09378187 -0.7866384 -0.6102499
vn -0.5470549 -0.6742505 -0.4961019
vn -0.1399692 -0.6937699 -0.7064643
vn -0 -0.6998168 -0.7143224
vn -0 -0.6998168 -0.7143224
vn 0.298309 -0.8072407 -0.509288
vn 0.298309 -0.8072406 -0.509288
vn 0.2439987 -0.8449773 -0.4758972
vn 0.1906335 -0.8065255 -0.5596208
vn 0.03958273 -0.8256401 -0.5628068
vn -0.02519607 -0.7547387 -0.6555416
vn 0.03242064 -0.8331852 -0.5520428
vn 0.02703813 -0.8510002 -0.5244687
vn 0.09378184 -0.7866382 -0.6102502
vn 0.547055 -0.67425 -0.4961026
vn 0.1399692 -0.6937699 -0.7064644
vn -0 -0.6998168 -0.7143224
vn -0 -0.6998168 -0.7143224
vn 0.6685758 -0.3024251 0.6793715
vn 0.6985872 -0.3436429 0.627603
vn 0.7192886 -0.3943443 0.571941
vn 0.755819 -0.2516655 0.604485
vn 0.3757633 -0.3810349 0.844757
vn 0.7502072 -0.3170804 0.5802148
vn 0.5285069 -0.327862 0.7830626
vn 0.4212273 -0.2798863 0.8626884
vn 0.837896 -0.1356174 0.5287137
vn -0 -0.3709889 0.9286373
vn 0.8531953 -0.2830691 0.4380979
vn 0.9675579 -0.2327285 0.09833128
vn 0.9459528 -0.2564944 0.1984542
vn 0.9200149 -0.3559708 -0.1638826
vn 0.9717342 -0.2335238 0.03463229
vn 0.9873815 -0.121981 0.1009882
vn 0.9441968 -0.2192981 0.2457656
vn 0.9374487 -0.2021775 0.2833974
vn 0.855102 -0.306311 0.418299
vn 0.8619843 -0.2245949 0.4544669
vn 0.689353 -0.4673835 0.5534846
vn 0.6760361 -0.288976 0.6778408
vn 0.6979312 -0.2023857 0.6869731
vn 0.3866554 -0.1649685 0.9073495
vn 0.3730102 -0.2459571 0.8946331
vn 0.557816 -0.08345655 0.8257581
vn 0.327374 -0.2995393 0.8961598
vn 0.666937 -0.5164139 0.5371329
vn -1.193913E-07 -0.44721 0.8944289
vn 0.7743137 0.02154531 0.632435
vn 6.700992E-07 0.05480801 0.9984969
vn 0.2786973 -0.2855802 0.9169361
vn 0.3467372 -0.2288616 0.909613
vn -1.284452E-07 -0.2601201 0.9655763
vn -2.379784E-07 -0.1786241 0.9839174
vn -0.4212275 -0.2798864 0.8626882
vn -0.3757627 -0.3810346 0.8447574
vn -1.836553E-07 -0.2853253 0.9584308
vn -0.3467386 -0.2288622 0.9096122
vn -0.5285072 -0.327862 0.7830625
vn -0.6685761 -0.302425 0.6793711
vn -0.719288 -0.3943439 0.571942
vn -0.6985871 -0.3436424 0.6276034
vn -0.7558186 -0.2516652 0.6044856
vn -0.2786973 -0.2855803 0.9169361
vn -0.7502072 -0.3170804 0.5802148
vn -0.8378965 -0.1356163 0.5287133
vn -0.3273741 -0.2995394 0.8961597
vn -0.8531974 -0.2830671 0.4380949
vn -0.96756 -0.2327233 0.09832346
vn -0.9459556 -0.2564894 0.1984463
vn -0.9200169 -0.3559625 -0.1638885
vn -0.971736 -0.2335172 0.03462362
vn -0.9873829 -0.1219761 0.1009785
vn -0.9441996 -0.2192946 0.245758
vn -0.937451 -0.2021768 0.2833906
vn -0.855104 -0.3063101 0.4182958
vn -0.8619853 -0.2245949 0.454465
vn -0.6893532 -0.4673834 0.5534843
vn -0.676036 -0.2889761 0.6778408
vn -0.6979314 -0.2023859 0.6869729
vn -0.3866555 -0.1649686 0.9073493
vn -0.3730101 -0.245957 0.8946332
vn -0.5578167 -0.08345652 0.8257575
vn -0.6669371 -0.516414 0.5371327
vn -0.774314 0.02154534 0.6324345
vn -0 -0.9744331 0.2246778
vn 5.686115E-07 -0.3555579 0.9346542
g facial_mouth_geo_0
f 3/3/3 2/2/2 1/1/1
f 2/2/2 4/4/4 1/1/1
f 2/2/2 5/5/5 4/4/4
f 6/6/6 4/4/4 5/5/5
f 7/7/7 6/6/6 5/5/5
f 7/7/7 5/5/5 8/8/8
f 5/5/5 9/9/9 8/8/8
f 9/9/9 10/10/10 8/8/8
f 11/11/11 10/10/10 9/9/9
f 9/9/9 12/12/12 11/11/11
f 12/12/12 13/13/13 11/11/11
f 16/16/16 15/15/15 14/14/14
f 17/17/17 16/16/16 14/14/14
f 18/18/18 16/16/16 17/17/17
f 17/17/17 19/19/19 18/18/18
f 19/19/19 20/20/20 18/18/18
f 18/18/18 20/20/20 21/21/21
f 22/22/22 18/18/18 21/21/21
f 23/23/23 22/22/22 21/21/21
f 23/23/23 24/24/24 22/22/22
f 25/25/25 22/22/22 24/24/24
f 26/26/26 25/25/25 24/24/24
f 29/29/29 28/28/28 27/27/27
f 28/28/28 30/30/30 27/27/27
f 29/29/29 27/27/27 31/31/31
f 30/30/30 32/32/32 27/27/27
f 33/33/33 27/27/27 32/32/32
f 34/34/34 27/27/27 33/33/33
f 27/27/27 34/34/34 31/31/31
f 30/30/30 35/35/35 32/32/32
f 31/31/31 34/34/34 36/36/36
f 35/35/35 37/37/37 32/32/32
f 35/35/35 38/38/38 37/37/37
f 38/38/38 39/39/39 37/37/37
f 39/39/39 38/38/38 40/40/40
f 41/41/41 39/39/39 40/40/40
f 39/39/39 41/41/41 42/42/42
f 43/43/43 39/39/39 42/42/42
f 37/37/37 39/39/39 43/43/43
f 44/44/44 43/43/43 42/42/42
f 45/45/45 37/37/37 43/43/43
f 45/45/45 43/43/43 44/44/44
f 45/45/45 32/32/32 37/37/37
f 46/46/46 45/45/45 44/44/44
f 47/47/47 32/32/32 45/45/45
f 33/33/33 32/32/32 47/47/47
f 45/45/45 46/46/46 48/48/48
f 47/47/47 45/45/45 48/48/48
f 33/33/33 47/47/47 48/48/48
f 46/46/46 49/49/49 48/48/48
f 49/49/49 50/50/50 48/48/48
f 50/50/50 51/51/51 48/48/48
f 51/51/51 33/33/33 48/48/48
f 51/51/51 50/50/50 52/52/52
f 52/52/52 53/53/53 51/51/51
f 51/51/51 53/53/53 33/33/33
f 54/54/54 53/53/53 52/52/52
f 53/53/53 54/54/54 55/55/55
f 56/56/56 54/54/54 52/52/52
f 56/56/56 57/57/57 54/54/54
f 53/53/53 58/58/58 33/33/33
f 53/53/53 55/55/55 58/58/58
f 59/59/59 33/33/33 58/58/58
f 59/59/59 34/34/34 33/33/33
f 60/60/60 34/34/34 59/59/59
f 34/34/34 60/60/60 36/36/36
f 61/61/61 59/59/59 58/58/58
f 61/61/61 60/60/60 59/59/59
f 60/60/60 62/62/62 36/36/36
f 62/62/62 63/63/63 36/36/36
f 55/55/55 64/64/64 58/58/58
f 64/64/64 61/61/61 58/58/58
f 60/60/60 61/61/61 65/65/65
f 62/62/62 60/60/60 65/65/65
f 62/62/62 65/65/65 66/66/66
f 67/67/67 62/62/62 66/66/66
f 62/62/62 67/67/67 63/63/63
f 67/67/67 68/68/68 63/63/63
f 69/69/69 68/68/68 67/67/67
f 70/70/70 69/69/69 67/67/67
f 61/61/61 64/64/64 71/71/71
f 65/65/65 61/61/61 71/71/71
f 64/64/64 55/55/55 71/71/71
f 66/66/66 65/65/65 71/71/71
f 72/72/72 70/70/70 67/67/67
f 67/67/67 66/66/66 72/72/72
f 73/73/73 70/70/70 72/72/72
f 55/55/55 74/74/74 71/71/71
f 71/71/71 74/74/74 66/66/66
f 75/75/75 73/73/73 72/72/72
f 76/76/76 73/73/73 75/75/75
f 77/77/77 76/76/76 75/75/75
f 76/76/76 77/77/77 78/78/78
f 77/77/77 79/79/79 78/78/78
f 79/79/79 77/77/77 80/80/80
f 77/77/77 81/81/81 80/80/80
f 77/77/77 75/75/75 81/81/81
f 81/81/81 82/82/82 80/80/80
f 75/75/75 83/83/83 81/81/81
f 81/81/81 83/83/83 82/82/82
f 72/72/72 83/83/83 75/75/75
f 83/83/83 84/84/84 82/82/82
f 72/72/72 85/85/85 83/83/83
f 72/72/72 66/66/66 85/85/85
f 84/84/84 83/83/83 86/86/86
f 83/83/83 85/85/85 86/86/86
f 85/85/85 66/66/66 86/86/86
f 87/87/87 84/84/84 86/86/86
f 88/88/88 87/87/87 86/86/86
f 66/66/66 89/89/89 86/86/86
f 89/89/89 88/88/88 86/86/86
f 74/74/74 89/89/89 66/66/66
f 88/88/88 89/89/89 90/90/90
f 74/74/74 90/90/90 89/89/89
f 74/74/74 91/91/91 90/90/90
f 91/91/91 92/92/92 90/90/90
f 91/91/91 74/74/74 55/55/55
f 57/57/57 92/92/92 91/91/91
f 93/93/93 91/91/91 55/55/55
f 54/54/54 93/93/93 55/55/55
f 94/94/94 57/57/57 91/91/91
f 94/94/94 91/91/91 93/93/93
f 54/54/54 94/94/94 93/93/93
f 57/57/57 94/94/94 54/54/54
