g backface_geo
v 0.2858293 0.9777934 -0.06299882
v 0.2552865 0.9531168 -0.050592
v 0.2234475 0.9972165 -0.05650081
v 0.2532513 1.02239 -0.06887238
v 0.3123669 1.002646 -0.04986895
v 0.2793053 1.046439 -0.0555866
v 0.3242491 1.018201 -0.02512757
v 0.2915783 1.059932 -0.03225814
v 0.317088 1.019756 0.007644947
v 0.2847733 1.060513 -0.001179866
v 0.2906237 1.00311 0.03195998
v 0.2580926 1.044693 0.02329993
v 0.2657171 0.9837001 0.03475796
v 0.2327034 1.025586 0.02605799
v 0.2483035 0.9654123 0.01928494
v 0.2162569 1.00834 0.009041956
v 0.2437671 0.9531924 -0.0123715
v 0.2126544 0.9973767 -0.02084794
v 0.2552865 0.9531168 -0.050592
v 0.2234475 0.9972165 -0.05650081
v 0.4792037 0.8130777 0.0748759
v 0.4901756 0.7633324 0.07409881
v 0.5052228 0.7539459 0.05460869
v 0.4878203 0.8274212 0.05092533
v 0.4818688 0.8139127 0.02607959
v 0.494854 0.7621533 0.03133894
v 0.4953408 0.7702334 0.07764547
v 0.4962372 0.7359602 0.07362402
v 0.5082722 0.746807 0.05477631
v 0.5074798 0.7833481 0.05386388
v 0.502601 0.7705885 0.02749627
v 0.5013775 0.7361706 0.0344685
v 0.507271 0.7583014 0.03100429
v 0.5098467 0.7190117 0.02866648
v 0.518896 0.7313901 0.007902
v 0.5152327 0.772422 0.005779112
v 0.5032806 0.7584749 -0.01762158
v 0.5097936 0.7184821 -0.0116169
v 0.4871583 0.813329 0.02712396
v 0.4994024 0.7568501 0.02646895
v 0.5110967 0.7471777 0.006679042
v 0.493055 0.8262056 0.003217554
v 0.4880644 0.8134987 -0.01971123
v 0.4995319 0.7545737 -0.01423545
v 0.4950301 0.7621461 -0.01851999
v 0.5010968 0.724058 -0.01824775
v 0.5021317 0.7354209 -0.04081888
v 0.4943281 0.7737703 -0.04395512
v 0.4826086 0.7585114 -0.06264295
v 0.4899924 0.7204309 -0.05593823
v 0.4769113 0.8112875 -0.02087276
v 0.4859233 0.7628954 -0.02061926
v 0.4929124 0.751372 -0.04220559
v 0.4769836 0.8224381 -0.04729069
v 0.4666047 0.8077797 -0.06817646
v 0.476461 0.757436 -0.06075983
v 0.4730045 0.750478 -0.06454282
v 0.4753262 0.7204572 -0.06545858
v 0.4746896 0.7295784 -0.08571196
v 0.4701444 0.7609327 -0.08781336
v 0.4564305 0.7475184 -0.1032345
v 0.4611079 0.7175206 -0.09753721
v 0.4630578 0.8016976 -0.06737223
v 0.470109 0.7608346 -0.06889004
v 0.4689393 0.7502373 -0.08748243
v 0.4542084 0.809906 -0.08926425
v 0.4391638 0.7966834 -0.1025549
v 0.450217 0.7546881 -0.09706888
v 0.3259865 0.7998483 0.1040455
v 0.3379768 0.7722178 0.1092285
v 0.3366217 0.8111032 0.113666
v 0.3758555 0.7682327 0.1297185
v 0.3638816 0.8213239 0.1256759
v 0.3407544 0.821687 0.1114418
v 0.3393885 0.8305558 0.1085083
v 0.3590261 0.8468944 0.1156665
v 0.3826285 0.8437486 0.1143901
v 0.384664 0.8353612 0.1171299
v 0.3926682 0.828689 0.1205971
v 0.4100626 0.7904465 0.1175173
v 0.4075418 0.8234431 0.1146203
v 0.3942491 0.7047452 0.1305625
v 0.4207191 0.726593 0.1302406
v 0.4180108 0.758899 0.1382105
v 0.3780029 0.7515009 0.140244
v 0.3674026 0.7113488 0.1101458
v 0.4002779 0.7686957 0.1386185
v 0.3519418 0.7378051 0.1117343
v 0.3931549 0.7863235 0.1404734
v 0.3579145 0.754879 0.1214661
v 0.3688589 0.7870768 0.1383466
v 0.3531241 0.7724068 0.1235668
v 0.5103188 0.7513616 0.05450837
v 0.4964256 0.7392453 0.0791158
v 0.4985622 0.7069168 0.07719035
v 0.5112365 0.692549 0.05754828
v 0.5084706 0.7402562 0.0306887
v 0.5037592 0.7052513 0.03585431
v 0.5192079 0.7334846 0.008776458
v 0.5105827 0.721728 0.03225182
v 0.512691 0.6888864 0.03000651
v 0.5242233 0.6773086 0.01168286
v 0.5105225 0.7211266 -0.01351104
v 0.5122661 0.6869068 -0.007595531
v 0.5023064 0.7408917 -0.04169415
v 0.5020151 0.7296854 -0.01639502
v 0.5069147 0.6976621 -0.01669509
v 0.5135785 0.6854976 -0.03716396
v 0.4893204 0.7255388 -0.05948311
v 0.4959288 0.6923652 -0.05318484
v 0.4758078 0.7321401 -0.08659268
v 0.4776426 0.7232135 -0.06352832
v 0.4797958 0.6967173 -0.06403358
v 0.4826454 0.6849717 -0.08343141
v 0.4609539 0.7197665 -0.1011807
v 0.4651089 0.692156 -0.0963391
vt 0.324707 0.006774902
vt 0.3452148 0.006774902
vt 0.3452148 0.03308105
vt 0.324707 0.03308105
vt 0.3059082 0.006774902
vt 0.3059082 0.03308105
vt 0.2910156 0.006774902
vt 0.2910156 0.03308105
vt 0.2751465 0.006774902
vt 0.2751465 0.03308105
vt 0.2553711 0.006774902
vt 0.2553711 0.03308105
vt 0.239502 0.006774902
vt 0.239502 0.03308105
vt 0.2249756 0.006774902
vt 0.2249756 0.03308105
vt 0.2089844 0.006774902
vt 0.2089844 0.03308105
vt 0.1903076 0.006774902
vt 0.1903076 0.03308105
vt 0.2003174 0.1155396
vt 0.2021484 0.1155396
vt 0.2025146 0.1164551
vt 0.1998291 0.1164551
vt 0.2003174 0.1174316
vt 0.2021484 0.1174316
vt 0.2027588 0.1140747
vt 0.2039795 0.1140747
vt 0.2036133 0.1149902
vt 0.2023926 0.1150513
vt 0.2027588 0.1159668
vt 0.2039795 0.1159668
vt 0.2027588 0.1140747
vt 0.2039795 0.1140747
vt 0.2036133 0.1149902
vt 0.2023926 0.1150513
vt 0.2027588 0.1159668
vt 0.2039795 0.1159668
vt 0.2003174 0.1155396
vt 0.2021484 0.1155396
vt 0.2025146 0.1164551
vt 0.1998291 0.1164551
vt 0.2003174 0.1174316
vt 0.2021484 0.1174316
vt 0.2027588 0.1140747
vt 0.2039795 0.1140747
vt 0.2036133 0.1149902
vt 0.2023926 0.1150513
vt 0.2027588 0.1159668
vt 0.2039795 0.1159668
vt 0.2003174 0.1155396
vt 0.2021484 0.1155396
vt 0.2025146 0.1164551
vt 0.1998291 0.1164551
vt 0.2003174 0.1174316
vt 0.2021484 0.1174316
vt 0.2027588 0.1140747
vt 0.2039795 0.1140747
vt 0.2036133 0.1149902
vt 0.2023926 0.1150513
vt 0.2027588 0.1159668
vt 0.2039795 0.1159668
vt 0.2003174 0.1155396
vt 0.2021484 0.1155396
vt 0.2025146 0.1164551
vt 0.1998291 0.1164551
vt 0.2003174 0.1174316
vt 0.2021484 0.1174316
vt 0.2001953 0.1115112
vt 0.2011719 0.1116333
vt 0.1999512 0.1119995
vt 0.2015381 0.112854
vt 0.1999512 0.112915
vt 0.199707 0.1121216
vt 0.1993408 0.1121826
vt 0.1990967 0.1129761
vt 0.1993408 0.1136475
vt 0.199585 0.1137695
vt 0.1999512 0.1138306
vt 0.2011719 0.1141357
vt 0.2001953 0.1143188
vt 0.2054443 0.1149902
vt 0.2050781 0.1159668
vt 0.2039795 0.1159668
vt 0.2037354 0.1149902
vt 0.2050781 0.1140747
vt 0.2033691 0.1156006
vt 0.2039795 0.1140747
vt 0.2026367 0.1156006
vt 0.2033691 0.1144409
vt 0.2023926 0.1150513
vt 0.2026367 0.1144409
vt 0.2036133 0.1149902
vt 0.2039795 0.1140747
vt 0.2050781 0.1140747
vt 0.2054443 0.1149902
vt 0.2039795 0.1159668
vt 0.2050781 0.1159668
vt 0.2036133 0.1149902
vt 0.2039795 0.1140747
vt 0.2050781 0.1140747
vt 0.2054443 0.1149902
vt 0.2039795 0.1159668
vt 0.2050781 0.1159668
vt 0.2036133 0.1149902
vt 0.2039795 0.1140747
vt 0.2050781 0.1140747
vt 0.2054443 0.1149902
vt 0.2039795 0.1159668
vt 0.2050781 0.1159668
vt 0.2036133 0.1149902
vt 0.2039795 0.1140747
vt 0.2050781 0.1140747
vt 0.2054443 0.1149902
vt 0.2039795 0.1159668
vt 0.2050781 0.1159668
vn -0.06451968 0.0817655 0.994561
vn 0.5387523 0.4813129 0.6914361
vn 0.5328764 0.4779843 0.6982649
vn -0.09312028 0.0604996 0.9938151
vn -0.5008926 -0.266636 0.8234148
vn -0.5141312 -0.2782928 0.811309
vn -0.7804928 -0.5739926 0.2477167
vn -0.7819235 -0.5773416 0.2351009
vn -0.6111425 -0.5917076 -0.5257252
vn -0.6131697 -0.5925781 -0.5223734
vn -0.2198865 -0.3634117 -0.9053076
vn -0.2219522 -0.3648304 -0.9042323
vn 0.2955942 0.02191893 -0.955062
vn 0.2908143 0.01805301 -0.9566092
vn 0.7182882 0.4071411 -0.5641791
vn 0.7129745 0.401292 -0.5750062
vn 0.8160231 0.57798 -0.00674056
vn 0.8170975 0.5760774 -0.02205226
vn 0.5387523 0.4813129 0.6914361
vn 0.5328764 0.4779843 0.6982649
vn -0.8490299 -0.2069744 -0.4861172
vn -0.8490299 -0.2069744 -0.4861172
vn -0.9723236 -0.222951 -0.06985454
vn -0.9733523 -0.222741 -0.05451337
vn -0.9210486 -0.1996093 0.3344032
vn -0.9210486 -0.1996093 0.3344033
vn -0.8700837 0.0008910294 -0.4929032
vn -0.8700837 0.0008910294 -0.4929032
vn -0.989678 0.01732076 -0.1422583
vn -0.9913356 0.01783151 -0.1301367
vn -0.9727722 0.03142452 0.229623
vn -0.9727722 0.03142451 0.229623
vn -0.9216434 -0.07056891 -0.381567
vn -0.9216434 -0.0705689 -0.3815669
vn -0.995799 -0.07394419 0.05400472
vn -0.9938058 -0.07365136 0.0832204
vn -0.8797837 -0.06323819 0.4711491
vn -0.8797837 -0.06323819 0.4711491
vn -0.9016782 -0.2093621 -0.3783438
vn -0.9016781 -0.2093621 -0.3783438
vn -0.9787506 -0.2050517 0.001067764
vn -0.9787927 -0.2047206 0.007372136
vn -0.9145376 -0.1719057 0.366155
vn -0.9145376 -0.1719057 0.366155
vn -0.9788466 -0.1818044 -0.09384188
vn -0.9788466 -0.1818044 -0.0938419
vn -0.950228 -0.1394268 0.2786159
vn -0.9448127 -0.1365502 0.297797
vn -0.7815779 -0.07558037 0.619212
vn -0.7815779 -0.07558037 0.619212
vn -0.9678698 -0.2083646 -0.140756
vn -0.9678698 -0.2083646 -0.140756
vn -0.9550886 -0.1718153 0.2414234
vn -0.9533997 -0.1708277 0.2486904
vn -0.8099474 -0.112751 0.5755625
vn -0.8099476 -0.112751 0.5755625
vn -0.9934134 -0.1105662 0.03008076
vn -0.9934134 -0.1105662 0.03008076
vn -0.9151143 -0.06798209 0.397422
vn -0.9081371 -0.06571481 0.4134834
vn -0.6996468 -0.01436961 0.7143444
vn -0.6996468 -0.01436961 0.7143443
vn -0.9472963 -0.2046021 0.2465112
vn -0.9472963 -0.2046021 0.2465112
vn -0.7962024 -0.1505595 0.5859979
vn -0.791998 -0.1492504 0.5919995
vn -0.5450905 -0.078575 0.8346869
vn -0.5450904 -0.078575 0.8346869
vn 0.5992785 0.1113516 -0.7927585
vn 0.4921972 0.1156108 -0.8627723
vn 0.4602884 0.0335995 -0.8871334
vn 0.112084 -0.002085824 -0.9936965
vn 0.1602849 -0.1313106 -0.9782977
vn 0.498648 -0.2554935 -0.8282953
vn 0.5015589 -0.2234908 -0.8357575
vn 0.210893 -0.3112764 -0.9266235
vn -0.1134908 -0.3693199 -0.9223464
vn -0.0947438 -0.3967772 -0.9130123
vn -0.2231506 -0.1239334 -0.9668735
vn -0.3071887 -0.06325149 -0.9495444
vn -0.403913 -0.1105846 -0.9080887
vn 0.2631624 0.304244 -0.9155222
vn -0.1178548 0.1893819 -0.9748049
vn -0.1125077 0.1726473 -0.9785371
vn 0.2848752 0.2344867 -0.9294418
vn 0.6035086 0.3700913 -0.7062647
vn -0.005703566 -0.009393678 -0.9999397
vn 0.6103153 0.356387 -0.7074627
vn 0.009969208 0.002249346 -0.9999478
vn 0.657299 0.1691052 -0.7344123
vn 0.3385406 0.09010666 -0.9366274
vn 0.6440858 0.1718619 -0.7453971
vn -0.9850358 0.01128559 -0.1719801
vn -0.8576 -0.03501444 -0.5131239
vn -0.8576 -0.03501444 -0.5131239
vn -0.9817548 0.008961166 -0.1899403
vn -0.9776454 0.05722786 0.2023227
vn -0.9776454 0.05722786 0.2023227
vn -0.9982515 -0.05380444 0.02447331
vn -0.8980628 -0.07508697 -0.4334112
vn -0.8980628 -0.07508698 -0.4334112
vn -0.9984373 -0.05453353 0.01220473
vn -0.8947682 -0.02338665 0.4459181
vn -0.8947682 -0.02338665 0.4459181
vn -0.9391543 -0.1366831 0.3151298
vn -0.9718316 -0.1867403 -0.143776
vn -0.9718316 -0.1867403 -0.143776
vn -0.9427767 -0.1384668 0.3033134
vn -0.7313588 -0.06464435 0.6789223
vn -0.7313588 -0.06464437 0.6789223
vn -0.8997998 -0.07244492 0.4302466
vn -0.9924445 -0.121694 -0.01563858
vn -0.9924445 -0.121694 -0.01563858
vn -0.9032047 -0.07348655 0.4228722
vn -0.6458625 -0.01325078 0.7633387
vn -0.6458626 -0.01325078 0.7633387
g backface_geo_0
f 3/3/3 2/2/2 1/1/1
f 4/4/4 3/3/3 1/1/1
f 4/4/4 1/1/1 5/5/5
f 6/6/6 4/4/4 5/5/5
f 6/6/6 5/5/5 7/7/7
f 8/8/8 6/6/6 7/7/7
f 8/8/8 7/7/7 9/9/9
f 10/10/10 8/8/8 9/9/9
f 10/10/10 9/9/9 11/11/11
f 12/12/12 10/10/10 11/11/11
f 12/12/12 11/11/11 13/13/13
f 14/14/14 12/12/12 13/13/13
f 14/14/14 13/13/13 15/15/15
f 16/16/16 14/14/14 15/15/15
f 16/16/16 15/15/15 17/17/17
f 18/18/18 16/16/16 17/17/17
f 18/18/18 17/17/17 19/19/19
f 20/20/20 18/18/18 19/19/19
f 23/23/23 22/22/22 21/21/21
f 24/24/24 23/23/23 21/21/21
f 24/24/24 25/25/25 23/23/23
f 25/25/25 26/26/26 23/23/23
f 29/29/29 28/28/28 27/27/27
f 30/30/30 29/29/29 27/27/27
f 30/30/30 31/31/31 29/29/29
f 31/31/31 32/32/32 29/29/29
f 35/35/35 34/34/34 33/33/33
f 36/36/36 35/35/35 33/33/33
f 36/36/36 37/37/37 35/35/35
f 37/37/37 38/38/38 35/35/35
f 41/41/41 40/40/40 39/39/39
f 42/42/42 41/41/41 39/39/39
f 42/42/42 43/43/43 41/41/41
f 43/43/43 44/44/44 41/41/41
f 47/47/47 46/46/46 45/45/45
f 48/48/48 47/47/47 45/45/45
f 48/48/48 49/49/49 47/47/47
f 49/49/49 50/50/50 47/47/47
f 53/53/53 52/52/52 51/51/51
f 54/54/54 53/53/53 51/51/51
f 54/54/54 55/55/55 53/53/53
f 55/55/55 56/56/56 53/53/53
f 59/59/59 58/58/58 57/57/57
f 60/60/60 59/59/59 57/57/57
f 60/60/60 61/61/61 59/59/59
f 61/61/61 62/62/62 59/59/59
f 65/65/65 64/64/64 63/63/63
f 66/66/66 65/65/65 63/63/63
f 66/66/66 67/67/67 65/65/65
f 67/67/67 68/68/68 65/65/65
f 71/71/71 70/70/70 69/69/69
f 72/72/72 70/70/70 71/71/71
f 72/72/72 71/71/71 73/73/73
f 71/71/71 74/74/74 73/73/73
f 73/73/73 74/74/74 75/75/75
f 76/76/76 73/73/73 75/75/75
f 76/76/76 77/77/77 73/73/73
f 77/77/77 78/78/78 73/73/73
f 78/78/78 79/79/79 73/73/73
f 79/79/79 72/72/72 73/73/73
f 79/79/79 80/80/80 72/72/72
f 80/80/80 79/79/79 81/81/81
f 84/84/84 83/83/83 82/82/82
f 85/85/85 84/84/84 82/82/82
f 82/82/82 86/86/86 85/85/85
f 87/87/87 84/84/84 85/85/85
f 86/86/86 88/88/88 85/85/85
f 89/89/89 87/87/87 85/85/85
f 85/85/85 88/88/88 90/90/90
f 91/91/91 89/89/89 85/85/85
f 91/91/91 85/85/85 90/90/90
f 92/92/92 91/91/91 90/90/90
f 95/95/95 94/94/94 93/93/93
f 96/96/96 95/95/95 93/93/93
f 93/93/93 97/97/97 96/96/96
f 97/97/97 98/98/98 96/96/96
f 101/101/101 100/100/100 99/99/99
f 102/102/102 101/101/101 99/99/99
f 99/99/99 103/103/103 102/102/102
f 103/103/103 104/104/104 102/102/102
f 107/107/107 106/106/106 105/105/105
f 108/108/108 107/107/107 105/105/105
f 105/105/105 109/109/109 108/108/108
f 109/109/109 110/110/110 108/108/108
f 113/113/113 112/112/112 111/111/111
f 114/114/114 113/113/113 111/111/111
f 111/111/111 115/115/115 114/114/114
f 115/115/115 116/116/116 114/114/114
