g facial_eye_geo
v 0.09645615 1.405418 0.08235078
v 0.0936259 1.380143 0.0792472
v 0.08491369 1.38045 0.1025919
v 0.0872854 1.402016 0.09895826
v 0.07567719 1.380033 0.1113133
v 0.09047844 1.431459 0.09966556
v 0.09924453 1.434956 0.08329766
v 0.07803844 1.401136 0.1060817
v 0.06460174 1.400045 0.1120962
v 0.06140283 1.38022 0.1195086
v 0.04183846 1.386055 0.1260193
v 0.0714476 1.439407 0.1145943
v 0.09602087 1.4596 0.1073771
v 0.1041051 1.463228 0.08016218
v 0.09624073 1.479036 0.1085224
v 0.07509787 1.459509 0.1232128
v 0.04033779 1.403456 0.1180826
v 0.04523338 1.439299 0.1257917
v 0.02040435 1.41051 0.124279
v 0.01848017 1.390225 0.1350539
v 1.469896E-17 1.393761 0.1416264
v 0.01969793 1.422388 0.1263272
v 0.02347889 1.449923 0.1387789
v 0.0498541 1.45433 0.1323388
v 0.07585768 1.48205 0.1263177
v 3.500825E-18 1.411386 0.1350446
v 0.07298391 1.505217 0.1280462
v 0.09439209 1.504233 0.1079701
v 0.04914851 1.50344 0.1366196
v 0.05056674 1.478623 0.1362712
v 0.02408027 1.472913 0.1418336
v -5.138372E-20 1.469528 0.1436774
v 0.02276849 1.500142 0.1419597
v 1.483742E-18 1.497659 0.143653
v -0.02276849 1.500142 0.1419597
v 1.439433E-17 1.428331 0.1369405
v -7.515241E-19 1.447275 0.1411937
v -0.02347889 1.449923 0.1387789
v -0.02408027 1.472913 0.1418336
v -0.04914851 1.50344 0.1366196
v -0.01969793 1.422388 0.1263272
v -0.05056674 1.478623 0.1362712
v -0.07585768 1.48205 0.1263177
v -0.07298391 1.505217 0.1280462
v -0.0498541 1.45433 0.1323388
v -0.09624073 1.479036 0.1085224
v -0.09439209 1.504233 0.1079701
v -0.04523338 1.439299 0.1257917
v -0.07509787 1.459509 0.1232128
v -0.02040435 1.41051 0.124279
v -0.01848017 1.390225 0.1350539
v -0.04183846 1.386055 0.1260193
v -0.04033779 1.403456 0.1180826
v -0.0714476 1.439407 0.1145943
v -0.09047844 1.431459 0.09966556
v -0.09602087 1.4596 0.1073771
v -0.1041051 1.463228 0.08016218
v -0.09924453 1.434956 0.08329766
v -0.09645615 1.405418 0.08235078
v -0.06460174 1.400045 0.1120962
v -0.06140283 1.38022 0.1195086
v -0.07567719 1.380033 0.1113133
v -0.07803844 1.401136 0.1060817
v -0.0872854 1.402016 0.09895826
v -0.08491369 1.38045 0.1025919
v -0.0936259 1.380143 0.0792472
vt 0.3579102 0.3886719
vt 0.355957 0.3664551
vt 0.3383789 0.3642578
vt 0.3398438 0.3850098
vt 0.3232422 0.3632812
vt 0.3405762 0.4108887
vt 0.3571777 0.4125977
vt 0.3286133 0.3837891
vt 0.3146973 0.3835449
vt 0.307373 0.3662109
vt 0.2897949 0.3706055
vt 0.3193359 0.418457
vt 0.340332 0.4372559
vt 0.3623047 0.4387207
vt 0.3417969 0.4543457
vt 0.3186035 0.4377441
vt 0.291748 0.387207
vt 0.2937012 0.4187012
vt 0.2727051 0.3930664
vt 0.2709961 0.3740234
vt 0.25 0.3769531
vt 0.270752 0.4033203
vt 0.2712402 0.4294434
vt 0.2956543 0.4333496
vt 0.3195801 0.4575195
vt 0.25 0.3933105
vt 0.3195801 0.4777832
vt 0.3400879 0.4768066
vt 0.2976074 0.4760742
vt 0.2961426 0.454834
vt 0.2719727 0.449707
vt 0.25 0.4465332
vt 0.2719727 0.4731445
vt 0.25 0.4707031
vt 0.2280273 0.4731445
vt 0.25 0.4091797
vt 0.25 0.4267578
vt 0.2286377 0.4294434
vt 0.2281494 0.449707
vt 0.2025146 0.4760742
vt 0.229126 0.4033203
vt 0.2038574 0.454834
vt 0.1804199 0.4575195
vt 0.1804199 0.4777832
vt 0.2044678 0.4333496
vt 0.1582031 0.4543457
vt 0.15979 0.4768066
vt 0.2064209 0.4187012
vt 0.1812744 0.4377441
vt 0.2272949 0.3930664
vt 0.2290039 0.3740234
vt 0.210083 0.3706055
vt 0.208374 0.387207
vt 0.1807861 0.418457
vt 0.1594238 0.4108887
vt 0.15979 0.4372559
vt 0.1375732 0.4387207
vt 0.1429443 0.4125977
vt 0.1420898 0.3886719
vt 0.1853027 0.3833008
vt 0.192627 0.3662109
vt 0.1767578 0.3632812
vt 0.1713867 0.3837891
vt 0.1602783 0.3850098
vt 0.1617432 0.3642578
vt 0.144165 0.3664551
vn 0.9611002 -0.1007475 0.2571698
vn 0.9454889 -0.1578745 0.2848269
vn 0.8596094 -0.1022779 0.5006104
vn 0.8374612 -0.06788049 0.5422646
vn 0.5553654 0.04483228 0.8303971
vn 0.7372173 -0.1905323 0.6482345
vn 0.9587223 -0.1442355 0.2450464
vn 0.5413589 0.02269398 0.8404853
vn 0.3579716 0.01058105 0.9336725
vn 0.4082522 0.1300432 0.9035591
vn 0.4020728 0.2458754 0.8819766
vn 0.3890533 -0.2459652 0.8877718
vn 0.7725779 -0.1660614 0.6128189
vn 0.9757168 -0.1089496 0.1900174
vn 0.8010023 -0.01255538 0.5985296
vn 0.4848604 -0.2081244 0.8494673
vn 0.3304524 0.06017737 0.9419023
vn 0.2983668 -0.2762177 0.9136088
vn 0.4088882 0.2169396 0.8864241
vn 0.4534989 0.3374926 0.8248864
vn -0 0.4403511 0.8978257
vn 0.3193616 -0.2665611 0.9093698
vn 0.2129177 -0.2286214 0.9499465
vn 0.3166743 -0.2316951 0.9198015
vn 0.5209862 -0.04203164 0.8525296
vn 1.268429E-07 0.1889168 0.9819931
vn 0.4975526 0.1613688 0.8522919
vn 0.787344 0.1638925 0.5943304
vn 0.2653768 0.1322304 0.9550341
vn 0.2919022 -0.07250397 0.9536961
vn 0.1622206 -0.06611691 0.9845369
vn -1.080671E-07 -0.06122611 0.9981239
vn 0.1304321 0.1045306 0.9859315
vn -1.11295E-07 0.08228435 0.996609
vn -0.1304322 0.1045306 0.9859314
vn -0 -0.2750184 0.961439
vn -0 -0.1539935 0.9880719
vn -0.2129177 -0.2286214 0.9499465
vn -0.1622208 -0.066117 0.9845369
vn -0.2653767 0.1322306 0.9550342
vn -0.3193617 -0.2665611 0.9093698
vn -0.291902 -0.07250407 0.9536962
vn -0.5209863 -0.04203162 0.8525295
vn -0.4975529 0.161369 0.8522917
vn -0.3166742 -0.2316953 0.9198015
vn -0.8010024 -0.01255539 0.5985295
vn -0.7873445 0.1638925 0.5943298
vn -0.2983669 -0.2762178 0.9136088
vn -0.4848601 -0.2081244 0.8494675
vn -0.4088878 0.2169393 0.8864243
vn -0.4534986 0.3374925 0.8248866
vn -0.402073 0.2458754 0.8819765
vn -0.3304526 0.06017736 0.9419023
vn -0.3995515 -0.2521626 0.881347
vn -0.723478 -0.208099 0.6582358
vn -0.7725775 -0.1660613 0.6128195
vn -0.9757168 -0.1089497 0.1900177
vn -0.9587223 -0.1442355 0.2450466
vn -0.9611002 -0.1007475 0.2571701
vn -0.3745472 0.01297485 0.927117
vn -0.4082525 0.1300433 0.9035589
vn -0.5553658 0.04483222 0.8303969
vn -0.5221479 0.08311961 0.8487948
vn -0.8374609 -0.06788053 0.5422651
vn -0.8596097 -0.1022779 0.50061
vn -0.945489 -0.1578745 0.2848269
g facial_eye_geo_0
f 3/3/3 2/2/2 1/1/1
f 4/4/4 3/3/3 1/1/1
f 5/5/5 3/3/3 4/4/4
f 6/6/6 4/4/4 1/1/1
f 1/1/1 7/7/7 6/6/6
f 8/8/8 5/5/5 4/4/4
f 6/6/6 8/8/8 4/4/4
f 8/8/8 9/9/9 5/5/5
f 9/9/9 10/10/10 5/5/5
f 11/11/11 10/10/10 9/9/9
f 12/12/12 9/9/9 8/8/8
f 8/8/8 6/6/6 12/12/12
f 7/7/7 13/13/13 6/6/6
f 14/14/14 13/13/13 7/7/7
f 14/14/14 15/15/15 13/13/13
f 16/16/16 6/6/6 13/13/13
f 16/16/16 12/12/12 6/6/6
f 16/16/16 13/13/13 15/15/15
f 17/17/17 11/11/11 9/9/9
f 17/17/17 9/9/9 12/12/12
f 18/18/18 12/12/12 16/16/16
f 18/18/18 17/17/17 12/12/12
f 11/11/11 17/17/17 19/19/19
f 20/20/20 11/11/11 19/19/19
f 21/21/21 20/20/20 19/19/19
f 19/19/19 17/17/17 22/22/22
f 22/22/22 17/17/17 18/18/18
f 23/23/23 22/22/22 18/18/18
f 16/16/16 24/24/24 18/18/18
f 23/23/23 18/18/18 24/24/24
f 25/25/25 16/16/16 15/15/15
f 24/24/24 16/16/16 25/25/25
f 26/26/26 21/21/21 19/19/19
f 19/19/19 22/22/22 26/26/26
f 25/25/25 15/15/15 27/27/27
f 15/15/15 28/28/28 27/27/27
f 25/25/25 27/27/27 29/29/29
f 30/30/30 24/24/24 25/25/25
f 30/30/30 25/25/25 29/29/29
f 23/23/23 24/24/24 30/30/30
f 31/31/31 30/30/30 29/29/29
f 31/31/31 23/23/23 30/30/30
f 31/31/31 32/32/32 23/23/23
f 33/33/33 31/31/31 29/29/29
f 31/31/31 33/33/33 32/32/32
f 33/33/33 34/34/34 32/32/32
f 34/34/34 35/35/35 32/32/32
f 36/36/36 22/22/22 23/23/23
f 22/22/22 36/36/36 26/26/26
f 32/32/32 37/37/37 23/23/23
f 23/23/23 37/37/37 36/36/36
f 37/37/37 32/32/32 38/38/38
f 37/37/37 38/38/38 36/36/36
f 35/35/35 39/39/39 32/32/32
f 32/32/32 39/39/39 38/38/38
f 39/39/39 35/35/35 40/40/40
f 36/36/36 41/41/41 26/26/26
f 41/41/41 36/36/36 38/38/38
f 42/42/42 39/39/39 40/40/40
f 38/38/38 39/39/39 42/42/42
f 43/43/43 42/42/42 40/40/40
f 44/44/44 43/43/43 40/40/40
f 45/45/45 38/38/38 42/42/42
f 45/45/45 42/42/42 43/43/43
f 46/46/46 43/43/43 44/44/44
f 47/47/47 46/46/46 44/44/44
f 48/48/48 38/38/38 45/45/45
f 48/48/48 41/41/41 38/38/38
f 49/49/49 45/45/45 43/43/43
f 49/49/49 43/43/43 46/46/46
f 45/45/45 49/49/49 48/48/48
f 41/41/41 50/50/50 26/26/26
f 21/21/21 26/26/26 50/50/50
f 51/51/51 21/21/21 50/50/50
f 52/52/52 51/51/51 50/50/50
f 53/53/53 50/50/50 41/41/41
f 53/53/53 41/41/41 48/48/48
f 53/53/53 52/52/52 50/50/50
f 53/53/53 48/48/48 54/54/54
f 54/54/54 48/48/48 49/49/49
f 54/54/54 49/49/49 55/55/55
f 56/56/56 49/49/49 46/46/46
f 55/55/55 49/49/49 56/56/56
f 46/46/46 57/57/57 56/56/56
f 56/56/56 57/57/57 58/58/58
f 56/56/56 58/58/58 55/55/55
f 58/58/58 59/59/59 55/55/55
f 52/52/52 53/53/53 60/60/60
f 60/60/60 53/53/53 54/54/54
f 55/55/55 60/60/60 54/54/54
f 61/61/61 52/52/52 60/60/60
f 61/61/61 60/60/60 62/62/62
f 60/60/60 55/55/55 63/63/63
f 60/60/60 63/63/63 62/62/62
f 63/63/63 55/55/55 64/64/64
f 62/62/62 63/63/63 64/64/64
f 64/64/64 55/55/55 59/59/59
f 65/65/65 62/62/62 64/64/64
f 65/65/65 64/64/64 59/59/59
f 66/66/66 65/65/65 59/59/59
