g facial_eye_geo
v -0.08977868 1.328734 0.07711068
v -0.07749598 1.305107 0.09409667
v -0.08604181 1.308566 0.07336503
v -0.08050002 1.326188 0.09199245
v -0.09320626 1.354157 0.07857553
v -0.06876701 1.305613 0.1021804
v -0.08477454 1.351205 0.09392063
v -0.07169505 1.325658 0.09854893
v -0.0591484 1.324933 0.1042299
v -0.0558206 1.307683 0.1103679
v -0.03852058 1.312011 0.1177407
v -0.06541233 1.347766 0.1043378
v -0.09051266 1.37738 0.1012992
v -0.09720065 1.380803 0.0756247
v -0.09079315 1.395716 0.1023796
v -0.07079737 1.377295 0.1162385
v -0.03734203 1.326715 0.1107594
v -0.01902335 1.331622 0.1170905
v -0.01945556 1.313508 0.1269714
v -1.525884E-09 1.315334 0.1335914
v -0.03957916 1.344462 0.1146418
v -0.01848042 1.342351 0.1191554
v -0.04251924 1.358228 0.1186714
v -1.525884E-09 1.331896 0.1274006
v -1.525884E-09 1.347882 0.1291891
v -0.01972031 1.355238 0.1255054
v -0.04700918 1.372409 0.124848
v 0.01902335 1.331622 0.1170905
v 0.01945556 1.313508 0.1269714
v 0.03852058 1.312011 0.1177407
v 0.01848042 1.342351 0.1191554
v 0.03734203 1.326715 0.1107594
v -0.07156383 1.39856 0.1191676
v -0.0221499 1.368251 0.1309235
v -0.06885274 1.420416 0.1207983
v -0.08904912 1.419487 0.1018586
v -0.04636652 1.418739 0.1288864
v -0.04770448 1.395326 0.1285577
v -0.02271723 1.38994 0.1338053
v -1.525884E-09 1.386746 0.1355448
v -0.02147971 1.415628 0.1339242
v -1.525884E-09 1.413285 0.1355218
v 0.0214797 1.415628 0.1339242
v -1.525884E-09 1.365753 0.1332017
v 0.02271723 1.38994 0.1338053
v 0.04636652 1.418739 0.1288864
v 0.0221499 1.368251 0.1309235
v 0.04770447 1.395326 0.1285577
v 0.01972031 1.355238 0.1255054
v 0.07156383 1.39856 0.1191676
v 0.06885273 1.420416 0.1207983
v 0.04700918 1.372409 0.124848
v 0.04251924 1.358228 0.1186714
v 0.09079314 1.395716 0.1023796
v 0.08904912 1.419487 0.1018586
v 0.07079738 1.377295 0.1162385
v 0.03957916 1.344462 0.1146418
v 0.06541232 1.347766 0.1043378
v 0.09051266 1.37738 0.1012992
v 0.09720065 1.380803 0.0756247
v 0.09320626 1.354157 0.07857553
v 0.08477454 1.351205 0.09392063
v 0.0591484 1.324933 0.1042299
v 0.0558206 1.307683 0.1103679
v 0.06876702 1.305613 0.1021804
v 0.07169505 1.325658 0.09854893
v 0.08050002 1.326188 0.09199245
v 0.08977868 1.328734 0.07711068
v 0.07749599 1.305107 0.09409667
v 0.08604181 1.308566 0.07336503
vt 0.1420898 0.3850098
vt 0.1658936 0.3588867
vt 0.144165 0.3625488
vt 0.1623535 0.3813477
vt 0.1429443 0.4089355
vt 0.1772461 0.3601074
vt 0.1584473 0.4089355
vt 0.1729736 0.3808594
vt 0.1871338 0.3803711
vt 0.192627 0.3625488
vt 0.210083 0.3676758
vt 0.1802979 0.4033203
vt 0.1582031 0.4316406
vt 0.1375732 0.4350586
vt 0.1577148 0.449707
vt 0.1800537 0.4328613
vt 0.2086182 0.3830566
vt 0.227417 0.3886719
vt 0.2297363 0.3703613
vt 0.25 0.3728027
vt 0.2075195 0.4003906
vt 0.2288818 0.3986816
vt 0.2059326 0.4138184
vt 0.25 0.388916
vt 0.25 0.4050293
vt 0.2293701 0.4118652
vt 0.2034912 0.4284668
vt 0.2727051 0.3886719
vt 0.2702637 0.3703613
vt 0.2900391 0.3676758
vt 0.2712402 0.3986816
vt 0.2915039 0.3830566
vt 0.1787109 0.4526367
vt 0.2282715 0.425293
vt 0.1804199 0.4731445
vt 0.15979 0.472168
vt 0.2025146 0.4711914
vt 0.2019043 0.4494629
vt 0.2276611 0.4458008
vt 0.25 0.442627
vt 0.2280273 0.4677734
vt 0.25 0.4650879
vt 0.2719727 0.4677734
vt 0.25 0.4228516
vt 0.2722168 0.4458008
vt 0.2976074 0.4711914
vt 0.2717285 0.425293
vt 0.2980957 0.4494629
vt 0.2705078 0.4118652
vt 0.3212891 0.4526367
vt 0.3195801 0.4731445
vt 0.2966309 0.4284668
vt 0.2941895 0.4138184
vt 0.3422852 0.449707
vt 0.3400879 0.472168
vt 0.3200684 0.4328613
vt 0.2924805 0.4003906
vt 0.3198242 0.4033203
vt 0.3417969 0.4316406
vt 0.3623047 0.4350586
vt 0.3571777 0.4089355
vt 0.3415527 0.4089355
vt 0.3127441 0.3803711
vt 0.307373 0.3625488
vt 0.3227539 0.3601074
vt 0.3269043 0.3808594
vt 0.3376465 0.3813477
vt 0.3579102 0.3850098
vt 0.3342285 0.3588867
vt 0.355957 0.3625488
vn -0.9498173 -0.1669576 0.2645228
vn -0.8399888 -0.1011001 0.5331018
vn -0.9435698 -0.2202885 0.2472834
vn -0.814644 -0.130896 0.564997
vn -0.9382144 -0.1734585 0.2994426
vn -0.565528 0.02745807 0.8242719
vn -0.7039514 -0.2790582 0.6531301
vn -0.5403268 -0.005397593 0.8414379
vn -0.3932196 0.0360923 0.9187359
vn -0.4553046 0.1259938 0.8813758
vn -0.4480309 0.2519429 0.8577839
vn -0.4081683 -0.2727036 0.871224
vn -0.7777253 -0.1707579 0.604967
vn -0.9710649 -0.1070751 0.2134666
vn -0.7060001 -0.02471834 0.7077801
vn -0.4798664 -0.2236378 0.8483598
vn -0.3525583 0.06600008 0.9334595
vn -0.4023273 0.2445753 0.882222
vn -0.4529923 0.3455801 0.8218104
vn 4.361406E-07 0.4514368 0.892303
vn -0.309159 -0.2273566 0.9234335
vn -0.3373847 -0.2860692 0.8968477
vn -0.336635 -0.408557 0.8483855
vn 2.994797E-07 0.292271 0.9563355
vn -1.770116E-07 -0.2537214 0.9672773
vn -0.3086498 -0.4322629 0.8472804
vn -0.3187174 -0.2296548 0.9196075
vn 0.4023284 0.2445752 0.8822215
vn 0.4529934 0.3455808 0.8218095
vn 0.4480308 0.2519426 0.8577839
vn 0.3373849 -0.2860689 0.8968478
vn 0.3525571 0.06599966 0.9334599
vn -0.5211633 -0.04251901 0.8523972
vn -0.1956777 -0.1958788 0.9609067
vn -0.5010375 0.1387997 0.8542225
vn -0.6696682 0.1516214 0.7270182
vn -0.2665106 0.1206485 0.956251
vn -0.2920075 -0.07266378 0.9536518
vn -0.1622456 -0.06614091 0.9845313
vn -1.232372E-07 -0.06122637 0.9981239
vn -0.1257468 0.1375646 0.9824784
vn -1.005647E-07 0.1043256 0.9945432
vn 0.125747 0.1375648 0.9824783
vn -0 -0.1539936 0.9880718
vn 0.1622457 -0.06614086 0.9845312
vn 0.2665109 0.1206488 0.9562509
vn 0.1956774 -0.1958784 0.9609068
vn 0.2920075 -0.07266361 0.9536518
vn 0.3086492 -0.4322617 0.8472813
vn 0.5211631 -0.0425189 0.8523973
vn 0.5010377 0.1387996 0.8542225
vn 0.3187182 -0.2296552 0.9196071
vn 0.3366362 -0.4085589 0.8483841
vn 0.8897907 -0.04705206 0.4539368
vn 0.8529751 0.165795 0.4949197
vn 0.4798664 -0.2236378 0.8483598
vn 0.3091593 -0.2273571 0.9234334
vn 0.4081686 -0.2727041 0.8712238
vn 0.777725 -0.1707575 0.6049675
vn 0.9391802 -0.1726363 0.2968794
vn 0.9382144 -0.1734585 0.2994424
vn 0.7039516 -0.2790586 0.6531298
vn 0.3932188 0.03609223 0.9187362
vn 0.4553043 0.1259935 0.881376
vn 0.5655276 0.02745818 0.8242722
vn 0.5403263 -0.005397563 0.8414382
vn 0.814644 -0.1308959 0.564997
vn 0.9498174 -0.1669576 0.2645225
vn 0.8399886 -0.1011005 0.5331019
vn 0.9435698 -0.2202885 0.2472836
g facial_eye_geo_0
f 3/3/3 2/2/2 1/1/1
f 2/2/2 4/4/4 1/1/1
f 5/5/5 1/1/1 4/4/4
f 2/2/2 6/6/6 4/4/4
f 7/7/7 5/5/5 4/4/4
f 6/6/6 8/8/8 4/4/4
f 8/8/8 7/7/7 4/4/4
f 9/9/9 8/8/8 6/6/6
f 10/10/10 9/9/9 6/6/6
f 10/10/10 11/11/11 9/9/9
f 9/9/9 12/12/12 8/8/8
f 7/7/7 8/8/8 12/12/12
f 13/13/13 5/5/5 7/7/7
f 13/13/13 14/14/14 5/5/5
f 15/15/15 14/14/14 13/13/13
f 7/7/7 16/16/16 13/13/13
f 12/12/12 16/16/16 7/7/7
f 13/13/13 16/16/16 15/15/15
f 11/11/11 17/17/17 9/9/9
f 9/9/9 17/17/17 12/12/12
f 17/17/17 11/11/11 18/18/18
f 11/11/11 19/19/19 18/18/18
f 19/19/19 20/20/20 18/18/18
f 17/17/17 21/21/21 12/12/12
f 17/17/17 18/18/18 22/22/22
f 17/17/17 22/22/22 21/21/21
f 12/12/12 21/21/21 23/23/23
f 12/12/12 23/23/23 16/16/16
f 21/21/21 22/22/22 23/23/23
f 20/20/20 24/24/24 18/18/18
f 18/18/18 24/24/24 22/22/22
f 25/25/25 22/22/22 24/24/24
f 23/23/23 22/22/22 26/26/26
f 26/26/26 22/22/22 25/25/25
f 27/27/27 16/16/16 23/23/23
f 23/23/23 26/26/26 27/27/27
f 24/24/24 20/20/20 28/28/28
f 20/20/20 29/29/29 28/28/28
f 29/29/29 30/30/30 28/28/28
f 24/24/24 28/28/28 31/31/31
f 31/31/31 25/25/25 24/24/24
f 30/30/30 32/32/32 28/28/28
f 28/28/28 32/32/32 31/31/31
f 16/16/16 27/27/27 33/33/33
f 16/16/16 33/33/33 15/15/15
f 34/34/34 27/27/27 26/26/26
f 26/26/26 25/25/25 34/34/34
f 15/15/15 33/33/33 35/35/35
f 36/36/36 15/15/15 35/35/35
f 35/35/35 33/33/33 37/37/37
f 27/27/27 38/38/38 33/33/33
f 33/33/33 38/38/38 37/37/37
f 27/27/27 34/34/34 38/38/38
f 38/38/38 39/39/39 37/37/37
f 34/34/34 39/39/39 38/38/38
f 40/40/40 39/39/39 34/34/34
f 39/39/39 41/41/41 37/37/37
f 41/41/41 39/39/39 40/40/40
f 42/42/42 41/41/41 40/40/40
f 43/43/43 42/42/42 40/40/40
f 44/44/44 34/34/34 25/25/25
f 44/44/44 40/40/40 34/34/34
f 45/45/45 43/43/43 40/40/40
f 43/43/43 45/45/45 46/46/46
f 40/40/40 44/44/44 47/47/47
f 47/47/47 44/44/44 25/25/25
f 45/45/45 40/40/40 47/47/47
f 45/45/45 48/48/48 46/46/46
f 45/45/45 47/47/47 48/48/48
f 25/25/25 49/49/49 47/47/47
f 31/31/31 49/49/49 25/25/25
f 48/48/48 50/50/50 46/46/46
f 50/50/50 51/51/51 46/46/46
f 47/47/47 52/52/52 48/48/48
f 52/52/52 47/47/47 49/49/49
f 48/48/48 52/52/52 50/50/50
f 31/31/31 53/53/53 49/49/49
f 49/49/49 53/53/53 52/52/52
f 50/50/50 54/54/54 51/51/51
f 54/54/54 55/55/55 51/51/51
f 52/52/52 56/56/56 50/50/50
f 50/50/50 56/56/56 54/54/54
f 56/56/56 52/52/52 53/53/53
f 31/31/31 57/57/57 53/53/53
f 31/31/31 32/32/32 57/57/57
f 57/57/57 58/58/58 53/53/53
f 57/57/57 32/32/32 58/58/58
f 53/53/53 58/58/58 56/56/56
f 56/56/56 59/59/59 54/54/54
f 60/60/60 54/54/54 59/59/59
f 60/60/60 59/59/59 61/61/61
f 56/56/56 62/62/62 59/59/59
f 61/61/61 59/59/59 62/62/62
f 56/56/56 58/58/58 62/62/62
f 32/32/32 63/63/63 58/58/58
f 32/32/32 30/30/30 63/63/63
f 30/30/30 64/64/64 63/63/63
f 63/63/63 64/64/64 65/65/65
f 58/58/58 63/63/63 66/66/66
f 66/66/66 62/62/62 58/58/58
f 66/66/66 63/63/63 65/65/65
f 61/61/61 62/62/62 67/67/67
f 62/62/62 66/66/66 67/67/67
f 66/66/66 65/65/65 67/67/67
f 68/68/68 61/61/61 67/67/67
f 65/65/65 69/69/69 67/67/67
f 67/67/67 69/69/69 68/68/68
f 69/69/69 70/70/70 68/68/68
