g head_geo
v -0.08904912 1.419487 0.1018586
v -0.08395226 1.444826 0.09800504
v -0.06280275 1.450086 0.1153074
v -0.06885274 1.420416 0.1207983
v -0.04636652 1.418739 0.1288864
v -0.034171 1.454009 0.1226155
v -0.02147971 1.415628 0.1339242
v -1.525884E-09 1.453079 0.1270784
v -1.525884E-09 1.413285 0.1355218
v 0.0214797 1.415628 0.1339242
v 0.034171 1.454009 0.1226155
v 0.04636652 1.418739 0.1288864
v 0.04736492 1.452201 0.1192478
v 0.06280275 1.450086 0.1153074
v 0.06885273 1.420416 0.1207983
v 0.08904912 1.419487 0.1018586
v 0.08395226 1.444826 0.09800504
v -0.09716587 1.348794 0.05042201
v -0.09720065 1.380803 0.0756247
v -0.09320626 1.354157 0.07857553
v -0.08977868 1.328734 0.07711068
v -0.08943983 1.304934 0.04691704
v -0.1018877 1.342645 0.02217813
v -0.08604181 1.308566 0.07336503
v -0.08200471 1.290138 0.06741827
v -0.08982509 1.294251 0.02202658
v -0.0798304 1.274921 0.05898688
v -0.08258476 1.277331 0.02936023
v -0.07714209 1.26916 0.02003483
v -0.07449175 1.265807 0.04069159
v -0.08970509 1.294935 0.0003367661
v -0.06837929 1.257589 0.03392553
v -0.08059808 1.283207 -0.01736255
v -0.09951312 1.316016 -0.01487856
v -0.04141844 1.260497 -0.02278948
v -0.03842124 1.251686 0.005148993
v -0.02364048 1.241949 0.02437679
v -0.05488029 1.248362 0.04967818
v -0.04172332 1.240978 0.06194052
v -0.02293767 1.238797 0.05578641
v -0.02805061 1.234774 0.07481829
v -1.525884E-09 1.232861 0.03669946
v -1.525884E-09 1.230148 0.06720906
v -0.01108142 1.232343 0.06967252
v -0.005067683 1.22649 0.0886986
v -1.525884E-09 1.225313 0.08992475
v 0.005067685 1.22649 0.0886986
v 0.02293767 1.238797 0.05578641
v 0.02364048 1.241949 0.02437679
v 0.01108142 1.232343 0.06967252
v 0.02805061 1.234774 0.07481829
v 0.04172332 1.240978 0.06194052
v 0.05488028 1.248362 0.04967818
v 0.06837929 1.257589 0.03392553
v 0.03842124 1.251686 0.005148993
v 0.07714209 1.26916 0.02003483
v 0.04141844 1.260497 -0.02278948
v 0.07449175 1.265807 0.04069159
v 0.08059808 1.283207 -0.01736255
v 0.08970509 1.294935 0.0003367661
v 0.09951313 1.316016 -0.01487856
v 0.08982509 1.294251 0.02202658
v 0.08258476 1.277331 0.02936023
v 0.07983041 1.274921 0.05898688
v 0.08943983 1.304934 0.04691704
v 0.08200471 1.290138 0.06741827
v 0.1018877 1.342645 0.02217813
v 0.08604181 1.308566 0.07336503
v 0.08977868 1.328734 0.07711068
v 0.09716587 1.348794 0.05042201
v 0.09320626 1.354157 0.07857553
v 0.09720065 1.380803 0.0756247
v -0.1062731 1.349315 -0.00358461
v -0.1018877 1.342645 0.02217813
v -0.1204787 1.353246 0.0006139305
v -0.1270277 1.348547 -0.01037398
v -0.104853 1.333199 -0.0148869
v -0.1275561 1.338769 -0.01702369
v -0.09951312 1.316016 -0.01487856
v -0.1234879 1.313594 -0.01628424
v -0.1093978 1.28863 -0.005852759
v -0.08970509 1.294935 0.0003367661
v -0.09589761 1.284915 0.00730014
v -0.08982509 1.294251 0.02202658
v -0.1201269 1.309682 -0.005885221
v -0.09589761 1.284915 0.00730014
v -0.1288555 1.33581 -0.01036934
v -0.1270277 1.348547 -0.01037398
v -0.127494 1.343428 -0.00462669
v -0.1204787 1.353246 0.0006139305
v -0.1221207 1.347615 0.0030248
v -0.08982509 1.294251 0.02202658
v -0.1018877 1.342645 0.02217813
v 0.1062731 1.349315 -0.00358461
v 0.1204787 1.353246 0.0006139305
v 0.1018877 1.342645 0.02217813
v 0.1270277 1.348547 -0.01037398
v 0.104853 1.333199 -0.0148869
v 0.1275561 1.338769 -0.01702369
v 0.09951313 1.316016 -0.01487856
v 0.1234879 1.313594 -0.01628424
v 0.1093978 1.28863 -0.005852759
v 0.08970509 1.294935 0.0003367661
v 0.09589761 1.284915 0.00730014
v 0.08982509 1.294251 0.02202658
v 0.1201268 1.309682 -0.005885221
v 0.09589761 1.284915 0.00730014
v 0.1288555 1.33581 -0.01036934
v 0.1270277 1.348547 -0.01037398
v 0.127494 1.343428 -0.00462669
v 0.1204787 1.353246 0.0006139305
v 0.1221207 1.347615 0.0030248
v 0.08982509 1.294251 0.02202658
v 0.1018877 1.342645 0.02217813
vt 0.15979 0.472168
vt 0.1627197 0.4975586
vt 0.1856689 0.4975586
vt 0.1804199 0.4731445
vt 0.2025146 0.4711914
vt 0.2143555 0.4975586
vt 0.2280273 0.4677734
vt 0.25 0.4975586
vt 0.25 0.4650879
vt 0.2719727 0.4677734
vt 0.2856445 0.4975586
vt 0.2976074 0.4711914
vt 0.2988281 0.4975586
vt 0.3144531 0.4975586
vt 0.3195801 0.4731445
vt 0.3400879 0.472168
vt 0.3371582 0.4975586
vt 0.1280518 0.4035645
vt 0.1375732 0.4350586
vt 0.1429443 0.4089355
vt 0.1420898 0.3850098
vt 0.1326904 0.3581543
vt 0.09991455 0.3999023
vt 0.144165 0.3625488
vt 0.1480713 0.3425293
vt 0.1069336 0.3552246
vt 0.1513672 0.3283691
vt 0.1345215 0.3273926
vt 0.1264648 0.3146973
vt 0.1561279 0.3129883
vt 0.09362793 0.3547363
vt 0.1575928 0.2998047
vt 0.08135986 0.3293457
vt 0.08374023 0.3759766
vt 0.08508301 0.295166
vt 0.1281738 0.2717285
vt 0.1824951 0.244751
vt 0.1835938 0.2905273
vt 0.2020264 0.2854004
vt 0.2103271 0.2563477
vt 0.2198486 0.2802734
vt 0.25 0.2327881
vt 0.25 0.2512207
vt 0.2351074 0.2587891
vt 0.2451172 0.2670898
vt 0.25 0.2666016
vt 0.2548828 0.2670898
vt 0.2895508 0.2563477
vt 0.3173828 0.244751
vt 0.2648926 0.2587891
vt 0.2800293 0.2802734
vt 0.2978516 0.2854004
vt 0.3164062 0.2905273
vt 0.3425293 0.2998047
vt 0.3718262 0.2717285
vt 0.3735352 0.3146973
vt 0.4150391 0.295166
vt 0.34375 0.3129883
vt 0.4187012 0.3293457
vt 0.4064941 0.3547363
vt 0.4162598 0.3759766
vt 0.3930664 0.3552246
vt 0.3654785 0.3273926
vt 0.3486328 0.3283691
vt 0.3674316 0.3581543
vt 0.3518066 0.3425293
vt 0.4001465 0.3999023
vt 0.355957 0.3625488
vt 0.3579102 0.3850098
vt 0.3720703 0.4035645
vt 0.3571777 0.4089355
vt 0.3623047 0.4350586
vt 0.1026001 0.2181396
vt 0.1190186 0.2359619
vt 0.1132812 0.2099609
vt 0.1069946 0.199585
vt 0.08557129 0.2119141
vt 0.09765625 0.1945801
vt 0.06829834 0.2086182
vt 0.07678223 0.1921387
vt 0.05395508 0.1834717
vt 0.04473877 0.199707
vt 0.03848267 0.1890869
vt 0.02531433 0.1989746
vt 0.07318115 0.184082
vt 0.04772949 0.1672363
vt 0.09539795 0.1883545
vt 0.1066284 0.1873779
vt 0.1016235 0.1828613
vt 0.1099243 0.175293
vt 0.1043701 0.1748047
vt 0.05480957 0.152832
vt 0.09783936 0.152832
vt 0.3974609 0.2181396
vt 0.3867188 0.2099609
vt 0.3811035 0.2359619
vt 0.3930664 0.199585
vt 0.4145508 0.2119141
vt 0.4023438 0.1945801
vt 0.4316406 0.2086182
vt 0.4230957 0.1921387
vt 0.4460449 0.1834717
vt 0.4553223 0.199707
vt 0.4614258 0.1890869
vt 0.4746094 0.1989746
vt 0.4267578 0.184082
vt 0.4523926 0.1672363
vt 0.404541 0.1883545
vt 0.3933105 0.1873779
vt 0.3984375 0.1828613
vt 0.3901367 0.175293
vt 0.3955078 0.1748047
vt 0.4453125 0.152832
vt 0.4020996 0.152832
vn -0.6696682 0.1516214 0.7270182
vn -0.6587911 0.2537968 0.7082242
vn -0.4434505 0.2563485 0.858858
vn -0.5010375 0.1387997 0.8542225
vn -0.2665106 0.1206485 0.956251
vn -0.2082414 0.2448746 0.9469276
vn -0.1257468 0.1375646 0.9824784
vn -3.093029E-07 0.2370818 0.9714896
vn -1.005647E-07 0.1043256 0.9945432
vn 0.125747 0.1375648 0.9824783
vn 0.1601512 0.2440029 0.9564592
vn 0.2665109 0.1206488 0.9562509
vn 0.2891513 0.2488167 0.9243819
vn 0.4149149 0.2526808 0.8740698
vn 0.5010377 0.1387996 0.8542225
vn 0.8529751 0.165795 0.4949197
vn 0.6497451 0.240359 0.7211511
vn -0.9633826 -0.2154244 0.1596436
vn -0.9710649 -0.1070751 0.2134666
vn -0.9382144 -0.1734585 0.2994426
vn -0.9498173 -0.1669576 0.2645228
vn -0.9727173 -0.2067897 0.1051621
vn -0.9000791 -0.292154 0.32327
vn -0.9435698 -0.2202885 0.2472834
vn -0.9487182 -0.2492373 0.1944595
vn -0.932613 -0.2935244 0.209944
vn -0.8985834 -0.4264455 0.1034025
vn -0.9193788 -0.3933123 0.006923833
vn -0.669556 -0.7136386 -0.2059483
vn -0.7982019 -0.5999149 0.05455243
vn -0.6702079 -0.6497087 -0.3587478
vn -0.5645227 -0.8135253 -0.1396094
vn -0.7375677 -0.6745383 -0.03149376
vn -0.4600759 -0.7750734 -0.4331182
vn -0.7600955 -0.6496181 -0.01585169
vn -0.902243 -0.4082334 0.1389351
vn -0.6950052 -0.5765467 0.4296065
vn -0.4423277 -0.8944355 -0.0658121
vn -0.4015932 -0.9138225 -0.06042641
vn -0.2632478 -0.9519008 -0.1567978
vn -0.3867254 -0.918487 -0.0826137
vn -4.443294E-07 -0.6959103 0.7181287
vn -0 -0.9895405 -0.1442556
vn -0.2550362 -0.9511201 -0.1741466
vn -0.2801625 -0.9525457 -0.1190193
vn -0 -0.9956003 -0.09370053
vn 0.2801628 -0.9525465 -0.1190125
vn 0.2632476 -0.9519006 -0.1567988
vn 0.6950049 -0.5765467 0.4296069
vn 0.2550362 -0.9511201 -0.1741467
vn 0.3869066 -0.9184217 -0.08249141
vn 0.4017268 -0.9137768 -0.06022983
vn 0.4423624 -0.8944309 -0.06564199
vn 0.5645226 -0.8135255 -0.1396084
vn 0.902243 -0.4082333 0.1389355
vn 0.6695563 -0.7136389 -0.2059468
vn 0.8562748 -0.4228166 -0.2966808
vn 0.7982017 -0.5999149 0.05455249
vn 0.1316322 -0.7904828 0.5981721
vn 0.6702085 -0.6497093 -0.3587455
vn 0.1422521 -0.5191373 -0.8427697
vn 0.932613 -0.2935242 0.2099442
vn 0.9193789 -0.3933122 0.006925085
vn 0.8985834 -0.4264455 0.1034017
vn 0.9727173 -0.2067897 0.1051621
vn 0.9487181 -0.2492373 0.19446
vn 0.9348202 -0.2730309 0.22708
vn 0.9435698 -0.2202885 0.2472836
vn 0.9498174 -0.1669576 0.2645225
vn 0.9384503 -0.2478222 0.2406145
vn 0.9382144 -0.1734585 0.2994424
vn 0.9391802 -0.1726363 0.2968794
vn 0.5811183 0.3674646 0.7261345
vn -0.9000791 -0.292154 0.32327
vn -0.1322382 0.9791373 0.1542829
vn -0.2945732 0.7255607 -0.6219232
vn 0.9090982 -0.3895414 -0.1476419
vn -0.3335955 0.1052511 -0.9368225
vn -0.4600759 -0.7750734 -0.4331182
vn -0.3392521 -0.2194096 -0.9147499
vn -0.2793533 -0.7913637 -0.543788
vn -0.6702079 -0.6497087 -0.3587478
vn -0.658868 -0.541854 0.5218115
vn -0.932613 -0.2935244 0.209944
vn -0.7916651 -0.2174953 0.5709311
vn -0.658868 -0.541854 0.5218115
vn -0.9805861 -0.1463422 0.1305176
vn -0.2945732 0.7255607 -0.6219232
vn -0.848822 -0.08604487 0.5216298
vn -0.1322382 0.9791373 0.1542829
vn -0.7781136 -0.08035941 0.6229619
vn -0.932613 -0.2935244 0.209944
vn -0.9000791 -0.292154 0.32327
vn 0.3139019 0.003780037 0.9494478
vn 0.1322383 0.9791369 0.1542849
vn 0.9348202 -0.2730309 0.22708
vn 0.2945729 0.7255617 -0.6219221
vn -0.7083007 -0.6923165 -0.1378702
vn 0.3335945 0.1052508 -0.9368229
vn 0.1422521 -0.5191373 -0.8427697
vn 0.3392516 -0.2194086 -0.9147503
vn 0.2793527 -0.7913643 -0.5437875
vn 0.6702085 -0.6497093 -0.3587455
vn 0.658867 -0.5418538 0.5218127
vn 0.932613 -0.2935242 0.2099442
vn 0.791665 -0.2174957 0.570931
vn 0.658867 -0.5418538 0.5218127
vn 0.9805864 -0.1463425 0.1305148
vn 0.2945729 0.7255617 -0.6219221
vn 0.8488203 -0.08604442 0.5216324
vn 0.1322383 0.9791369 0.1542849
vn 0.7781112 -0.08035892 0.622965
vn 0.932613 -0.2935242 0.2099442
vn 0.9348202 -0.2730309 0.22708
g head_geo_0
f 3/3/3 2/2/2 1/1/1
f 4/4/4 3/3/3 1/1/1
f 3/3/3 4/4/4 5/5/5
f 6/6/6 3/3/3 5/5/5
f 5/5/5 7/7/7 6/6/6
f 8/8/8 6/6/6 7/7/7
f 7/7/7 9/9/9 8/8/8
f 9/9/9 10/10/10 8/8/8
f 11/11/11 8/8/8 10/10/10
f 10/10/10 12/12/12 11/11/11
f 13/13/13 11/11/11 12/12/12
f 14/14/14 13/13/13 12/12/12
f 15/15/15 14/14/14 12/12/12
f 14/14/14 15/15/15 16/16/16
f 17/17/17 14/14/14 16/16/16
f 20/20/20 19/19/19 18/18/18
f 21/21/21 20/20/20 18/18/18
f 22/22/22 21/21/21 18/18/18
f 18/18/18 23/23/23 22/22/22
f 24/24/24 21/21/21 22/22/22
f 25/25/25 24/24/24 22/22/22
f 23/23/23 26/26/26 22/22/22
f 25/25/25 22/22/22 27/27/27
f 27/27/27 22/22/22 26/26/26
f 27/27/27 26/26/26 28/28/28
f 28/28/28 26/26/26 29/29/29
f 30/30/30 27/27/27 28/28/28
f 30/30/30 28/28/28 29/29/29
f 26/26/26 31/31/31 29/29/29
f 32/32/32 30/30/30 29/29/29
f 31/31/31 33/33/33 29/29/29
f 31/31/31 34/34/34 33/33/33
f 33/33/33 35/35/35 29/29/29
f 35/35/35 36/36/36 29/29/29
f 36/36/36 32/32/32 29/29/29
f 37/37/37 32/32/32 36/36/36
f 38/38/38 32/32/32 37/37/37
f 39/39/39 38/38/38 37/37/37
f 40/40/40 39/39/39 37/37/37
f 39/39/39 40/40/40 41/41/41
f 42/42/42 40/40/40 37/37/37
f 42/42/42 43/43/43 40/40/40
f 40/40/40 44/44/44 41/41/41
f 43/43/43 44/44/44 40/40/40
f 41/41/41 44/44/44 45/45/45
f 44/44/44 43/43/43 45/45/45
f 43/43/43 46/46/46 45/45/45
f 46/46/46 43/43/43 47/47/47
f 43/43/43 42/42/42 48/48/48
f 48/48/48 42/42/42 49/49/49
f 43/43/43 50/50/50 47/47/47
f 50/50/50 43/43/43 48/48/48
f 50/50/50 51/51/51 47/47/47
f 50/50/50 48/48/48 51/51/51
f 48/48/48 52/52/52 51/51/51
f 52/52/52 48/48/48 49/49/49
f 53/53/53 52/52/52 49/49/49
f 54/54/54 53/53/53 49/49/49
f 54/54/54 49/49/49 55/55/55
f 54/54/54 55/55/55 56/56/56
f 55/55/55 57/57/57 56/56/56
f 58/58/58 54/54/54 56/56/56
f 57/57/57 59/59/59 56/56/56
f 59/59/59 60/60/60 56/56/56
f 61/61/61 60/60/60 59/59/59
f 60/60/60 62/62/62 56/56/56
f 63/63/63 58/58/58 56/56/56
f 62/62/62 63/63/63 56/56/56
f 64/64/64 58/58/58 63/63/63
f 64/64/64 63/63/63 62/62/62
f 64/64/64 62/62/62 65/65/65
f 65/65/65 66/66/66 64/64/64
f 62/62/62 67/67/67 65/65/65
f 68/68/68 66/66/66 65/65/65
f 69/69/69 68/68/68 65/65/65
f 67/67/67 70/70/70 65/65/65
f 69/69/69 65/65/65 70/70/70
f 71/71/71 69/69/69 70/70/70
f 72/72/72 71/71/71 70/70/70
f 75/75/75 74/74/74 73/73/73
f 73/73/73 76/76/76 75/75/75
f 77/77/77 76/76/76 73/73/73
f 78/78/78 76/76/76 77/77/77
f 78/78/78 77/77/77 79/79/79
f 80/80/80 78/78/78 79/79/79
f 81/81/81 80/80/80 79/79/79
f 81/81/81 79/79/79 82/82/82
f 83/83/83 81/81/81 82/82/82
f 82/82/82 84/84/84 83/83/83
f 85/85/85 80/80/80 81/81/81
f 80/80/80 85/85/85 78/78/78
f 86/86/86 85/85/85 81/81/81
f 85/85/85 87/87/87 78/78/78
f 78/78/78 87/87/87 88/88/88
f 89/89/89 87/87/87 85/85/85
f 87/87/87 89/89/89 88/88/88
f 85/85/85 86/86/86 89/89/89
f 88/88/88 89/89/89 90/90/90
f 91/91/91 89/89/89 86/86/86
f 89/89/89 91/91/91 90/90/90
f 92/92/92 91/91/91 86/86/86
f 91/91/91 93/93/93 90/90/90
f 92/92/92 93/93/93 91/91/91
f 96/96/96 95/95/95 94/94/94
f 97/97/97 94/94/94 95/95/95
f 97/97/97 98/98/98 94/94/94
f 97/97/97 99/99/99 98/98/98
f 98/98/98 99/99/99 100/100/100
f 99/99/99 101/101/101 100/100/100
f 101/101/101 102/102/102 100/100/100
f 100/100/100 102/102/102 103/103/103
f 102/102/102 104/104/104 103/103/103
f 105/105/105 103/103/103 104/104/104
f 101/101/101 106/106/106 102/102/102
f 106/106/106 101/101/101 99/99/99
f 106/106/106 107/107/107 102/102/102
f 108/108/108 106/106/106 99/99/99
f 108/108/108 99/99/99 109/109/109
f 108/108/108 110/110/110 106/106/106
f 110/110/110 108/108/108 109/109/109
f 107/107/107 106/106/106 110/110/110
f 110/110/110 109/109/109 111/111/111
f 110/110/110 112/112/112 107/107/107
f 112/112/112 110/110/110 111/111/111
f 112/112/112 113/113/113 107/107/107
f 114/114/114 112/112/112 111/111/111
f 114/114/114 113/113/113 112/112/112
