g facial_eye_geo
v -0.137328 1.655233 0.1235925
v -0.1272092 1.6263 0.1506737
v -0.1434871 1.631685 0.1232028
v -0.1278863 1.652507 0.1545742
v -0.1392854 1.696116 0.1203957
v -0.09537088 1.625813 0.1768951
v -0.1219744 1.690452 0.1500139
v -0.1288607 1.72 0.1193174
v -0.09906674 1.650488 0.1782806
v -0.07064223 1.629411 0.1907375
v -0.06305994 1.659534 0.1902835
v -0.0522868 1.631256 0.1956758
v -0.1155139 1.717347 0.1507705
v -0.1125381 1.750869 0.154258
v -0.1236374 1.753444 0.1142909
v -0.110138 1.777168 0.1470267
v -0.1208872 1.793622 0.0959259
v -0.1095291 1.802335 0.130446
v -0.09823544 1.805078 0.1537164
v -0.1003697 1.778172 0.1672878
v -0.0742597 1.803553 0.1740664
v -0.1024712 1.761142 0.1780909
v -0.1081062 1.734926 0.1804307
v -0.09508073 1.715379 0.168168
v -0.1049647 1.727059 0.1766279
v -0.09079958 1.677849 0.1697912
v -0.06340454 1.679001 0.1792227
v -0.07571891 1.718013 0.1777022
v -0.09023307 1.726115 0.1866868
v -0.09512465 1.73525 0.1916248
v -0.07696051 1.754954 0.1963251
v -0.05635709 1.717188 0.1837932
v -0.03054895 1.689146 0.1854346
v -0.07230499 1.719923 0.1949393
v -0.07708572 1.733556 0.1999409
v -0.05366204 1.713554 0.1997743
v -0.07644127 1.774159 0.1859528
v -0.05544525 1.7279 0.2057185
v -0.03246536 1.70416 0.1883568
v -0.0383676 1.767329 0.1988838
v -0.03693275 1.801474 0.1860559
v -0.03834377 1.746178 0.2078723
v 8.4403E-17 1.741862 0.2079044
v 8.541634E-17 1.761967 0.201076
v -1.030993E-16 1.797613 0.1887417
v 0.03693275 1.801474 0.1860559
v 0.0383676 1.767329 0.1988838
v 0.0742597 1.803553 0.1740664
v -0.03667148 1.725056 0.2097562
v -0.01833574 1.724746 0.2110953
v -0.03549043 1.707764 0.2028693
v -0.01965467 1.702253 0.1996461
v -0.01774522 1.710916 0.2071103
v 5.9357E-17 1.715512 0.2113513
v -7.950317E-17 1.726609 0.2124345
v 0.07644127 1.774159 0.1859528
v 0.03834377 1.746178 0.2078723
v 0.01833574 1.724746 0.2110953
v 0.1003697 1.778172 0.1672878
v 0.09823544 1.805078 0.1537164
v 0.01774522 1.710916 0.2071103
v 0.07696051 1.754954 0.1963251
v 0.110138 1.777168 0.1470267
v 0.1095291 1.802335 0.130446
v 0.1208872 1.793622 0.0959259
v 0.1236374 1.753444 0.1142909
v 0.1024712 1.761142 0.1780909
v 0.1125381 1.750869 0.154258
v 0.1288607 1.72 0.1193174
v 0.01965467 1.702253 0.1996461
v 0.03549043 1.707764 0.2028693
v -7.318038E-17 1.698565 0.2071873
v 0.03667148 1.725056 0.2097562
v 0.05544525 1.7279 0.2057185
v 0.05366204 1.713554 0.1997743
v 0.07708572 1.733556 0.1999409
v 0.03246536 1.70416 0.1883568
v -0.02595324 1.68047 0.211127
v 0.09512465 1.73525 0.1916248
v 0.1081062 1.734926 0.1804307
v 0.09023307 1.726115 0.1866868
v 0.07230499 1.719923 0.1949393
v 0.05635709 1.717188 0.1837932
v 0.1155139 1.717347 0.1507705
v 0.1049647 1.727059 0.1766279
v 0.1219744 1.690452 0.1500139
v 0.1392854 1.696116 0.1203957
v 0.07571891 1.718013 0.1777022
v 0.09508073 1.715379 0.168168
v 0.03054895 1.689146 0.1854346
v 0.06340454 1.679001 0.1792227
v 0.1278863 1.652507 0.1545742
v 0.137328 1.655233 0.1235925
v 0.09079958 1.677849 0.1697912
v 0.09906674 1.650488 0.1782806
v 0.1272092 1.6263 0.1506737
v 0.1434871 1.631685 0.1232028
v 0.09537088 1.625813 0.1768951
v 0.07064223 1.629411 0.1907375
v 0.06305994 1.659534 0.1902835
v 0.0522868 1.631256 0.1956758
v 0.04577334 1.670932 0.1992841
v 0.02595324 1.68047 0.211127
v 0.02897041 1.660965 0.2199777
v 0.04477715 1.646111 0.2083714
v 0.04872746 1.636723 0.2139088
v 0.03251191 1.642191 0.2310525
v 4.297003E-17 1.640854 0.2437964
v -6.516684E-17 1.682324 0.2183108
v -0.02897041 1.660965 0.2199777
v -5.803662E-17 1.660638 0.2302019
v -0.03251191 1.642191 0.2310525
v -0.04872746 1.636723 0.2139088
v -0.04577334 1.670932 0.1992841
v -0.04477715 1.646111 0.2083714
vt 0.1741943 0.4130859
vt 0.1877441 0.3974609
vt 0.1732178 0.4006348
vt 0.1877441 0.4106445
vt 0.1706543 0.4328613
vt 0.203125 0.3981934
vt 0.1872559 0.4296875
vt 0.1726074 0.4458008
vt 0.2028809 0.4099121
vt 0.2163086 0.4001465
vt 0.2191162 0.4145508
vt 0.2247314 0.4008789
vt 0.1899414 0.4433594
vt 0.1921387 0.4599609
vt 0.1727295 0.4643555
vt 0.1923828 0.473877
vt 0.1719971 0.4855957
vt 0.1900635 0.4899902
vt 0.2020264 0.4912109
vt 0.2022705 0.4743652
vt 0.2137451 0.4865723
vt 0.2041016 0.4650879
vt 0.2032471 0.4575195
vt 0.2037354 0.4418945
vt 0.2023926 0.4511719
vt 0.2043457 0.423584
vt 0.2174072 0.4243164
vt 0.2128906 0.4421387
vt 0.2099609 0.4494629
vt 0.2095947 0.4555664
vt 0.217041 0.4624023
vt 0.2213135 0.4418945
vt 0.2312012 0.4294434
vt 0.2180176 0.4477539
vt 0.2171631 0.4538574
vt 0.2254639 0.4448242
vt 0.215332 0.4719238
vt 0.2261963 0.4504395
vt 0.2313232 0.4353027
vt 0.2329102 0.4675293
vt 0.2314453 0.4855957
vt 0.2336426 0.456543
vt 0.25 0.4541016
vt 0.25 0.4648438
vt 0.25 0.4848633
vt 0.2685547 0.4855957
vt 0.2670898 0.4675293
vt 0.2861328 0.4865723
vt 0.2342529 0.4482422
vt 0.2420654 0.4472656
vt 0.2338867 0.4406738
vt 0.239502 0.4333496
vt 0.2419434 0.440918
vt 0.25 0.4411621
vt 0.25 0.4465332
vt 0.284668 0.4719238
vt 0.2663574 0.456543
vt 0.2578125 0.4472656
vt 0.2976074 0.4743652
vt 0.2980957 0.4912109
vt 0.2580566 0.440918
vt 0.282959 0.4624023
vt 0.3076172 0.473877
vt 0.3100586 0.4899902
vt 0.328125 0.4855957
vt 0.3273926 0.4643555
vt 0.2958984 0.4650879
vt 0.3078613 0.4599609
vt 0.3273926 0.4458008
vt 0.260498 0.4333496
vt 0.2661133 0.4406738
vt 0.25 0.4328613
vt 0.2658691 0.4482422
vt 0.2739258 0.4504395
vt 0.2744141 0.4448242
vt 0.2827148 0.4538574
vt 0.2685547 0.4353027
vt 0.2373047 0.4230957
vt 0.2905273 0.4555664
vt 0.2966309 0.4575195
vt 0.2900391 0.4494629
vt 0.2819824 0.4477539
vt 0.2785645 0.4418945
vt 0.3100586 0.4433594
vt 0.2976074 0.4511719
vt 0.3127441 0.4296875
vt 0.3293457 0.4328613
vt 0.2871094 0.4421387
vt 0.2961426 0.4418945
vt 0.2687988 0.4294434
vt 0.2824707 0.4243164
vt 0.3122559 0.4106445
vt 0.3256836 0.4130859
vt 0.2956543 0.423584
vt 0.2971191 0.4099121
vt 0.3122559 0.3974609
vt 0.3266602 0.4006348
vt 0.296875 0.3981934
vt 0.2836914 0.4001465
vt 0.2807617 0.4145508
vt 0.2751465 0.4008789
vt 0.2724609 0.4194336
vt 0.2626953 0.4230957
vt 0.2624512 0.4145508
vt 0.2697754 0.4084473
vt 0.2683105 0.4042969
vt 0.2612305 0.4064941
vt 0.25 0.40625
vt 0.25 0.4243164
vt 0.2375488 0.4145508
vt 0.25 0.4140625
vt 0.2387695 0.4064941
vt 0.2316895 0.4042969
vt 0.2276611 0.4194336
vt 0.2302246 0.4084473
vn -0.9410757 0.06229057 0.33241
vn -0.7390094 -0.1216111 0.662628
vn -0.9346839 0.1029531 0.3402449
vn -0.8011889 0.0424245 0.5969056
vn -0.9527155 0.1453222 0.2668611
vn -0.5462061 -0.1564914 0.822903
vn -0.7968675 0.1376744 0.5882584
vn -0.9068564 0.2290967 0.3537315
vn -0.5166698 0.0585653 0.8541794
vn -0.4068571 -0.09309231 0.908736
vn -0.4137619 0.2145672 0.8847384
vn -0.6706895 -0.009655557 0.7416754
vn -0.8790863 0.06362674 0.4723971
vn -0.946602 0.1410212 0.289927
vn -0.9474705 0.1966506 0.2522464
vn -0.9195481 0.2210056 0.3249428
vn -0.9536455 0.1849807 0.2373658
vn -0.9096158 0.2466026 0.3343445
vn -0.6800827 0.3982984 0.6155046
vn -0.6615822 0.3816648 0.6454773
vn -0.4302779 0.4297212 0.7938518
vn -0.6710936 0.3664671 0.6444651
vn -0.876358 -0.02398407 0.4810626
vn -0.4558629 -0.1750054 0.8726752
vn -0.503044 -0.6629965 0.5544208
vn -0.4054181 0.1414776 0.9031169
vn -0.3242298 0.1454424 0.9347308
vn -0.3536974 -0.2160916 0.9100564
vn -0.4154112 -0.708213 0.5708483
vn -0.5500101 -0.09155213 0.8301247
vn -0.3103915 0.3723597 0.8746459
vn -0.3501869 -0.462624 0.8144619
vn -0.5028567 0.2607326 0.8241077
vn -0.3985329 -0.72608 0.5603386
vn -0.3714584 -0.175106 0.9117876
vn -0.3817523 -0.6777436 0.6284337
vn -0.3497712 0.4054981 0.8445303
vn -0.2844947 -0.1467518 0.9473789
vn -0.4741002 -0.5949708 0.6490291
vn -0.1149831 0.3716125 0.92124
vn -0.1715333 0.389785 0.9047896
vn -0.09940828 0.3156703 0.9436474
vn -1.277965E-07 0.3165968 0.9485603
vn -1.028684E-07 0.3473431 0.9377381
vn -0 0.3116264 0.9502047
vn 0.1715334 0.3897849 0.9047896
vn 0.1149831 0.3716126 0.9212399
vn 0.4302777 0.4297211 0.7938519
vn -0.1756637 -0.2035763 0.9631712
vn -0.06755633 -0.06135149 0.9958274
vn -0.2442587 -0.6029525 0.7594643
vn -0.5575559 0.057865 0.8281202
vn -0.09608041 -0.3900967 0.9157473
vn -0 -0.2401993 0.9707236
vn -0 0.0005392183 0.9999999
vn 0.3497709 0.4054979 0.8445305
vn 0.09940788 0.3156703 0.9436474
vn 0.06755643 -0.06135209 0.9958273
vn 0.6615821 0.3816643 0.6454777
vn 0.6800828 0.3982982 0.6155046
vn 0.0960808 -0.3900971 0.9157471
vn 0.3103914 0.3723596 0.8746459
vn 0.919548 0.2210055 0.3249431
vn 0.9096159 0.2466027 0.3343441
vn 0.9536453 0.1849806 0.2373665
vn 0.9474704 0.1966506 0.2522467
vn 0.6710932 0.3664665 0.6444658
vn 0.946602 0.141021 0.2899272
vn 0.9068564 0.2290968 0.3537315
vn 0.5575569 0.05786481 0.8281195
vn 0.2442594 -0.6029534 0.7594633
vn 1.365504E-07 0.2996845 0.9540384
vn 0.1756641 -0.2035774 0.9631709
vn 0.284494 -0.146752 0.947379
vn 0.3817525 -0.6777433 0.6284338
vn 0.3714581 -0.1751059 0.9117877
vn 0.474101 -0.5949719 0.6490276
vn -0.4403495 0.5172595 0.7338495
vn 0.5500118 -0.09155349 0.8301234
vn 0.8763588 -0.02398518 0.4810614
vn 0.4154122 -0.7082142 0.5708462
vn 0.3985326 -0.7260796 0.5603393
vn 0.3501873 -0.4626241 0.8144617
vn 0.8790864 0.06362672 0.4723969
vn 0.503045 -0.6629984 0.5544174
vn 0.7968675 0.1376743 0.5882585
vn 0.9527155 0.1453222 0.2668611
vn 0.3536984 -0.2160916 0.9100559
vn 0.4558642 -0.1750057 0.8726746
vn 0.5028571 0.2607328 0.8241075
vn 0.3242307 0.1454426 0.9347304
vn 0.8011886 0.04242459 0.5969062
vn 0.9410757 0.06229053 0.3324101
vn 0.4054188 0.1414774 0.9031166
vn 0.516669 0.05856546 0.8541799
vn 0.739009 -0.121611 0.6626284
vn 0.9346839 0.1029529 0.3402452
vn 0.5462059 -0.1564914 0.8229032
vn 0.4068569 -0.09309244 0.9087361
vn 0.4137618 0.2145675 0.8847384
vn 0.670689 -0.009655705 0.7416759
vn 0.6699943 0.4936117 0.5544864
vn 0.4403495 0.5172594 0.7338493
vn 0.4261779 0.4724416 0.7714735
vn 0.8122919 0.3293383 0.4813711
vn 0.8720228 0.2120929 0.4411269
vn 0.4925513 0.2947349 0.8188556
vn 1.495423E-07 0.3064738 0.9518791
vn -0 0.4934932 0.8697497
vn -0.426178 0.4724417 0.7714733
vn -0 0.5209895 0.8535631
vn -0.492551 0.2947347 0.8188559
vn -0.8720222 0.212093 0.4411279
vn -0.6699945 0.4936116 0.5544863
vn -0.8122918 0.3293384 0.4813712
g facial_eye_geo_0
f 3/3/3 2/2/2 1/1/1
f 2/2/2 4/4/4 1/1/1
f 1/1/1 4/4/4 5/5/5
f 4/4/4 2/2/2 6/6/6
f 4/4/4 7/7/7 5/5/5
f 8/8/8 5/5/5 7/7/7
f 9/9/9 4/4/4 6/6/6
f 4/4/4 9/9/9 7/7/7
f 9/9/9 6/6/6 10/10/10
f 11/11/11 9/9/9 10/10/10
f 11/11/11 10/10/10 12/12/12
f 13/13/13 8/8/8 7/7/7
f 14/14/14 8/8/8 13/13/13
f 14/14/14 15/15/15 8/8/8
f 16/16/16 15/15/15 14/14/14
f 17/17/17 15/15/15 16/16/16
f 18/18/18 17/17/17 16/16/16
f 18/18/18 16/16/16 19/19/19
f 16/16/16 20/20/20 19/19/19
f 19/19/19 20/20/20 21/21/21
f 16/16/16 14/14/14 22/22/22
f 20/20/20 16/16/16 22/22/22
f 23/23/23 14/14/14 13/13/13
f 14/14/14 23/23/23 22/22/22
f 24/24/24 13/13/13 7/7/7
f 13/13/13 25/25/25 23/23/23
f 24/24/24 25/25/25 13/13/13
f 7/7/7 26/26/26 24/24/24
f 9/9/9 26/26/26 7/7/7
f 26/26/26 9/9/9 27/27/27
f 24/24/24 26/26/26 27/27/27
f 27/27/27 9/9/9 11/11/11
f 25/25/25 24/24/24 28/28/28
f 28/28/28 24/24/24 27/27/27
f 25/25/25 29/29/29 23/23/23
f 28/28/28 29/29/29 25/25/25
f 23/23/23 30/30/30 22/22/22
f 29/29/29 30/30/30 23/23/23
f 22/22/22 31/31/31 20/20/20
f 22/22/22 30/30/30 31/31/31
f 32/32/32 28/28/28 27/27/27
f 29/29/29 28/28/28 32/32/32
f 27/27/27 11/11/11 33/33/33
f 27/27/27 33/33/33 32/32/32
f 29/29/29 34/34/34 30/30/30
f 32/32/32 34/34/34 29/29/29
f 34/34/34 35/35/35 30/30/30
f 31/31/31 30/30/30 35/35/35
f 36/36/36 34/34/34 32/32/32
f 34/34/34 36/36/36 35/35/35
f 31/31/31 37/37/37 20/20/20
f 20/20/20 37/37/37 21/21/21
f 35/35/35 38/38/38 31/31/31
f 36/36/36 38/38/38 35/35/35
f 36/36/36 32/32/32 39/39/39
f 33/33/33 39/39/39 32/32/32
f 37/37/37 40/40/40 21/21/21
f 40/40/40 41/41/41 21/21/21
f 31/31/31 42/42/42 37/37/37
f 38/38/38 42/42/42 31/31/31
f 42/42/42 40/40/40 37/37/37
f 40/40/40 42/42/42 43/43/43
f 41/41/41 40/40/40 44/44/44
f 44/44/44 40/40/40 43/43/43
f 45/45/45 41/41/41 44/44/44
f 46/46/46 45/45/45 44/44/44
f 47/47/47 46/46/46 44/44/44
f 47/47/47 44/44/44 43/43/43
f 46/46/46 47/47/47 48/48/48
f 38/38/38 49/49/49 42/42/42
f 42/42/42 49/49/49 50/50/50
f 43/43/43 42/42/42 50/50/50
f 51/51/51 49/49/49 38/38/38
f 50/50/50 49/49/49 51/51/51
f 36/36/36 51/51/51 38/38/38
f 39/39/39 51/51/51 36/36/36
f 39/39/39 52/52/52 51/51/51
f 39/39/39 33/33/33 52/52/52
f 53/53/53 50/50/50 51/51/51
f 53/53/53 51/51/51 52/52/52
f 53/53/53 54/54/54 50/50/50
f 53/53/53 52/52/52 54/54/54
f 43/43/43 50/50/50 55/55/55
f 54/54/54 55/55/55 50/50/50
f 47/47/47 56/56/56 48/48/48
f 57/57/57 47/47/47 43/43/43
f 47/47/47 57/57/57 56/56/56
f 58/58/58 43/43/43 55/55/55
f 58/58/58 57/57/57 43/43/43
f 56/56/56 59/59/59 48/48/48
f 59/59/59 60/60/60 48/48/48
f 55/55/55 54/54/54 61/61/61
f 58/58/58 55/55/55 61/61/61
f 57/57/57 62/62/62 56/56/56
f 56/56/56 62/62/62 59/59/59
f 59/59/59 63/63/63 60/60/60
f 63/63/63 64/64/64 60/60/60
f 65/65/65 64/64/64 63/63/63
f 66/66/66 65/65/65 63/63/63
f 63/63/63 59/59/59 67/67/67
f 62/62/62 67/67/67 59/59/59
f 66/66/66 63/63/63 68/68/68
f 68/68/68 63/63/63 67/67/67
f 66/66/66 68/68/68 69/69/69
f 70/70/70 61/61/61 54/54/54
f 58/58/58 61/61/61 71/71/71
f 70/70/70 71/71/71 61/61/61
f 54/54/54 72/72/72 70/70/70
f 72/72/72 54/54/54 52/52/52
f 73/73/73 58/58/58 71/71/71
f 58/58/58 73/73/73 57/57/57
f 57/57/57 73/73/73 74/74/74
f 57/57/57 74/74/74 62/62/62
f 73/73/73 71/71/71 75/75/75
f 74/74/74 73/73/73 75/75/75
f 74/74/74 76/76/76 62/62/62
f 74/74/74 75/75/75 76/76/76
f 70/70/70 77/77/77 71/71/71
f 75/75/75 71/71/71 77/77/77
f 52/52/52 78/78/78 72/72/72
f 78/78/78 52/52/52 33/33/33
f 79/79/79 62/62/62 76/76/76
f 79/79/79 67/67/67 62/62/62
f 79/79/79 80/80/80 67/67/67
f 80/80/80 68/68/68 67/67/67
f 79/79/79 76/76/76 81/81/81
f 79/79/79 81/81/81 80/80/80
f 75/75/75 82/82/82 76/76/76
f 76/76/76 82/82/82 81/81/81
f 83/83/83 82/82/82 75/75/75
f 77/77/77 83/83/83 75/75/75
f 81/81/81 82/82/82 83/83/83
f 84/84/84 68/68/68 80/80/80
f 69/69/69 68/68/68 84/84/84
f 81/81/81 85/85/85 80/80/80
f 80/80/80 85/85/85 84/84/84
f 69/69/69 84/84/84 86/86/86
f 87/87/87 69/69/69 86/86/86
f 85/85/85 81/81/81 88/88/88
f 83/83/83 88/88/88 81/81/81
f 85/85/85 89/89/89 84/84/84
f 88/88/88 89/89/89 85/85/85
f 86/86/86 84/84/84 89/89/89
f 77/77/77 90/90/90 83/83/83
f 90/90/90 77/77/77 70/70/70
f 88/88/88 83/83/83 91/91/91
f 89/89/89 88/88/88 91/91/91
f 90/90/90 91/91/91 83/83/83
f 86/86/86 92/92/92 87/87/87
f 92/92/92 93/93/93 87/87/87
f 89/89/89 94/94/94 86/86/86
f 94/94/94 89/89/89 91/91/91
f 94/94/94 95/95/95 86/86/86
f 95/95/95 94/94/94 91/91/91
f 95/95/95 92/92/92 86/86/86
f 92/92/92 96/96/96 93/93/93
f 96/96/96 97/97/97 93/93/93
f 96/96/96 92/92/92 98/98/98
f 92/92/92 95/95/95 98/98/98
f 98/98/98 95/95/95 99/99/99
f 95/95/95 91/91/91 100/100/100
f 95/95/95 100/100/100 99/99/99
f 100/100/100 91/91/91 90/90/90
f 99/99/99 100/100/100 101/101/101
f 102/102/102 100/100/100 90/90/90
f 100/100/100 102/102/102 101/101/101
f 103/103/103 102/102/102 90/90/90
f 103/103/103 104/104/104 102/102/102
f 70/70/70 103/103/103 90/90/90
f 103/103/103 70/70/70 72/72/72
f 105/105/105 101/101/101 102/102/102
f 104/104/104 105/105/105 102/102/102
f 105/105/105 106/106/106 101/101/101
f 105/105/105 104/104/104 106/106/106
f 104/104/104 107/107/107 106/106/106
f 107/107/107 104/104/104 108/108/108
f 109/109/109 103/103/103 72/72/72
f 103/103/103 109/109/109 104/104/104
f 78/78/78 109/109/109 72/72/72
f 109/109/109 78/78/78 110/110/110
f 109/109/109 111/111/111 104/104/104
f 104/104/104 111/111/111 108/108/108
f 111/111/111 109/109/109 110/110/110
f 111/111/111 110/110/110 108/108/108
f 110/110/110 112/112/112 108/108/108
f 112/112/112 110/110/110 113/113/113
f 110/110/110 78/78/78 114/114/114
f 114/114/114 78/78/78 33/33/33
f 11/11/11 114/114/114 33/33/33
f 114/114/114 11/11/11 12/12/12
f 110/110/110 115/115/115 113/113/113
f 113/113/113 115/115/115 12/12/12
f 12/12/12 115/115/115 114/114/114
f 115/115/115 110/110/110 114/114/114
