g weapon_geo
v -0.29 1.579002 0.1565016
v -0.29 1.482935 0.172163
v -0.37 1.482935 0.172163
v -0.37 1.579002 0.1565016
v -0.29 1.662657 0.1124938
v -0.37 1.662656 0.1124938
v -0.29 1.549665 0.07080607
v -0.29 1.482931 0.08084977
v -0.29 1.482935 0.172163
v -0.29 1.579002 0.1565016
v -0.29 1.617725 0.03843905
v -0.29 1.662657 0.1124938
v -0.37 1.482931 0.0808498
v -0.37 1.579002 0.1565016
v -0.37 1.482935 0.172163
v -0.37 1.549665 0.07080607
v -0.37 1.662656 0.1124938
v -0.37 1.617725 0.03843905
v -0.37 1.348144 0.03843905
v -0.37 1.303217 0.1125462
v -0.29 1.303217 0.1125462
v -0.29 1.348144 0.03843905
v -0.37 1.662656 0.1124938
v -0.37 1.617725 0.03843905
v -0.29 1.617725 0.03843905
v -0.29 1.662657 0.1124938
v -0.33 1.532931 1.275667
v -0.33 1.552218 0.1539321
v -0.31 1.482931 0.1539321
v -0.31 1.482931 1.275667
v -0.33 1.482931 1.366007
v -0.33 1.413644 0.1539321
v -0.33 1.432931 1.275667
v -0.35 1.482931 0.1539321
v -0.33 1.432931 1.275667
v -0.33 1.413644 0.1539321
v -0.35 1.482931 1.275667
v -0.33 1.482931 1.366007
v -0.33 1.532931 1.275667
v -0.33 1.552218 0.1539321
v -0.330016 1.518082 -0.345128
v -0.3477934 1.513941 -0.345128
v -0.3602808 1.500627 -0.345128
v -0.3655841 1.483161 -0.345128
v -0.3602974 1.465689 -0.345128
v -0.3478232 1.452363 -0.345128
v -0.3300497 1.448206 -0.345128
v -0.3122718 1.452345 -0.345128
v -0.2997851 1.465659 -0.345128
v -0.2944818 1.483126 -0.345128
v -0.2997679 1.500598 -0.345128
v -0.3122425 1.513924 -0.345128
v -0.3009774 1.432558 -0.2720129
v -0.3300539 1.425786 -0.2720311
v -0.3300394 1.455414 -0.2638816
v -0.3062293 1.469147 -0.2638424
v -0.280554 1.454335 -0.271949
v -0.271879 1.482902 -0.2718644
v -0.3062163 1.49663 -0.2637603
v -0.280526 1.511479 -0.2717778
v -0.3009295 1.533276 -0.2717102
v -0.3300132 1.510384 -0.2637154
v -0.3299997 1.540076 -0.2716876
v -0.3590762 1.533303 -0.2717051
v -0.3538236 1.496652 -0.2637567
v -0.3795006 1.511527 -0.2717695
v -0.3881747 1.482959 -0.2718552
v -0.3538365 1.469168 -0.2638389
v -0.3795277 1.454382 -0.2719417
v -0.3591252 1.432586 -0.2720083
v -0.3300394 1.455414 -0.2638816
v -0.3300539 1.425786 -0.2720311
v -0.2982013 1.463505 0.08524215
v -0.3300193 1.44525 0.05079635
v -0.3300135 1.445036 0.08524217
v -0.298207 1.463505 0.05079636
v -0.298184 1.500228 0.08524215
v -0.2981896 1.500228 0.05079635
v -0.3299788 1.518484 0.08524215
v -0.3299845 1.518697 0.05079636
v -0.3617967 1.500228 0.05079636
v -0.3617911 1.500228 0.08524217
v -0.3618097 1.463505 0.08524215
v -0.3618152 1.463505 0.05079636
v -0.3300135 1.445036 0.08524217
v -0.3300193 1.44525 0.05079635
v -0.29 1.482935 0.172163
v -0.37 1.386864 0.156523
v -0.37 1.482935 0.172163
v -0.29 1.386864 0.156523
v -0.37 1.303217 0.1125462
v -0.29 1.303217 0.1125462
v -0.29 1.482931 0.08084977
v -0.29 1.386864 0.156523
v -0.29 1.482935 0.172163
v -0.29 1.416201 0.07082625
v -0.29 1.303217 0.1125462
v -0.29 1.348144 0.03843905
v -0.37 1.482931 0.0808498
v -0.29 1.416201 0.07082625
v -0.29 1.482931 0.08084977
v -0.37 1.4162 0.07082625
v -0.29 1.348144 0.03843905
v -0.37 1.348144 0.03843905
v -0.37 1.4162 0.07082625
v -0.37 1.482931 0.0808498
v -0.37 1.482935 0.172163
v -0.37 1.386864 0.156523
v -0.37 1.303217 0.1125462
v -0.37 1.348144 0.03843905
v -0.3009774 1.432558 -0.2720129
v -0.3300485 1.444111 -0.2882262
v -0.3300539 1.425786 -0.2720311
v -0.3102418 1.448724 -0.2882139
v -0.3300497 1.448206 -0.345128
v -0.3122718 1.452345 -0.345128
v -0.2997851 1.465659 -0.345128
v -0.2963298 1.463558 -0.2881707
v -0.280554 1.454335 -0.271949
v -0.271879 1.482902 -0.2718644
v -0.2904209 1.483018 -0.2881127
v -0.2944818 1.483126 -0.345128
v -0.2997679 1.500598 -0.345128
v -0.2963106 1.502484 -0.2880538
v -0.280526 1.511479 -0.2717778
v -0.3009295 1.533276 -0.2717102
v -0.3102091 1.517331 -0.2880077
v -0.3122425 1.513924 -0.345128
v -0.330016 1.518082 -0.345128
v -0.3300112 1.521963 -0.2879923
v -0.3299997 1.540076 -0.2716876
v -0.3590762 1.533303 -0.2717051
v -0.3498176 1.51735 -0.2880048
v -0.3477934 1.513941 -0.345128
v -0.3602808 1.500627 -0.345128
v -0.3637303 1.502517 -0.2880487
v -0.3795006 1.511527 -0.2717695
v -0.3881747 1.482959 -0.2718552
v -0.369639 1.483057 -0.288107
v -0.3655841 1.483161 -0.345128
v -0.3637488 1.463591 -0.2881656
v -0.3795277 1.454382 -0.2719417
v -0.3602974 1.465689 -0.345128
v -0.3591252 1.432586 -0.2720083
v -0.3498509 1.448744 -0.2882108
v -0.3478232 1.452363 -0.345128
v -0.3300497 1.448206 -0.345128
v -0.3300485 1.444111 -0.2882262
v -0.3300539 1.425786 -0.2720311
v -0.37 1.617725 0.03843905
v -0.29 1.549665 0.07080607
v -0.29 1.617725 0.03843905
v -0.37 1.549665 0.07080607
v -0.29 1.482931 0.08084977
v -0.37 1.482931 0.0808498
v -0.3300394 1.455414 -0.2638816
v -0.3538128 1.468242 0.04621746
v -0.330015 1.454488 0.04621746
v -0.3538365 1.469168 -0.2638389
v -0.353799 1.495727 0.04621746
v -0.3538236 1.496652 -0.2637567
v -0.3299888 1.509459 0.04621747
v -0.3300132 1.510384 -0.2637154
v -0.3061918 1.495705 0.04621746
v -0.3062163 1.49663 -0.2637603
v -0.3062048 1.46822 0.04621746
v -0.3062293 1.469147 -0.2638424
v -0.3300394 1.455414 -0.2638816
v -0.330015 1.454488 0.04621746
v -0.330015 1.454488 0.04621746
v -0.3300193 1.44525 0.05079635
v -0.298207 1.463505 0.05079636
v -0.3062048 1.46822 0.04621746
v -0.2981896 1.500228 0.05079635
v -0.3061918 1.495705 0.04621746
v -0.3299845 1.518697 0.05079636
v -0.3299888 1.509459 0.04621747
v -0.3617967 1.500228 0.05079636
v -0.353799 1.495727 0.04621746
v -0.3618152 1.463505 0.05079636
v -0.3538128 1.468242 0.04621746
v -0.3300193 1.44525 0.05079635
v -0.330015 1.454488 0.04621746
vt 0.828125 0.06280518
vt 0.8793945 0.06280518
vt 0.8793945 0.1048584
vt 0.828125 0.1048584
vt 0.7788086 0.06280518
vt 0.7788086 0.1048584
vt 0.7670898 0.1209717
vt 0.7670898 0.06280518
vt 0.703125 0.06280518
vt 0.703125 0.1323242
vt 0.7670898 0.1745605
vt 0.703125 0.1998291
vt 0.7670898 0.06280518
vt 0.703125 0.1323242
vt 0.703125 0.06280518
vt 0.7670898 0.1209717
vt 0.703125 0.1998291
vt 0.7670898 0.1745605
vt 0.9545898 0.1048584
vt 0.9931641 0.1048584
vt 0.9931641 0.06280518
vt 0.9545898 0.06280518
vt 0.9931641 0.1048584
vt 0.9545898 0.1048584
vt 0.9545898 0.06280518
vt 0.9931641 0.06280518
vt 0.6025391 0.009742737
vt 0.9931641 0.009742737
vt 0.9931641 0.03262329
vt 0.6025391 0.03262329
vt 0.5668945 0.03262329
vt 0.9931641 0.05514526
vt 0.6025391 0.05514526
vt 0.9931641 0.03262329
vt 0.6025391 0.05514526
vt 0.9931641 0.05514526
vt 0.6025391 0.03262329
vt 0.5668945 0.03262329
vt 0.6025391 0.009742737
vt 0.9931641 0.009742737
vt 0.7866211 0.2156982
vt 0.784668 0.2073975
vt 0.777832 0.2012939
vt 0.7695312 0.1987305
vt 0.7607422 0.201416
vt 0.7539062 0.2073975
vt 0.7519531 0.2156982
vt 0.7543945 0.2241211
vt 0.7607422 0.2302246
vt 0.7695312 0.2327881
vt 0.7783203 0.2302246
vt 0.784668 0.2241211
vt 0.9667969 0.1178589
vt 0.9667969 0.1097412
vt 0.9560547 0.1126099
vt 0.9560547 0.1264648
vt 0.9667969 0.1254883
vt 0.9667969 0.1329346
vt 0.9560547 0.1402588
vt 0.9667969 0.1401367
vt 0.9667969 0.1472168
vt 0.9560547 0.1541748
vt 0.9667969 0.1541748
vt 0.9667969 0.1611328
vt 0.9560547 0.1679688
vt 0.9667969 0.1680908
vt 0.9667969 0.175293
vt 0.9560547 0.1817627
vt 0.9667969 0.1827393
vt 0.9667969 0.1903076
vt 0.9560547 0.1955566
vt 0.9667969 0.1983643
vt 0.777832 0.1264648
vt 0.7949219 0.1126099
vt 0.777832 0.1126099
vt 0.7949219 0.1264648
vt 0.777832 0.1402588
vt 0.7949219 0.1402588
vt 0.777832 0.1540527
vt 0.7949219 0.1540527
vt 0.7949219 0.1679688
vt 0.777832 0.1679688
vt 0.777832 0.1817627
vt 0.7949219 0.1817627
vt 0.777832 0.1955566
vt 0.7949219 0.1955566
vt 0.8793945 0.06280518
vt 0.828125 0.1048584
vt 0.8793945 0.1048584
vt 0.828125 0.06280518
vt 0.7788086 0.1048584
vt 0.7788086 0.06280518
vt 0.7670898 0.06280518
vt 0.703125 0.1323242
vt 0.703125 0.06280518
vt 0.7670898 0.1209717
vt 0.703125 0.1998291
vt 0.7670898 0.1745605
vt 0.8901367 0.1048584
vt 0.9204102 0.06280518
vt 0.8901367 0.06280518
vt 0.9204102 0.1048584
vt 0.9545898 0.06280518
vt 0.9545898 0.1048584
vt 0.7670898 0.1209717
vt 0.7670898 0.06280518
vt 0.703125 0.06280518
vt 0.703125 0.1323242
vt 0.703125 0.1998291
vt 0.7670898 0.1745605
vt 0.9667969 0.1178589
vt 0.9741211 0.1097412
vt 0.9667969 0.1097412
vt 0.9741211 0.1178589
vt 0.9931641 0.1097412
vt 0.9931641 0.1178589
vt 0.9931641 0.1254883
vt 0.9741211 0.1254883
vt 0.9667969 0.1254883
vt 0.9667969 0.1329346
vt 0.9741211 0.1329346
vt 0.9931641 0.1329346
vt 0.9931641 0.1401367
vt 0.9741211 0.1401367
vt 0.9667969 0.1401367
vt 0.9667969 0.1472168
vt 0.9741211 0.1472168
vt 0.9931641 0.1472168
vt 0.9931641 0.1541748
vt 0.9741211 0.1541748
vt 0.9667969 0.1541748
vt 0.9667969 0.1611328
vt 0.9741211 0.1611328
vt 0.9931641 0.1611328
vt 0.9931641 0.1680908
vt 0.9741211 0.1680908
vt 0.9667969 0.1680908
vt 0.9667969 0.175293
vt 0.9741211 0.175293
vt 0.9931641 0.175293
vt 0.9741211 0.1827393
vt 0.9667969 0.1827393
vt 0.9931641 0.1827393
vt 0.9667969 0.1903076
vt 0.9741211 0.1903076
vt 0.9931641 0.1903076
vt 0.9931641 0.1983643
vt 0.9741211 0.1983643
vt 0.9667969 0.1983643
vt 0.9545898 0.1048584
vt 0.9204102 0.06280518
vt 0.9545898 0.06280518
vt 0.9204102 0.1048584
vt 0.8901367 0.06280518
vt 0.8901367 0.1048584
vt 0.9560547 0.1955566
vt 0.800293 0.1817627
vt 0.800293 0.1955566
vt 0.9560547 0.1817627
vt 0.800293 0.1679688
vt 0.9560547 0.1679688
vt 0.800293 0.1540527
vt 0.9560547 0.1541748
vt 0.800293 0.1402588
vt 0.9560547 0.1402588
vt 0.800293 0.1264648
vt 0.9560547 0.1264648
vt 0.9560547 0.1126099
vt 0.800293 0.1126099
vt 0.800293 0.1126099
vt 0.7949219 0.1126099
vt 0.7949219 0.1264648
vt 0.800293 0.1264648
vt 0.7949219 0.1402588
vt 0.800293 0.1402588
vt 0.7949219 0.1540527
vt 0.800293 0.1540527
vt 0.7949219 0.1679688
vt 0.800293 0.1679688
vt 0.7949219 0.1817627
vt 0.800293 0.1817627
vt 0.7949219 0.1955566
vt 0.800293 0.1955566
vn -4.532489E-07 0.3150969 0.9490595
vn -1.985396E-07 0.0001112822 1
vn -1.985396E-07 0.0001112822 1
vn -4.532489E-07 0.3150969 0.9490595
vn -9.080335E-07 0.4655741 0.885009
vn -9.080334E-07 0.4655741 0.8850089
vn 1 0 0
vn 1 0 0
vn 1 0 0
vn 1 0 0
vn 1 -1.020357E-07 0
vn 1 -1.020357E-07 0
vn -1 0 0
vn -1 1.546707E-07 0
vn -1 0 0
vn -1 1.509648E-07 0
vn -1 3.061077E-07 0
vn -1 3.061078E-07 0
vn -0 -0.855128 -0.5184168
vn -0 -0.855128 -0.5184168
vn -0 -0.855128 -0.5184168
vn -0 -0.855128 -0.5184168
vn -1.651486E-06 0.8549411 -0.518725
vn -1.651486E-06 0.8549411 -0.5187251
vn -1.651486E-06 0.8549411 -0.5187251
vn -1.651486E-06 0.8549411 -0.518725
vn 0.9476638 0.3191821 0.007485647
vn 0.9481118 0.3179253 0.00273321
vn 0.9999958 -5.226932E-07 0.0028828
vn 0.9999534 -3.864314E-07 0.009663814
vn 0.9763599 -6.598655E-07 0.2161511
vn 0.9481118 -0.3179255 0.002733247
vn 0.9476638 -0.3191823 0.007485632
vn -0.9999958 4.791351E-07 0.002882801
vn -0.9476638 -0.319182 0.00748568
vn -0.948112 -0.3179252 0.002733247
vn -0.9999534 6.330617E-07 0.009663845
vn -0.9763597 8.295449E-07 0.2161521
vn -0.9476634 0.3191836 0.007485643
vn -0.9481114 0.3179267 0.002733209
vn 0.000438968 0.9417123 -0.3364193
vn -0.4945406 0.8580602 -0.1384279
vn -1.024261E-07 0 -1
vn -0 0 -1
vn -0 0 -1
vn -0 0 -1
vn 7.677958E-07 0 -1
vn 9.821359E-07 0 -1
vn -4.743649E-07 0 -1
vn -1.672761E-06 0 -1
vn 1.536373E-07 3.098159E-07 -1
vn 0.4953472 0.8575853 -0.1384876
vn 0.1244989 -0.2186391 0.9678311
vn -5.211434E-05 -0.2652108 0.9641904
vn -3.042911E-05 -0.2277593 0.9737175
vn 0.1947227 -0.1154257 0.9740431
vn 0.2271639 -0.1341384 0.9645742
vn 0.2490849 -0.003010442 0.968477
vn 0.1948096 0.1093517 0.9747263
vn 0.2272338 0.1281039 0.9653777
vn 0.1246692 0.2126255 0.9691482
vn 0.0001872418 0.2217995 0.9750923
vn 0.0002080737 0.2593084 0.9657946
vn -0.1242983 0.2127357 0.9691715
vn -0.1945423 0.1095221 0.9747605
vn -0.2269417 0.1283059 0.9654196
vn -0.2489294 -0.002784353 0.9685176
vn -0.1946821 -0.1152451 0.9740726
vn -0.2271518 -0.1339216 0.9646072
vn -0.1245624 -0.2185211 0.9678495
vn -3.042911E-05 -0.2277593 0.9737175
vn -5.211434E-05 -0.2652108 0.9641904
vn 0.8658582 -0.5002866 -0.001694768
vn -5.865635E-05 -0.9999952 -0.003106154
vn 4.900452E-05 -0.9999952 -0.003106171
vn 0.8658321 -0.5003316 -0.001694904
vn 0.8662145 0.4996704 0.001406916
vn 0.8661885 0.4997155 0.001407059
vn 5.304362E-05 0.9999952 0.003097205
vn -5.308657E-05 0.9999952 0.003097222
vn -0.8658504 0.5003001 0.001689465
vn -0.8658243 0.5003453 0.001689601
vn -0.8661878 -0.4997166 -0.001412064
vn -0.8662133 -0.4996725 -0.001411923
vn 4.900452E-05 -0.9999952 -0.003106171
vn -5.865635E-05 -0.9999952 -0.003106154
vn -1.985396E-07 0.0001112822 1
vn -6.547577E-07 -0.3148514 0.9491409
vn -1.985396E-07 0.0001112822 1
vn -6.547589E-07 -0.3148521 0.9491407
vn -9.082293E-07 -0.4653462 0.8851287
vn -9.082293E-07 -0.4653462 0.8851287
vn 1 0 0
vn 1 0 0
vn 1 0 0
vn 1 0 0
vn 1 0 0
vn 1 0 0
vn -2.50094E-07 -0.0001512313 -1
vn -6.411711E-07 0.3001414 -0.9538948
vn -2.50094E-07 -0.0001512313 -1
vn -6.411718E-07 0.300142 -0.9538946
vn -8.224586E-07 0.4297087 -0.9029675
vn -8.224586E-07 0.4297087 -0.9029675
vn -1 0 0
vn -1 0 0
vn -1 0 0
vn -1 0 0
vn -1 0 0
vn -1 0 0
vn 0.328611 -0.5679395 -0.7546254
vn -0.0004925465 -0.9340273 -0.3572015
vn -0.0003742484 -0.6622168 -0.7493122
vn 0.4651364 -0.8051979 -0.3678376
vn -0.0005042158 -0.9974221 -0.07175633
vn 0.4985133 -0.8638251 -0.07273713
vn 0.8638304 -0.498782 -0.07080637
vn 0.809752 -0.466763 -0.3555755
vn 0.5756128 -0.3307406 -0.7478506
vn 0.6590744 0.001589541 -0.7520761
vn 0.9310297 0.0009131191 -0.3649422
vn 0.9974733 0.0001051173 -0.07104243
vn 0.8640058 0.4987556 -0.06882359
vn 0.8102075 0.4685251 -0.3522042
vn 0.5771618 0.3348662 -0.7448147
vn 0.3304502 0.5737125 -0.7494375
vn 0.4658811 0.8074245 -0.3619675
vn 0.4953472 0.8575853 -0.1384876
vn 0.000438968 0.9417123 -0.3364193
vn 0.0004145115 0.9365821 -0.3504482
vn 0.0002637528 0.6690469 -0.7432202
vn -0.3300255 0.5740761 -0.7493462
vn -0.4651699 0.8078784 -0.3618694
vn -0.4945406 0.8580602 -0.1384279
vn -0.8635285 0.4995949 -0.0687273
vn -0.8098159 0.4693213 -0.352045
vn -0.5770069 0.3354726 -0.7446618
vn -0.6592648 0.002238083 -0.7519076
vn -0.9311026 0.001816131 -0.3647529
vn -0.9974807 0.001069585 -0.07093026
vn -0.810267 -0.4659889 -0.3554178
vn -0.5760897 -0.3302224 -0.7477124
vn -0.8643201 -0.4979464 -0.07071119
vn -0.3292689 -0.5676625 -0.7545469
vn -0.4659867 -0.8047464 -0.3677492
vn -0.4993828 -0.8633271 -0.07268403
vn -0.0005042158 -0.9974221 -0.07175633
vn -0.0004925465 -0.9340273 -0.3572015
vn -0.0003742484 -0.6622168 -0.7493122
vn -0 -0.4294738 -0.9030793
vn -0 -0.30013 -0.9538984
vn -0 -0.4294738 -0.9030793
vn -0 -0.30013 -0.9538984
vn -2.50094E-07 -0.0001512313 -1
vn -2.50094E-07 -0.0001512313 -1
vn -0.0004590114 -0.9999955 -0.002988574
vn -0.8658071 -0.500376 -0.001427533
vn -0.0004313252 -0.9999955 -0.002988576
vn -0.8662255 -0.4996511 -0.001425335
vn -0.8662108 0.4996764 0.001558669
vn -0.8658139 0.5003639 0.00156069
vn 0.0005015471 0.9999955 0.002984096
vn 0.0004747142 0.9999955 0.002984099
vn 0.8666997 0.4988282 0.001420201
vn 0.8662894 0.4995404 0.001422359
vn 0.865347 -0.5011707 -0.001566454
vn 0.8657538 -0.5004676 -0.001564385
vn -0.0004590114 -0.9999955 -0.002988574
vn -0.0004313252 -0.9999955 -0.002988576
vn -8.940102E-05 -0.442353 -0.896841
vn -0.0001598729 -0.4423529 -0.896841
vn 0.3827724 -0.2231961 -0.8964758
vn 0.3840076 -0.2210794 -0.896472
vn 0.3864394 0.2209048 -0.8954695
vn 0.3852181 0.223043 -0.8954657
vn 0.0001604585 0.4458823 -0.8950915
vn 9.196192E-05 0.4458824 -0.8950915
vn -0.3867998 0.220957 -0.895301
vn -0.3851755 0.2238036 -0.8952942
vn -0.3824278 -0.2231377 -0.8966374
vn -0.3840583 -0.2203459 -0.8966308
vn -0.0001598729 -0.4423529 -0.896841
vn -8.940102E-05 -0.442353 -0.896841
g weapon_geo_0
f 3/3/3 2/2/2 1/1/1
f 4/4/4 3/3/3 1/1/1
f 4/4/4 1/1/1 5/5/5
f 6/6/6 4/4/4 5/5/5
f 9/9/9 8/8/8 7/7/7
f 10/10/10 9/9/9 7/7/7
f 10/10/10 7/7/7 11/11/11
f 12/12/12 10/10/10 11/11/11
f 15/15/15 14/14/14 13/13/13
f 14/14/14 16/16/16 13/13/13
f 14/14/14 17/17/17 16/16/16
f 17/17/17 18/18/18 16/16/16
f 21/21/21 20/20/20 19/19/19
f 22/22/22 21/21/21 19/19/19
f 25/25/25 24/24/24 23/23/23
f 26/26/26 25/25/25 23/23/23
f 29/29/29 28/28/28 27/27/27
f 30/30/30 29/29/29 27/27/27
f 31/31/31 30/30/30 27/27/27
f 29/29/29 30/30/30 32/32/32
f 31/31/31 33/33/33 30/30/30
f 30/30/30 33/33/33 32/32/32
f 36/36/36 35/35/35 34/34/34
f 35/35/35 37/37/37 34/34/34
f 37/37/37 35/35/35 38/38/38
f 39/39/39 37/37/37 38/38/38
f 37/37/37 39/39/39 34/34/34
f 39/39/39 40/40/40 34/34/34
f 43/43/43 42/42/42 41/41/41
f 43/43/43 41/41/41 44/44/44
f 44/44/44 41/41/41 45/45/45
f 45/45/45 41/41/41 46/46/46
f 46/46/46 41/41/41 47/47/47
f 41/41/41 48/48/48 47/47/47
f 49/49/49 48/48/48 41/41/41
f 41/41/41 50/50/50 49/49/49
f 51/51/51 50/50/50 41/41/41
f 51/51/51 41/41/41 52/52/52
f 55/55/55 54/54/54 53/53/53
f 56/56/56 55/55/55 53/53/53
f 53/53/53 57/57/57 56/56/56
f 56/56/56 57/57/57 58/58/58
f 59/59/59 56/56/56 58/58/58
f 58/58/58 60/60/60 59/59/59
f 59/59/59 60/60/60 61/61/61
f 62/62/62 59/59/59 61/61/61
f 61/61/61 63/63/63 62/62/62
f 62/62/62 63/63/63 64/64/64
f 65/65/65 62/62/62 64/64/64
f 64/64/64 66/66/66 65/65/65
f 65/65/65 66/66/66 67/67/67
f 68/68/68 65/65/65 67/67/67
f 67/67/67 69/69/69 68/68/68
f 68/68/68 69/69/69 70/70/70
f 71/71/71 68/68/68 70/70/70
f 70/70/70 72/72/72 71/71/71
f 75/75/75 74/74/74 73/73/73
f 74/74/74 76/76/76 73/73/73
f 73/73/73 76/76/76 77/77/77
f 76/76/76 78/78/78 77/77/77
f 77/77/77 78/78/78 79/79/79
f 78/78/78 80/80/80 79/79/79
f 79/79/79 80/80/80 81/81/81
f 82/82/82 79/79/79 81/81/81
f 82/82/82 81/81/81 83/83/83
f 81/81/81 84/84/84 83/83/83
f 83/83/83 84/84/84 85/85/85
f 84/84/84 86/86/86 85/85/85
f 89/89/89 88/88/88 87/87/87
f 88/88/88 90/90/90 87/87/87
f 88/88/88 91/91/91 90/90/90
f 91/91/91 92/92/92 90/90/90
f 95/95/95 94/94/94 93/93/93
f 94/94/94 96/96/96 93/93/93
f 94/94/94 97/97/97 96/96/96
f 97/97/97 98/98/98 96/96/96
f 101/101/101 100/100/100 99/99/99
f 100/100/100 102/102/102 99/99/99
f 100/100/100 103/103/103 102/102/102
f 103/103/103 104/104/104 102/102/102
f 107/107/107 106/106/106 105/105/105
f 108/108/108 107/107/107 105/105/105
f 108/108/108 105/105/105 109/109/109
f 105/105/105 110/110/110 109/109/109
f 113/113/113 112/112/112 111/111/111
f 112/112/112 114/114/114 111/111/111
f 112/112/112 115/115/115 114/114/114
f 115/115/115 116/116/116 114/114/114
f 116/116/116 117/117/117 114/114/114
f 114/114/114 118/118/118 111/111/111
f 117/117/117 118/118/118 114/114/114
f 118/118/118 119/119/119 111/111/111
f 119/119/119 118/118/118 120/120/120
f 118/118/118 117/117/117 121/121/121
f 118/118/118 121/121/121 120/120/120
f 117/117/117 122/122/122 121/121/121
f 122/122/122 123/123/123 121/121/121
f 121/121/121 124/124/124 120/120/120
f 123/123/123 124/124/124 121/121/121
f 124/124/124 125/125/125 120/120/120
f 125/125/125 124/124/124 126/126/126
f 124/124/124 123/123/123 127/127/127
f 124/124/124 127/127/127 126/126/126
f 123/123/123 128/128/128 127/127/127
f 128/128/128 129/129/129 127/127/127
f 127/127/127 130/130/130 126/126/126
f 129/129/129 130/130/130 127/127/127
f 130/130/130 131/131/131 126/126/126
f 131/131/131 130/130/130 132/132/132
f 130/130/130 129/129/129 133/133/133
f 130/130/130 133/133/133 132/132/132
f 129/129/129 134/134/134 133/133/133
f 134/134/134 135/135/135 133/133/133
f 133/133/133 136/136/136 132/132/132
f 135/135/135 136/136/136 133/133/133
f 136/136/136 137/137/137 132/132/132
f 137/137/137 136/136/136 138/138/138
f 136/136/136 135/135/135 139/139/139
f 136/136/136 139/139/139 138/138/138
f 135/135/135 140/140/140 139/139/139
f 139/139/139 141/141/141 138/138/138
f 139/139/139 140/140/140 141/141/141
f 141/141/141 142/142/142 138/138/138
f 140/140/140 143/143/143 141/141/141
f 142/142/142 141/141/141 144/144/144
f 141/141/141 143/143/143 145/145/145
f 141/141/141 145/145/145 144/144/144
f 143/143/143 146/146/146 145/145/145
f 146/146/146 147/147/147 145/145/145
f 147/147/147 148/148/148 145/145/145
f 145/145/145 148/148/148 144/144/144
f 148/148/148 149/149/149 144/144/144
f 152/152/152 151/151/151 150/150/150
f 151/151/151 153/153/153 150/150/150
f 151/151/151 154/154/154 153/153/153
f 154/154/154 155/155/155 153/153/153
f 158/158/158 157/157/157 156/156/156
f 157/157/157 159/159/159 156/156/156
f 157/157/157 160/160/160 159/159/159
f 160/160/160 161/161/161 159/159/159
f 160/160/160 162/162/162 161/161/161
f 162/162/162 163/163/163 161/161/161
f 162/162/162 164/164/164 163/163/163
f 164/164/164 165/165/165 163/163/163
f 164/164/164 166/166/166 165/165/165
f 166/166/166 167/167/167 165/165/165
f 168/168/168 167/167/167 166/166/166
f 169/169/169 168/168/168 166/166/166
f 172/172/172 171/171/171 170/170/170
f 173/173/173 172/172/172 170/170/170
f 174/174/174 172/172/172 173/173/173
f 175/175/175 174/174/174 173/173/173
f 176/176/176 174/174/174 175/175/175
f 177/177/177 176/176/176 175/175/175
f 178/178/178 176/176/176 177/177/177
f 179/179/179 178/178/178 177/177/177
f 180/180/180 178/178/178 179/179/179
f 181/181/181 180/180/180 179/179/179
f 182/182/182 180/180/180 181/181/181
f 183/183/183 182/182/182 181/181/181
