g body_geo
v -0.1150912 0.0198603 0.1504627
v -0.1162001 0.00458294 0.0004045391
v -1.193043E-06 0.03554599 0.1437277
v -7.183045E-05 0.002411478 0.0004045391
v 0.1160564 0.00458294 0.0004045391
v -1.193043E-06 0.03554599 0.1437277
v 0.1178296 0.04025099 0.1434671
v -7.183045E-05 0.01933195 -0.1563859
v 0.1140215 0.01095869 -0.1570598
v 0.1160564 0.00458294 0.0004045391
v -7.183045E-05 0.002411478 0.0004045391
v -0.1162001 0.00458294 0.0004045391
v -7.183045E-05 0.01933195 -0.1563859
v -0.1141779 -0.001769067 -0.1557048
vt 0.5 1
vt 0.5 0.5
vt 0.25 1
vt 0.25 0.5
vt 0 0.5
vt 0.25 1
vt 5.960464E-08 1
vt 0.25 0
vt -5.960464E-08 1.192093E-07
vt 0 0.5
vt 0.25 0.5
vt 0.5 0.5
vt 0.25 0
vt 0.5 -1.192093E-07
vn -0.1401367 0.9853516 -0.09924316
vn -0.05044556 0.9838867 -0.1716309
vn -0.07543945 0.9853516 -0.1517334
vn 0.01821899 0.9741211 -0.2252197
vn -0.02734375 0.972168 -0.2321777
vn -0.03041077 0.9716797 -0.2344971
vn -0.03924561 0.9697266 -0.2412109
vn 0.03588867 0.9970703 0.06719971
vn 0.07336426 0.996582 0.03939819
vn 0.01785278 0.996582 0.08050537
vn 0.01858521 0.9941406 0.1072998
vn -0.06234741 0.9970703 0.04760742
vn -0.1005249 0.9946289 0.01911926
vn -0.1818848 0.9824219 -0.04232788
g body_geo_0
f 3/3/3 2/2/2 1/1/1
f 3/3/3 4/4/4 2/2/2
f 6/6/6 5/5/5 4/4/4
f 6/6/6 7/7/7 5/5/5
f 10/10/10 9/9/9 8/8/8
f 11/11/11 10/10/10 8/8/8
f 11/11/11 13/13/13 12/12/12
f 13/13/13 14/14/14 12/12/12
