g head_geo
v -0.09587663 1.433088 0.1101945
v -0.09038988 1.460366 0.1060461
v -0.06762239 1.466028 0.1246721
v -0.07413521 1.434088 0.1307778
v -0.04992878 1.432283 0.1410349
v -0.03680029 1.470252 0.1325392
v -0.0231381 1.428934 0.1475756
v -1.518166E-05 1.469249 0.1373435
v -1.518134E-05 1.426412 0.1492953
v 0.02310774 1.428934 0.1475756
v 0.03676993 1.470252 0.1325392
v 0.04989842 1.432283 0.1410349
v 0.06871343 1.467246 0.1246721
v 0.07410485 1.434088 0.1307778
v 0.09584628 1.433088 0.1101945
v 0.0903823 1.463282 0.1071028
v -0.1046143 1.356987 0.05482291
v -0.1046518 1.391445 0.08195362
v -0.1003518 1.362761 0.08513018
v -0.09666201 1.335392 0.08355328
v -0.09384575 1.309772 0.0510498
v -0.1096974 1.350368 0.02441834
v -0.09263926 1.313682 0.07952109
v -0.08677512 1.294531 0.07311939
v -0.08104971 1.279915 0.06404299
v -0.09671095 1.298832 0.02425519
v -0.08615263 1.284989 0.03630894
v -0.08196578 1.273396 0.02211108
v -0.0782367 1.270081 0.04434809
v -0.09658279 1.299008 0.000906091
v -0.070776 1.261384 0.03706443
v -0.08677908 1.286383 -0.01814723
v -0.1071411 1.321702 -0.01547323
v -0.04491429 1.260104 -0.02396178
v -0.04166522 1.250481 0.006212838
v -0.02564233 1.239973 0.02674227
v -0.05962805 1.251251 0.05447649
v -0.04485093 1.241003 0.06722259
v -0.02470761 1.238576 0.06059768
v -0.03021169 1.234245 0.08108552
v -1.518134E-05 1.232903 0.03832011
v -1.518134E-05 1.228072 0.07289418
v -0.01194434 1.231628 0.07554609
v -0.005470545 1.224717 0.09602768
v -1.518134E-05 1.224059 0.09734763
v 0.005440187 1.224717 0.09602768
v 0.02467725 1.238576 0.06059768
v 0.02561197 1.239973 0.02674227
v 0.01191397 1.231628 0.07554609
v 0.03018133 1.234245 0.08108552
v 0.04482057 1.241003 0.06722259
v 0.05959769 1.251251 0.05447649
v 0.07074564 1.261384 0.03706443
v 0.04163485 1.250481 0.006212838
v 0.08193542 1.273396 0.02211108
v 0.04488393 1.260104 -0.02396178
v 0.07820634 1.270081 0.04434809
v 0.08674872 1.286383 -0.01814723
v 0.09655244 1.299008 0.000906091
v 0.1071108 1.321702 -0.01547323
v 0.09668059 1.298832 0.02425519
v 0.08612227 1.284989 0.03630894
v 0.09381538 1.309772 0.0510498
v 0.08101935 1.279915 0.06404299
v 0.109667 1.350368 0.02441834
v 0.08674476 1.294531 0.07311939
v 0.09260891 1.313682 0.07952109
v 0.09663165 1.335392 0.08355328
v 0.104584 1.356987 0.05482291
v 0.1003214 1.362761 0.08513018
v 0.1046214 1.391445 0.08195362
v -0.1144183 1.357547 -0.003315274
v -0.1096974 1.350368 0.02441834
v -0.1297107 1.36178 0.001204459
v -0.1367606 1.356722 -0.01062403
v -0.1128895 1.340199 -0.0154822
v -0.1373294 1.346195 -0.01778245
v -0.1071411 1.321702 -0.01547323
v -0.13295 1.319094 -0.01698644
v -0.117782 1.292221 -0.005756938
v -0.09658279 1.299008 0.000906091
v -0.103249 1.288221 0.008402169
v -0.09671095 1.298832 0.02425519
v -0.1293318 1.314883 -0.005791884
v -0.103249 1.288221 0.008402169
v -0.1387282 1.34301 -0.01061904
v -0.1367606 1.356722 -0.01062403
v -0.1372625 1.35121 -0.004437074
v -0.1297107 1.36178 0.001204459
v -0.1314783 1.355718 0.003799762
v -0.09671095 1.298832 0.02425519
v -0.1096974 1.350368 0.02441834
v 0.114388 1.357547 -0.003315274
v 0.1296803 1.36178 0.001204459
v 0.109667 1.350368 0.02441834
v 0.1367303 1.356722 -0.01062403
v 0.1128592 1.340199 -0.0154822
v 0.1372991 1.346195 -0.01778245
v 0.1071108 1.321702 -0.01547323
v 0.1329197 1.319094 -0.01698644
v 0.1177516 1.292221 -0.005756938
v 0.09655244 1.299008 0.000906091
v 0.1032187 1.288221 0.008402169
v 0.09668059 1.298832 0.02425519
v 0.1293015 1.314883 -0.005791884
v 0.1032187 1.288221 0.008402169
v 0.1386979 1.34301 -0.01061904
v 0.1367303 1.356722 -0.01062403
v 0.1372322 1.35121 -0.004437074
v 0.1296803 1.36178 0.001204459
v 0.1314479 1.355718 0.003799762
v 0.09668059 1.298832 0.02425519
v 0.109667 1.350368 0.02441834
vt 0.15979 0.472168
vt 0.1627197 0.4975586
vt 0.1856689 0.4975586
vt 0.1804199 0.4731445
vt 0.2025146 0.4711914
vt 0.2143555 0.4975586
vt 0.2280273 0.4677734
vt 0.25 0.4975586
vt 0.25 0.4650879
vt 0.2719727 0.4677734
vt 0.2856445 0.4975586
vt 0.2976074 0.4711914
vt 0.3144531 0.4975586
vt 0.3195801 0.4731445
vt 0.3400879 0.472168
vt 0.3371582 0.4975586
vt 0.1280518 0.4035645
vt 0.1375732 0.4350586
vt 0.1522217 0.4143066
vt 0.1496582 0.3903809
vt 0.1326904 0.3581543
vt 0.09991455 0.3999023
vt 0.154541 0.3657227
vt 0.1540527 0.3425293
vt 0.1571045 0.3283691
vt 0.1069336 0.3552246
vt 0.1345215 0.3273926
vt 0.1264648 0.3146973
vt 0.1616211 0.3129883
vt 0.09362793 0.3547363
vt 0.1629639 0.2998047
vt 0.08135986 0.3293457
vt 0.08374023 0.3759766
vt 0.08508301 0.295166
vt 0.1281738 0.2717285
vt 0.1824951 0.244751
vt 0.1835938 0.2905273
vt 0.2020264 0.2854004
vt 0.2103271 0.2563477
vt 0.2198486 0.2802734
vt 0.25 0.2327881
vt 0.25 0.2512207
vt 0.2351074 0.2587891
vt 0.2451172 0.2670898
vt 0.25 0.2666016
vt 0.2548828 0.2670898
vt 0.2895508 0.2563477
vt 0.3173828 0.244751
vt 0.2648926 0.2587891
vt 0.2800293 0.2802734
vt 0.2978516 0.2854004
vt 0.3164062 0.2905273
vt 0.3371582 0.2998047
vt 0.3718262 0.2717285
vt 0.3735352 0.3146973
vt 0.4150391 0.295166
vt 0.3383789 0.3129883
vt 0.4187012 0.3293457
vt 0.4064941 0.3547363
vt 0.4162598 0.3759766
vt 0.3930664 0.3552246
vt 0.3654785 0.3273926
vt 0.3674316 0.3581543
vt 0.3430176 0.3283691
vt 0.4001465 0.3999023
vt 0.3459473 0.3425293
vt 0.345459 0.3657227
vt 0.3518066 0.3908691
vt 0.3720703 0.4035645
vt 0.3493652 0.4143066
vt 0.3623047 0.4350586
vt 0.1026001 0.2181396
vt 0.1190186 0.2359619
vt 0.1132812 0.2099609
vt 0.1069946 0.199585
vt 0.08557129 0.2119141
vt 0.09765625 0.1945801
vt 0.06829834 0.2086182
vt 0.07678223 0.1921387
vt 0.05395508 0.1834717
vt 0.04473877 0.199707
vt 0.03848267 0.1890869
vt 0.02531433 0.1989746
vt 0.07318115 0.184082
vt 0.04772949 0.1672363
vt 0.09539795 0.1883545
vt 0.1066284 0.1873779
vt 0.1016235 0.1828613
vt 0.1099243 0.175293
vt 0.1043701 0.1748047
vt 0.05480957 0.152832
vt 0.09783936 0.152832
vt 0.3974609 0.2181396
vt 0.3867188 0.2099609
vt 0.3811035 0.2359619
vt 0.3930664 0.199585
vt 0.4145508 0.2119141
vt 0.4023438 0.1945801
vt 0.4316406 0.2086182
vt 0.4230957 0.1921387
vt 0.4460449 0.1834717
vt 0.4553223 0.199707
vt 0.4614258 0.1890869
vt 0.4746094 0.1989746
vt 0.4267578 0.184082
vt 0.4523926 0.1672363
vt 0.404541 0.1883545
vt 0.3933105 0.1873779
vt 0.3984375 0.1828613
vt 0.3901367 0.175293
vt 0.3955078 0.1748047
vt 0.4453125 0.152832
vt 0.4020996 0.152832
vn -0.6696682 0.1516214 0.7270182
vn -0.6587911 0.2537968 0.7082242
vn -0.4434505 0.2563485 0.858858
vn -0.5010375 0.1387997 0.8542225
vn -0.2665106 0.1206485 0.956251
vn -0.2082414 0.2448746 0.9469276
vn -0.1257468 0.1375646 0.9824784
vn -3.093029E-07 0.2370818 0.9714896
vn -1.005647E-07 0.1043256 0.9945432
vn 0.125747 0.1375648 0.9824783
vn 0.2082418 0.2448747 0.9469275
vn 0.2665109 0.1206488 0.9562509
vn 0.4434511 0.2563484 0.8588578
vn 0.5010377 0.1387996 0.8542225
vn 0.6696677 0.151621 0.7270187
vn 0.6587901 0.2537962 0.7082254
vn -0.977846 -0.175753 0.1137021
vn -0.9720725 -0.1077751 0.2084693
vn -0.9382144 -0.1734585 0.2994426
vn -0.9498173 -0.1669576 0.2645228
vn -0.9727173 -0.2067897 0.1051621
vn -0.932664 -0.1564218 0.3250694
vn -0.9435698 -0.2202885 0.2472834
vn -0.9487182 -0.2492373 0.1944595
vn -0.8985834 -0.4264455 0.1034025
vn -0.932613 -0.2935244 0.209944
vn -0.9193788 -0.3933123 0.006923833
vn -0.669556 -0.7136386 -0.2059483
vn -0.7982019 -0.5999149 0.05455239
vn -0.6702079 -0.6497087 -0.3587478
vn -0.5645227 -0.8135253 -0.1396094
vn -0.660875 -0.717492 -0.2201127
vn -0.0133388 -0.2464738 -0.9690577
vn -0.795181 -0.5454046 -0.2649926
vn -0.7205177 -0.6921294 -0.04255767
vn -0.5317769 -0.8380219 0.1221991
vn -0.4423277 -0.8944355 -0.0658121
vn -0.4015932 -0.9138225 -0.06042641
vn -0.2632478 -0.9519008 -0.1567978
vn -0.3867254 -0.918487 -0.0826137
vn -0 -0.9549189 0.2968669
vn -0 -0.9895405 -0.1442556
vn -0.2550362 -0.9511201 -0.1741466
vn -0.2801625 -0.9525457 -0.1190193
vn -0 -0.9956003 -0.09370053
vn 0.2801628 -0.9525465 -0.1190125
vn 0.2632476 -0.9519006 -0.1567988
vn 0.5317767 -0.8380219 0.1221993
vn 0.2550362 -0.9511201 -0.1741467
vn 0.3869066 -0.9184217 -0.08249141
vn 0.4017268 -0.9137768 -0.06022983
vn 0.4423624 -0.8944309 -0.06564199
vn 0.5645226 -0.8135255 -0.1396084
vn 0.7205176 -0.6921295 -0.04255667
vn 0.6695563 -0.7136389 -0.2059468
vn 0.795181 -0.5454046 -0.2649923
vn 0.7982017 -0.5999149 0.05455249
vn 0.6608752 -0.7174922 -0.220111
vn 0.6702085 -0.6497093 -0.3587455
vn 0.01333889 -0.2464731 -0.9690578
vn 0.932613 -0.2935242 0.2099442
vn 0.9193789 -0.3933122 0.006925085
vn 0.9727173 -0.2067897 0.1051621
vn 0.8985834 -0.4264455 0.1034017
vn 0.9326642 -0.1564218 0.325069
vn 0.9487181 -0.2492373 0.19446
vn 0.9435698 -0.2202885 0.2472836
vn 0.9498174 -0.1669576 0.2645225
vn 0.977846 -0.175753 0.1137019
vn 0.9382144 -0.1734585 0.2994424
vn 0.9720728 -0.1077747 0.2084686
vn 0.3119268 0.8811706 -0.3553025
vn -0.932664 -0.1564218 0.3250694
vn -0.1322382 0.9791373 0.1542829
vn -0.2945732 0.7255607 -0.6219232
vn 0.1150495 0.1135164 -0.9868523
vn -0.3335955 0.1052511 -0.9368225
vn -0.0133388 -0.2464738 -0.9690577
vn -0.3392521 -0.2194096 -0.9147499
vn -0.2793533 -0.7913637 -0.543788
vn -0.6702079 -0.6497087 -0.3587478
vn -0.658868 -0.541854 0.5218115
vn -0.932613 -0.2935244 0.209944
vn -0.7916651 -0.2174953 0.5709311
vn -0.658868 -0.541854 0.5218115
vn -0.9805861 -0.1463422 0.1305176
vn -0.2945732 0.7255607 -0.6219232
vn -0.848822 -0.08604487 0.5216298
vn -0.1322382 0.9791373 0.1542829
vn -0.7781136 -0.08035941 0.6229619
vn -0.932613 -0.2935244 0.209944
vn -0.932664 -0.1564218 0.3250694
vn -0.3119265 0.8811704 -0.3553034
vn 0.1322383 0.9791369 0.1542849
vn 0.9326642 -0.1564218 0.325069
vn 0.2945729 0.7255617 -0.6219221
vn -0.1150495 0.1135164 -0.9868523
vn 0.3335945 0.1052508 -0.9368229
vn 0.01333889 -0.2464731 -0.9690578
vn 0.3392516 -0.2194086 -0.9147503
vn 0.2793527 -0.7913643 -0.5437875
vn 0.6702085 -0.6497093 -0.3587455
vn 0.658867 -0.5418538 0.5218127
vn 0.932613 -0.2935242 0.2099442
vn 0.791665 -0.2174957 0.570931
vn 0.658867 -0.5418538 0.5218127
vn 0.9805864 -0.1463425 0.1305148
vn 0.2945729 0.7255617 -0.6219221
vn 0.8488203 -0.08604442 0.5216324
vn 0.1322383 0.9791369 0.1542849
vn 0.7781112 -0.08035892 0.622965
vn 0.932613 -0.2935242 0.2099442
vn 0.9326642 -0.1564218 0.325069
g head_geo_0
f 3/3/3 2/2/2 1/1/1
f 4/4/4 3/3/3 1/1/1
f 3/3/3 4/4/4 5/5/5
f 6/6/6 3/3/3 5/5/5
f 5/5/5 7/7/7 6/6/6
f 8/8/8 6/6/6 7/7/7
f 7/7/7 9/9/9 8/8/8
f 9/9/9 10/10/10 8/8/8
f 11/11/11 8/8/8 10/10/10
f 10/10/10 12/12/12 11/11/11
f 13/13/13 11/11/11 12/12/12
f 14/14/14 13/13/13 12/12/12
f 13/13/13 14/14/14 15/15/15
f 16/16/16 13/13/13 15/15/15
f 19/19/19 18/18/18 17/17/17
f 20/20/20 19/19/19 17/17/17
f 21/21/21 20/20/20 17/17/17
f 17/17/17 22/22/22 21/21/21
f 23/23/23 20/20/20 21/21/21
f 24/24/24 23/23/23 21/21/21
f 24/24/24 21/21/21 25/25/25
f 22/22/22 26/26/26 21/21/21
f 27/27/27 25/25/25 21/21/21
f 26/26/26 27/27/27 21/21/21
f 27/27/27 26/26/26 28/28/28
f 29/29/29 25/25/25 27/27/27
f 29/29/29 27/27/27 28/28/28
f 26/26/26 30/30/30 28/28/28
f 31/31/31 29/29/29 28/28/28
f 30/30/30 32/32/32 28/28/28
f 30/30/30 33/33/33 32/32/32
f 32/32/32 34/34/34 28/28/28
f 34/34/34 35/35/35 28/28/28
f 35/35/35 31/31/31 28/28/28
f 36/36/36 31/31/31 35/35/35
f 37/37/37 31/31/31 36/36/36
f 38/38/38 37/37/37 36/36/36
f 39/39/39 38/38/38 36/36/36
f 38/38/38 39/39/39 40/40/40
f 41/41/41 39/39/39 36/36/36
f 41/41/41 42/42/42 39/39/39
f 39/39/39 43/43/43 40/40/40
f 42/42/42 43/43/43 39/39/39
f 40/40/40 43/43/43 44/44/44
f 43/43/43 42/42/42 44/44/44
f 42/42/42 45/45/45 44/44/44
f 45/45/45 42/42/42 46/46/46
f 42/42/42 41/41/41 47/47/47
f 47/47/47 41/41/41 48/48/48
f 42/42/42 49/49/49 46/46/46
f 49/49/49 42/42/42 47/47/47
f 49/49/49 50/50/50 46/46/46
f 49/49/49 47/47/47 50/50/50
f 47/47/47 51/51/51 50/50/50
f 51/51/51 47/47/47 48/48/48
f 52/52/52 51/51/51 48/48/48
f 53/53/53 52/52/52 48/48/48
f 53/53/53 48/48/48 54/54/54
f 53/53/53 54/54/54 55/55/55
f 54/54/54 56/56/56 55/55/55
f 57/57/57 53/53/53 55/55/55
f 56/56/56 58/58/58 55/55/55
f 58/58/58 59/59/59 55/55/55
f 60/60/60 59/59/59 58/58/58
f 59/59/59 61/61/61 55/55/55
f 62/62/62 57/57/57 55/55/55
f 61/61/61 62/62/62 55/55/55
f 62/62/62 61/61/61 63/63/63
f 64/64/64 57/57/57 62/62/62
f 64/64/64 62/62/62 63/63/63
f 61/61/61 65/65/65 63/63/63
f 63/63/63 66/66/66 64/64/64
f 67/67/67 66/66/66 63/63/63
f 68/68/68 67/67/67 63/63/63
f 65/65/65 69/69/69 63/63/63
f 68/68/68 63/63/63 69/69/69
f 70/70/70 68/68/68 69/69/69
f 71/71/71 70/70/70 69/69/69
f 74/74/74 73/73/73 72/72/72
f 72/72/72 75/75/75 74/74/74
f 76/76/76 75/75/75 72/72/72
f 77/77/77 75/75/75 76/76/76
f 77/77/77 76/76/76 78/78/78
f 79/79/79 77/77/77 78/78/78
f 80/80/80 79/79/79 78/78/78
f 80/80/80 78/78/78 81/81/81
f 82/82/82 80/80/80 81/81/81
f 81/81/81 83/83/83 82/82/82
f 84/84/84 79/79/79 80/80/80
f 79/79/79 84/84/84 77/77/77
f 85/85/85 84/84/84 80/80/80
f 84/84/84 86/86/86 77/77/77
f 77/77/77 86/86/86 87/87/87
f 88/88/88 86/86/86 84/84/84
f 86/86/86 88/88/88 87/87/87
f 84/84/84 85/85/85 88/88/88
f 87/87/87 88/88/88 89/89/89
f 90/90/90 88/88/88 85/85/85
f 88/88/88 90/90/90 89/89/89
f 91/91/91 90/90/90 85/85/85
f 90/90/90 92/92/92 89/89/89
f 91/91/91 92/92/92 90/90/90
f 95/95/95 94/94/94 93/93/93
f 96/96/96 93/93/93 94/94/94
f 96/96/96 97/97/97 93/93/93
f 96/96/96 98/98/98 97/97/97
f 97/97/97 98/98/98 99/99/99
f 98/98/98 100/100/100 99/99/99
f 100/100/100 101/101/101 99/99/99
f 99/99/99 101/101/101 102/102/102
f 101/101/101 103/103/103 102/102/102
f 104/104/104 102/102/102 103/103/103
f 100/100/100 105/105/105 101/101/101
f 105/105/105 100/100/100 98/98/98
f 105/105/105 106/106/106 101/101/101
f 107/107/107 105/105/105 98/98/98
f 107/107/107 98/98/98 108/108/108
f 107/107/107 109/109/109 105/105/105
f 109/109/109 107/107/107 108/108/108
f 106/106/106 105/105/105 109/109/109
f 109/109/109 108/108/108 110/110/110
f 109/109/109 111/111/111 106/106/106
f 111/111/111 109/109/109 110/110/110
f 111/111/111 112/112/112 106/106/106
f 113/113/113 111/111/111 110/110/110
f 113/113/113 112/112/112 111/111/111
