g body_geo
v -0.1514757 0.0091875 0.1905406
v -0.1435571 0.0091875 -0.003530892
v -0.004954157 0.0091875 0.196519
v 0.0028744 0.009187497 0.002443852
v 0.01079295 0.009187497 -0.1916277
v -0.1356386 0.009187497 -0.1976024
v 0.149489 0.009187497 0.008426061
v 0.1415704 0.009187497 0.2024976
v 0.1565514 0.01575028 -0.185163
v 0.1549934 -0.001997308 -0.1884615
v 0.1364025 -0.00199731 0.1995594
v -0.1565514 -0.001997308 0.1855233
v -0.1379605 -0.00199731 -0.2024976
v 0.1468718 0.00774188 -0.191874
v 0.1468718 0.007741877 0.196592
v -0.1464181 0.00774188 0.196592
v -0.1464181 0.007741877 -0.191874
v -0.1464181 -0.007626686 -0.191874
v -0.1464181 -0.007626686 0.196592
v 0.1468718 -0.007626686 0.196592
v 0.1468718 -0.007626684 -0.191874
v -0.1464181 0.00774188 0.196592
v 0.1468718 0.007741877 0.196592
v 0.1468718 -0.007626686 0.196592
v -0.1464181 -0.007626686 0.196592
v 0.1468718 0.007741877 0.196592
v 0.1468718 0.00774188 -0.191874
v 0.1468718 -0.007626684 -0.191874
v 0.1468718 -0.007626686 0.196592
v 0.1468718 0.00774188 -0.191874
v -0.1464181 0.007741877 -0.191874
v -0.1464181 -0.007626686 -0.191874
v 0.1468718 -0.007626684 -0.191874
v -0.1464181 0.00774188 0.196592
v -0.1464181 -0.007626686 0.196592
v -0.1464181 -0.007626686 -0.191874
v -0.1464181 0.007741877 -0.191874
vt 0.8740234 1
vt 0.8740234 0.5
vt 0.5 1
vt 0.5 0.5
vt 0.5 0
vt 0.8740234 -5.960464E-08
vt 0.1258545 0.5
vt 0.1258545 1
vt 0.1258545 1.192093E-07
vt 0.1258545 1.192093E-07
vt 0.1258545 1
vt 0.8740234 1
vt 0.8740234 -5.960464E-08
vt 0.1258545 1.192093E-07
vt 0.1258545 1
vt 0.8740234 1
vt 0.8740234 -5.960464E-08
vt 0.8740234 -5.960464E-08
vt 0.8740234 1
vt 0.1258545 1
vt 0.1258545 1.192093E-07
vt 0.9873047 0.996582
vt 0.9873047 0.5048828
vt 0.8984375 0.5048828
vt 0.8984375 0.996582
vt 0.8984375 1
vt 0.8984375 1.192093E-07
vt 0.9873047 1.192093E-07
vt 0.9873047 1
vt 0.8984375 0.996582
vt 0.8984375 0.5048828
vt 0.9873047 0.5048828
vt 0.9873047 0.996582
vt 0.9873047 -5.960464E-08
vt 0.8984375 -5.960464E-08
vt 0.8984375 1
vt 0.9873047 1
vn -0 1 0
vn -0 1 0
vn -0 1 0
vn -0 1 0
vn -0.01355743 1 0.009399414
vn -0 1 0
vn -0.009460449 1 0.006561279
vn -0 1 0
vn -0.04638672 0.9985352 0.03216553
vn -0 1 0
vn -0 1 0
vn -0 1 0
vn -0 1 0
vn -0 1 0
vn -0 1 0
vn -0 1 0
vn -0 1 0
vn -0 -1 0
vn -0 -1 0
vn -0 -1 0
vn -0 -1 0
vn -0 0 1
vn -0 0 1
vn -0 0 1
vn -0 0 1
vn 1 0 0
vn 1 0 0
vn 1 0 0
vn 1 0 0
vn -0 0 -1
vn -0 0 -1
vn -0 0 -1
vn -0 0 -1
vn -1 0 0
vn -1 0 0
vn -1 0 0
vn -1 0 0
g body_geo_0
f 3/3/3 2/2/2 1/1/1
f 3/3/3 4/4/4 2/2/2
f 4/4/4 5/5/5 2/2/2
f 5/5/5 6/6/6 2/2/2
f 3/3/3 7/7/7 4/4/4
f 4/4/4 7/7/7 5/5/5
f 3/3/3 8/8/8 7/7/7
f 7/7/7 9/9/9 5/5/5
f 12/12/12 11/11/11 10/10/10
f 13/13/13 12/12/12 10/10/10
f 16/16/16 15/15/15 14/14/14
f 17/17/17 16/16/16 14/14/14
f 20/20/20 19/19/19 18/18/18
f 21/21/21 20/20/20 18/18/18
f 24/24/24 23/23/23 22/22/22
f 25/25/25 24/24/24 22/22/22
f 28/28/28 27/27/27 26/26/26
f 29/29/29 28/28/28 26/26/26
f 32/32/32 31/31/31 30/30/30
f 33/33/33 32/32/32 30/30/30
f 36/36/36 35/35/35 34/34/34
f 37/37/37 36/36/36 34/34/34
