g body_geo
v -1.192093E-09 0.0005283356 -0.01077235
v 0.00999089 0.0005283356 1.192093E-09
v -0.00999089 0.0005283356 0
v -1.192093E-09 0.0005283356 0.01077235
v -0.00999089 0.0005283356 0
v 0.00999089 0.0005283356 1.192093E-09
v -1.192093E-09 -0.2397856 0.0155286
v 0.00999089 0.0005283356 1.192093E-09
v 0.0144021 -0.2397856 1.192093E-09
v -1.192093E-09 0.0005283356 0.01077235
v -0.0144021 -0.2397856 1.192093E-09
v -0.00999089 0.0005283356 0
v 0.0144021 -0.2397856 1.192093E-09
v 0.00999089 0.0005283356 1.192093E-09
v -1.192093E-09 0.0005283356 -0.01077235
v -0 -0.2397856 -0.01552859
v -0.00999089 0.0005283356 0
v -0.0144021 -0.2397856 1.192093E-09
v -0.03343534 -0.2980729 0
v -0.0144021 -0.2397856 1.192093E-09
v -1.192093E-09 -0.2397856 0.0155286
v -0.0160675 -0.2980729 0.03118259
v -0.03565688 -0.7913931 0
v -0.01713507 -0.7913931 0.03156043
v 0.0160675 -0.2980729 0.03118259
v 0.0144021 -0.2397856 1.192093E-09
v 0.03343534 -0.2980729 0
v -0.01713507 -0.7913931 0.03156043
v -0.02562453 -0.8250055 0
v 0.03565688 -0.7913931 0
v 0.01713507 -0.7913931 0.03156042
v 0.01713507 -0.7913931 0.03156042
v 0.01231397 -0.8250055 0.02446648
v 0.02562452 -0.8250055 0
v -6.425159E-10 -0.8423554 7.702784E-11
v -0.01231397 -0.8250055 0.02446648
v 0.03343534 -0.2980729 0
v 0.0144021 -0.2397856 1.192093E-09
v -0 -0.2397856 -0.01552859
v 0.0160675 -0.2980729 -0.03118258
v 0.01713507 -0.7913931 -0.03156042
v 0.03565688 -0.7913931 0
v 0.02562452 -0.8250055 0
v 0.01231397 -0.8250055 -0.02446648
v -6.425159E-10 -0.8423554 7.702784E-11
v -0.01231397 -0.8250055 -0.02446648
v -0.02562453 -0.8250055 0
v 0.01713507 -0.7913931 -0.03156042
v -0.03565688 -0.7913931 0
v -0.01713507 -0.7913931 -0.03156042
v -0.0160675 -0.2980729 -0.03118258
v -0.03343534 -0.2980729 0
v -0.0160675 -0.2980729 -0.03118258
v -0.0144021 -0.2397856 1.192093E-09
v 0.0160675 -0.2980729 -0.03118258
vt 0.2132568 0.9008789
vt 0.3334961 0.8051758
vt 0.09631348 0.8051758
vt 0.2553711 0.9067383
vt 0.09631348 0.8051758
vt 0.3334961 0.8051758
vt 0.3950195 0.06915283
vt 0.8574219 0.6503906
vt 0.3356934 0.128418
vt 0.9165039 0.5913086
vt 0.4545898 0.009796143
vt 0.9760742 0.5317383
vt 0.3356934 0.128418
vt 0.8574219 0.6503906
vt 0.9165039 0.5913086
vt 0.3950195 0.06915283
vt 0.9760742 0.5317383
vt 0.4545898 0.009796143
vt 0.9575195 0.8120117
vt 0.9790039 0.8994141
vt 0.9433594 0.9355469
vt 0.9238281 0.8461914
vt 0.1920166 0.05831909
vt 0.1583252 0.09259033
vt 0.8549805 0.9160156
vt 0.9082031 0.9716797
vt 0.8173828 0.9545898
vt 0.1583252 0.09259033
vt 0.130249 0.02467346
vt 0.05187988 0.2006836
vt 0.08947754 0.1624756
vt 0.08947754 0.1624756
vt 0.04693604 0.109375
vt 0.02180481 0.1348877
vt 0.02812195 0.03323364
vt 0.1061401 0.04922485
vt 0.8173828 0.9545898
vt 0.9082031 0.9716797
vt 0.9433594 0.9355469
vt 0.8549805 0.9160156
vt 0.08947754 0.1624756
vt 0.05187988 0.2006836
vt 0.02180481 0.1348877
vt 0.04693604 0.109375
vt 0.02812195 0.03323364
vt 0.1061401 0.04922485
vt 0.130249 0.02467346
vt 0.08947754 0.1624756
vt 0.1920166 0.05831909
vt 0.1583252 0.09259033
vt 0.9238281 0.8461914
vt 0.9575195 0.8120117
vt 0.9238281 0.8461914
vt 0.9790039 0.8994141
vt 0.8549805 0.9160156
vn -0 1 0
vn -0 1 0
vn -0 1 0
vn -0 1 0
vn -0 1 0
vn -0 1 0
vn -5.960464E-08 0.01979065 1
vn 1 0.01835632 5.960464E-08
vn 1 0.01835632 5.960464E-08
vn -5.960464E-08 0.01979065 1
vn -1 0.01835632 0
vn -1 0.01835632 0
vn 1 0.01835632 5.960464E-08
vn 1 0.01835632 5.960464E-08
vn 5.960464E-08 0.01979065 -1
vn 5.960464E-08 0.01979065 -1
vn -1 0.01835632 0
vn -1 0.01835632 0
vn -0.9995117 0.03213501 0
vn -0.9306641 0.3652344 1.192093E-07
vn -1.192093E-07 0.4702148 0.8823242
vn -0.5283203 0.02459717 0.8486328
vn -1 -0.01135254 0
vn -0.5234375 -0.01182556 0.8520508
vn 0.5283203 0.02459717 0.8486328
vn 0.9306641 0.3652344 -5.960464E-08
vn 0.9995117 0.03213501 0
vn -0.5234375 -0.01182556 0.8520508
vn -0.9150391 -0.402832 5.960464E-08
vn 1 -0.01135254 0
vn 0.5234375 -0.01182556 0.8520508
vn 0.5234375 -0.01182556 0.8520508
vn 0.4787598 -0.3945312 0.7841797
vn 0.9150391 -0.402832 5.960464E-08
vn -1.192093E-07 -1 3.576279E-07
vn -0.4787598 -0.3945312 0.7841797
vn 0.9995117 0.03213501 0
vn 0.9306641 0.3652344 -5.960464E-08
vn 2.384186E-07 0.4702148 -0.8823242
vn 0.5283203 0.02459717 -0.8486328
vn 0.5234375 -0.01182556 -0.8520508
vn 1 -0.01135254 0
vn 0.9150391 -0.402832 5.960464E-08
vn 0.4787598 -0.3945312 -0.7841797
vn -1.192093E-07 -1 3.576279E-07
vn -0.4787598 -0.3945312 -0.7841797
vn -0.9150391 -0.402832 5.960464E-08
vn 0.5234375 -0.01182556 -0.8520508
vn -1 -0.01135254 0
vn -0.5234375 -0.01182556 -0.8520508
vn -0.5283203 0.02459717 -0.8486328
vn -0.9995117 0.03213501 0
vn -0.5283203 0.02459717 -0.8486328
vn -0.9306641 0.3652344 1.192093E-07
vn 0.5283203 0.02459717 -0.8486328
g body_geo_0
f 3/3/3 2/2/2 1/1/1
f 6/6/6 5/5/5 4/4/4
f 9/9/9 8/8/8 7/7/7
f 8/8/8 10/10/10 7/7/7
f 7/7/7 10/10/10 11/11/11
f 10/10/10 12/12/12 11/11/11
f 15/15/15 14/14/14 13/13/13
f 16/16/16 15/15/15 13/13/13
f 17/17/17 15/15/15 16/16/16
f 18/18/18 17/17/17 16/16/16
f 21/21/21 20/20/20 19/19/19
f 22/22/22 21/21/21 19/19/19
f 19/19/19 23/23/23 22/22/22
f 23/23/23 24/24/24 22/22/22
f 25/25/25 21/21/21 22/22/22
f 26/26/26 21/21/21 25/25/25
f 27/27/27 26/26/26 25/25/25
f 22/22/22 28/28/28 25/25/25
f 28/28/28 23/23/23 29/29/29
f 30/30/30 27/27/27 25/25/25
f 31/31/31 30/30/30 25/25/25
f 28/28/28 32/32/32 25/25/25
f 30/30/30 31/31/31 33/33/33
f 33/33/33 32/32/32 28/28/28
f 34/34/34 30/30/30 33/33/33
f 33/33/33 35/35/35 34/34/34
f 36/36/36 28/28/28 29/29/29
f 29/29/29 35/35/35 36/36/36
f 36/36/36 33/33/33 28/28/28
f 36/36/36 35/35/35 33/33/33
f 39/39/39 38/38/38 37/37/37
f 40/40/40 39/39/39 37/37/37
f 41/41/41 40/40/40 37/37/37
f 42/42/42 41/41/41 37/37/37
f 41/41/41 42/42/42 43/43/43
f 44/44/44 41/41/41 43/43/43
f 43/43/43 45/45/45 44/44/44
f 44/44/44 45/45/45 46/46/46
f 46/46/46 45/45/45 47/47/47
f 44/44/44 46/46/46 48/48/48
f 47/47/47 49/49/49 46/46/46
f 46/46/46 50/50/50 48/48/48
f 49/49/49 50/50/50 46/46/46
f 50/50/50 49/49/49 51/51/51
f 49/49/49 52/52/52 51/51/51
f 50/50/50 53/53/53 48/48/48
f 52/52/52 54/54/54 53/53/53
f 53/53/53 55/55/55 48/48/48
f 54/54/54 39/39/39 53/53/53
f 53/53/53 39/39/39 55/55/55
