g body_geo_emissive02
v -0 0.1313834 0.04868287
v -0 0.06770977 0.02023583
v -0 0.1770908 -0.006960897
v -0 0.07335056 -0.04980125
v -0 0.1398595 -0.06601272
v -0 -0.09666035 -0.5644185
v -0 -0.1653685 -0.5763666
v -0 -0.06600887 -0.6295789
v -0 -0.1770908 -0.6456457
v -0 -0.1165955 -0.6776859
v -0 -0.01051586 0.6776859
v -0 -0.07376713 0.6504011
v -0 0.03440857 0.6221403
v -0 -0.07010441 0.5812212
v -0 -0.003905907 0.5637854
vt 0.8657227 0.8935547
vt 0.8100586 0.9135742
vt 0.8999023 0.9467773
vt 0.8095703 0.9770508
vt 0.8642578 0.996582
vt 0.9736328 0.894043
vt 0.9155273 0.9052734
vt 0.9985352 0.9526367
vt 0.9042969 0.9672852
vt 0.9550781 0.9956055
vt 0.7695312 0.8955078
vt 0.7119141 0.9067383
vt 0.7944336 0.953125
vt 0.7006836 0.9677734
vt 0.7509766 0.996582
vn -1 0 0
vn -1 0 0
vn -1 0 0
vn -1 0 0
vn -1 0 0
vn -1 0 0
vn -1 0 0
vn -1 0 0
vn -1 0 0
vn -1 0 0
vn -1 0 0
vn -1 0 0
vn -1 0 0
vn -1 0 0
vn -1 0 0
g body_geo_emissive02_0
f 3/3/3 2/2/2 1/1/1
f 3/3/3 4/4/4 2/2/2
f 3/3/3 5/5/5 4/4/4
f 8/8/8 7/7/7 6/6/6
f 8/8/8 9/9/9 7/7/7
f 8/8/8 10/10/10 9/9/9
f 13/13/13 12/12/12 11/11/11
f 13/13/13 14/14/14 12/12/12
f 13/13/13 15/15/15 14/14/14
