g body_geo_emissive03
v -0.01076773 -0.1779984 0.1146391
v -0.01076773 -0.05852966 0.1146391
v -0.01076773 -0.02693817 0.1999522
v -0.01076773 -0.1779984 1.065002
v -0.01076773 0.1630048 0.8970299
v -0.01076773 0.06432708 0.3576213
v -0.01076773 0.19826 0.4294292
v -0.01076773 0.19826 0.7761613
v -0.01076773 0.05024422 1.464257
v -0.01076773 0.1630048 1.233036
v -0.01076773 -0.1779984 1.176927
v -0.01076773 -0.1779984 1.323252
v -0.01076773 -0.1779984 1.382048
v -0.01076773 -0.1914771 1.351469
v -0.01076773 -0.1779984 1.464257
v -0.01076773 -0.2543723 1.092587
v -0.01076773 -0.2406443 1.041725
v -0.01076773 -0.1779984 1.065002
v -0.01076773 -0.1779984 1.176927
v -0.01076773 -0.2543723 1.14855
vt 0.1165161 0.9604492
vt 0.1901855 0.9604492
vt 0.2097168 0.9077148
vt 0.1165161 0.3735352
vt 0.3269043 0.4772949
vt 0.2661133 0.8100586
vt 0.3486328 0.7661133
vt 0.3486328 0.5517578
vt 0.2573242 0.1271973
vt 0.3269043 0.2700195
vt 0.1165161 0.3044434
vt 0.1165161 0.2142334
vt 0.1165161 0.1779785
vt 0.1081543 0.1967773
vt 0.1165161 0.1271973
vt 0.18396 0.07354736
vt 0.1923828 0.1049194
vt 0.2310791 0.09057617
vt 0.2310791 0.02146912
vt 0.18396 0.03897095
vn -1 0 0
vn -1 0 0
vn -1 0 0
vn -1 0 0
vn -1 0 0
vn -1 0 0
vn -1 0 0
vn -1 0 0
vn -1 0 0
vn -1 0 0
vn -1 0 0
vn -1 0 0
vn -1 0 0
vn -1 0 0
vn -1 0 0
vn -1 0 0
vn -1 0 0
vn -1 0 0
vn -1 0 0
vn -1 0 0
g body_geo_emissive03_0
f 3/3/3 2/2/2 1/1/1
f 4/4/4 3/3/3 1/1/1
f 4/4/4 5/5/5 3/3/3
f 6/6/6 3/3/3 5/5/5
f 7/7/7 6/6/6 5/5/5
f 8/8/8 7/7/7 5/5/5
f 4/4/4 9/9/9 5/5/5
f 9/9/9 10/10/10 5/5/5
f 9/9/9 4/4/4 11/11/11
f 9/9/9 11/11/11 12/12/12
f 9/9/9 12/12/12 13/13/13
f 12/12/12 14/14/14 13/13/13
f 9/9/9 13/13/13 15/15/15
f 18/18/18 17/17/17 16/16/16
f 18/18/18 16/16/16 19/19/19
f 16/16/16 20/20/20 19/19/19
