g body_geo_emissive01
v -0 -0.02160561 -0.4095613
v -0 -0.0825143 -0.4898573
v -0 0.07948456 -0.4216998
v -0 0.1172722 -0.5150877
v -0 -0.04351452 -0.5836299
v -0 0.05538898 -0.5958211
v -0 -0.06372177 0.5958211
v -0 -0.1172722 0.5112053
v -0 0.03681438 0.5926757
v -0 0.0828854 0.5040509
v -0 -0.07106274 0.4224373
v -0 0.02933323 0.419533
vt 0.6860352 0.005355835
vt 0.640625 0.07958984
vt 0.7719727 0.005355835
vt 0.8105469 0.08831787
vt 0.6801758 0.1628418
vt 0.7646484 0.1628418
vt 0.8666992 0.005924225
vt 0.8212891 0.07952881
vt 0.9516602 0.005924225
vt 0.9902344 0.08789062
vt 0.8603516 0.161499
vt 0.9448242 0.161499
vn -1 0 0
vn -1 0 0
vn -1 0 0
vn -1 0 0
vn -1 0 0
vn -1 0 0
vn -1 0 0
vn -1 0 0
vn -1 0 0
vn -1 0 0
vn -1 0 0
vn -1 0 0
g body_geo_emissive01_0
f 3/3/3 2/2/2 1/1/1
f 3/3/3 4/4/4 2/2/2
f 4/4/4 5/5/5 2/2/2
f 6/6/6 5/5/5 4/4/4
f 9/9/9 8/8/8 7/7/7
f 9/9/9 10/10/10 8/8/8
f 10/10/10 11/11/11 8/8/8
f 12/12/12 11/11/11 10/10/10
