g bf_geo
v 0.02981486 0.7833407 0.2086207
v 0.02981484 0.7619753 0.1655798
v 0.000273993 0.7652992 0.1653409
v 0.0002740002 0.7861748 0.2068674
v -0.02926685 0.7619752 0.1655798
v -0.02926685 0.7833408 0.2086207
v -0.02926685 0.7833408 0.2086207
v -0.02926685 0.7619752 0.1655798
v -0.07838683 0.7590135 0.1715139
v -0.07838683 0.7792857 0.2133663
v 0.1145973 0.3582322 0.6260584
v 0.07415417 0.2971911 0.6058174
v 0.08849693 0.308817 0.5861111
v 0.09648021 0.3467428 0.6456071
v 0.1211744 0.3643287 0.6611223
v 0.1418322 0.395156 0.6587026
v 0.09056065 0.3324733 0.6691337
v 0.1192589 0.3653352 0.7075768
v 1E-08 0.4242409 0.5459682
v 1E-08 0.3990773 0.5413811
v 1E-08 0.4104212 0.4787894
v 1E-08 0.4355848 0.4833764
v -0.1535916 0.5403197 0.7146808
v -0.1474334 0.5538459 0.6340423
v -0.1684826 0.4759669 0.6193714
v -0.1746408 0.4624407 0.7000099
v -0.1644975 0.5496672 0.7105504
v -0.168331 0.5855907 0.6445381
v -0.1923821 0.5223824 0.6115372
v -0.1885487 0.4864589 0.6775495
v -0.1403599 0.389894 0.6804604
v -0.1336088 0.3765446 0.665771
v -0.1180088 0.3677212 0.678624
v -0.1242854 0.3809654 0.6940514
v 0.1403599 0.389894 0.6804604
v 0.1242854 0.3809654 0.6940514
v 0.1180088 0.3677212 0.678624
v 0.1336088 0.3765446 0.665771
v 0.1518037 0.5351101 0.7151157
v 0.1788762 0.4640725 0.6843884
v 0.1835895 0.4980781 0.6099247
v 0.156517 0.5691157 0.6406521
v 1E-08 0.3406071 0.5114027
v 1E-08 0.3209862 0.5114647
v 1E-08 0.3208078 0.4969216
v 1E-08 0.3404287 0.4968596
v 1E-08 0.3662141 0.5114027
v 1E-08 0.3465932 0.5114647
v 1E-08 0.3464148 0.4969216
v 1E-08 0.3660358 0.4968596
v 1E-08 0.316252 0.5114027
v 1E-08 0.2966311 0.5114647
v 1E-08 0.2964528 0.4969216
v 1E-08 0.3160737 0.4968596
v 1E-08 0.3824165 0.5115255
v 1E-08 0.3718157 0.5114647
v 1E-08 0.3716432 0.4969216
v 1E-08 0.3850452 0.4970214
v -0.00724056 0.3528846 0.5041622
v -0.00730251 0.3332637 0.5041622
v 0.007240539 0.3330853 0.5041622
v 0.00730251 0.3527063 0.5041622
v -0.00724056 0.3784584 0.5041622
v -0.00730251 0.3588375 0.5041622
v 0.007240539 0.3586591 0.5041622
v 0.00730251 0.37828 0.5041622
v -0.00724056 0.3283406 0.5041622
v -0.00730251 0.3087197 0.5041622
v 0.007240539 0.3085413 0.5041622
v 0.00730251 0.3281623 0.5041622
v -0.1145973 0.3582322 0.6260584
v -0.08849693 0.308817 0.5861111
v -0.07415417 0.2971911 0.6058174
v -0.09648021 0.3467428 0.6456071
v -0.1211744 0.3643287 0.6611223
v -0.1418322 0.395156 0.6587026
v -0.09056065 0.3324733 0.6691337
v -0.1192589 0.3653352 0.7075768
v -0.1561675 0.6430212 0.6103319
v -0.1298824 0.6074668 0.6405174
v -0.1133204 0.6263772 0.6512349
v -0.1082094 0.5860454 0.6658785
v -0.08609705 0.5767051 0.6925029
v -0.09289544 0.6113365 0.6862177
v -0.107292 0.6447749 0.6705207
v -0.1382112 0.6642347 0.6229014
v -0.1733366 0.6823505 0.591579
v -0.1307882 0.6849353 0.6440395
v -0.1799105 0.7193904 0.585714
v -0.156289 0.7105046 0.6142209
v 0.1561675 0.6430212 0.6103319
v 0.1133204 0.6263772 0.6512349
v 0.1298824 0.6074668 0.6405174
v 0.1082094 0.5860454 0.6658785
v 0.08609705 0.5767051 0.6925029
v 0.09289544 0.6113365 0.6862177
v 0.107292 0.6447749 0.6705207
v 0.1382112 0.6642347 0.6229014
v 0.1733366 0.6823505 0.591579
v 0.1307882 0.6849353 0.6440395
v 0.1799105 0.7193904 0.585714
v 0.156289 0.7105046 0.6142209
vt 0.6469727 0.3706055
vt 0.6469727 0.3337402
vt 0.6777344 0.3337402
vt 0.6782227 0.3706055
vt 0.7089844 0.3337402
vt 0.7099609 0.3706055
vt 0.7099609 0.3706055
vt 0.7089844 0.3337402
vt 0.7617188 0.3337402
vt 0.7617188 0.3706055
vt 0.4516602 0.9257812
vt 0.4177246 0.8500977
vt 0.4470215 0.8510742
vt 0.4199219 0.925293
vt 0.4255371 0.9555664
vt 0.4580078 0.9873047
vt 0.3876953 0.9287109
vt 0.3850098 0.9873047
vt 0.6269531 0.324707
vt 0.6269531 0.2890625
vt 0.6894531 0.2890625
vt 0.6894531 0.324707
vt 0.1842041 0.4875488
vt 0.1842041 0.5429688
vt 0.2398682 0.5429688
vt 0.2398682 0.4875488
vt 0.1842041 0.4875488
vt 0.1842041 0.5429688
vt 0.2398682 0.5429688
vt 0.2398682 0.4875488
vt 0.1500244 0.3574219
vt 0.1485596 0.3210449
vt 0.1103516 0.3195801
vt 0.1103516 0.3566895
vt 0.1500244 0.3574219
vt 0.1103516 0.3566895
vt 0.1103516 0.3195801
vt 0.1485596 0.3210449
vt 0.1842041 0.4875488
vt 0.2398682 0.4875488
vt 0.2398682 0.5429688
vt 0.1842041 0.5429688
vt 0.01490021 0.9858398
vt 0.06677246 0.9858398
vt 0.06677246 0.9467773
vt 0.01490021 0.9467773
vt 0.01490021 0.9858398
vt 0.06677246 0.9858398
vt 0.06677246 0.9467773
vt 0.01490021 0.9467773
vt 0.01490021 0.9858398
vt 0.06677246 0.9858398
vt 0.06677246 0.9467773
vt 0.01490021 0.9467773
vt 0.03411865 0.9858398
vt 0.06677246 0.9858398
vt 0.06677246 0.9467773
vt 0.02919006 0.9467773
vt 0.01490021 0.9858398
vt 0.06677246 0.9858398
vt 0.06677246 0.9467773
vt 0.01490021 0.9467773
vt 0.01490021 0.9858398
vt 0.06677246 0.9858398
vt 0.06677246 0.9467773
vt 0.01490021 0.9467773
vt 0.01490021 0.9858398
vt 0.06677246 0.9858398
vt 0.06677246 0.9467773
vt 0.01490021 0.9467773
vt 0.4516602 0.9257812
vt 0.4470215 0.8510742
vt 0.4177246 0.8500977
vt 0.4199219 0.925293
vt 0.4255371 0.9555664
vt 0.4580078 0.9873047
vt 0.3876953 0.9287109
vt 0.3850098 0.9873047
vt 0.05233765 0.3566895
vt 0.04873657 0.3222656
vt 0.03112793 0.3232422
vt 0.04174805 0.2976074
vt 0.02906799 0.2780762
vt 0.01821899 0.298584
vt 0.01350403 0.3239746
vt 0.03268433 0.357666
vt 0.04708862 0.3867188
vt 0.01306152 0.3586426
vt 0.03500366 0.4082031
vt 0.02101135 0.3879395
vt 0.05233765 0.3566895
vt 0.03112793 0.3232422
vt 0.04873657 0.3222656
vt 0.04174805 0.2976074
vt 0.02906799 0.2780762
vt 0.01821899 0.298584
vt 0.01350403 0.3239746
vt 0.03268433 0.357666
vt 0.04708862 0.3867188
vt 0.01306152 0.3586426
vt 0.03500366 0.4082031
vt 0.02101135 0.3879395
vn -0.1076813 -0.8894062 0.4442537
vn -0.1076813 -0.8894062 0.4442538
vn -0 -0.8946077 0.4468522
vn -0 -0.8946077 0.4468522
vn 0.1076812 -0.8894059 0.4442544
vn 0.1076813 -0.8894059 0.4442544
vn 0.1113031 -0.8922455 0.437618
vn 0.1113031 -0.8922455 0.4376181
vn 0.1113031 -0.8922455 0.437618
vn 0.1113031 -0.8922455 0.437618
vn -0.7500829 0.6288856 -0.2046423
vn -0.7564182 0.5928208 -0.2763967
vn -0.7564181 0.5928208 -0.2763967
vn -0.7359444 0.6580538 -0.1592202
vn -0.7729577 0.6344554 0.00163234
vn -0.8309467 0.5563136 -0.006549941
vn -0.7139064 0.6984983 0.04937309
vn -0.7694737 0.6370534 -0.04553229
vn -1 0 0
vn -1 0 0
vn -1 0 0
vn -1 0 0
vn 0.9635665 -0.2658938 0.02898507
vn 0.9635665 -0.2658938 0.02898507
vn 0.9635665 -0.2658938 0.02898507
vn 0.9635665 -0.2658938 0.02898507
vn 0.9461792 -0.2580278 -0.1953628
vn 0.9461792 -0.2580278 -0.1953628
vn 0.9461792 -0.2580278 -0.1953627
vn 0.9461792 -0.2580278 -0.1953628
vn 0.6531709 0.6851301 -0.322435
vn 0.653171 0.6851301 -0.322435
vn 0.6531709 0.6851302 -0.322435
vn 0.6531709 0.6851301 -0.322435
vn -0.6531715 0.6851299 -0.3224348
vn -0.6531715 0.6851299 -0.3224348
vn -0.6531714 0.6851299 -0.3224348
vn -0.6531715 0.6851299 -0.3224348
vn -0.9421707 -0.2782944 -0.186726
vn -0.9421707 -0.2782944 -0.186726
vn -0.9421707 -0.2782944 -0.186726
vn -0.9421707 -0.2782944 -0.186726
vn -1 0 0
vn -1 0 0
vn -1 0 0
vn -1 0 0
vn -1 0 0
vn -1 0 0
vn -1 0 0
vn -1 0 0
vn -1 0 0
vn -1 0 0
vn -1 0 0
vn -1 0 0
vn -1 0 0
vn -1 0 0
vn -1 0 0
vn -1 0 0
vn -0 0 -1
vn -0 0 -1
vn -0 0 -1
vn -0 0 -1
vn -0 0 -1
vn -0 0 -1
vn -0 0 -1
vn -0 0 -1
vn -0 0 -1
vn -0 0 -1
vn -0 0 -1
vn -0 0 -1
vn 0.7500829 0.6288856 -0.2046424
vn 0.756418 0.5928208 -0.2763968
vn 0.756418 0.5928208 -0.2763968
vn 0.7359443 0.6580538 -0.1592203
vn 0.7729577 0.6344554 0.001632351
vn 0.8309467 0.5563136 -0.006549945
vn 0.7139064 0.6984983 0.049373
vn 0.7694736 0.6370535 -0.04553227
vn 0.651329 -0.120244 -0.7492076
vn 0.6595176 -0.1436542 -0.7378346
vn 0.7860606 0.02086989 -0.617797
vn 0.7220793 -0.1534226 -0.6745836
vn 0.8167031 -0.0311236 -0.5762182
vn 0.8776833 0.1035592 -0.4679181
vn 0.8626282 0.1917822 -0.4680728
vn 0.7686126 0.04763363 -0.6379387
vn 0.6603182 -0.01778027 -0.7507753
vn 0.8488423 0.2059495 -0.4868792
vn 0.7319827 0.09889995 -0.674107
vn 0.7936876 0.2024755 -0.5736408
vn -0.6513288 -0.1202438 -0.7492077
vn -0.7860602 0.0208701 -0.6177976
vn -0.6595173 -0.1436542 -0.737835
vn -0.7220803 -0.1534224 -0.6745826
vn -0.8167036 -0.03112348 -0.5762175
vn -0.8776833 0.1035592 -0.4679181
vn -0.8626276 0.1917824 -0.4680739
vn -0.7686122 0.04763389 -0.6379392
vn -0.6603187 -0.0177802 -0.750775
vn -0.8488418 0.2059499 -0.4868802
vn -0.7319825 0.09889997 -0.674107
vn -0.793687 0.2024756 -0.5736414
g bf_geo_0
f 3/3/3 2/2/2 1/1/1
f 4/4/4 3/3/3 1/1/1
f 5/5/5 3/3/3 4/4/4
f 6/6/6 5/5/5 4/4/4
f 9/9/9 8/8/8 7/7/7
f 10/10/10 9/9/9 7/7/7
f 13/13/13 12/12/12 11/11/11
f 12/12/12 14/14/14 11/11/11
f 14/14/14 15/15/15 11/11/11
f 11/11/11 15/15/15 16/16/16
f 17/17/17 15/15/15 14/14/14
f 15/15/15 18/18/18 16/16/16
f 18/18/18 15/15/15 17/17/17
f 21/21/21 20/20/20 19/19/19
f 22/22/22 21/21/21 19/19/19
f 25/25/25 24/24/24 23/23/23
f 26/26/26 25/25/25 23/23/23
f 29/29/29 28/28/28 27/27/27
f 30/30/30 29/29/29 27/27/27
f 33/33/33 32/32/32 31/31/31
f 34/34/34 33/33/33 31/31/31
f 37/37/37 36/36/36 35/35/35
f 38/38/38 37/37/37 35/35/35
f 41/41/41 40/40/40 39/39/39
f 42/42/42 41/41/41 39/39/39
f 45/45/45 44/44/44 43/43/43
f 46/46/46 45/45/45 43/43/43
f 49/49/49 48/48/48 47/47/47
f 50/50/50 49/49/49 47/47/47
f 53/53/53 52/52/52 51/51/51
f 54/54/54 53/53/53 51/51/51
f 57/57/57 56/56/56 55/55/55
f 58/58/58 57/57/57 55/55/55
f 61/61/61 60/60/60 59/59/59
f 62/62/62 61/61/61 59/59/59
f 65/65/65 64/64/64 63/63/63
f 66/66/66 65/65/65 63/63/63
f 69/69/69 68/68/68 67/67/67
f 70/70/70 69/69/69 67/67/67
f 73/73/73 72/72/72 71/71/71
f 74/74/74 73/73/73 71/71/71
f 75/75/75 74/74/74 71/71/71
f 75/75/75 71/71/71 76/76/76
f 75/75/75 77/77/77 74/74/74
f 78/78/78 75/75/75 76/76/76
f 75/75/75 78/78/78 77/77/77
f 81/81/81 80/80/80 79/79/79
f 81/81/81 82/82/82 80/80/80
f 81/81/81 83/83/83 82/82/82
f 84/84/84 83/83/83 81/81/81
f 85/85/85 84/84/84 81/81/81
f 86/86/86 81/81/81 79/79/79
f 85/85/85 81/81/81 86/86/86
f 86/86/86 79/79/79 87/87/87
f 88/88/88 85/85/85 86/86/86
f 86/86/86 87/87/87 89/89/89
f 88/88/88 86/86/86 90/90/90
f 86/86/86 89/89/89 90/90/90
f 93/93/93 92/92/92 91/91/91
f 94/94/94 92/92/92 93/93/93
f 95/95/95 92/92/92 94/94/94
f 95/95/95 96/96/96 92/92/92
f 96/96/96 97/97/97 92/92/92
f 92/92/92 98/98/98 91/91/91
f 92/92/92 97/97/97 98/98/98
f 91/91/91 98/98/98 99/99/99
f 97/97/97 100/100/100 98/98/98
f 99/99/99 98/98/98 101/101/101
f 98/98/98 100/100/100 102/102/102
f 101/101/101 98/98/98 102/102/102
