g body_trns_geo
v -0 0.02492926 0.336039
v 0.001884749 0.02492926 0.336039
v 0.001884749 0.04714078 0.4723061
v -0 0.04714078 0.4723061
v 0.001884749 0.02492926 0.336039
v 0.001884749 -0.008537039 0.5127247
v 0.001884749 0.04714078 0.4723061
v 0.001884749 -0.07668594 0.5127643
v 0.001884749 -0.08257741 0.3542618
v 0.001884749 0.002427778 0.8504114
v 0.001884749 -0.07668592 0.8504114
v 0.001884744 -0.06374151 1.393667
v 0.001884744 0.0198376 1.51231
v 0.001884749 0.0577168 1.545361
v 0.001884749 0.05049685 1.393667
v 0.001884749 0.06855682 1.078628
v 0.001884749 -0.07668591 1.080061
v 0.001884749 0.002427778 0.8504114
v 0.001884749 -0.07668592 0.8504114
v 0.001884749 0.06913449 0.8566707
v -0 0.02492926 0.336039
v -0 0.04714078 0.4723061
v -0.001884749 0.04714078 0.4723061
v -0.001884749 0.02492926 0.336039
v -0.001884749 0.02492926 0.336039
v -0.001884749 0.04714078 0.4723061
v -0.001884749 -0.008537039 0.5127247
v -0.001884749 -0.07668594 0.5127643
v -0.001884749 -0.08257741 0.3542618
v -0.001884749 0.002427778 0.8504114
v -0.001884749 -0.07668592 0.8504114
v -0.001884749 -0.06374151 1.393667
v -0.001884749 0.0577168 1.545361
v -0.001884751 0.0198376 1.51231
v -0.001884749 0.05049685 1.393667
v -0.001884749 0.06855682 1.078628
v -0.001884744 -0.07668591 1.080061
v -0.001884749 0.002427778 0.8504114
v -0.001884749 -0.07668592 0.8504114
v -0.001884752 0.06913449 0.8566707
v -0.03354966 0.04243838 0.4199246
v -0.03354965 0.1062357 0.3693784
v -0.02244358 0.1112225 0.3756725
v -0.02244358 0.04742521 0.4262187
v -0 0.1140808 0.37928
v -0 0.05028349 0.4298263
v 0.03354964 0.04243838 0.4199246
v 0.02244358 0.1112225 0.3756725
v 0.03354966 0.1062357 0.3693784
v 0.02244358 0.04742521 0.4262187
v -0 0.1140808 0.37928
v -0 0.05028349 0.4298263
vt 0.2583008 0.003341675
vt 0.2583008 0.003341675
vt 0.2783203 0.1334229
vt 0.2783203 0.1334229
vt 0.2583008 0.003341675
vt 0.2216797 0.1721191
vt 0.2783203 0.1334229
vt 0.1553955 0.1715088
vt 0.1553955 0.003341675
vt 0.2233887 0.4985352
vt 0.1469727 0.4978027
vt 0.0249176 0.5390625
vt 0.09515381 0.6801758
vt 0.1273193 0.6801758
vt 0.130127 0.5400391
vt 0.147583 0.2293701
vt 0.005332947 0.2293701
vt 0.08447266 0.003686905
vt 0.005332947 0.003686905
vt 0.1502686 0.003686905
vt 0.2583008 0.003341675
vt 0.2783203 0.1334229
vt 0.2783203 0.1334229
vt 0.2583008 0.003341675
vt 0.2583008 0.003341675
vt 0.2783203 0.1334229
vt 0.2216797 0.1721191
vt 0.1553955 0.1715088
vt 0.1553955 0.003341675
vt 0.2233887 0.4985352
vt 0.1469727 0.4978027
vt 0.0249176 0.5390625
vt 0.1273193 0.6801758
vt 0.09515381 0.6801758
vt 0.130127 0.5400391
vt 0.147583 0.2293701
vt 0.005332947 0.2293701
vt 0.08447266 0.003686905
vt 0.005332947 0.003686905
vt 0.1502686 0.003686905
vt 0.04135132 0.5820312
vt 0.04135132 0.6586914
vt 0.02836609 0.6586914
vt 0.02836609 0.5820312
vt 0.00668335 0.6586914
vt 0.004749298 0.5820312
vt 0.04135132 0.5820312
vt 0.02836609 0.6586914
vt 0.04135132 0.6586914
vt 0.02836609 0.5820312
vt 0.00668335 0.6586914
vt 0.004749298 0.5820312
vn -0 0.9868164 -0.1608887
vn -0 0.9868164 -0.1608887
vn -0 0.9868164 -0.1608887
vn -0 0.9868164 -0.1608887
vn 1 0 0
vn 1 0 0
vn 1 0 0
vn 1 0 0
vn 1 0 0
vn 1 0 0
vn 1 0 0
vn 1 0 0
vn 1 0 0
vn 1 0 0
vn 1 0 0
vn 1 0 0
vn 1 0 0
vn 1 0 0
vn 1 0 0
vn 1 0 0
vn -0 0.9868164 -0.1608887
vn -0 0.9868164 -0.1608887
vn -0 0.9868164 -0.1608887
vn -0 0.9868164 -0.1608887
vn -1 0 0
vn -1 0 0
vn -1 0 0
vn -1 0 0
vn -1 0 0
vn -1 0 0
vn -1 0 0
vn -1 0 0
vn -1 0 0
vn -1 0 0
vn -1 0 0
vn -1 0 0
vn -1 0 0
vn -1 0 0
vn -1 0 0
vn -1 0 0
vn -0.5859375 0.503418 0.6352539
vn -0.5859375 0.503418 0.6352539
vn -0.3522949 0.5810547 0.7333984
vn -0.3522949 0.5810547 0.7333984
vn -3.576279E-07 0.6210938 0.7836914
vn -3.576279E-07 0.6210938 0.7836914
vn 0.5859375 0.503418 0.6352539
vn 0.3522949 0.5810547 0.7333984
vn 0.5859375 0.503418 0.6352539
vn 0.3522949 0.5810547 0.7333984
vn -3.576279E-07 0.6210938 0.7836914
vn -3.576279E-07 0.6210938 0.7836914
g body_trns_geo_0
f 3/3/3 2/2/2 1/1/1
f 4/4/4 3/3/3 1/1/1
f 7/7/7 6/6/6 5/5/5
f 6/6/6 8/8/8 5/5/5
f 8/8/8 9/9/9 5/5/5
f 8/8/8 6/6/6 10/10/10
f 11/11/11 8/8/8 10/10/10
f 14/14/14 13/13/13 12/12/12
f 15/15/15 14/14/14 12/12/12
f 16/16/16 15/15/15 12/12/12
f 17/17/17 16/16/16 12/12/12
f 18/18/18 16/16/16 17/17/17
f 19/19/19 18/18/18 17/17/17
f 18/18/18 20/20/20 16/16/16
f 23/23/23 22/22/22 21/21/21
f 24/24/24 23/23/23 21/21/21
f 27/27/27 26/26/26 25/25/25
f 28/28/28 27/27/27 25/25/25
f 29/29/29 28/28/28 25/25/25
f 27/27/27 28/28/28 30/30/30
f 28/28/28 31/31/31 30/30/30
f 34/34/34 33/33/33 32/32/32
f 33/33/33 35/35/35 32/32/32
f 35/35/35 36/36/36 32/32/32
f 36/36/36 37/37/37 32/32/32
f 36/36/36 38/38/38 37/37/37
f 38/38/38 39/39/39 37/37/37
f 40/40/40 38/38/38 36/36/36
f 43/43/43 42/42/42 41/41/41
f 44/44/44 43/43/43 41/41/41
f 45/45/45 43/43/43 44/44/44
f 46/46/46 45/45/45 44/44/44
f 49/49/49 48/48/48 47/47/47
f 48/48/48 50/50/50 47/47/47
f 48/48/48 51/51/51 50/50/50
f 51/51/51 52/52/52 50/50/50
